G04 #@! TF.GenerationSoftware,KiCad,Pcbnew,9.0.5*
G04 #@! TF.CreationDate,2025-12-09T18:52:37+01:00*
G04 #@! TF.ProjectId,fotoaparat,666f746f-6170-4617-9261-742e6b696361,rev?*
G04 #@! TF.SameCoordinates,Original*
G04 #@! TF.FileFunction,Copper,L2,Bot*
G04 #@! TF.FilePolarity,Positive*
%FSLAX46Y46*%
G04 Gerber Fmt 4.6, Leading zero omitted, Abs format (unit mm)*
G04 Created by KiCad (PCBNEW 9.0.5) date 2025-12-09 18:52:37*
%MOMM*%
%LPD*%
G01*
G04 APERTURE LIST*
G04 Aperture macros list*
%AMRoundRect*
0 Rectangle with rounded corners*
0 $1 Rounding radius*
0 $2 $3 $4 $5 $6 $7 $8 $9 X,Y pos of 4 corners*
0 Add a 4 corners polygon primitive as box body*
4,1,4,$2,$3,$4,$5,$6,$7,$8,$9,$2,$3,0*
0 Add four circle primitives for the rounded corners*
1,1,$1+$1,$2,$3*
1,1,$1+$1,$4,$5*
1,1,$1+$1,$6,$7*
1,1,$1+$1,$8,$9*
0 Add four rect primitives between the rounded corners*
20,1,$1+$1,$2,$3,$4,$5,0*
20,1,$1+$1,$4,$5,$6,$7,0*
20,1,$1+$1,$6,$7,$8,$9,0*
20,1,$1+$1,$8,$9,$2,$3,0*%
G04 Aperture macros list end*
G04 #@! TA.AperFunction,ComponentPad*
%ADD10C,2.400000*%
G04 #@! TD*
G04 #@! TA.AperFunction,ComponentPad*
%ADD11O,3.000000X1.900000*%
G04 #@! TD*
G04 #@! TA.AperFunction,ComponentPad*
%ADD12R,1.900000X2.300000*%
G04 #@! TD*
G04 #@! TA.AperFunction,ComponentPad*
%ADD13C,1.900000*%
G04 #@! TD*
G04 #@! TA.AperFunction,ComponentPad*
%ADD14RoundRect,0.250000X0.550000X0.550000X-0.550000X0.550000X-0.550000X-0.550000X0.550000X-0.550000X0*%
G04 #@! TD*
G04 #@! TA.AperFunction,ComponentPad*
%ADD15C,1.600000*%
G04 #@! TD*
G04 #@! TA.AperFunction,ComponentPad*
%ADD16C,2.300000*%
G04 #@! TD*
G04 #@! TA.AperFunction,ComponentPad*
%ADD17R,2.400000X2.400000*%
G04 #@! TD*
G04 #@! TA.AperFunction,ComponentPad*
%ADD18O,2.400000X2.400000*%
G04 #@! TD*
G04 #@! TA.AperFunction,ComponentPad*
%ADD19RoundRect,0.250000X0.550000X-0.550000X0.550000X0.550000X-0.550000X0.550000X-0.550000X-0.550000X0*%
G04 #@! TD*
G04 #@! TA.AperFunction,ComponentPad*
%ADD20RoundRect,0.250000X-0.550000X0.550000X-0.550000X-0.550000X0.550000X-0.550000X0.550000X0.550000X0*%
G04 #@! TD*
G04 #@! TA.AperFunction,ComponentPad*
%ADD21O,1.900000X3.000000*%
G04 #@! TD*
G04 #@! TA.AperFunction,ComponentPad*
%ADD22R,3.000000X1.900000*%
G04 #@! TD*
G04 #@! TA.AperFunction,SMDPad,CuDef*
%ADD23RoundRect,0.250000X0.337500X0.475000X-0.337500X0.475000X-0.337500X-0.475000X0.337500X-0.475000X0*%
G04 #@! TD*
G04 #@! TA.AperFunction,SMDPad,CuDef*
%ADD24RoundRect,0.150000X-0.512500X-0.150000X0.512500X-0.150000X0.512500X0.150000X-0.512500X0.150000X0*%
G04 #@! TD*
G04 #@! TA.AperFunction,SMDPad,CuDef*
%ADD25RoundRect,0.150000X0.512500X0.150000X-0.512500X0.150000X-0.512500X-0.150000X0.512500X-0.150000X0*%
G04 #@! TD*
G04 #@! TA.AperFunction,SMDPad,CuDef*
%ADD26RoundRect,0.250000X-0.337500X-0.475000X0.337500X-0.475000X0.337500X0.475000X-0.337500X0.475000X0*%
G04 #@! TD*
G04 #@! TA.AperFunction,SMDPad,CuDef*
%ADD27RoundRect,0.250000X0.475000X-0.337500X0.475000X0.337500X-0.475000X0.337500X-0.475000X-0.337500X0*%
G04 #@! TD*
G04 #@! TA.AperFunction,SMDPad,CuDef*
%ADD28RoundRect,0.250000X-0.475000X0.337500X-0.475000X-0.337500X0.475000X-0.337500X0.475000X0.337500X0*%
G04 #@! TD*
G04 #@! TA.AperFunction,SMDPad,CuDef*
%ADD29RoundRect,0.175000X-0.175000X0.825000X-0.175000X-0.825000X0.175000X-0.825000X0.175000X0.825000X0*%
G04 #@! TD*
G04 #@! TA.AperFunction,SMDPad,CuDef*
%ADD30RoundRect,0.175000X-0.825000X-0.175000X0.825000X-0.175000X0.825000X0.175000X-0.825000X0.175000X0*%
G04 #@! TD*
G04 #@! TA.AperFunction,SMDPad,CuDef*
%ADD31RoundRect,0.175000X0.825000X0.175000X-0.825000X0.175000X-0.825000X-0.175000X0.825000X-0.175000X0*%
G04 #@! TD*
G04 #@! TA.AperFunction,ViaPad*
%ADD32C,2.400000*%
G04 #@! TD*
G04 #@! TA.AperFunction,Conductor*
%ADD33C,0.700000*%
G04 #@! TD*
G04 #@! TA.AperFunction,Conductor*
%ADD34C,0.601000*%
G04 #@! TD*
G04 APERTURE END LIST*
D10*
X74612500Y29580000D03*
X74612500Y19420000D03*
D11*
X10500000Y47200000D03*
X10500000Y44500000D03*
X10500000Y41800000D03*
X10500000Y39300000D03*
X95200000Y59660000D03*
X95200000Y57120000D03*
X95200000Y54580000D03*
X95200000Y52040000D03*
X95200000Y49500000D03*
X95200000Y46960000D03*
X95200000Y44420000D03*
X95200000Y41880000D03*
X95200000Y39340000D03*
X95200000Y36800000D03*
X95200000Y34260000D03*
X95200000Y31720000D03*
X95200000Y29180000D03*
X95200000Y26640000D03*
D12*
X35460000Y17500000D03*
D13*
X38000000Y17500000D03*
D14*
X48955100Y28500000D03*
D15*
X46955100Y28500000D03*
D16*
X83082341Y66480000D03*
X69082341Y66480000D03*
X83082341Y43480000D03*
X69082341Y43480000D03*
X79850000Y43480000D03*
X72150000Y43380000D03*
D10*
X78420000Y19112500D03*
X88580000Y19112500D03*
X63080000Y18887500D03*
X52920000Y18887500D03*
D17*
X83880000Y30668900D03*
D18*
X83860000Y33531200D03*
X83880000Y36331200D03*
D17*
X71862300Y19020000D03*
D18*
X69000000Y19000000D03*
X66200000Y19020000D03*
D10*
X87080000Y38887500D03*
X76920000Y38887500D03*
X77887500Y23420000D03*
X77887500Y33580000D03*
D17*
X71500000Y34500000D03*
D10*
X67500000Y34500000D03*
D19*
X89000000Y27000000D03*
D15*
X89000000Y29000000D03*
D17*
X38120000Y29331200D03*
D18*
X38140000Y26468900D03*
X38120000Y23668900D03*
D20*
X18500000Y37500000D03*
D15*
X18500000Y35500000D03*
D10*
X67580000Y22887500D03*
X57420000Y22887500D03*
D17*
X56500000Y34637700D03*
D18*
X56480000Y37500000D03*
X56500000Y40300000D03*
D21*
X62220000Y62150000D03*
X59680000Y62150000D03*
X57140000Y62150000D03*
X54600000Y62150000D03*
X52060000Y62150000D03*
X49520000Y62150000D03*
X46980000Y62150000D03*
X44440000Y62150000D03*
X41900000Y62150000D03*
X39360000Y62150000D03*
X36820000Y62150000D03*
X34280000Y62150000D03*
X31740000Y62150000D03*
X29200000Y62150000D03*
X26660000Y62150000D03*
X24120000Y62150000D03*
X21580000Y62150000D03*
X19040000Y62150000D03*
X16500000Y62150000D03*
X13960000Y62150000D03*
X62255000Y46920000D03*
X59715000Y46920000D03*
X57175000Y46920000D03*
X54635000Y46920000D03*
X52095000Y46920000D03*
X49555000Y46920000D03*
X47015000Y46920000D03*
X44475000Y46920000D03*
X41935000Y46920000D03*
X39395000Y46920000D03*
X36855000Y46920000D03*
X34315000Y46920000D03*
X31775000Y46920000D03*
X29235000Y46920000D03*
X26695000Y46920000D03*
X24155000Y46920000D03*
X21615000Y46920000D03*
X19075000Y46920000D03*
X16535000Y46920000D03*
X13995000Y46920000D03*
D22*
X8710000Y35210000D03*
X12250000Y35210000D03*
X8710000Y32670000D03*
X12250000Y32670000D03*
X8710000Y30130000D03*
X12250000Y30130000D03*
X8710000Y27590000D03*
X12250000Y27590000D03*
X8710000Y25050000D03*
X12250000Y25050000D03*
X8710000Y22510000D03*
X12250000Y22510000D03*
X8710000Y19970000D03*
X12250000Y19970000D03*
X8710000Y17430000D03*
X12250000Y17430000D03*
X8710000Y14890000D03*
X12250000Y14890000D03*
X8710000Y12350000D03*
X12250000Y12350000D03*
X8710000Y9810000D03*
X12250000Y9810000D03*
D12*
X31275000Y2572500D03*
D13*
X28735000Y2572500D03*
D23*
X69900000Y8550000D03*
X67825000Y8550000D03*
D24*
X79862500Y7550000D03*
X79862500Y8500000D03*
X79862500Y9450000D03*
X82137500Y9450000D03*
X82137500Y7550000D03*
D10*
X34112500Y26420000D03*
X34112500Y36580000D03*
X69225000Y46500000D03*
X69225000Y56660000D03*
X48080000Y33612500D03*
X37920000Y33612500D03*
X80500000Y56660000D03*
X80500000Y46500000D03*
D23*
X69037500Y4000000D03*
X66962500Y4000000D03*
D25*
X65362500Y9450000D03*
X65362500Y8500000D03*
X65362500Y7550000D03*
X63087500Y7550000D03*
X63087500Y9450000D03*
D10*
X51040000Y37356400D03*
X61200000Y37356400D03*
D26*
X75462500Y8500000D03*
X77537500Y8500000D03*
D27*
X84500000Y7462500D03*
X84500000Y9537500D03*
D28*
X60727500Y4997500D03*
X60727500Y2922500D03*
D25*
X65137500Y4950000D03*
X65137500Y4000000D03*
X65137500Y3050000D03*
X62862500Y3050000D03*
X62862500Y4950000D03*
D29*
X42050000Y30700000D03*
X43950000Y30700000D03*
X43000000Y27300000D03*
D28*
X60225000Y9537500D03*
X60225000Y7462500D03*
D10*
X43000000Y2000000D03*
X49000000Y2000000D03*
X43000000Y8000000D03*
X49000000Y8000000D03*
X62080000Y33612500D03*
X51920000Y33612500D03*
D30*
X33800000Y39550000D03*
X33800000Y41450000D03*
X37200000Y40500000D03*
D31*
X64200000Y41950000D03*
X64200000Y40050000D03*
X60800000Y41000000D03*
D32*
X52500000Y40000000D03*
X94500000Y21000000D03*
X49500000Y49955300D03*
X45594994Y50956300D03*
X28000000Y51500000D03*
X33941852Y57058148D03*
X72999500Y60595000D03*
X49000000Y66258800D03*
X14000000Y43785000D03*
X86597500Y42618700D03*
X83553400Y39356100D03*
X23589700Y28591800D03*
X31500000Y34000000D03*
X8500000Y55500000D03*
X64933600Y62516600D03*
X62000000Y24000000D03*
X40893700Y36123700D03*
X16754848Y23245152D03*
X41317200Y38947200D03*
X64082400Y59466900D03*
X40250200Y7075800D03*
X32222700Y24251100D03*
X5469100Y19530900D03*
X46691000Y16208300D03*
X54239300Y12219900D03*
X69542600Y62049500D03*
X74384200Y32590100D03*
X80931400Y29311000D03*
X83487400Y16230000D03*
X30156800Y56843200D03*
X23979600Y51809300D03*
X11422900Y51394700D03*
X23636500Y33742900D03*
X25362500Y18734600D03*
X16006900Y4953300D03*
X6554100Y62246100D03*
X75130200Y54381000D03*
X61677600Y55340000D03*
X60500000Y14500000D03*
X65762652Y28237348D03*
X67964800Y31543800D03*
X67431702Y38431702D03*
X27502600Y38266700D03*
X45691852Y36691852D03*
X80157500Y36167200D03*
D33*
X57175000Y44720000D02*
X57175000Y46920000D01*
X45691852Y36691852D02*
X53720000Y44720000D01*
X53720000Y44720000D02*
X57175000Y44720000D01*
X41935000Y52935000D02*
X41935000Y46920000D01*
X42500000Y53500000D02*
X41935000Y52935000D01*
X48000000Y53500000D02*
X42500000Y53500000D01*
X49500000Y52000000D02*
X48000000Y53500000D01*
X49500000Y49955300D02*
X49500000Y52000000D01*
X44475000Y49836306D02*
X44475000Y46920000D01*
X45594994Y50956300D02*
X44475000Y49836306D01*
X74003900Y32970400D02*
X74384200Y32590100D01*
X74003900Y44126100D02*
X74003900Y32970400D01*
X74000000Y44130000D02*
X74003900Y44126100D01*
X71076700Y53923300D02*
X74000000Y51000000D01*
X74000000Y51000000D02*
X74000000Y44130000D01*
X71076700Y60515400D02*
X71076700Y53923300D01*
X69542600Y62049500D02*
X71076700Y60515400D01*
X70048800Y25016300D02*
X74612500Y29580000D01*
X66580300Y25016300D02*
X70048800Y25016300D01*
X60500000Y18936000D02*
X66580300Y25016300D01*
X60500000Y14500000D02*
X60500000Y18936000D01*
X57420000Y25920000D02*
X57420000Y22887500D01*
X63934400Y32434400D02*
X57420000Y25920000D01*
X63934400Y36612600D02*
X63934400Y32434400D01*
X63640700Y36906300D02*
X63934400Y36612600D01*
X62531600Y39323600D02*
X63640700Y38214500D01*
X63913400Y48079200D02*
X63913400Y45171600D01*
X52042600Y59950000D02*
X63913400Y48079200D01*
X62531600Y43789800D02*
X62531600Y39323600D01*
X63640700Y38214500D02*
X63640700Y36906300D01*
X49520000Y59950000D02*
X52042600Y59950000D01*
X63913400Y45171600D02*
X62531600Y43789800D01*
X49520000Y62150000D02*
X49520000Y59950000D01*
X67500000Y31486400D02*
X67557400Y31543800D01*
X67500000Y29500000D02*
X67500000Y31486400D01*
X66237348Y28237348D02*
X67500000Y29500000D01*
X65762652Y28237348D02*
X66237348Y28237348D01*
X67557400Y31543800D02*
X67964800Y31543800D01*
X52060000Y61851900D02*
X52060000Y62150000D01*
X61823700Y57813000D02*
X56098900Y57813000D01*
X65975200Y53661500D02*
X61823700Y57813000D01*
X56098900Y57813000D02*
X52060000Y61851900D01*
X65975200Y39888204D02*
X65975200Y53661500D01*
X67431702Y38431702D02*
X65975200Y39888204D01*
X67280600Y60169600D02*
X64933600Y62516600D01*
X67280600Y42733700D02*
X67280600Y60169600D01*
X69605800Y40408500D02*
X67280600Y42733700D01*
X69605900Y40408500D02*
X69605800Y40408500D01*
X69605900Y32521500D02*
X69605900Y40408500D01*
X69816500Y32310900D02*
X69605900Y32521500D01*
X69816500Y29674900D02*
X69816500Y32310900D01*
X64141600Y24000000D02*
X69816500Y29674900D01*
X62000000Y24000000D02*
X64141600Y24000000D01*
X12000000Y59000000D02*
X30897972Y59000000D01*
X30897972Y59000000D02*
X31740000Y59842028D01*
X31740000Y59842028D02*
X31740000Y62150000D01*
X8500000Y55500000D02*
X12000000Y59000000D01*
X34280000Y59950000D02*
X34280000Y62150000D01*
X33263600Y59950000D02*
X34280000Y59950000D01*
X30156800Y56843200D02*
X33263600Y59950000D01*
X6510000Y27590000D02*
X9210000Y27590000D01*
X5483400Y28616600D02*
X6510000Y27590000D01*
X5483400Y46170400D02*
X5483400Y28616600D01*
X6568000Y49159300D02*
X6568000Y47255000D01*
X11408700Y54000000D02*
X6568000Y49159300D01*
X25500000Y54000000D02*
X11408700Y54000000D01*
X28000000Y51500000D02*
X25500000Y54000000D01*
X6568000Y47255000D02*
X5483400Y46170400D01*
X36820000Y59936296D02*
X33941852Y57058148D01*
X36820000Y59950000D02*
X36820000Y59936296D01*
X14450000Y32670000D02*
X11750000Y32670000D01*
X29500000Y38892100D02*
X27392100Y41000000D01*
X27392100Y41000000D02*
X17415628Y41000000D01*
X29437000Y37437000D02*
X29500000Y37500000D01*
X29437000Y36063000D02*
X29437000Y37437000D01*
X29500000Y37500000D02*
X29500000Y38892100D01*
X31500000Y34000000D02*
X29437000Y36063000D01*
X17415628Y41000000D02*
X14450000Y38034372D01*
X14450000Y38034372D02*
X14450000Y32670000D01*
X12635900Y37635900D02*
X7707900Y37635900D01*
X7707900Y37635900D02*
X6510000Y36438000D01*
X19720000Y44720000D02*
X12635900Y37635900D01*
X6510000Y36438000D02*
X6510000Y30130000D01*
X24155000Y44720000D02*
X19720000Y44720000D01*
X24155000Y46920000D02*
X24155000Y44720000D01*
X6510000Y30130000D02*
X9210000Y30130000D01*
X12700000Y39300000D02*
X10500000Y39300000D01*
X12700000Y40270000D02*
X12700000Y39300000D01*
X14000000Y41570000D02*
X12700000Y40270000D01*
X14000000Y43785000D02*
X14000000Y41570000D01*
X29500000Y15176400D02*
X29500000Y34584372D01*
X39678900Y4997500D02*
X29500000Y15176400D01*
X29500000Y34584372D02*
X28436000Y35648372D01*
X28436000Y37333300D02*
X27502600Y38266700D01*
X60727500Y4997500D02*
X39678900Y4997500D01*
X28436000Y35648372D02*
X28436000Y37333300D01*
X22786700Y9086200D02*
X22786700Y27788800D01*
X16794100Y3093600D02*
X22786700Y9086200D01*
X9131500Y3093600D02*
X16794100Y3093600D01*
X2000000Y10225100D02*
X9131500Y3093600D01*
X2000000Y10270472D02*
X2000000Y10225100D01*
X1999000Y10271472D02*
X2000000Y10270472D01*
X22786700Y27788800D02*
X23589700Y28591800D01*
X1999000Y20169744D02*
X1999000Y10271472D01*
X1973400Y20195344D02*
X1999000Y20169744D01*
X1973300Y45315144D02*
X1973400Y45315044D01*
X1973300Y46973656D02*
X1973300Y45315144D01*
X1973400Y45315044D02*
X1973400Y20195344D01*
X1998000Y46998356D02*
X1973300Y46973656D01*
X2000000Y60327500D02*
X2000000Y59107628D01*
X1999000Y59106628D02*
X1999000Y55850156D01*
X7047800Y65375300D02*
X2000000Y60327500D01*
X25634700Y65375300D02*
X7047800Y65375300D01*
X1999000Y55850156D02*
X1998000Y55849156D01*
X26660000Y62150000D02*
X26660000Y64350000D01*
X26660000Y64350000D02*
X25634700Y65375300D01*
X2000000Y59107628D02*
X1999000Y59106628D01*
X1998000Y55849156D02*
X1998000Y46998356D01*
X3000000Y58692000D02*
X6554100Y62246100D01*
X3000000Y55435528D02*
X3000000Y58692000D01*
X2999000Y55434528D02*
X3000000Y55435528D01*
X2999000Y46583728D02*
X2999000Y55434528D01*
X2974400Y45729672D02*
X2974300Y45729772D01*
X3000000Y10686100D02*
X3000000Y20584372D01*
X2974300Y45729772D02*
X2974300Y46559028D01*
X2974400Y20609972D02*
X2974400Y45729672D01*
X8732800Y4953300D02*
X3000000Y10686100D01*
X3000000Y20584372D02*
X2974400Y20609972D01*
X16006900Y4953300D02*
X8732800Y4953300D01*
X2974300Y46559028D02*
X2999000Y46583728D01*
X24120000Y64350000D02*
X24120000Y62150000D01*
X13330100Y64350000D02*
X24120000Y64350000D01*
X4000000Y55019900D02*
X13330100Y64350000D01*
X3975300Y46144400D02*
X4000000Y46169100D01*
X4000000Y46169100D02*
X4000000Y55019900D01*
X3975400Y46144400D02*
X3975300Y46144400D01*
X3975400Y21024600D02*
X3975400Y46144400D01*
X5469100Y19530900D02*
X3975400Y21024600D01*
X14450000Y25050000D02*
X11750000Y25050000D01*
X16254848Y23245152D02*
X14450000Y25050000D01*
X16754848Y23245152D02*
X16254848Y23245152D01*
X43550000Y66000000D02*
X41900000Y64350000D01*
X48741200Y66000000D02*
X43550000Y66000000D01*
X41900000Y64350000D02*
X41900000Y62150000D01*
X49000000Y66258800D02*
X48741200Y66000000D01*
X72999500Y53810100D02*
X72999500Y60595000D01*
X75059200Y51750400D02*
X72999500Y53810100D01*
X75059200Y36408300D02*
X75059200Y51750400D01*
X77887500Y33580000D02*
X75059200Y36408300D01*
X69000000Y21467500D02*
X69000000Y19000000D01*
X67580000Y22887500D02*
X69000000Y21467500D01*
X41935000Y46920000D02*
X41935000Y49120000D01*
X10500000Y44500000D02*
X8300000Y44500000D01*
X9560800Y49120000D02*
X41935000Y49120000D01*
X8300000Y47859200D02*
X9560800Y49120000D01*
X8300000Y44500000D02*
X8300000Y47859200D01*
X41451100Y30700000D02*
X40020000Y29268900D01*
X42050000Y30700000D02*
X41451100Y30700000D01*
X38120000Y29268900D02*
X40020000Y29268900D01*
X38120000Y33412500D02*
X38120000Y29268900D01*
X37920000Y33612500D02*
X38120000Y33412500D01*
X83553400Y39574600D02*
X86597500Y42618700D01*
X83553400Y39356100D02*
X83553400Y39574600D01*
X83880000Y23812500D02*
X83880000Y30731200D01*
X88580000Y19112500D02*
X83880000Y23812500D01*
X87080000Y36751200D02*
X83860000Y33531200D01*
X87080000Y38887500D02*
X87080000Y36751200D01*
X95200000Y34260000D02*
X93000000Y34260000D01*
X44440000Y62150000D02*
X44440000Y64350000D01*
X44498800Y64408800D02*
X44440000Y64350000D01*
X71804500Y64408800D02*
X44498800Y64408800D01*
X74851200Y61362100D02*
X71804500Y64408800D01*
X74851200Y59690100D02*
X74851200Y61362100D01*
X87606300Y46935000D02*
X74851200Y59690100D01*
X89469700Y46935000D02*
X87606300Y46935000D01*
X93000000Y43404700D02*
X89469700Y46935000D01*
X93000000Y34260000D02*
X93000000Y43404700D01*
X95200000Y29180000D02*
X97400000Y29180000D01*
X95200000Y39340000D02*
X97400000Y39340000D01*
X97400000Y39340000D02*
X97400000Y29180000D01*
X43000000Y27300000D02*
X43000000Y24900000D01*
X43000000Y22500000D02*
X38000000Y17500000D01*
X43000000Y24900000D02*
X43000000Y22500000D01*
X58418700Y41000000D02*
X60800000Y41000000D01*
X58418700Y41000100D02*
X58418700Y41000000D01*
X57267100Y42151700D02*
X58418700Y41000100D01*
X55732900Y42151700D02*
X57267100Y42151700D01*
X54628300Y41047100D02*
X55732900Y42151700D01*
X54628300Y33674000D02*
X54628300Y41047100D01*
X51211300Y30257000D02*
X54628300Y33674000D01*
X46151800Y30257000D02*
X51211300Y30257000D01*
X43000000Y27105200D02*
X46151800Y30257000D01*
X43000000Y24900000D02*
X43000000Y27105200D01*
X36820000Y62150000D02*
X36820000Y59950000D01*
X36032300Y39332300D02*
X37200000Y40500000D01*
X36032300Y19922300D02*
X36032300Y39332300D01*
X35460000Y19350000D02*
X36032300Y19922300D01*
X35460000Y17500000D02*
X35460000Y19350000D01*
X63599300Y59950000D02*
X64082400Y59466900D01*
X59680000Y59950000D02*
X63599300Y59950000D01*
X59680000Y62150000D02*
X59680000Y59950000D01*
X32222700Y15103300D02*
X32222700Y24251100D01*
X40250200Y7075800D02*
X32222700Y15103300D01*
X50250900Y16208300D02*
X54239300Y12219900D01*
X46691000Y16208300D02*
X50250900Y16208300D01*
X80931400Y18786000D02*
X83487400Y16230000D01*
X80931400Y29311000D02*
X80931400Y18786000D01*
X11837500Y51809300D02*
X11422900Y51394700D01*
X23979600Y51809300D02*
X11837500Y51809300D01*
X25441400Y18813500D02*
X25362500Y18734600D01*
X25441400Y31938000D02*
X25441400Y18813500D01*
X23636500Y33742900D02*
X25441400Y31938000D01*
X33800000Y36892500D02*
X34112500Y36580000D01*
X33800000Y39550000D02*
X33800000Y36892500D01*
X31775000Y41216000D02*
X31775000Y46920000D01*
X33441000Y39550000D02*
X31775000Y41216000D01*
X33800000Y39550000D02*
X33441000Y39550000D01*
X64971800Y42721800D02*
X64200000Y41950000D01*
X64971800Y52045800D02*
X64971800Y42721800D01*
X61677600Y55340000D02*
X64971800Y52045800D01*
X76919900Y38887500D02*
X76920000Y38887500D01*
X76919900Y52591300D02*
X76919900Y38887500D01*
X75130200Y54381000D02*
X76919900Y52591300D01*
X81647700Y42045400D02*
X83082300Y43480000D01*
X81647700Y37295800D02*
X81647700Y42045400D01*
X82009200Y36934300D02*
X81647700Y37295800D01*
X82009200Y35022600D02*
X82009200Y36934300D01*
X78622800Y31636200D02*
X82009200Y35022600D01*
X76668600Y31636200D02*
X78622800Y31636200D01*
X76668600Y31636100D02*
X76668600Y31636200D01*
X74612500Y29580000D02*
X76668600Y31636100D01*
X74212500Y19020000D02*
X74612500Y19420000D01*
X71800000Y19020000D02*
X74212500Y19020000D01*
X74612500Y20145000D02*
X74612500Y19420000D01*
X77887500Y23420000D02*
X74612500Y20145000D01*
X53420000Y18887500D02*
X57420000Y22887500D01*
X52920000Y18887500D02*
X53420000Y18887500D01*
X95200000Y59660000D02*
X97400000Y59660000D01*
X95200000Y41880000D02*
X97400000Y41880000D01*
X84412500Y7550000D02*
X84500000Y7462500D01*
X82137500Y7550000D02*
X84412500Y7550000D01*
X97400000Y59660000D02*
X97400000Y41880000D01*
X84597800Y7462500D02*
X84500000Y7462500D01*
X90476300Y13341000D02*
X84597800Y7462500D01*
X90476300Y25024800D02*
X90476300Y13341000D01*
X96468500Y25024800D02*
X90476300Y25024800D01*
X98428800Y26985100D02*
X96468500Y25024800D01*
X98428800Y40851200D02*
X98428800Y26985100D01*
X97400000Y41880000D02*
X98428800Y40851200D01*
X90476300Y25523700D02*
X90476300Y25024800D01*
X89000000Y27000000D02*
X90476300Y25523700D01*
X60775000Y4950000D02*
X60727500Y4997500D01*
X62862500Y4950000D02*
X60775000Y4950000D01*
X9210000Y17430000D02*
X6510000Y17430000D01*
X6510000Y8613000D02*
X6510000Y17430000D01*
X6915900Y8207100D02*
X6510000Y8613000D01*
X14023600Y8207100D02*
X6915900Y8207100D01*
X21421900Y15605400D02*
X14023600Y8207100D01*
X21421900Y34666000D02*
X21421900Y15605400D01*
X18587900Y37500000D02*
X21421900Y34666000D01*
X18500000Y37500000D02*
X18587900Y37500000D01*
X60312500Y9450000D02*
X60225000Y9537500D01*
X63087500Y9450000D02*
X60312500Y9450000D01*
X48955100Y20219600D02*
X48955100Y28500000D01*
X59637200Y9537500D02*
X48955100Y20219600D01*
X60225000Y9537500D02*
X59637200Y9537500D01*
D34*
X65362500Y9926000D02*
X65362500Y9450000D01*
D33*
X69900000Y8683000D02*
X69900000Y8550000D01*
X68563200Y10019800D02*
X69900000Y8683000D01*
X65456300Y10019800D02*
X68563200Y10019800D01*
X65362500Y9926000D02*
X65456300Y10019800D01*
D34*
X79862500Y7124000D02*
X79862500Y7550000D01*
D33*
X75462500Y8371300D02*
X75462500Y8500000D01*
X76795000Y7038800D02*
X75462500Y8371300D01*
X79777300Y7038800D02*
X76795000Y7038800D01*
X79862500Y7124000D02*
X79777300Y7038800D01*
X65362500Y6599200D02*
X65137500Y6374200D01*
D34*
X65137500Y4950000D02*
X65137500Y6374200D01*
X65362500Y6599200D02*
X65362500Y7550000D01*
D33*
X69037500Y4122500D02*
X69037500Y4000000D01*
X66560800Y6599200D02*
X69037500Y4122500D01*
X65362500Y6599200D02*
X66560800Y6599200D01*
D34*
X65137500Y2617900D02*
X65137500Y3050000D01*
D33*
X69900000Y4862500D02*
X69900000Y8500000D01*
X69037500Y4000000D02*
X69900000Y4862500D01*
X69900000Y8500000D02*
X69900000Y8550000D01*
X69900000Y8500000D02*
X75462500Y8500000D01*
X75462500Y16155000D02*
X78420000Y19112500D01*
X75462500Y8500000D02*
X75462500Y16155000D01*
X78776200Y19112500D02*
X79862500Y18026200D01*
X78420000Y19112500D02*
X78776200Y19112500D01*
D34*
X79862500Y18026200D02*
X79862500Y9450000D01*
D33*
X48080000Y33416000D02*
X48080000Y33612500D01*
X45922700Y31258700D02*
X48080000Y33416000D01*
X44508700Y31258700D02*
X45922700Y31258700D01*
X43950000Y30700000D02*
X44508700Y31258700D01*
X67689700Y2617900D02*
X65137500Y2617900D01*
X69037500Y3965700D02*
X67689700Y2617900D01*
X69037500Y4000000D02*
X69037500Y3965700D01*
X80500000Y44130000D02*
X79850000Y43480000D01*
X80500000Y46500000D02*
X80500000Y44130000D01*
X79850000Y36474700D02*
X79850000Y43480000D01*
X80157500Y36167200D02*
X79850000Y36474700D01*
X47090000Y44720000D02*
X41317200Y38947200D01*
X49555000Y46920000D02*
X49555000Y44720000D01*
X49555000Y44720000D02*
X47090000Y44720000D01*
X41123700Y36123700D02*
X40893700Y36123700D01*
X45000000Y40000000D02*
X41123700Y36123700D01*
X47000000Y40000000D02*
X45000000Y40000000D01*
X52095000Y46920000D02*
X52095000Y45095000D01*
X52095000Y45095000D02*
X47000000Y40000000D01*
G04 #@! TA.AperFunction,Conductor*
G36*
X18044152Y63679815D02*
G01*
X18089907Y63627011D01*
X18099851Y63557853D01*
X18077432Y63502616D01*
X17996059Y63390617D01*
X17970476Y63355405D01*
X17881117Y63180029D01*
X17820290Y62992826D01*
X17789500Y62798422D01*
X17789500Y61501577D01*
X17820290Y61307173D01*
X17881117Y61119970D01*
X17970476Y60944594D01*
X18028816Y60864297D01*
X18086172Y60785354D01*
X18086174Y60785352D01*
X18086174Y60785351D01*
X18225351Y60646174D01*
X18384594Y60530476D01*
X18559970Y60441117D01*
X18747173Y60380290D01*
X18941578Y60349500D01*
X18941583Y60349500D01*
X19138422Y60349500D01*
X19332826Y60380290D01*
X19520029Y60441117D01*
X19695405Y60530476D01*
X19757376Y60575501D01*
X19854646Y60646172D01*
X19993828Y60785354D01*
X20109524Y60944595D01*
X20194764Y61111889D01*
X20199515Y61121213D01*
X20247489Y61172009D01*
X20315310Y61188804D01*
X20381445Y61166267D01*
X20420485Y61121213D01*
X20510476Y60944594D01*
X20568816Y60864297D01*
X20626172Y60785354D01*
X20626174Y60785352D01*
X20626174Y60785351D01*
X20765351Y60646174D01*
X20924594Y60530476D01*
X21099970Y60441117D01*
X21287173Y60380290D01*
X21481578Y60349500D01*
X21481583Y60349500D01*
X21678422Y60349500D01*
X21872826Y60380290D01*
X22060029Y60441117D01*
X22235405Y60530476D01*
X22297376Y60575501D01*
X22394646Y60646172D01*
X22533828Y60785354D01*
X22649524Y60944595D01*
X22734764Y61111889D01*
X22739515Y61121213D01*
X22787489Y61172009D01*
X22855310Y61188804D01*
X22921445Y61166267D01*
X22960485Y61121213D01*
X23050476Y60944594D01*
X23108816Y60864297D01*
X23166172Y60785354D01*
X23166174Y60785352D01*
X23166174Y60785351D01*
X23305351Y60646174D01*
X23464594Y60530476D01*
X23639970Y60441117D01*
X23827173Y60380290D01*
X24021578Y60349500D01*
X24021583Y60349500D01*
X24218422Y60349500D01*
X24412826Y60380290D01*
X24600029Y60441117D01*
X24775405Y60530476D01*
X24837376Y60575501D01*
X24934646Y60646172D01*
X25073828Y60785354D01*
X25189524Y60944595D01*
X25274764Y61111889D01*
X25279515Y61121213D01*
X25327489Y61172009D01*
X25395310Y61188804D01*
X25461445Y61166267D01*
X25500485Y61121213D01*
X25590476Y60944594D01*
X25648816Y60864297D01*
X25706172Y60785354D01*
X25706174Y60785352D01*
X25706174Y60785351D01*
X25845351Y60646174D01*
X26004594Y60530476D01*
X26179970Y60441117D01*
X26367173Y60380290D01*
X26561578Y60349500D01*
X26561583Y60349500D01*
X26758422Y60349500D01*
X26952826Y60380290D01*
X27140029Y60441117D01*
X27315405Y60530476D01*
X27377376Y60575501D01*
X27474646Y60646172D01*
X27613828Y60785354D01*
X27729524Y60944595D01*
X27814764Y61111889D01*
X27819515Y61121213D01*
X27867489Y61172009D01*
X27935310Y61188804D01*
X28001445Y61166267D01*
X28040485Y61121213D01*
X28130476Y60944594D01*
X28188816Y60864297D01*
X28246172Y60785354D01*
X28246174Y60785352D01*
X28246174Y60785351D01*
X28385351Y60646174D01*
X28544594Y60530476D01*
X28719970Y60441117D01*
X28907173Y60380290D01*
X29101578Y60349500D01*
X29101583Y60349500D01*
X29298422Y60349500D01*
X29492826Y60380290D01*
X29680029Y60441117D01*
X29855405Y60530476D01*
X29917376Y60575501D01*
X30014646Y60646172D01*
X30153828Y60785354D01*
X30269524Y60944595D01*
X30354764Y61111889D01*
X30359515Y61121213D01*
X30407489Y61172009D01*
X30475310Y61188804D01*
X30541445Y61166267D01*
X30580485Y61121213D01*
X30670476Y60944594D01*
X30728816Y60864297D01*
X30786172Y60785354D01*
X30786174Y60785352D01*
X30786174Y60785351D01*
X30925352Y60646173D01*
X31038386Y60564049D01*
X31081051Y60508718D01*
X31089500Y60463731D01*
X31089500Y60162836D01*
X31069815Y60095797D01*
X31053181Y60075155D01*
X30664845Y59686819D01*
X30603522Y59653334D01*
X30577164Y59650500D01*
X11935929Y59650500D01*
X11812920Y59626031D01*
X11810256Y59625501D01*
X11726544Y59590826D01*
X11691870Y59576464D01*
X11585331Y59505277D01*
X11585324Y59505271D01*
X9050193Y56970139D01*
X8988870Y56936654D01*
X8924197Y56939888D01*
X8851368Y56963553D01*
X8792533Y56972871D01*
X8618097Y57000500D01*
X8618092Y57000500D01*
X8381908Y57000500D01*
X8381903Y57000500D01*
X8148631Y56963553D01*
X8062112Y56935441D01*
X7924008Y56890568D01*
X7924005Y56890566D01*
X7924003Y56890566D01*
X7874285Y56865233D01*
X7713567Y56783343D01*
X7522490Y56644517D01*
X7355483Y56477510D01*
X7239237Y56317512D01*
X7216657Y56286433D01*
X7109433Y56075996D01*
X7036446Y55851368D01*
X6999500Y55618097D01*
X6999500Y55381902D01*
X7036446Y55148631D01*
X7109433Y54924003D01*
X7216657Y54713566D01*
X7280642Y54625499D01*
X7355483Y54522490D01*
X7355485Y54522488D01*
X7355485Y54522487D01*
X7522487Y54355485D01*
X7713566Y54216657D01*
X7924003Y54109433D01*
X8148631Y54036446D01*
X8381903Y53999500D01*
X8381908Y53999500D01*
X8618097Y53999500D01*
X8851368Y54036446D01*
X9075996Y54109433D01*
X9286433Y54216657D01*
X9299167Y54225909D01*
X9477510Y54355483D01*
X9644517Y54522490D01*
X9783343Y54713567D01*
X9853434Y54851128D01*
X9890566Y54924003D01*
X9898305Y54947819D01*
X9963553Y55148632D01*
X9965224Y55159184D01*
X10000500Y55381902D01*
X10000500Y55618097D01*
X9963554Y55851360D01*
X9963553Y55851368D01*
X9939888Y55924197D01*
X9937893Y55994034D01*
X9970139Y56050193D01*
X12233127Y58313181D01*
X12294450Y58346666D01*
X12320808Y58349500D01*
X29295608Y58349500D01*
X29362647Y58329815D01*
X29408402Y58277011D01*
X29418346Y58207853D01*
X29389321Y58144297D01*
X29368494Y58125182D01*
X29179290Y57987717D01*
X29012283Y57820710D01*
X28903735Y57671307D01*
X28873457Y57629633D01*
X28766233Y57419196D01*
X28693246Y57194568D01*
X28656300Y56961297D01*
X28656300Y56725102D01*
X28693246Y56491831D01*
X28766233Y56267203D01*
X28873457Y56056766D01*
X28878233Y56050193D01*
X29012283Y55865690D01*
X29012285Y55865688D01*
X29012285Y55865687D01*
X29179287Y55698685D01*
X29370366Y55559857D01*
X29580803Y55452633D01*
X29805431Y55379646D01*
X30038703Y55342700D01*
X30038708Y55342700D01*
X30274897Y55342700D01*
X30508168Y55379646D01*
X30732796Y55452633D01*
X30943233Y55559857D01*
X30944775Y55560977D01*
X31134310Y55698683D01*
X31301317Y55865690D01*
X31440143Y56056767D01*
X31490802Y56156191D01*
X31547366Y56267203D01*
X31553615Y56286433D01*
X31605676Y56446660D01*
X31620353Y56491831D01*
X31657300Y56725102D01*
X31657300Y56961297D01*
X31623255Y57176245D01*
X31620353Y57194568D01*
X31596688Y57267397D01*
X31594693Y57337234D01*
X31626939Y57393393D01*
X33496727Y59263181D01*
X33558050Y59296666D01*
X33584408Y59299500D01*
X34344071Y59299500D01*
X34469738Y59324497D01*
X34469744Y59324499D01*
X34588124Y59373533D01*
X34588133Y59373538D01*
X34694668Y59444723D01*
X34694672Y59444726D01*
X34785273Y59535327D01*
X34785276Y59535331D01*
X34856461Y59641866D01*
X34856466Y59641875D01*
X34878681Y59695507D01*
X34905501Y59760256D01*
X34905502Y59760261D01*
X34930500Y59885928D01*
X34930500Y60463731D01*
X34950185Y60530770D01*
X34981614Y60564049D01*
X35009448Y60584272D01*
X35094646Y60646172D01*
X35233828Y60785354D01*
X35349524Y60944595D01*
X35434764Y61111889D01*
X35439515Y61121213D01*
X35487489Y61172009D01*
X35555310Y61188804D01*
X35621445Y61166267D01*
X35660485Y61121213D01*
X35750476Y60944594D01*
X35808816Y60864297D01*
X35866172Y60785354D01*
X35866174Y60785352D01*
X35866174Y60785351D01*
X36005352Y60646173D01*
X36118386Y60564049D01*
X36121726Y60559716D01*
X36126703Y60557444D01*
X36142835Y60532341D01*
X36161051Y60508718D01*
X36162303Y60502047D01*
X36164477Y60498666D01*
X36169500Y60463731D01*
X36169500Y60257104D01*
X36149815Y60190065D01*
X36133181Y60169423D01*
X34492045Y58528287D01*
X34430722Y58494802D01*
X34366049Y58498036D01*
X34293220Y58521701D01*
X34234385Y58531019D01*
X34059949Y58558648D01*
X34059944Y58558648D01*
X33823760Y58558648D01*
X33823755Y58558648D01*
X33590483Y58521701D01*
X33491041Y58489390D01*
X33365860Y58448716D01*
X33365857Y58448714D01*
X33365855Y58448714D01*
X33314514Y58422554D01*
X33155419Y58341491D01*
X32964342Y58202665D01*
X32797335Y58035658D01*
X32684380Y57880189D01*
X32658509Y57844581D01*
X32551285Y57634144D01*
X32478298Y57409516D01*
X32441352Y57176245D01*
X32441352Y56940050D01*
X32478298Y56706779D01*
X32551285Y56482151D01*
X32658509Y56271714D01*
X32737714Y56162698D01*
X32797335Y56080638D01*
X32797337Y56080636D01*
X32797337Y56080635D01*
X32964339Y55913633D01*
X33155418Y55774805D01*
X33365855Y55667581D01*
X33590483Y55594594D01*
X33823755Y55557648D01*
X33823760Y55557648D01*
X34059949Y55557648D01*
X34293220Y55594594D01*
X34517848Y55667581D01*
X34728285Y55774805D01*
X34762562Y55799709D01*
X34919362Y55913631D01*
X35086369Y56080638D01*
X35225195Y56271715D01*
X35330053Y56477510D01*
X35332418Y56482151D01*
X35335564Y56491831D01*
X35383177Y56638369D01*
X35405405Y56706779D01*
X35442352Y56940050D01*
X35442352Y57176245D01*
X35414723Y57350681D01*
X35405405Y57409516D01*
X35381740Y57482345D01*
X35379745Y57552182D01*
X35411991Y57608341D01*
X37325272Y59521621D01*
X37325273Y59521622D01*
X37325275Y59521625D01*
X37325277Y59521627D01*
X37396465Y59628169D01*
X37445501Y59746552D01*
X37455533Y59796987D01*
X37465838Y59848791D01*
X37470500Y59872225D01*
X37470500Y60463731D01*
X37490185Y60530770D01*
X37521614Y60564049D01*
X37549448Y60584272D01*
X37634646Y60646172D01*
X37773828Y60785354D01*
X37889524Y60944595D01*
X37974764Y61111889D01*
X37979515Y61121213D01*
X38027489Y61172009D01*
X38095310Y61188804D01*
X38161445Y61166267D01*
X38200485Y61121213D01*
X38290476Y60944594D01*
X38348816Y60864297D01*
X38406172Y60785354D01*
X38406174Y60785352D01*
X38406174Y60785351D01*
X38545351Y60646174D01*
X38704594Y60530476D01*
X38879970Y60441117D01*
X39067173Y60380290D01*
X39261578Y60349500D01*
X39261583Y60349500D01*
X39458422Y60349500D01*
X39652826Y60380290D01*
X39840029Y60441117D01*
X40015405Y60530476D01*
X40077376Y60575501D01*
X40174646Y60646172D01*
X40313828Y60785354D01*
X40429524Y60944595D01*
X40514764Y61111889D01*
X40519515Y61121213D01*
X40567489Y61172009D01*
X40635310Y61188804D01*
X40701445Y61166267D01*
X40740485Y61121213D01*
X40830476Y60944594D01*
X40888816Y60864297D01*
X40946172Y60785354D01*
X40946174Y60785352D01*
X40946174Y60785351D01*
X41085351Y60646174D01*
X41244594Y60530476D01*
X41419970Y60441117D01*
X41607173Y60380290D01*
X41801578Y60349500D01*
X41801583Y60349500D01*
X41998422Y60349500D01*
X42192826Y60380290D01*
X42380029Y60441117D01*
X42555405Y60530476D01*
X42617376Y60575501D01*
X42714646Y60646172D01*
X42853828Y60785354D01*
X42969524Y60944595D01*
X43054764Y61111889D01*
X43059515Y61121213D01*
X43107489Y61172009D01*
X43175310Y61188804D01*
X43241445Y61166267D01*
X43280485Y61121213D01*
X43370476Y60944594D01*
X43428816Y60864297D01*
X43486172Y60785354D01*
X43486174Y60785352D01*
X43486174Y60785351D01*
X43625351Y60646174D01*
X43784594Y60530476D01*
X43959970Y60441117D01*
X44147173Y60380290D01*
X44341578Y60349500D01*
X44341583Y60349500D01*
X44538422Y60349500D01*
X44732826Y60380290D01*
X44920029Y60441117D01*
X45095405Y60530476D01*
X45157376Y60575501D01*
X45254646Y60646172D01*
X45393828Y60785354D01*
X45509524Y60944595D01*
X45594764Y61111889D01*
X45599515Y61121213D01*
X45647489Y61172009D01*
X45715310Y61188804D01*
X45781445Y61166267D01*
X45820485Y61121213D01*
X45910476Y60944594D01*
X45968816Y60864297D01*
X46026172Y60785354D01*
X46026174Y60785352D01*
X46026174Y60785351D01*
X46165351Y60646174D01*
X46324594Y60530476D01*
X46499970Y60441117D01*
X46687173Y60380290D01*
X46881578Y60349500D01*
X46881583Y60349500D01*
X47078422Y60349500D01*
X47272826Y60380290D01*
X47460029Y60441117D01*
X47635405Y60530476D01*
X47697376Y60575501D01*
X47794646Y60646172D01*
X47933828Y60785354D01*
X48049524Y60944595D01*
X48134764Y61111889D01*
X48139515Y61121213D01*
X48187489Y61172009D01*
X48255310Y61188804D01*
X48321445Y61166267D01*
X48360485Y61121213D01*
X48450476Y60944594D01*
X48508816Y60864297D01*
X48566172Y60785354D01*
X48566174Y60785352D01*
X48566174Y60785351D01*
X48705352Y60646173D01*
X48818386Y60564049D01*
X48861051Y60508718D01*
X48869500Y60463731D01*
X48869500Y59885928D01*
X48869499Y59885928D01*
X48894497Y59760261D01*
X48894499Y59760255D01*
X48943533Y59641875D01*
X48943538Y59641866D01*
X49014723Y59535331D01*
X49014726Y59535327D01*
X49105327Y59444726D01*
X49105331Y59444723D01*
X49211866Y59373538D01*
X49211875Y59373533D01*
X49330255Y59324499D01*
X49330261Y59324497D01*
X49455929Y59299500D01*
X49455931Y59299500D01*
X49584069Y59299500D01*
X51721792Y59299500D01*
X51788831Y59279815D01*
X51809473Y59263181D01*
X63226581Y47846073D01*
X63260066Y47784750D01*
X63262900Y47758392D01*
X63262900Y45492408D01*
X63243215Y45425369D01*
X63226581Y45404727D01*
X62026327Y44204474D01*
X62026324Y44204471D01*
X61974676Y44127174D01*
X61974677Y44127174D01*
X61955134Y44097925D01*
X61906099Y43979544D01*
X61906097Y43979538D01*
X61881100Y43853871D01*
X61881100Y41764740D01*
X61861415Y41697701D01*
X61808611Y41651946D01*
X61739453Y41642002D01*
X61728574Y41644066D01*
X61727127Y41644406D01*
X61727114Y41644412D01*
X61670485Y41650500D01*
X60878510Y41650499D01*
X60878503Y41650500D01*
X60864069Y41650500D01*
X58739608Y41650500D01*
X58672569Y41670185D01*
X58651927Y41686819D01*
X57681773Y42656973D01*
X57681769Y42656977D01*
X57575227Y42728165D01*
X57456844Y42777201D01*
X57415715Y42785382D01*
X57331171Y42802200D01*
X57331169Y42802200D01*
X55668831Y42802200D01*
X55668829Y42802200D01*
X55543161Y42777202D01*
X55543156Y42777201D01*
X55486729Y42753828D01*
X55424770Y42728164D01*
X55318231Y42656977D01*
X55318224Y42656971D01*
X54123024Y41461771D01*
X54078343Y41394901D01*
X54078344Y41394901D01*
X54051834Y41355225D01*
X54002799Y41236844D01*
X54002797Y41236838D01*
X53977800Y41111171D01*
X53977800Y33994808D01*
X53958115Y33927769D01*
X53941481Y33907127D01*
X53632181Y33597827D01*
X53570858Y33564342D01*
X53501166Y33569326D01*
X53445233Y33611198D01*
X53420816Y33676662D01*
X53420500Y33685508D01*
X53420500Y33730597D01*
X53383553Y33963868D01*
X53373500Y33994808D01*
X53310568Y34188492D01*
X53203343Y34398933D01*
X53064517Y34590010D01*
X52897510Y34757017D01*
X52706433Y34895843D01*
X52495992Y35003068D01*
X52271368Y35076053D01*
X52038097Y35113000D01*
X52038092Y35113000D01*
X51801908Y35113000D01*
X51801903Y35113000D01*
X51568631Y35076053D01*
X51488877Y35050139D01*
X51344008Y35003068D01*
X51344005Y35003066D01*
X51344003Y35003066D01*
X51256599Y34958531D01*
X51133567Y34895843D01*
X50942490Y34757017D01*
X50775483Y34590010D01*
X50682800Y34462443D01*
X50636657Y34398933D01*
X50529433Y34188496D01*
X50456446Y33963868D01*
X50419500Y33730597D01*
X50419500Y33494402D01*
X50456446Y33261131D01*
X50529433Y33036503D01*
X50636657Y32826066D01*
X50695725Y32744767D01*
X50775483Y32634990D01*
X50775485Y32634988D01*
X50775485Y32634987D01*
X50942487Y32467985D01*
X51133566Y32329157D01*
X51344003Y32221933D01*
X51568631Y32148946D01*
X51801903Y32112000D01*
X51846992Y32112000D01*
X51914031Y32092315D01*
X51959786Y32039511D01*
X51969730Y31970353D01*
X51940705Y31906797D01*
X51934673Y31900319D01*
X50978173Y30943819D01*
X50916850Y30910334D01*
X50890492Y30907500D01*
X46790808Y30907500D01*
X46723769Y30927185D01*
X46678014Y30979989D01*
X46668070Y31049147D01*
X46697095Y31112703D01*
X46703127Y31119181D01*
X47687634Y32103688D01*
X47748957Y32137173D01*
X47794713Y32138480D01*
X47961903Y32112000D01*
X47961908Y32112000D01*
X48198097Y32112000D01*
X48431368Y32148946D01*
X48655996Y32221933D01*
X48866433Y32329157D01*
X48867914Y32330233D01*
X49057510Y32467983D01*
X49224517Y32634990D01*
X49363343Y32826067D01*
X49419610Y32936498D01*
X49470566Y33036503D01*
X49471701Y33039994D01*
X49520595Y33190474D01*
X49543553Y33261131D01*
X49580500Y33494402D01*
X49580500Y33730597D01*
X49543553Y33963868D01*
X49533500Y33994808D01*
X49470568Y34188492D01*
X49363343Y34398933D01*
X49224517Y34590010D01*
X49057510Y34757017D01*
X48866433Y34895843D01*
X48655992Y35003068D01*
X48431368Y35076053D01*
X48198097Y35113000D01*
X48198092Y35113000D01*
X47961908Y35113000D01*
X47961903Y35113000D01*
X47728631Y35076053D01*
X47648877Y35050139D01*
X47504008Y35003068D01*
X47504005Y35003066D01*
X47504003Y35003066D01*
X47416599Y34958531D01*
X47293567Y34895843D01*
X47102490Y34757017D01*
X46935483Y34590010D01*
X46842800Y34462443D01*
X46796657Y34398933D01*
X46689433Y34188496D01*
X46616446Y33963868D01*
X46579500Y33730597D01*
X46579500Y33494402D01*
X46616447Y33261130D01*
X46616447Y33261127D01*
X46688299Y33039994D01*
X46690294Y32970153D01*
X46658049Y32913995D01*
X45689573Y31945519D01*
X45628250Y31912034D01*
X45601892Y31909200D01*
X44446494Y31909200D01*
X44379455Y31928885D01*
X44372188Y31933930D01*
X44355226Y31946628D01*
X44227114Y31994412D01*
X44170485Y32000500D01*
X43729516Y32000499D01*
X43690025Y31996254D01*
X43672885Y31994412D01*
X43625101Y31976588D01*
X43544774Y31946628D01*
X43435313Y31864687D01*
X43353372Y31755226D01*
X43314127Y31650006D01*
X43305587Y31627110D01*
X43299500Y31570501D01*
X43299500Y29829518D01*
X43299501Y29829509D01*
X43305587Y29772885D01*
X43353372Y29644773D01*
X43435313Y29535313D01*
X43544771Y29453373D01*
X43672889Y29405587D01*
X43729498Y29399500D01*
X44074992Y29399500D01*
X44142031Y29379815D01*
X44187786Y29327011D01*
X44197730Y29257853D01*
X44168705Y29194297D01*
X44162673Y29187819D01*
X43546059Y28571205D01*
X43484736Y28537720D01*
X43415044Y28542704D01*
X43411926Y28544128D01*
X43405228Y28546625D01*
X43405226Y28546628D01*
X43277114Y28594412D01*
X43220485Y28600500D01*
X42779516Y28600499D01*
X42740025Y28596254D01*
X42722885Y28594412D01*
X42675101Y28576588D01*
X42594774Y28546628D01*
X42485313Y28464687D01*
X42445134Y28411014D01*
X42403536Y28355445D01*
X42403372Y28355226D01*
X42360556Y28240432D01*
X42355587Y28227110D01*
X42349500Y28170501D01*
X42349500Y22820808D01*
X42329815Y22753769D01*
X42313181Y22733127D01*
X38343490Y18763436D01*
X38282167Y18729951D01*
X38236411Y18728644D01*
X38190884Y18735854D01*
X38098421Y18750500D01*
X38098417Y18750500D01*
X37901583Y18750500D01*
X37901578Y18750500D01*
X37707173Y18719709D01*
X37655358Y18702873D01*
X37519975Y18658884D01*
X37519972Y18658882D01*
X37519970Y18658882D01*
X37470287Y18633567D01*
X37344595Y18569524D01*
X37185354Y18453828D01*
X37046172Y18314646D01*
X36934815Y18161377D01*
X36879487Y18118714D01*
X36809873Y18112735D01*
X36748078Y18145341D01*
X36713721Y18206180D01*
X36710499Y18234265D01*
X36710499Y18694856D01*
X36710499Y18694864D01*
X36708244Y18714312D01*
X36707586Y18719987D01*
X36707585Y18719988D01*
X36707585Y18719991D01*
X36662206Y18822765D01*
X36582765Y18902206D01*
X36479991Y18947585D01*
X36454865Y18950500D01*
X36279806Y18950499D01*
X36212768Y18970183D01*
X36167013Y19022987D01*
X36157069Y19092145D01*
X36186094Y19155701D01*
X36192126Y19162180D01*
X36537571Y19507624D01*
X36537577Y19507631D01*
X36608764Y19614171D01*
X36608766Y19614174D01*
X36657799Y19732552D01*
X36657801Y19732556D01*
X36662280Y19755075D01*
X36682800Y19858231D01*
X36682800Y25540127D01*
X36702485Y25607166D01*
X36755289Y25652921D01*
X36824447Y25662865D01*
X36888003Y25633840D01*
X36907118Y25613013D01*
X36995484Y25491388D01*
X37162487Y25324385D01*
X37353566Y25185557D01*
X37564003Y25078333D01*
X37788631Y25005346D01*
X38021903Y24968400D01*
X38021908Y24968400D01*
X38258097Y24968400D01*
X38491368Y25005346D01*
X38715996Y25078333D01*
X38926433Y25185557D01*
X39117510Y25324383D01*
X39284517Y25491390D01*
X39423343Y25682467D01*
X39474002Y25781891D01*
X39530566Y25892903D01*
X39536162Y25910123D01*
X39587664Y26068630D01*
X39603553Y26117531D01*
X39640500Y26350802D01*
X39640500Y26586997D01*
X39603553Y26820270D01*
X39555779Y26967300D01*
X39530568Y27044892D01*
X39423343Y27255333D01*
X39284517Y27446410D01*
X39117510Y27613417D01*
X39117509Y27613417D01*
X39114065Y27616862D01*
X39115109Y27617906D01*
X39080505Y27670882D01*
X39079986Y27740750D01*
X39117322Y27799807D01*
X39180661Y27829303D01*
X39199218Y27830700D01*
X39364855Y27830700D01*
X39364882Y27830702D01*
X39389987Y27833613D01*
X39389991Y27833615D01*
X39492764Y27878993D01*
X39572205Y27958434D01*
X39572206Y27958435D01*
X39605730Y28034360D01*
X39617584Y28061206D01*
X39617585Y28061209D01*
X39620500Y28086335D01*
X39620500Y28494400D01*
X39640185Y28561439D01*
X39692989Y28607194D01*
X39744500Y28618400D01*
X40084071Y28618400D01*
X40209738Y28643397D01*
X40209744Y28643399D01*
X40328127Y28692435D01*
X40331772Y28694870D01*
X40434671Y28763624D01*
X40434674Y28763627D01*
X41293294Y29622248D01*
X41354617Y29655733D01*
X41424308Y29650749D01*
X41480241Y29608879D01*
X41532959Y29538457D01*
X41535313Y29535313D01*
X41537771Y29533473D01*
X41644771Y29453373D01*
X41772889Y29405587D01*
X41829506Y29399500D01*
X41829515Y29399500D01*
X42270481Y29399500D01*
X42270490Y29399501D01*
X42327114Y29405587D01*
X42455226Y29453372D01*
X42470563Y29464853D01*
X42564687Y29535313D01*
X42646628Y29644774D01*
X42694412Y29772886D01*
X42698616Y29811989D01*
X42700499Y29829498D01*
X42700500Y29829515D01*
X42700500Y30778502D01*
X42700499Y30778511D01*
X42700499Y31570481D01*
X42700498Y31570490D01*
X42695006Y31621583D01*
X42694412Y31627114D01*
X42646628Y31755226D01*
X42564687Y31864687D01*
X42455226Y31946628D01*
X42327114Y31994412D01*
X42270485Y32000500D01*
X41829516Y32000499D01*
X41790025Y31996254D01*
X41772885Y31994412D01*
X41725101Y31976588D01*
X41644774Y31946628D01*
X41535313Y31864687D01*
X41453372Y31755226D01*
X41414127Y31650006D01*
X41405587Y31627110D01*
X41399500Y31570501D01*
X41399500Y31454744D01*
X41379815Y31387705D01*
X41327011Y31341950D01*
X41299692Y31333127D01*
X41261361Y31325502D01*
X41261356Y31325501D01*
X41142973Y31276465D01*
X41036431Y31205277D01*
X41036429Y31205275D01*
X41036426Y31205273D01*
X41036425Y31205272D01*
X39832180Y30001026D01*
X39770857Y29967541D01*
X39701165Y29972525D01*
X39645232Y30014397D01*
X39620815Y30079861D01*
X39620499Y30088707D01*
X39620499Y30576056D01*
X39620499Y30576064D01*
X39619055Y30588515D01*
X39617586Y30601187D01*
X39617585Y30601188D01*
X39617585Y30601191D01*
X39572206Y30703965D01*
X39492765Y30783406D01*
X39389991Y30828785D01*
X39364865Y30831700D01*
X38894499Y30831699D01*
X38827461Y30851383D01*
X38781706Y30904187D01*
X38770500Y30955699D01*
X38770500Y32312523D01*
X38790185Y32379562D01*
X38821614Y32412840D01*
X38897503Y32467978D01*
X38897510Y32467983D01*
X39064517Y32634990D01*
X39203343Y32826067D01*
X39259610Y32936498D01*
X39310566Y33036503D01*
X39311701Y33039994D01*
X39360595Y33190474D01*
X39383553Y33261131D01*
X39420500Y33494402D01*
X39420500Y33730597D01*
X39383553Y33963868D01*
X39373500Y33994808D01*
X39310568Y34188492D01*
X39203343Y34398933D01*
X39064517Y34590010D01*
X38897510Y34757017D01*
X38706433Y34895843D01*
X38495992Y35003068D01*
X38271368Y35076053D01*
X38038097Y35113000D01*
X38038092Y35113000D01*
X37801908Y35113000D01*
X37801903Y35113000D01*
X37568631Y35076053D01*
X37488877Y35050139D01*
X37344008Y35003068D01*
X37344005Y35003066D01*
X37344003Y35003066D01*
X37256599Y34958531D01*
X37133567Y34895843D01*
X36942490Y34757017D01*
X36942487Y34757014D01*
X36894481Y34709008D01*
X36833158Y34675523D01*
X36763466Y34680507D01*
X36707533Y34722379D01*
X36683116Y34787843D01*
X36682800Y34796689D01*
X36682800Y39011492D01*
X36702485Y39078531D01*
X36719119Y39099173D01*
X37433126Y39813181D01*
X37494449Y39846666D01*
X37520807Y39849500D01*
X38070481Y39849500D01*
X38070490Y39849501D01*
X38127114Y39855587D01*
X38255226Y39903372D01*
X38283730Y39924710D01*
X38364687Y39985313D01*
X38442862Y40089743D01*
X38446626Y40094771D01*
X38446628Y40094774D01*
X38494412Y40222886D01*
X38497220Y40249001D01*
X38500499Y40279498D01*
X38500499Y40279509D01*
X38500500Y40279515D01*
X38500499Y40720484D01*
X38494412Y40777114D01*
X38446628Y40905226D01*
X38364687Y41014687D01*
X38255226Y41096628D01*
X38127114Y41144412D01*
X38070485Y41150500D01*
X36329516Y41150499D01*
X36290025Y41146254D01*
X36272885Y41144412D01*
X36229461Y41128215D01*
X36144774Y41096628D01*
X36035313Y41014687D01*
X35986074Y40948911D01*
X35955354Y40907873D01*
X35953372Y40905226D01*
X35905790Y40777654D01*
X35905587Y40777110D01*
X35899500Y40720501D01*
X35899500Y40279518D01*
X35899501Y40279509D01*
X35905588Y40222883D01*
X35907371Y40215339D01*
X35905035Y40214787D01*
X35909169Y40156949D01*
X35875685Y40095631D01*
X35527023Y39746969D01*
X35490210Y39691873D01*
X35455838Y39640432D01*
X35455833Y39640424D01*
X35406799Y39522044D01*
X35406797Y39522038D01*
X35381800Y39396371D01*
X35381800Y37732089D01*
X35362115Y37665050D01*
X35309311Y37619295D01*
X35240153Y37609351D01*
X35176597Y37638376D01*
X35170119Y37644408D01*
X35138116Y37676411D01*
X35090010Y37724517D01*
X34898933Y37863343D01*
X34688492Y37970568D01*
X34536180Y38020057D01*
X34478507Y38059493D01*
X34451308Y38123852D01*
X34450500Y38137987D01*
X34450500Y38775500D01*
X34470185Y38842539D01*
X34522989Y38888294D01*
X34574499Y38899500D01*
X34670480Y38899500D01*
X34670490Y38899501D01*
X34727114Y38905587D01*
X34855226Y38953372D01*
X34893328Y38981895D01*
X34964687Y39035313D01*
X35038456Y39133857D01*
X35046626Y39144771D01*
X35046627Y39144773D01*
X35046628Y39144774D01*
X35094412Y39272886D01*
X35098744Y39313181D01*
X35100499Y39329498D01*
X35100499Y39329509D01*
X35100500Y39329515D01*
X35100499Y39770484D01*
X35094412Y39827114D01*
X35046628Y39955226D01*
X34964687Y40064687D01*
X34855226Y40146628D01*
X34727114Y40194412D01*
X34670485Y40200500D01*
X33876684Y40200499D01*
X33864070Y40200499D01*
X33864069Y40200500D01*
X33761807Y40200500D01*
X33694768Y40220185D01*
X33694765Y40220187D01*
X33674127Y40236819D01*
X32461819Y41449127D01*
X32428334Y41510450D01*
X32425500Y41536808D01*
X32425500Y45233731D01*
X32445185Y45300770D01*
X32476614Y45334049D01*
X32529379Y45372385D01*
X32589646Y45416172D01*
X32728828Y45555354D01*
X32844524Y45714595D01*
X32907397Y45837992D01*
X32934515Y45891213D01*
X32982489Y45942009D01*
X33050310Y45958804D01*
X33116445Y45936267D01*
X33155485Y45891213D01*
X33245476Y45714594D01*
X33285954Y45658882D01*
X33361172Y45555354D01*
X33361174Y45555352D01*
X33361174Y45555351D01*
X33500351Y45416174D01*
X33659594Y45300476D01*
X33834970Y45211117D01*
X34022173Y45150290D01*
X34216578Y45119500D01*
X34216583Y45119500D01*
X34413422Y45119500D01*
X34607826Y45150290D01*
X34795029Y45211117D01*
X34970405Y45300476D01*
X34989908Y45314646D01*
X35129646Y45416172D01*
X35268828Y45555354D01*
X35384524Y45714595D01*
X35447397Y45837992D01*
X35474515Y45891213D01*
X35522489Y45942009D01*
X35590310Y45958804D01*
X35656445Y45936267D01*
X35695485Y45891213D01*
X35785476Y45714594D01*
X35825954Y45658882D01*
X35901172Y45555354D01*
X35901174Y45555352D01*
X35901174Y45555351D01*
X36040351Y45416174D01*
X36199594Y45300476D01*
X36374970Y45211117D01*
X36562173Y45150290D01*
X36756578Y45119500D01*
X36756583Y45119500D01*
X36953422Y45119500D01*
X37147826Y45150290D01*
X37335029Y45211117D01*
X37510405Y45300476D01*
X37529908Y45314646D01*
X37669646Y45416172D01*
X37808828Y45555354D01*
X37924524Y45714595D01*
X37987397Y45837992D01*
X38014515Y45891213D01*
X38062489Y45942009D01*
X38130310Y45958804D01*
X38196445Y45936267D01*
X38235485Y45891213D01*
X38325476Y45714594D01*
X38365954Y45658882D01*
X38441172Y45555354D01*
X38441174Y45555352D01*
X38441174Y45555351D01*
X38580351Y45416174D01*
X38739594Y45300476D01*
X38914970Y45211117D01*
X39102173Y45150290D01*
X39296578Y45119500D01*
X39296583Y45119500D01*
X39493422Y45119500D01*
X39687826Y45150290D01*
X39875029Y45211117D01*
X40050405Y45300476D01*
X40069908Y45314646D01*
X40209646Y45416172D01*
X40348828Y45555354D01*
X40464524Y45714595D01*
X40527397Y45837992D01*
X40554515Y45891213D01*
X40602489Y45942009D01*
X40670310Y45958804D01*
X40736445Y45936267D01*
X40775485Y45891213D01*
X40865476Y45714594D01*
X40905954Y45658882D01*
X40981172Y45555354D01*
X40981174Y45555352D01*
X40981174Y45555351D01*
X41120351Y45416174D01*
X41279594Y45300476D01*
X41454970Y45211117D01*
X41642173Y45150290D01*
X41836578Y45119500D01*
X41836583Y45119500D01*
X42033422Y45119500D01*
X42227826Y45150290D01*
X42415029Y45211117D01*
X42590405Y45300476D01*
X42609908Y45314646D01*
X42749646Y45416172D01*
X42888828Y45555354D01*
X43004524Y45714595D01*
X43067397Y45837992D01*
X43094515Y45891213D01*
X43142489Y45942009D01*
X43210310Y45958804D01*
X43276445Y45936267D01*
X43315485Y45891213D01*
X43405476Y45714594D01*
X43445954Y45658882D01*
X43521172Y45555354D01*
X43521174Y45555352D01*
X43521174Y45555351D01*
X43660351Y45416174D01*
X43819594Y45300476D01*
X43994970Y45211117D01*
X44182173Y45150290D01*
X44376578Y45119500D01*
X44376583Y45119500D01*
X44573422Y45119500D01*
X44767826Y45150290D01*
X44955029Y45211117D01*
X45130405Y45300476D01*
X45149908Y45314646D01*
X45289646Y45416172D01*
X45428828Y45555354D01*
X45544524Y45714595D01*
X45607397Y45837992D01*
X45634515Y45891213D01*
X45682489Y45942009D01*
X45750310Y45958804D01*
X45816445Y45936267D01*
X45855485Y45891213D01*
X45945476Y45714594D01*
X45985954Y45658882D01*
X46061172Y45555354D01*
X46061174Y45555352D01*
X46061174Y45555351D01*
X46200351Y45416174D01*
X46359597Y45300474D01*
X46466505Y45246001D01*
X46517300Y45198026D01*
X46534095Y45130205D01*
X46511557Y45064071D01*
X46497890Y45047836D01*
X41867393Y40417339D01*
X41806070Y40383854D01*
X41741397Y40387088D01*
X41668568Y40410753D01*
X41609733Y40420071D01*
X41435297Y40447700D01*
X41435292Y40447700D01*
X41199108Y40447700D01*
X41199103Y40447700D01*
X40965831Y40410753D01*
X40861612Y40376889D01*
X40741208Y40337768D01*
X40741205Y40337766D01*
X40741203Y40337766D01*
X40672126Y40302569D01*
X40530767Y40230543D01*
X40339690Y40091717D01*
X40172683Y39924710D01*
X40060631Y39770484D01*
X40033857Y39733633D01*
X39926633Y39523196D01*
X39853646Y39298568D01*
X39816700Y39065297D01*
X39816700Y38829102D01*
X39853646Y38595831D01*
X39926633Y38371203D01*
X40033857Y38160766D01*
X40090781Y38082418D01*
X40172683Y37969690D01*
X40172685Y37969688D01*
X40172685Y37969687D01*
X40339690Y37802682D01*
X40410312Y37751372D01*
X40452977Y37696042D01*
X40458955Y37626428D01*
X40426348Y37564634D01*
X40375743Y37533124D01*
X40317708Y37514268D01*
X40107267Y37407043D01*
X39916190Y37268217D01*
X39749183Y37101210D01*
X39610357Y36910133D01*
X39503133Y36699696D01*
X39430146Y36475068D01*
X39393200Y36241797D01*
X39393200Y36005602D01*
X39430146Y35772331D01*
X39503133Y35547703D01*
X39610357Y35337266D01*
X39685605Y35233697D01*
X39749183Y35146190D01*
X39749185Y35146188D01*
X39749185Y35146187D01*
X39916187Y34979185D01*
X40107266Y34840357D01*
X40317703Y34733133D01*
X40542331Y34660146D01*
X40775603Y34623200D01*
X40775608Y34623200D01*
X41011797Y34623200D01*
X41245068Y34660146D01*
X41469696Y34733133D01*
X41680133Y34840357D01*
X41756501Y34895842D01*
X41871210Y34979183D01*
X42038217Y35146190D01*
X42177043Y35337267D01*
X42228315Y35437894D01*
X42284266Y35547703D01*
X42284713Y35549077D01*
X42339122Y35716530D01*
X42357253Y35772331D01*
X42394200Y36005602D01*
X42394200Y36241789D01*
X42394199Y36241797D01*
X42372298Y36380068D01*
X42381252Y36449357D01*
X42407090Y36487144D01*
X45233127Y39313181D01*
X45294450Y39346666D01*
X45320808Y39349500D01*
X47064071Y39349500D01*
X47119385Y39360503D01*
X47188977Y39354276D01*
X47244154Y39311414D01*
X47267399Y39245524D01*
X47251332Y39177527D01*
X47231258Y39151205D01*
X46242045Y38161991D01*
X46180722Y38128506D01*
X46116049Y38131740D01*
X46043220Y38155405D01*
X45984385Y38164723D01*
X45809949Y38192352D01*
X45809944Y38192352D01*
X45573760Y38192352D01*
X45573755Y38192352D01*
X45340483Y38155405D01*
X45243374Y38123852D01*
X45115860Y38082420D01*
X45115857Y38082418D01*
X45115855Y38082418D01*
X45070863Y38059493D01*
X44905419Y37975195D01*
X44714342Y37836369D01*
X44547335Y37669362D01*
X44426476Y37503014D01*
X44408509Y37478285D01*
X44301285Y37267848D01*
X44228298Y37043220D01*
X44191352Y36809949D01*
X44191352Y36573754D01*
X44228298Y36340483D01*
X44301285Y36115855D01*
X44408509Y35905418D01*
X44473598Y35815832D01*
X44547335Y35714342D01*
X44547337Y35714340D01*
X44547337Y35714339D01*
X44714339Y35547337D01*
X44905418Y35408509D01*
X45115855Y35301285D01*
X45340483Y35228298D01*
X45573755Y35191352D01*
X45573760Y35191352D01*
X45809949Y35191352D01*
X46043220Y35228298D01*
X46267848Y35301285D01*
X46478285Y35408509D01*
X46517165Y35436757D01*
X46669362Y35547335D01*
X46836369Y35714342D01*
X46975195Y35905419D01*
X47060611Y36073057D01*
X47082418Y36115855D01*
X47088732Y36135285D01*
X47148148Y36318149D01*
X47155405Y36340483D01*
X47192352Y36573754D01*
X47192352Y36809949D01*
X47161453Y37005032D01*
X47155405Y37043220D01*
X47131740Y37116049D01*
X47129745Y37185886D01*
X47161991Y37242045D01*
X47394443Y37474497D01*
X49539500Y37474497D01*
X49539500Y37238302D01*
X49576446Y37005031D01*
X49649433Y36780403D01*
X49756657Y36569966D01*
X49821888Y36480184D01*
X49895483Y36378890D01*
X49895485Y36378888D01*
X49895485Y36378887D01*
X50062487Y36211885D01*
X50253566Y36073057D01*
X50464003Y35965833D01*
X50688631Y35892846D01*
X50921903Y35855900D01*
X50921908Y35855900D01*
X51158097Y35855900D01*
X51391368Y35892846D01*
X51615996Y35965833D01*
X51826433Y36073057D01*
X51849622Y36089905D01*
X52017510Y36211883D01*
X52184517Y36378890D01*
X52323343Y36569967D01*
X52378259Y36677745D01*
X52430566Y36780403D01*
X52434433Y36792302D01*
X52476160Y36920726D01*
X52503553Y37005031D01*
X52540500Y37238302D01*
X52540500Y37474497D01*
X52503553Y37707768D01*
X52477092Y37789205D01*
X52430568Y37932392D01*
X52323343Y38142833D01*
X52184517Y38333910D01*
X52017510Y38500917D01*
X51826433Y38639743D01*
X51615992Y38746968D01*
X51391368Y38819953D01*
X51391229Y38819975D01*
X51158097Y38856900D01*
X51158092Y38856900D01*
X50921908Y38856900D01*
X50921903Y38856900D01*
X50688631Y38819953D01*
X50660874Y38810934D01*
X50464008Y38746968D01*
X50464005Y38746966D01*
X50464003Y38746966D01*
X50411930Y38720433D01*
X50253567Y38639743D01*
X50062490Y38500917D01*
X49895483Y38333910D01*
X49784013Y38180485D01*
X49756657Y38142833D01*
X49649433Y37932396D01*
X49576446Y37707768D01*
X49539500Y37474497D01*
X47394443Y37474497D01*
X53953127Y44033181D01*
X54014450Y44066666D01*
X54040808Y44069500D01*
X57239071Y44069500D01*
X57364738Y44094497D01*
X57364744Y44094499D01*
X57483124Y44143533D01*
X57483133Y44143538D01*
X57589668Y44214723D01*
X57589672Y44214726D01*
X57680273Y44305327D01*
X57680276Y44305331D01*
X57751461Y44411866D01*
X57751466Y44411875D01*
X57778182Y44476374D01*
X57800501Y44530256D01*
X57808692Y44571433D01*
X57825500Y44655928D01*
X57825500Y45233731D01*
X57845185Y45300770D01*
X57876614Y45334049D01*
X57929379Y45372385D01*
X57989646Y45416172D01*
X58128828Y45555354D01*
X58244524Y45714595D01*
X58294852Y45813369D01*
X58333882Y45889970D01*
X58334047Y45890476D01*
X58394709Y46077174D01*
X58403151Y46130476D01*
X58425500Y46271577D01*
X58425500Y47568422D01*
X58394709Y47762826D01*
X58356248Y47881195D01*
X58333884Y47950025D01*
X58244524Y48125405D01*
X58128828Y48284646D01*
X57989646Y48423828D01*
X57830405Y48539524D01*
X57655025Y48628884D01*
X57467826Y48689709D01*
X57273422Y48720500D01*
X57273417Y48720500D01*
X57076583Y48720500D01*
X57076578Y48720500D01*
X56882173Y48689709D01*
X56827539Y48671957D01*
X56694975Y48628884D01*
X56694972Y48628882D01*
X56694970Y48628882D01*
X56621106Y48591246D01*
X56519595Y48539524D01*
X56360354Y48423828D01*
X56221172Y48284646D01*
X56144930Y48179709D01*
X56105474Y48125403D01*
X56015485Y47948787D01*
X55967511Y47897990D01*
X55899690Y47881195D01*
X55833555Y47903732D01*
X55794515Y47948787D01*
X55704525Y48125403D01*
X55704524Y48125405D01*
X55588828Y48284646D01*
X55449646Y48423828D01*
X55290405Y48539524D01*
X55115025Y48628884D01*
X54927826Y48689709D01*
X54733422Y48720500D01*
X54733417Y48720500D01*
X54536583Y48720500D01*
X54536578Y48720500D01*
X54342173Y48689709D01*
X54287539Y48671957D01*
X54154975Y48628884D01*
X54154972Y48628882D01*
X54154970Y48628882D01*
X54081106Y48591246D01*
X53979595Y48539524D01*
X53820354Y48423828D01*
X53681172Y48284646D01*
X53604930Y48179709D01*
X53565474Y48125403D01*
X53475485Y47948787D01*
X53427511Y47897990D01*
X53359690Y47881195D01*
X53293555Y47903732D01*
X53254515Y47948787D01*
X53164525Y48125403D01*
X53164524Y48125405D01*
X53048828Y48284646D01*
X52909646Y48423828D01*
X52750405Y48539524D01*
X52575025Y48628884D01*
X52387826Y48689709D01*
X52193422Y48720500D01*
X52193417Y48720500D01*
X51996583Y48720500D01*
X51996578Y48720500D01*
X51802173Y48689709D01*
X51747539Y48671957D01*
X51614975Y48628884D01*
X51614972Y48628882D01*
X51614970Y48628882D01*
X51541106Y48591246D01*
X51439595Y48539524D01*
X51280354Y48423828D01*
X51141172Y48284646D01*
X51064930Y48179709D01*
X51025474Y48125403D01*
X50935485Y47948787D01*
X50887511Y47897990D01*
X50819690Y47881195D01*
X50753555Y47903732D01*
X50714515Y47948787D01*
X50624525Y48125403D01*
X50624524Y48125405D01*
X50508828Y48284646D01*
X50369646Y48423828D01*
X50295355Y48477803D01*
X50252690Y48533133D01*
X50246711Y48602746D01*
X50279317Y48664541D01*
X50295355Y48678439D01*
X50353246Y48720500D01*
X50477510Y48810783D01*
X50644517Y48977790D01*
X50783343Y49168867D01*
X50875148Y49349044D01*
X50890566Y49379303D01*
X50897804Y49401577D01*
X50938940Y49528181D01*
X50963553Y49603931D01*
X51000500Y49837202D01*
X51000500Y50073397D01*
X50963553Y50306668D01*
X50927643Y50417187D01*
X50890568Y50531292D01*
X50783343Y50741733D01*
X50644517Y50932810D01*
X50477510Y51099817D01*
X50286433Y51238643D01*
X50218205Y51273406D01*
X50167410Y51321380D01*
X50150500Y51383891D01*
X50150500Y52064071D01*
X50125502Y52189738D01*
X50125501Y52189744D01*
X50076465Y52308127D01*
X50050580Y52346866D01*
X50050580Y52346867D01*
X50050578Y52346869D01*
X50043026Y52358172D01*
X50005276Y52414670D01*
X48414669Y54005277D01*
X48308127Y54076465D01*
X48189744Y54125501D01*
X48125763Y54138228D01*
X48064071Y54150500D01*
X48064069Y54150500D01*
X42435931Y54150500D01*
X42435929Y54150500D01*
X42343913Y54132196D01*
X42310256Y54125501D01*
X42310254Y54125500D01*
X42310251Y54125499D01*
X42280354Y54113115D01*
X42271462Y54109432D01*
X42191874Y54076466D01*
X42191873Y54076465D01*
X42191863Y54076459D01*
X42085332Y54005278D01*
X42085325Y54005272D01*
X41429724Y53349671D01*
X41378396Y53272852D01*
X41358535Y53243127D01*
X41309499Y53124744D01*
X41309497Y53124738D01*
X41284500Y52999071D01*
X41284500Y49894500D01*
X41264815Y49827461D01*
X41212011Y49781706D01*
X41160500Y49770500D01*
X28247814Y49770500D01*
X28180775Y49790185D01*
X28135020Y49842989D01*
X28125076Y49912147D01*
X28154101Y49975703D01*
X28212879Y50013477D01*
X28228416Y50016973D01*
X28351368Y50036446D01*
X28575996Y50109433D01*
X28786433Y50216657D01*
X28832580Y50250185D01*
X28977510Y50355483D01*
X29144517Y50522490D01*
X29283343Y50713567D01*
X29368392Y50880485D01*
X29390566Y50924003D01*
X29393429Y50932812D01*
X29442905Y51085085D01*
X29463553Y51148631D01*
X29500500Y51381902D01*
X29500500Y51618097D01*
X29463553Y51851368D01*
X29438851Y51927392D01*
X29390568Y52075992D01*
X29283343Y52286433D01*
X29144517Y52477510D01*
X28977510Y52644517D01*
X28786433Y52783343D01*
X28575992Y52890568D01*
X28351368Y52963553D01*
X28344814Y52964591D01*
X28118097Y53000500D01*
X28118092Y53000500D01*
X27881908Y53000500D01*
X27881903Y53000500D01*
X27765270Y52982026D01*
X27648632Y52963553D01*
X27575802Y52939888D01*
X27505963Y52937894D01*
X27449807Y52970137D01*
X25914669Y54505277D01*
X25808127Y54576465D01*
X25689744Y54625501D01*
X25648615Y54633682D01*
X25564071Y54650500D01*
X25564069Y54650500D01*
X11344631Y54650500D01*
X11344629Y54650500D01*
X11227809Y54627262D01*
X11218956Y54625501D01*
X11170020Y54605231D01*
X11100574Y54576466D01*
X11100573Y54576465D01*
X11100563Y54576459D01*
X10994032Y54505278D01*
X10994025Y54505272D01*
X6062722Y49573968D01*
X6062720Y49573966D01*
X6057219Y49565732D01*
X6032128Y49528179D01*
X6005004Y49487585D01*
X5991534Y49467426D01*
X5942499Y49349044D01*
X5942497Y49349038D01*
X5917500Y49223371D01*
X5917500Y47575808D01*
X5897815Y47508769D01*
X5881181Y47488127D01*
X4978127Y46585074D01*
X4978124Y46585071D01*
X4934417Y46519658D01*
X4906934Y46478527D01*
X4906933Y46478525D01*
X4889061Y46435376D01*
X4845221Y46380972D01*
X4778927Y46358907D01*
X4711227Y46376186D01*
X4663616Y46427323D01*
X4650500Y46482828D01*
X4650500Y54699092D01*
X4670185Y54766131D01*
X4686819Y54786773D01*
X12497819Y62597773D01*
X12559142Y62631258D01*
X12628834Y62626274D01*
X12684767Y62584402D01*
X12709184Y62518938D01*
X12709500Y62510092D01*
X12709500Y61501577D01*
X12740290Y61307173D01*
X12801117Y61119970D01*
X12890476Y60944594D01*
X12948816Y60864297D01*
X13006172Y60785354D01*
X13006174Y60785352D01*
X13006174Y60785351D01*
X13145351Y60646174D01*
X13304594Y60530476D01*
X13479970Y60441117D01*
X13667173Y60380290D01*
X13861578Y60349500D01*
X13861583Y60349500D01*
X14058422Y60349500D01*
X14252826Y60380290D01*
X14440029Y60441117D01*
X14615405Y60530476D01*
X14677376Y60575501D01*
X14774646Y60646172D01*
X14913828Y60785354D01*
X15029524Y60944595D01*
X15090649Y61064560D01*
X15118882Y61119970D01*
X15135461Y61170992D01*
X15155692Y61233257D01*
X15179709Y61307173D01*
X15210500Y61501577D01*
X15210500Y62798422D01*
X15179709Y62992826D01*
X15168602Y63027010D01*
X15118884Y63180025D01*
X15029524Y63355405D01*
X14922568Y63502616D01*
X14899089Y63568420D01*
X14914914Y63636474D01*
X14965020Y63685169D01*
X15022887Y63699500D01*
X17977113Y63699500D01*
X18044152Y63679815D01*
G37*
G04 #@! TD.AperFunction*
G04 #@! TA.AperFunction,Conductor*
G36*
X57013331Y41481515D02*
G01*
X57033973Y41464881D01*
X57908702Y40590150D01*
X57909672Y40589081D01*
X58004027Y40494726D01*
X58004031Y40494723D01*
X58110566Y40423538D01*
X58110575Y40423533D01*
X58228955Y40374499D01*
X58228961Y40374497D01*
X58354629Y40349500D01*
X58354631Y40349500D01*
X61670481Y40349500D01*
X61670490Y40349501D01*
X61727118Y40355588D01*
X61728590Y40355936D01*
X61729766Y40355872D01*
X61734828Y40356417D01*
X61734916Y40355596D01*
X61798359Y40352193D01*
X61855029Y40311323D01*
X61880607Y40246304D01*
X61881100Y40235258D01*
X61881100Y39259528D01*
X61881099Y39259528D01*
X61899634Y39166356D01*
X61899634Y39166355D01*
X61906097Y39133862D01*
X61906098Y39133857D01*
X61955134Y39015474D01*
X62026326Y38908926D01*
X62026327Y38908924D01*
X62062995Y38872257D01*
X62096480Y38810934D01*
X62091494Y38741242D01*
X62049622Y38685309D01*
X61984158Y38660893D01*
X61919020Y38674091D01*
X61775992Y38746968D01*
X61551368Y38819953D01*
X61551229Y38819975D01*
X61318097Y38856900D01*
X61318092Y38856900D01*
X61081908Y38856900D01*
X61081903Y38856900D01*
X60848631Y38819953D01*
X60820874Y38810934D01*
X60624008Y38746968D01*
X60624005Y38746966D01*
X60624003Y38746966D01*
X60571930Y38720433D01*
X60413567Y38639743D01*
X60222490Y38500917D01*
X60055483Y38333910D01*
X59944013Y38180485D01*
X59916657Y38142833D01*
X59809433Y37932396D01*
X59736446Y37707768D01*
X59699500Y37474497D01*
X59699500Y37238302D01*
X59736446Y37005031D01*
X59809433Y36780403D01*
X59916657Y36569966D01*
X59981888Y36480184D01*
X60055483Y36378890D01*
X60055485Y36378888D01*
X60055485Y36378887D01*
X60222487Y36211885D01*
X60413566Y36073057D01*
X60624003Y35965833D01*
X60848631Y35892846D01*
X61081903Y35855900D01*
X61081908Y35855900D01*
X61318097Y35855900D01*
X61551368Y35892846D01*
X61775996Y35965833D01*
X61986433Y36073057D01*
X62009622Y36089905D01*
X62177510Y36211883D01*
X62344517Y36378890D01*
X62483343Y36569967D01*
X62538259Y36677745D01*
X62590566Y36780403D01*
X62594433Y36792302D01*
X62636160Y36920726D01*
X62663553Y37005031D01*
X62700500Y37238302D01*
X62700500Y37474497D01*
X62663553Y37707768D01*
X62637092Y37789205D01*
X62590568Y37932392D01*
X62517690Y38075421D01*
X62504795Y38144089D01*
X62531071Y38208829D01*
X62588177Y38249087D01*
X62657983Y38252079D01*
X62715857Y38219396D01*
X62953881Y37981372D01*
X62987366Y37920049D01*
X62990200Y37893691D01*
X62990200Y36842229D01*
X63000132Y36792302D01*
X63009317Y36746127D01*
X63009901Y36743192D01*
X63015199Y36716555D01*
X63064234Y36598174D01*
X63135426Y36491626D01*
X63135427Y36491625D01*
X63247581Y36379472D01*
X63281066Y36318149D01*
X63283900Y36291791D01*
X63283900Y34829989D01*
X63264215Y34762950D01*
X63211411Y34717195D01*
X63142253Y34707251D01*
X63078697Y34736276D01*
X63072219Y34742308D01*
X63057510Y34757017D01*
X62866433Y34895843D01*
X62655992Y35003068D01*
X62431368Y35076053D01*
X62198097Y35113000D01*
X62198092Y35113000D01*
X61961908Y35113000D01*
X61961903Y35113000D01*
X61728631Y35076053D01*
X61648877Y35050139D01*
X61504008Y35003068D01*
X61504005Y35003066D01*
X61504003Y35003066D01*
X61416599Y34958531D01*
X61293567Y34895843D01*
X61102490Y34757017D01*
X60935483Y34590010D01*
X60842800Y34462443D01*
X60796657Y34398933D01*
X60689433Y34188496D01*
X60616446Y33963868D01*
X60579500Y33730597D01*
X60579500Y33494402D01*
X60616446Y33261131D01*
X60689433Y33036503D01*
X60796657Y32826066D01*
X60855725Y32744767D01*
X60935483Y32634990D01*
X60935485Y32634988D01*
X60935485Y32634987D01*
X61102487Y32467985D01*
X61293566Y32329157D01*
X61504003Y32221933D01*
X61728631Y32148946D01*
X61961903Y32112000D01*
X61961908Y32112000D01*
X62198097Y32112000D01*
X62408079Y32145258D01*
X62477372Y32136303D01*
X62530824Y32091307D01*
X62551464Y32024556D01*
X62532739Y31957242D01*
X62515158Y31935104D01*
X56914720Y26334666D01*
X56897599Y26309041D01*
X56892830Y26301902D01*
X56891893Y26300500D01*
X56891891Y26300499D01*
X56891892Y26300499D01*
X56875968Y26276666D01*
X56843534Y26228125D01*
X56794499Y26109744D01*
X56794497Y26109738D01*
X56769500Y25984071D01*
X56769500Y24316091D01*
X56749815Y24249052D01*
X56701794Y24205606D01*
X56633568Y24170844D01*
X56633567Y24170843D01*
X56442490Y24032017D01*
X56275483Y23865010D01*
X56164464Y23712206D01*
X56136657Y23673933D01*
X56029433Y23463496D01*
X55956446Y23238868D01*
X55919500Y23005597D01*
X55919500Y22769402D01*
X55956447Y22536128D01*
X55980109Y22463303D01*
X55982104Y22393462D01*
X55949859Y22337305D01*
X53821122Y20208568D01*
X53759799Y20175083D01*
X53690107Y20180067D01*
X53677158Y20185758D01*
X53495992Y20278068D01*
X53271368Y20351053D01*
X53038097Y20388000D01*
X53038092Y20388000D01*
X52801908Y20388000D01*
X52801903Y20388000D01*
X52568631Y20351053D01*
X52467232Y20318106D01*
X52344008Y20278068D01*
X52344005Y20278066D01*
X52344003Y20278066D01*
X52237705Y20223904D01*
X52133567Y20170843D01*
X51942490Y20032017D01*
X51775483Y19865010D01*
X51647238Y19688496D01*
X51636657Y19673933D01*
X51529433Y19463496D01*
X51456446Y19238868D01*
X51419500Y19005597D01*
X51419500Y18974507D01*
X51399815Y18907468D01*
X51347011Y18861713D01*
X51277853Y18851769D01*
X51214297Y18880794D01*
X51207819Y18886826D01*
X50554901Y19539744D01*
X49641917Y20452728D01*
X49608434Y20514049D01*
X49605600Y20540407D01*
X49605600Y27313478D01*
X49625285Y27380517D01*
X49678089Y27426272D01*
X49684109Y27428832D01*
X49777441Y27465638D01*
X49898022Y27557077D01*
X49989460Y27677656D01*
X49991001Y27681564D01*
X50044977Y27818436D01*
X50055600Y27906898D01*
X50055600Y29093102D01*
X50044977Y29181564D01*
X49989461Y29322342D01*
X49947083Y29378226D01*
X49924827Y29407575D01*
X49900004Y29472886D01*
X49914432Y29541250D01*
X49963530Y29590961D01*
X50023631Y29606500D01*
X51275371Y29606500D01*
X51401038Y29631497D01*
X51401044Y29631499D01*
X51519428Y29680535D01*
X51523967Y29683568D01*
X51523968Y29683569D01*
X51625969Y29751723D01*
X51625973Y29751726D01*
X51625974Y29751727D01*
X55020350Y33146104D01*
X55081673Y33179589D01*
X55151365Y33174605D01*
X55158116Y33171858D01*
X55230007Y33140115D01*
X55255134Y33137200D01*
X55255135Y33137200D01*
X57744856Y33137200D01*
X57744882Y33137202D01*
X57769987Y33140113D01*
X57769991Y33140115D01*
X57872764Y33185493D01*
X57952205Y33264934D01*
X57952206Y33264935D01*
X57997585Y33367709D01*
X58000500Y33392835D01*
X58000499Y35882564D01*
X57999307Y35892846D01*
X57997586Y35907687D01*
X57997585Y35907688D01*
X57997585Y35907691D01*
X57952206Y36010465D01*
X57872765Y36089906D01*
X57769991Y36135285D01*
X57744865Y36138200D01*
X57539218Y36138199D01*
X57472181Y36157883D01*
X57426426Y36210687D01*
X57416482Y36279845D01*
X57445507Y36343401D01*
X57454134Y36351968D01*
X57454065Y36352038D01*
X57624514Y36522487D01*
X57624517Y36522490D01*
X57763343Y36713567D01*
X57828901Y36842231D01*
X57870566Y36924003D01*
X57878715Y36949081D01*
X57928145Y37101212D01*
X57943553Y37148631D01*
X57980500Y37381902D01*
X57980500Y37618097D01*
X57943553Y37851368D01*
X57921237Y37920049D01*
X57870568Y38075992D01*
X57763343Y38286433D01*
X57624517Y38477510D01*
X57457510Y38644517D01*
X57266433Y38783343D01*
X57055992Y38890568D01*
X56831368Y38963553D01*
X56598097Y39000500D01*
X56598092Y39000500D01*
X56361908Y39000500D01*
X56361903Y39000500D01*
X56128631Y38963553D01*
X56024412Y38929689D01*
X55904008Y38890568D01*
X55904005Y38890566D01*
X55904003Y38890566D01*
X55835960Y38855896D01*
X55693567Y38783343D01*
X55502490Y38644517D01*
X55502487Y38644514D01*
X55490481Y38632508D01*
X55429158Y38599023D01*
X55359466Y38604007D01*
X55303533Y38645879D01*
X55279116Y38711343D01*
X55278800Y38720189D01*
X55278800Y40726292D01*
X55298485Y40793331D01*
X55315119Y40813973D01*
X55966027Y41464881D01*
X56027350Y41498366D01*
X56053708Y41501200D01*
X56946292Y41501200D01*
X57013331Y41481515D01*
G37*
G04 #@! TD.AperFunction*
G04 #@! TA.AperFunction,Conductor*
G36*
X74130302Y59540859D02*
G01*
X74163083Y59539689D01*
X74164967Y59538380D01*
X74167258Y59538217D01*
X74193528Y59518550D01*
X74220476Y59499841D01*
X74222038Y59497207D01*
X74223191Y59496345D01*
X74238485Y59469488D01*
X74274734Y59381974D01*
X74345926Y59275426D01*
X87191627Y46429725D01*
X87282087Y46369283D01*
X87282088Y46369282D01*
X87298164Y46358539D01*
X87298175Y46358533D01*
X87416555Y46309499D01*
X87416561Y46309497D01*
X87542229Y46284500D01*
X87542231Y46284500D01*
X89148892Y46284500D01*
X89215931Y46264815D01*
X89236573Y46248181D01*
X92313181Y43171573D01*
X92346666Y43110250D01*
X92349500Y43083892D01*
X92349500Y34195928D01*
X92349499Y34195928D01*
X92374497Y34070261D01*
X92374499Y34070255D01*
X92423533Y33951875D01*
X92423538Y33951866D01*
X92494723Y33845331D01*
X92494726Y33845327D01*
X92585327Y33754726D01*
X92585331Y33754723D01*
X92691866Y33683538D01*
X92691875Y33683533D01*
X92810255Y33634499D01*
X92810261Y33634497D01*
X92935929Y33609500D01*
X92935931Y33609500D01*
X93064069Y33609500D01*
X93513732Y33609500D01*
X93580771Y33589815D01*
X93614049Y33558385D01*
X93633864Y33531113D01*
X93696169Y33445357D01*
X93696174Y33445351D01*
X93835351Y33306174D01*
X93994594Y33190476D01*
X94171213Y33100485D01*
X94222009Y33052511D01*
X94238804Y32984690D01*
X94216267Y32918555D01*
X94171213Y32879515D01*
X94169975Y32878884D01*
X93994595Y32789524D01*
X93835354Y32673828D01*
X93696172Y32534646D01*
X93588670Y32386683D01*
X93580476Y32375405D01*
X93491117Y32200029D01*
X93430290Y32012826D01*
X93399500Y31818422D01*
X93399500Y31621577D01*
X93430290Y31427173D01*
X93491117Y31239970D01*
X93580476Y31064594D01*
X93619634Y31010699D01*
X93696172Y30905354D01*
X93696174Y30905352D01*
X93696174Y30905351D01*
X93835351Y30766174D01*
X93994594Y30650476D01*
X94171213Y30560485D01*
X94222009Y30512511D01*
X94238804Y30444690D01*
X94216267Y30378555D01*
X94171213Y30339515D01*
X94169975Y30338884D01*
X93994595Y30249524D01*
X93835354Y30133828D01*
X93696172Y29994646D01*
X93609348Y29875143D01*
X93580476Y29835405D01*
X93491117Y29660029D01*
X93430290Y29472826D01*
X93399500Y29278422D01*
X93399500Y29081577D01*
X93430290Y28887173D01*
X93491117Y28699970D01*
X93580476Y28524594D01*
X93629388Y28457274D01*
X93696172Y28365354D01*
X93696174Y28365352D01*
X93696174Y28365351D01*
X93835351Y28226174D01*
X93994594Y28110476D01*
X94171213Y28020485D01*
X94222009Y27972511D01*
X94238804Y27904690D01*
X94216267Y27838555D01*
X94171213Y27799515D01*
X94117992Y27772397D01*
X93994595Y27709524D01*
X93835354Y27593828D01*
X93696172Y27454646D01*
X93593607Y27313478D01*
X93580476Y27295405D01*
X93491117Y27120029D01*
X93430290Y26932826D01*
X93399500Y26738422D01*
X93399500Y26541577D01*
X93430290Y26347173D01*
X93491117Y26159970D01*
X93580476Y25984594D01*
X93624273Y25924313D01*
X93662147Y25872184D01*
X93685627Y25806380D01*
X93669802Y25738326D01*
X93619696Y25689631D01*
X93561829Y25675300D01*
X91200455Y25675300D01*
X91186594Y25679369D01*
X91172171Y25678569D01*
X91153741Y25689016D01*
X91133416Y25694985D01*
X91122825Y25706542D01*
X91111389Y25713026D01*
X91097485Y25734197D01*
X91090690Y25741613D01*
X91088060Y25746615D01*
X91052765Y25831827D01*
X91011952Y25892908D01*
X90981576Y25938370D01*
X90136819Y26783127D01*
X90103334Y26844450D01*
X90100500Y26870808D01*
X90100500Y27593096D01*
X90100500Y27593102D01*
X90089877Y27681564D01*
X90034361Y27822342D01*
X89942922Y27942922D01*
X89822342Y28034361D01*
X89681564Y28089877D01*
X89593102Y28100500D01*
X88406898Y28100500D01*
X88318436Y28089877D01*
X88177658Y28034361D01*
X88177657Y28034360D01*
X88177656Y28034360D01*
X88057077Y27942922D01*
X87965639Y27822343D01*
X87940349Y27758211D01*
X87921150Y27709525D01*
X87910122Y27681561D01*
X87905126Y27639954D01*
X87899500Y27593102D01*
X87899500Y26406898D01*
X87901794Y26387794D01*
X87910122Y26318438D01*
X87965639Y26177656D01*
X88057077Y26057077D01*
X88177656Y25965639D01*
X88318438Y25910122D01*
X88367853Y25904188D01*
X88406898Y25899500D01*
X89129192Y25899500D01*
X89196231Y25879815D01*
X89216873Y25863181D01*
X89789481Y25290573D01*
X89822966Y25229250D01*
X89825800Y25202892D01*
X89825800Y20288089D01*
X89806115Y20221050D01*
X89753311Y20175295D01*
X89684153Y20165351D01*
X89620597Y20194376D01*
X89614119Y20200408D01*
X89590623Y20223904D01*
X89557510Y20257017D01*
X89366433Y20395843D01*
X89155992Y20503068D01*
X88931368Y20576053D01*
X88698097Y20613000D01*
X88698092Y20613000D01*
X88461908Y20613000D01*
X88461903Y20613000D01*
X88345270Y20594526D01*
X88228632Y20576053D01*
X88155802Y20552388D01*
X88085963Y20550394D01*
X88029807Y20582637D01*
X84566817Y24045628D01*
X84533334Y24106949D01*
X84530500Y24133307D01*
X84530500Y29044400D01*
X84550185Y29111439D01*
X84602989Y29157194D01*
X84654500Y29168400D01*
X85124856Y29168400D01*
X85124882Y29168402D01*
X85149987Y29171313D01*
X85149991Y29171315D01*
X85252764Y29216693D01*
X85332205Y29296134D01*
X85332206Y29296135D01*
X85363399Y29366781D01*
X85377584Y29398906D01*
X85377585Y29398909D01*
X85380500Y29424035D01*
X85380499Y31913764D01*
X85380497Y31913782D01*
X85377586Y31938887D01*
X85377585Y31938888D01*
X85377585Y31938891D01*
X85332206Y32041665D01*
X85252765Y32121106D01*
X85149991Y32166485D01*
X85124865Y32169400D01*
X84919218Y32169399D01*
X84852181Y32189083D01*
X84806426Y32241887D01*
X84796482Y32311045D01*
X84825507Y32374601D01*
X84834134Y32383168D01*
X84834065Y32383238D01*
X85004514Y32553687D01*
X85004517Y32553690D01*
X85143343Y32744767D01*
X85229569Y32913995D01*
X85250566Y32955203D01*
X85250977Y32956466D01*
X85309702Y33137202D01*
X85323553Y33179831D01*
X85360500Y33413102D01*
X85360500Y33649297D01*
X85323658Y33881902D01*
X85323553Y33882568D01*
X85299888Y33955397D01*
X85297893Y34025234D01*
X85330139Y34081393D01*
X87585272Y36336525D01*
X87585278Y36336532D01*
X87656459Y36443063D01*
X87656460Y36443066D01*
X87656466Y36443074D01*
X87656469Y36443081D01*
X87695938Y36538368D01*
X87705499Y36561451D01*
X87705502Y36561461D01*
X87730500Y36687128D01*
X87730500Y37458907D01*
X87750185Y37525946D01*
X87798204Y37569391D01*
X87866430Y37604155D01*
X87873582Y37609351D01*
X88057510Y37742983D01*
X88224517Y37909990D01*
X88363343Y38101067D01*
X88438763Y38249087D01*
X88470566Y38311503D01*
X88470939Y38312649D01*
X88516240Y38452070D01*
X88543553Y38536131D01*
X88580500Y38769402D01*
X88580500Y39005597D01*
X88543553Y39238868D01*
X88524155Y39298568D01*
X88470568Y39463492D01*
X88363343Y39673933D01*
X88224517Y39865010D01*
X88057510Y40032017D01*
X87866433Y40170843D01*
X87655992Y40278068D01*
X87431368Y40351053D01*
X87424170Y40352193D01*
X87198097Y40388000D01*
X87198092Y40388000D01*
X86961908Y40388000D01*
X86961903Y40388000D01*
X86728631Y40351053D01*
X86674948Y40333610D01*
X86504008Y40278068D01*
X86504005Y40278066D01*
X86504003Y40278066D01*
X86410735Y40230543D01*
X86293567Y40170843D01*
X86102490Y40032017D01*
X85935483Y39865010D01*
X85849721Y39746969D01*
X85796657Y39673933D01*
X85689433Y39463496D01*
X85616446Y39238868D01*
X85579500Y39005597D01*
X85579500Y38769402D01*
X85616446Y38536131D01*
X85689433Y38311503D01*
X85796657Y38101066D01*
X85826862Y38059493D01*
X85935483Y37909990D01*
X85935485Y37909988D01*
X85935485Y37909987D01*
X86102487Y37742985D01*
X86293569Y37604155D01*
X86361796Y37569391D01*
X86412592Y37521416D01*
X86429500Y37458907D01*
X86429500Y37072008D01*
X86409815Y37004969D01*
X86393181Y36984327D01*
X84410193Y35001339D01*
X84348870Y34967854D01*
X84284197Y34971088D01*
X84211368Y34994753D01*
X84152533Y35004071D01*
X83978097Y35031700D01*
X83978092Y35031700D01*
X83741908Y35031700D01*
X83741903Y35031700D01*
X83508631Y34994753D01*
X83404412Y34960889D01*
X83284008Y34921768D01*
X83284005Y34921766D01*
X83284003Y34921766D01*
X83233127Y34895843D01*
X83073567Y34814543D01*
X82882490Y34675717D01*
X82882487Y34675714D01*
X82789175Y34582402D01*
X82727852Y34548917D01*
X82658160Y34553901D01*
X82602227Y34595773D01*
X82577810Y34661237D01*
X82586932Y34717532D01*
X82611412Y34776632D01*
X82634701Y34832856D01*
X82640765Y34863342D01*
X82659700Y34958528D01*
X82659700Y36998371D01*
X82634702Y37124038D01*
X82634701Y37124044D01*
X82585665Y37242427D01*
X82514476Y37348969D01*
X82423869Y37439576D01*
X82334519Y37528926D01*
X82301034Y37590249D01*
X82298200Y37616607D01*
X82298200Y38189911D01*
X82317885Y38256950D01*
X82370689Y38302705D01*
X82439847Y38312649D01*
X82503403Y38283624D01*
X82509881Y38277592D01*
X82575887Y38211585D01*
X82766966Y38072757D01*
X82977403Y37965533D01*
X83202031Y37892546D01*
X83435303Y37855600D01*
X83435308Y37855600D01*
X83671497Y37855600D01*
X83904768Y37892546D01*
X84129396Y37965533D01*
X84339833Y38072757D01*
X84353133Y38082420D01*
X84530910Y38211583D01*
X84697917Y38378590D01*
X84836743Y38569667D01*
X84895666Y38685309D01*
X84943966Y38780103D01*
X84944931Y38783071D01*
X84989690Y38920826D01*
X85016953Y39004731D01*
X85053900Y39238002D01*
X85053900Y39474197D01*
X85016953Y39707468D01*
X85002697Y39751342D01*
X84943968Y39932092D01*
X84943963Y39932101D01*
X84942537Y39935547D01*
X84935073Y40005017D01*
X84966351Y40067495D01*
X84969420Y40070674D01*
X86047305Y41148559D01*
X86108628Y41182044D01*
X86173303Y41178809D01*
X86246128Y41155147D01*
X86479403Y41118200D01*
X86479408Y41118200D01*
X86715597Y41118200D01*
X86948868Y41155146D01*
X87173496Y41228133D01*
X87383933Y41335357D01*
X87389565Y41339449D01*
X87575010Y41474183D01*
X87742017Y41641190D01*
X87880843Y41832267D01*
X87931502Y41931691D01*
X87988066Y42042703D01*
X87990291Y42049549D01*
X88045027Y42218008D01*
X88061053Y42267331D01*
X88098000Y42500602D01*
X88098000Y42736797D01*
X88061053Y42970068D01*
X88050305Y43003146D01*
X87988068Y43194692D01*
X87880843Y43405133D01*
X87742017Y43596210D01*
X87575010Y43763217D01*
X87383933Y43902043D01*
X87173492Y44009268D01*
X86948868Y44082253D01*
X86937282Y44084088D01*
X86715597Y44119200D01*
X86715592Y44119200D01*
X86479408Y44119200D01*
X86479403Y44119200D01*
X86246131Y44082253D01*
X86206882Y44069500D01*
X86021508Y44009268D01*
X86021505Y44009266D01*
X86021503Y44009266D01*
X85962384Y43979143D01*
X85811067Y43902043D01*
X85619990Y43763217D01*
X85452983Y43596210D01*
X85321311Y43414979D01*
X85314157Y43405133D01*
X85206933Y43194696D01*
X85133946Y42970068D01*
X85097000Y42736797D01*
X85097000Y42500602D01*
X85133947Y42267328D01*
X85157609Y42194503D01*
X85159604Y42124662D01*
X85127359Y42068505D01*
X83926772Y40867918D01*
X83865449Y40834433D01*
X83819697Y40833126D01*
X83671492Y40856600D01*
X83435308Y40856600D01*
X83435303Y40856600D01*
X83202031Y40819653D01*
X83145627Y40801326D01*
X82977408Y40746668D01*
X82977405Y40746666D01*
X82977403Y40746666D01*
X82918449Y40716627D01*
X82766967Y40639443D01*
X82575890Y40500617D01*
X82575887Y40500614D01*
X82509881Y40434608D01*
X82448558Y40401123D01*
X82378866Y40406107D01*
X82322933Y40447979D01*
X82298516Y40513443D01*
X82298200Y40522289D01*
X82298200Y41724592D01*
X82317885Y41791631D01*
X82334519Y41812273D01*
X82571795Y42049549D01*
X82633118Y42083034D01*
X82697791Y42079800D01*
X82742679Y42065216D01*
X82968179Y42029500D01*
X82968184Y42029500D01*
X83196503Y42029500D01*
X83422001Y42065215D01*
X83639144Y42135770D01*
X83842569Y42239421D01*
X83880979Y42267328D01*
X84027278Y42373621D01*
X84188720Y42535063D01*
X84322920Y42719772D01*
X84399222Y42869523D01*
X84426570Y42923196D01*
X84435125Y42949523D01*
X84493928Y43130500D01*
X84497125Y43140339D01*
X84532841Y43365837D01*
X84532841Y43594162D01*
X84497125Y43819660D01*
X84479307Y43874497D01*
X84426572Y44036799D01*
X84322920Y44240228D01*
X84188720Y44424937D01*
X84027278Y44586379D01*
X83842569Y44720579D01*
X83639140Y44824231D01*
X83422001Y44894784D01*
X83196503Y44930500D01*
X83196498Y44930500D01*
X82968184Y44930500D01*
X82968179Y44930500D01*
X82742680Y44894784D01*
X82688292Y44877112D01*
X82525542Y44824231D01*
X82525539Y44824229D01*
X82525537Y44824229D01*
X82418225Y44769550D01*
X82322113Y44720579D01*
X82137404Y44586379D01*
X81975962Y44424937D01*
X81889060Y44305327D01*
X81841762Y44240228D01*
X81738111Y44036803D01*
X81667556Y43819660D01*
X81631841Y43594162D01*
X81631841Y43365837D01*
X81667556Y43140340D01*
X81682121Y43095513D01*
X81684115Y43025671D01*
X81651870Y42969516D01*
X81320528Y42638175D01*
X81259205Y42604690D01*
X81189513Y42609674D01*
X81133580Y42651546D01*
X81109163Y42717010D01*
X81122361Y42782149D01*
X81174777Y42885020D01*
X81194229Y42923196D01*
X81202784Y42949523D01*
X81261587Y43130500D01*
X81264784Y43140339D01*
X81300500Y43365837D01*
X81300500Y43594162D01*
X81264784Y43819660D01*
X81246966Y43874497D01*
X81194231Y44036799D01*
X81164014Y44096101D01*
X81150500Y44152396D01*
X81150500Y45071407D01*
X81170185Y45138446D01*
X81218204Y45181891D01*
X81286430Y45216655D01*
X81309933Y45233731D01*
X81477510Y45355483D01*
X81644517Y45522490D01*
X81783343Y45713567D01*
X81873225Y45889970D01*
X81890566Y45924003D01*
X81891074Y45925564D01*
X81932840Y46054106D01*
X81963553Y46148631D01*
X82000500Y46381902D01*
X82000500Y46618097D01*
X81963553Y46851368D01*
X81932521Y46946874D01*
X81890568Y47075992D01*
X81783343Y47286433D01*
X81644517Y47477510D01*
X81477510Y47644517D01*
X81286433Y47783343D01*
X81075992Y47890568D01*
X80851368Y47963553D01*
X80618097Y48000500D01*
X80618092Y48000500D01*
X80381908Y48000500D01*
X80381903Y48000500D01*
X80148631Y47963553D01*
X80106997Y47950025D01*
X79924008Y47890568D01*
X79924005Y47890566D01*
X79924003Y47890566D01*
X79812991Y47834002D01*
X79713567Y47783343D01*
X79522490Y47644517D01*
X79355483Y47477510D01*
X79225368Y47298422D01*
X79216657Y47286433D01*
X79109433Y47075996D01*
X79036446Y46851368D01*
X78999500Y46618097D01*
X78999500Y46381902D01*
X79036446Y46148631D01*
X79109433Y45924003D01*
X79216657Y45713566D01*
X79285687Y45618555D01*
X79355483Y45522490D01*
X79355485Y45522488D01*
X79355485Y45522487D01*
X79522487Y45355485D01*
X79713569Y45216655D01*
X79781796Y45181891D01*
X79792859Y45171442D01*
X79806703Y45165120D01*
X79817744Y45147938D01*
X79832592Y45133916D01*
X79836833Y45118235D01*
X79844477Y45106342D01*
X79849500Y45071407D01*
X79849500Y45054069D01*
X79829815Y44987030D01*
X79777011Y44941275D01*
X79740564Y44931837D01*
X79740655Y44931263D01*
X79510339Y44894784D01*
X79455951Y44877112D01*
X79293201Y44824231D01*
X79293198Y44824229D01*
X79293196Y44824229D01*
X79185884Y44769550D01*
X79089772Y44720579D01*
X78905063Y44586379D01*
X78743621Y44424937D01*
X78656719Y44305327D01*
X78609421Y44240228D01*
X78505770Y44036803D01*
X78435215Y43819660D01*
X78399500Y43594162D01*
X78399500Y43365837D01*
X78435215Y43140339D01*
X78505770Y42923196D01*
X78609421Y42719771D01*
X78743622Y42535061D01*
X78905060Y42373623D01*
X78905063Y42373621D01*
X79089772Y42239421D01*
X79089777Y42239418D01*
X79089784Y42239414D01*
X79131796Y42218008D01*
X79182591Y42170034D01*
X79199500Y42107524D01*
X79199500Y37382589D01*
X79179815Y37315550D01*
X79163181Y37294908D01*
X79012983Y37144710D01*
X78922845Y37020646D01*
X78874157Y36953633D01*
X78766933Y36743196D01*
X78693946Y36518568D01*
X78657000Y36285297D01*
X78657000Y36049102D01*
X78693946Y35815831D01*
X78766933Y35591203D01*
X78874157Y35380766D01*
X78911387Y35329524D01*
X79012983Y35189690D01*
X79012985Y35189688D01*
X79012985Y35189687D01*
X79179987Y35022685D01*
X79371066Y34883857D01*
X79581503Y34776633D01*
X79806131Y34703646D01*
X80039403Y34666700D01*
X80039408Y34666700D01*
X80275597Y34666700D01*
X80442566Y34693145D01*
X80511860Y34684190D01*
X80565312Y34639194D01*
X80585951Y34572442D01*
X80567226Y34505129D01*
X80549645Y34482991D01*
X79599681Y33533027D01*
X79538358Y33499542D01*
X79468666Y33504526D01*
X79412733Y33546398D01*
X79388316Y33611862D01*
X79388000Y33620708D01*
X79388000Y33698097D01*
X79351053Y33931368D01*
X79330440Y33994808D01*
X79278068Y34155992D01*
X79170843Y34366433D01*
X79032017Y34557510D01*
X78865010Y34724517D01*
X78673933Y34863343D01*
X78463492Y34970568D01*
X78238868Y35043553D01*
X78005597Y35080500D01*
X78005592Y35080500D01*
X77769408Y35080500D01*
X77769403Y35080500D01*
X77623610Y35057408D01*
X77536132Y35043553D01*
X77463302Y35019888D01*
X77393462Y35017894D01*
X77337306Y35050137D01*
X75746017Y36641427D01*
X75712534Y36702748D01*
X75709700Y36729106D01*
X75709700Y37676411D01*
X75729385Y37743450D01*
X75782189Y37789205D01*
X75851347Y37799149D01*
X75914903Y37770124D01*
X75921381Y37764092D01*
X75942487Y37742985D01*
X76133566Y37604157D01*
X76344003Y37496933D01*
X76568631Y37423946D01*
X76801903Y37387000D01*
X76801908Y37387000D01*
X77038097Y37387000D01*
X77271368Y37423946D01*
X77495996Y37496933D01*
X77706433Y37604157D01*
X77725620Y37618097D01*
X77897510Y37742983D01*
X78064517Y37909990D01*
X78203343Y38101067D01*
X78278763Y38249087D01*
X78310566Y38311503D01*
X78310939Y38312649D01*
X78356240Y38452070D01*
X78383553Y38536131D01*
X78420500Y38769402D01*
X78420500Y39005597D01*
X78383553Y39238868D01*
X78364155Y39298568D01*
X78310568Y39463492D01*
X78203343Y39673933D01*
X78064517Y39865010D01*
X77897510Y40032017D01*
X77706433Y40170843D01*
X77638105Y40205657D01*
X77587310Y40253631D01*
X77570400Y40316142D01*
X77570400Y52655371D01*
X77545402Y52781038D01*
X77545401Y52781044D01*
X77496365Y52899427D01*
X77492044Y52905894D01*
X77486036Y52914885D01*
X77452824Y52964591D01*
X77425177Y53005969D01*
X76600337Y53830807D01*
X76566854Y53892128D01*
X76570088Y53956802D01*
X76593753Y54029632D01*
X76610953Y54138228D01*
X76630700Y54262902D01*
X76630700Y54499097D01*
X76593753Y54732368D01*
X76583474Y54764003D01*
X76520768Y54956992D01*
X76413543Y55167433D01*
X76274717Y55358510D01*
X76107710Y55525517D01*
X75916633Y55664343D01*
X75706192Y55771568D01*
X75481568Y55844553D01*
X75248297Y55881500D01*
X75248292Y55881500D01*
X75012108Y55881500D01*
X75012103Y55881500D01*
X74778831Y55844553D01*
X74735581Y55830500D01*
X74554208Y55771568D01*
X74554205Y55771566D01*
X74554203Y55771566D01*
X74490062Y55738884D01*
X74343767Y55664343D01*
X74152690Y55525517D01*
X73985683Y55358510D01*
X73874316Y55205228D01*
X73818988Y55162564D01*
X73749375Y55156585D01*
X73687580Y55189191D01*
X73653222Y55250030D01*
X73650000Y55278115D01*
X73650000Y59166407D01*
X73669685Y59233446D01*
X73717704Y59276891D01*
X73785930Y59311655D01*
X73785933Y59311657D01*
X73977010Y59450483D01*
X74036243Y59509716D01*
X74065033Y59525436D01*
X74093258Y59542183D01*
X74095551Y59542101D01*
X74097566Y59543201D01*
X74130302Y59540859D01*
G37*
G04 #@! TD.AperFunction*
G04 #@! TA.AperFunction,Conductor*
G36*
X68059414Y55653332D02*
G01*
X68072747Y55655249D01*
X68092890Y55646049D01*
X68114527Y55641343D01*
X68132252Y55628074D01*
X68136303Y55626224D01*
X68142781Y55620192D01*
X68247487Y55515485D01*
X68438566Y55376657D01*
X68649003Y55269433D01*
X68873631Y55196446D01*
X69106903Y55159500D01*
X69106908Y55159500D01*
X69343097Y55159500D01*
X69576368Y55196446D01*
X69800996Y55269433D01*
X70011433Y55376657D01*
X70018660Y55381908D01*
X70202510Y55515483D01*
X70214519Y55527492D01*
X70275842Y55560977D01*
X70345534Y55555993D01*
X70401467Y55514121D01*
X70425884Y55448657D01*
X70426200Y55439811D01*
X70426200Y53859228D01*
X70426199Y53859228D01*
X70451197Y53733561D01*
X70451199Y53733555D01*
X70500234Y53615174D01*
X70571426Y53508626D01*
X70571427Y53508625D01*
X73313181Y50766872D01*
X73346666Y50705549D01*
X73349500Y50679191D01*
X73349500Y44531178D01*
X73329815Y44464139D01*
X73277011Y44418384D01*
X73207853Y44408440D01*
X73144297Y44437465D01*
X73137819Y44443497D01*
X73117177Y44464139D01*
X73094937Y44486379D01*
X72910228Y44620579D01*
X72706799Y44724231D01*
X72489660Y44794784D01*
X72264162Y44830500D01*
X72264157Y44830500D01*
X72035843Y44830500D01*
X72035838Y44830500D01*
X71810339Y44794784D01*
X71711017Y44762512D01*
X71593201Y44724231D01*
X71593198Y44724229D01*
X71593196Y44724229D01*
X71570817Y44712826D01*
X71389772Y44620579D01*
X71205063Y44486379D01*
X71043621Y44324937D01*
X70946167Y44190804D01*
X70909421Y44140228D01*
X70805770Y43936803D01*
X70735215Y43719660D01*
X70699500Y43494162D01*
X70699500Y43265837D01*
X70735215Y43040339D01*
X70805770Y42823196D01*
X70909421Y42619771D01*
X71043622Y42435061D01*
X71205061Y42273622D01*
X71389771Y42139421D01*
X71593196Y42035770D01*
X71810339Y41965215D01*
X72035838Y41929500D01*
X72035843Y41929500D01*
X72264162Y41929500D01*
X72489660Y41965215D01*
X72706803Y42035770D01*
X72910228Y42139421D01*
X73041978Y42235144D01*
X73094937Y42273621D01*
X73141719Y42320403D01*
X73203042Y42353888D01*
X73272734Y42348904D01*
X73328667Y42307032D01*
X73353084Y42241568D01*
X73353400Y42232722D01*
X73353400Y33732689D01*
X73345354Y33705289D01*
X73340280Y33677176D01*
X73334915Y33669736D01*
X73333715Y33665650D01*
X73320148Y33648186D01*
X73318646Y33646573D01*
X73239683Y33567610D01*
X73220388Y33541053D01*
X73215247Y33535532D01*
X73191419Y33521396D01*
X73169484Y33504483D01*
X73161795Y33503822D01*
X73155156Y33499884D01*
X73127471Y33500875D01*
X73099871Y33498505D01*
X73093043Y33502107D01*
X73085331Y33502384D01*
X73062576Y33518184D01*
X73038077Y33531113D01*
X73034282Y33537832D01*
X73027941Y33542236D01*
X73017340Y33567834D01*
X73003721Y33591952D01*
X73002329Y33604082D01*
X73001208Y33606790D01*
X73001703Y33609535D01*
X73000499Y33620027D01*
X73000499Y35744864D01*
X72999997Y35749192D01*
X72997586Y35769987D01*
X72997585Y35769988D01*
X72997585Y35769991D01*
X72952206Y35872765D01*
X72872765Y35952206D01*
X72769991Y35997585D01*
X72744865Y36000500D01*
X70380399Y36000499D01*
X70313361Y36020184D01*
X70267606Y36072987D01*
X70256400Y36124499D01*
X70256400Y40472571D01*
X70233970Y40585330D01*
X70231401Y40598244D01*
X70182365Y40716627D01*
X70111176Y40823169D01*
X70020569Y40913776D01*
X70016732Y40917613D01*
X70015673Y40918571D01*
X67967417Y42966828D01*
X67933934Y43028149D01*
X67931100Y43054507D01*
X67931100Y55532511D01*
X67937338Y55553756D01*
X67938918Y55575845D01*
X67946990Y55586628D01*
X67950785Y55599550D01*
X67967518Y55614049D01*
X67980790Y55631778D01*
X67993410Y55636485D01*
X68003589Y55645305D01*
X68025506Y55648456D01*
X68046254Y55656195D01*
X68059414Y55653332D01*
G37*
G04 #@! TD.AperFunction*
G04 #@! TA.AperFunction,Conductor*
G36*
X13718834Y37696373D02*
G01*
X13774767Y37654501D01*
X13799184Y37589037D01*
X13799500Y37580191D01*
X13799500Y34044499D01*
X13779815Y33977460D01*
X13727011Y33931705D01*
X13675504Y33920499D01*
X10705136Y33920499D01*
X10705121Y33920497D01*
X10705117Y33920497D01*
X10680012Y33917586D01*
X10680011Y33917585D01*
X10680009Y33917585D01*
X10593033Y33879181D01*
X10523757Y33870110D01*
X10460572Y33899933D01*
X10423541Y33959182D01*
X10424421Y34029047D01*
X10455268Y34080297D01*
X10462205Y34087234D01*
X10462206Y34087235D01*
X10507585Y34190009D01*
X10510500Y34215135D01*
X10510499Y36204864D01*
X10509685Y36211885D01*
X10507586Y36229987D01*
X10507585Y36229988D01*
X10507585Y36229991D01*
X10462206Y36332765D01*
X10382765Y36412206D01*
X10279991Y36457585D01*
X10254865Y36460500D01*
X7751806Y36460499D01*
X7684768Y36480184D01*
X7639013Y36532987D01*
X7629069Y36602146D01*
X7658094Y36665702D01*
X7664126Y36672180D01*
X7941027Y36949081D01*
X8002350Y36982566D01*
X8028708Y36985400D01*
X12699971Y36985400D01*
X12825638Y37010397D01*
X12825644Y37010399D01*
X12944024Y37059433D01*
X12944027Y37059435D01*
X12950106Y37063497D01*
X12950112Y37063499D01*
X12950112Y37063500D01*
X13050567Y37130621D01*
X13050574Y37130627D01*
X13587819Y37667872D01*
X13649142Y37701357D01*
X13718834Y37696373D01*
G37*
G04 #@! TD.AperFunction*
G04 #@! TA.AperFunction,Conductor*
G36*
X99942539Y68979815D02*
G01*
X99988294Y68927011D01*
X99999500Y68875500D01*
X99999500Y124500D01*
X99979815Y57461D01*
X99927011Y11706D01*
X99875500Y500D01*
X124500Y500D01*
X57461Y20185D01*
X11706Y72989D01*
X500Y124500D01*
X500Y3637667D01*
X1399500Y3637667D01*
X1399500Y3362332D01*
X1399501Y3362315D01*
X1435438Y3089344D01*
X1435441Y3089331D01*
X1506704Y2823369D01*
X1612075Y2568982D01*
X1612080Y2568971D01*
X1749754Y2330516D01*
X1917370Y2112073D01*
X1917376Y2112066D01*
X2112066Y1917376D01*
X2112073Y1917370D01*
X2330516Y1749754D01*
X2568971Y1612080D01*
X2568982Y1612075D01*
X2823369Y1506704D01*
X3033125Y1450500D01*
X3089334Y1435440D01*
X3089337Y1435439D01*
X3089344Y1435438D01*
X3362315Y1399501D01*
X3362320Y1399500D01*
X3362326Y1399500D01*
X3362333Y1399500D01*
X3637667Y1399500D01*
X3637674Y1399500D01*
X3637679Y1399500D01*
X3637684Y1399501D01*
X3910655Y1435438D01*
X3910660Y1435439D01*
X3910666Y1435440D01*
X4043649Y1471072D01*
X4176630Y1506704D01*
X4431017Y1612075D01*
X4431028Y1612080D01*
X4574407Y1694861D01*
X4669479Y1749751D01*
X4680035Y1757851D01*
X4887926Y1917370D01*
X4887933Y1917376D01*
X5082623Y2112066D01*
X5082629Y2112073D01*
X5234323Y2309766D01*
X5250249Y2330521D01*
X5357991Y2517135D01*
X5387919Y2568971D01*
X5387924Y2568982D01*
X5390828Y2575992D01*
X5493295Y2823368D01*
X5564560Y3089334D01*
X5600500Y3362326D01*
X5600500Y3637674D01*
X5564560Y3910666D01*
X5493295Y4176632D01*
X5387923Y4431021D01*
X5250249Y4669479D01*
X5082628Y4887928D01*
X4887928Y5082628D01*
X4669479Y5250249D01*
X4431021Y5387923D01*
X4176632Y5493295D01*
X3910666Y5564560D01*
X3637674Y5600500D01*
X3362326Y5600500D01*
X3089334Y5564560D01*
X2823368Y5493295D01*
X2568979Y5387923D01*
X2568976Y5387921D01*
X2568971Y5387919D01*
X2483778Y5338732D01*
X2330521Y5250249D01*
X2330516Y5250245D01*
X2112073Y5082629D01*
X2112066Y5082623D01*
X1917376Y4887933D01*
X1917370Y4887926D01*
X1752261Y4672750D01*
X1749751Y4669479D01*
X1702200Y4587119D01*
X1612080Y4431028D01*
X1612075Y4431017D01*
X1506704Y4176630D01*
X1478256Y4070458D01*
X1435440Y3910666D01*
X1435439Y3910660D01*
X1435438Y3910655D01*
X1399501Y3637684D01*
X1399500Y3637667D01*
X500Y3637667D01*
X500Y47037725D01*
X1322800Y47037725D01*
X1322800Y47032167D01*
X1322800Y45246007D01*
X1322900Y45243970D01*
X1322900Y20131272D01*
X1339962Y20045501D01*
X1339962Y20045500D01*
X1346117Y20014556D01*
X1348500Y19990365D01*
X1348500Y10207403D01*
X1348903Y10203311D01*
X1349500Y10191158D01*
X1349500Y10161028D01*
X1349499Y10161028D01*
X1369477Y10060601D01*
X1374498Y10035360D01*
X1374500Y10035353D01*
X1423534Y9916974D01*
X1494726Y9810426D01*
X8716828Y2588324D01*
X8768453Y2553831D01*
X8823374Y2517134D01*
X8941755Y2468099D01*
X8941761Y2468097D01*
X9067429Y2443100D01*
X9067431Y2443100D01*
X16858171Y2443100D01*
X16983838Y2468097D01*
X16983844Y2468099D01*
X17102225Y2517134D01*
X17102227Y2517135D01*
X17157147Y2553831D01*
X17193095Y2577850D01*
X17208771Y2588324D01*
X17291369Y2670922D01*
X27484500Y2670922D01*
X27484500Y2474077D01*
X27515290Y2279673D01*
X27576117Y2092470D01*
X27665476Y1917094D01*
X27691041Y1881908D01*
X27781172Y1757854D01*
X27781174Y1757852D01*
X27781174Y1757851D01*
X27920351Y1618674D01*
X28079594Y1502976D01*
X28254970Y1413617D01*
X28442173Y1352790D01*
X28636578Y1322000D01*
X28636583Y1322000D01*
X28833422Y1322000D01*
X29027826Y1352790D01*
X29215029Y1413617D01*
X29390405Y1502976D01*
X29395537Y1506705D01*
X29549646Y1618672D01*
X29688828Y1757854D01*
X29800184Y1911121D01*
X29855512Y1953785D01*
X29925125Y1959764D01*
X29986920Y1927158D01*
X30021278Y1866319D01*
X30024500Y1838234D01*
X30024500Y1377643D01*
X30024502Y1377617D01*
X30027413Y1352512D01*
X30027415Y1352508D01*
X30072793Y1249735D01*
X30152234Y1170294D01*
X30255007Y1124915D01*
X30280134Y1122000D01*
X30280135Y1122000D01*
X32269856Y1122000D01*
X32269882Y1122002D01*
X32294987Y1124913D01*
X32294991Y1124915D01*
X32397764Y1170293D01*
X32477205Y1249734D01*
X32477206Y1249735D01*
X32522585Y1352509D01*
X32525500Y1377635D01*
X32525499Y2118097D01*
X41499500Y2118097D01*
X41499500Y1881902D01*
X41536446Y1648631D01*
X41609433Y1424003D01*
X41716657Y1213566D01*
X41795862Y1104550D01*
X41855483Y1022490D01*
X41855485Y1022488D01*
X41855485Y1022487D01*
X42022487Y855485D01*
X42213566Y716657D01*
X42424003Y609433D01*
X42648631Y536446D01*
X42881903Y499500D01*
X42881908Y499500D01*
X43118097Y499500D01*
X43351368Y536446D01*
X43575996Y609433D01*
X43786433Y716657D01*
X43977510Y855483D01*
X44144517Y1022490D01*
X44283343Y1213567D01*
X44354137Y1352508D01*
X44390566Y1424003D01*
X44394283Y1435441D01*
X44451676Y1612077D01*
X44463553Y1648631D01*
X44500500Y1881902D01*
X44500500Y2118097D01*
X47499500Y2118097D01*
X47499500Y1881902D01*
X47536446Y1648631D01*
X47609433Y1424003D01*
X47716657Y1213566D01*
X47795862Y1104550D01*
X47855483Y1022490D01*
X47855485Y1022488D01*
X47855485Y1022487D01*
X48022487Y855485D01*
X48213566Y716657D01*
X48424003Y609433D01*
X48648631Y536446D01*
X48881903Y499500D01*
X48881908Y499500D01*
X49118097Y499500D01*
X49351368Y536446D01*
X49575996Y609433D01*
X49786433Y716657D01*
X49977510Y855483D01*
X50144517Y1022490D01*
X50283343Y1213567D01*
X50354137Y1352508D01*
X50390566Y1424003D01*
X50394283Y1435441D01*
X50451676Y1612077D01*
X50463553Y1648631D01*
X50500500Y1881902D01*
X50500500Y2118097D01*
X50463553Y2351368D01*
X50433747Y2443100D01*
X50390568Y2575992D01*
X50283343Y2786433D01*
X50144517Y2977510D01*
X49977510Y3144517D01*
X49786433Y3283343D01*
X49575992Y3390568D01*
X49351368Y3463553D01*
X49118097Y3500500D01*
X49118092Y3500500D01*
X48881908Y3500500D01*
X48881903Y3500500D01*
X48648631Y3463553D01*
X48544412Y3429689D01*
X48424008Y3390568D01*
X48424005Y3390566D01*
X48424003Y3390566D01*
X48326507Y3340889D01*
X48213567Y3283343D01*
X48022490Y3144517D01*
X47855483Y2977510D01*
X47759742Y2845734D01*
X47716657Y2786433D01*
X47609433Y2575996D01*
X47536446Y2351368D01*
X47499500Y2118097D01*
X44500500Y2118097D01*
X44463553Y2351368D01*
X44433747Y2443100D01*
X44390568Y2575992D01*
X44283343Y2786433D01*
X44144517Y2977510D01*
X43977510Y3144517D01*
X43786433Y3283343D01*
X43575992Y3390568D01*
X43351368Y3463553D01*
X43118097Y3500500D01*
X43118092Y3500500D01*
X42881908Y3500500D01*
X42881903Y3500500D01*
X42648631Y3463553D01*
X42544412Y3429689D01*
X42424008Y3390568D01*
X42424005Y3390566D01*
X42424003Y3390566D01*
X42326507Y3340889D01*
X42213567Y3283343D01*
X42022490Y3144517D01*
X41855483Y2977510D01*
X41759742Y2845734D01*
X41716657Y2786433D01*
X41609433Y2575996D01*
X41536446Y2351368D01*
X41499500Y2118097D01*
X32525499Y2118097D01*
X32525499Y2575992D01*
X32525499Y3767356D01*
X32525499Y3767364D01*
X32522618Y3792209D01*
X32522586Y3792487D01*
X32522585Y3792488D01*
X32522585Y3792491D01*
X32477206Y3895265D01*
X32397765Y3974706D01*
X32294991Y4020085D01*
X32269865Y4023000D01*
X30280136Y4022999D01*
X30280122Y4022997D01*
X30280117Y4022997D01*
X30255012Y4020086D01*
X30255010Y4020085D01*
X30255009Y4020085D01*
X30172675Y3983731D01*
X30152235Y3974706D01*
X30072794Y3895265D01*
X30027415Y3792493D01*
X30027415Y3792491D01*
X30024500Y3767368D01*
X30024500Y3306766D01*
X30004815Y3239727D01*
X29952011Y3193972D01*
X29882853Y3184028D01*
X29819297Y3213053D01*
X29800186Y3233875D01*
X29688828Y3387146D01*
X29549646Y3526328D01*
X29390405Y3642024D01*
X29215025Y3731384D01*
X29027826Y3792209D01*
X29026033Y3792493D01*
X28833422Y3823000D01*
X28833417Y3823000D01*
X28636583Y3823000D01*
X28636578Y3823000D01*
X28442173Y3792209D01*
X28405888Y3780419D01*
X28254975Y3731384D01*
X28254972Y3731382D01*
X28254970Y3731382D01*
X28162455Y3684243D01*
X28079595Y3642024D01*
X27920354Y3526328D01*
X27781172Y3387146D01*
X27683460Y3252658D01*
X27665476Y3227905D01*
X27576117Y3052529D01*
X27515290Y2865326D01*
X27484500Y2670922D01*
X17291369Y2670922D01*
X17383917Y2763470D01*
X23291973Y8671527D01*
X23291976Y8671531D01*
X23363161Y8778066D01*
X23363166Y8778075D01*
X23375179Y8807078D01*
X23412201Y8896456D01*
X23415824Y8914669D01*
X23423289Y8952195D01*
X23437200Y9022128D01*
X23437200Y26967300D01*
X23456885Y27034339D01*
X23509689Y27080094D01*
X23561200Y27091300D01*
X23707797Y27091300D01*
X23941068Y27128246D01*
X24165696Y27201233D01*
X24376133Y27308457D01*
X24398608Y27324786D01*
X24567210Y27447283D01*
X24579219Y27459292D01*
X24640542Y27492777D01*
X24710234Y27487793D01*
X24766167Y27445921D01*
X24790584Y27380457D01*
X24790900Y27371611D01*
X24790900Y20203393D01*
X24771215Y20136354D01*
X24723196Y20092908D01*
X24576067Y20017943D01*
X24384990Y19879117D01*
X24217983Y19712110D01*
X24079157Y19521033D01*
X23971933Y19310596D01*
X23898946Y19085968D01*
X23862000Y18852697D01*
X23862000Y18616502D01*
X23898946Y18383231D01*
X23971933Y18158603D01*
X24079157Y17948166D01*
X24106896Y17909987D01*
X24217983Y17757090D01*
X24217985Y17757088D01*
X24217985Y17757087D01*
X24384987Y17590085D01*
X24576066Y17451257D01*
X24786503Y17344033D01*
X25011131Y17271046D01*
X25244403Y17234100D01*
X25244408Y17234100D01*
X25480597Y17234100D01*
X25713868Y17271046D01*
X25938496Y17344033D01*
X26148933Y17451257D01*
X26207861Y17494071D01*
X26340010Y17590083D01*
X26507017Y17757090D01*
X26645843Y17948167D01*
X26701845Y18058077D01*
X26753066Y18158603D01*
X26771698Y18215944D01*
X26807686Y18326703D01*
X26826053Y18383231D01*
X26863000Y18616502D01*
X26863000Y18852697D01*
X26826053Y19085968D01*
X26795652Y19179532D01*
X26753068Y19310592D01*
X26645843Y19521033D01*
X26507017Y19712110D01*
X26340010Y19879117D01*
X26148933Y20017943D01*
X26148932Y20017943D01*
X26144991Y20020807D01*
X26146027Y20022234D01*
X26104245Y20068400D01*
X26091900Y20122336D01*
X26091900Y32002071D01*
X26068482Y32119796D01*
X26066901Y32127744D01*
X26017865Y32246127D01*
X25968572Y32319900D01*
X25946677Y32352669D01*
X25106637Y33192707D01*
X25073154Y33254028D01*
X25076388Y33318702D01*
X25100053Y33391532D01*
X25120795Y33522490D01*
X25137000Y33624802D01*
X25137000Y33860997D01*
X25100053Y34094268D01*
X25080001Y34155982D01*
X25027068Y34318892D01*
X24919843Y34529333D01*
X24781017Y34720410D01*
X24614010Y34887417D01*
X24422933Y35026243D01*
X24212492Y35133468D01*
X23987868Y35206453D01*
X23964886Y35210093D01*
X23754597Y35243400D01*
X23754592Y35243400D01*
X23518408Y35243400D01*
X23518403Y35243400D01*
X23285131Y35206453D01*
X23180912Y35172589D01*
X23060508Y35133468D01*
X23060505Y35133466D01*
X23060503Y35133466D01*
X23027102Y35116447D01*
X22850067Y35026243D01*
X22658990Y34887417D01*
X22491983Y34720410D01*
X22397242Y34590010D01*
X22353157Y34529333D01*
X22306885Y34438519D01*
X22258910Y34387723D01*
X22191089Y34370928D01*
X22124954Y34393465D01*
X22081503Y34448181D01*
X22072400Y34494814D01*
X22072400Y34730071D01*
X22047402Y34855738D01*
X22047401Y34855744D01*
X21998365Y34974127D01*
X21965921Y35022683D01*
X21965921Y35022684D01*
X21931201Y35074646D01*
X21927176Y35080670D01*
X19636819Y37371027D01*
X19603334Y37432350D01*
X19600500Y37458708D01*
X19600500Y38093096D01*
X19600500Y38093102D01*
X19589877Y38181564D01*
X19534361Y38322342D01*
X19442922Y38442922D01*
X19322342Y38534361D01*
X19181564Y38589877D01*
X19093102Y38600500D01*
X17906898Y38600500D01*
X17818436Y38589877D01*
X17677658Y38534361D01*
X17677657Y38534360D01*
X17677656Y38534360D01*
X17557077Y38442922D01*
X17465639Y38322343D01*
X17410122Y38181561D01*
X17406165Y38148608D01*
X17399500Y38093102D01*
X17399500Y36906898D01*
X17403195Y36876132D01*
X17410122Y36818438D01*
X17465639Y36677656D01*
X17557077Y36557077D01*
X17677656Y36465639D01*
X17818438Y36410122D01*
X17867853Y36404188D01*
X17906898Y36399500D01*
X18717092Y36399500D01*
X18784131Y36379815D01*
X18804773Y36363181D01*
X20735081Y34432873D01*
X20768566Y34371550D01*
X20771400Y34345192D01*
X20771400Y15926207D01*
X20751715Y15859168D01*
X20735081Y15838526D01*
X14262177Y9365623D01*
X14200857Y9332140D01*
X14131165Y9337124D01*
X14075232Y9378996D01*
X14050815Y9444460D01*
X14050499Y9453306D01*
X14050499Y10804856D01*
X14050499Y10804864D01*
X14050497Y10804882D01*
X14047586Y10829987D01*
X14047585Y10829988D01*
X14047585Y10829991D01*
X14002206Y10932765D01*
X13922765Y11012206D01*
X13819991Y11057585D01*
X13794865Y11060500D01*
X10705136Y11060499D01*
X10705122Y11060497D01*
X10705117Y11060497D01*
X10680012Y11057586D01*
X10680011Y11057585D01*
X10680009Y11057585D01*
X10593033Y11019181D01*
X10523757Y11010110D01*
X10460572Y11039933D01*
X10423541Y11099182D01*
X10424421Y11169047D01*
X10455268Y11220297D01*
X10462205Y11227234D01*
X10462206Y11227235D01*
X10507585Y11330009D01*
X10510500Y11355135D01*
X10510499Y13344864D01*
X10509268Y13355483D01*
X10507586Y13369987D01*
X10507585Y13369988D01*
X10507585Y13369991D01*
X10462206Y13472765D01*
X10455269Y13479701D01*
X10421784Y13541021D01*
X10426766Y13610713D01*
X10468635Y13666648D01*
X10534099Y13691067D01*
X10593035Y13680817D01*
X10680003Y13642416D01*
X10680008Y13642415D01*
X10705134Y13639500D01*
X10705135Y13639500D01*
X13794856Y13639500D01*
X13794882Y13639502D01*
X13819987Y13642413D01*
X13819991Y13642415D01*
X13922764Y13687793D01*
X14002205Y13767234D01*
X14002206Y13767235D01*
X14047585Y13870009D01*
X14050500Y13895135D01*
X14050499Y15884864D01*
X14048601Y15901231D01*
X14047586Y15909987D01*
X14047585Y15909988D01*
X14047585Y15909991D01*
X14002206Y16012765D01*
X13942652Y16072319D01*
X13909167Y16133642D01*
X13914151Y16203334D01*
X13942652Y16247681D01*
X14002205Y16307234D01*
X14002206Y16307235D01*
X14047585Y16410009D01*
X14050500Y16435135D01*
X14050499Y18424864D01*
X14048643Y18440869D01*
X14047586Y18449987D01*
X14047585Y18449988D01*
X14047585Y18449991D01*
X14002206Y18552765D01*
X13942652Y18612319D01*
X13909167Y18673642D01*
X13914151Y18743334D01*
X13942652Y18787681D01*
X14002205Y18847234D01*
X14002206Y18847235D01*
X14034034Y18919319D01*
X14047584Y18950006D01*
X14047585Y18950009D01*
X14050500Y18975135D01*
X14050499Y20964864D01*
X14049812Y20970789D01*
X14047586Y20989987D01*
X14047585Y20989988D01*
X14047585Y20989991D01*
X14002206Y21092765D01*
X13942652Y21152319D01*
X13909167Y21213642D01*
X13914151Y21283334D01*
X13942652Y21327681D01*
X14002205Y21387234D01*
X14002206Y21387235D01*
X14047585Y21490009D01*
X14050500Y21515135D01*
X14050499Y23504864D01*
X14050497Y23504882D01*
X14047586Y23529987D01*
X14047585Y23529988D01*
X14047585Y23529991D01*
X14002206Y23632765D01*
X13942652Y23692319D01*
X13909167Y23753642D01*
X13914151Y23823334D01*
X13942652Y23867681D01*
X14002205Y23927234D01*
X14002206Y23927235D01*
X14047585Y24030009D01*
X14050500Y24055135D01*
X14050500Y24230192D01*
X14070185Y24297231D01*
X14122989Y24342986D01*
X14192147Y24352930D01*
X14255703Y24323905D01*
X14262181Y24317873D01*
X15218029Y23362025D01*
X15251514Y23300702D01*
X15254348Y23274344D01*
X15254348Y23127054D01*
X15291294Y22893783D01*
X15364281Y22669155D01*
X15471505Y22458718D01*
X15518917Y22393462D01*
X15610331Y22267642D01*
X15610333Y22267640D01*
X15610333Y22267639D01*
X15777335Y22100637D01*
X15968414Y21961809D01*
X16178851Y21854585D01*
X16403479Y21781598D01*
X16636751Y21744652D01*
X16636756Y21744652D01*
X16872945Y21744652D01*
X17106216Y21781598D01*
X17330844Y21854585D01*
X17541281Y21961809D01*
X17732358Y22100635D01*
X17899365Y22267642D01*
X18038191Y22458719D01*
X18127280Y22633566D01*
X18145414Y22669155D01*
X18218401Y22893783D01*
X18255348Y23127054D01*
X18255348Y23363249D01*
X18218401Y23596520D01*
X18209874Y23622762D01*
X18145416Y23821144D01*
X18038191Y24031585D01*
X17899365Y24222662D01*
X17732358Y24389669D01*
X17541281Y24528495D01*
X17330840Y24635720D01*
X17106216Y24708705D01*
X16872945Y24745652D01*
X16872940Y24745652D01*
X16636756Y24745652D01*
X16636751Y24745652D01*
X16403479Y24708705D01*
X16386974Y24703342D01*
X16178856Y24635720D01*
X16178853Y24635718D01*
X16178851Y24635718D01*
X16113595Y24602468D01*
X15997698Y24543415D01*
X15929031Y24530520D01*
X15864290Y24556796D01*
X15853733Y24566211D01*
X14864669Y25555277D01*
X14758127Y25626465D01*
X14639744Y25675501D01*
X14586099Y25686172D01*
X14514071Y25700500D01*
X14514069Y25700500D01*
X14174499Y25700500D01*
X14107460Y25720185D01*
X14061705Y25772989D01*
X14050499Y25824500D01*
X14050499Y26044856D01*
X14050499Y26044864D01*
X14049083Y26057078D01*
X14047586Y26069987D01*
X14047585Y26069988D01*
X14047585Y26069991D01*
X14002206Y26172765D01*
X13942652Y26232319D01*
X13909167Y26293642D01*
X13914151Y26363334D01*
X13942652Y26407681D01*
X14002205Y26467234D01*
X14002206Y26467235D01*
X14047585Y26570009D01*
X14050500Y26595135D01*
X14050499Y28584864D01*
X14048686Y28600500D01*
X14047586Y28609987D01*
X14047585Y28609988D01*
X14047585Y28609991D01*
X14002206Y28712765D01*
X13942652Y28772319D01*
X13909167Y28833642D01*
X13914151Y28903334D01*
X13942652Y28947681D01*
X14002205Y29007234D01*
X14002206Y29007235D01*
X14047585Y29110009D01*
X14050500Y29135135D01*
X14050499Y31124864D01*
X14049797Y31130921D01*
X14047586Y31149987D01*
X14047585Y31149988D01*
X14047585Y31149991D01*
X14002206Y31252765D01*
X13942652Y31312319D01*
X13909167Y31373642D01*
X13914151Y31443334D01*
X13942652Y31487681D01*
X14002205Y31547234D01*
X14002206Y31547235D01*
X14031063Y31612590D01*
X14047584Y31650006D01*
X14047585Y31650009D01*
X14050500Y31675135D01*
X14050500Y31895500D01*
X14070185Y31962539D01*
X14122989Y32008294D01*
X14174500Y32019500D01*
X14514071Y32019500D01*
X14639738Y32044497D01*
X14639744Y32044499D01*
X14758124Y32093533D01*
X14758133Y32093538D01*
X14864668Y32164723D01*
X14864672Y32164726D01*
X14955273Y32255327D01*
X14955276Y32255331D01*
X15026461Y32361866D01*
X15026466Y32361875D01*
X15047576Y32412840D01*
X15075501Y32480256D01*
X15075502Y32480261D01*
X15100500Y32605928D01*
X15100500Y37713564D01*
X15120185Y37780603D01*
X15136819Y37801245D01*
X17648755Y40313181D01*
X17710078Y40346666D01*
X17736436Y40349500D01*
X27071292Y40349500D01*
X27138331Y40329815D01*
X27158973Y40313181D01*
X27493272Y39978881D01*
X27526757Y39917558D01*
X27521773Y39847866D01*
X27479901Y39791933D01*
X27414437Y39767516D01*
X27405591Y39767200D01*
X27384503Y39767200D01*
X27151231Y39730253D01*
X27053380Y39698459D01*
X26926608Y39657268D01*
X26926605Y39657266D01*
X26926603Y39657266D01*
X26849638Y39618050D01*
X26716167Y39550043D01*
X26525090Y39411217D01*
X26358083Y39244210D01*
X26237710Y39078531D01*
X26219257Y39053133D01*
X26112033Y38842696D01*
X26039046Y38618068D01*
X26002100Y38384797D01*
X26002100Y38148602D01*
X26039046Y37915331D01*
X26112033Y37690703D01*
X26219257Y37480266D01*
X26272458Y37407042D01*
X26358083Y37289190D01*
X26358085Y37289188D01*
X26358085Y37289187D01*
X26525087Y37122185D01*
X26716166Y36983357D01*
X26926603Y36876133D01*
X27151231Y36803146D01*
X27384503Y36766200D01*
X27384508Y36766200D01*
X27620692Y36766200D01*
X27642104Y36769591D01*
X27711397Y36760635D01*
X27764848Y36715638D01*
X27785487Y36648886D01*
X27785500Y36647117D01*
X27785500Y35584301D01*
X27800181Y35510501D01*
X27800181Y35510499D01*
X27810497Y35458634D01*
X27810499Y35458627D01*
X27859534Y35340246D01*
X27930726Y35233698D01*
X27930727Y35233697D01*
X28813181Y34351244D01*
X28846666Y34289921D01*
X28849500Y34263563D01*
X28849500Y15112329D01*
X28864041Y15039232D01*
X28864041Y15039230D01*
X28874497Y14986663D01*
X28874499Y14986655D01*
X28923534Y14868274D01*
X28994726Y14761726D01*
X39264224Y4492228D01*
X39264231Y4492222D01*
X39370771Y4421035D01*
X39370770Y4421035D01*
X39489155Y4371999D01*
X39489161Y4371997D01*
X39614829Y4347000D01*
X39614831Y4347000D01*
X59737382Y4347000D01*
X59804421Y4327315D01*
X59836187Y4297924D01*
X59859578Y4267077D01*
X59980156Y4175639D01*
X60120938Y4120122D01*
X60170353Y4114188D01*
X60209398Y4109500D01*
X60209403Y4109500D01*
X61245597Y4109500D01*
X61245602Y4109500D01*
X61288426Y4114642D01*
X61334061Y4120122D01*
X61474843Y4175639D01*
X61602181Y4272203D01*
X61603899Y4269937D01*
X61652849Y4296666D01*
X61679207Y4299500D01*
X62926571Y4299500D01*
X63052238Y4324497D01*
X63052248Y4324500D01*
X63089815Y4340061D01*
X63137267Y4349500D01*
X63429270Y4349500D01*
X63459699Y4352353D01*
X63459701Y4352353D01*
X63587880Y4397206D01*
X63587882Y4397207D01*
X63633693Y4431017D01*
X63697150Y4477850D01*
X63777793Y4587118D01*
X63789006Y4619163D01*
X63822646Y4715298D01*
X63822646Y4715300D01*
X63825500Y4745730D01*
X63825500Y5154269D01*
X63822646Y5184699D01*
X63822646Y5184701D01*
X63780667Y5304668D01*
X63777793Y5312882D01*
X63697150Y5422150D01*
X63587882Y5502793D01*
X63502426Y5532695D01*
X63459700Y5547646D01*
X63429270Y5550500D01*
X63429266Y5550500D01*
X63137267Y5550500D01*
X63089815Y5559939D01*
X63070735Y5567841D01*
X63052244Y5575501D01*
X63011115Y5583682D01*
X62926571Y5600500D01*
X62926569Y5600500D01*
X61753639Y5600500D01*
X61686600Y5620185D01*
X61654835Y5649575D01*
X61595422Y5727922D01*
X61579847Y5739733D01*
X61474842Y5819361D01*
X61334064Y5874877D01*
X61245602Y5885500D01*
X60209398Y5885500D01*
X60120936Y5874877D01*
X59980158Y5819361D01*
X59980157Y5819360D01*
X59980156Y5819360D01*
X59859578Y5727922D01*
X59836187Y5697076D01*
X59779994Y5655552D01*
X59737382Y5648000D01*
X41219437Y5648000D01*
X41152398Y5667685D01*
X41106643Y5720489D01*
X41096699Y5789647D01*
X41125724Y5853203D01*
X41146547Y5872314D01*
X41227710Y5931283D01*
X41394717Y6098290D01*
X41533543Y6289367D01*
X41584202Y6388791D01*
X41640766Y6499803D01*
X41651722Y6533521D01*
X41713753Y6724432D01*
X41735814Y6863721D01*
X41765743Y6926855D01*
X41825054Y6963787D01*
X41894917Y6962789D01*
X41945968Y6932005D01*
X42022491Y6855482D01*
X42213566Y6716657D01*
X42424003Y6609433D01*
X42648631Y6536446D01*
X42881903Y6499500D01*
X42881908Y6499500D01*
X43118097Y6499500D01*
X43351368Y6536446D01*
X43575996Y6609433D01*
X43786433Y6716657D01*
X43807658Y6732078D01*
X43977510Y6855483D01*
X44144517Y7022490D01*
X44283343Y7213567D01*
X44350270Y7344919D01*
X44390566Y7424003D01*
X44391595Y7427168D01*
X44456197Y7625993D01*
X44463553Y7648631D01*
X44500500Y7881902D01*
X44500500Y8118097D01*
X47499500Y8118097D01*
X47499500Y7881902D01*
X47536446Y7648631D01*
X47609433Y7424003D01*
X47716657Y7213566D01*
X47765742Y7146007D01*
X47855483Y7022490D01*
X47855485Y7022488D01*
X47855485Y7022487D01*
X48022487Y6855485D01*
X48213566Y6716657D01*
X48424003Y6609433D01*
X48648631Y6536446D01*
X48881903Y6499500D01*
X48881908Y6499500D01*
X49118097Y6499500D01*
X49351368Y6536446D01*
X49575996Y6609433D01*
X49786433Y6716657D01*
X49807658Y6732078D01*
X49977510Y6855483D01*
X50144517Y7022490D01*
X50283343Y7213567D01*
X50350270Y7344919D01*
X50390566Y7424003D01*
X50391595Y7427168D01*
X50456197Y7625993D01*
X50463553Y7648631D01*
X50500500Y7881902D01*
X50500500Y8118097D01*
X50463553Y8351368D01*
X50430008Y8454608D01*
X50390568Y8575992D01*
X50283343Y8786433D01*
X50144517Y8977510D01*
X49977510Y9144517D01*
X49786433Y9283343D01*
X49575992Y9390568D01*
X49351368Y9463553D01*
X49118097Y9500500D01*
X49118092Y9500500D01*
X48881908Y9500500D01*
X48881903Y9500500D01*
X48648631Y9463553D01*
X48599238Y9447504D01*
X48424008Y9390568D01*
X48424005Y9390566D01*
X48424003Y9390566D01*
X48343633Y9349615D01*
X48213567Y9283343D01*
X48022490Y9144517D01*
X47855483Y8977510D01*
X47744314Y8824499D01*
X47716657Y8786433D01*
X47609433Y8575996D01*
X47536446Y8351368D01*
X47499500Y8118097D01*
X44500500Y8118097D01*
X44463553Y8351368D01*
X44430008Y8454608D01*
X44390568Y8575992D01*
X44283343Y8786433D01*
X44144517Y8977510D01*
X43977510Y9144517D01*
X43786433Y9283343D01*
X43575992Y9390568D01*
X43351368Y9463553D01*
X43118097Y9500500D01*
X43118092Y9500500D01*
X42881908Y9500500D01*
X42881903Y9500500D01*
X42648631Y9463553D01*
X42599238Y9447504D01*
X42424008Y9390568D01*
X42424005Y9390566D01*
X42424003Y9390566D01*
X42343633Y9349615D01*
X42213567Y9283343D01*
X42022490Y9144517D01*
X41855483Y8977510D01*
X41744314Y8824499D01*
X41716657Y8786433D01*
X41609433Y8575996D01*
X41536446Y8351368D01*
X41514385Y8212078D01*
X41484456Y8148943D01*
X41425144Y8112012D01*
X41355281Y8113010D01*
X41304235Y8143791D01*
X41227710Y8220317D01*
X41036633Y8359143D01*
X40826192Y8466368D01*
X40601568Y8539353D01*
X40368297Y8576300D01*
X40368292Y8576300D01*
X40132108Y8576300D01*
X40132103Y8576300D01*
X40015470Y8557826D01*
X39898832Y8539353D01*
X39826002Y8515688D01*
X39756163Y8513694D01*
X39700007Y8545937D01*
X32909517Y15336428D01*
X32876034Y15397749D01*
X32873200Y15424107D01*
X32873200Y22822507D01*
X32892885Y22889546D01*
X32940904Y22932991D01*
X33009130Y22967755D01*
X33009133Y22967757D01*
X33200210Y23106583D01*
X33367217Y23273590D01*
X33506043Y23464667D01*
X33571159Y23592465D01*
X33613266Y23675103D01*
X33686253Y23899731D01*
X33723200Y24133002D01*
X33723200Y24369197D01*
X33686253Y24602468D01*
X33670646Y24650500D01*
X33623463Y24795712D01*
X33621469Y24865549D01*
X33657549Y24925382D01*
X33720249Y24956211D01*
X33760793Y24956500D01*
X33994403Y24919500D01*
X33994408Y24919500D01*
X34230597Y24919500D01*
X34463868Y24956446D01*
X34688496Y25029433D01*
X34898933Y25136657D01*
X34909751Y25144517D01*
X35090010Y25275483D01*
X35170119Y25355592D01*
X35231442Y25389077D01*
X35301134Y25384093D01*
X35357067Y25342221D01*
X35381484Y25276757D01*
X35381800Y25267911D01*
X35381800Y20243108D01*
X35362115Y20176069D01*
X35345481Y20155427D01*
X34954727Y19764674D01*
X34954724Y19764671D01*
X34899930Y19682665D01*
X34883535Y19658128D01*
X34834499Y19539744D01*
X34834497Y19539738D01*
X34809500Y19414071D01*
X34809500Y19074499D01*
X34789815Y19007460D01*
X34737011Y18961705D01*
X34685500Y18950499D01*
X34465136Y18950499D01*
X34465121Y18950497D01*
X34465117Y18950497D01*
X34440012Y18947586D01*
X34440010Y18947585D01*
X34440009Y18947585D01*
X34370043Y18916692D01*
X34337235Y18902206D01*
X34257794Y18822765D01*
X34212415Y18719993D01*
X34212415Y18719991D01*
X34209500Y18694868D01*
X34209500Y16305143D01*
X34209502Y16305117D01*
X34212413Y16280012D01*
X34212415Y16280008D01*
X34257793Y16177235D01*
X34337234Y16097794D01*
X34440007Y16052415D01*
X34465134Y16049500D01*
X34465135Y16049500D01*
X36454856Y16049500D01*
X36454882Y16049502D01*
X36479987Y16052413D01*
X36479991Y16052415D01*
X36582764Y16097793D01*
X36662205Y16177234D01*
X36662206Y16177235D01*
X36707585Y16280009D01*
X36710500Y16305135D01*
X36710499Y16765735D01*
X36730183Y16832772D01*
X36782987Y16878527D01*
X36852146Y16888471D01*
X36915702Y16859446D01*
X36934816Y16838619D01*
X37046167Y16685360D01*
X37046174Y16685351D01*
X37185351Y16546174D01*
X37344594Y16430476D01*
X37519970Y16341117D01*
X37707173Y16280290D01*
X37901578Y16249500D01*
X37901583Y16249500D01*
X38098422Y16249500D01*
X38292826Y16280290D01*
X38480029Y16341117D01*
X38655405Y16430476D01*
X38661812Y16435131D01*
X38814646Y16546172D01*
X38953828Y16685354D01*
X39069524Y16844595D01*
X39146023Y16994733D01*
X39158882Y17019970D01*
X39219709Y17207173D01*
X39250500Y17401577D01*
X39250500Y17598421D01*
X39228644Y17736410D01*
X39237598Y17805704D01*
X39263436Y17843490D01*
X43505272Y22085325D01*
X43505273Y22085326D01*
X43505275Y22085329D01*
X43505277Y22085331D01*
X43576465Y22191873D01*
X43605512Y22261999D01*
X43625501Y22310256D01*
X43641570Y22391037D01*
X43650500Y22435928D01*
X43650500Y26784392D01*
X43670185Y26851431D01*
X43686819Y26872073D01*
X46384927Y29570181D01*
X46446250Y29603666D01*
X46472608Y29606500D01*
X47886569Y29606500D01*
X47953608Y29586815D01*
X47999363Y29534011D01*
X48009307Y29464853D01*
X47985373Y29407575D01*
X47920739Y29322343D01*
X47910404Y29296135D01*
X47867443Y29187192D01*
X47865222Y29181561D01*
X47862129Y29155803D01*
X47854600Y29093102D01*
X47854600Y27906898D01*
X47857541Y27882407D01*
X47865222Y27818438D01*
X47920739Y27677656D01*
X48012177Y27557077D01*
X48132758Y27465638D01*
X48226091Y27428832D01*
X48281234Y27385926D01*
X48304427Y27320018D01*
X48304600Y27313478D01*
X48304600Y20155528D01*
X48304599Y20155528D01*
X48323863Y20058691D01*
X48323863Y20058690D01*
X48329597Y20029862D01*
X48329598Y20029857D01*
X48378634Y19911474D01*
X48449826Y19804926D01*
X48449827Y19804925D01*
X54322672Y13932081D01*
X54356157Y13870758D01*
X54351173Y13801066D01*
X54309301Y13745133D01*
X54243837Y13720716D01*
X54234991Y13720400D01*
X54121203Y13720400D01*
X54004570Y13701926D01*
X53887932Y13683453D01*
X53815102Y13659788D01*
X53745263Y13657794D01*
X53689107Y13690037D01*
X50665569Y16713577D01*
X50559027Y16784765D01*
X50440644Y16833801D01*
X50399515Y16841982D01*
X50314971Y16858800D01*
X50314969Y16858800D01*
X48119592Y16858800D01*
X48052553Y16878485D01*
X48009107Y16926505D01*
X48001939Y16940571D01*
X47974343Y16994733D01*
X47835517Y17185810D01*
X47668510Y17352817D01*
X47477433Y17491643D01*
X47266992Y17598868D01*
X47042368Y17671853D01*
X47017170Y17675844D01*
X46809097Y17708800D01*
X46809092Y17708800D01*
X46572908Y17708800D01*
X46572903Y17708800D01*
X46339631Y17671853D01*
X46248859Y17642359D01*
X46115008Y17598868D01*
X46115005Y17598866D01*
X46115003Y17598866D01*
X46003991Y17542302D01*
X45904567Y17491643D01*
X45713490Y17352817D01*
X45546483Y17185810D01*
X45425993Y17019970D01*
X45407657Y16994733D01*
X45300433Y16784296D01*
X45227446Y16559668D01*
X45190500Y16326397D01*
X45190500Y16090202D01*
X45227446Y15856931D01*
X45300433Y15632303D01*
X45407657Y15421866D01*
X45469734Y15336426D01*
X45546483Y15230790D01*
X45546485Y15230788D01*
X45546485Y15230787D01*
X45713487Y15063785D01*
X45904566Y14924957D01*
X46115003Y14817733D01*
X46339631Y14744746D01*
X46572903Y14707800D01*
X46572908Y14707800D01*
X46809097Y14707800D01*
X47042368Y14744746D01*
X47266996Y14817733D01*
X47477433Y14924957D01*
X47518644Y14954899D01*
X47668510Y15063783D01*
X47835517Y15230790D01*
X47974343Y15421867D01*
X47997071Y15466474D01*
X48009107Y15490095D01*
X48057082Y15540891D01*
X48119592Y15557800D01*
X49930092Y15557800D01*
X49997131Y15538115D01*
X50017773Y15521481D01*
X52769159Y12770093D01*
X52802644Y12708770D01*
X52799409Y12644094D01*
X52775747Y12571272D01*
X52775747Y12571269D01*
X52738800Y12337997D01*
X52738800Y12101802D01*
X52775746Y11868531D01*
X52848733Y11643903D01*
X52955957Y11433466D01*
X53031124Y11330009D01*
X53094783Y11242390D01*
X53094785Y11242388D01*
X53094785Y11242387D01*
X53261787Y11075385D01*
X53452866Y10936557D01*
X53663303Y10829333D01*
X53887931Y10756346D01*
X54121203Y10719400D01*
X54121208Y10719400D01*
X54357397Y10719400D01*
X54590668Y10756346D01*
X54815296Y10829333D01*
X55025733Y10936557D01*
X55051869Y10955546D01*
X55216810Y11075383D01*
X55383817Y11242390D01*
X55522643Y11433467D01*
X55573302Y11532891D01*
X55629866Y11643903D01*
X55702853Y11868531D01*
X55739800Y12101802D01*
X55739800Y12215591D01*
X55759485Y12282630D01*
X55812289Y12328385D01*
X55881447Y12338329D01*
X55945003Y12309304D01*
X55951481Y12303272D01*
X59207401Y9047351D01*
X59235074Y9005162D01*
X59265638Y8927657D01*
X59357077Y8807077D01*
X59477656Y8715639D01*
X59618438Y8660122D01*
X59667853Y8654188D01*
X59706898Y8649500D01*
X59706903Y8649500D01*
X60743097Y8649500D01*
X60743102Y8649500D01*
X60785926Y8654642D01*
X60831561Y8660122D01*
X60860493Y8671531D01*
X60900665Y8687373D01*
X60972341Y8715638D01*
X60988734Y8728069D01*
X61049704Y8774304D01*
X61115014Y8799127D01*
X61124628Y8799500D01*
X63151571Y8799500D01*
X63277238Y8824497D01*
X63277248Y8824500D01*
X63314815Y8840061D01*
X63362267Y8849500D01*
X63654270Y8849500D01*
X63684699Y8852353D01*
X63684701Y8852353D01*
X63812880Y8897206D01*
X63812882Y8897207D01*
X63922150Y8977850D01*
X64002793Y9087118D01*
X64022878Y9144517D01*
X64047646Y9215298D01*
X64047646Y9215300D01*
X64050500Y9245730D01*
X64050500Y9654269D01*
X64047646Y9684699D01*
X64047646Y9684701D01*
X64003652Y9810426D01*
X64002793Y9812882D01*
X63922150Y9922150D01*
X63812882Y10002793D01*
X63708102Y10039457D01*
X63684700Y10047646D01*
X63654270Y10050500D01*
X63654266Y10050500D01*
X63362267Y10050500D01*
X63314815Y10059939D01*
X63295735Y10067841D01*
X63277244Y10075501D01*
X63236115Y10083682D01*
X63151571Y10100500D01*
X63151569Y10100500D01*
X61281472Y10100500D01*
X61214433Y10120185D01*
X61182668Y10149575D01*
X61092922Y10267922D01*
X60996991Y10340669D01*
X60972342Y10359361D01*
X60831564Y10414877D01*
X60743102Y10425500D01*
X59720507Y10425500D01*
X59653468Y10445185D01*
X59632826Y10461819D01*
X52919326Y17175319D01*
X52885841Y17236642D01*
X52890825Y17306334D01*
X52932697Y17362267D01*
X52998161Y17386684D01*
X53007007Y17387000D01*
X53038097Y17387000D01*
X53271368Y17423946D01*
X53495996Y17496933D01*
X53706433Y17604157D01*
X53727878Y17619738D01*
X53897510Y17742983D01*
X54064517Y17909990D01*
X54203343Y18101067D01*
X54276935Y18245500D01*
X54310566Y18311503D01*
X54311588Y18314646D01*
X54356811Y18453828D01*
X54383553Y18536131D01*
X54420500Y18769402D01*
X54420500Y18916692D01*
X54440185Y18983731D01*
X54456819Y19004373D01*
X56869805Y21417359D01*
X56931128Y21450844D01*
X56995803Y21447609D01*
X57068628Y21423947D01*
X57301903Y21387000D01*
X57301908Y21387000D01*
X57538097Y21387000D01*
X57771368Y21423946D01*
X57995996Y21496933D01*
X58206433Y21604157D01*
X58397510Y21742983D01*
X58564517Y21909990D01*
X58703343Y22101067D01*
X58788217Y22267642D01*
X58810566Y22311503D01*
X58818950Y22337304D01*
X58883553Y22536132D01*
X58883603Y22536447D01*
X58920500Y22769402D01*
X58920500Y23005597D01*
X58883553Y23238868D01*
X58872026Y23274344D01*
X58810568Y23463492D01*
X58703343Y23673933D01*
X58564517Y23865010D01*
X58397510Y24032017D01*
X58206433Y24170843D01*
X58138205Y24205606D01*
X58087410Y24253580D01*
X58070500Y24316091D01*
X58070500Y25599191D01*
X58090185Y25666230D01*
X58106819Y25686872D01*
X64439673Y32019726D01*
X64439675Y32019729D01*
X64439677Y32019731D01*
X64510865Y32126273D01*
X64550489Y32221933D01*
X64557446Y32238729D01*
X64557446Y32238728D01*
X64559899Y32244650D01*
X64559902Y32244662D01*
X64560194Y32246127D01*
X64570245Y32296657D01*
X64584900Y32370328D01*
X64584900Y36676671D01*
X64564264Y36780408D01*
X64559901Y36802344D01*
X64531781Y36870231D01*
X64529336Y36876133D01*
X64519879Y36898964D01*
X64510866Y36920726D01*
X64439677Y37027269D01*
X64327517Y37139428D01*
X64294034Y37200749D01*
X64291200Y37227108D01*
X64291200Y38278571D01*
X64266202Y38404238D01*
X64266201Y38404244D01*
X64217165Y38522627D01*
X64211140Y38531643D01*
X64199013Y38549795D01*
X64145979Y38629165D01*
X64145976Y38629170D01*
X63218419Y39556727D01*
X63184934Y39618050D01*
X63182100Y39644408D01*
X63182100Y41177302D01*
X63201785Y41244341D01*
X63254589Y41290096D01*
X63319352Y41300592D01*
X63329511Y41299500D01*
X63329515Y41299500D01*
X65070481Y41299500D01*
X65070490Y41299501D01*
X65127115Y41305588D01*
X65157368Y41316871D01*
X65227060Y41321855D01*
X65288382Y41288369D01*
X65321867Y41227045D01*
X65324700Y41200689D01*
X65324700Y39824133D01*
X65337150Y39761547D01*
X65343375Y39730253D01*
X65346400Y39715045D01*
X65349699Y39698459D01*
X65398734Y39580078D01*
X65469926Y39473530D01*
X65961561Y38981895D01*
X65995046Y38920572D01*
X65991811Y38855896D01*
X65968149Y38783074D01*
X65968149Y38783071D01*
X65931202Y38549799D01*
X65931202Y38313604D01*
X65968148Y38080333D01*
X66041135Y37855705D01*
X66148359Y37645268D01*
X66178230Y37604155D01*
X66287185Y37454192D01*
X66287187Y37454190D01*
X66287187Y37454189D01*
X66454189Y37287187D01*
X66645268Y37148359D01*
X66855705Y37041135D01*
X67080333Y36968148D01*
X67313605Y36931202D01*
X67313610Y36931202D01*
X67549799Y36931202D01*
X67783070Y36968148D01*
X68007698Y37041135D01*
X68218135Y37148359D01*
X68280303Y37193527D01*
X68409212Y37287185D01*
X68576219Y37454192D01*
X68715045Y37645269D01*
X68720916Y37656791D01*
X68768892Y37707586D01*
X68836713Y37724380D01*
X68902848Y37701841D01*
X68946298Y37647125D01*
X68955400Y37600494D01*
X68955400Y35431249D01*
X68935715Y35364210D01*
X68882911Y35318455D01*
X68813753Y35308511D01*
X68750197Y35337536D01*
X68731085Y35358359D01*
X68644517Y35477510D01*
X68477510Y35644517D01*
X68286433Y35783343D01*
X68075992Y35890568D01*
X67851368Y35963553D01*
X67836973Y35965833D01*
X67618097Y36000500D01*
X67618092Y36000500D01*
X67381908Y36000500D01*
X67381903Y36000500D01*
X67148631Y35963553D01*
X67044412Y35929689D01*
X66924008Y35890568D01*
X66924005Y35890566D01*
X66924003Y35890566D01*
X66819719Y35837430D01*
X66713567Y35783343D01*
X66522490Y35644517D01*
X66355483Y35477510D01*
X66232698Y35308511D01*
X66216657Y35286433D01*
X66109433Y35075996D01*
X66036446Y34851368D01*
X65999500Y34618097D01*
X65999500Y34381902D01*
X66036446Y34148631D01*
X66109433Y33924003D01*
X66216657Y33713566D01*
X66263835Y33648632D01*
X66355483Y33522490D01*
X66355485Y33522488D01*
X66355485Y33522487D01*
X66522487Y33355485D01*
X66713566Y33216657D01*
X66924003Y33109433D01*
X67136785Y33040295D01*
X67194460Y33000857D01*
X67221658Y32936498D01*
X67209743Y32867652D01*
X67171352Y32822046D01*
X66987290Y32688317D01*
X66820283Y32521310D01*
X66697759Y32352671D01*
X66681457Y32330233D01*
X66574233Y32119796D01*
X66501246Y31895168D01*
X66464300Y31661897D01*
X66464300Y31425702D01*
X66501246Y31192431D01*
X66574233Y30967803D01*
X66681457Y30757366D01*
X66721997Y30701568D01*
X66820283Y30566290D01*
X66820285Y30566287D01*
X66823147Y30562349D01*
X66822144Y30561620D01*
X66848362Y30503092D01*
X66849500Y30486335D01*
X66849500Y29820808D01*
X66840855Y29791367D01*
X66834332Y29761381D01*
X66830577Y29756365D01*
X66829815Y29753769D01*
X66813181Y29733127D01*
X66647012Y29566958D01*
X66585689Y29533473D01*
X66515997Y29538457D01*
X66503036Y29544154D01*
X66338648Y29627914D01*
X66338647Y29627914D01*
X66338644Y29627916D01*
X66114020Y29700901D01*
X65880749Y29737848D01*
X65880744Y29737848D01*
X65644560Y29737848D01*
X65644555Y29737848D01*
X65411283Y29700901D01*
X65348604Y29680535D01*
X65186660Y29627916D01*
X65186657Y29627914D01*
X65186655Y29627914D01*
X65075643Y29571350D01*
X64976219Y29520691D01*
X64785142Y29381865D01*
X64618135Y29214858D01*
X64513359Y29070646D01*
X64479309Y29023781D01*
X64372085Y28813344D01*
X64299098Y28588716D01*
X64262152Y28355445D01*
X64262152Y28119250D01*
X64299098Y27885979D01*
X64372085Y27661351D01*
X64479309Y27450914D01*
X64558514Y27341898D01*
X64618135Y27259838D01*
X64618137Y27259836D01*
X64618137Y27259835D01*
X64785139Y27092833D01*
X64976218Y26954005D01*
X65186655Y26846781D01*
X65411283Y26773794D01*
X65644555Y26736848D01*
X65659140Y26736848D01*
X65726179Y26717163D01*
X65771934Y26664359D01*
X65781878Y26595201D01*
X65752853Y26531645D01*
X65746821Y26525167D01*
X63908473Y24686819D01*
X63847150Y24653334D01*
X63820792Y24650500D01*
X63428592Y24650500D01*
X63361553Y24670185D01*
X63318107Y24718205D01*
X63304122Y24745652D01*
X63283343Y24786433D01*
X63144517Y24977510D01*
X62977510Y25144517D01*
X62786433Y25283343D01*
X62575992Y25390568D01*
X62351368Y25463553D01*
X62118097Y25500500D01*
X62118092Y25500500D01*
X61881908Y25500500D01*
X61881903Y25500500D01*
X61648631Y25463553D01*
X61583807Y25442490D01*
X61424008Y25390568D01*
X61424005Y25390566D01*
X61424003Y25390566D01*
X61312991Y25334002D01*
X61213567Y25283343D01*
X61022490Y25144517D01*
X60855483Y24977510D01*
X60746198Y24827092D01*
X60716657Y24786433D01*
X60609433Y24575996D01*
X60536446Y24351368D01*
X60499500Y24118097D01*
X60499500Y23881902D01*
X60536446Y23648631D01*
X60609433Y23424003D01*
X60716657Y23213566D01*
X60794384Y23106585D01*
X60855483Y23022490D01*
X60855485Y23022488D01*
X60855485Y23022487D01*
X61022487Y22855485D01*
X61213566Y22716657D01*
X61424003Y22609433D01*
X61648631Y22536446D01*
X61881903Y22499500D01*
X61881908Y22499500D01*
X62118097Y22499500D01*
X62351368Y22536446D01*
X62575996Y22609433D01*
X62786433Y22716657D01*
X62837513Y22753769D01*
X62977510Y22855483D01*
X63144517Y23022490D01*
X63283343Y23213567D01*
X63318107Y23281795D01*
X63366082Y23332591D01*
X63428592Y23349500D01*
X63694192Y23349500D01*
X63761231Y23329815D01*
X63806986Y23277011D01*
X63816930Y23207853D01*
X63787905Y23144297D01*
X63781873Y23137819D01*
X59994722Y19350668D01*
X59994718Y19350663D01*
X59949287Y19282668D01*
X59949285Y19282665D01*
X59923539Y19244135D01*
X59923533Y19244124D01*
X59874499Y19125744D01*
X59874497Y19125738D01*
X59849500Y19000071D01*
X59849500Y15928591D01*
X59829815Y15861552D01*
X59781794Y15818106D01*
X59713568Y15783344D01*
X59713567Y15783343D01*
X59522490Y15644517D01*
X59355483Y15477510D01*
X59252979Y15336426D01*
X59216657Y15286433D01*
X59109433Y15075996D01*
X59036446Y14851368D01*
X58999500Y14618097D01*
X58999500Y14381902D01*
X59036446Y14148631D01*
X59109433Y13924003D01*
X59216657Y13713566D01*
X59270469Y13639501D01*
X59355483Y13522490D01*
X59355485Y13522488D01*
X59355485Y13522487D01*
X59522487Y13355485D01*
X59713566Y13216657D01*
X59924003Y13109433D01*
X60148631Y13036446D01*
X60381903Y12999500D01*
X60381908Y12999500D01*
X60618097Y12999500D01*
X60851368Y13036446D01*
X61075996Y13109433D01*
X61286433Y13216657D01*
X61477510Y13355483D01*
X61644517Y13522490D01*
X61783343Y13713567D01*
X61863436Y13870758D01*
X61890566Y13924003D01*
X61963553Y14148631D01*
X62000500Y14381902D01*
X62000500Y14618097D01*
X61963553Y14851368D01*
X61943347Y14913556D01*
X61890568Y15075992D01*
X61783343Y15286433D01*
X61644517Y15477510D01*
X61477510Y15644517D01*
X61286433Y15783343D01*
X61218205Y15818106D01*
X61167410Y15866080D01*
X61150500Y15928591D01*
X61150500Y18615192D01*
X61170185Y18682231D01*
X61186819Y18702873D01*
X65940686Y23456740D01*
X66002009Y23490225D01*
X66071701Y23485241D01*
X66127634Y23443369D01*
X66152051Y23377905D01*
X66146298Y23330741D01*
X66116447Y23238872D01*
X66116447Y23238869D01*
X66079500Y23005597D01*
X66079500Y22769402D01*
X66116446Y22536131D01*
X66189433Y22311503D01*
X66296657Y22101066D01*
X66308094Y22085325D01*
X66435483Y21909990D01*
X66435485Y21909988D01*
X66435485Y21909987D01*
X66602487Y21742985D01*
X66793566Y21604157D01*
X67004003Y21496933D01*
X67228631Y21423946D01*
X67461903Y21387000D01*
X67461908Y21387000D01*
X67698097Y21387000D01*
X67931369Y21423947D01*
X67931372Y21423947D01*
X68004194Y21447609D01*
X68074035Y21449604D01*
X68130193Y21417359D01*
X68313181Y21234372D01*
X68346666Y21173049D01*
X68349500Y21146691D01*
X68349500Y20428591D01*
X68329815Y20361552D01*
X68281794Y20318106D01*
X68259965Y20306983D01*
X68213568Y20283344D01*
X68206304Y20278066D01*
X68022490Y20144517D01*
X67855483Y19977510D01*
X67768821Y19858230D01*
X67716657Y19786433D01*
X67609433Y19575996D01*
X67536446Y19351368D01*
X67499500Y19118097D01*
X67499500Y18881902D01*
X67536446Y18648631D01*
X67609433Y18424003D01*
X67716657Y18213566D01*
X67785572Y18118714D01*
X67855483Y18022490D01*
X67855485Y18022488D01*
X67855485Y18022487D01*
X68022487Y17855485D01*
X68213566Y17716657D01*
X68424003Y17609433D01*
X68648631Y17536446D01*
X68881903Y17499500D01*
X68881908Y17499500D01*
X69118097Y17499500D01*
X69351368Y17536446D01*
X69575996Y17609433D01*
X69786433Y17716657D01*
X69805486Y17730500D01*
X69977510Y17855483D01*
X70144517Y18022490D01*
X70147962Y18025935D01*
X70149002Y18024894D01*
X70202005Y18059501D01*
X70271873Y18060007D01*
X70330923Y18022658D01*
X70360407Y17959314D01*
X70361800Y17940781D01*
X70361800Y17775144D01*
X70361802Y17775117D01*
X70364713Y17750012D01*
X70364715Y17750008D01*
X70410093Y17647235D01*
X70489534Y17567794D01*
X70592307Y17522415D01*
X70617434Y17519500D01*
X70617435Y17519500D01*
X73107156Y17519500D01*
X73107182Y17519502D01*
X73132287Y17522413D01*
X73132291Y17522415D01*
X73235064Y17567793D01*
X73314505Y17647234D01*
X73314506Y17647235D01*
X73351271Y17730500D01*
X73359884Y17750006D01*
X73359885Y17750009D01*
X73362800Y17775135D01*
X73362800Y18245500D01*
X73365350Y18254185D01*
X73364062Y18263147D01*
X73375040Y18287187D01*
X73382485Y18312539D01*
X73389325Y18318466D01*
X73393087Y18326703D01*
X73415321Y18340992D01*
X73435289Y18358294D01*
X73445803Y18360581D01*
X73451865Y18364477D01*
X73486800Y18369500D01*
X73489611Y18369500D01*
X73556650Y18349815D01*
X73577292Y18333181D01*
X73634987Y18275485D01*
X73826066Y18136657D01*
X74036503Y18029433D01*
X74261131Y17956446D01*
X74494403Y17919500D01*
X74494408Y17919500D01*
X74730597Y17919500D01*
X74963868Y17956446D01*
X75188496Y18029433D01*
X75398933Y18136657D01*
X75429146Y18158608D01*
X75590010Y18275483D01*
X75757017Y18442490D01*
X75895843Y18633567D01*
X75964235Y18767794D01*
X76003066Y18844003D01*
X76004117Y18847235D01*
X76051936Y18994408D01*
X76076053Y19068631D01*
X76113000Y19301902D01*
X76113000Y19538097D01*
X76076053Y19771368D01*
X76065148Y19804931D01*
X76003068Y19995992D01*
X75895843Y20206433D01*
X75831023Y20295647D01*
X75807543Y20361453D01*
X75823368Y20429507D01*
X75843660Y20456214D01*
X77337305Y21949859D01*
X77398628Y21983344D01*
X77463303Y21980109D01*
X77536128Y21956447D01*
X77769403Y21919500D01*
X77769408Y21919500D01*
X78005597Y21919500D01*
X78238868Y21956446D01*
X78463496Y22029433D01*
X78673933Y22136657D01*
X78865010Y22275483D01*
X79032017Y22442490D01*
X79170843Y22633567D01*
X79232089Y22753769D01*
X79278066Y22844003D01*
X79303909Y22923537D01*
X79351053Y23068632D01*
X79363037Y23144297D01*
X79388000Y23301902D01*
X79388000Y23538097D01*
X79351053Y23771368D01*
X79334168Y23823334D01*
X79278068Y23995992D01*
X79170843Y24206433D01*
X79032017Y24397510D01*
X78865010Y24564517D01*
X78673933Y24703343D01*
X78463492Y24810568D01*
X78238868Y24883553D01*
X78005597Y24920500D01*
X78005592Y24920500D01*
X77769408Y24920500D01*
X77769403Y24920500D01*
X77536131Y24883553D01*
X77431912Y24849689D01*
X77311508Y24810568D01*
X77311505Y24810566D01*
X77311503Y24810566D01*
X77264140Y24786433D01*
X77101067Y24703343D01*
X76909990Y24564517D01*
X76742983Y24397510D01*
X76621419Y24230192D01*
X76604157Y24206433D01*
X76496933Y23995996D01*
X76423946Y23771368D01*
X76387000Y23538097D01*
X76387000Y23301902D01*
X76423947Y23068628D01*
X76447609Y22995803D01*
X76449604Y22925962D01*
X76417359Y22869805D01*
X74491583Y20944029D01*
X74430260Y20910544D01*
X74423306Y20909238D01*
X74329557Y20894390D01*
X74261131Y20883553D01*
X74156912Y20849689D01*
X74036508Y20810568D01*
X74036505Y20810566D01*
X74036503Y20810566D01*
X73925491Y20754002D01*
X73826067Y20703343D01*
X73634990Y20564517D01*
X73634987Y20564514D01*
X73476553Y20406080D01*
X73415230Y20372595D01*
X73345538Y20377579D01*
X73301191Y20406080D01*
X73277717Y20429554D01*
X73235065Y20472206D01*
X73132291Y20517585D01*
X73107165Y20520500D01*
X70617436Y20520499D01*
X70617422Y20520497D01*
X70617417Y20520497D01*
X70592312Y20517586D01*
X70592310Y20517585D01*
X70592309Y20517585D01*
X70513517Y20482795D01*
X70489535Y20472206D01*
X70410094Y20392765D01*
X70364715Y20289993D01*
X70364715Y20289991D01*
X70361800Y20264868D01*
X70361800Y20059220D01*
X70342115Y19992181D01*
X70289311Y19946426D01*
X70220153Y19936482D01*
X70156597Y19965507D01*
X70148031Y19974134D01*
X70147962Y19974065D01*
X70062807Y20059220D01*
X69977510Y20144517D01*
X69786433Y20283343D01*
X69718205Y20318106D01*
X69667410Y20366080D01*
X69650500Y20428591D01*
X69650500Y21531571D01*
X69625502Y21657238D01*
X69625501Y21657244D01*
X69576465Y21775627D01*
X69523708Y21854584D01*
X69505276Y21882170D01*
X69050136Y22337308D01*
X69016654Y22398628D01*
X69019889Y22463303D01*
X69043553Y22536132D01*
X69064622Y22669155D01*
X69080500Y22769402D01*
X69080500Y23005597D01*
X69043553Y23238868D01*
X69032026Y23274344D01*
X68970568Y23463492D01*
X68863343Y23673933D01*
X68724517Y23865010D01*
X68557510Y24032017D01*
X68406845Y24141482D01*
X68364180Y24196812D01*
X68358201Y24266426D01*
X68390807Y24328221D01*
X68451646Y24362578D01*
X68479731Y24365800D01*
X70112871Y24365800D01*
X70238538Y24390797D01*
X70238544Y24390799D01*
X70356925Y24439834D01*
X70356927Y24439835D01*
X70369647Y24448334D01*
X70369650Y24448336D01*
X70369650Y24448335D01*
X70463467Y24511021D01*
X70463474Y24511027D01*
X74062305Y28109859D01*
X74123628Y28143344D01*
X74188303Y28140109D01*
X74261128Y28116447D01*
X74494403Y28079500D01*
X74494408Y28079500D01*
X74730597Y28079500D01*
X74963868Y28116446D01*
X75188496Y28189433D01*
X75398933Y28296657D01*
X75449629Y28333490D01*
X75590010Y28435483D01*
X75757017Y28602490D01*
X75895843Y28793567D01*
X75969134Y28937408D01*
X76003066Y29004003D01*
X76004117Y29007235D01*
X76045674Y29135136D01*
X76076053Y29228631D01*
X76113000Y29461902D01*
X76113000Y29698097D01*
X76079750Y29908027D01*
X76076053Y29931368D01*
X76052388Y30004197D01*
X76050393Y30074034D01*
X76082639Y30130193D01*
X76901827Y30949381D01*
X76963150Y30982866D01*
X76989508Y30985700D01*
X78686871Y30985700D01*
X78812538Y31010697D01*
X78812544Y31010699D01*
X78930922Y31059733D01*
X78930927Y31059735D01*
X78944727Y31068956D01*
X78944728Y31068957D01*
X78944728Y31068956D01*
X79037467Y31130921D01*
X79037474Y31130927D01*
X82399049Y34492502D01*
X82460372Y34525987D01*
X82530064Y34521003D01*
X82585997Y34479131D01*
X82610414Y34413667D01*
X82595562Y34345394D01*
X82587048Y34331936D01*
X82576659Y34317636D01*
X82469433Y34107196D01*
X82396446Y33882568D01*
X82359500Y33649297D01*
X82359500Y33413102D01*
X82396446Y33179831D01*
X82469433Y32955203D01*
X82576657Y32744766D01*
X82638136Y32660149D01*
X82715483Y32553690D01*
X82715485Y32553688D01*
X82715485Y32553687D01*
X82885935Y32383238D01*
X82884895Y32382198D01*
X82919504Y32329190D01*
X82920007Y32259322D01*
X82882656Y32200273D01*
X82819311Y32170791D01*
X82800781Y32169399D01*
X82635136Y32169399D01*
X82635121Y32169397D01*
X82635117Y32169397D01*
X82610012Y32166486D01*
X82610010Y32166485D01*
X82610009Y32166485D01*
X82518937Y32126273D01*
X82507235Y32121106D01*
X82427794Y32041665D01*
X82382415Y31938893D01*
X82382415Y31938891D01*
X82379500Y31913768D01*
X82379500Y30252296D01*
X82359815Y30185257D01*
X82307011Y30139502D01*
X82237853Y30129558D01*
X82174297Y30158583D01*
X82155182Y30179411D01*
X82150935Y30185257D01*
X82075917Y30288510D01*
X81908910Y30455517D01*
X81717833Y30594343D01*
X81507392Y30701568D01*
X81282768Y30774553D01*
X81257835Y30778502D01*
X81049497Y30811500D01*
X81049492Y30811500D01*
X80813308Y30811500D01*
X80813303Y30811500D01*
X80580031Y30774553D01*
X80527333Y30757430D01*
X80355408Y30701568D01*
X80355405Y30701566D01*
X80355403Y30701566D01*
X80268158Y30657112D01*
X80144967Y30594343D01*
X79953890Y30455517D01*
X79786883Y30288510D01*
X79671859Y30130193D01*
X79648057Y30097433D01*
X79540833Y29886996D01*
X79467846Y29662368D01*
X79430900Y29429097D01*
X79430900Y29192902D01*
X79467846Y28959631D01*
X79540833Y28735003D01*
X79648057Y28524566D01*
X79716328Y28430600D01*
X79786883Y28333490D01*
X79786885Y28333488D01*
X79786885Y28333487D01*
X79953887Y28166485D01*
X80144969Y28027655D01*
X80213196Y27992891D01*
X80263992Y27944916D01*
X80280900Y27882407D01*
X80280900Y18827106D01*
X80261215Y18760067D01*
X80208411Y18714312D01*
X80139253Y18704368D01*
X80075697Y18733393D01*
X80069238Y18739405D01*
X79950643Y18858000D01*
X79917161Y18919319D01*
X79915854Y18965077D01*
X79917447Y18975131D01*
X79920500Y18994408D01*
X79920500Y19230592D01*
X79920500Y19230597D01*
X79883553Y19463868D01*
X79858899Y19539744D01*
X79810568Y19688492D01*
X79703343Y19898933D01*
X79564517Y20090010D01*
X79397510Y20257017D01*
X79206433Y20395843D01*
X78995992Y20503068D01*
X78771368Y20576053D01*
X78538097Y20613000D01*
X78538092Y20613000D01*
X78301908Y20613000D01*
X78301903Y20613000D01*
X78068631Y20576053D01*
X77995802Y20552389D01*
X77844008Y20503068D01*
X77844005Y20503066D01*
X77844003Y20503066D01*
X77752052Y20456214D01*
X77633567Y20395843D01*
X77442490Y20257017D01*
X77275483Y20090010D01*
X77176319Y19953523D01*
X77136657Y19898933D01*
X77029433Y19688496D01*
X76956446Y19463868D01*
X76919500Y19230597D01*
X76919500Y18994402D01*
X76956447Y18761128D01*
X76980109Y18688303D01*
X76982104Y18618462D01*
X76949859Y18562305D01*
X74957227Y16569674D01*
X74957224Y16569671D01*
X74905771Y16492665D01*
X74886035Y16463128D01*
X74836999Y16344744D01*
X74836997Y16344738D01*
X74812000Y16219071D01*
X74812000Y9490117D01*
X74792315Y9423078D01*
X74762926Y9391315D01*
X74732078Y9367922D01*
X74732074Y9367917D01*
X74640639Y9247343D01*
X74633410Y9229010D01*
X74590504Y9173866D01*
X74524596Y9150673D01*
X74518055Y9150500D01*
X70864162Y9150500D01*
X70797123Y9170185D01*
X70751368Y9222989D01*
X70748812Y9228997D01*
X70721861Y9297342D01*
X70630422Y9417922D01*
X70509842Y9509361D01*
X70369064Y9564877D01*
X70280602Y9575500D01*
X70280597Y9575500D01*
X69978808Y9575500D01*
X69911769Y9595185D01*
X69891127Y9611819D01*
X68977873Y10525073D01*
X68977869Y10525077D01*
X68871327Y10596265D01*
X68752944Y10645301D01*
X68711815Y10653482D01*
X68627271Y10670300D01*
X68627269Y10670300D01*
X65392231Y10670300D01*
X65392229Y10670300D01*
X65266561Y10645302D01*
X65266556Y10645301D01*
X65182844Y10610626D01*
X65148170Y10596264D01*
X65041631Y10525077D01*
X65041624Y10525071D01*
X64857226Y10340673D01*
X64786034Y10234125D01*
X64755756Y10161028D01*
X64736999Y10115744D01*
X64734139Y10101366D01*
X64701755Y10039457D01*
X64653473Y10008515D01*
X64637118Y10002793D01*
X64527850Y9922150D01*
X64447207Y9812882D01*
X64447206Y9812880D01*
X64402353Y9684701D01*
X64402353Y9684699D01*
X64399500Y9654269D01*
X64399500Y9245730D01*
X64402353Y9215300D01*
X64402353Y9215298D01*
X64447206Y9087119D01*
X64447207Y9087117D01*
X64527850Y8977850D01*
X64637117Y8897207D01*
X64637119Y8897206D01*
X64765299Y8852353D01*
X64795730Y8849500D01*
X64795734Y8849500D01*
X65281511Y8849500D01*
X65283377Y8849000D01*
X65441623Y8849000D01*
X65443489Y8849500D01*
X65929266Y8849500D01*
X65929270Y8849500D01*
X65959699Y8852353D01*
X65959701Y8852353D01*
X66087880Y8897206D01*
X66087882Y8897207D01*
X66197150Y8977850D01*
X66277793Y9087118D01*
X66297878Y9144517D01*
X66322646Y9215298D01*
X66322646Y9215300D01*
X66323932Y9229011D01*
X66325500Y9245734D01*
X66325500Y9245736D01*
X66325636Y9248630D01*
X66326466Y9248591D01*
X66345185Y9312339D01*
X66397989Y9358094D01*
X66449500Y9369300D01*
X68242392Y9369300D01*
X68309431Y9349615D01*
X68330073Y9332981D01*
X68975681Y8687373D01*
X69009166Y8626050D01*
X69012000Y8599692D01*
X69012000Y8031898D01*
X69013171Y8022150D01*
X69022622Y7943438D01*
X69078139Y7802656D01*
X69169578Y7682076D01*
X69200426Y7658684D01*
X69241949Y7602491D01*
X69249500Y7559881D01*
X69249500Y5183307D01*
X69240855Y5153866D01*
X69234332Y5123880D01*
X69230577Y5118864D01*
X69229815Y5116268D01*
X69213181Y5095626D01*
X69186431Y5068876D01*
X69125108Y5035391D01*
X69055416Y5040375D01*
X69011071Y5068874D01*
X66975469Y7104477D01*
X66868927Y7175665D01*
X66750544Y7224701D01*
X66731224Y7228544D01*
X66624871Y7249700D01*
X66624869Y7249700D01*
X66449500Y7249700D01*
X66382461Y7269385D01*
X66336706Y7322189D01*
X66325500Y7373700D01*
X66325500Y7754269D01*
X66322646Y7784699D01*
X66322646Y7784701D01*
X66279120Y7909089D01*
X66277793Y7912882D01*
X66197150Y8022150D01*
X66087882Y8102793D01*
X65970705Y8143795D01*
X65959700Y8147646D01*
X65929270Y8150500D01*
X65929266Y8150500D01*
X65443489Y8150500D01*
X65441623Y8151000D01*
X65283377Y8151000D01*
X65281511Y8150500D01*
X64795734Y8150500D01*
X64795730Y8150500D01*
X64765300Y8147646D01*
X64765298Y8147646D01*
X64680854Y8118097D01*
X64637118Y8102793D01*
X64527850Y8022150D01*
X64469758Y7943438D01*
X64447207Y7912882D01*
X64447206Y7912880D01*
X64402353Y7784701D01*
X64402353Y7784699D01*
X64399500Y7754269D01*
X64399500Y7345730D01*
X64402353Y7315300D01*
X64402353Y7315298D01*
X64447206Y7187119D01*
X64447207Y7187117D01*
X64527850Y7077850D01*
X64638236Y6996381D01*
X64680487Y6940733D01*
X64685945Y6871077D01*
X64652877Y6809528D01*
X64652283Y6808930D01*
X64632226Y6788873D01*
X64632223Y6788869D01*
X64579079Y6709331D01*
X64561034Y6682325D01*
X64511999Y6563944D01*
X64511997Y6563936D01*
X64487001Y6438273D01*
X64487001Y6310126D01*
X64511996Y6184463D01*
X64511998Y6184459D01*
X64527062Y6148091D01*
X64536500Y6100640D01*
X64536500Y5634298D01*
X64516815Y5567259D01*
X64464011Y5521504D01*
X64453452Y5517256D01*
X64412118Y5502793D01*
X64302850Y5422150D01*
X64277587Y5387919D01*
X64222207Y5312882D01*
X64222206Y5312880D01*
X64177353Y5184701D01*
X64177353Y5184699D01*
X64174500Y5154269D01*
X64174500Y4745730D01*
X64177353Y4715300D01*
X64177353Y4715298D01*
X64222206Y4587119D01*
X64222207Y4587117D01*
X64302850Y4477850D01*
X64412117Y4397207D01*
X64412119Y4397206D01*
X64540299Y4352353D01*
X64570730Y4349500D01*
X64570734Y4349500D01*
X65056511Y4349500D01*
X65058377Y4349000D01*
X65216623Y4349000D01*
X65218489Y4349500D01*
X65704266Y4349500D01*
X65704270Y4349500D01*
X65734699Y4352353D01*
X65734701Y4352353D01*
X65862880Y4397206D01*
X65862882Y4397207D01*
X65908693Y4431017D01*
X65972150Y4477850D01*
X66052793Y4587118D01*
X66064006Y4619163D01*
X66097646Y4715298D01*
X66097646Y4715300D01*
X66100500Y4745730D01*
X66100500Y5154269D01*
X66097646Y5184699D01*
X66097646Y5184701D01*
X66055667Y5304668D01*
X66052793Y5312882D01*
X65972150Y5422150D01*
X65862882Y5502793D01*
X65821547Y5517256D01*
X65802558Y5530875D01*
X65781297Y5540585D01*
X65774694Y5550859D01*
X65764771Y5557976D01*
X65756157Y5579702D01*
X65743523Y5599363D01*
X65740768Y5618523D01*
X65739022Y5622928D01*
X65738500Y5634298D01*
X65738500Y5824700D01*
X65758185Y5891739D01*
X65810989Y5937494D01*
X65862500Y5948700D01*
X66239992Y5948700D01*
X66307031Y5929015D01*
X66327673Y5912381D01*
X68108273Y4131781D01*
X68141758Y4070458D01*
X68136774Y4000766D01*
X68108273Y3956419D01*
X67456573Y3304719D01*
X67395250Y3271234D01*
X67368892Y3268400D01*
X66191332Y3268400D01*
X66124293Y3288085D01*
X66078538Y3340889D01*
X66074291Y3351445D01*
X66061798Y3387147D01*
X66052793Y3412882D01*
X65972150Y3522150D01*
X65862882Y3602793D01*
X65777426Y3632695D01*
X65734700Y3647646D01*
X65704270Y3650500D01*
X65704266Y3650500D01*
X65218489Y3650500D01*
X65216623Y3651000D01*
X65058377Y3651000D01*
X65056511Y3650500D01*
X64570734Y3650500D01*
X64570730Y3650500D01*
X64540300Y3647646D01*
X64540298Y3647646D01*
X64444163Y3614006D01*
X64412118Y3602793D01*
X64302850Y3522150D01*
X64286872Y3500500D01*
X64222207Y3412882D01*
X64222206Y3412880D01*
X64177353Y3284701D01*
X64177353Y3284699D01*
X64174500Y3254269D01*
X64174500Y2845730D01*
X64177353Y2815300D01*
X64177353Y2815298D01*
X64222206Y2687119D01*
X64222207Y2687117D01*
X64302850Y2577850D01*
X64412118Y2497207D01*
X64443108Y2486363D01*
X64499883Y2445641D01*
X64516713Y2416775D01*
X64561033Y2309776D01*
X64561038Y2309766D01*
X64632223Y2203231D01*
X64632226Y2203227D01*
X64722827Y2112626D01*
X64722831Y2112623D01*
X64829366Y2041438D01*
X64829375Y2041433D01*
X64947755Y1992399D01*
X64947761Y1992397D01*
X65073429Y1967400D01*
X65073431Y1967400D01*
X67753771Y1967400D01*
X67879438Y1992397D01*
X67879444Y1992399D01*
X67997825Y2041434D01*
X67997827Y2041435D01*
X68104369Y2112623D01*
X68104370Y2112624D01*
X68104373Y2112626D01*
X68104374Y2112627D01*
X68929927Y2938181D01*
X68991250Y2971666D01*
X69017608Y2974500D01*
X69418097Y2974500D01*
X69418102Y2974500D01*
X69460926Y2979642D01*
X69506561Y2985122D01*
X69647343Y3040639D01*
X69767922Y3132077D01*
X69859360Y3252656D01*
X69871461Y3283342D01*
X69914877Y3393436D01*
X69925500Y3481898D01*
X69925500Y3637667D01*
X94399500Y3637667D01*
X94399500Y3362332D01*
X94399501Y3362315D01*
X94435438Y3089344D01*
X94435441Y3089331D01*
X94506704Y2823369D01*
X94612075Y2568982D01*
X94612080Y2568971D01*
X94749754Y2330516D01*
X94917370Y2112073D01*
X94917376Y2112066D01*
X95112066Y1917376D01*
X95112073Y1917370D01*
X95330516Y1749754D01*
X95568971Y1612080D01*
X95568982Y1612075D01*
X95823369Y1506704D01*
X96033125Y1450500D01*
X96089334Y1435440D01*
X96089337Y1435439D01*
X96089344Y1435438D01*
X96362315Y1399501D01*
X96362320Y1399500D01*
X96362326Y1399500D01*
X96362333Y1399500D01*
X96637667Y1399500D01*
X96637674Y1399500D01*
X96637679Y1399500D01*
X96637684Y1399501D01*
X96910655Y1435438D01*
X96910660Y1435439D01*
X96910666Y1435440D01*
X97043649Y1471072D01*
X97176630Y1506704D01*
X97431017Y1612075D01*
X97431028Y1612080D01*
X97574407Y1694861D01*
X97669479Y1749751D01*
X97680035Y1757851D01*
X97887926Y1917370D01*
X97887933Y1917376D01*
X98082623Y2112066D01*
X98082629Y2112073D01*
X98234323Y2309766D01*
X98250249Y2330521D01*
X98357991Y2517135D01*
X98387919Y2568971D01*
X98387924Y2568982D01*
X98390828Y2575992D01*
X98493295Y2823368D01*
X98564560Y3089334D01*
X98600500Y3362326D01*
X98600500Y3637674D01*
X98564560Y3910666D01*
X98493295Y4176632D01*
X98387923Y4431021D01*
X98250249Y4669479D01*
X98082628Y4887928D01*
X97887928Y5082628D01*
X97669479Y5250249D01*
X97431021Y5387923D01*
X97176632Y5493295D01*
X96910666Y5564560D01*
X96637674Y5600500D01*
X96362326Y5600500D01*
X96089334Y5564560D01*
X95823368Y5493295D01*
X95568979Y5387923D01*
X95568976Y5387921D01*
X95568971Y5387919D01*
X95483778Y5338732D01*
X95330521Y5250249D01*
X95330516Y5250245D01*
X95112073Y5082629D01*
X95112066Y5082623D01*
X94917376Y4887933D01*
X94917370Y4887926D01*
X94752261Y4672750D01*
X94749751Y4669479D01*
X94702200Y4587119D01*
X94612080Y4431028D01*
X94612075Y4431017D01*
X94506704Y4176630D01*
X94478256Y4070458D01*
X94435440Y3910666D01*
X94435439Y3910660D01*
X94435438Y3910655D01*
X94399501Y3637684D01*
X94399500Y3637667D01*
X69925500Y3637667D01*
X69925500Y3916692D01*
X69945185Y3983731D01*
X69961819Y4004373D01*
X70405273Y4447827D01*
X70405276Y4447831D01*
X70476461Y4554366D01*
X70476468Y4554379D01*
X70500983Y4613564D01*
X70525501Y4672756D01*
X70528806Y4689373D01*
X70550500Y4798431D01*
X70550500Y7559881D01*
X70570185Y7626920D01*
X70581056Y7641393D01*
X70589429Y7650992D01*
X70630422Y7682078D01*
X70721861Y7802658D01*
X70721969Y7802932D01*
X70725528Y7807012D01*
X70751541Y7823608D01*
X70776361Y7841949D01*
X70781798Y7842912D01*
X70784431Y7844592D01*
X70791150Y7844569D01*
X70818972Y7849500D01*
X74518055Y7849500D01*
X74585094Y7829815D01*
X74630849Y7777011D01*
X74633410Y7770990D01*
X74640639Y7752656D01*
X74732077Y7632077D01*
X74852656Y7540639D01*
X74993438Y7485122D01*
X75042853Y7479188D01*
X75081898Y7474500D01*
X75387992Y7474500D01*
X75455031Y7454815D01*
X75475673Y7438181D01*
X76380325Y6533527D01*
X76380332Y6533521D01*
X76486863Y6462340D01*
X76486877Y6462332D01*
X76515932Y6450298D01*
X76515931Y6450297D01*
X76605251Y6413300D01*
X76605261Y6413297D01*
X76730929Y6388300D01*
X76730931Y6388300D01*
X79841371Y6388300D01*
X79967038Y6413297D01*
X79967044Y6413299D01*
X80085425Y6462334D01*
X80085427Y6462335D01*
X80191969Y6533523D01*
X80191973Y6533526D01*
X80367773Y6709326D01*
X80367775Y6709329D01*
X80367777Y6709331D01*
X80438965Y6815873D01*
X80480331Y6915741D01*
X80524171Y6970144D01*
X80553929Y6985326D01*
X80587882Y6997207D01*
X80697150Y7077850D01*
X80777793Y7187118D01*
X80789006Y7219163D01*
X80822646Y7315298D01*
X80822646Y7315300D01*
X80825500Y7345730D01*
X80825500Y7754269D01*
X80822646Y7784699D01*
X80822646Y7784701D01*
X80779120Y7909089D01*
X80777793Y7912882D01*
X80697150Y8022150D01*
X80587882Y8102793D01*
X80470705Y8143795D01*
X80459700Y8147646D01*
X80429270Y8150500D01*
X80429266Y8150500D01*
X79943489Y8150500D01*
X79941623Y8151000D01*
X79783377Y8151000D01*
X79781511Y8150500D01*
X79295734Y8150500D01*
X79295730Y8150500D01*
X79265300Y8147646D01*
X79265298Y8147646D01*
X79180854Y8118097D01*
X79137118Y8102793D01*
X79027850Y8022150D01*
X78969758Y7943438D01*
X78947207Y7912882D01*
X78947206Y7912880D01*
X78899861Y7777577D01*
X78898092Y7778195D01*
X78869281Y7725541D01*
X78807928Y7692111D01*
X78781677Y7689300D01*
X77115808Y7689300D01*
X77048769Y7708985D01*
X77028127Y7725619D01*
X76386819Y8366927D01*
X76353334Y8428250D01*
X76350500Y8454608D01*
X76350500Y9018096D01*
X76350500Y9018102D01*
X76339877Y9106564D01*
X76284361Y9247342D01*
X76192922Y9367922D01*
X76162074Y9391314D01*
X76120552Y9447504D01*
X76113000Y9490117D01*
X76113000Y15834192D01*
X76132685Y15901231D01*
X76149319Y15921873D01*
X77869805Y17642359D01*
X77931128Y17675844D01*
X77995803Y17672609D01*
X78068628Y17648947D01*
X78301903Y17612000D01*
X78301908Y17612000D01*
X78538097Y17612000D01*
X78771368Y17648946D01*
X78995999Y17721934D01*
X79081206Y17765349D01*
X79149876Y17778245D01*
X79214616Y17751968D01*
X79254872Y17694861D01*
X79261500Y17654864D01*
X79261500Y10134298D01*
X79241815Y10067259D01*
X79189011Y10021504D01*
X79178452Y10017256D01*
X79137118Y10002793D01*
X79027850Y9922150D01*
X78947207Y9812882D01*
X78947206Y9812880D01*
X78902353Y9684701D01*
X78902353Y9684699D01*
X78899500Y9654269D01*
X78899500Y9245730D01*
X78902353Y9215300D01*
X78902353Y9215298D01*
X78947206Y9087119D01*
X78947207Y9087117D01*
X79027850Y8977850D01*
X79137117Y8897207D01*
X79137119Y8897206D01*
X79265299Y8852353D01*
X79295730Y8849500D01*
X79295734Y8849500D01*
X79781511Y8849500D01*
X79783377Y8849000D01*
X79941623Y8849000D01*
X79943489Y8849500D01*
X80429266Y8849500D01*
X80429270Y8849500D01*
X80459699Y8852353D01*
X80459701Y8852353D01*
X80587880Y8897206D01*
X80587882Y8897207D01*
X80697150Y8977850D01*
X80777793Y9087118D01*
X80797878Y9144517D01*
X80822646Y9215298D01*
X80822646Y9215300D01*
X80825500Y9245730D01*
X80825500Y9654269D01*
X80822646Y9684699D01*
X80822646Y9684701D01*
X80778652Y9810426D01*
X80777793Y9812882D01*
X80697150Y9922150D01*
X80587882Y10002793D01*
X80546547Y10017256D01*
X80489771Y10057976D01*
X80464022Y10122928D01*
X80463500Y10134298D01*
X80463500Y17752641D01*
X80466219Y17778467D01*
X80468586Y17789587D01*
X80488001Y17836457D01*
X80512999Y17962131D01*
X80512999Y17998149D01*
X80515718Y18010918D01*
X80526371Y18030633D01*
X80532684Y18052131D01*
X80542657Y18060773D01*
X80548934Y18072388D01*
X80568556Y18083214D01*
X80585488Y18097886D01*
X80598551Y18099764D01*
X80610109Y18106141D01*
X80632465Y18104640D01*
X80654646Y18107830D01*
X80666652Y18102346D01*
X80679822Y18101463D01*
X80697818Y18088113D01*
X80718202Y18078805D01*
X80724680Y18072773D01*
X82017259Y16780193D01*
X82050744Y16718870D01*
X82047509Y16654194D01*
X82023847Y16581372D01*
X82023847Y16581369D01*
X81986900Y16348097D01*
X81986900Y16111902D01*
X82023846Y15878631D01*
X82096833Y15654003D01*
X82204057Y15443566D01*
X82281900Y15336426D01*
X82342883Y15252490D01*
X82342885Y15252488D01*
X82342885Y15252487D01*
X82509887Y15085485D01*
X82700966Y14946657D01*
X82911403Y14839433D01*
X83136031Y14766446D01*
X83369303Y14729500D01*
X83369308Y14729500D01*
X83605497Y14729500D01*
X83838768Y14766446D01*
X84063396Y14839433D01*
X84273833Y14946657D01*
X84328885Y14986655D01*
X84464910Y15085483D01*
X84631917Y15252490D01*
X84770743Y15443567D01*
X84866909Y15632303D01*
X84877966Y15654003D01*
X84950953Y15878631D01*
X84987900Y16111902D01*
X84987900Y16348097D01*
X84950953Y16581368D01*
X84927290Y16654194D01*
X84877968Y16805992D01*
X84770743Y17016433D01*
X84631917Y17207510D01*
X84464910Y17374517D01*
X84273833Y17513343D01*
X84063392Y17620568D01*
X83838768Y17693553D01*
X83822744Y17696091D01*
X83605497Y17730500D01*
X83605492Y17730500D01*
X83369308Y17730500D01*
X83369303Y17730500D01*
X83252670Y17712026D01*
X83136032Y17693553D01*
X83063202Y17669888D01*
X82993363Y17667894D01*
X82937207Y17700137D01*
X81618217Y19019128D01*
X81584734Y19080449D01*
X81581900Y19106807D01*
X81581900Y27882407D01*
X81601585Y27949446D01*
X81649604Y27992891D01*
X81717830Y28027655D01*
X81743417Y28046245D01*
X81908910Y28166483D01*
X82075917Y28333490D01*
X82214743Y28524567D01*
X82301517Y28694870D01*
X82321966Y28735003D01*
X82321968Y28735008D01*
X82394953Y28959632D01*
X82414268Y29081583D01*
X82415146Y29087126D01*
X82445075Y29150260D01*
X82504386Y29187192D01*
X82574249Y29186194D01*
X82587704Y29181163D01*
X82610007Y29171315D01*
X82635131Y29168400D01*
X82635135Y29168400D01*
X83105500Y29168400D01*
X83172539Y29148715D01*
X83218294Y29095911D01*
X83229500Y29044400D01*
X83229500Y23748428D01*
X83247126Y23659821D01*
X83247126Y23659820D01*
X83254497Y23622762D01*
X83254498Y23622757D01*
X83303534Y23504374D01*
X83374726Y23397826D01*
X87109859Y19662693D01*
X87143344Y19601370D01*
X87140109Y19536694D01*
X87116447Y19463872D01*
X87116447Y19463869D01*
X87079500Y19230597D01*
X87079500Y18994402D01*
X87116446Y18761131D01*
X87189433Y18536503D01*
X87296657Y18326066D01*
X87363355Y18234265D01*
X87435483Y18134990D01*
X87435485Y18134988D01*
X87435485Y18134987D01*
X87602487Y17967985D01*
X87793566Y17829157D01*
X88004003Y17721933D01*
X88228631Y17648946D01*
X88461903Y17612000D01*
X88461908Y17612000D01*
X88698097Y17612000D01*
X88931368Y17648946D01*
X89155996Y17721933D01*
X89366433Y17829157D01*
X89557510Y17967983D01*
X89614119Y18024592D01*
X89675442Y18058077D01*
X89745134Y18053093D01*
X89801067Y18011221D01*
X89825484Y17945757D01*
X89825800Y17936911D01*
X89825800Y13661808D01*
X89806115Y13594769D01*
X89789481Y13574127D01*
X84602173Y8386819D01*
X84540850Y8353334D01*
X84514492Y8350500D01*
X83981898Y8350500D01*
X83893436Y8339877D01*
X83752658Y8284361D01*
X83675295Y8225695D01*
X83609986Y8200873D01*
X83600372Y8200500D01*
X82073429Y8200500D01*
X81947761Y8175502D01*
X81947756Y8175501D01*
X81947751Y8175499D01*
X81910185Y8159939D01*
X81862733Y8150500D01*
X81570730Y8150500D01*
X81540300Y8147646D01*
X81540298Y8147646D01*
X81455854Y8118097D01*
X81412118Y8102793D01*
X81302850Y8022150D01*
X81244758Y7943438D01*
X81222207Y7912882D01*
X81222206Y7912880D01*
X81177353Y7784701D01*
X81177353Y7784699D01*
X81174500Y7754269D01*
X81174500Y7345730D01*
X81177353Y7315300D01*
X81177353Y7315298D01*
X81222206Y7187119D01*
X81222207Y7187117D01*
X81302850Y7077850D01*
X81412117Y6997207D01*
X81412119Y6997206D01*
X81540299Y6952353D01*
X81570730Y6949500D01*
X81570734Y6949500D01*
X81862733Y6949500D01*
X81910185Y6940061D01*
X81947751Y6924500D01*
X81947761Y6924497D01*
X82073429Y6899500D01*
X82073431Y6899500D01*
X83443528Y6899500D01*
X83510567Y6879815D01*
X83542332Y6850425D01*
X83632077Y6732077D01*
X83752656Y6640639D01*
X83893438Y6585122D01*
X83942853Y6579188D01*
X83981898Y6574500D01*
X83981903Y6574500D01*
X85018097Y6574500D01*
X85018102Y6574500D01*
X85060926Y6579642D01*
X85106561Y6585122D01*
X85247343Y6640639D01*
X85367922Y6732077D01*
X85459360Y6852656D01*
X85459361Y6852658D01*
X85514877Y6993436D01*
X85525500Y7081898D01*
X85525500Y7418891D01*
X85545185Y7485930D01*
X85561819Y7506572D01*
X90981571Y12926324D01*
X90981577Y12926331D01*
X91052764Y13032870D01*
X91084477Y13109433D01*
X91101801Y13151256D01*
X91101802Y13151261D01*
X91126800Y13276928D01*
X91126800Y24250300D01*
X91146485Y24317339D01*
X91199289Y24363094D01*
X91250800Y24374300D01*
X96532571Y24374300D01*
X96658238Y24399297D01*
X96658244Y24399299D01*
X96776625Y24448334D01*
X96776627Y24448335D01*
X96883169Y24519523D01*
X96883173Y24519526D01*
X98934073Y26570426D01*
X98934075Y26570429D01*
X98934077Y26570431D01*
X99005265Y26676973D01*
X99005267Y26676976D01*
X99045370Y26773795D01*
X99054301Y26795356D01*
X99059256Y26820268D01*
X99079300Y26921031D01*
X99079300Y40915269D01*
X99078870Y40917430D01*
X99054302Y41040938D01*
X99054301Y41040944D01*
X99005265Y41159327D01*
X98993254Y41177302D01*
X98984942Y41189743D01*
X98984940Y41189745D01*
X98934077Y41265869D01*
X98086819Y42113127D01*
X98053334Y42174450D01*
X98050500Y42200808D01*
X98050500Y59724071D01*
X98031762Y59818268D01*
X98025501Y59849744D01*
X97976465Y59968127D01*
X97905276Y60074669D01*
X97814669Y60165276D01*
X97708127Y60236465D01*
X97589744Y60285501D01*
X97535918Y60296208D01*
X97464071Y60310500D01*
X97464069Y60310500D01*
X96886268Y60310500D01*
X96819229Y60330185D01*
X96785950Y60361615D01*
X96766834Y60387926D01*
X96703828Y60474646D01*
X96564646Y60613828D01*
X96405405Y60729524D01*
X96230025Y60818884D01*
X96042826Y60879709D01*
X95848422Y60910500D01*
X95848417Y60910500D01*
X94551583Y60910500D01*
X94551578Y60910500D01*
X94357173Y60879709D01*
X94288714Y60857465D01*
X94169975Y60818884D01*
X94169972Y60818882D01*
X94169970Y60818882D01*
X94127015Y60796995D01*
X93994595Y60729524D01*
X93835354Y60613828D01*
X93696172Y60474646D01*
X93611442Y60358026D01*
X93580476Y60315405D01*
X93491117Y60140029D01*
X93430290Y59952826D01*
X93399500Y59758422D01*
X93399500Y59561577D01*
X93430290Y59367173D01*
X93491117Y59179970D01*
X93580476Y59004594D01*
X93646485Y58913741D01*
X93696172Y58845354D01*
X93696174Y58845352D01*
X93696174Y58845351D01*
X93835351Y58706174D01*
X93994594Y58590476D01*
X94169970Y58501117D01*
X94357173Y58440291D01*
X94357172Y58440291D01*
X94551578Y58409500D01*
X94551583Y58409500D01*
X95848422Y58409500D01*
X96042827Y58440291D01*
X96230029Y58501117D01*
X96405405Y58590476D01*
X96552614Y58697430D01*
X96618421Y58720910D01*
X96686475Y58705085D01*
X96735170Y58654979D01*
X96749500Y58597112D01*
X96749500Y55642887D01*
X96729815Y55575848D01*
X96677011Y55530093D01*
X96607853Y55520149D01*
X96552616Y55542567D01*
X96405405Y55649524D01*
X96230025Y55738884D01*
X96042826Y55799709D01*
X96028191Y55802027D01*
X95848422Y55830500D01*
X95848417Y55830500D01*
X94551583Y55830500D01*
X94551578Y55830500D01*
X94357173Y55799709D01*
X94280528Y55774805D01*
X94169975Y55738884D01*
X94169972Y55738882D01*
X94169970Y55738882D01*
X94077455Y55691743D01*
X93994595Y55649524D01*
X93835354Y55533828D01*
X93696172Y55394646D01*
X93611507Y55278115D01*
X93580476Y55235405D01*
X93491117Y55060029D01*
X93430290Y54872826D01*
X93399500Y54678422D01*
X93399500Y54481577D01*
X93430290Y54287173D01*
X93491117Y54099970D01*
X93580476Y53924594D01*
X93620244Y53869859D01*
X93696172Y53765354D01*
X93696174Y53765352D01*
X93696174Y53765351D01*
X93835351Y53626174D01*
X93994594Y53510476D01*
X94171213Y53420485D01*
X94222009Y53372511D01*
X94238804Y53304690D01*
X94216267Y53238555D01*
X94171213Y53199515D01*
X94169975Y53198884D01*
X93994595Y53109524D01*
X93835354Y52993828D01*
X93696172Y52854646D01*
X93605714Y52730142D01*
X93580476Y52695405D01*
X93491117Y52520029D01*
X93430290Y52332826D01*
X93399500Y52138422D01*
X93399500Y51941577D01*
X93430290Y51747173D01*
X93491117Y51559970D01*
X93580476Y51384594D01*
X93636367Y51307668D01*
X93696172Y51225354D01*
X93696174Y51225352D01*
X93696174Y51225351D01*
X93835351Y51086174D01*
X93994594Y50970476D01*
X94171213Y50880485D01*
X94222009Y50832511D01*
X94238804Y50764690D01*
X94216267Y50698555D01*
X94171213Y50659515D01*
X94169975Y50658884D01*
X93994595Y50569524D01*
X93835354Y50453828D01*
X93696172Y50314646D01*
X93590983Y50169867D01*
X93580476Y50155405D01*
X93491117Y49980029D01*
X93430290Y49792826D01*
X93399500Y49598422D01*
X93399500Y49401577D01*
X93430290Y49207173D01*
X93491117Y49019970D01*
X93580476Y48844594D01*
X93605042Y48810783D01*
X93696172Y48685354D01*
X93696174Y48685352D01*
X93696174Y48685351D01*
X93835351Y48546174D01*
X93994594Y48430476D01*
X94171213Y48340485D01*
X94222009Y48292511D01*
X94238804Y48224690D01*
X94216267Y48158555D01*
X94171213Y48119515D01*
X94169975Y48118884D01*
X93994595Y48029524D01*
X93835354Y47913828D01*
X93696172Y47774646D01*
X93601627Y47644517D01*
X93580476Y47615405D01*
X93491117Y47440029D01*
X93430290Y47252826D01*
X93399500Y47058422D01*
X93399500Y46861577D01*
X93430290Y46667173D01*
X93491117Y46479970D01*
X93580476Y46304594D01*
X93622923Y46246172D01*
X93696172Y46145354D01*
X93696174Y46145352D01*
X93696174Y46145351D01*
X93835351Y46006174D01*
X93994594Y45890476D01*
X94171213Y45800485D01*
X94222009Y45752511D01*
X94238804Y45684690D01*
X94216267Y45618555D01*
X94171213Y45579515D01*
X94169975Y45578884D01*
X93994595Y45489524D01*
X93835354Y45373828D01*
X93696172Y45234646D01*
X93605546Y45109911D01*
X93580476Y45075405D01*
X93491117Y44900029D01*
X93430290Y44712826D01*
X93399500Y44518422D01*
X93399500Y44321576D01*
X93399499Y44321576D01*
X93414404Y44227472D01*
X93405449Y44158179D01*
X93360452Y44104727D01*
X93293701Y44084088D01*
X93226387Y44102813D01*
X93204255Y44120389D01*
X89884369Y47440277D01*
X89777827Y47511465D01*
X89659444Y47560501D01*
X89582493Y47575808D01*
X89533771Y47585500D01*
X89533769Y47585500D01*
X87927108Y47585500D01*
X87860069Y47605185D01*
X87839427Y47621819D01*
X84184638Y51276608D01*
X80513425Y54947819D01*
X80479941Y55009142D01*
X80484925Y55078834D01*
X80526797Y55134767D01*
X80592261Y55159184D01*
X80601107Y55159500D01*
X80618097Y55159500D01*
X80851368Y55196446D01*
X81075996Y55269433D01*
X81286433Y55376657D01*
X81293660Y55381908D01*
X81477510Y55515483D01*
X81644517Y55682490D01*
X81783343Y55873567D01*
X81845961Y55996462D01*
X81890566Y56084003D01*
X81963553Y56308631D01*
X82000500Y56541902D01*
X82000500Y56778097D01*
X81963553Y57011368D01*
X81930831Y57112075D01*
X81890568Y57235992D01*
X81783343Y57446433D01*
X81644517Y57637510D01*
X81477510Y57804517D01*
X81286433Y57943343D01*
X81075992Y58050568D01*
X80851368Y58123553D01*
X80832490Y58126543D01*
X80618097Y58160500D01*
X80618092Y58160500D01*
X80381908Y58160500D01*
X80381903Y58160500D01*
X80148631Y58123553D01*
X80044412Y58089689D01*
X79924008Y58050568D01*
X79924005Y58050566D01*
X79924003Y58050566D01*
X79812991Y57994002D01*
X79713567Y57943343D01*
X79522490Y57804517D01*
X79355483Y57637510D01*
X79242745Y57482340D01*
X79216657Y57446433D01*
X79109433Y57235996D01*
X79036446Y57011368D01*
X78999500Y56778097D01*
X78999500Y56761107D01*
X78979815Y56694068D01*
X78927011Y56648313D01*
X78857853Y56638369D01*
X78794297Y56667394D01*
X78787819Y56673426D01*
X77258580Y58202665D01*
X76323578Y59137667D01*
X85899500Y59137667D01*
X85899500Y58862332D01*
X85899501Y58862315D01*
X85935438Y58589344D01*
X85935441Y58589331D01*
X86006704Y58323369D01*
X86112075Y58068982D01*
X86112080Y58068971D01*
X86249754Y57830516D01*
X86417370Y57612073D01*
X86417376Y57612066D01*
X86612066Y57417376D01*
X86612073Y57417370D01*
X86830516Y57249754D01*
X87068971Y57112080D01*
X87068982Y57112075D01*
X87323369Y57006704D01*
X87531938Y56950819D01*
X87589334Y56935440D01*
X87589337Y56935439D01*
X87589344Y56935438D01*
X87862315Y56899501D01*
X87862320Y56899500D01*
X87862326Y56899500D01*
X87862333Y56899500D01*
X88137667Y56899500D01*
X88137674Y56899500D01*
X88137679Y56899500D01*
X88137684Y56899501D01*
X88410655Y56935438D01*
X88410660Y56935439D01*
X88410666Y56935440D01*
X88543649Y56971072D01*
X88676630Y57006704D01*
X88931017Y57112075D01*
X88931028Y57112080D01*
X89074407Y57194861D01*
X89169479Y57249751D01*
X89192469Y57267392D01*
X89387926Y57417370D01*
X89387933Y57417376D01*
X89582623Y57612066D01*
X89582629Y57612073D01*
X89716452Y57786476D01*
X89750249Y57830521D01*
X89868686Y58035659D01*
X89887919Y58068971D01*
X89887924Y58068982D01*
X89993295Y58323368D01*
X90064560Y58589334D01*
X90100500Y58862326D01*
X90100500Y59137674D01*
X90064560Y59410666D01*
X89993295Y59676632D01*
X89887923Y59931021D01*
X89750249Y60169479D01*
X89582628Y60387928D01*
X89387928Y60582628D01*
X89169479Y60750249D01*
X88931021Y60887923D01*
X88676632Y60993295D01*
X88410666Y61064560D01*
X88137674Y61100500D01*
X87862326Y61100500D01*
X87589334Y61064560D01*
X87323368Y60993295D01*
X87068979Y60887923D01*
X87068976Y60887921D01*
X87068971Y60887919D01*
X86983778Y60838732D01*
X86830521Y60750249D01*
X86805563Y60731098D01*
X86612073Y60582629D01*
X86612066Y60582623D01*
X86417376Y60387933D01*
X86417370Y60387926D01*
X86255231Y60176621D01*
X86249751Y60169479D01*
X86195293Y60075155D01*
X86112080Y59931028D01*
X86112075Y59931017D01*
X86006704Y59676630D01*
X85982150Y59584992D01*
X85935440Y59410666D01*
X85935439Y59410660D01*
X85935438Y59410655D01*
X85899501Y59137684D01*
X85899500Y59137667D01*
X76323578Y59137667D01*
X75538017Y59923228D01*
X75504534Y59984549D01*
X75501700Y60010907D01*
X75501700Y61426171D01*
X75476702Y61551838D01*
X75476701Y61551844D01*
X75427665Y61670227D01*
X75426437Y61672065D01*
X75356476Y61776770D01*
X72219169Y64914077D01*
X72112627Y64985265D01*
X71994244Y65034301D01*
X71953115Y65042482D01*
X71868571Y65059300D01*
X71868569Y65059300D01*
X69976286Y65059300D01*
X69909247Y65078985D01*
X69863492Y65131789D01*
X69853548Y65200947D01*
X69882573Y65264503D01*
X69903400Y65283618D01*
X69923729Y65298388D01*
X70027278Y65373621D01*
X70188720Y65535063D01*
X70322920Y65719772D01*
X70375705Y65823369D01*
X70426570Y65923196D01*
X70435852Y65951761D01*
X70497125Y66140340D01*
X70497183Y66140708D01*
X70532841Y66365837D01*
X70532841Y66594162D01*
X81631841Y66594162D01*
X81631841Y66365837D01*
X81667556Y66140339D01*
X81738111Y65923196D01*
X81841762Y65719771D01*
X81975963Y65535061D01*
X82137402Y65373622D01*
X82322112Y65239421D01*
X82525537Y65135770D01*
X82742680Y65065215D01*
X82968179Y65029500D01*
X82968184Y65029500D01*
X83196503Y65029500D01*
X83422001Y65065215D01*
X83639144Y65135770D01*
X83842569Y65239421D01*
X83900192Y65281287D01*
X84027278Y65373621D01*
X84188720Y65535063D01*
X84322920Y65719772D01*
X84375705Y65823369D01*
X84426570Y65923196D01*
X84435852Y65951761D01*
X84497125Y66140340D01*
X84497183Y66140708D01*
X84532841Y66365837D01*
X84532841Y66594162D01*
X84497125Y66819660D01*
X84467555Y66910666D01*
X84426572Y67036799D01*
X84322920Y67240228D01*
X84188720Y67424937D01*
X84027278Y67586379D01*
X83842569Y67720579D01*
X83639140Y67824231D01*
X83422001Y67894784D01*
X83196503Y67930500D01*
X83196498Y67930500D01*
X82968184Y67930500D01*
X82968179Y67930500D01*
X82742680Y67894784D01*
X82721580Y67887928D01*
X82525542Y67824231D01*
X82525539Y67824229D01*
X82525537Y67824229D01*
X82418225Y67769550D01*
X82322113Y67720579D01*
X82137404Y67586379D01*
X82137402Y67586377D01*
X81975963Y67424938D01*
X81841762Y67240228D01*
X81738111Y67036803D01*
X81667556Y66819660D01*
X81631841Y66594162D01*
X70532841Y66594162D01*
X70497125Y66819660D01*
X70467555Y66910666D01*
X70426572Y67036799D01*
X70322920Y67240228D01*
X70188720Y67424937D01*
X70027278Y67586379D01*
X69842569Y67720579D01*
X69639140Y67824231D01*
X69422001Y67894784D01*
X69196503Y67930500D01*
X69196498Y67930500D01*
X68968184Y67930500D01*
X68968179Y67930500D01*
X68742680Y67894784D01*
X68721580Y67887928D01*
X68525542Y67824231D01*
X68525539Y67824229D01*
X68525537Y67824229D01*
X68418225Y67769550D01*
X68322113Y67720579D01*
X68137404Y67586379D01*
X68137402Y67586377D01*
X67975963Y67424938D01*
X67841762Y67240228D01*
X67738111Y67036803D01*
X67667556Y66819660D01*
X67631841Y66594162D01*
X67631841Y66365837D01*
X67667556Y66140339D01*
X67738111Y65923196D01*
X67841762Y65719771D01*
X67975963Y65535061D01*
X68137401Y65373623D01*
X68137404Y65373621D01*
X68196732Y65330516D01*
X68261282Y65283618D01*
X68303947Y65228288D01*
X68309926Y65158674D01*
X68277320Y65096879D01*
X68216481Y65062522D01*
X68188396Y65059300D01*
X50221889Y65059300D01*
X50154850Y65078985D01*
X50109095Y65131789D01*
X50099151Y65200947D01*
X50128176Y65264503D01*
X50134208Y65270981D01*
X50144514Y65281287D01*
X50144517Y65281290D01*
X50283343Y65472367D01*
X50334002Y65571791D01*
X50390566Y65682803D01*
X50463553Y65907431D01*
X50500500Y66140702D01*
X50500500Y66376897D01*
X50463553Y66610168D01*
X50450186Y66651308D01*
X50390568Y66834792D01*
X50283343Y67045233D01*
X50144517Y67236310D01*
X49977510Y67403317D01*
X49786433Y67542143D01*
X49575992Y67649368D01*
X49351368Y67722353D01*
X49118097Y67759300D01*
X49118092Y67759300D01*
X48881908Y67759300D01*
X48881903Y67759300D01*
X48648631Y67722353D01*
X48544412Y67688489D01*
X48424008Y67649368D01*
X48424005Y67649366D01*
X48424003Y67649366D01*
X48312991Y67592802D01*
X48213567Y67542143D01*
X48022490Y67403317D01*
X47855483Y67236310D01*
X47716657Y67045233D01*
X47609430Y66834789D01*
X47577391Y66736182D01*
X47537954Y66678506D01*
X47473595Y66651308D01*
X47459460Y66650500D01*
X43485929Y66650500D01*
X43360261Y66625502D01*
X43360256Y66625501D01*
X43284597Y66594162D01*
X43241870Y66576464D01*
X43135331Y66505277D01*
X43135324Y66505271D01*
X41394726Y64764673D01*
X41394723Y64764669D01*
X41366191Y64721966D01*
X41323534Y64658125D01*
X41274499Y64539744D01*
X41274497Y64539738D01*
X41249500Y64414071D01*
X41249500Y63836268D01*
X41229815Y63769229D01*
X41198385Y63735950D01*
X41085354Y63653828D01*
X40946172Y63514646D01*
X40865234Y63403246D01*
X40830474Y63355403D01*
X40740485Y63178787D01*
X40692511Y63127990D01*
X40624690Y63111195D01*
X40558555Y63133732D01*
X40519515Y63178787D01*
X40429525Y63355403D01*
X40429524Y63355405D01*
X40313828Y63514646D01*
X40174646Y63653828D01*
X40015405Y63769524D01*
X39840025Y63858884D01*
X39652826Y63919709D01*
X39458422Y63950500D01*
X39458417Y63950500D01*
X39261583Y63950500D01*
X39261578Y63950500D01*
X39067173Y63919709D01*
X38980317Y63891487D01*
X38879975Y63858884D01*
X38879972Y63858882D01*
X38879970Y63858882D01*
X38835588Y63836268D01*
X38704595Y63769524D01*
X38545354Y63653828D01*
X38406172Y63514646D01*
X38325234Y63403246D01*
X38290474Y63355403D01*
X38200485Y63178787D01*
X38152511Y63127990D01*
X38084690Y63111195D01*
X38018555Y63133732D01*
X37979515Y63178787D01*
X37889525Y63355403D01*
X37889524Y63355405D01*
X37773828Y63514646D01*
X37634646Y63653828D01*
X37475405Y63769524D01*
X37300025Y63858884D01*
X37112826Y63919709D01*
X36918422Y63950500D01*
X36918417Y63950500D01*
X36721583Y63950500D01*
X36721578Y63950500D01*
X36527173Y63919709D01*
X36440317Y63891487D01*
X36339975Y63858884D01*
X36339972Y63858882D01*
X36339970Y63858882D01*
X36295588Y63836268D01*
X36164595Y63769524D01*
X36005354Y63653828D01*
X35866172Y63514646D01*
X35785234Y63403246D01*
X35750474Y63355403D01*
X35660485Y63178787D01*
X35612511Y63127990D01*
X35544690Y63111195D01*
X35478555Y63133732D01*
X35439515Y63178787D01*
X35349525Y63355403D01*
X35349524Y63355405D01*
X35233828Y63514646D01*
X35094646Y63653828D01*
X34935405Y63769524D01*
X34760025Y63858884D01*
X34572826Y63919709D01*
X34378422Y63950500D01*
X34378417Y63950500D01*
X34181583Y63950500D01*
X34181578Y63950500D01*
X33987173Y63919709D01*
X33900317Y63891487D01*
X33799975Y63858884D01*
X33799972Y63858882D01*
X33799970Y63858882D01*
X33755588Y63836268D01*
X33624595Y63769524D01*
X33465354Y63653828D01*
X33326172Y63514646D01*
X33245234Y63403246D01*
X33210474Y63355403D01*
X33120485Y63178787D01*
X33072511Y63127990D01*
X33004690Y63111195D01*
X32938555Y63133732D01*
X32899515Y63178787D01*
X32809525Y63355403D01*
X32809524Y63355405D01*
X32693828Y63514646D01*
X32554646Y63653828D01*
X32395405Y63769524D01*
X32220025Y63858884D01*
X32032826Y63919709D01*
X31838422Y63950500D01*
X31838417Y63950500D01*
X31641583Y63950500D01*
X31641578Y63950500D01*
X31447173Y63919709D01*
X31360317Y63891487D01*
X31259975Y63858884D01*
X31259972Y63858882D01*
X31259970Y63858882D01*
X31215588Y63836268D01*
X31084595Y63769524D01*
X30925354Y63653828D01*
X30786172Y63514646D01*
X30705234Y63403246D01*
X30670474Y63355403D01*
X30580485Y63178787D01*
X30532511Y63127990D01*
X30464690Y63111195D01*
X30398555Y63133732D01*
X30359515Y63178787D01*
X30269525Y63355403D01*
X30269524Y63355405D01*
X30153828Y63514646D01*
X30014646Y63653828D01*
X29855405Y63769524D01*
X29680025Y63858884D01*
X29492826Y63919709D01*
X29298422Y63950500D01*
X29298417Y63950500D01*
X29101583Y63950500D01*
X29101578Y63950500D01*
X28907173Y63919709D01*
X28820317Y63891487D01*
X28719975Y63858884D01*
X28719972Y63858882D01*
X28719970Y63858882D01*
X28675588Y63836268D01*
X28544595Y63769524D01*
X28385354Y63653828D01*
X28246172Y63514646D01*
X28165234Y63403246D01*
X28130474Y63355403D01*
X28040485Y63178787D01*
X27992511Y63127990D01*
X27924690Y63111195D01*
X27858555Y63133732D01*
X27819515Y63178787D01*
X27729525Y63355403D01*
X27729524Y63355405D01*
X27613828Y63514646D01*
X27474646Y63653828D01*
X27361614Y63735950D01*
X27318949Y63791280D01*
X27310500Y63836268D01*
X27310500Y64414071D01*
X27290797Y64513119D01*
X27285501Y64539744D01*
X27236465Y64658127D01*
X27165276Y64764669D01*
X27074669Y64855276D01*
X27074668Y64855277D01*
X26049369Y65880577D01*
X25942827Y65951765D01*
X25824444Y66000801D01*
X25783315Y66008982D01*
X25698771Y66025800D01*
X25698769Y66025800D01*
X6983731Y66025800D01*
X6983729Y66025800D01*
X6858061Y66000802D01*
X6858056Y66000801D01*
X6766492Y65962874D01*
X6739675Y65951766D01*
X6739666Y65951761D01*
X6633131Y65880576D01*
X6633127Y65880573D01*
X1494727Y60742174D01*
X1494724Y60742171D01*
X1455649Y60683691D01*
X1455650Y60683691D01*
X1439108Y60658933D01*
X1423534Y60635625D01*
X1374499Y60517244D01*
X1374497Y60517238D01*
X1349500Y60391571D01*
X1349500Y59186944D01*
X1348903Y59174792D01*
X1348500Y59170699D01*
X1348500Y55929472D01*
X1347903Y55917320D01*
X1347500Y55913227D01*
X1347500Y47174108D01*
X1345416Y47152958D01*
X1345330Y47151012D01*
X1345229Y47150480D01*
X1322800Y47037725D01*
X500Y47037725D01*
X500Y66637667D01*
X399500Y66637667D01*
X399500Y66362332D01*
X399501Y66362315D01*
X435438Y66089344D01*
X435441Y66089331D01*
X506704Y65823369D01*
X612075Y65568982D01*
X612080Y65568971D01*
X749754Y65330516D01*
X917370Y65112073D01*
X917376Y65112066D01*
X1112066Y64917376D01*
X1112073Y64917370D01*
X1330516Y64749754D01*
X1568971Y64612080D01*
X1568982Y64612075D01*
X1823369Y64506704D01*
X2033125Y64450500D01*
X2089334Y64435440D01*
X2089337Y64435439D01*
X2089344Y64435438D01*
X2362315Y64399501D01*
X2362320Y64399500D01*
X2362326Y64399500D01*
X2362333Y64399500D01*
X2637667Y64399500D01*
X2637674Y64399500D01*
X2637679Y64399500D01*
X2637684Y64399501D01*
X2910655Y64435438D01*
X2910660Y64435439D01*
X2910666Y64435440D01*
X3043649Y64471072D01*
X3176630Y64506704D01*
X3431017Y64612075D01*
X3431028Y64612080D01*
X3592167Y64705115D01*
X3669479Y64749751D01*
X3688926Y64764673D01*
X3887926Y64917370D01*
X3887933Y64917376D01*
X4082623Y65112066D01*
X4082629Y65112073D01*
X4214259Y65283618D01*
X4250249Y65330521D01*
X4338732Y65483778D01*
X4387919Y65568971D01*
X4387924Y65568982D01*
X4493295Y65823368D01*
X4564560Y66089334D01*
X4600500Y66362326D01*
X4600500Y66637674D01*
X4564560Y66910666D01*
X4493295Y67176632D01*
X4387923Y67431021D01*
X4250249Y67669479D01*
X4082628Y67887928D01*
X3887928Y68082628D01*
X3669479Y68250249D01*
X3431021Y68387923D01*
X3176632Y68493295D01*
X2910666Y68564560D01*
X2637674Y68600500D01*
X2362326Y68600500D01*
X2089334Y68564560D01*
X1823368Y68493295D01*
X1568979Y68387923D01*
X1568976Y68387921D01*
X1568971Y68387919D01*
X1483778Y68338732D01*
X1330521Y68250249D01*
X1330516Y68250245D01*
X1112073Y68082629D01*
X1112066Y68082623D01*
X917376Y67887933D01*
X917370Y67887926D01*
X868494Y67824229D01*
X749751Y67669479D01*
X738140Y67649368D01*
X612080Y67431028D01*
X612075Y67431017D01*
X506705Y67176632D01*
X435440Y66910666D01*
X435439Y66910660D01*
X435438Y66910655D01*
X399501Y66637684D01*
X399500Y66637667D01*
X500Y66637667D01*
X500Y68875500D01*
X20185Y68942539D01*
X72989Y68988294D01*
X124500Y68999500D01*
X99875500Y68999500D01*
X99942539Y68979815D01*
G37*
G04 #@! TD.AperFunction*
M02*
