M48
; DRILL file {KiCad 9.0.5} date 2025-11-24T21:14:30+0100
; FORMAT={-:-/ absolute / metric / decimal}
; #@! TF.CreationDate,2025-11-24T21:14:30+01:00
; #@! TF.GenerationSoftware,Kicad,Pcbnew,9.0.5
; #@! TF.FileFunction,Plated,1,2,PTH
FMAT,2
METRIC
; #@! TA.AperFunction,Plated,PTH,ViaDrill
T1C0.800
; #@! TA.AperFunction,Plated,PTH,ComponentDrill
T2C0.800
%
G90
G05
T1
X17.92Y61.885
X18.136Y43.275
X18.42Y18.385
X24.807Y6.141
X28.202Y24.801
X30.42Y10.385
X33.293Y15.872
X37.437Y64.346
X38.42Y47.885
X38.42Y28.385
X39.42Y14.385
X41.042Y42.205
X41.098Y33.125
X41.42Y11.885
X41.561Y30.503
X41.667Y45.275
X43.404Y36.037
X44.92Y8.126
X45.164Y29.35
X49.92Y6.885
X51.091Y57.714
X52.149Y65.566
X52.382Y13.489
X53.386Y16.903
X53.513Y43.681
X56.928Y64.873
X57.887Y5.74
X67.785Y64.58
X70.42Y6.885
X96.59Y37.695
X97.565Y54.047
X105.259Y25.505
T2
X3.42Y36.885
X3.42Y30.885
X8.84Y14.772
X9.42Y36.885
X9.42Y30.885
X10.84Y24.497
X16.22Y39.205
X16.22Y36.505
X16.22Y33.805
X16.22Y31.305
X16.34Y27.997
X19.0Y14.772
X21.0Y24.497
X21.075Y10.535
X23.54Y20.654
X23.54Y15.054
X23.56Y17.854
X23.615Y10.535
X26.5Y27.997
X32.67Y55.075
X32.67Y52.535
X32.67Y49.995
X32.67Y47.455
X32.67Y44.915
X32.67Y42.375
X32.67Y39.835
X32.67Y37.295
X32.67Y34.755
X32.67Y32.215
X32.67Y29.675
X33.651Y19.005
X35.21Y55.075
X35.21Y52.535
X35.21Y49.995
X35.21Y47.455
X35.21Y44.915
X35.21Y42.375
X35.21Y39.835
X35.21Y37.295
X35.21Y34.755
X35.21Y32.215
X35.21Y29.675
X36.451Y19.025
X36.532Y14.465
X36.532Y4.305
X39.251Y19.005
X47.77Y60.605
X47.77Y58.065
X47.77Y55.525
X47.77Y52.985
X47.77Y50.445
X47.77Y47.905
X47.77Y45.365
X47.77Y42.825
X47.77Y40.285
X47.77Y37.745
X47.77Y35.205
X47.77Y32.665
X47.77Y30.125
X47.77Y27.585
X47.77Y25.045
X47.77Y22.505
X47.77Y19.965
X47.77Y17.425
X47.77Y14.885
X47.77Y12.345
X54.655Y8.457
X55.532Y58.465
X55.532Y48.305
X57.195Y8.457
X63.0Y60.64
X63.0Y58.1
X63.0Y55.56
X63.0Y53.02
X63.0Y50.48
X63.0Y47.94
X63.0Y45.4
X63.0Y42.86
X63.0Y40.32
X63.0Y37.78
X63.0Y35.24
X63.0Y32.7
X63.0Y30.16
X63.0Y27.62
X63.0Y25.08
X63.0Y22.54
X63.0Y20.0
X63.0Y17.46
X63.0Y14.92
X63.0Y12.38
X66.34Y3.772
X70.032Y38.965
X70.032Y28.805
X73.62Y20.385
X73.62Y16.385
X73.94Y33.385
X76.5Y3.772
X78.84Y36.497
X80.34Y12.772
X81.39Y64.41
X81.39Y41.41
X82.04Y8.654
X82.04Y3.054
X82.06Y5.854
X83.97Y41.36
X84.1Y33.385
X85.807Y27.465
X85.807Y17.305
X87.92Y6.885
X89.0Y36.497
X90.5Y12.772
X91.06Y29.455
X91.06Y23.855
X91.08Y26.655
X92.895Y41.36
X95.39Y64.41
X95.39Y41.41
X98.08Y6.885
X100.92Y51.665
X100.92Y49.125
X100.92Y46.585
X100.92Y44.045
X100.92Y41.505
X100.92Y38.965
X100.92Y36.425
X100.92Y33.885
X100.92Y31.345
X100.92Y28.805
X100.92Y26.265
X100.92Y23.725
X100.92Y21.185
X100.92Y18.645
M30
