M48
; DRILL file {KiCad 9.0.5} date 2025-12-09T18:52:39+0100
; FORMAT={-:-/ absolute / metric / decimal}
; #@! TF.CreationDate,2025-12-09T18:52:39+01:00
; #@! TF.GenerationSoftware,Kicad,Pcbnew,9.0.5
; #@! TF.FileFunction,Plated,1,2,PTH
FMAT,2
METRIC
; #@! TA.AperFunction,Plated,PTH,ViaDrill
T1C0.800
; #@! TA.AperFunction,Plated,PTH,ComponentDrill
T2C0.800
%
G90
G05
T1
X5.469Y19.531
X6.554Y62.246
X8.5Y55.5
X11.423Y51.395
X14.0Y43.785
X16.007Y4.953
X16.755Y23.245
X23.59Y28.592
X23.636Y33.743
X23.98Y51.809
X25.362Y18.735
X27.503Y38.267
X28.0Y51.5
X30.157Y56.843
X31.5Y34.0
X32.223Y24.251
X33.942Y57.058
X40.25Y7.076
X40.894Y36.124
X41.317Y38.947
X45.595Y50.956
X45.692Y36.692
X46.691Y16.208
X49.0Y66.259
X49.5Y49.955
X52.5Y40.0
X54.239Y12.22
X60.5Y14.5
X61.678Y55.34
X62.0Y24.0
X64.082Y59.467
X64.934Y62.517
X65.763Y28.237
X67.432Y38.432
X67.965Y31.544
X69.543Y62.049
X72.999Y60.595
X74.384Y32.59
X75.13Y54.381
X80.157Y36.167
X80.931Y29.311
X83.487Y16.23
X83.553Y39.356
X86.597Y42.619
X94.5Y21.0
T2
X9.21Y35.21
X9.21Y32.67
X9.21Y30.13
X9.21Y27.59
X9.21Y25.05
X9.21Y22.51
X9.21Y19.97
X9.21Y17.43
X9.21Y14.89
X9.21Y12.35
X9.21Y9.81
X10.5Y47.2
X10.5Y44.5
X10.5Y41.8
X10.5Y39.3
X11.75Y35.21
X11.75Y32.67
X11.75Y30.13
X11.75Y27.59
X11.75Y25.05
X11.75Y22.51
X11.75Y19.97
X11.75Y17.43
X11.75Y14.89
X11.75Y12.35
X11.75Y9.81
X13.96Y62.15
X13.995Y46.92
X16.5Y62.15
X16.535Y46.92
X18.5Y37.5
X18.5Y35.5
X19.04Y62.15
X19.075Y46.92
X21.58Y62.15
X21.615Y46.92
X24.12Y62.15
X24.155Y46.92
X26.66Y62.15
X26.695Y46.92
X28.735Y2.572
X29.2Y62.15
X29.235Y46.92
X31.275Y2.572
X31.74Y62.15
X31.775Y46.92
X34.112Y36.58
X34.112Y26.42
X34.28Y62.15
X34.315Y46.92
X35.46Y17.5
X36.82Y62.15
X36.855Y46.92
X37.92Y33.612
X38.0Y17.5
X38.12Y29.269
X38.12Y23.669
X38.14Y26.469
X39.36Y62.15
X39.395Y46.92
X41.9Y62.15
X41.935Y46.92
X43.0Y8.0
X43.0Y2.0
X44.44Y62.15
X44.475Y46.92
X46.955Y28.5
X46.98Y62.15
X47.015Y46.92
X48.08Y33.612
X48.955Y28.5
X49.0Y8.0
X49.0Y2.0
X49.52Y62.15
X49.555Y46.92
X51.04Y37.356
X51.92Y33.612
X52.06Y62.15
X52.095Y46.92
X52.92Y18.887
X54.6Y62.15
X54.635Y46.92
X56.48Y37.5
X56.5Y40.3
X56.5Y34.7
X57.14Y62.15
X57.175Y46.92
X57.42Y22.887
X59.68Y62.15
X59.715Y46.92
X61.2Y37.356
X62.08Y33.612
X62.22Y62.15
X62.255Y46.92
X63.08Y18.887
X66.2Y19.02
X67.5Y34.5
X67.58Y22.887
X69.0Y19.0
X69.082Y66.48
X69.082Y43.48
X69.225Y56.66
X69.225Y46.5
X71.5Y34.5
X71.8Y19.02
X72.15Y43.38
X74.612Y29.58
X74.612Y19.42
X76.92Y38.887
X77.888Y33.58
X77.888Y23.42
X78.42Y19.113
X79.85Y43.48
X80.5Y56.66
X80.5Y46.5
X83.082Y66.48
X83.082Y43.48
X83.86Y33.531
X83.88Y36.331
X83.88Y30.731
X87.08Y38.887
X88.58Y19.113
X89.0Y29.0
X89.0Y27.0
X95.2Y59.66
X95.2Y57.12
X95.2Y54.58
X95.2Y52.04
X95.2Y49.5
X95.2Y46.96
X95.2Y44.42
X95.2Y41.88
X95.2Y39.34
X95.2Y36.8
X95.2Y34.26
X95.2Y31.72
X95.2Y29.18
X95.2Y26.64
M30
