%TF.GenerationSoftware,KiCad,Pcbnew,9.0.5*%
%TF.CreationDate,2026-04-12T18:20:44+02:00*%
%TF.ProjectId,fotoaparat,666f746f-6170-4617-9261-742e6b696361,rev?*%
%TF.SameCoordinates,Original*%
%TF.FileFunction,Drillmap*%
%TF.FilePolarity,Positive*%
%FSLAX45Y45*%
G04 Gerber Fmt 4.5, Leading zero omitted, Abs format (unit mm)*
G04 Created by KiCad (PCBNEW 9.0.5) date 2026-04-12 18:20:44*
%MOMM*%
%LPD*%
G01*
G04 APERTURE LIST*
%ADD10C,0.050000*%
%ADD11C,0.200000*%
%ADD12C,0.100000*%
G04 APERTURE END LIST*
D10*
X0Y10000000D02*
X11466500Y10000000D01*
X11466500Y615000D01*
X0Y615000D01*
X0Y10000000D01*
D11*
D12*
X1852200Y2806800D02*
X1932200Y2726800D01*
X1932200Y2806800D02*
X1852200Y2726800D01*
X1977200Y5176800D02*
X2057200Y5096800D01*
X2057200Y5176800D02*
X1977200Y5096800D01*
X1982200Y6648800D02*
X2062200Y6568800D01*
X2062200Y6648800D02*
X1982200Y6568800D01*
X2680000Y8505000D02*
X2760000Y8425000D01*
X2760000Y8505000D02*
X2680000Y8425000D01*
X2690000Y6908000D02*
X2770000Y6828000D01*
X2770000Y6908000D02*
X2690000Y6828000D01*
X2869200Y2823800D02*
X2949200Y2743800D01*
X2949200Y2823800D02*
X2869200Y2743800D01*
X3981200Y8388800D02*
X4061200Y8308800D01*
X4061200Y8388800D02*
X3981200Y8308800D01*
X4455200Y4661800D02*
X4535200Y4581800D01*
X4535200Y4661800D02*
X4455200Y4581800D01*
X4519200Y5526800D02*
X4599200Y5446800D01*
X4599200Y5526800D02*
X4519200Y5446800D01*
X5167200Y8373800D02*
X5247200Y8293800D01*
X5247200Y8373800D02*
X5167200Y8293800D01*
X5808200Y2431800D02*
X5888200Y2351800D01*
X5888200Y2431800D02*
X5808200Y2351800D01*
X5820200Y1133800D02*
X5900200Y1053800D01*
X5900200Y1133800D02*
X5820200Y1053800D01*
X6343200Y6104800D02*
X6423200Y6024800D01*
X6423200Y6104800D02*
X6343200Y6024800D01*
X6868200Y6085800D02*
X6948200Y6005800D01*
X6948200Y6085800D02*
X6868200Y6005800D01*
X6987200Y1865800D02*
X7067200Y1785800D01*
X7067200Y1865800D02*
X6987200Y1785800D01*
X6993200Y3101800D02*
X7073200Y3021800D01*
X7073200Y3101800D02*
X6993200Y3021800D01*
X7025200Y3998800D02*
X7105200Y3918800D01*
X7105200Y3998800D02*
X7025200Y3918800D01*
X8069200Y1194800D02*
X8149200Y1114800D01*
X8149200Y1194800D02*
X8069200Y1114800D01*
X8085200Y3124800D02*
X8165200Y3044800D01*
X8165200Y3124800D02*
X8085200Y3044800D01*
X8196200Y6969800D02*
X8276200Y6889800D01*
X8276200Y6969800D02*
X8196200Y6889800D01*
X8294200Y3687000D02*
X8374200Y3607000D01*
X8374200Y3687000D02*
X8294200Y3607000D01*
X8463900Y6082981D02*
X8543900Y6002981D01*
X8543900Y6082981D02*
X8463900Y6002981D01*
X8788200Y8247800D02*
X8868200Y8167800D01*
X8868200Y8247800D02*
X8788200Y8167800D01*
X9767200Y6179800D02*
X9847200Y6099800D01*
X9847200Y6179800D02*
X9767200Y6099800D01*
X10513200Y8260800D02*
X10593200Y8180800D01*
X10593200Y8260800D02*
X10513200Y8180800D01*
X10764000Y5827000D02*
X10844000Y5747000D01*
X10844000Y5827000D02*
X10764000Y5747000D01*
X455200Y2437784D02*
G75*
G02*
X375200Y2437784I-40000J0D01*
G01*
X375200Y2437784D02*
G75*
G02*
X455200Y2437784I40000J0D01*
G01*
X455200Y1037784D02*
G75*
G02*
X375200Y1037784I-40000J0D01*
G01*
X375200Y1037784D02*
G75*
G02*
X455200Y1037784I40000J0D01*
G01*
X687200Y6784311D02*
G75*
G02*
X607200Y6784311I-40000J0D01*
G01*
X607200Y6784311D02*
G75*
G02*
X687200Y6784311I40000J0D01*
G01*
X687200Y6504311D02*
G75*
G02*
X607200Y6504311I-40000J0D01*
G01*
X607200Y6504311D02*
G75*
G02*
X687200Y6504311I40000J0D01*
G01*
X1388200Y6783800D02*
G75*
G02*
X1308200Y6783800I-40000J0D01*
G01*
X1308200Y6783800D02*
G75*
G02*
X1388200Y6783800I40000J0D01*
G01*
X1388200Y6529800D02*
G75*
G02*
X1308200Y6529800I-40000J0D01*
G01*
X1308200Y6529800D02*
G75*
G02*
X1388200Y6529800I40000J0D01*
G01*
X1388200Y6275800D02*
G75*
G02*
X1308200Y6275800I-40000J0D01*
G01*
X1308200Y6275800D02*
G75*
G02*
X1388200Y6275800I40000J0D01*
G01*
X1388200Y6021800D02*
G75*
G02*
X1308200Y6021800I-40000J0D01*
G01*
X1308200Y6021800D02*
G75*
G02*
X1388200Y6021800I40000J0D01*
G01*
X1388200Y5767800D02*
G75*
G02*
X1308200Y5767800I-40000J0D01*
G01*
X1308200Y5767800D02*
G75*
G02*
X1388200Y5767800I40000J0D01*
G01*
X1388200Y5513800D02*
G75*
G02*
X1308200Y5513800I-40000J0D01*
G01*
X1308200Y5513800D02*
G75*
G02*
X1388200Y5513800I40000J0D01*
G01*
X1388200Y5259800D02*
G75*
G02*
X1308200Y5259800I-40000J0D01*
G01*
X1308200Y5259800D02*
G75*
G02*
X1388200Y5259800I40000J0D01*
G01*
X1388200Y5005800D02*
G75*
G02*
X1308200Y5005800I-40000J0D01*
G01*
X1308200Y5005800D02*
G75*
G02*
X1388200Y5005800I40000J0D01*
G01*
X1388200Y4751800D02*
G75*
G02*
X1308200Y4751800I-40000J0D01*
G01*
X1308200Y4751800D02*
G75*
G02*
X1388200Y4751800I40000J0D01*
G01*
X1388200Y4497800D02*
G75*
G02*
X1308200Y4497800I-40000J0D01*
G01*
X1308200Y4497800D02*
G75*
G02*
X1388200Y4497800I40000J0D01*
G01*
X1388200Y4243800D02*
G75*
G02*
X1308200Y4243800I-40000J0D01*
G01*
X1308200Y4243800D02*
G75*
G02*
X1388200Y4243800I40000J0D01*
G01*
X1388200Y3989800D02*
G75*
G02*
X1308200Y3989800I-40000J0D01*
G01*
X1308200Y3989800D02*
G75*
G02*
X1388200Y3989800I40000J0D01*
G01*
X1388200Y3735800D02*
G75*
G02*
X1308200Y3735800I-40000J0D01*
G01*
X1308200Y3735800D02*
G75*
G02*
X1388200Y3735800I40000J0D01*
G01*
X1388200Y3481800D02*
G75*
G02*
X1308200Y3481800I-40000J0D01*
G01*
X1308200Y3481800D02*
G75*
G02*
X1388200Y3481800I40000J0D01*
G01*
X2755200Y2437784D02*
G75*
G02*
X2675200Y2437784I-40000J0D01*
G01*
X2675200Y2437784D02*
G75*
G02*
X2755200Y2437784I40000J0D01*
G01*
X2755200Y2114550D02*
G75*
G02*
X2675200Y2114550I-40000J0D01*
G01*
X2675200Y2114550D02*
G75*
G02*
X2755200Y2114550I40000J0D01*
G01*
X2755200Y1037784D02*
G75*
G02*
X2675200Y1037784I-40000J0D01*
G01*
X2675200Y1037784D02*
G75*
G02*
X2755200Y1037784I40000J0D01*
G01*
X2765200Y1374550D02*
G75*
G02*
X2685200Y1374550I-40000J0D01*
G01*
X2685200Y1374550D02*
G75*
G02*
X2765200Y1374550I40000J0D01*
G01*
X2767200Y4095800D02*
G75*
G02*
X2687200Y4095800I-40000J0D01*
G01*
X2687200Y4095800D02*
G75*
G02*
X2767200Y4095800I40000J0D01*
G01*
X2767200Y3079800D02*
G75*
G02*
X2687200Y3079800I-40000J0D01*
G01*
X2687200Y3079800D02*
G75*
G02*
X2767200Y3079800I40000J0D01*
G01*
X3187450Y4714300D02*
G75*
G02*
X3107450Y4714300I-40000J0D01*
G01*
X3107450Y4714300D02*
G75*
G02*
X3187450Y4714300I40000J0D01*
G01*
X3187450Y4397300D02*
G75*
G02*
X3107450Y4397300I-40000J0D01*
G01*
X3107450Y4397300D02*
G75*
G02*
X3187450Y4397300I40000J0D01*
G01*
X3191450Y4094800D02*
G75*
G02*
X3111450Y4094800I-40000J0D01*
G01*
X3111450Y4094800D02*
G75*
G02*
X3191450Y4094800I40000J0D01*
G01*
X3191450Y3078800D02*
G75*
G02*
X3111450Y3078800I-40000J0D01*
G01*
X3111450Y3078800D02*
G75*
G02*
X3191450Y3078800I40000J0D01*
G01*
X3421900Y7488800D02*
G75*
G02*
X3341900Y7488800I-40000J0D01*
G01*
X3341900Y7488800D02*
G75*
G02*
X3421900Y7488800I40000J0D01*
G01*
X3421900Y7208800D02*
G75*
G02*
X3341900Y7208800I-40000J0D01*
G01*
X3341900Y7208800D02*
G75*
G02*
X3421900Y7208800I40000J0D01*
G01*
X3771700Y1461050D02*
G75*
G02*
X3691700Y1461050I-40000J0D01*
G01*
X3691700Y1461050D02*
G75*
G02*
X3771700Y1461050I40000J0D01*
G01*
X4080200Y7733300D02*
G75*
G02*
X4000200Y7733300I-40000J0D01*
G01*
X4000200Y7733300D02*
G75*
G02*
X4080200Y7733300I40000J0D01*
G01*
X4080200Y7479300D02*
G75*
G02*
X4000200Y7479300I-40000J0D01*
G01*
X4000200Y7479300D02*
G75*
G02*
X4080200Y7479300I40000J0D01*
G01*
X4080200Y7225300D02*
G75*
G02*
X4000200Y7225300I-40000J0D01*
G01*
X4000200Y7225300D02*
G75*
G02*
X4080200Y7225300I40000J0D01*
G01*
X4080200Y6971300D02*
G75*
G02*
X4000200Y6971300I-40000J0D01*
G01*
X4000200Y6971300D02*
G75*
G02*
X4080200Y6971300I40000J0D01*
G01*
X4080200Y6717300D02*
G75*
G02*
X4000200Y6717300I-40000J0D01*
G01*
X4000200Y6717300D02*
G75*
G02*
X4080200Y6717300I40000J0D01*
G01*
X4080200Y6463300D02*
G75*
G02*
X4000200Y6463300I-40000J0D01*
G01*
X4000200Y6463300D02*
G75*
G02*
X4080200Y6463300I40000J0D01*
G01*
X4080200Y6209300D02*
G75*
G02*
X4000200Y6209300I-40000J0D01*
G01*
X4000200Y6209300D02*
G75*
G02*
X4080200Y6209300I40000J0D01*
G01*
X4080200Y5955300D02*
G75*
G02*
X4000200Y5955300I-40000J0D01*
G01*
X4000200Y5955300D02*
G75*
G02*
X4080200Y5955300I40000J0D01*
G01*
X4080200Y5701300D02*
G75*
G02*
X4000200Y5701300I-40000J0D01*
G01*
X4000200Y5701300D02*
G75*
G02*
X4080200Y5701300I40000J0D01*
G01*
X4080200Y5447300D02*
G75*
G02*
X4000200Y5447300I-40000J0D01*
G01*
X4000200Y5447300D02*
G75*
G02*
X4080200Y5447300I40000J0D01*
G01*
X4080200Y5193300D02*
G75*
G02*
X4000200Y5193300I-40000J0D01*
G01*
X4000200Y5193300D02*
G75*
G02*
X4080200Y5193300I40000J0D01*
G01*
X4080200Y4939300D02*
G75*
G02*
X4000200Y4939300I-40000J0D01*
G01*
X4000200Y4939300D02*
G75*
G02*
X4080200Y4939300I40000J0D01*
G01*
X4080200Y4685300D02*
G75*
G02*
X4000200Y4685300I-40000J0D01*
G01*
X4000200Y4685300D02*
G75*
G02*
X4080200Y4685300I40000J0D01*
G01*
X4080200Y4431300D02*
G75*
G02*
X4000200Y4431300I-40000J0D01*
G01*
X4000200Y4431300D02*
G75*
G02*
X4080200Y4431300I40000J0D01*
G01*
X4080200Y4177300D02*
G75*
G02*
X4000200Y4177300I-40000J0D01*
G01*
X4000200Y4177300D02*
G75*
G02*
X4080200Y4177300I40000J0D01*
G01*
X4080200Y3923300D02*
G75*
G02*
X4000200Y3923300I-40000J0D01*
G01*
X4000200Y3923300D02*
G75*
G02*
X4080200Y3923300I40000J0D01*
G01*
X4080200Y3669300D02*
G75*
G02*
X4000200Y3669300I-40000J0D01*
G01*
X4000200Y3669300D02*
G75*
G02*
X4080200Y3669300I40000J0D01*
G01*
X4080200Y3415300D02*
G75*
G02*
X4000200Y3415300I-40000J0D01*
G01*
X4000200Y3415300D02*
G75*
G02*
X4080200Y3415300I40000J0D01*
G01*
X4080200Y3161300D02*
G75*
G02*
X4000200Y3161300I-40000J0D01*
G01*
X4000200Y3161300D02*
G75*
G02*
X4080200Y3161300I40000J0D01*
G01*
X4080200Y2907300D02*
G75*
G02*
X4000200Y2907300I-40000J0D01*
G01*
X4000200Y2907300D02*
G75*
G02*
X4080200Y2907300I40000J0D01*
G01*
X4101700Y1461050D02*
G75*
G02*
X4021700Y1461050I-40000J0D01*
G01*
X4021700Y1461050D02*
G75*
G02*
X4101700Y1461050I40000J0D01*
G01*
X5199450Y7715800D02*
G75*
G02*
X5119450Y7715800I-40000J0D01*
G01*
X5119450Y7715800D02*
G75*
G02*
X5199450Y7715800I40000J0D01*
G01*
X5199450Y6699800D02*
G75*
G02*
X5119450Y6699800I-40000J0D01*
G01*
X5119450Y6699800D02*
G75*
G02*
X5199450Y6699800I40000J0D01*
G01*
X5266200Y8669800D02*
G75*
G02*
X5186200Y8669800I-40000J0D01*
G01*
X5186200Y8669800D02*
G75*
G02*
X5266200Y8669800I40000J0D01*
G01*
X5603200Y7729800D02*
G75*
G02*
X5523200Y7729800I-40000J0D01*
G01*
X5523200Y7729800D02*
G75*
G02*
X5603200Y7729800I40000J0D01*
G01*
X5603200Y7475800D02*
G75*
G02*
X5523200Y7475800I-40000J0D01*
G01*
X5523200Y7475800D02*
G75*
G02*
X5603200Y7475800I40000J0D01*
G01*
X5603200Y7221800D02*
G75*
G02*
X5523200Y7221800I-40000J0D01*
G01*
X5523200Y7221800D02*
G75*
G02*
X5603200Y7221800I40000J0D01*
G01*
X5603200Y6967800D02*
G75*
G02*
X5523200Y6967800I-40000J0D01*
G01*
X5523200Y6967800D02*
G75*
G02*
X5603200Y6967800I40000J0D01*
G01*
X5603200Y6713800D02*
G75*
G02*
X5523200Y6713800I-40000J0D01*
G01*
X5523200Y6713800D02*
G75*
G02*
X5603200Y6713800I40000J0D01*
G01*
X5603200Y6459800D02*
G75*
G02*
X5523200Y6459800I-40000J0D01*
G01*
X5523200Y6459800D02*
G75*
G02*
X5603200Y6459800I40000J0D01*
G01*
X5603200Y6205800D02*
G75*
G02*
X5523200Y6205800I-40000J0D01*
G01*
X5523200Y6205800D02*
G75*
G02*
X5603200Y6205800I40000J0D01*
G01*
X5603200Y5951800D02*
G75*
G02*
X5523200Y5951800I-40000J0D01*
G01*
X5523200Y5951800D02*
G75*
G02*
X5603200Y5951800I40000J0D01*
G01*
X5603200Y5697800D02*
G75*
G02*
X5523200Y5697800I-40000J0D01*
G01*
X5523200Y5697800D02*
G75*
G02*
X5603200Y5697800I40000J0D01*
G01*
X5603200Y5443800D02*
G75*
G02*
X5523200Y5443800I-40000J0D01*
G01*
X5523200Y5443800D02*
G75*
G02*
X5603200Y5443800I40000J0D01*
G01*
X5603200Y5189800D02*
G75*
G02*
X5523200Y5189800I-40000J0D01*
G01*
X5523200Y5189800D02*
G75*
G02*
X5603200Y5189800I40000J0D01*
G01*
X5603200Y4935800D02*
G75*
G02*
X5523200Y4935800I-40000J0D01*
G01*
X5523200Y4935800D02*
G75*
G02*
X5603200Y4935800I40000J0D01*
G01*
X5603200Y4681800D02*
G75*
G02*
X5523200Y4681800I-40000J0D01*
G01*
X5523200Y4681800D02*
G75*
G02*
X5603200Y4681800I40000J0D01*
G01*
X5603200Y4427800D02*
G75*
G02*
X5523200Y4427800I-40000J0D01*
G01*
X5523200Y4427800D02*
G75*
G02*
X5603200Y4427800I40000J0D01*
G01*
X5603200Y4173800D02*
G75*
G02*
X5523200Y4173800I-40000J0D01*
G01*
X5523200Y4173800D02*
G75*
G02*
X5603200Y4173800I40000J0D01*
G01*
X5603200Y3919800D02*
G75*
G02*
X5523200Y3919800I-40000J0D01*
G01*
X5523200Y3919800D02*
G75*
G02*
X5603200Y3919800I40000J0D01*
G01*
X5603200Y3665800D02*
G75*
G02*
X5523200Y3665800I-40000J0D01*
G01*
X5523200Y3665800D02*
G75*
G02*
X5603200Y3665800I40000J0D01*
G01*
X5603200Y3411800D02*
G75*
G02*
X5523200Y3411800I-40000J0D01*
G01*
X5523200Y3411800D02*
G75*
G02*
X5603200Y3411800I40000J0D01*
G01*
X5603200Y3157800D02*
G75*
G02*
X5523200Y3157800I-40000J0D01*
G01*
X5523200Y3157800D02*
G75*
G02*
X5603200Y3157800I40000J0D01*
G01*
X5603200Y2903800D02*
G75*
G02*
X5523200Y2903800I-40000J0D01*
G01*
X5523200Y2903800D02*
G75*
G02*
X5603200Y2903800I40000J0D01*
G01*
X5646200Y8667800D02*
G75*
G02*
X5566200Y8667800I-40000J0D01*
G01*
X5566200Y8667800D02*
G75*
G02*
X5646200Y8667800I40000J0D01*
G01*
X6026200Y8669800D02*
G75*
G02*
X5946200Y8669800I-40000J0D01*
G01*
X5946200Y8669800D02*
G75*
G02*
X6026200Y8669800I40000J0D01*
G01*
X6062200Y8242550D02*
G75*
G02*
X5982200Y8242550I-40000J0D01*
G01*
X5982200Y8242550D02*
G75*
G02*
X6062200Y8242550I40000J0D01*
G01*
X7044200Y4416800D02*
G75*
G02*
X6964200Y4416800I-40000J0D01*
G01*
X6964200Y4416800D02*
G75*
G02*
X7044200Y4416800I40000J0D01*
G01*
X7044200Y3400800D02*
G75*
G02*
X6964200Y3400800I-40000J0D01*
G01*
X6964200Y3400800D02*
G75*
G02*
X7044200Y3400800I40000J0D01*
G01*
X7078200Y8242550D02*
G75*
G02*
X6998200Y8242550I-40000J0D01*
G01*
X6998200Y8242550D02*
G75*
G02*
X7078200Y8242550I40000J0D01*
G01*
X7582200Y6710800D02*
G75*
G02*
X7502200Y6710800I-40000J0D01*
G01*
X7502200Y6710800D02*
G75*
G02*
X7582200Y6710800I40000J0D01*
G01*
X7582200Y6456800D02*
G75*
G02*
X7502200Y6456800I-40000J0D01*
G01*
X7502200Y6456800D02*
G75*
G02*
X7582200Y6456800I40000J0D01*
G01*
X7582200Y6202800D02*
G75*
G02*
X7502200Y6202800I-40000J0D01*
G01*
X7502200Y6202800D02*
G75*
G02*
X7582200Y6202800I40000J0D01*
G01*
X7582200Y5948800D02*
G75*
G02*
X7502200Y5948800I-40000J0D01*
G01*
X7502200Y5948800D02*
G75*
G02*
X7582200Y5948800I40000J0D01*
G01*
X7582200Y5694800D02*
G75*
G02*
X7502200Y5694800I-40000J0D01*
G01*
X7502200Y5694800D02*
G75*
G02*
X7582200Y5694800I40000J0D01*
G01*
X7582200Y5440800D02*
G75*
G02*
X7502200Y5440800I-40000J0D01*
G01*
X7502200Y5440800D02*
G75*
G02*
X7582200Y5440800I40000J0D01*
G01*
X7582200Y5186800D02*
G75*
G02*
X7502200Y5186800I-40000J0D01*
G01*
X7502200Y5186800D02*
G75*
G02*
X7582200Y5186800I40000J0D01*
G01*
X7582200Y4932800D02*
G75*
G02*
X7502200Y4932800I-40000J0D01*
G01*
X7502200Y4932800D02*
G75*
G02*
X7582200Y4932800I40000J0D01*
G01*
X7582200Y4678800D02*
G75*
G02*
X7502200Y4678800I-40000J0D01*
G01*
X7502200Y4678800D02*
G75*
G02*
X7582200Y4678800I40000J0D01*
G01*
X7582200Y4424800D02*
G75*
G02*
X7502200Y4424800I-40000J0D01*
G01*
X7502200Y4424800D02*
G75*
G02*
X7582200Y4424800I40000J0D01*
G01*
X7582200Y4170800D02*
G75*
G02*
X7502200Y4170800I-40000J0D01*
G01*
X7502200Y4170800D02*
G75*
G02*
X7582200Y4170800I40000J0D01*
G01*
X7626689Y3657800D02*
G75*
G02*
X7546689Y3657800I-40000J0D01*
G01*
X7546689Y3657800D02*
G75*
G02*
X7626689Y3657800I40000J0D01*
G01*
X7633200Y3146050D02*
G75*
G02*
X7553200Y3146050I-40000J0D01*
G01*
X7553200Y3146050D02*
G75*
G02*
X7633200Y3146050I40000J0D01*
G01*
X7707200Y8232800D02*
G75*
G02*
X7627200Y8232800I-40000J0D01*
G01*
X7627200Y8232800D02*
G75*
G02*
X7707200Y8232800I40000J0D01*
G01*
X7902200Y6710800D02*
G75*
G02*
X7822200Y6710800I-40000J0D01*
G01*
X7822200Y6710800D02*
G75*
G02*
X7902200Y6710800I40000J0D01*
G01*
X7902200Y6456800D02*
G75*
G02*
X7822200Y6456800I-40000J0D01*
G01*
X7822200Y6456800D02*
G75*
G02*
X7902200Y6456800I40000J0D01*
G01*
X7902200Y6202800D02*
G75*
G02*
X7822200Y6202800I-40000J0D01*
G01*
X7822200Y6202800D02*
G75*
G02*
X7902200Y6202800I40000J0D01*
G01*
X7902200Y5948800D02*
G75*
G02*
X7822200Y5948800I-40000J0D01*
G01*
X7822200Y5948800D02*
G75*
G02*
X7902200Y5948800I40000J0D01*
G01*
X7902200Y5694800D02*
G75*
G02*
X7822200Y5694800I-40000J0D01*
G01*
X7822200Y5694800D02*
G75*
G02*
X7902200Y5694800I40000J0D01*
G01*
X7902200Y5440800D02*
G75*
G02*
X7822200Y5440800I-40000J0D01*
G01*
X7822200Y5440800D02*
G75*
G02*
X7902200Y5440800I40000J0D01*
G01*
X7902200Y5186800D02*
G75*
G02*
X7822200Y5186800I-40000J0D01*
G01*
X7822200Y5186800D02*
G75*
G02*
X7902200Y5186800I40000J0D01*
G01*
X7902200Y4932800D02*
G75*
G02*
X7822200Y4932800I-40000J0D01*
G01*
X7822200Y4932800D02*
G75*
G02*
X7902200Y4932800I40000J0D01*
G01*
X7902200Y4678800D02*
G75*
G02*
X7822200Y4678800I-40000J0D01*
G01*
X7822200Y4678800D02*
G75*
G02*
X7902200Y4678800I40000J0D01*
G01*
X7902200Y4424800D02*
G75*
G02*
X7822200Y4424800I-40000J0D01*
G01*
X7822200Y4424800D02*
G75*
G02*
X7902200Y4424800I40000J0D01*
G01*
X7902200Y4170800D02*
G75*
G02*
X7822200Y4170800I-40000J0D01*
G01*
X7822200Y4170800D02*
G75*
G02*
X7902200Y4170800I40000J0D01*
G01*
X7906689Y3657800D02*
G75*
G02*
X7826689Y3657800I-40000J0D01*
G01*
X7826689Y3657800D02*
G75*
G02*
X7906689Y3657800I40000J0D01*
G01*
X8107200Y8232800D02*
G75*
G02*
X8027200Y8232800I-40000J0D01*
G01*
X8027200Y8232800D02*
G75*
G02*
X8107200Y8232800I40000J0D01*
G01*
X8649200Y3146050D02*
G75*
G02*
X8569200Y3146050I-40000J0D01*
G01*
X8569200Y3146050D02*
G75*
G02*
X8649200Y3146050I40000J0D01*
G01*
X9858200Y5537800D02*
G75*
G02*
X9778200Y5537800I-40000J0D01*
G01*
X9778200Y5537800D02*
G75*
G02*
X9858200Y5537800I40000J0D01*
G01*
X9858200Y5267800D02*
G75*
G02*
X9778200Y5267800I-40000J0D01*
G01*
X9778200Y5267800D02*
G75*
G02*
X9858200Y5267800I40000J0D01*
G01*
X9858200Y4997800D02*
G75*
G02*
X9778200Y4997800I-40000J0D01*
G01*
X9778200Y4997800D02*
G75*
G02*
X9858200Y4997800I40000J0D01*
G01*
X9858200Y4747800D02*
G75*
G02*
X9778200Y4747800I-40000J0D01*
G01*
X9778200Y4747800D02*
G75*
G02*
X9858200Y4747800I40000J0D01*
G01*
D11*
X258277Y301016D02*
X258277Y501016D01*
X258277Y501016D02*
X305896Y501016D01*
X305896Y501016D02*
X334467Y491492D01*
X334467Y491492D02*
X353515Y472445D01*
X353515Y472445D02*
X363039Y453397D01*
X363039Y453397D02*
X372562Y415302D01*
X372562Y415302D02*
X372562Y386730D01*
X372562Y386730D02*
X363039Y348635D01*
X363039Y348635D02*
X353515Y329588D01*
X353515Y329588D02*
X334467Y310540D01*
X334467Y310540D02*
X305896Y301016D01*
X305896Y301016D02*
X258277Y301016D01*
X458277Y301016D02*
X458277Y434349D01*
X458277Y396254D02*
X467801Y415302D01*
X467801Y415302D02*
X477324Y424826D01*
X477324Y424826D02*
X496372Y434349D01*
X496372Y434349D02*
X515420Y434349D01*
X582086Y301016D02*
X582086Y434349D01*
X582086Y501016D02*
X572563Y491492D01*
X572563Y491492D02*
X582086Y481968D01*
X582086Y481968D02*
X591610Y491492D01*
X591610Y491492D02*
X582086Y501016D01*
X582086Y501016D02*
X582086Y481968D01*
X705896Y301016D02*
X686848Y310540D01*
X686848Y310540D02*
X677324Y329588D01*
X677324Y329588D02*
X677324Y501016D01*
X810658Y301016D02*
X791610Y310540D01*
X791610Y310540D02*
X782086Y329588D01*
X782086Y329588D02*
X782086Y501016D01*
X1039229Y301016D02*
X1039229Y501016D01*
X1039229Y501016D02*
X1105896Y358159D01*
X1105896Y358159D02*
X1172563Y501016D01*
X1172563Y501016D02*
X1172563Y301016D01*
X1353515Y301016D02*
X1353515Y405778D01*
X1353515Y405778D02*
X1343991Y424826D01*
X1343991Y424826D02*
X1324944Y434349D01*
X1324944Y434349D02*
X1286848Y434349D01*
X1286848Y434349D02*
X1267801Y424826D01*
X1353515Y310540D02*
X1334467Y301016D01*
X1334467Y301016D02*
X1286848Y301016D01*
X1286848Y301016D02*
X1267801Y310540D01*
X1267801Y310540D02*
X1258277Y329588D01*
X1258277Y329588D02*
X1258277Y348635D01*
X1258277Y348635D02*
X1267801Y367683D01*
X1267801Y367683D02*
X1286848Y377207D01*
X1286848Y377207D02*
X1334467Y377207D01*
X1334467Y377207D02*
X1353515Y386730D01*
X1448753Y434349D02*
X1448753Y234349D01*
X1448753Y424826D02*
X1467801Y434349D01*
X1467801Y434349D02*
X1505896Y434349D01*
X1505896Y434349D02*
X1524943Y424826D01*
X1524943Y424826D02*
X1534467Y415302D01*
X1534467Y415302D02*
X1543991Y396254D01*
X1543991Y396254D02*
X1543991Y339111D01*
X1543991Y339111D02*
X1534467Y320064D01*
X1534467Y320064D02*
X1524943Y310540D01*
X1524943Y310540D02*
X1505896Y301016D01*
X1505896Y301016D02*
X1467801Y301016D01*
X1467801Y301016D02*
X1448753Y310540D01*
X1629705Y320064D02*
X1639229Y310540D01*
X1639229Y310540D02*
X1629705Y301016D01*
X1629705Y301016D02*
X1620182Y310540D01*
X1620182Y310540D02*
X1629705Y320064D01*
X1629705Y320064D02*
X1629705Y301016D01*
X1629705Y424826D02*
X1639229Y415302D01*
X1639229Y415302D02*
X1629705Y405778D01*
X1629705Y405778D02*
X1620182Y415302D01*
X1620182Y415302D02*
X1629705Y424826D01*
X1629705Y424826D02*
X1629705Y405778D01*
D12*
X-82500Y12500D02*
X-2500Y-67500D01*
X-2500Y12500D02*
X-82500Y-67500D01*
D11*
X296372Y81016D02*
X315420Y81016D01*
X315420Y81016D02*
X334467Y71492D01*
X334467Y71492D02*
X343991Y61968D01*
X343991Y61968D02*
X353515Y42921D01*
X353515Y42921D02*
X363039Y4826D01*
X363039Y4826D02*
X363039Y-42793D01*
X363039Y-42793D02*
X353515Y-80889D01*
X353515Y-80889D02*
X343991Y-99936D01*
X343991Y-99936D02*
X334467Y-109460D01*
X334467Y-109460D02*
X315420Y-118984D01*
X315420Y-118984D02*
X296372Y-118984D01*
X296372Y-118984D02*
X277324Y-109460D01*
X277324Y-109460D02*
X267801Y-99936D01*
X267801Y-99936D02*
X258277Y-80889D01*
X258277Y-80889D02*
X248753Y-42793D01*
X248753Y-42793D02*
X248753Y4826D01*
X248753Y4826D02*
X258277Y42921D01*
X258277Y42921D02*
X267801Y61968D01*
X267801Y61968D02*
X277324Y71492D01*
X277324Y71492D02*
X296372Y81016D01*
X448753Y-99936D02*
X458277Y-109460D01*
X458277Y-109460D02*
X448753Y-118984D01*
X448753Y-118984D02*
X439229Y-109460D01*
X439229Y-109460D02*
X448753Y-99936D01*
X448753Y-99936D02*
X448753Y-118984D01*
X572563Y-4698D02*
X553515Y4826D01*
X553515Y4826D02*
X543991Y14349D01*
X543991Y14349D02*
X534467Y33397D01*
X534467Y33397D02*
X534467Y42921D01*
X534467Y42921D02*
X543991Y61968D01*
X543991Y61968D02*
X553515Y71492D01*
X553515Y71492D02*
X572563Y81016D01*
X572563Y81016D02*
X610658Y81016D01*
X610658Y81016D02*
X629705Y71492D01*
X629705Y71492D02*
X639229Y61968D01*
X639229Y61968D02*
X648753Y42921D01*
X648753Y42921D02*
X648753Y33397D01*
X648753Y33397D02*
X639229Y14349D01*
X639229Y14349D02*
X629705Y4826D01*
X629705Y4826D02*
X610658Y-4698D01*
X610658Y-4698D02*
X572563Y-4698D01*
X572563Y-4698D02*
X553515Y-14222D01*
X553515Y-14222D02*
X543991Y-23746D01*
X543991Y-23746D02*
X534467Y-42793D01*
X534467Y-42793D02*
X534467Y-80889D01*
X534467Y-80889D02*
X543991Y-99936D01*
X543991Y-99936D02*
X553515Y-109460D01*
X553515Y-109460D02*
X572563Y-118984D01*
X572563Y-118984D02*
X610658Y-118984D01*
X610658Y-118984D02*
X629705Y-109460D01*
X629705Y-109460D02*
X639229Y-99936D01*
X639229Y-99936D02*
X648753Y-80889D01*
X648753Y-80889D02*
X648753Y-42793D01*
X648753Y-42793D02*
X639229Y-23746D01*
X639229Y-23746D02*
X629705Y-14222D01*
X629705Y-14222D02*
X610658Y-4698D01*
X772562Y81016D02*
X791610Y81016D01*
X791610Y81016D02*
X810658Y71492D01*
X810658Y71492D02*
X820182Y61968D01*
X820182Y61968D02*
X829705Y42921D01*
X829705Y42921D02*
X839229Y4826D01*
X839229Y4826D02*
X839229Y-42793D01*
X839229Y-42793D02*
X829705Y-80889D01*
X829705Y-80889D02*
X820182Y-99936D01*
X820182Y-99936D02*
X810658Y-109460D01*
X810658Y-109460D02*
X791610Y-118984D01*
X791610Y-118984D02*
X772562Y-118984D01*
X772562Y-118984D02*
X753515Y-109460D01*
X753515Y-109460D02*
X743991Y-99936D01*
X743991Y-99936D02*
X734467Y-80889D01*
X734467Y-80889D02*
X724943Y-42793D01*
X724943Y-42793D02*
X724943Y4826D01*
X724943Y4826D02*
X734467Y42921D01*
X734467Y42921D02*
X743991Y61968D01*
X743991Y61968D02*
X753515Y71492D01*
X753515Y71492D02*
X772562Y81016D01*
X963039Y81016D02*
X982086Y81016D01*
X982086Y81016D02*
X1001134Y71492D01*
X1001134Y71492D02*
X1010658Y61968D01*
X1010658Y61968D02*
X1020182Y42921D01*
X1020182Y42921D02*
X1029705Y4826D01*
X1029705Y4826D02*
X1029705Y-42793D01*
X1029705Y-42793D02*
X1020182Y-80889D01*
X1020182Y-80889D02*
X1010658Y-99936D01*
X1010658Y-99936D02*
X1001134Y-109460D01*
X1001134Y-109460D02*
X982086Y-118984D01*
X982086Y-118984D02*
X963039Y-118984D01*
X963039Y-118984D02*
X943991Y-109460D01*
X943991Y-109460D02*
X934467Y-99936D01*
X934467Y-99936D02*
X924943Y-80889D01*
X924943Y-80889D02*
X915420Y-42793D01*
X915420Y-42793D02*
X915420Y4826D01*
X915420Y4826D02*
X924943Y42921D01*
X924943Y42921D02*
X934467Y61968D01*
X934467Y61968D02*
X943991Y71492D01*
X943991Y71492D02*
X963039Y81016D01*
X1115420Y-118984D02*
X1115420Y14349D01*
X1115420Y-4698D02*
X1124944Y4826D01*
X1124944Y4826D02*
X1143991Y14349D01*
X1143991Y14349D02*
X1172563Y14349D01*
X1172563Y14349D02*
X1191610Y4826D01*
X1191610Y4826D02*
X1201134Y-14222D01*
X1201134Y-14222D02*
X1201134Y-118984D01*
X1201134Y-14222D02*
X1210658Y4826D01*
X1210658Y4826D02*
X1229705Y14349D01*
X1229705Y14349D02*
X1258277Y14349D01*
X1258277Y14349D02*
X1277325Y4826D01*
X1277325Y4826D02*
X1286848Y-14222D01*
X1286848Y-14222D02*
X1286848Y-118984D01*
X1382086Y-118984D02*
X1382086Y14349D01*
X1382086Y-4698D02*
X1391610Y4826D01*
X1391610Y4826D02*
X1410658Y14349D01*
X1410658Y14349D02*
X1439229Y14349D01*
X1439229Y14349D02*
X1458277Y4826D01*
X1458277Y4826D02*
X1467801Y-14222D01*
X1467801Y-14222D02*
X1467801Y-118984D01*
X1467801Y-14222D02*
X1477324Y4826D01*
X1477324Y4826D02*
X1496372Y14349D01*
X1496372Y14349D02*
X1524943Y14349D01*
X1524943Y14349D02*
X1543991Y4826D01*
X1543991Y4826D02*
X1553515Y-14222D01*
X1553515Y-14222D02*
X1553515Y-118984D01*
X1943991Y90540D02*
X1772563Y-166603D01*
X2201134Y81016D02*
X2220182Y81016D01*
X2220182Y81016D02*
X2239229Y71492D01*
X2239229Y71492D02*
X2248753Y61968D01*
X2248753Y61968D02*
X2258277Y42921D01*
X2258277Y42921D02*
X2267801Y4826D01*
X2267801Y4826D02*
X2267801Y-42793D01*
X2267801Y-42793D02*
X2258277Y-80889D01*
X2258277Y-80889D02*
X2248753Y-99936D01*
X2248753Y-99936D02*
X2239229Y-109460D01*
X2239229Y-109460D02*
X2220182Y-118984D01*
X2220182Y-118984D02*
X2201134Y-118984D01*
X2201134Y-118984D02*
X2182087Y-109460D01*
X2182087Y-109460D02*
X2172563Y-99936D01*
X2172563Y-99936D02*
X2163039Y-80889D01*
X2163039Y-80889D02*
X2153515Y-42793D01*
X2153515Y-42793D02*
X2153515Y4826D01*
X2153515Y4826D02*
X2163039Y42921D01*
X2163039Y42921D02*
X2172563Y61968D01*
X2172563Y61968D02*
X2182087Y71492D01*
X2182087Y71492D02*
X2201134Y81016D01*
X2353515Y-99936D02*
X2363039Y-109460D01*
X2363039Y-109460D02*
X2353515Y-118984D01*
X2353515Y-118984D02*
X2343991Y-109460D01*
X2343991Y-109460D02*
X2353515Y-99936D01*
X2353515Y-99936D02*
X2353515Y-118984D01*
X2486848Y81016D02*
X2505896Y81016D01*
X2505896Y81016D02*
X2524944Y71492D01*
X2524944Y71492D02*
X2534468Y61968D01*
X2534468Y61968D02*
X2543991Y42921D01*
X2543991Y42921D02*
X2553515Y4826D01*
X2553515Y4826D02*
X2553515Y-42793D01*
X2553515Y-42793D02*
X2543991Y-80889D01*
X2543991Y-80889D02*
X2534468Y-99936D01*
X2534468Y-99936D02*
X2524944Y-109460D01*
X2524944Y-109460D02*
X2505896Y-118984D01*
X2505896Y-118984D02*
X2486848Y-118984D01*
X2486848Y-118984D02*
X2467801Y-109460D01*
X2467801Y-109460D02*
X2458277Y-99936D01*
X2458277Y-99936D02*
X2448753Y-80889D01*
X2448753Y-80889D02*
X2439229Y-42793D01*
X2439229Y-42793D02*
X2439229Y4826D01*
X2439229Y4826D02*
X2448753Y42921D01*
X2448753Y42921D02*
X2458277Y61968D01*
X2458277Y61968D02*
X2467801Y71492D01*
X2467801Y71492D02*
X2486848Y81016D01*
X2620182Y81016D02*
X2743991Y81016D01*
X2743991Y81016D02*
X2677325Y4826D01*
X2677325Y4826D02*
X2705896Y4826D01*
X2705896Y4826D02*
X2724944Y-4698D01*
X2724944Y-4698D02*
X2734468Y-14222D01*
X2734468Y-14222D02*
X2743991Y-33270D01*
X2743991Y-33270D02*
X2743991Y-80889D01*
X2743991Y-80889D02*
X2734468Y-99936D01*
X2734468Y-99936D02*
X2724944Y-109460D01*
X2724944Y-109460D02*
X2705896Y-118984D01*
X2705896Y-118984D02*
X2648753Y-118984D01*
X2648753Y-118984D02*
X2629706Y-109460D01*
X2629706Y-109460D02*
X2620182Y-99936D01*
X2934467Y-118984D02*
X2820182Y-118984D01*
X2877325Y-118984D02*
X2877325Y81016D01*
X2877325Y81016D02*
X2858277Y52445D01*
X2858277Y52445D02*
X2839229Y33397D01*
X2839229Y33397D02*
X2820182Y23873D01*
X3115420Y81016D02*
X3020182Y81016D01*
X3020182Y81016D02*
X3010658Y-14222D01*
X3010658Y-14222D02*
X3020182Y-4698D01*
X3020182Y-4698D02*
X3039229Y4826D01*
X3039229Y4826D02*
X3086848Y4826D01*
X3086848Y4826D02*
X3105896Y-4698D01*
X3105896Y-4698D02*
X3115420Y-14222D01*
X3115420Y-14222D02*
X3124944Y-33270D01*
X3124944Y-33270D02*
X3124944Y-80889D01*
X3124944Y-80889D02*
X3115420Y-99936D01*
X3115420Y-99936D02*
X3105896Y-109460D01*
X3105896Y-109460D02*
X3086848Y-118984D01*
X3086848Y-118984D02*
X3039229Y-118984D01*
X3039229Y-118984D02*
X3020182Y-109460D01*
X3020182Y-109460D02*
X3010658Y-99936D01*
X3201134Y81016D02*
X3201134Y42921D01*
X3277325Y81016D02*
X3277325Y42921D01*
X3572563Y-195174D02*
X3563039Y-185650D01*
X3563039Y-185650D02*
X3543991Y-157079D01*
X3543991Y-157079D02*
X3534468Y-138031D01*
X3534468Y-138031D02*
X3524944Y-109460D01*
X3524944Y-109460D02*
X3515420Y-61841D01*
X3515420Y-61841D02*
X3515420Y-23746D01*
X3515420Y-23746D02*
X3524944Y23873D01*
X3524944Y23873D02*
X3534468Y52445D01*
X3534468Y52445D02*
X3543991Y71492D01*
X3543991Y71492D02*
X3563039Y100064D01*
X3563039Y100064D02*
X3572563Y109588D01*
X3639229Y61968D02*
X3648753Y71492D01*
X3648753Y71492D02*
X3667801Y81016D01*
X3667801Y81016D02*
X3715420Y81016D01*
X3715420Y81016D02*
X3734468Y71492D01*
X3734468Y71492D02*
X3743991Y61968D01*
X3743991Y61968D02*
X3753515Y42921D01*
X3753515Y42921D02*
X3753515Y23873D01*
X3753515Y23873D02*
X3743991Y-4698D01*
X3743991Y-4698D02*
X3629706Y-118984D01*
X3629706Y-118984D02*
X3753515Y-118984D01*
X3924944Y81016D02*
X3886848Y81016D01*
X3886848Y81016D02*
X3867801Y71492D01*
X3867801Y71492D02*
X3858277Y61968D01*
X3858277Y61968D02*
X3839229Y33397D01*
X3839229Y33397D02*
X3829706Y-4698D01*
X3829706Y-4698D02*
X3829706Y-80889D01*
X3829706Y-80889D02*
X3839229Y-99936D01*
X3839229Y-99936D02*
X3848753Y-109460D01*
X3848753Y-109460D02*
X3867801Y-118984D01*
X3867801Y-118984D02*
X3905896Y-118984D01*
X3905896Y-118984D02*
X3924944Y-109460D01*
X3924944Y-109460D02*
X3934468Y-99936D01*
X3934468Y-99936D02*
X3943991Y-80889D01*
X3943991Y-80889D02*
X3943991Y-33270D01*
X3943991Y-33270D02*
X3934468Y-14222D01*
X3934468Y-14222D02*
X3924944Y-4698D01*
X3924944Y-4698D02*
X3905896Y4826D01*
X3905896Y4826D02*
X3867801Y4826D01*
X3867801Y4826D02*
X3848753Y-4698D01*
X3848753Y-4698D02*
X3839229Y-14222D01*
X3839229Y-14222D02*
X3829706Y-33270D01*
X4182087Y-118984D02*
X4182087Y81016D01*
X4267801Y-118984D02*
X4267801Y-14222D01*
X4267801Y-14222D02*
X4258277Y4826D01*
X4258277Y4826D02*
X4239230Y14349D01*
X4239230Y14349D02*
X4210658Y14349D01*
X4210658Y14349D02*
X4191610Y4826D01*
X4191610Y4826D02*
X4182087Y-4698D01*
X4391611Y-118984D02*
X4372563Y-109460D01*
X4372563Y-109460D02*
X4363039Y-99936D01*
X4363039Y-99936D02*
X4353515Y-80889D01*
X4353515Y-80889D02*
X4353515Y-23746D01*
X4353515Y-23746D02*
X4363039Y-4698D01*
X4363039Y-4698D02*
X4372563Y4826D01*
X4372563Y4826D02*
X4391611Y14349D01*
X4391611Y14349D02*
X4420182Y14349D01*
X4420182Y14349D02*
X4439230Y4826D01*
X4439230Y4826D02*
X4448753Y-4698D01*
X4448753Y-4698D02*
X4458277Y-23746D01*
X4458277Y-23746D02*
X4458277Y-80889D01*
X4458277Y-80889D02*
X4448753Y-99936D01*
X4448753Y-99936D02*
X4439230Y-109460D01*
X4439230Y-109460D02*
X4420182Y-118984D01*
X4420182Y-118984D02*
X4391611Y-118984D01*
X4572563Y-118984D02*
X4553515Y-109460D01*
X4553515Y-109460D02*
X4543992Y-90412D01*
X4543992Y-90412D02*
X4543992Y81016D01*
X4724944Y-109460D02*
X4705896Y-118984D01*
X4705896Y-118984D02*
X4667801Y-118984D01*
X4667801Y-118984D02*
X4648753Y-109460D01*
X4648753Y-109460D02*
X4639230Y-90412D01*
X4639230Y-90412D02*
X4639230Y-14222D01*
X4639230Y-14222D02*
X4648753Y4826D01*
X4648753Y4826D02*
X4667801Y14349D01*
X4667801Y14349D02*
X4705896Y14349D01*
X4705896Y14349D02*
X4724944Y4826D01*
X4724944Y4826D02*
X4734468Y-14222D01*
X4734468Y-14222D02*
X4734468Y-33270D01*
X4734468Y-33270D02*
X4639230Y-52317D01*
X4810658Y-109460D02*
X4829706Y-118984D01*
X4829706Y-118984D02*
X4867801Y-118984D01*
X4867801Y-118984D02*
X4886849Y-109460D01*
X4886849Y-109460D02*
X4896373Y-90412D01*
X4896373Y-90412D02*
X4896373Y-80889D01*
X4896373Y-80889D02*
X4886849Y-61841D01*
X4886849Y-61841D02*
X4867801Y-52317D01*
X4867801Y-52317D02*
X4839230Y-52317D01*
X4839230Y-52317D02*
X4820182Y-42793D01*
X4820182Y-42793D02*
X4810658Y-23746D01*
X4810658Y-23746D02*
X4810658Y-14222D01*
X4810658Y-14222D02*
X4820182Y4826D01*
X4820182Y4826D02*
X4839230Y14349D01*
X4839230Y14349D02*
X4867801Y14349D01*
X4867801Y14349D02*
X4886849Y4826D01*
X4963039Y-195174D02*
X4972563Y-185650D01*
X4972563Y-185650D02*
X4991611Y-157079D01*
X4991611Y-157079D02*
X5001134Y-138031D01*
X5001134Y-138031D02*
X5010658Y-109460D01*
X5010658Y-109460D02*
X5020182Y-61841D01*
X5020182Y-61841D02*
X5020182Y-23746D01*
X5020182Y-23746D02*
X5010658Y23873D01*
X5010658Y23873D02*
X5001134Y52445D01*
X5001134Y52445D02*
X4991611Y71492D01*
X4991611Y71492D02*
X4972563Y100064D01*
X4972563Y100064D02*
X4963039Y109588D01*
D12*
X-2500Y-291500D02*
G75*
G02*
X-82500Y-291500I-40000J0D01*
G01*
X-82500Y-291500D02*
G75*
G02*
X-2500Y-291500I40000J0D01*
G01*
D11*
X296372Y-182984D02*
X315420Y-182984D01*
X315420Y-182984D02*
X334467Y-192508D01*
X334467Y-192508D02*
X343991Y-202031D01*
X343991Y-202031D02*
X353515Y-221079D01*
X353515Y-221079D02*
X363039Y-259174D01*
X363039Y-259174D02*
X363039Y-306793D01*
X363039Y-306793D02*
X353515Y-344889D01*
X353515Y-344889D02*
X343991Y-363936D01*
X343991Y-363936D02*
X334467Y-373460D01*
X334467Y-373460D02*
X315420Y-382984D01*
X315420Y-382984D02*
X296372Y-382984D01*
X296372Y-382984D02*
X277324Y-373460D01*
X277324Y-373460D02*
X267801Y-363936D01*
X267801Y-363936D02*
X258277Y-344889D01*
X258277Y-344889D02*
X248753Y-306793D01*
X248753Y-306793D02*
X248753Y-259174D01*
X248753Y-259174D02*
X258277Y-221079D01*
X258277Y-221079D02*
X267801Y-202031D01*
X267801Y-202031D02*
X277324Y-192508D01*
X277324Y-192508D02*
X296372Y-182984D01*
X448753Y-363936D02*
X458277Y-373460D01*
X458277Y-373460D02*
X448753Y-382984D01*
X448753Y-382984D02*
X439229Y-373460D01*
X439229Y-373460D02*
X448753Y-363936D01*
X448753Y-363936D02*
X448753Y-382984D01*
X572563Y-268698D02*
X553515Y-259174D01*
X553515Y-259174D02*
X543991Y-249650D01*
X543991Y-249650D02*
X534467Y-230603D01*
X534467Y-230603D02*
X534467Y-221079D01*
X534467Y-221079D02*
X543991Y-202031D01*
X543991Y-202031D02*
X553515Y-192508D01*
X553515Y-192508D02*
X572563Y-182984D01*
X572563Y-182984D02*
X610658Y-182984D01*
X610658Y-182984D02*
X629705Y-192508D01*
X629705Y-192508D02*
X639229Y-202031D01*
X639229Y-202031D02*
X648753Y-221079D01*
X648753Y-221079D02*
X648753Y-230603D01*
X648753Y-230603D02*
X639229Y-249650D01*
X639229Y-249650D02*
X629705Y-259174D01*
X629705Y-259174D02*
X610658Y-268698D01*
X610658Y-268698D02*
X572563Y-268698D01*
X572563Y-268698D02*
X553515Y-278222D01*
X553515Y-278222D02*
X543991Y-287746D01*
X543991Y-287746D02*
X534467Y-306793D01*
X534467Y-306793D02*
X534467Y-344889D01*
X534467Y-344889D02*
X543991Y-363936D01*
X543991Y-363936D02*
X553515Y-373460D01*
X553515Y-373460D02*
X572563Y-382984D01*
X572563Y-382984D02*
X610658Y-382984D01*
X610658Y-382984D02*
X629705Y-373460D01*
X629705Y-373460D02*
X639229Y-363936D01*
X639229Y-363936D02*
X648753Y-344889D01*
X648753Y-344889D02*
X648753Y-306793D01*
X648753Y-306793D02*
X639229Y-287746D01*
X639229Y-287746D02*
X629705Y-278222D01*
X629705Y-278222D02*
X610658Y-268698D01*
X772562Y-182984D02*
X791610Y-182984D01*
X791610Y-182984D02*
X810658Y-192508D01*
X810658Y-192508D02*
X820182Y-202031D01*
X820182Y-202031D02*
X829705Y-221079D01*
X829705Y-221079D02*
X839229Y-259174D01*
X839229Y-259174D02*
X839229Y-306793D01*
X839229Y-306793D02*
X829705Y-344889D01*
X829705Y-344889D02*
X820182Y-363936D01*
X820182Y-363936D02*
X810658Y-373460D01*
X810658Y-373460D02*
X791610Y-382984D01*
X791610Y-382984D02*
X772562Y-382984D01*
X772562Y-382984D02*
X753515Y-373460D01*
X753515Y-373460D02*
X743991Y-363936D01*
X743991Y-363936D02*
X734467Y-344889D01*
X734467Y-344889D02*
X724943Y-306793D01*
X724943Y-306793D02*
X724943Y-259174D01*
X724943Y-259174D02*
X734467Y-221079D01*
X734467Y-221079D02*
X743991Y-202031D01*
X743991Y-202031D02*
X753515Y-192508D01*
X753515Y-192508D02*
X772562Y-182984D01*
X963039Y-182984D02*
X982086Y-182984D01*
X982086Y-182984D02*
X1001134Y-192508D01*
X1001134Y-192508D02*
X1010658Y-202031D01*
X1010658Y-202031D02*
X1020182Y-221079D01*
X1020182Y-221079D02*
X1029705Y-259174D01*
X1029705Y-259174D02*
X1029705Y-306793D01*
X1029705Y-306793D02*
X1020182Y-344889D01*
X1020182Y-344889D02*
X1010658Y-363936D01*
X1010658Y-363936D02*
X1001134Y-373460D01*
X1001134Y-373460D02*
X982086Y-382984D01*
X982086Y-382984D02*
X963039Y-382984D01*
X963039Y-382984D02*
X943991Y-373460D01*
X943991Y-373460D02*
X934467Y-363936D01*
X934467Y-363936D02*
X924943Y-344889D01*
X924943Y-344889D02*
X915420Y-306793D01*
X915420Y-306793D02*
X915420Y-259174D01*
X915420Y-259174D02*
X924943Y-221079D01*
X924943Y-221079D02*
X934467Y-202031D01*
X934467Y-202031D02*
X943991Y-192508D01*
X943991Y-192508D02*
X963039Y-182984D01*
X1115420Y-382984D02*
X1115420Y-249650D01*
X1115420Y-268698D02*
X1124944Y-259174D01*
X1124944Y-259174D02*
X1143991Y-249650D01*
X1143991Y-249650D02*
X1172563Y-249650D01*
X1172563Y-249650D02*
X1191610Y-259174D01*
X1191610Y-259174D02*
X1201134Y-278222D01*
X1201134Y-278222D02*
X1201134Y-382984D01*
X1201134Y-278222D02*
X1210658Y-259174D01*
X1210658Y-259174D02*
X1229705Y-249650D01*
X1229705Y-249650D02*
X1258277Y-249650D01*
X1258277Y-249650D02*
X1277325Y-259174D01*
X1277325Y-259174D02*
X1286848Y-278222D01*
X1286848Y-278222D02*
X1286848Y-382984D01*
X1382086Y-382984D02*
X1382086Y-249650D01*
X1382086Y-268698D02*
X1391610Y-259174D01*
X1391610Y-259174D02*
X1410658Y-249650D01*
X1410658Y-249650D02*
X1439229Y-249650D01*
X1439229Y-249650D02*
X1458277Y-259174D01*
X1458277Y-259174D02*
X1467801Y-278222D01*
X1467801Y-278222D02*
X1467801Y-382984D01*
X1467801Y-278222D02*
X1477324Y-259174D01*
X1477324Y-259174D02*
X1496372Y-249650D01*
X1496372Y-249650D02*
X1524943Y-249650D01*
X1524943Y-249650D02*
X1543991Y-259174D01*
X1543991Y-259174D02*
X1553515Y-278222D01*
X1553515Y-278222D02*
X1553515Y-382984D01*
X1943991Y-173460D02*
X1772563Y-430603D01*
X2201134Y-182984D02*
X2220182Y-182984D01*
X2220182Y-182984D02*
X2239229Y-192508D01*
X2239229Y-192508D02*
X2248753Y-202031D01*
X2248753Y-202031D02*
X2258277Y-221079D01*
X2258277Y-221079D02*
X2267801Y-259174D01*
X2267801Y-259174D02*
X2267801Y-306793D01*
X2267801Y-306793D02*
X2258277Y-344889D01*
X2258277Y-344889D02*
X2248753Y-363936D01*
X2248753Y-363936D02*
X2239229Y-373460D01*
X2239229Y-373460D02*
X2220182Y-382984D01*
X2220182Y-382984D02*
X2201134Y-382984D01*
X2201134Y-382984D02*
X2182087Y-373460D01*
X2182087Y-373460D02*
X2172563Y-363936D01*
X2172563Y-363936D02*
X2163039Y-344889D01*
X2163039Y-344889D02*
X2153515Y-306793D01*
X2153515Y-306793D02*
X2153515Y-259174D01*
X2153515Y-259174D02*
X2163039Y-221079D01*
X2163039Y-221079D02*
X2172563Y-202031D01*
X2172563Y-202031D02*
X2182087Y-192508D01*
X2182087Y-192508D02*
X2201134Y-182984D01*
X2353515Y-363936D02*
X2363039Y-373460D01*
X2363039Y-373460D02*
X2353515Y-382984D01*
X2353515Y-382984D02*
X2343991Y-373460D01*
X2343991Y-373460D02*
X2353515Y-363936D01*
X2353515Y-363936D02*
X2353515Y-382984D01*
X2486848Y-182984D02*
X2505896Y-182984D01*
X2505896Y-182984D02*
X2524944Y-192508D01*
X2524944Y-192508D02*
X2534468Y-202031D01*
X2534468Y-202031D02*
X2543991Y-221079D01*
X2543991Y-221079D02*
X2553515Y-259174D01*
X2553515Y-259174D02*
X2553515Y-306793D01*
X2553515Y-306793D02*
X2543991Y-344889D01*
X2543991Y-344889D02*
X2534468Y-363936D01*
X2534468Y-363936D02*
X2524944Y-373460D01*
X2524944Y-373460D02*
X2505896Y-382984D01*
X2505896Y-382984D02*
X2486848Y-382984D01*
X2486848Y-382984D02*
X2467801Y-373460D01*
X2467801Y-373460D02*
X2458277Y-363936D01*
X2458277Y-363936D02*
X2448753Y-344889D01*
X2448753Y-344889D02*
X2439229Y-306793D01*
X2439229Y-306793D02*
X2439229Y-259174D01*
X2439229Y-259174D02*
X2448753Y-221079D01*
X2448753Y-221079D02*
X2458277Y-202031D01*
X2458277Y-202031D02*
X2467801Y-192508D01*
X2467801Y-192508D02*
X2486848Y-182984D01*
X2620182Y-182984D02*
X2743991Y-182984D01*
X2743991Y-182984D02*
X2677325Y-259174D01*
X2677325Y-259174D02*
X2705896Y-259174D01*
X2705896Y-259174D02*
X2724944Y-268698D01*
X2724944Y-268698D02*
X2734468Y-278222D01*
X2734468Y-278222D02*
X2743991Y-297270D01*
X2743991Y-297270D02*
X2743991Y-344889D01*
X2743991Y-344889D02*
X2734468Y-363936D01*
X2734468Y-363936D02*
X2724944Y-373460D01*
X2724944Y-373460D02*
X2705896Y-382984D01*
X2705896Y-382984D02*
X2648753Y-382984D01*
X2648753Y-382984D02*
X2629706Y-373460D01*
X2629706Y-373460D02*
X2620182Y-363936D01*
X2934467Y-382984D02*
X2820182Y-382984D01*
X2877325Y-382984D02*
X2877325Y-182984D01*
X2877325Y-182984D02*
X2858277Y-211555D01*
X2858277Y-211555D02*
X2839229Y-230603D01*
X2839229Y-230603D02*
X2820182Y-240127D01*
X3115420Y-182984D02*
X3020182Y-182984D01*
X3020182Y-182984D02*
X3010658Y-278222D01*
X3010658Y-278222D02*
X3020182Y-268698D01*
X3020182Y-268698D02*
X3039229Y-259174D01*
X3039229Y-259174D02*
X3086848Y-259174D01*
X3086848Y-259174D02*
X3105896Y-268698D01*
X3105896Y-268698D02*
X3115420Y-278222D01*
X3115420Y-278222D02*
X3124944Y-297270D01*
X3124944Y-297270D02*
X3124944Y-344889D01*
X3124944Y-344889D02*
X3115420Y-363936D01*
X3115420Y-363936D02*
X3105896Y-373460D01*
X3105896Y-373460D02*
X3086848Y-382984D01*
X3086848Y-382984D02*
X3039229Y-382984D01*
X3039229Y-382984D02*
X3020182Y-373460D01*
X3020182Y-373460D02*
X3010658Y-363936D01*
X3201134Y-182984D02*
X3201134Y-221079D01*
X3277325Y-182984D02*
X3277325Y-221079D01*
X3572563Y-459174D02*
X3563039Y-449650D01*
X3563039Y-449650D02*
X3543991Y-421079D01*
X3543991Y-421079D02*
X3534468Y-402031D01*
X3534468Y-402031D02*
X3524944Y-373460D01*
X3524944Y-373460D02*
X3515420Y-325841D01*
X3515420Y-325841D02*
X3515420Y-287746D01*
X3515420Y-287746D02*
X3524944Y-240127D01*
X3524944Y-240127D02*
X3534468Y-211555D01*
X3534468Y-211555D02*
X3543991Y-192508D01*
X3543991Y-192508D02*
X3563039Y-163936D01*
X3563039Y-163936D02*
X3572563Y-154412D01*
X3753515Y-382984D02*
X3639229Y-382984D01*
X3696372Y-382984D02*
X3696372Y-182984D01*
X3696372Y-182984D02*
X3677325Y-211555D01*
X3677325Y-211555D02*
X3658277Y-230603D01*
X3658277Y-230603D02*
X3639229Y-240127D01*
X3943991Y-382984D02*
X3829706Y-382984D01*
X3886848Y-382984D02*
X3886848Y-182984D01*
X3886848Y-182984D02*
X3867801Y-211555D01*
X3867801Y-211555D02*
X3848753Y-230603D01*
X3848753Y-230603D02*
X3829706Y-240127D01*
X4010658Y-182984D02*
X4134468Y-182984D01*
X4134468Y-182984D02*
X4067801Y-259174D01*
X4067801Y-259174D02*
X4096372Y-259174D01*
X4096372Y-259174D02*
X4115420Y-268698D01*
X4115420Y-268698D02*
X4124944Y-278222D01*
X4124944Y-278222D02*
X4134468Y-297270D01*
X4134468Y-297270D02*
X4134468Y-344889D01*
X4134468Y-344889D02*
X4124944Y-363936D01*
X4124944Y-363936D02*
X4115420Y-373460D01*
X4115420Y-373460D02*
X4096372Y-382984D01*
X4096372Y-382984D02*
X4039229Y-382984D01*
X4039229Y-382984D02*
X4020182Y-373460D01*
X4020182Y-373460D02*
X4010658Y-363936D01*
X4372563Y-382984D02*
X4372563Y-182984D01*
X4458277Y-382984D02*
X4458277Y-278222D01*
X4458277Y-278222D02*
X4448753Y-259174D01*
X4448753Y-259174D02*
X4429706Y-249650D01*
X4429706Y-249650D02*
X4401134Y-249650D01*
X4401134Y-249650D02*
X4382087Y-259174D01*
X4382087Y-259174D02*
X4372563Y-268698D01*
X4582087Y-382984D02*
X4563039Y-373460D01*
X4563039Y-373460D02*
X4553515Y-363936D01*
X4553515Y-363936D02*
X4543992Y-344889D01*
X4543992Y-344889D02*
X4543992Y-287746D01*
X4543992Y-287746D02*
X4553515Y-268698D01*
X4553515Y-268698D02*
X4563039Y-259174D01*
X4563039Y-259174D02*
X4582087Y-249650D01*
X4582087Y-249650D02*
X4610658Y-249650D01*
X4610658Y-249650D02*
X4629706Y-259174D01*
X4629706Y-259174D02*
X4639230Y-268698D01*
X4639230Y-268698D02*
X4648753Y-287746D01*
X4648753Y-287746D02*
X4648753Y-344889D01*
X4648753Y-344889D02*
X4639230Y-363936D01*
X4639230Y-363936D02*
X4629706Y-373460D01*
X4629706Y-373460D02*
X4610658Y-382984D01*
X4610658Y-382984D02*
X4582087Y-382984D01*
X4763039Y-382984D02*
X4743992Y-373460D01*
X4743992Y-373460D02*
X4734468Y-354412D01*
X4734468Y-354412D02*
X4734468Y-182984D01*
X4915420Y-373460D02*
X4896373Y-382984D01*
X4896373Y-382984D02*
X4858277Y-382984D01*
X4858277Y-382984D02*
X4839230Y-373460D01*
X4839230Y-373460D02*
X4829706Y-354412D01*
X4829706Y-354412D02*
X4829706Y-278222D01*
X4829706Y-278222D02*
X4839230Y-259174D01*
X4839230Y-259174D02*
X4858277Y-249650D01*
X4858277Y-249650D02*
X4896373Y-249650D01*
X4896373Y-249650D02*
X4915420Y-259174D01*
X4915420Y-259174D02*
X4924944Y-278222D01*
X4924944Y-278222D02*
X4924944Y-297270D01*
X4924944Y-297270D02*
X4829706Y-316317D01*
X5001134Y-373460D02*
X5020182Y-382984D01*
X5020182Y-382984D02*
X5058277Y-382984D01*
X5058277Y-382984D02*
X5077325Y-373460D01*
X5077325Y-373460D02*
X5086849Y-354412D01*
X5086849Y-354412D02*
X5086849Y-344889D01*
X5086849Y-344889D02*
X5077325Y-325841D01*
X5077325Y-325841D02*
X5058277Y-316317D01*
X5058277Y-316317D02*
X5029706Y-316317D01*
X5029706Y-316317D02*
X5010658Y-306793D01*
X5010658Y-306793D02*
X5001134Y-287746D01*
X5001134Y-287746D02*
X5001134Y-278222D01*
X5001134Y-278222D02*
X5010658Y-259174D01*
X5010658Y-259174D02*
X5029706Y-249650D01*
X5029706Y-249650D02*
X5058277Y-249650D01*
X5058277Y-249650D02*
X5077325Y-259174D01*
X5153515Y-459174D02*
X5163039Y-449650D01*
X5163039Y-449650D02*
X5182087Y-421079D01*
X5182087Y-421079D02*
X5191611Y-402031D01*
X5191611Y-402031D02*
X5201134Y-373460D01*
X5201134Y-373460D02*
X5210658Y-325841D01*
X5210658Y-325841D02*
X5210658Y-287746D01*
X5210658Y-287746D02*
X5201134Y-240127D01*
X5201134Y-240127D02*
X5191611Y-211555D01*
X5191611Y-211555D02*
X5182087Y-192508D01*
X5182087Y-192508D02*
X5163039Y-163936D01*
X5163039Y-163936D02*
X5153515Y-154412D01*
M02*
