G04 #@! TF.GenerationSoftware,KiCad,Pcbnew,9.0.5*
G04 #@! TF.CreationDate,2025-12-01T18:27:15+01:00*
G04 #@! TF.ProjectId,fotoaparat,666f746f-6170-4617-9261-742e6b696361,rev?*
G04 #@! TF.SameCoordinates,Original*
G04 #@! TF.FileFunction,Copper,L2,Bot*
G04 #@! TF.FilePolarity,Positive*
%FSLAX46Y46*%
G04 Gerber Fmt 4.6, Leading zero omitted, Abs format (unit mm)*
G04 Created by KiCad (PCBNEW 9.0.5) date 2025-12-01 18:27:15*
%MOMM*%
%LPD*%
G01*
G04 APERTURE LIST*
G04 Aperture macros list*
%AMRoundRect*
0 Rectangle with rounded corners*
0 $1 Rounding radius*
0 $2 $3 $4 $5 $6 $7 $8 $9 X,Y pos of 4 corners*
0 Add a 4 corners polygon primitive as box body*
4,1,4,$2,$3,$4,$5,$6,$7,$8,$9,$2,$3,0*
0 Add four circle primitives for the rounded corners*
1,1,$1+$1,$2,$3*
1,1,$1+$1,$4,$5*
1,1,$1+$1,$6,$7*
1,1,$1+$1,$8,$9*
0 Add four rect primitives between the rounded corners*
20,1,$1+$1,$2,$3,$4,$5,0*
20,1,$1+$1,$4,$5,$6,$7,0*
20,1,$1+$1,$6,$7,$8,$9,0*
20,1,$1+$1,$8,$9,$2,$3,0*%
G04 Aperture macros list end*
G04 #@! TA.AperFunction,ComponentPad*
%ADD10R,1.900000X2.300000*%
G04 #@! TD*
G04 #@! TA.AperFunction,ComponentPad*
%ADD11C,1.900000*%
G04 #@! TD*
G04 #@! TA.AperFunction,ComponentPad*
%ADD12RoundRect,0.250000X-0.550000X0.550000X-0.550000X-0.550000X0.550000X-0.550000X0.550000X0.550000X0*%
G04 #@! TD*
G04 #@! TA.AperFunction,ComponentPad*
%ADD13C,1.600000*%
G04 #@! TD*
G04 #@! TA.AperFunction,ComponentPad*
%ADD14C,2.300000*%
G04 #@! TD*
G04 #@! TA.AperFunction,ComponentPad*
%ADD15C,2.400000*%
G04 #@! TD*
G04 #@! TA.AperFunction,ComponentPad*
%ADD16R,2.400000X2.400000*%
G04 #@! TD*
G04 #@! TA.AperFunction,ComponentPad*
%ADD17O,2.400000X2.400000*%
G04 #@! TD*
G04 #@! TA.AperFunction,ComponentPad*
%ADD18RoundRect,0.250000X0.550000X-0.550000X0.550000X0.550000X-0.550000X0.550000X-0.550000X-0.550000X0*%
G04 #@! TD*
G04 #@! TA.AperFunction,ComponentPad*
%ADD19R,1.900000X1.900000*%
G04 #@! TD*
G04 #@! TA.AperFunction,SMDPad,CuDef*
%ADD20RoundRect,0.250000X-0.475000X0.337500X-0.475000X-0.337500X0.475000X-0.337500X0.475000X0.337500X0*%
G04 #@! TD*
G04 #@! TA.AperFunction,SMDPad,CuDef*
%ADD21RoundRect,0.150000X-0.512500X-0.150000X0.512500X-0.150000X0.512500X0.150000X-0.512500X0.150000X0*%
G04 #@! TD*
G04 #@! TA.AperFunction,SMDPad,CuDef*
%ADD22RoundRect,0.150000X0.512500X0.150000X-0.512500X0.150000X-0.512500X-0.150000X0.512500X-0.150000X0*%
G04 #@! TD*
G04 #@! TA.AperFunction,ComponentPad*
%ADD23R,2.400000X1.900000*%
G04 #@! TD*
G04 #@! TA.AperFunction,SMDPad,CuDef*
%ADD24RoundRect,0.175000X-0.175000X0.825000X-0.175000X-0.825000X0.175000X-0.825000X0.175000X0.825000X0*%
G04 #@! TD*
G04 #@! TA.AperFunction,SMDPad,CuDef*
%ADD25RoundRect,0.175000X-0.825000X-0.175000X0.825000X-0.175000X0.825000X0.175000X-0.825000X0.175000X0*%
G04 #@! TD*
G04 #@! TA.AperFunction,SMDPad,CuDef*
%ADD26RoundRect,0.175000X0.825000X0.175000X-0.825000X0.175000X-0.825000X-0.175000X0.825000X-0.175000X0*%
G04 #@! TD*
G04 #@! TA.AperFunction,ViaPad*
%ADD27C,2.400000*%
G04 #@! TD*
G04 #@! TA.AperFunction,Conductor*
%ADD28C,0.800000*%
G04 #@! TD*
G04 #@! TA.AperFunction,Conductor*
%ADD29C,0.601000*%
G04 #@! TD*
G04 APERTURE END LIST*
D10*
X35460000Y17500000D03*
D11*
X38000000Y17500000D03*
D12*
X44000000Y23500000D03*
D13*
X44000000Y21500000D03*
D14*
X83082341Y66480000D03*
X69082341Y66480000D03*
X83082341Y43480000D03*
X69082341Y43480000D03*
X79850000Y43480000D03*
X72150000Y43380000D03*
D15*
X78420000Y19112500D03*
X88580000Y19112500D03*
X63080000Y18887500D03*
X52920000Y18887500D03*
D16*
X83880000Y30668850D03*
D17*
X83860000Y33531150D03*
X83880000Y36331150D03*
D16*
X71862300Y19020000D03*
D17*
X69000000Y19000000D03*
X66200000Y19020000D03*
D15*
X87080000Y38887500D03*
X76920000Y38887500D03*
X77887500Y23420000D03*
X77887500Y33580000D03*
D16*
X71500000Y34500000D03*
D15*
X67500000Y34500000D03*
D18*
X89000000Y27000000D03*
D13*
X89000000Y29000000D03*
D16*
X38120000Y29331200D03*
D17*
X38140000Y26468900D03*
X38120000Y23668900D03*
D12*
X55500000Y28955100D03*
D13*
X55500000Y26955100D03*
D15*
X68580000Y22887500D03*
X58420000Y22887500D03*
D16*
X56500000Y34637700D03*
D17*
X56480000Y37500000D03*
X56500000Y40300000D03*
D10*
X62220000Y62150000D03*
D11*
X59680000Y62150000D03*
X57140000Y62150000D03*
X54600000Y62150000D03*
X52060000Y62150000D03*
X49520000Y62150000D03*
X46980000Y62150000D03*
X44440000Y62150000D03*
X41900000Y62150000D03*
X39360000Y62150000D03*
X36820000Y62150000D03*
X34280000Y62150000D03*
X31740000Y62150000D03*
X29200000Y62150000D03*
X26660000Y62150000D03*
X24120000Y62150000D03*
X21580000Y62150000D03*
X19040000Y62150000D03*
X16500000Y62150000D03*
X13960000Y62150000D03*
D10*
X62255000Y46920000D03*
D11*
X59715000Y46920000D03*
X57175000Y46920000D03*
X54635000Y46920000D03*
X52095000Y46920000D03*
X49555000Y46920000D03*
X47015000Y46920000D03*
X44475000Y46920000D03*
X41935000Y46920000D03*
X39395000Y46920000D03*
X36855000Y46920000D03*
X34315000Y46920000D03*
X31775000Y46920000D03*
X29235000Y46920000D03*
X26695000Y46920000D03*
X24155000Y46920000D03*
X21615000Y46920000D03*
X19075000Y46920000D03*
X16535000Y46920000D03*
X13995000Y46920000D03*
D19*
X9210000Y35210000D03*
D11*
X11750000Y35210000D03*
X9210000Y32670000D03*
X11750000Y32670000D03*
X9210000Y30130000D03*
X11750000Y30130000D03*
X9210000Y27590000D03*
X11750000Y27590000D03*
X9210000Y25050000D03*
X11750000Y25050000D03*
X9210000Y22510000D03*
X11750000Y22510000D03*
X9210000Y19970000D03*
X11750000Y19970000D03*
X9210000Y17430000D03*
X11750000Y17430000D03*
X9210000Y14890000D03*
X11750000Y14890000D03*
X9210000Y12350000D03*
X11750000Y12350000D03*
X9210000Y9810000D03*
X11750000Y9810000D03*
D10*
X31275000Y2572500D03*
D11*
X28735000Y2572500D03*
D20*
X55362500Y24575000D03*
X55362500Y22500000D03*
D21*
X80000000Y26550000D03*
X80000000Y27500000D03*
X80000000Y28450000D03*
X82275000Y28450000D03*
X82275000Y26550000D03*
D15*
X34112500Y26420000D03*
X34112500Y36580000D03*
X69225000Y46500000D03*
X69225000Y56660000D03*
X48080000Y33612500D03*
X37920000Y33612500D03*
X80500000Y56660000D03*
X80500000Y46500000D03*
D20*
X68637500Y30037500D03*
X68637500Y27962500D03*
D22*
X53000000Y23450000D03*
X53000000Y22500000D03*
X53000000Y21550000D03*
X50725000Y21550000D03*
X50725000Y23450000D03*
D15*
X51040000Y37356400D03*
X61200000Y37356400D03*
D20*
X77637500Y29537500D03*
X77637500Y27462500D03*
X82637500Y24537500D03*
X82637500Y22462500D03*
X61137500Y29000000D03*
X61137500Y26925000D03*
D23*
X93500000Y59440000D03*
D11*
X93500000Y56900000D03*
X93500000Y54360000D03*
X93500000Y51820000D03*
X93500000Y49280000D03*
X93500000Y46740000D03*
X93500000Y44200000D03*
X93500000Y41660000D03*
X93500000Y39120000D03*
X93500000Y36580000D03*
X93500000Y34040000D03*
X93500000Y31500000D03*
X93500000Y28960000D03*
X93500000Y26420000D03*
X8800000Y46780000D03*
X8800000Y44280000D03*
X8800000Y41580000D03*
X8800000Y38880000D03*
D22*
X66137500Y28950000D03*
X66137500Y28000000D03*
X66137500Y27050000D03*
X63862500Y27050000D03*
X63862500Y28950000D03*
D15*
X74612500Y19420000D03*
X74612500Y29580000D03*
D24*
X42050000Y30700000D03*
X43950000Y30700000D03*
X43000000Y27300000D03*
D20*
X47862500Y23537500D03*
X47862500Y21462500D03*
D15*
X43000000Y2000000D03*
X49000000Y2000000D03*
X43000000Y8000000D03*
X49000000Y8000000D03*
X62080000Y34112500D03*
X51920000Y34112500D03*
D25*
X33800000Y39550000D03*
X33800000Y41450000D03*
X37200000Y40500000D03*
D26*
X64200000Y41950000D03*
X64200000Y40050000D03*
X60800000Y41000000D03*
D27*
X20500000Y11000000D03*
X49250300Y28695200D03*
X40090400Y59001200D03*
X62133700Y8101600D03*
X83973300Y17529300D03*
X86697200Y53172100D03*
X86885700Y31904300D03*
X57693500Y18159200D03*
X76483100Y50352500D03*
X15525400Y31241100D03*
X41335000Y34006400D03*
X19011400Y50934400D03*
X9715300Y4129900D03*
X6648100Y62384500D03*
X47169600Y36442500D03*
X27269800Y40112000D03*
X96545500Y16599700D03*
X52789800Y27401800D03*
X15729900Y59283500D03*
X44266900Y41409700D03*
X78284800Y54689500D03*
X71526400Y50745400D03*
X72736800Y66695900D03*
X17959000Y33263400D03*
X19469700Y39595100D03*
X20866500Y30791800D03*
X40367900Y10110200D03*
X28451600Y16604400D03*
X29922400Y41990500D03*
X74627800Y52408300D03*
X54605600Y16605600D03*
X72446500Y62445100D03*
D28*
X71500000Y34500000D02*
X75268900Y34500000D01*
X80500000Y46500000D02*
X79850000Y45850000D01*
X75268900Y34500000D02*
X79850000Y39081100D01*
X79850000Y39081100D02*
X79850000Y43480000D01*
X79850000Y45850000D02*
X79850000Y43480000D01*
D29*
X53803500Y20695700D02*
X53000000Y21499200D01*
D28*
X70073700Y28686100D02*
X70073700Y27632600D01*
X80000000Y28751000D02*
X80000000Y28751200D01*
X69089500Y26206800D02*
X66980700Y26206800D01*
D29*
X66137500Y25011900D02*
X66137500Y27050000D01*
D28*
X70073700Y27632600D02*
X75647900Y27632600D01*
X49995200Y26793500D02*
X53000000Y23788700D01*
X70073700Y27632600D02*
X70073700Y27191000D01*
X61175400Y22878900D02*
X64004500Y22878900D01*
X77552800Y29537500D02*
X77637500Y29537500D01*
X53000000Y23788500D02*
X53000000Y23788700D01*
D29*
X66980700Y26206800D02*
X66137500Y27050000D01*
X66137500Y29005000D02*
X66137500Y28950000D01*
D28*
X48462600Y26793500D02*
X49995200Y26793500D01*
X47348600Y27907500D02*
X48462600Y26793500D01*
D29*
X77637500Y29537500D02*
X78423800Y28751200D01*
D28*
X58992200Y20695700D02*
X53803500Y20695700D01*
X67170000Y30037500D02*
X66137500Y29005000D01*
X47348600Y30700000D02*
X47348600Y27907500D01*
X61175400Y22878900D02*
X58992200Y20695700D01*
X68637500Y30037500D02*
X67170000Y30037500D01*
D29*
X55362500Y24575000D02*
X54576200Y23788700D01*
D28*
X64004500Y22878900D02*
X66137500Y25011900D01*
D29*
X80000000Y26146200D02*
X80000000Y26550000D01*
D28*
X47348600Y30700000D02*
X48080000Y31431400D01*
X70073700Y27191000D02*
X69089500Y26206800D01*
X68637500Y30037500D02*
X68722300Y30037500D01*
D29*
X80000000Y28751000D02*
X80000000Y28450000D01*
D28*
X68722300Y30037500D02*
X70073700Y28686100D01*
D29*
X78423800Y28751200D02*
X80000000Y28751200D01*
X53000000Y23788500D02*
X53000000Y23450000D01*
X80000000Y23994800D02*
X80000000Y26146200D01*
D28*
X80000000Y20692500D02*
X80000000Y23994800D01*
X55362500Y24575000D02*
X55604100Y24816600D01*
D29*
X53000000Y21499200D02*
X53000000Y21550000D01*
D28*
X75647900Y27260900D02*
X76762600Y26146200D01*
X76762600Y26146200D02*
X80000000Y26146200D01*
X59237700Y24816600D02*
X61175400Y22878900D01*
X75647900Y27632600D02*
X75647900Y27260900D01*
X48080000Y31431400D02*
X48080000Y33612500D01*
D29*
X54576200Y23788700D02*
X53000000Y23788700D01*
D28*
X75647900Y27632600D02*
X77552800Y29537500D01*
X78420000Y19112500D02*
X80000000Y20692500D01*
X55604100Y24816600D02*
X59237700Y24816600D01*
X43950000Y30700000D02*
X47348600Y30700000D01*
X57175000Y46463000D02*
X57175000Y46920000D01*
X47862500Y23537500D02*
X44037500Y23537500D01*
X49127900Y35254100D02*
X49127900Y38415900D01*
X50637500Y23537500D02*
X47862500Y23537500D01*
X50725000Y23450000D02*
X50637500Y23537500D01*
X49981700Y34400300D02*
X49127900Y35254100D01*
X49250300Y28695200D02*
X49981700Y29426600D01*
X44037500Y23537500D02*
X44000000Y23500000D01*
X49127900Y38415900D02*
X57175000Y46463000D01*
X49981700Y29426600D02*
X49981700Y34400300D01*
X55500000Y28955100D02*
X61092600Y28955100D01*
X7310000Y19242200D02*
X9122200Y17430000D01*
X9210000Y35210000D02*
X7310000Y35210000D01*
X9122200Y17430000D02*
X9210000Y17430000D01*
X7310000Y35210000D02*
X7310000Y19242200D01*
X63812500Y29000000D02*
X63862500Y28950000D01*
X61092600Y28955100D02*
X61137500Y29000000D01*
X61137500Y29000000D02*
X63812500Y29000000D01*
X82275000Y24900000D02*
X82275000Y26550000D01*
X82637500Y24537500D02*
X82275000Y24900000D01*
X84065200Y20870800D02*
X87776700Y17159300D01*
X93584400Y44320000D02*
X93700000Y44320000D01*
X89000000Y27000000D02*
X89209400Y27000000D01*
X82797400Y24537500D02*
X84065200Y23269700D01*
X82637500Y24537500D02*
X82797400Y24537500D01*
X90500200Y18317900D02*
X90500200Y25499800D01*
X90500200Y25499800D02*
X89000000Y27000000D01*
X89209400Y27000000D02*
X91176400Y28967000D01*
X87776700Y17159300D02*
X89341600Y17159300D01*
X91176400Y28967000D02*
X91176400Y41912000D01*
X89341600Y17159300D02*
X90500200Y18317900D01*
X91176400Y41912000D02*
X93584400Y44320000D01*
X84065200Y23269700D02*
X84065200Y20870800D01*
X89032700Y50836600D02*
X86697200Y53172100D01*
X46486800Y59001200D02*
X40090400Y59001200D01*
X74545600Y8101600D02*
X62133700Y8101600D01*
X89032700Y34051300D02*
X89032700Y50836600D01*
X49520000Y62034400D02*
X46486800Y59001200D01*
X52920000Y17920000D02*
X43000000Y8000000D01*
X49520000Y62150000D02*
X49520000Y62034400D01*
X86885700Y31904300D02*
X89032700Y34051300D01*
X83973300Y17529300D02*
X74545600Y8101600D01*
X52920000Y18887500D02*
X52920000Y17920000D01*
X77887500Y23420000D02*
X74612500Y20145000D01*
X74612500Y20145000D02*
X74612500Y19420000D01*
X62859200Y44229900D02*
X57685700Y44229900D01*
X64113200Y50016000D02*
X64113200Y45483900D01*
X52060000Y62069200D02*
X64113200Y50016000D01*
X52060000Y62150000D02*
X52060000Y62069200D01*
X64113200Y45483900D02*
X62859200Y44229900D01*
X57685700Y44229900D02*
X51040000Y37584200D01*
X51040000Y37584200D02*
X51040000Y37356400D01*
X76401700Y31369200D02*
X78433500Y31369200D01*
X49000000Y8000000D02*
X57693500Y16693500D01*
X78433500Y31369200D02*
X81173000Y34108700D01*
X57693500Y16693500D02*
X57693500Y18159200D01*
X81173000Y41570700D02*
X83082300Y43480000D01*
X74612500Y29580000D02*
X76401700Y31369200D01*
X81173000Y34108700D02*
X81173000Y41570700D01*
X76483100Y50352500D02*
X76483100Y39324400D01*
X70651500Y38887500D02*
X67589000Y41950000D01*
X76483100Y39324400D02*
X76920000Y38887500D01*
X67589000Y41950000D02*
X64200000Y41950000D01*
X76920000Y38887500D02*
X70651500Y38887500D01*
X31824100Y46870900D02*
X31775000Y46920000D01*
X34112500Y36580000D02*
X33800000Y36892500D01*
X33800000Y39550000D02*
X33437200Y39550000D01*
X31824100Y41163100D02*
X31824100Y46870900D01*
X33437200Y39550000D02*
X31824100Y41163100D01*
X33800000Y36892500D02*
X33800000Y39550000D01*
X45175100Y64034300D02*
X46980000Y62229400D01*
X13185100Y64034300D02*
X45175100Y64034300D01*
X9210000Y9810000D02*
X9064700Y9810000D01*
X9064700Y9810000D02*
X6204500Y12670200D01*
X46980000Y62229400D02*
X46980000Y62150000D01*
X6204500Y57053700D02*
X13185100Y64034300D01*
X6204500Y12670200D02*
X6204500Y57053700D01*
X12133400Y45977800D02*
X12133400Y50473400D01*
X12133400Y50473400D02*
X21580000Y59920000D01*
X15525400Y31241100D02*
X15525400Y42585800D01*
X21580000Y59920000D02*
X21580000Y62150000D01*
X15525400Y42585800D02*
X12133400Y45977800D01*
X11750000Y9666500D02*
X10041400Y7957900D01*
X10041400Y7957900D02*
X8382300Y7957900D01*
X5080100Y57508600D02*
X12712800Y65141300D01*
X8382300Y7957900D02*
X5080100Y11260100D01*
X12712800Y65141300D02*
X51748400Y65141300D01*
X54600000Y62289700D02*
X54600000Y62150000D01*
X51748400Y65141300D02*
X54600000Y62289700D01*
X5080100Y11260100D02*
X5080100Y57508600D01*
X11750000Y9810000D02*
X11750000Y9666500D01*
X55701800Y66251900D02*
X7826100Y66251900D01*
X17500000Y9225100D02*
X17500000Y14306800D01*
X59680000Y62273700D02*
X55701800Y66251900D01*
X17500000Y14306800D02*
X11836800Y19970000D01*
X11836800Y19970000D02*
X11750000Y19970000D01*
X59680000Y62150000D02*
X59680000Y62273700D01*
X8927600Y2228200D02*
X10503100Y2228200D01*
X10503100Y2228200D02*
X17500000Y9225100D01*
X2818900Y61244700D02*
X2818900Y8336900D01*
X7826100Y66251900D02*
X2818900Y61244700D01*
X2818900Y8336900D02*
X8927600Y2228200D01*
X49555000Y46920000D02*
X49555000Y42228600D01*
X41335000Y34008600D02*
X41335000Y34006400D01*
X49555000Y42228600D02*
X41335000Y34008600D01*
X29200000Y61123000D02*
X19011400Y50934400D01*
X29200000Y62150000D02*
X29200000Y61123000D01*
X6648100Y62384500D02*
X3932900Y59669300D01*
X3932900Y59669300D02*
X3932900Y9912300D01*
X3932900Y9912300D02*
X9715300Y4129900D01*
X35500000Y19450000D02*
X36014200Y19964200D01*
X36014200Y39314200D02*
X37200000Y40500000D01*
X36014200Y19964200D02*
X36014200Y39314200D01*
X35500000Y17500000D02*
X35500000Y19450000D01*
X11750000Y25050000D02*
X12435100Y25050000D01*
X12435100Y25050000D02*
X27269800Y39884700D01*
X47169600Y38285100D02*
X47169600Y36442500D01*
X52095000Y43210500D02*
X47169600Y38285100D01*
X27269800Y39884700D02*
X27269800Y40112000D01*
X52095000Y46920000D02*
X52095000Y43210500D01*
X95682600Y62523300D02*
X97770300Y60435600D01*
X76283500Y64096600D02*
X77397500Y65210600D01*
X77397500Y65210600D02*
X78973000Y65210600D01*
X58884000Y60293800D02*
X72996400Y60293800D01*
X57140000Y62150000D02*
X57140000Y62037800D01*
X81660200Y62523300D02*
X95682600Y62523300D01*
X97770300Y17824500D02*
X96545500Y16599700D01*
X76283500Y63580900D02*
X76283500Y64096600D01*
X57140000Y62037800D02*
X58884000Y60293800D01*
X78973000Y65210600D02*
X81660200Y62523400D01*
X81660200Y62523400D02*
X81660200Y62523300D01*
X97770300Y60435600D02*
X97770300Y17824500D01*
X72996400Y60293800D02*
X76283500Y63580900D01*
X59243100Y39443100D02*
X59243100Y33949500D01*
X38040000Y17500000D02*
X42132800Y21592800D01*
X55987500Y30693900D02*
X54785600Y30693900D01*
X59243100Y33949500D02*
X55987500Y30693900D01*
X52789800Y28698100D02*
X52789800Y27401800D01*
X42132800Y21592800D02*
X42132800Y26432800D01*
X42132800Y26432800D02*
X43000000Y27300000D01*
X60800000Y41000000D02*
X59243100Y39443100D01*
X54785600Y30693900D02*
X52789800Y28698100D01*
X13631200Y42385400D02*
X11021100Y44995500D01*
X11907200Y32670000D02*
X13631200Y34394000D01*
X13631200Y34394000D02*
X13631200Y42385400D01*
X11021100Y44995500D02*
X11021100Y54574700D01*
X11021100Y54574700D02*
X15729900Y59283500D01*
X11750000Y32670000D02*
X11907200Y32670000D01*
X93576100Y46860000D02*
X93700000Y46860000D01*
X91838200Y48597900D02*
X93576100Y46860000D01*
X93700000Y57020000D02*
X93582100Y57020000D01*
X91838200Y55276100D02*
X91838200Y48597900D01*
X93582100Y57020000D02*
X91838200Y55276100D01*
X47015000Y46920000D02*
X47015000Y44157800D01*
X47015000Y44157800D02*
X44266900Y41409700D01*
X87080000Y36080000D02*
X86408850Y36080000D01*
X86408850Y36080000D02*
X83860000Y33531150D01*
X87080000Y38887500D02*
X87080000Y36080000D01*
X85520000Y29700000D02*
X84911150Y29700000D01*
X84911150Y29700000D02*
X83880000Y30731150D01*
X88580000Y19112500D02*
X85520000Y22172500D01*
X85520000Y22172500D02*
X85520000Y29700000D01*
X71526400Y52030000D02*
X71526400Y50745400D01*
X78284800Y54689500D02*
X74185900Y54689500D01*
X74185900Y54689500D02*
X71526400Y52030000D01*
X37920000Y33612500D02*
X38120000Y33412500D01*
X38120000Y30700000D02*
X38120000Y29268900D01*
X42050000Y30700000D02*
X38120000Y30700000D01*
X38120000Y33412500D02*
X38120000Y30700000D01*
X20866500Y21462100D02*
X32218300Y10110300D01*
X20866500Y30791800D02*
X20866500Y21462100D01*
X40367900Y10110300D02*
X40367900Y10110200D01*
X32218300Y10110300D02*
X40367900Y10110300D01*
X68190900Y62150000D02*
X72736800Y66695900D01*
X62220000Y62150000D02*
X68190900Y62150000D01*
X19469700Y39595100D02*
X17959100Y38084500D01*
X17959100Y38084500D02*
X17959100Y33263400D01*
X17959100Y33263400D02*
X17959000Y33263400D01*
X95557700Y52720900D02*
X95557700Y40982100D01*
X93798600Y54480000D02*
X95557700Y52720900D01*
X29922400Y41990500D02*
X29922400Y18075200D01*
X93815600Y39240000D02*
X93700000Y39240000D01*
X95557700Y40982100D02*
X93815600Y39240000D01*
X29922400Y18075200D02*
X28451600Y16604400D01*
X93700000Y54480000D02*
X93798600Y54480000D01*
X93815600Y31620000D02*
X93700000Y31620000D01*
X96660900Y59952700D02*
X96660900Y34465300D01*
X95201900Y61411700D02*
X96660900Y59952700D01*
X74627800Y52408300D02*
X81442200Y52408300D01*
X81442200Y52408300D02*
X90445600Y61411700D01*
X96660900Y34465300D02*
X93815600Y31620000D01*
X90445600Y61411700D02*
X95201900Y61411700D01*
X69000000Y22467500D02*
X69000000Y19000000D01*
X68580000Y22887500D02*
X69000000Y22467500D01*
X83251400Y63625000D02*
X80550200Y66326200D01*
X47086100Y7218700D02*
X48258600Y6046200D01*
X76327600Y66326200D02*
X72446500Y62445100D01*
X98907800Y16215500D02*
X98907800Y60912700D01*
X96195500Y63625000D02*
X83251400Y63625000D01*
X80550200Y66326200D02*
X76327600Y66326200D01*
X88738500Y6046200D02*
X98907800Y16215500D01*
X54605600Y16605600D02*
X47086100Y9086100D01*
X48258600Y6046200D02*
X88738500Y6046200D01*
X47086100Y9086100D02*
X47086100Y7218700D01*
X98907800Y60912700D02*
X96195500Y63625000D01*
G04 #@! TA.AperFunction,Conductor*
G36*
X99742539Y68779815D02*
G01*
X99788294Y68727011D01*
X99799500Y68675500D01*
X99799500Y61213830D01*
X99779815Y61146791D01*
X99727011Y61101036D01*
X99657853Y61091092D01*
X99594297Y61120117D01*
X99560939Y61166378D01*
X99528578Y61244504D01*
X99528577Y61244504D01*
X99528575Y61244511D01*
X99451914Y61359242D01*
X99354342Y61456814D01*
X96642043Y64169114D01*
X96527311Y64245775D01*
X96527308Y64245776D01*
X96527307Y64245777D01*
X96463569Y64272177D01*
X96399828Y64298580D01*
X96355540Y64307389D01*
X96264496Y64325500D01*
X96264494Y64325500D01*
X96264493Y64325500D01*
X83592919Y64325500D01*
X83525880Y64345185D01*
X83505238Y64361819D01*
X83049237Y64817819D01*
X83015752Y64879142D01*
X83020736Y64948833D01*
X83062607Y65004767D01*
X83128072Y65029184D01*
X83136918Y65029500D01*
X83196503Y65029500D01*
X83422001Y65065215D01*
X83639144Y65135770D01*
X83842569Y65239421D01*
X83845985Y65241903D01*
X84027278Y65373621D01*
X84188720Y65535063D01*
X84322920Y65719772D01*
X84419574Y65909466D01*
X84426570Y65923196D01*
X84497125Y66140339D01*
X84532841Y66365837D01*
X84532841Y66594162D01*
X84497125Y66819660D01*
X84486614Y66852010D01*
X84426572Y67036799D01*
X84322920Y67240228D01*
X84188720Y67424937D01*
X84027278Y67586379D01*
X83842569Y67720579D01*
X83639140Y67824231D01*
X83422001Y67894784D01*
X83196503Y67930500D01*
X83196498Y67930500D01*
X82968184Y67930500D01*
X82968179Y67930500D01*
X82742680Y67894784D01*
X82641933Y67862049D01*
X82525542Y67824231D01*
X82525539Y67824229D01*
X82525537Y67824229D01*
X82418225Y67769550D01*
X82322113Y67720579D01*
X82137404Y67586379D01*
X82137402Y67586377D01*
X81975963Y67424938D01*
X81841762Y67240228D01*
X81738111Y67036803D01*
X81667556Y66819660D01*
X81631841Y66594162D01*
X81631841Y66534577D01*
X81612156Y66467538D01*
X81559352Y66421783D01*
X81490194Y66411839D01*
X81426638Y66440864D01*
X81420160Y66446896D01*
X81289254Y66577802D01*
X80996743Y66870314D01*
X80882011Y66946975D01*
X80882008Y66946976D01*
X80882007Y66946977D01*
X80818269Y66973377D01*
X80754528Y66999780D01*
X80710240Y67008589D01*
X80619196Y67026700D01*
X80619194Y67026700D01*
X80619193Y67026700D01*
X76258607Y67026700D01*
X76258606Y67026700D01*
X76240537Y67023105D01*
X76150191Y67005134D01*
X76150189Y67005134D01*
X76123277Y66999782D01*
X76123272Y66999780D01*
X76123271Y66999780D01*
X76094390Y66987817D01*
X75995790Y66946976D01*
X75881054Y66870312D01*
X75881053Y66870311D01*
X72943323Y63932580D01*
X72882000Y63899095D01*
X72817325Y63902330D01*
X72797868Y63908653D01*
X72710959Y63922418D01*
X72564597Y63945600D01*
X72564592Y63945600D01*
X72328408Y63945600D01*
X72328403Y63945600D01*
X72095131Y63908653D01*
X72003405Y63878849D01*
X71870508Y63835668D01*
X71870505Y63835666D01*
X71870503Y63835666D01*
X71759491Y63779102D01*
X71660067Y63728443D01*
X71468990Y63589617D01*
X71301983Y63422610D01*
X71193592Y63273423D01*
X71163157Y63231533D01*
X71055933Y63021096D01*
X70982946Y62796468D01*
X70946000Y62563197D01*
X70946000Y62327002D01*
X70982946Y62093731D01*
X71055933Y61869103D01*
X71163157Y61658666D01*
X71222847Y61576511D01*
X71301983Y61467590D01*
X71301985Y61467588D01*
X71301985Y61467587D01*
X71468987Y61300585D01*
X71468990Y61300583D01*
X71552398Y61239983D01*
X71581805Y61218618D01*
X71624470Y61163288D01*
X71630449Y61093674D01*
X71597843Y61031879D01*
X71537004Y60997522D01*
X71508919Y60994300D01*
X63594500Y60994300D01*
X63585814Y60996850D01*
X63576853Y60995562D01*
X63552812Y61006540D01*
X63527461Y61013985D01*
X63521533Y61020825D01*
X63513297Y61024587D01*
X63499007Y61046821D01*
X63481706Y61066789D01*
X63479418Y61077303D01*
X63475523Y61083365D01*
X63470500Y61118300D01*
X63470500Y61325500D01*
X63490185Y61392539D01*
X63542989Y61438294D01*
X63594500Y61449500D01*
X68259896Y61449500D01*
X68395222Y61476418D01*
X68395232Y61476421D01*
X68522707Y61529222D01*
X68637445Y61605887D01*
X68637446Y61605888D01*
X72239975Y65208418D01*
X72301298Y65241903D01*
X72365970Y65238669D01*
X72385428Y65232347D01*
X72618703Y65195400D01*
X72618708Y65195400D01*
X72854897Y65195400D01*
X73088168Y65232346D01*
X73312796Y65305333D01*
X73523233Y65412557D01*
X73525245Y65414019D01*
X73714310Y65551383D01*
X73881317Y65718390D01*
X74020143Y65909467D01*
X74070802Y66008891D01*
X74127366Y66119903D01*
X74134007Y66140340D01*
X74171336Y66255226D01*
X74200353Y66344531D01*
X74237300Y66577802D01*
X74237300Y66813997D01*
X74200353Y67047268D01*
X74137656Y67240228D01*
X74127368Y67271892D01*
X74020143Y67482333D01*
X73881317Y67673410D01*
X73714310Y67840417D01*
X73523233Y67979243D01*
X73312792Y68086468D01*
X73088168Y68159453D01*
X72854897Y68196400D01*
X72854892Y68196400D01*
X72618708Y68196400D01*
X72618703Y68196400D01*
X72385431Y68159453D01*
X72281212Y68125589D01*
X72160808Y68086468D01*
X72160805Y68086466D01*
X72160803Y68086466D01*
X72049791Y68029902D01*
X71950367Y67979243D01*
X71759290Y67840417D01*
X71592283Y67673410D01*
X71529050Y67586377D01*
X71453457Y67482333D01*
X71346233Y67271896D01*
X71273246Y67047268D01*
X71236300Y66813997D01*
X71236300Y66577802D01*
X71273247Y66344529D01*
X71279570Y66325067D01*
X71281562Y66255226D01*
X71249318Y66199074D01*
X69560343Y64510100D01*
X67937062Y62886819D01*
X67875739Y62853334D01*
X67849381Y62850500D01*
X63594499Y62850500D01*
X63527460Y62870185D01*
X63481705Y62922989D01*
X63470499Y62974500D01*
X63470499Y63344856D01*
X63470499Y63344864D01*
X63469525Y63353264D01*
X63467586Y63369987D01*
X63467585Y63369988D01*
X63467585Y63369991D01*
X63422206Y63472765D01*
X63342765Y63552206D01*
X63239991Y63597585D01*
X63214865Y63600500D01*
X61225136Y63600499D01*
X61225122Y63600497D01*
X61225117Y63600497D01*
X61200012Y63597586D01*
X61200010Y63597585D01*
X61200009Y63597585D01*
X61097235Y63552206D01*
X61017794Y63472765D01*
X60972415Y63369993D01*
X60972415Y63369991D01*
X60969500Y63344868D01*
X60969500Y62884266D01*
X60949815Y62817227D01*
X60897011Y62771472D01*
X60827853Y62761528D01*
X60764297Y62790553D01*
X60745186Y62811375D01*
X60633828Y62964646D01*
X60494646Y63103828D01*
X60335405Y63219524D01*
X60160025Y63308884D01*
X59972826Y63369709D01*
X59971033Y63369993D01*
X59778422Y63400500D01*
X59778417Y63400500D01*
X59595217Y63400500D01*
X59528178Y63420185D01*
X59507536Y63436819D01*
X56433010Y66511348D01*
X56350196Y66594162D01*
X67631841Y66594162D01*
X67631841Y66365837D01*
X67667556Y66140339D01*
X67738111Y65923196D01*
X67841762Y65719771D01*
X67975963Y65535061D01*
X68137402Y65373622D01*
X68322112Y65239421D01*
X68525537Y65135770D01*
X68742680Y65065215D01*
X68968179Y65029500D01*
X68968184Y65029500D01*
X69196503Y65029500D01*
X69422001Y65065215D01*
X69639144Y65135770D01*
X69842569Y65239421D01*
X69845985Y65241903D01*
X70027278Y65373621D01*
X70188720Y65535063D01*
X70322920Y65719772D01*
X70419574Y65909466D01*
X70426570Y65923196D01*
X70497125Y66140339D01*
X70532841Y66365837D01*
X70532841Y66594162D01*
X70497125Y66819660D01*
X70486614Y66852010D01*
X70426572Y67036799D01*
X70322920Y67240228D01*
X70188720Y67424937D01*
X70027278Y67586379D01*
X69842569Y67720579D01*
X69639140Y67824231D01*
X69422001Y67894784D01*
X69196503Y67930500D01*
X69196498Y67930500D01*
X68968184Y67930500D01*
X68968179Y67930500D01*
X68742680Y67894784D01*
X68641933Y67862049D01*
X68525542Y67824231D01*
X68525539Y67824229D01*
X68525537Y67824229D01*
X68418225Y67769550D01*
X68322113Y67720579D01*
X68137404Y67586379D01*
X68137402Y67586377D01*
X67975963Y67424938D01*
X67841762Y67240228D01*
X67738111Y67036803D01*
X67667556Y66819660D01*
X67631841Y66594162D01*
X56350196Y66594162D01*
X56148346Y66796011D01*
X56148345Y66796012D01*
X56148344Y66796012D01*
X56148343Y66796014D01*
X56033611Y66872675D01*
X56033608Y66872676D01*
X56033607Y66872677D01*
X55969869Y66899077D01*
X55906128Y66925480D01*
X55861840Y66934289D01*
X55770796Y66952400D01*
X55770794Y66952400D01*
X55770793Y66952400D01*
X7757107Y66952400D01*
X7757106Y66952400D01*
X7739037Y66948805D01*
X7648691Y66930834D01*
X7648689Y66930834D01*
X7621777Y66925482D01*
X7621772Y66925480D01*
X7621771Y66925480D01*
X7592890Y66913517D01*
X7494290Y66872676D01*
X7379554Y66796012D01*
X2274787Y61691245D01*
X2198122Y61576507D01*
X2145321Y61449032D01*
X2145318Y61449020D01*
X2127461Y61359245D01*
X2127461Y61359243D01*
X2121971Y61331643D01*
X2118400Y61313693D01*
X2118400Y8267903D01*
X2118399Y8267903D01*
X2145318Y8132577D01*
X2145321Y8132567D01*
X2198122Y8005092D01*
X2274787Y7890354D01*
X2274788Y7890353D01*
X8383486Y1781658D01*
X8481057Y1684087D01*
X8481060Y1684084D01*
X8481062Y1684082D01*
X8595786Y1607426D01*
X8595791Y1607423D01*
X8670463Y1576492D01*
X8670464Y1576493D01*
X8723273Y1554619D01*
X8736731Y1551942D01*
X8750189Y1549265D01*
X8750190Y1549265D01*
X8858603Y1527700D01*
X8858607Y1527700D01*
X10572096Y1527700D01*
X10707422Y1554618D01*
X10707432Y1554621D01*
X10834907Y1607422D01*
X10949645Y1684087D01*
X11936480Y2670922D01*
X27484500Y2670922D01*
X27484500Y2474077D01*
X27515290Y2279673D01*
X27576117Y2092470D01*
X27665476Y1917094D01*
X27691041Y1881908D01*
X27781172Y1757854D01*
X27781174Y1757852D01*
X27781174Y1757851D01*
X27920351Y1618674D01*
X28079594Y1502976D01*
X28254970Y1413617D01*
X28442173Y1352790D01*
X28636578Y1322000D01*
X28636583Y1322000D01*
X28833422Y1322000D01*
X29027826Y1352790D01*
X29215029Y1413617D01*
X29390405Y1502976D01*
X29424434Y1527700D01*
X29549646Y1618672D01*
X29688828Y1757854D01*
X29800184Y1911121D01*
X29855512Y1953785D01*
X29925125Y1959764D01*
X29986920Y1927158D01*
X30021278Y1866319D01*
X30024500Y1838234D01*
X30024500Y1377643D01*
X30024502Y1377617D01*
X30027413Y1352512D01*
X30027415Y1352508D01*
X30072793Y1249735D01*
X30152234Y1170294D01*
X30255007Y1124915D01*
X30280134Y1122000D01*
X30280135Y1122000D01*
X32269856Y1122000D01*
X32269882Y1122002D01*
X32294987Y1124913D01*
X32294991Y1124915D01*
X32397764Y1170293D01*
X32477205Y1249734D01*
X32477206Y1249735D01*
X32522585Y1352509D01*
X32525500Y1377635D01*
X32525499Y2118097D01*
X41499500Y2118097D01*
X41499500Y1881902D01*
X41536446Y1648631D01*
X41609433Y1424003D01*
X41716657Y1213566D01*
X41795862Y1104550D01*
X41855483Y1022490D01*
X41855485Y1022488D01*
X41855485Y1022487D01*
X42022487Y855485D01*
X42213566Y716657D01*
X42424003Y609433D01*
X42648631Y536446D01*
X42881903Y499500D01*
X42881908Y499500D01*
X43118097Y499500D01*
X43351368Y536446D01*
X43575996Y609433D01*
X43786433Y716657D01*
X43977510Y855483D01*
X44144517Y1022490D01*
X44283343Y1213567D01*
X44354137Y1352508D01*
X44390566Y1424003D01*
X44463553Y1648631D01*
X44500500Y1881902D01*
X44500500Y2118097D01*
X47499500Y2118097D01*
X47499500Y1881902D01*
X47536446Y1648631D01*
X47609433Y1424003D01*
X47716657Y1213566D01*
X47795862Y1104550D01*
X47855483Y1022490D01*
X47855485Y1022488D01*
X47855485Y1022487D01*
X48022487Y855485D01*
X48213566Y716657D01*
X48424003Y609433D01*
X48648631Y536446D01*
X48881903Y499500D01*
X48881908Y499500D01*
X49118097Y499500D01*
X49351368Y536446D01*
X49575996Y609433D01*
X49786433Y716657D01*
X49977510Y855483D01*
X50144517Y1022490D01*
X50283343Y1213567D01*
X50354137Y1352508D01*
X50390566Y1424003D01*
X50463553Y1648631D01*
X50500500Y1881902D01*
X50500500Y2118097D01*
X50463553Y2351368D01*
X50423680Y2474083D01*
X50390568Y2575992D01*
X50283343Y2786433D01*
X50144517Y2977510D01*
X50004023Y3118004D01*
X95199500Y3118004D01*
X95199500Y2881995D01*
X95199501Y2881979D01*
X95230306Y2647989D01*
X95291394Y2420006D01*
X95381714Y2201954D01*
X95381719Y2201943D01*
X95499730Y1997545D01*
X95643406Y1810302D01*
X95643412Y1810295D01*
X95810295Y1643412D01*
X95810302Y1643406D01*
X95997545Y1499730D01*
X96201943Y1381719D01*
X96201954Y1381714D01*
X96420006Y1291394D01*
X96647989Y1230306D01*
X96881979Y1199501D01*
X96881983Y1199500D01*
X96881989Y1199500D01*
X96881996Y1199500D01*
X97118004Y1199500D01*
X97118011Y1199500D01*
X97118017Y1199500D01*
X97118020Y1199501D01*
X97352010Y1230306D01*
X97579993Y1291394D01*
X97798045Y1381714D01*
X97798056Y1381719D01*
X97920957Y1452677D01*
X98002450Y1499727D01*
X98038905Y1527700D01*
X98189697Y1643406D01*
X98189704Y1643412D01*
X98356587Y1810295D01*
X98356593Y1810302D01*
X98500269Y1997545D01*
X98500273Y1997550D01*
X98576118Y2128918D01*
X98618280Y2201943D01*
X98618285Y2201954D01*
X98708606Y2420007D01*
X98769693Y2647986D01*
X98800500Y2881989D01*
X98800500Y3118011D01*
X98769693Y3352014D01*
X98708606Y3579993D01*
X98618284Y3798049D01*
X98500273Y4002450D01*
X98356592Y4189699D01*
X98189699Y4356592D01*
X98002450Y4500273D01*
X97798049Y4618284D01*
X97579993Y4708606D01*
X97352014Y4769693D01*
X97118011Y4800500D01*
X96881989Y4800500D01*
X96647986Y4769693D01*
X96420007Y4708606D01*
X96201951Y4618284D01*
X96201948Y4618282D01*
X96201943Y4618280D01*
X96128918Y4576118D01*
X95997550Y4500273D01*
X95972782Y4481268D01*
X95810302Y4356593D01*
X95810295Y4356587D01*
X95643412Y4189704D01*
X95643406Y4189697D01*
X95513259Y4020085D01*
X95499727Y4002450D01*
X95452677Y3920957D01*
X95381719Y3798056D01*
X95381714Y3798045D01*
X95291394Y3579993D01*
X95230306Y3352010D01*
X95199501Y3118020D01*
X95199500Y3118004D01*
X50004023Y3118004D01*
X49977510Y3144517D01*
X49786433Y3283343D01*
X49575992Y3390568D01*
X49351368Y3463553D01*
X49118097Y3500500D01*
X49118092Y3500500D01*
X48881908Y3500500D01*
X48881903Y3500500D01*
X48648631Y3463553D01*
X48544412Y3429689D01*
X48424008Y3390568D01*
X48424005Y3390566D01*
X48424003Y3390566D01*
X48312991Y3334002D01*
X48213567Y3283343D01*
X48022490Y3144517D01*
X47855483Y2977510D01*
X47716657Y2786433D01*
X47609433Y2575996D01*
X47536446Y2351368D01*
X47499500Y2118097D01*
X44500500Y2118097D01*
X44463553Y2351368D01*
X44423680Y2474083D01*
X44390568Y2575992D01*
X44283343Y2786433D01*
X44144517Y2977510D01*
X43977510Y3144517D01*
X43786433Y3283343D01*
X43575992Y3390568D01*
X43351368Y3463553D01*
X43118097Y3500500D01*
X43118092Y3500500D01*
X42881908Y3500500D01*
X42881903Y3500500D01*
X42648631Y3463553D01*
X42544412Y3429689D01*
X42424008Y3390568D01*
X42424005Y3390566D01*
X42424003Y3390566D01*
X42312991Y3334002D01*
X42213567Y3283343D01*
X42022490Y3144517D01*
X41855483Y2977510D01*
X41716657Y2786433D01*
X41609433Y2575996D01*
X41536446Y2351368D01*
X41499500Y2118097D01*
X32525499Y2118097D01*
X32525499Y2575992D01*
X32525499Y3767356D01*
X32525499Y3767364D01*
X32522618Y3792209D01*
X32522586Y3792487D01*
X32522585Y3792488D01*
X32522585Y3792491D01*
X32477206Y3895265D01*
X32397765Y3974706D01*
X32294991Y4020085D01*
X32269865Y4023000D01*
X30280136Y4022999D01*
X30280122Y4022997D01*
X30280117Y4022997D01*
X30255012Y4020086D01*
X30255010Y4020085D01*
X30255009Y4020085D01*
X30152235Y3974706D01*
X30072794Y3895265D01*
X30027415Y3792493D01*
X30027415Y3792491D01*
X30024500Y3767368D01*
X30024500Y3306766D01*
X30004815Y3239727D01*
X29952011Y3193972D01*
X29882853Y3184028D01*
X29819297Y3213053D01*
X29800186Y3233875D01*
X29688828Y3387146D01*
X29549646Y3526328D01*
X29390405Y3642024D01*
X29215025Y3731384D01*
X29027826Y3792209D01*
X28990979Y3798045D01*
X28833422Y3823000D01*
X28833417Y3823000D01*
X28636583Y3823000D01*
X28636578Y3823000D01*
X28442173Y3792209D01*
X28365765Y3767382D01*
X28254975Y3731384D01*
X28254972Y3731382D01*
X28254970Y3731382D01*
X28162455Y3684243D01*
X28079595Y3642024D01*
X27920354Y3526328D01*
X27781172Y3387146D01*
X27705754Y3283342D01*
X27665476Y3227905D01*
X27576117Y3052529D01*
X27515290Y2865326D01*
X27484500Y2670922D01*
X11936480Y2670922D01*
X18044112Y8778554D01*
X18120777Y8893292D01*
X18173578Y9020767D01*
X18173581Y9020777D01*
X18200500Y9156103D01*
X18200500Y14375795D01*
X18173581Y14511122D01*
X18173580Y14511128D01*
X18120775Y14638611D01*
X18089330Y14685672D01*
X18044114Y14753343D01*
X13034969Y19762486D01*
X13001486Y19823807D01*
X13000262Y19866720D01*
X13000118Y19866732D01*
X13000223Y19868076D01*
X13000181Y19869570D01*
X13000500Y19871583D01*
X13000500Y20068417D01*
X13000500Y20068422D01*
X12969709Y20262826D01*
X12964757Y20278066D01*
X12908884Y20450025D01*
X12819524Y20625405D01*
X12703828Y20784646D01*
X12564646Y20923828D01*
X12405405Y21039524D01*
X12330186Y21077850D01*
X12228787Y21129515D01*
X12177990Y21177489D01*
X12161195Y21245310D01*
X12183732Y21311445D01*
X12228787Y21350485D01*
X12405403Y21440474D01*
X12481240Y21495574D01*
X12564646Y21556172D01*
X12703828Y21695354D01*
X12819524Y21854595D01*
X12886605Y21986250D01*
X12908882Y22029970D01*
X12969709Y22217173D01*
X13000500Y22411577D01*
X13000500Y22608422D01*
X12969709Y22802826D01*
X12961131Y22829225D01*
X12908884Y22990025D01*
X12819524Y23165405D01*
X12703828Y23324646D01*
X12564646Y23463828D01*
X12405405Y23579524D01*
X12306703Y23629815D01*
X12228787Y23669515D01*
X12177990Y23717489D01*
X12161195Y23785310D01*
X12183732Y23851445D01*
X12228787Y23890485D01*
X12405403Y23980474D01*
X12453246Y24015234D01*
X12564646Y24096172D01*
X12703828Y24235354D01*
X12793925Y24359361D01*
X12819521Y24394590D01*
X12819523Y24394594D01*
X12819524Y24394595D01*
X12861687Y24477346D01*
X12884491Y24508733D01*
X19154319Y30778561D01*
X19215642Y30812046D01*
X19285334Y30807062D01*
X19341267Y30765190D01*
X19365684Y30699726D01*
X19366000Y30690880D01*
X19366000Y30673702D01*
X19402946Y30440431D01*
X19475933Y30215803D01*
X19583157Y30005366D01*
X19636926Y29931360D01*
X19721983Y29814290D01*
X19721985Y29814288D01*
X19721985Y29814287D01*
X19888987Y29647285D01*
X20080069Y29508455D01*
X20098299Y29499166D01*
X20149093Y29451190D01*
X20166000Y29388683D01*
X20166000Y21393103D01*
X20165999Y21393103D01*
X20192918Y21257777D01*
X20192921Y21257767D01*
X20245722Y21130292D01*
X20322387Y21015554D01*
X31771754Y9566187D01*
X31806351Y9543071D01*
X31845109Y9517174D01*
X31865870Y9503301D01*
X31886491Y9489523D01*
X32013967Y9436721D01*
X32013977Y9436718D01*
X32149305Y9409800D01*
X32149307Y9409800D01*
X38964734Y9409800D01*
X39031773Y9390115D01*
X39075218Y9342094D01*
X39078761Y9335143D01*
X39084557Y9323766D01*
X39140973Y9246117D01*
X39223383Y9132690D01*
X39223385Y9132688D01*
X39223385Y9132687D01*
X39390387Y8965685D01*
X39581466Y8826857D01*
X39791903Y8719633D01*
X40016531Y8646646D01*
X40249803Y8609700D01*
X40249808Y8609700D01*
X40485997Y8609700D01*
X40719268Y8646646D01*
X40943896Y8719633D01*
X41154333Y8826857D01*
X41170247Y8838419D01*
X41345410Y8965683D01*
X41512417Y9132690D01*
X41651243Y9323767D01*
X41708796Y9436721D01*
X41758466Y9534203D01*
X41760550Y9540615D01*
X41831453Y9758832D01*
X41868400Y9992102D01*
X41868400Y10228297D01*
X41831453Y10461568D01*
X41806125Y10539518D01*
X41758468Y10686192D01*
X41651243Y10896633D01*
X41512417Y11087710D01*
X41345410Y11254717D01*
X41154333Y11393543D01*
X40943892Y11500768D01*
X40719268Y11573753D01*
X40709753Y11575260D01*
X40485997Y11610700D01*
X40485992Y11610700D01*
X40249808Y11610700D01*
X40249803Y11610700D01*
X40016531Y11573753D01*
X39944219Y11550257D01*
X39791908Y11500768D01*
X39791905Y11500766D01*
X39791903Y11500766D01*
X39680891Y11444202D01*
X39581467Y11393543D01*
X39390390Y11254717D01*
X39223383Y11087710D01*
X39084557Y10896633D01*
X39075319Y10878503D01*
X39027344Y10827708D01*
X38964835Y10810800D01*
X32559819Y10810800D01*
X32492780Y10830485D01*
X32472138Y10847119D01*
X30489228Y12830029D01*
X28427036Y14892219D01*
X28393552Y14953542D01*
X28398536Y15023234D01*
X28440408Y15079167D01*
X28505872Y15103584D01*
X28514718Y15103900D01*
X28569697Y15103900D01*
X28802968Y15140846D01*
X29027596Y15213833D01*
X29238033Y15321057D01*
X29241715Y15323732D01*
X29429110Y15459883D01*
X29596117Y15626890D01*
X29734943Y15817967D01*
X29798335Y15942380D01*
X29842166Y16028403D01*
X29849022Y16049501D01*
X29908139Y16231445D01*
X29915153Y16253031D01*
X29952100Y16486302D01*
X29952100Y16722497D01*
X29916071Y16949970D01*
X29915153Y16955768D01*
X29908830Y16975224D01*
X29906834Y17045061D01*
X29939080Y17101223D01*
X30466509Y17628651D01*
X30466512Y17628654D01*
X30479032Y17647392D01*
X30522641Y17712658D01*
X30543175Y17743389D01*
X30545919Y17750012D01*
X30585904Y17846546D01*
X30595980Y17870872D01*
X30595981Y17870877D01*
X30596090Y17871420D01*
X30604231Y17912352D01*
X30605653Y17919500D01*
X30622900Y18006207D01*
X30622900Y40587383D01*
X30642585Y40654422D01*
X30690601Y40697866D01*
X30708830Y40707155D01*
X30708833Y40707157D01*
X30899910Y40845983D01*
X30978928Y40925001D01*
X31040251Y40958486D01*
X31109943Y40953502D01*
X31165876Y40911630D01*
X31181169Y40884774D01*
X31203322Y40831293D01*
X31279987Y40716554D01*
X32463181Y39533360D01*
X32496666Y39472037D01*
X32499500Y39445680D01*
X32499500Y39329519D01*
X32499501Y39329509D01*
X32505587Y39272885D01*
X32553372Y39144773D01*
X32635313Y39035313D01*
X32744771Y38953373D01*
X32872889Y38905587D01*
X32929498Y38899500D01*
X32929515Y38899500D01*
X32975500Y38899500D01*
X33042539Y38879815D01*
X33088294Y38827011D01*
X33099500Y38775500D01*
X33099500Y37740389D01*
X33079815Y37673350D01*
X33063181Y37652708D01*
X32967983Y37557510D01*
X32849656Y37394647D01*
X32829157Y37366433D01*
X32721933Y37155996D01*
X32648946Y36931368D01*
X32612000Y36698097D01*
X32612000Y36461902D01*
X32648946Y36228631D01*
X32721933Y36004003D01*
X32829157Y35793566D01*
X32908362Y35684550D01*
X32967983Y35602490D01*
X32967985Y35602488D01*
X32967985Y35602487D01*
X33134987Y35435485D01*
X33326066Y35296657D01*
X33536503Y35189433D01*
X33761131Y35116446D01*
X33994403Y35079500D01*
X33994408Y35079500D01*
X34230597Y35079500D01*
X34463868Y35116446D01*
X34688496Y35189433D01*
X34898933Y35296657D01*
X34909989Y35304690D01*
X35090010Y35435483D01*
X35102019Y35447492D01*
X35163342Y35480977D01*
X35233034Y35475993D01*
X35288967Y35434121D01*
X35313384Y35368657D01*
X35313700Y35359811D01*
X35313700Y27640189D01*
X35294015Y27573150D01*
X35241211Y27527395D01*
X35172053Y27517451D01*
X35108497Y27546476D01*
X35102019Y27552508D01*
X35090010Y27564517D01*
X34898933Y27703343D01*
X34688492Y27810568D01*
X34463868Y27883553D01*
X34230597Y27920500D01*
X34230592Y27920500D01*
X33994408Y27920500D01*
X33994403Y27920500D01*
X33761131Y27883553D01*
X33704718Y27865223D01*
X33536508Y27810568D01*
X33536505Y27810566D01*
X33536503Y27810566D01*
X33431997Y27757317D01*
X33326067Y27703343D01*
X33134990Y27564517D01*
X32967983Y27397510D01*
X32847008Y27231003D01*
X32829157Y27206433D01*
X32721933Y26995996D01*
X32648946Y26771368D01*
X32612000Y26538097D01*
X32612000Y26301902D01*
X32648946Y26068631D01*
X32721933Y25844003D01*
X32829157Y25633566D01*
X32876218Y25568793D01*
X32967983Y25442490D01*
X32967985Y25442488D01*
X32967985Y25442487D01*
X33134987Y25275485D01*
X33326066Y25136657D01*
X33536503Y25029433D01*
X33761131Y24956446D01*
X33994403Y24919500D01*
X33994408Y24919500D01*
X34230597Y24919500D01*
X34463868Y24956446D01*
X34688496Y25029433D01*
X34898933Y25136657D01*
X35090010Y25275483D01*
X35102019Y25287492D01*
X35163342Y25320977D01*
X35233034Y25315993D01*
X35288967Y25274121D01*
X35313384Y25208657D01*
X35313700Y25199811D01*
X35313700Y20305719D01*
X35294015Y20238680D01*
X35277381Y20218038D01*
X34955888Y19896546D01*
X34955887Y19896545D01*
X34879222Y19781807D01*
X34826421Y19654332D01*
X34826418Y19654320D01*
X34806780Y19555592D01*
X34805622Y19549768D01*
X34799500Y19518993D01*
X34799500Y19074499D01*
X34779815Y19007460D01*
X34727011Y18961705D01*
X34675500Y18950499D01*
X34465136Y18950499D01*
X34465121Y18950497D01*
X34465117Y18950497D01*
X34440012Y18947586D01*
X34440010Y18947585D01*
X34440009Y18947585D01*
X34337235Y18902206D01*
X34257794Y18822765D01*
X34212415Y18719993D01*
X34212415Y18719991D01*
X34209500Y18694868D01*
X34209500Y16305143D01*
X34209502Y16305117D01*
X34212413Y16280012D01*
X34212415Y16280008D01*
X34257793Y16177235D01*
X34337234Y16097794D01*
X34440007Y16052415D01*
X34465134Y16049500D01*
X34465135Y16049500D01*
X36454856Y16049500D01*
X36454882Y16049502D01*
X36479987Y16052413D01*
X36479991Y16052415D01*
X36582764Y16097793D01*
X36662205Y16177234D01*
X36662206Y16177235D01*
X36703380Y16270485D01*
X36707584Y16280006D01*
X36707585Y16280009D01*
X36710500Y16305135D01*
X36710499Y16765735D01*
X36730183Y16832772D01*
X36782987Y16878527D01*
X36852146Y16888471D01*
X36915702Y16859446D01*
X36934816Y16838619D01*
X37046167Y16685360D01*
X37046174Y16685351D01*
X37185351Y16546174D01*
X37344594Y16430476D01*
X37519970Y16341117D01*
X37707173Y16280290D01*
X37901578Y16249500D01*
X37901583Y16249500D01*
X38098422Y16249500D01*
X38292826Y16280290D01*
X38480029Y16341117D01*
X38655405Y16430476D01*
X38694389Y16458800D01*
X38814646Y16546172D01*
X38953828Y16685354D01*
X39069524Y16844595D01*
X39123215Y16949970D01*
X39158882Y17019970D01*
X39162946Y17032475D01*
X39196964Y17137173D01*
X39219709Y17207173D01*
X39250500Y17401577D01*
X39250500Y17598415D01*
X39248348Y17612000D01*
X39243781Y17640837D01*
X39252735Y17710130D01*
X39278573Y17747916D01*
X42676911Y21146253D01*
X42676912Y21146254D01*
X42697782Y21177489D01*
X42753575Y21260989D01*
X42806380Y21388471D01*
X42811880Y21416122D01*
X42816715Y21440428D01*
X42816719Y21440452D01*
X42816724Y21440476D01*
X42833300Y21523807D01*
X42833300Y22483436D01*
X42852985Y22550475D01*
X42905789Y22596230D01*
X42974947Y22606174D01*
X43038503Y22577149D01*
X43056101Y22558366D01*
X43057078Y22557077D01*
X43177656Y22465639D01*
X43318438Y22410122D01*
X43367853Y22404188D01*
X43406898Y22399500D01*
X43406903Y22399500D01*
X44593097Y22399500D01*
X44593102Y22399500D01*
X44635926Y22404642D01*
X44681561Y22410122D01*
X44822343Y22465639D01*
X44942922Y22557077D01*
X45034361Y22677658D01*
X45034362Y22677660D01*
X45066238Y22758490D01*
X45109143Y22813634D01*
X45175051Y22836827D01*
X45181592Y22837000D01*
X46913420Y22837000D01*
X46980459Y22817315D01*
X46988345Y22811804D01*
X47115156Y22715639D01*
X47255938Y22660122D01*
X47305353Y22654188D01*
X47344398Y22649500D01*
X47344403Y22649500D01*
X48380597Y22649500D01*
X48380602Y22649500D01*
X48423426Y22654642D01*
X48469061Y22660122D01*
X48609843Y22715639D01*
X48736655Y22811804D01*
X48801966Y22836627D01*
X48811580Y22837000D01*
X50349753Y22837000D01*
X50397205Y22827561D01*
X50520667Y22776421D01*
X50520677Y22776418D01*
X50656004Y22749500D01*
X50656006Y22749500D01*
X50793996Y22749500D01*
X50929323Y22776418D01*
X50929329Y22776420D01*
X51056813Y22829225D01*
X51062181Y22832095D01*
X51062876Y22830794D01*
X51122562Y22849480D01*
X51124770Y22849500D01*
X51291770Y22849500D01*
X51322199Y22852353D01*
X51322201Y22852353D01*
X51450380Y22897206D01*
X51450382Y22897207D01*
X51463513Y22906898D01*
X51559650Y22977850D01*
X51640293Y23087118D01*
X51666296Y23161430D01*
X51685146Y23215298D01*
X51685146Y23215300D01*
X51688000Y23245730D01*
X51688000Y23654269D01*
X51685146Y23684699D01*
X51685146Y23684701D01*
X51653657Y23774690D01*
X51640293Y23812882D01*
X51640289Y23812887D01*
X51638126Y23816981D01*
X51634737Y23833643D01*
X51626589Y23848566D01*
X51627919Y23867169D01*
X51624202Y23885449D01*
X51630360Y23901298D01*
X51631573Y23918258D01*
X51642750Y23933189D01*
X51649506Y23950576D01*
X51663256Y23960580D01*
X51673445Y23974191D01*
X51690918Y23980708D01*
X51706003Y23991684D01*
X51722979Y23992666D01*
X51738909Y23998608D01*
X51757134Y23994643D01*
X51775756Y23995721D01*
X51790958Y23987285D01*
X51807182Y23983756D01*
X51835436Y23962605D01*
X52005102Y23792939D01*
X52038587Y23731616D01*
X52038569Y23692398D01*
X52040558Y23692212D01*
X52037000Y23654269D01*
X52037000Y23245730D01*
X52039853Y23215300D01*
X52039853Y23215298D01*
X52084706Y23087119D01*
X52084707Y23087117D01*
X52165350Y22977850D01*
X52274617Y22897207D01*
X52274619Y22897206D01*
X52402799Y22852353D01*
X52433230Y22849500D01*
X52433234Y22849500D01*
X52919011Y22849500D01*
X52920877Y22849000D01*
X53079123Y22849000D01*
X53080989Y22849500D01*
X53566766Y22849500D01*
X53566770Y22849500D01*
X53597199Y22852353D01*
X53597201Y22852353D01*
X53725380Y22897206D01*
X53725382Y22897207D01*
X53738513Y22906898D01*
X53834650Y22977850D01*
X53915293Y23087118D01*
X53921430Y23104656D01*
X53962149Y23161430D01*
X54027102Y23187178D01*
X54038470Y23187700D01*
X54655322Y23187700D01*
X54655323Y23187700D01*
X54808178Y23228657D01*
X54839274Y23246610D01*
X54853859Y23255031D01*
X54945223Y23307780D01*
X55288124Y23650681D01*
X55349447Y23684166D01*
X55375805Y23687000D01*
X55880597Y23687000D01*
X55880602Y23687000D01*
X55924004Y23692212D01*
X55969061Y23697622D01*
X56109843Y23753139D01*
X56230422Y23844577D01*
X56321860Y23965156D01*
X56327901Y23980474D01*
X56350425Y24037591D01*
X56393330Y24092734D01*
X56459238Y24115927D01*
X56465779Y24116100D01*
X57227211Y24116100D01*
X57294250Y24096415D01*
X57340005Y24043611D01*
X57349949Y23974453D01*
X57320924Y23910897D01*
X57314892Y23904419D01*
X57275483Y23865010D01*
X57144479Y23684699D01*
X57136657Y23673933D01*
X57029433Y23463496D01*
X56956446Y23238868D01*
X56919500Y23005597D01*
X56919500Y22769402D01*
X56956446Y22536131D01*
X57029433Y22311503D01*
X57136657Y22101066D01*
X57188312Y22029970D01*
X57275483Y21909990D01*
X57275485Y21909988D01*
X57275485Y21909987D01*
X57442487Y21742985D01*
X57611048Y21620518D01*
X57653713Y21565188D01*
X57659692Y21495574D01*
X57627086Y21433779D01*
X57566247Y21399422D01*
X57538162Y21396200D01*
X54087000Y21396200D01*
X54019961Y21415885D01*
X53974206Y21468689D01*
X53963000Y21520200D01*
X53963000Y21754269D01*
X53960146Y21784699D01*
X53960146Y21784701D01*
X53925764Y21882957D01*
X53915293Y21912882D01*
X53834650Y22022150D01*
X53725382Y22102793D01*
X53628604Y22136657D01*
X53597200Y22147646D01*
X53566770Y22150500D01*
X53566766Y22150500D01*
X53080989Y22150500D01*
X53079123Y22151000D01*
X52920877Y22151000D01*
X52919011Y22150500D01*
X52433234Y22150500D01*
X52433230Y22150500D01*
X52402800Y22147646D01*
X52402798Y22147646D01*
X52306663Y22114006D01*
X52274618Y22102793D01*
X52165350Y22022150D01*
X52116859Y21956446D01*
X52084707Y21912882D01*
X52084706Y21912880D01*
X52039853Y21784701D01*
X52039853Y21784699D01*
X52037000Y21754269D01*
X52037000Y21345730D01*
X52039853Y21315300D01*
X52039853Y21315298D01*
X52084706Y21187119D01*
X52084707Y21187117D01*
X52165350Y21077850D01*
X52274617Y20997207D01*
X52274619Y20997206D01*
X52402799Y20952353D01*
X52433230Y20949500D01*
X52433234Y20949500D01*
X52648395Y20949500D01*
X52715434Y20929815D01*
X52736076Y20913181D01*
X53049575Y20599681D01*
X53083060Y20538358D01*
X53078076Y20468666D01*
X53036204Y20412733D01*
X52970740Y20388316D01*
X52961894Y20388000D01*
X52801903Y20388000D01*
X52568631Y20351053D01*
X52488517Y20325022D01*
X52344008Y20278068D01*
X52344005Y20278066D01*
X52344003Y20278066D01*
X52242816Y20226508D01*
X52133567Y20170843D01*
X51942490Y20032017D01*
X51775483Y19865010D01*
X51699096Y19759872D01*
X51636657Y19673933D01*
X51529433Y19463496D01*
X51456446Y19238868D01*
X51419500Y19005597D01*
X51419500Y18769402D01*
X51456446Y18536131D01*
X51529433Y18311503D01*
X51636659Y18101063D01*
X51773766Y17912352D01*
X51797246Y17846546D01*
X51781421Y17778492D01*
X51761129Y17751786D01*
X43496823Y9487480D01*
X43435500Y9453995D01*
X43370825Y9457230D01*
X43351368Y9463553D01*
X43292533Y9472871D01*
X43118097Y9500500D01*
X43118092Y9500500D01*
X42881908Y9500500D01*
X42881903Y9500500D01*
X42648631Y9463553D01*
X42556905Y9433749D01*
X42424008Y9390568D01*
X42424005Y9390566D01*
X42424003Y9390566D01*
X42336780Y9346123D01*
X42213567Y9283343D01*
X42022490Y9144517D01*
X41855483Y8977510D01*
X41746027Y8826857D01*
X41716657Y8786433D01*
X41609433Y8575996D01*
X41536446Y8351368D01*
X41499500Y8118097D01*
X41499500Y7881902D01*
X41536446Y7648631D01*
X41609433Y7424003D01*
X41716657Y7213566D01*
X41781668Y7124087D01*
X41855483Y7022490D01*
X41855485Y7022488D01*
X41855485Y7022487D01*
X42022487Y6855485D01*
X42213566Y6716657D01*
X42424003Y6609433D01*
X42648631Y6536446D01*
X42881903Y6499500D01*
X42881908Y6499500D01*
X43118097Y6499500D01*
X43351368Y6536446D01*
X43575996Y6609433D01*
X43786433Y6716657D01*
X43977510Y6855483D01*
X44144517Y7022490D01*
X44283343Y7213567D01*
X44335111Y7315167D01*
X44390566Y7424003D01*
X44391872Y7428020D01*
X44463553Y7648632D01*
X44479645Y7750232D01*
X44500500Y7881902D01*
X44500500Y8118097D01*
X44463554Y8351360D01*
X44463553Y8351368D01*
X44457230Y8370824D01*
X44455234Y8440661D01*
X44487480Y8496823D01*
X52908780Y16918123D01*
X52970103Y16951608D01*
X53039795Y16946624D01*
X53095728Y16904752D01*
X53120145Y16839288D01*
X53118934Y16811045D01*
X53105100Y16723698D01*
X53105100Y16487502D01*
X53142047Y16254228D01*
X53142047Y16254227D01*
X53148369Y16234770D01*
X53150362Y16164929D01*
X53118118Y16108775D01*
X46541988Y9532646D01*
X46541987Y9532645D01*
X46516432Y9494399D01*
X46465325Y9417911D01*
X46465323Y9417908D01*
X46465323Y9417907D01*
X46412521Y9290431D01*
X46412520Y9290428D01*
X46398503Y9219958D01*
X46398503Y9219957D01*
X46385600Y9155094D01*
X46385600Y7149703D01*
X46385599Y7149703D01*
X46412518Y7014377D01*
X46412521Y7014367D01*
X46465322Y6886892D01*
X46541987Y6772154D01*
X46541988Y6772153D01*
X47714486Y5599658D01*
X47793676Y5520468D01*
X47812060Y5502084D01*
X47812062Y5502082D01*
X47926786Y5425426D01*
X47926791Y5425423D01*
X48001463Y5394492D01*
X48001464Y5394493D01*
X48054273Y5372619D01*
X48067731Y5369942D01*
X48081189Y5367265D01*
X48081190Y5367265D01*
X48189603Y5345700D01*
X48189607Y5345700D01*
X88807496Y5345700D01*
X88942822Y5372618D01*
X88942832Y5372621D01*
X89070307Y5425422D01*
X89185045Y5502087D01*
X99451912Y15768954D01*
X99481521Y15813267D01*
X99528575Y15883689D01*
X99552886Y15942380D01*
X99560939Y15961822D01*
X99604780Y16016225D01*
X99671074Y16038290D01*
X99738774Y16021011D01*
X99786384Y15969873D01*
X99799500Y15914369D01*
X99799500Y324500D01*
X99779815Y257461D01*
X99727011Y211706D01*
X99675500Y200500D01*
X324500Y200500D01*
X257461Y220185D01*
X211706Y272989D01*
X200500Y324500D01*
X200500Y66618004D01*
X699500Y66618004D01*
X699500Y66381995D01*
X699501Y66381979D01*
X730306Y66147989D01*
X791394Y65920006D01*
X881714Y65701954D01*
X881719Y65701943D01*
X999730Y65497545D01*
X1143406Y65310302D01*
X1143412Y65310295D01*
X1310295Y65143412D01*
X1310302Y65143406D01*
X1497545Y64999730D01*
X1701943Y64881719D01*
X1701954Y64881714D01*
X1920006Y64791394D01*
X2147989Y64730306D01*
X2381979Y64699501D01*
X2381983Y64699500D01*
X2381989Y64699500D01*
X2381996Y64699500D01*
X2618004Y64699500D01*
X2618011Y64699500D01*
X2618017Y64699500D01*
X2618020Y64699501D01*
X2852010Y64730306D01*
X3079993Y64791394D01*
X3298045Y64881714D01*
X3298056Y64881719D01*
X3420957Y64952677D01*
X3502450Y64999727D01*
X3679744Y65135769D01*
X3689697Y65143406D01*
X3689704Y65143412D01*
X3856587Y65310295D01*
X3856593Y65310302D01*
X4000269Y65497545D01*
X4000273Y65497550D01*
X4076118Y65628918D01*
X4118280Y65701943D01*
X4118285Y65701954D01*
X4125665Y65719771D01*
X4208606Y65920007D01*
X4269693Y66147986D01*
X4300500Y66381989D01*
X4300500Y66618011D01*
X4269693Y66852014D01*
X4208606Y67079993D01*
X4118284Y67298049D01*
X4000273Y67502450D01*
X3856592Y67689699D01*
X3689699Y67856592D01*
X3502450Y68000273D01*
X3298049Y68118284D01*
X3079993Y68208606D01*
X2852014Y68269693D01*
X2618011Y68300500D01*
X2381989Y68300500D01*
X2147986Y68269693D01*
X1920007Y68208606D01*
X1701951Y68118284D01*
X1701948Y68118282D01*
X1701943Y68118280D01*
X1628918Y68076118D01*
X1497550Y68000273D01*
X1497545Y68000269D01*
X1310302Y67856593D01*
X1310295Y67856587D01*
X1143412Y67689704D01*
X1143406Y67689697D01*
X1130909Y67673410D01*
X999727Y67502450D01*
X954975Y67424938D01*
X881719Y67298056D01*
X881714Y67298045D01*
X791394Y67079993D01*
X735211Y66870314D01*
X730306Y66852010D01*
X699501Y66618020D01*
X699500Y66618004D01*
X200500Y66618004D01*
X200500Y68675500D01*
X220185Y68742539D01*
X272989Y68788294D01*
X324500Y68799500D01*
X99675500Y68799500D01*
X99742539Y68779815D01*
G37*
G04 #@! TD.AperFunction*
G04 #@! TA.AperFunction,Conductor*
G36*
X13205703Y17609993D02*
G01*
X13212181Y17603961D01*
X16763181Y14052961D01*
X16796666Y13991638D01*
X16799500Y13965280D01*
X16799500Y9566619D01*
X16779815Y9499580D01*
X16763181Y9478938D01*
X11427481Y4143238D01*
X11366158Y4109753D01*
X11296466Y4114737D01*
X11240533Y4156609D01*
X11216116Y4222073D01*
X11215800Y4230919D01*
X11215800Y4247997D01*
X11178853Y4481268D01*
X11134335Y4618280D01*
X11105868Y4705892D01*
X10998643Y4916333D01*
X10859817Y5107410D01*
X10692810Y5274417D01*
X10501733Y5413243D01*
X10291292Y5520468D01*
X10066668Y5593453D01*
X9833397Y5630400D01*
X9833392Y5630400D01*
X9597208Y5630400D01*
X9597203Y5630400D01*
X9451410Y5607308D01*
X9363932Y5593453D01*
X9344475Y5587130D01*
X9274635Y5585134D01*
X9218477Y5617378D01*
X4669717Y10166139D01*
X4655015Y10193064D01*
X4638423Y10218883D01*
X4637531Y10225083D01*
X4636234Y10227460D01*
X4633400Y10253818D01*
X4633400Y10416780D01*
X4653085Y10483819D01*
X4705889Y10529574D01*
X4775047Y10539518D01*
X4838603Y10510493D01*
X4845081Y10504461D01*
X7935753Y7413788D01*
X7935754Y7413787D01*
X8050492Y7337122D01*
X8177967Y7284321D01*
X8177977Y7284318D01*
X8313304Y7257400D01*
X8313306Y7257400D01*
X10110396Y7257400D01*
X10245722Y7284318D01*
X10245732Y7284321D01*
X10373207Y7337122D01*
X10487945Y7413787D01*
X10487946Y7413788D01*
X11597338Y8523181D01*
X11658661Y8556666D01*
X11685019Y8559500D01*
X11848422Y8559500D01*
X12042826Y8590290D01*
X12230029Y8651117D01*
X12405405Y8740476D01*
X12564646Y8856172D01*
X12703828Y8995354D01*
X12819524Y9154595D01*
X12866155Y9246114D01*
X12908882Y9329970D01*
X12914131Y9346123D01*
X12969709Y9517174D01*
X12972159Y9532645D01*
X13000500Y9711577D01*
X13000500Y9908422D01*
X12969709Y10102826D01*
X12949138Y10166137D01*
X12908884Y10290025D01*
X12819524Y10465405D01*
X12703828Y10624646D01*
X12564646Y10763828D01*
X12405405Y10879524D01*
X12230025Y10968884D01*
X12042826Y11029709D01*
X11848422Y11060500D01*
X11848417Y11060500D01*
X11651583Y11060500D01*
X11651578Y11060500D01*
X11457173Y11029709D01*
X11395639Y11009715D01*
X11269975Y10968884D01*
X11269972Y10968882D01*
X11269970Y10968882D01*
X11177455Y10921743D01*
X11094595Y10879524D01*
X10935354Y10763828D01*
X10796172Y10624646D01*
X10734323Y10539518D01*
X10680474Y10465403D01*
X10590485Y10288787D01*
X10542511Y10237990D01*
X10474690Y10221195D01*
X10408555Y10243732D01*
X10369515Y10288787D01*
X10279525Y10465403D01*
X10266145Y10483819D01*
X10163828Y10624646D01*
X10024646Y10763828D01*
X9865405Y10879524D01*
X9850816Y10886957D01*
X9688787Y10969515D01*
X9637990Y11017489D01*
X9621195Y11085310D01*
X9643732Y11151445D01*
X9688787Y11190485D01*
X9865403Y11280474D01*
X9913246Y11315234D01*
X10024646Y11396172D01*
X10163828Y11535354D01*
X10279524Y11694595D01*
X10335309Y11804080D01*
X10368882Y11869970D01*
X10369256Y11871119D01*
X10429709Y12057174D01*
X10435697Y12094981D01*
X10460500Y12251577D01*
X10460500Y12448422D01*
X10429709Y12642826D01*
X10368884Y12830025D01*
X10279524Y13005405D01*
X10163828Y13164646D01*
X10024646Y13303828D01*
X9865405Y13419524D01*
X9690025Y13508884D01*
X9688787Y13509515D01*
X9637990Y13557489D01*
X9621195Y13625310D01*
X9643732Y13691445D01*
X9688787Y13730485D01*
X9865403Y13820474D01*
X9913246Y13855234D01*
X10024646Y13936172D01*
X10163828Y14075354D01*
X10279524Y14234595D01*
X10351469Y14375795D01*
X10369515Y14411213D01*
X10417489Y14462009D01*
X10485310Y14478804D01*
X10551445Y14456267D01*
X10590485Y14411213D01*
X10680476Y14234594D01*
X10746485Y14143741D01*
X10796172Y14075354D01*
X10796174Y14075352D01*
X10796174Y14075351D01*
X10935351Y13936174D01*
X11094594Y13820476D01*
X11269970Y13731117D01*
X11457173Y13670290D01*
X11651578Y13639500D01*
X11651583Y13639500D01*
X11848422Y13639500D01*
X12042826Y13670290D01*
X12230029Y13731117D01*
X12405405Y13820476D01*
X12564646Y13936172D01*
X12703828Y14075354D01*
X12819524Y14234595D01*
X12891469Y14375795D01*
X12908882Y14409970D01*
X12969709Y14597173D01*
X13000500Y14791577D01*
X13000500Y14988422D01*
X12969709Y15182826D01*
X12959634Y15213833D01*
X12908884Y15370025D01*
X12819524Y15545405D01*
X12703828Y15704646D01*
X12564646Y15843828D01*
X12405405Y15959524D01*
X12385094Y15969873D01*
X12228787Y16049515D01*
X12177990Y16097489D01*
X12161195Y16165310D01*
X12183732Y16231445D01*
X12228787Y16270485D01*
X12405403Y16360474D01*
X12453246Y16395234D01*
X12564646Y16476172D01*
X12703828Y16615354D01*
X12819524Y16774595D01*
X12872480Y16878527D01*
X12908882Y16949970D01*
X12909415Y16951608D01*
X12969709Y17137174D01*
X12975810Y17175692D01*
X13000500Y17331577D01*
X13000500Y17516280D01*
X13020185Y17583319D01*
X13072989Y17629074D01*
X13142147Y17639018D01*
X13205703Y17609993D01*
G37*
G04 #@! TD.AperFunction*
G04 #@! TA.AperFunction,Conductor*
G36*
X91955845Y60701565D02*
G01*
X91988754Y60692351D01*
X91989293Y60691743D01*
X91990073Y60691515D01*
X92012435Y60665707D01*
X92035171Y60640128D01*
X92035296Y60639323D01*
X92035828Y60638711D01*
X92040692Y60604882D01*
X92045984Y60571100D01*
X92045696Y60570074D01*
X92045772Y60569553D01*
X92036468Y60537113D01*
X92002415Y60459993D01*
X92002415Y60459991D01*
X91999500Y60434868D01*
X91999500Y58445143D01*
X91999502Y58445117D01*
X92002413Y58420012D01*
X92002415Y58420008D01*
X92047793Y58317235D01*
X92127234Y58237794D01*
X92230007Y58192415D01*
X92255131Y58189500D01*
X92765733Y58189500D01*
X92832772Y58169815D01*
X92878527Y58117011D01*
X92888471Y58047853D01*
X92859446Y57984297D01*
X92838619Y57965182D01*
X92685354Y57853828D01*
X92546172Y57714646D01*
X92470602Y57610633D01*
X92430476Y57555405D01*
X92341117Y57380029D01*
X92280290Y57192826D01*
X92249500Y56998422D01*
X92249500Y56801577D01*
X92256505Y56757348D01*
X92247550Y56688055D01*
X92221713Y56650270D01*
X91294088Y55722646D01*
X91294087Y55722645D01*
X91217422Y55607907D01*
X91164621Y55480432D01*
X91164618Y55480420D01*
X91143979Y55376659D01*
X91143979Y55376656D01*
X91137700Y55345093D01*
X91137700Y48528903D01*
X91137699Y48528903D01*
X91164618Y48393577D01*
X91164621Y48393567D01*
X91217422Y48266092D01*
X91294087Y48151354D01*
X92259010Y47186431D01*
X92292495Y47125108D01*
X92289260Y47060432D01*
X92280291Y47032830D01*
X92280291Y47032827D01*
X92249500Y46838422D01*
X92249500Y46641577D01*
X92280290Y46447173D01*
X92341117Y46259970D01*
X92430476Y46084594D01*
X92496485Y45993741D01*
X92546172Y45925354D01*
X92546174Y45925352D01*
X92546174Y45925351D01*
X92685351Y45786174D01*
X92844594Y45670476D01*
X93021213Y45580485D01*
X93072009Y45532511D01*
X93088804Y45464690D01*
X93066267Y45398555D01*
X93021213Y45359515D01*
X93019975Y45358884D01*
X92844595Y45269524D01*
X92685354Y45153828D01*
X92546172Y45014646D01*
X92459087Y44894784D01*
X92430476Y44855405D01*
X92341117Y44680029D01*
X92280290Y44492826D01*
X92249500Y44298422D01*
X92249500Y44101582D01*
X92256820Y44055361D01*
X92247864Y43986068D01*
X92222027Y43948284D01*
X90632288Y42358546D01*
X90632287Y42358545D01*
X90555622Y42243807D01*
X90502821Y42116332D01*
X90502818Y42116320D01*
X90483111Y42017245D01*
X90483111Y42017242D01*
X90475900Y41980993D01*
X90475900Y29308519D01*
X90456215Y29241480D01*
X90439581Y29220838D01*
X89355562Y28136819D01*
X89294239Y28103334D01*
X89267881Y28100500D01*
X88406898Y28100500D01*
X88318436Y28089877D01*
X88177658Y28034361D01*
X88177657Y28034360D01*
X88177656Y28034360D01*
X88057077Y27942922D01*
X87965639Y27822343D01*
X87947811Y27777134D01*
X87912399Y27687334D01*
X87910122Y27681561D01*
X87908840Y27670882D01*
X87899500Y27593102D01*
X87899500Y26406898D01*
X87903584Y26372889D01*
X87910122Y26318438D01*
X87965639Y26177656D01*
X88057077Y26057077D01*
X88177656Y25965639D01*
X88318438Y25910122D01*
X88367853Y25904188D01*
X88406898Y25899500D01*
X89058481Y25899500D01*
X89125520Y25879815D01*
X89146162Y25863181D01*
X89763381Y25245962D01*
X89796866Y25184639D01*
X89799700Y25158281D01*
X89799700Y20314189D01*
X89780015Y20247150D01*
X89727211Y20201395D01*
X89658053Y20191451D01*
X89594497Y20220476D01*
X89588019Y20226508D01*
X89575847Y20238680D01*
X89557510Y20257017D01*
X89366433Y20395843D01*
X89155992Y20503068D01*
X88931368Y20576053D01*
X88698097Y20613000D01*
X88698092Y20613000D01*
X88461908Y20613000D01*
X88461903Y20613000D01*
X88316110Y20589908D01*
X88228632Y20576053D01*
X88209175Y20569730D01*
X88139335Y20567734D01*
X88083177Y20599978D01*
X86256817Y22426339D01*
X86223334Y22487660D01*
X86220500Y22514018D01*
X86220500Y29768995D01*
X86196828Y29888000D01*
X86193580Y29904328D01*
X86151233Y30006564D01*
X86140778Y30031804D01*
X86140777Y30031804D01*
X86140775Y30031811D01*
X86064114Y30146542D01*
X85966542Y30244114D01*
X85851811Y30320775D01*
X85724328Y30373580D01*
X85680041Y30382389D01*
X85588995Y30400500D01*
X85588993Y30400500D01*
X85504500Y30400500D01*
X85437461Y30420185D01*
X85391706Y30472989D01*
X85380500Y30524500D01*
X85380500Y30780305D01*
X85380499Y31041595D01*
X85400183Y31108633D01*
X85452987Y31154388D01*
X85522146Y31164332D01*
X85585702Y31135307D01*
X85604817Y31114480D01*
X85741184Y30926788D01*
X85908187Y30759785D01*
X86099266Y30620957D01*
X86309703Y30513733D01*
X86534331Y30440746D01*
X86767603Y30403800D01*
X86767608Y30403800D01*
X87003797Y30403800D01*
X87237068Y30440746D01*
X87461696Y30513733D01*
X87672133Y30620957D01*
X87685961Y30631004D01*
X87863210Y30759783D01*
X88030217Y30926790D01*
X88169043Y31117867D01*
X88230259Y31238010D01*
X88276266Y31328303D01*
X88282577Y31347724D01*
X88315903Y31450291D01*
X88349253Y31552931D01*
X88386200Y31786202D01*
X88386200Y32022397D01*
X88355052Y32219052D01*
X88349253Y32255668D01*
X88342930Y32275124D01*
X88340934Y32344961D01*
X88373180Y32401123D01*
X89576811Y33604753D01*
X89576812Y33604754D01*
X89653477Y33719492D01*
X89706278Y33846967D01*
X89706281Y33846977D01*
X89733200Y33982304D01*
X89733200Y50905595D01*
X89713356Y51005354D01*
X89706280Y51040928D01*
X89653475Y51168411D01*
X89632886Y51199225D01*
X89576814Y51283143D01*
X88184678Y52675277D01*
X88151195Y52736598D01*
X88154431Y52801276D01*
X88160753Y52820732D01*
X88185902Y52979515D01*
X88197700Y53054002D01*
X88197700Y53290197D01*
X88160753Y53523468D01*
X88133216Y53608218D01*
X88087768Y53748092D01*
X87980543Y53958533D01*
X87841717Y54149610D01*
X87674710Y54316617D01*
X87483633Y54455443D01*
X87273192Y54562668D01*
X87048568Y54635653D01*
X86815297Y54672600D01*
X86815292Y54672600D01*
X86579108Y54672600D01*
X86579103Y54672600D01*
X86345831Y54635653D01*
X86241612Y54601789D01*
X86121208Y54562668D01*
X86121205Y54562666D01*
X86121203Y54562666D01*
X86057313Y54530112D01*
X85910767Y54455443D01*
X85719690Y54316617D01*
X85552683Y54149610D01*
X85435993Y53989000D01*
X85413857Y53958533D01*
X85306633Y53748096D01*
X85233646Y53523468D01*
X85196700Y53290197D01*
X85196700Y53054002D01*
X85233646Y52820731D01*
X85306633Y52596103D01*
X85413857Y52385666D01*
X85457959Y52324966D01*
X85552683Y52194590D01*
X85552685Y52194588D01*
X85552685Y52194587D01*
X85719687Y52027585D01*
X85910766Y51888757D01*
X86121203Y51781533D01*
X86345831Y51708546D01*
X86579103Y51671600D01*
X86579108Y51671600D01*
X86815297Y51671600D01*
X87048569Y51708547D01*
X87048572Y51708547D01*
X87068024Y51714868D01*
X87137865Y51716863D01*
X87194023Y51684618D01*
X88295881Y50582761D01*
X88329366Y50521438D01*
X88332200Y50495080D01*
X88332200Y40056689D01*
X88312515Y39989650D01*
X88259711Y39943895D01*
X88190553Y39933951D01*
X88126997Y39962976D01*
X88120519Y39969008D01*
X88095619Y39993908D01*
X88057510Y40032017D01*
X87866433Y40170843D01*
X87655992Y40278068D01*
X87431368Y40351053D01*
X87427087Y40351731D01*
X87198097Y40388000D01*
X87198092Y40388000D01*
X86961908Y40388000D01*
X86961903Y40388000D01*
X86728631Y40351053D01*
X86628614Y40318555D01*
X86504008Y40278068D01*
X86504005Y40278066D01*
X86504003Y40278066D01*
X86409850Y40230092D01*
X86293567Y40170843D01*
X86102490Y40032017D01*
X85935483Y39865010D01*
X85811707Y39694647D01*
X85796657Y39673933D01*
X85689433Y39463496D01*
X85616446Y39238868D01*
X85579500Y39005597D01*
X85579500Y38769402D01*
X85616446Y38536131D01*
X85689433Y38311503D01*
X85796657Y38101066D01*
X85873761Y37994943D01*
X85935483Y37909990D01*
X85935485Y37909988D01*
X85935485Y37909987D01*
X86102487Y37742985D01*
X86293569Y37604155D01*
X86311799Y37594866D01*
X86362593Y37546890D01*
X86379500Y37484383D01*
X86379500Y36890149D01*
X86370555Y36859687D01*
X86363255Y36828791D01*
X86360782Y36826405D01*
X86359815Y36823110D01*
X86335827Y36802324D01*
X86312977Y36780275D01*
X86308597Y36778729D01*
X86307011Y36777355D01*
X86279697Y36768533D01*
X86231441Y36758934D01*
X86231439Y36758934D01*
X86204527Y36753582D01*
X86204522Y36753580D01*
X86204521Y36753580D01*
X86204519Y36753579D01*
X86077040Y36700776D01*
X85962304Y36624112D01*
X85962303Y36624111D01*
X84356823Y35018630D01*
X84295500Y34985145D01*
X84230825Y34988380D01*
X84211368Y34994703D01*
X84152533Y35004021D01*
X83978097Y35031650D01*
X83978092Y35031650D01*
X83741908Y35031650D01*
X83741903Y35031650D01*
X83508631Y34994703D01*
X83460140Y34978947D01*
X83284008Y34921718D01*
X83284005Y34921716D01*
X83284003Y34921716D01*
X83233225Y34895843D01*
X83073567Y34814493D01*
X82882490Y34675667D01*
X82715483Y34508660D01*
X82582051Y34325007D01*
X82576657Y34317583D01*
X82469433Y34107146D01*
X82396446Y33882518D01*
X82359500Y33649247D01*
X82359500Y33413052D01*
X82396446Y33179781D01*
X82469433Y32955153D01*
X82576657Y32744716D01*
X82646238Y32648947D01*
X82715483Y32553640D01*
X82715485Y32553638D01*
X82715485Y32553637D01*
X82885935Y32383188D01*
X82884895Y32382148D01*
X82919504Y32329140D01*
X82920007Y32259272D01*
X82882656Y32200223D01*
X82819311Y32170741D01*
X82800781Y32169349D01*
X82635136Y32169349D01*
X82635121Y32169347D01*
X82635117Y32169347D01*
X82610012Y32166436D01*
X82610010Y32166435D01*
X82610009Y32166435D01*
X82516210Y32125019D01*
X82507235Y32121056D01*
X82427794Y32041615D01*
X82382415Y31938843D01*
X82382415Y31938841D01*
X82379500Y31913718D01*
X82379500Y29423993D01*
X82379502Y29423967D01*
X82382413Y29398862D01*
X82382415Y29398858D01*
X82427793Y29296085D01*
X82507234Y29216644D01*
X82610007Y29171265D01*
X82635131Y29168350D01*
X82635135Y29168350D01*
X84408340Y29168350D01*
X84475379Y29148665D01*
X84477197Y29147473D01*
X84489959Y29138947D01*
X84579341Y29079223D01*
X84657966Y29046656D01*
X84669482Y29041886D01*
X84706321Y29026627D01*
X84706826Y29026418D01*
X84706825Y29026418D01*
X84719693Y29023859D01*
X84781604Y28991473D01*
X84816177Y28930757D01*
X84819500Y28902242D01*
X84819500Y23805419D01*
X84799815Y23738380D01*
X84747011Y23692625D01*
X84677853Y23682681D01*
X84614297Y23711706D01*
X84607819Y23717738D01*
X83699319Y24626238D01*
X83665834Y24687561D01*
X83663000Y24713919D01*
X83663000Y24918096D01*
X83663000Y24918102D01*
X83652377Y25006564D01*
X83596861Y25147342D01*
X83505422Y25267922D01*
X83384842Y25359361D01*
X83244064Y25414877D01*
X83155602Y25425500D01*
X83155597Y25425500D01*
X83099500Y25425500D01*
X83032461Y25445185D01*
X82986706Y25497989D01*
X82975500Y25549500D01*
X82975500Y25916245D01*
X82995185Y25983284D01*
X83025866Y26016015D01*
X83109650Y26077850D01*
X83190293Y26187118D01*
X83211791Y26248555D01*
X83235146Y26315298D01*
X83235146Y26315300D01*
X83238000Y26345730D01*
X83238000Y26754269D01*
X83235146Y26784699D01*
X83235146Y26784701D01*
X83209079Y26859194D01*
X83190293Y26912882D01*
X83109650Y27022150D01*
X83000382Y27102793D01*
X82914926Y27132695D01*
X82872200Y27147646D01*
X82841770Y27150500D01*
X82841766Y27150500D01*
X82674770Y27150500D01*
X82612630Y27168746D01*
X82612181Y27167905D01*
X82608140Y27170064D01*
X82607731Y27170185D01*
X82606912Y27170721D01*
X82606809Y27170776D01*
X82564316Y27188376D01*
X82479328Y27223580D01*
X82422032Y27234977D01*
X82343995Y27250500D01*
X82343993Y27250500D01*
X82206007Y27250500D01*
X82206005Y27250500D01*
X82070677Y27223581D01*
X82070672Y27223580D01*
X82070667Y27223578D01*
X81943190Y27170776D01*
X81937819Y27167905D01*
X81937123Y27169205D01*
X81877438Y27150520D01*
X81875230Y27150500D01*
X81708230Y27150500D01*
X81677800Y27147646D01*
X81677798Y27147646D01*
X81581663Y27114006D01*
X81549618Y27102793D01*
X81440350Y27022150D01*
X81359707Y26912882D01*
X81359706Y26912880D01*
X81314853Y26784701D01*
X81314853Y26784699D01*
X81312000Y26754269D01*
X81312000Y26345730D01*
X81314853Y26315300D01*
X81314853Y26315298D01*
X81359706Y26187119D01*
X81359707Y26187117D01*
X81440350Y26077850D01*
X81524134Y26016015D01*
X81566384Y25960368D01*
X81574500Y25916245D01*
X81574500Y24831003D01*
X81574499Y24831003D01*
X81601418Y24695678D01*
X81601419Y24695675D01*
X81601420Y24695672D01*
X81602563Y24692911D01*
X81603145Y24689986D01*
X81603187Y24689849D01*
X81603173Y24689844D01*
X81612000Y24645465D01*
X81612000Y24156898D01*
X81614436Y24136613D01*
X81622622Y24068438D01*
X81678139Y23927656D01*
X81769577Y23807077D01*
X81890156Y23715639D01*
X82030938Y23660122D01*
X82079685Y23654269D01*
X82119398Y23649500D01*
X82643381Y23649500D01*
X82710420Y23629815D01*
X82731062Y23613181D01*
X83328381Y23015862D01*
X83361866Y22954539D01*
X83364700Y22928181D01*
X83364700Y20801803D01*
X83364699Y20801803D01*
X83391618Y20666477D01*
X83391621Y20666467D01*
X83444422Y20538992D01*
X83521087Y20424254D01*
X85009529Y18935812D01*
X85043014Y18874489D01*
X85038030Y18804797D01*
X84996158Y18748864D01*
X84930694Y18724447D01*
X84862421Y18739299D01*
X84848962Y18747814D01*
X84830631Y18761132D01*
X84759733Y18812643D01*
X84549292Y18919868D01*
X84324668Y18992853D01*
X84314850Y18994408D01*
X84091397Y19029800D01*
X84091392Y19029800D01*
X83855208Y19029800D01*
X83855203Y19029800D01*
X83621931Y18992853D01*
X83552161Y18970183D01*
X83397308Y18919868D01*
X83397305Y18919866D01*
X83397303Y18919866D01*
X83286291Y18863302D01*
X83186867Y18812643D01*
X82995790Y18673817D01*
X82828783Y18506810D01*
X82739429Y18383825D01*
X82689957Y18315733D01*
X82582733Y18105296D01*
X82509746Y17880668D01*
X82472800Y17647397D01*
X82472800Y17411202D01*
X82509747Y17177928D01*
X82509747Y17177927D01*
X82516069Y17158470D01*
X82518062Y17088629D01*
X82485818Y17032475D01*
X74291762Y8838419D01*
X74230439Y8804934D01*
X74204081Y8802100D01*
X63536816Y8802100D01*
X63469777Y8821785D01*
X63426332Y8869803D01*
X63423864Y8874645D01*
X63417043Y8888033D01*
X63278217Y9079110D01*
X63111210Y9246117D01*
X62920133Y9384943D01*
X62709692Y9492168D01*
X62485068Y9565153D01*
X62461366Y9568907D01*
X62251797Y9602100D01*
X62251792Y9602100D01*
X62015608Y9602100D01*
X62015603Y9602100D01*
X61782331Y9565153D01*
X61707618Y9540877D01*
X61557708Y9492168D01*
X61557705Y9492166D01*
X61557703Y9492166D01*
X61489140Y9457231D01*
X61347267Y9384943D01*
X61156190Y9246117D01*
X60989183Y9079110D01*
X60854178Y8893292D01*
X60850357Y8888033D01*
X60743133Y8677596D01*
X60670146Y8452968D01*
X60633200Y8219697D01*
X60633200Y7983502D01*
X60670146Y7750231D01*
X60743133Y7525603D01*
X60850357Y7315166D01*
X60872770Y7284318D01*
X60989183Y7124090D01*
X60989185Y7124088D01*
X60989185Y7124087D01*
X61154892Y6958381D01*
X61188377Y6897058D01*
X61183393Y6827366D01*
X61141521Y6771433D01*
X61076057Y6747016D01*
X61067211Y6746700D01*
X50168089Y6746700D01*
X50101050Y6766385D01*
X50055295Y6819189D01*
X50045351Y6888347D01*
X50074376Y6951903D01*
X50080408Y6958381D01*
X50144514Y7022487D01*
X50144517Y7022490D01*
X50283343Y7213567D01*
X50335111Y7315167D01*
X50390566Y7424003D01*
X50391872Y7428020D01*
X50463553Y7648632D01*
X50479645Y7750232D01*
X50500500Y7881902D01*
X50500500Y8118097D01*
X50463554Y8351360D01*
X50463553Y8351368D01*
X50457230Y8370824D01*
X50455234Y8440661D01*
X50487480Y8496823D01*
X58237611Y16246953D01*
X58237612Y16246954D01*
X58313463Y16360474D01*
X58314275Y16361689D01*
X58314277Y16361692D01*
X58367078Y16489167D01*
X58367081Y16489177D01*
X58394000Y16624503D01*
X58394000Y16756083D01*
X58413685Y16823122D01*
X58461701Y16866566D01*
X58479930Y16875855D01*
X58492597Y16885058D01*
X58671010Y17014683D01*
X58838017Y17181690D01*
X58976843Y17372767D01*
X59041417Y17499500D01*
X59084066Y17583203D01*
X59089010Y17598417D01*
X59136114Y17743389D01*
X59157053Y17807831D01*
X59194000Y18041102D01*
X59194000Y18277297D01*
X59157053Y18510568D01*
X59148626Y18536503D01*
X59084068Y18735192D01*
X58976843Y18945633D01*
X58838017Y19136710D01*
X58671010Y19303717D01*
X58479933Y19442543D01*
X58269492Y19549768D01*
X58044868Y19622753D01*
X57811597Y19659700D01*
X57811592Y19659700D01*
X57575408Y19659700D01*
X57575403Y19659700D01*
X57342131Y19622753D01*
X57237912Y19588889D01*
X57117508Y19549768D01*
X57117506Y19549767D01*
X57117503Y19549766D01*
X57006491Y19493202D01*
X56907067Y19442543D01*
X56715990Y19303717D01*
X56548983Y19136710D01*
X56410157Y18945633D01*
X56302933Y18735196D01*
X56229946Y18510568D01*
X56193000Y18277297D01*
X56193000Y18041102D01*
X56229946Y17807831D01*
X56302933Y17583203D01*
X56410157Y17372766D01*
X56440079Y17331583D01*
X56548983Y17181690D01*
X56548985Y17181688D01*
X56548985Y17181687D01*
X56715990Y17014682D01*
X56776946Y16970395D01*
X56819611Y16915065D01*
X56825589Y16845451D01*
X56792982Y16783657D01*
X56791740Y16782397D01*
X56302419Y16293076D01*
X56241096Y16259591D01*
X56171404Y16264575D01*
X56115471Y16306447D01*
X56091054Y16371911D01*
X56092265Y16400156D01*
X56106100Y16487503D01*
X56106100Y16723697D01*
X56069153Y16956968D01*
X56059952Y16985285D01*
X55996168Y17181592D01*
X55888943Y17392033D01*
X55750117Y17583110D01*
X55583110Y17750117D01*
X55392033Y17888943D01*
X55181592Y17996168D01*
X54956968Y18069153D01*
X54723697Y18106100D01*
X54723692Y18106100D01*
X54487508Y18106100D01*
X54487504Y18106100D01*
X54443270Y18099093D01*
X54421554Y18095654D01*
X54352263Y18104608D01*
X54298810Y18149603D01*
X54278170Y18216355D01*
X54291672Y18274422D01*
X54310565Y18311503D01*
X54310568Y18311508D01*
X54383553Y18536132D01*
X54392119Y18590215D01*
X54420500Y18769402D01*
X54420500Y19005597D01*
X54383553Y19238868D01*
X54358948Y19314594D01*
X54310568Y19463492D01*
X54203343Y19673933D01*
X54112973Y19798315D01*
X54089494Y19864120D01*
X54105319Y19932174D01*
X54155425Y19980869D01*
X54213292Y19995200D01*
X59061196Y19995200D01*
X59196522Y20022118D01*
X59196532Y20022121D01*
X59324007Y20074922D01*
X59438745Y20151587D01*
X59438746Y20151588D01*
X61429238Y22142081D01*
X61490561Y22175566D01*
X61516919Y22178400D01*
X64073496Y22178400D01*
X64208822Y22205318D01*
X64208832Y22205321D01*
X64336307Y22258122D01*
X64451045Y22334787D01*
X66681612Y24565354D01*
X66758277Y24680092D01*
X66811078Y24807567D01*
X66811081Y24807577D01*
X66838000Y24942904D01*
X66838000Y25080896D01*
X66811081Y25216223D01*
X66811080Y25216229D01*
X66759882Y25339830D01*
X66752414Y25409299D01*
X66783689Y25471778D01*
X66843778Y25507430D01*
X66898632Y25508900D01*
X66911705Y25506300D01*
X66911707Y25506300D01*
X69158496Y25506300D01*
X69293822Y25533218D01*
X69293832Y25533221D01*
X69421307Y25586022D01*
X69536045Y25662687D01*
X70617812Y26744454D01*
X70635795Y26771368D01*
X70694475Y26859189D01*
X70694475Y26859190D01*
X70694478Y26859194D01*
X70697348Y26864563D01*
X70699363Y26863485D01*
X70736805Y26909953D01*
X70803098Y26932021D01*
X70807530Y26932100D01*
X74958833Y26932100D01*
X75025872Y26912415D01*
X75061935Y26876991D01*
X75103785Y26814357D01*
X75103788Y26814353D01*
X76316054Y25602087D01*
X76430792Y25525422D01*
X76558267Y25472621D01*
X76558277Y25472618D01*
X76693604Y25445700D01*
X76693606Y25445700D01*
X76693607Y25445700D01*
X79275000Y25445700D01*
X79342039Y25426015D01*
X79387794Y25373211D01*
X79399000Y25321700D01*
X79399000Y24393820D01*
X79388367Y24343582D01*
X79384039Y24333815D01*
X79379225Y24326611D01*
X79356016Y24270579D01*
X79355395Y24269178D01*
X79333757Y24243630D01*
X79312748Y24217560D01*
X79311255Y24217063D01*
X79310238Y24215862D01*
X79278221Y24206068D01*
X79246454Y24195495D01*
X79244928Y24195884D01*
X79243424Y24195424D01*
X79211190Y24204495D01*
X79178755Y24212774D01*
X79177405Y24214003D01*
X79176167Y24214352D01*
X79172570Y24218409D01*
X79141712Y24246528D01*
X79032017Y24397510D01*
X78865010Y24564517D01*
X78673933Y24703343D01*
X78463492Y24810568D01*
X78238868Y24883553D01*
X78005597Y24920500D01*
X78005592Y24920500D01*
X77769408Y24920500D01*
X77769403Y24920500D01*
X77536131Y24883553D01*
X77431912Y24849689D01*
X77311508Y24810568D01*
X77311505Y24810566D01*
X77311503Y24810566D01*
X77206716Y24757174D01*
X77101067Y24703343D01*
X76909990Y24564517D01*
X76742983Y24397510D01*
X76625168Y24235352D01*
X76604157Y24206433D01*
X76496933Y23995996D01*
X76423946Y23771368D01*
X76387000Y23538097D01*
X76387000Y23301902D01*
X76423947Y23068628D01*
X76423947Y23068627D01*
X76430269Y23049170D01*
X76432262Y22979329D01*
X76400018Y22923175D01*
X74407565Y20930722D01*
X74346242Y20897237D01*
X74339323Y20895937D01*
X74261132Y20883553D01*
X74261126Y20883551D01*
X74261125Y20883551D01*
X74166261Y20852727D01*
X74036508Y20810568D01*
X74036505Y20810566D01*
X74036503Y20810566D01*
X73985637Y20784648D01*
X73826067Y20703343D01*
X73634990Y20564517D01*
X73634987Y20564514D01*
X73476553Y20406080D01*
X73415230Y20372595D01*
X73345538Y20377579D01*
X73301191Y20406080D01*
X73283014Y20424257D01*
X73235065Y20472206D01*
X73132291Y20517585D01*
X73107165Y20520500D01*
X70617436Y20520499D01*
X70617422Y20520497D01*
X70617417Y20520497D01*
X70592312Y20517586D01*
X70592310Y20517585D01*
X70592309Y20517585D01*
X70489535Y20472206D01*
X70410094Y20392765D01*
X70364715Y20289993D01*
X70364715Y20289991D01*
X70361800Y20264868D01*
X70361800Y20059220D01*
X70342115Y19992181D01*
X70289311Y19946426D01*
X70220153Y19936482D01*
X70156597Y19965507D01*
X70148031Y19974134D01*
X70147962Y19974065D01*
X70062807Y20059220D01*
X69977510Y20144517D01*
X69786433Y20283343D01*
X69768205Y20292630D01*
X69717410Y20340603D01*
X69700500Y20403115D01*
X69700500Y21836643D01*
X69720185Y21903682D01*
X69724182Y21909529D01*
X69779923Y21986250D01*
X69863343Y22101067D01*
X69922502Y22217173D01*
X69970566Y22311503D01*
X69978132Y22334786D01*
X70017874Y22457101D01*
X70043553Y22536131D01*
X70080500Y22769402D01*
X70080500Y23005597D01*
X70043553Y23238868D01*
X70023070Y23301908D01*
X69970568Y23463492D01*
X69863343Y23673933D01*
X69724517Y23865010D01*
X69557510Y24032017D01*
X69366433Y24170843D01*
X69155992Y24278068D01*
X68931368Y24351053D01*
X68698097Y24388000D01*
X68698092Y24388000D01*
X68461908Y24388000D01*
X68461903Y24388000D01*
X68228631Y24351053D01*
X68153392Y24326606D01*
X68004008Y24278068D01*
X68004005Y24278066D01*
X68004003Y24278066D01*
X67926102Y24238373D01*
X67793567Y24170843D01*
X67602490Y24032017D01*
X67435483Y23865010D01*
X67304479Y23684699D01*
X67296657Y23673933D01*
X67189433Y23463496D01*
X67116446Y23238868D01*
X67079500Y23005597D01*
X67079500Y22769402D01*
X67116446Y22536131D01*
X67189433Y22311503D01*
X67296657Y22101066D01*
X67348312Y22029970D01*
X67435483Y21909990D01*
X67435485Y21909988D01*
X67435485Y21909987D01*
X67602487Y21742985D01*
X67793566Y21604157D01*
X68004003Y21496933D01*
X68213819Y21428760D01*
X68271494Y21389322D01*
X68298692Y21324963D01*
X68299500Y21310829D01*
X68299500Y20403115D01*
X68279815Y20336076D01*
X68231794Y20292630D01*
X68213567Y20283343D01*
X68022490Y20144517D01*
X67855483Y19977510D01*
X67743811Y19823807D01*
X67716657Y19786433D01*
X67609433Y19575996D01*
X67536446Y19351368D01*
X67499500Y19118097D01*
X67499500Y18881902D01*
X67536446Y18648631D01*
X67609433Y18424003D01*
X67716657Y18213566D01*
X67789304Y18113577D01*
X67855483Y18022490D01*
X67855485Y18022488D01*
X67855485Y18022487D01*
X68022487Y17855485D01*
X68213566Y17716657D01*
X68424003Y17609433D01*
X68648631Y17536446D01*
X68881903Y17499500D01*
X68881908Y17499500D01*
X69118097Y17499500D01*
X69351368Y17536446D01*
X69575996Y17609433D01*
X69786433Y17716657D01*
X69823226Y17743389D01*
X69977510Y17855483D01*
X70144517Y18022490D01*
X70147962Y18025935D01*
X70149002Y18024894D01*
X70202005Y18059501D01*
X70271873Y18060007D01*
X70330923Y18022658D01*
X70360407Y17959314D01*
X70361800Y17940781D01*
X70361800Y17775144D01*
X70361802Y17775117D01*
X70364713Y17750012D01*
X70364715Y17750008D01*
X70410093Y17647235D01*
X70489534Y17567794D01*
X70592307Y17522415D01*
X70617434Y17519500D01*
X70617435Y17519500D01*
X73107156Y17519500D01*
X73107182Y17519502D01*
X73132287Y17522413D01*
X73132291Y17522415D01*
X73235064Y17567793D01*
X73314505Y17647234D01*
X73314506Y17647235D01*
X73356964Y17743393D01*
X73359884Y17750006D01*
X73359885Y17750009D01*
X73362800Y17775135D01*
X73362799Y18248312D01*
X73382483Y18315350D01*
X73435287Y18361105D01*
X73504446Y18371049D01*
X73568002Y18342024D01*
X73574480Y18335993D01*
X73634990Y18275482D01*
X73826066Y18136657D01*
X74036503Y18029433D01*
X74261131Y17956446D01*
X74494403Y17919500D01*
X74494408Y17919500D01*
X74730597Y17919500D01*
X74963868Y17956446D01*
X75188496Y18029433D01*
X75398933Y18136657D01*
X75410885Y18145341D01*
X75590010Y18275483D01*
X75757017Y18442490D01*
X75895843Y18633567D01*
X75964154Y18767634D01*
X76003066Y18844003D01*
X76015381Y18881902D01*
X76066608Y19039564D01*
X76076053Y19068631D01*
X76113000Y19301902D01*
X76113000Y19538097D01*
X76076053Y19771368D01*
X76045916Y19864120D01*
X76003068Y19995992D01*
X75895843Y20206433D01*
X75860779Y20254692D01*
X75837299Y20320498D01*
X75853124Y20388552D01*
X75873416Y20415259D01*
X77390675Y21932518D01*
X77451998Y21966003D01*
X77516670Y21962769D01*
X77536128Y21956447D01*
X77769403Y21919500D01*
X77769408Y21919500D01*
X78005597Y21919500D01*
X78238868Y21956446D01*
X78463496Y22029433D01*
X78673933Y22136657D01*
X78768436Y22205318D01*
X78865010Y22275483D01*
X79032017Y22442490D01*
X79075183Y22501902D01*
X79130512Y22544567D01*
X79200126Y22550546D01*
X79261921Y22517940D01*
X79296278Y22457101D01*
X79299500Y22429016D01*
X79299500Y21034018D01*
X79279815Y20966979D01*
X79263181Y20946337D01*
X78916824Y20599980D01*
X78855501Y20566495D01*
X78790825Y20569730D01*
X78771368Y20576053D01*
X78667689Y20592473D01*
X78538097Y20613000D01*
X78538092Y20613000D01*
X78301908Y20613000D01*
X78301903Y20613000D01*
X78068631Y20576053D01*
X77976905Y20546249D01*
X77844008Y20503068D01*
X77844005Y20503066D01*
X77844003Y20503066D01*
X77776490Y20468666D01*
X77633567Y20395843D01*
X77442490Y20257017D01*
X77275483Y20090010D01*
X77193747Y19977510D01*
X77136657Y19898933D01*
X77029433Y19688496D01*
X76956446Y19463868D01*
X76919500Y19230597D01*
X76919500Y18994402D01*
X76956446Y18761131D01*
X77029433Y18536503D01*
X77136657Y18326066D01*
X77195812Y18244647D01*
X77275483Y18134990D01*
X77275485Y18134988D01*
X77275485Y18134987D01*
X77442487Y17967985D01*
X77633566Y17829157D01*
X77844003Y17721933D01*
X78068631Y17648946D01*
X78301903Y17612000D01*
X78301908Y17612000D01*
X78538097Y17612000D01*
X78771368Y17648946D01*
X78995996Y17721933D01*
X79206433Y17829157D01*
X79230367Y17846546D01*
X79397510Y17967983D01*
X79564517Y18134990D01*
X79703343Y18326067D01*
X79762662Y18442487D01*
X79810566Y18536503D01*
X79811320Y18538822D01*
X79862021Y18694864D01*
X79883553Y18761131D01*
X79920500Y18994402D01*
X79920500Y19230597D01*
X79899973Y19360189D01*
X79883553Y19463868D01*
X79877230Y19483324D01*
X79875234Y19553163D01*
X79907480Y19609324D01*
X80544111Y20245954D01*
X80546256Y20249163D01*
X80548644Y20252737D01*
X80620775Y20360689D01*
X80632219Y20388316D01*
X80673578Y20488167D01*
X80673581Y20488177D01*
X80700500Y20623504D01*
X80700500Y24063795D01*
X80674317Y24195424D01*
X80673580Y24199128D01*
X80620775Y24326611D01*
X80620771Y24326616D01*
X80617906Y24331978D01*
X80619437Y24332796D01*
X80601020Y24391593D01*
X80601000Y24393820D01*
X80601000Y25747178D01*
X80611060Y25796103D01*
X80615561Y25806586D01*
X80620775Y25814389D01*
X80671614Y25937127D01*
X80671922Y25937843D01*
X80693722Y25964193D01*
X80715142Y25990774D01*
X80716291Y25991473D01*
X80716460Y25991677D01*
X80716808Y25991788D01*
X80723815Y25996051D01*
X80725380Y25997206D01*
X80725382Y25997207D01*
X80834650Y26077850D01*
X80915293Y26187118D01*
X80936791Y26248555D01*
X80960146Y26315298D01*
X80960146Y26315300D01*
X80963000Y26345730D01*
X80963000Y26754269D01*
X80960146Y26784699D01*
X80960146Y26784701D01*
X80934079Y26859194D01*
X80915293Y26912882D01*
X80834650Y27022150D01*
X80725382Y27102793D01*
X80639926Y27132695D01*
X80597200Y27147646D01*
X80566770Y27150500D01*
X80566766Y27150500D01*
X80080989Y27150500D01*
X80079123Y27151000D01*
X79920877Y27151000D01*
X79919011Y27150500D01*
X79433234Y27150500D01*
X79433230Y27150500D01*
X79402800Y27147646D01*
X79402798Y27147646D01*
X79306663Y27114006D01*
X79274618Y27102793D01*
X79165350Y27022150D01*
X79084707Y26912882D01*
X79084644Y26912762D01*
X79084539Y26912654D01*
X79079189Y26905405D01*
X79078197Y26906137D01*
X79035916Y26862688D01*
X78975012Y26846700D01*
X77104119Y26846700D01*
X77037080Y26866385D01*
X77016438Y26883019D01*
X76540387Y27359069D01*
X76506902Y27420392D01*
X76511886Y27490083D01*
X76540387Y27534431D01*
X77577825Y28571869D01*
X77639148Y28605354D01*
X77708840Y28600370D01*
X77753187Y28571869D01*
X77942878Y28382179D01*
X78054775Y28270281D01*
X78054783Y28270275D01*
X78129542Y28227114D01*
X78129543Y28227114D01*
X78150009Y28215298D01*
X78191821Y28191157D01*
X78344677Y28150200D01*
X78976650Y28150200D01*
X79043689Y28130515D01*
X79077693Y28093491D01*
X79079189Y28094595D01*
X79084706Y28087118D01*
X79084707Y28087118D01*
X79140015Y28012178D01*
X79165350Y27977850D01*
X79274617Y27897207D01*
X79274619Y27897206D01*
X79402799Y27852353D01*
X79433230Y27849500D01*
X79433234Y27849500D01*
X79919011Y27849500D01*
X79920877Y27849000D01*
X80079123Y27849000D01*
X80080989Y27849500D01*
X80566766Y27849500D01*
X80566770Y27849500D01*
X80597199Y27852353D01*
X80597201Y27852353D01*
X80725380Y27897206D01*
X80725382Y27897207D01*
X80757267Y27920739D01*
X80834650Y27977850D01*
X80915293Y28087118D01*
X80930478Y28130515D01*
X80960146Y28215298D01*
X80960146Y28215300D01*
X80963000Y28245730D01*
X80963000Y28654269D01*
X80960146Y28684699D01*
X80960146Y28684701D01*
X80931315Y28767093D01*
X80915293Y28812882D01*
X80834650Y28922150D01*
X80738624Y28993020D01*
X80725384Y29002792D01*
X80725382Y29002792D01*
X80725382Y29002793D01*
X80694276Y29013677D01*
X80637502Y29054395D01*
X80623881Y29077760D01*
X80623648Y29077636D01*
X80620778Y29083002D01*
X80620775Y29083011D01*
X80544114Y29197742D01*
X80446542Y29295314D01*
X80331811Y29371975D01*
X80204328Y29424780D01*
X80160041Y29433589D01*
X80068995Y29451700D01*
X80068993Y29451700D01*
X79931007Y29451700D01*
X79931005Y29451700D01*
X79795677Y29424781D01*
X79795672Y29424780D01*
X79795667Y29424778D01*
X79668193Y29371977D01*
X79662822Y29369106D01*
X79662004Y29370634D01*
X79603189Y29352220D01*
X79600979Y29352200D01*
X78787000Y29352200D01*
X78719961Y29371885D01*
X78674206Y29424689D01*
X78663000Y29476200D01*
X78663000Y29918096D01*
X78663000Y29918102D01*
X78652377Y30006564D01*
X78596861Y30147342D01*
X78505422Y30267922D01*
X78384842Y30359361D01*
X78244064Y30414877D01*
X78188206Y30421584D01*
X78123994Y30449121D01*
X78084861Y30507004D01*
X78083233Y30576854D01*
X78119629Y30636496D01*
X78182491Y30666994D01*
X78202992Y30668700D01*
X78502496Y30668700D01*
X78637822Y30695618D01*
X78637832Y30695621D01*
X78765307Y30748422D01*
X78880045Y30825087D01*
X81717112Y33662154D01*
X81793777Y33776892D01*
X81846578Y33904367D01*
X81846581Y33904377D01*
X81873500Y34039703D01*
X81873500Y41229181D01*
X81893185Y41296220D01*
X81909819Y41316862D01*
X82625429Y42032472D01*
X82686752Y42065957D01*
X82737779Y42065415D01*
X82737869Y42065978D01*
X82741684Y42065373D01*
X82742035Y42065370D01*
X82742671Y42065217D01*
X82968179Y42029500D01*
X82968184Y42029500D01*
X83196503Y42029500D01*
X83422001Y42065215D01*
X83639144Y42135770D01*
X83842569Y42239421D01*
X83880949Y42267306D01*
X84027278Y42373621D01*
X84188720Y42535063D01*
X84322920Y42719772D01*
X84382883Y42837456D01*
X84426570Y42923196D01*
X84441132Y42968011D01*
X84474262Y43069974D01*
X84497125Y43140339D01*
X84532841Y43365837D01*
X84532841Y43594162D01*
X84497125Y43819660D01*
X84459064Y43936799D01*
X84426572Y44036799D01*
X84322920Y44240228D01*
X84188720Y44424937D01*
X84027278Y44586379D01*
X83842569Y44720579D01*
X83639140Y44824231D01*
X83422001Y44894784D01*
X83196503Y44930500D01*
X83196498Y44930500D01*
X82968184Y44930500D01*
X82968179Y44930500D01*
X82742680Y44894784D01*
X82641933Y44862049D01*
X82525542Y44824231D01*
X82525539Y44824229D01*
X82525537Y44824229D01*
X82460650Y44791167D01*
X82322113Y44720579D01*
X82137404Y44586379D01*
X82137402Y44586377D01*
X81975963Y44424938D01*
X81841762Y44240228D01*
X81738111Y44036803D01*
X81667556Y43819660D01*
X81631841Y43594162D01*
X81631841Y43365837D01*
X81667558Y43140328D01*
X81667696Y43139756D01*
X81667684Y43139532D01*
X81668319Y43135528D01*
X81667476Y43135394D01*
X81664190Y43069974D01*
X81634797Y43023154D01*
X81393985Y42782343D01*
X81332662Y42748858D01*
X81262970Y42753842D01*
X81207037Y42795714D01*
X81182620Y42861178D01*
X81194140Y42917956D01*
X81192364Y42918692D01*
X81194226Y42923190D01*
X81194228Y42923196D01*
X81194231Y42923201D01*
X81258538Y43121117D01*
X81264784Y43140339D01*
X81300500Y43365837D01*
X81300500Y43594162D01*
X81264784Y43819660D01*
X81226723Y43936799D01*
X81194231Y44036799D01*
X81090579Y44240228D01*
X80956379Y44424937D01*
X80794937Y44586379D01*
X80610228Y44720579D01*
X80610221Y44720582D01*
X80609710Y44720897D01*
X80609556Y44721067D01*
X80606286Y44723443D01*
X80606785Y44724129D01*
X80602743Y44728596D01*
X80593297Y44732911D01*
X80579703Y44754063D01*
X80562835Y44772708D01*
X80560133Y44784514D01*
X80555523Y44791689D01*
X80550500Y44826624D01*
X80550500Y44882888D01*
X80570185Y44949927D01*
X80622989Y44995682D01*
X80655102Y45005361D01*
X80851368Y45036446D01*
X81075996Y45109433D01*
X81286433Y45216657D01*
X81477510Y45355483D01*
X81644517Y45522490D01*
X81783343Y45713567D01*
X81864014Y45871893D01*
X81890566Y45924003D01*
X81891005Y45925352D01*
X81949490Y46105351D01*
X81963553Y46148631D01*
X82000500Y46381902D01*
X82000500Y46618097D01*
X81963553Y46851368D01*
X81909275Y47018417D01*
X81890568Y47075992D01*
X81783343Y47286433D01*
X81644517Y47477510D01*
X81477510Y47644517D01*
X81286433Y47783343D01*
X81075992Y47890568D01*
X80851368Y47963553D01*
X80618097Y48000500D01*
X80618092Y48000500D01*
X80381908Y48000500D01*
X80381903Y48000500D01*
X80148631Y47963553D01*
X80044412Y47929689D01*
X79924008Y47890568D01*
X79924005Y47890566D01*
X79924003Y47890566D01*
X79812991Y47834002D01*
X79713567Y47783343D01*
X79522490Y47644517D01*
X79355483Y47477510D01*
X79265553Y47353732D01*
X79216657Y47286433D01*
X79109433Y47075996D01*
X79036446Y46851368D01*
X78999500Y46618097D01*
X78999500Y46381902D01*
X79036446Y46148631D01*
X79109434Y45924000D01*
X79135985Y45871893D01*
X79149500Y45815599D01*
X79149500Y44826624D01*
X79129815Y44759585D01*
X79093371Y44723913D01*
X79093714Y44723443D01*
X79090521Y44721123D01*
X79090290Y44720897D01*
X79089777Y44720582D01*
X79089774Y44720580D01*
X79089772Y44720579D01*
X78905063Y44586379D01*
X78905061Y44586377D01*
X78743622Y44424938D01*
X78609421Y44240228D01*
X78505770Y44036803D01*
X78435215Y43819660D01*
X78399500Y43594162D01*
X78399500Y43365837D01*
X78435215Y43140339D01*
X78505770Y42923196D01*
X78609421Y42719771D01*
X78743622Y42535061D01*
X78905061Y42373622D01*
X79089777Y42239417D01*
X79090290Y42239103D01*
X79090443Y42238932D01*
X79093714Y42236557D01*
X79093214Y42235870D01*
X79137165Y42187292D01*
X79149500Y42133376D01*
X79149500Y39422619D01*
X79129815Y39355580D01*
X79113181Y39334938D01*
X78632181Y38853938D01*
X78570858Y38820453D01*
X78501166Y38825437D01*
X78445233Y38867309D01*
X78420816Y38932773D01*
X78420500Y38941619D01*
X78420500Y39005597D01*
X78383553Y39238868D01*
X78355383Y39325566D01*
X78310568Y39463492D01*
X78203343Y39673933D01*
X78064517Y39865010D01*
X77897510Y40032017D01*
X77706433Y40170843D01*
X77495992Y40278068D01*
X77276145Y40349501D01*
X77269282Y40351731D01*
X77211606Y40391169D01*
X77184408Y40455527D01*
X77183600Y40469662D01*
X77183600Y48949383D01*
X77203285Y49016422D01*
X77251301Y49059866D01*
X77269530Y49069155D01*
X77269533Y49069157D01*
X77460610Y49207983D01*
X77627617Y49374990D01*
X77766443Y49566067D01*
X77847853Y49725843D01*
X77873666Y49776503D01*
X77878014Y49789883D01*
X77932278Y49956890D01*
X77946653Y50001131D01*
X77983600Y50234402D01*
X77983600Y50470597D01*
X77946653Y50703868D01*
X77905775Y50829676D01*
X77873668Y50928492D01*
X77871420Y50932903D01*
X77816379Y51040928D01*
X77766443Y51138933D01*
X77627617Y51330010D01*
X77461508Y51496119D01*
X77428023Y51557442D01*
X77433007Y51627134D01*
X77474879Y51683067D01*
X77540343Y51707484D01*
X77549189Y51707800D01*
X81511196Y51707800D01*
X81646522Y51734718D01*
X81646532Y51734721D01*
X81774007Y51787522D01*
X81888745Y51864187D01*
X81888746Y51864188D01*
X90699437Y60674881D01*
X90760760Y60708366D01*
X90787118Y60711200D01*
X91923034Y60711200D01*
X91955845Y60701565D01*
G37*
G04 #@! TD.AperFunction*
G04 #@! TA.AperFunction,Conductor*
G36*
X92168834Y41811263D02*
G01*
X92224767Y41769391D01*
X92249184Y41703927D01*
X92249500Y41695081D01*
X92249500Y41561577D01*
X92280290Y41367173D01*
X92341117Y41179970D01*
X92430476Y41004594D01*
X92463976Y40958486D01*
X92546172Y40845354D01*
X92546174Y40845352D01*
X92546174Y40845351D01*
X92685351Y40706174D01*
X92844594Y40590476D01*
X93021213Y40500485D01*
X93072009Y40452511D01*
X93088804Y40384690D01*
X93066267Y40318555D01*
X93021213Y40279515D01*
X93002902Y40270185D01*
X92844595Y40189524D01*
X92685354Y40073828D01*
X92546172Y39934646D01*
X92472923Y39833828D01*
X92430476Y39775405D01*
X92341117Y39600029D01*
X92280290Y39412826D01*
X92249500Y39218422D01*
X92249500Y39021577D01*
X92280290Y38827173D01*
X92341117Y38639970D01*
X92430476Y38464594D01*
X92473624Y38405207D01*
X92546172Y38305354D01*
X92546174Y38305352D01*
X92546174Y38305351D01*
X92685351Y38166174D01*
X92844594Y38050476D01*
X93021213Y37960485D01*
X93072009Y37912511D01*
X93088804Y37844690D01*
X93066267Y37778555D01*
X93021213Y37739515D01*
X93019975Y37738884D01*
X92844595Y37649524D01*
X92685354Y37533828D01*
X92546172Y37394646D01*
X92451316Y37264089D01*
X92430476Y37235405D01*
X92341117Y37060029D01*
X92280290Y36872826D01*
X92249500Y36678422D01*
X92249500Y36481577D01*
X92280290Y36287173D01*
X92341117Y36099970D01*
X92430476Y35924594D01*
X92474495Y35864008D01*
X92546172Y35765354D01*
X92546174Y35765352D01*
X92546174Y35765351D01*
X92685351Y35626174D01*
X92844594Y35510476D01*
X93021213Y35420485D01*
X93072009Y35372511D01*
X93088804Y35304690D01*
X93066267Y35238555D01*
X93021213Y35199515D01*
X93019975Y35198884D01*
X92844595Y35109524D01*
X92685354Y34993828D01*
X92546172Y34854646D01*
X92459621Y34735519D01*
X92430476Y34695405D01*
X92341117Y34520029D01*
X92280290Y34332826D01*
X92249500Y34138422D01*
X92249500Y33941581D01*
X92249499Y33941579D01*
X92280290Y33747173D01*
X92341117Y33559970D01*
X92430476Y33384594D01*
X92483652Y33311405D01*
X92546172Y33225354D01*
X92546174Y33225352D01*
X92546174Y33225351D01*
X92685351Y33086174D01*
X92844594Y32970476D01*
X93021213Y32880485D01*
X93072009Y32832511D01*
X93088804Y32764690D01*
X93066267Y32698555D01*
X93021213Y32659515D01*
X93019975Y32658884D01*
X92844595Y32569524D01*
X92685354Y32453828D01*
X92546172Y32314646D01*
X92447264Y32178511D01*
X92430476Y32155405D01*
X92341117Y31980029D01*
X92280290Y31792826D01*
X92249500Y31598422D01*
X92249500Y31401577D01*
X92280290Y31207173D01*
X92341117Y31019970D01*
X92430476Y30844594D01*
X92488167Y30765190D01*
X92546172Y30685354D01*
X92546174Y30685352D01*
X92546174Y30685351D01*
X92685351Y30546174D01*
X92844594Y30430476D01*
X93019970Y30341117D01*
X93207173Y30280290D01*
X93401578Y30249500D01*
X93401583Y30249500D01*
X93598422Y30249500D01*
X93792826Y30280290D01*
X93980029Y30341117D01*
X94155405Y30430476D01*
X94199805Y30462735D01*
X94314646Y30546172D01*
X94453828Y30685354D01*
X94569524Y30844595D01*
X94626134Y30955699D01*
X94658882Y31019970D01*
X94719709Y31207173D01*
X94750500Y31401577D01*
X94750500Y31512881D01*
X94770185Y31579920D01*
X94786819Y31600562D01*
X96858119Y33671862D01*
X96919442Y33705347D01*
X96989134Y33700363D01*
X97045067Y33658491D01*
X97069484Y33593027D01*
X97069800Y33584181D01*
X97069800Y18177734D01*
X97050115Y18110695D01*
X96997311Y18064940D01*
X96928153Y18054996D01*
X96907490Y18059801D01*
X96896868Y18063253D01*
X96859617Y18069153D01*
X96663597Y18100200D01*
X96663592Y18100200D01*
X96427408Y18100200D01*
X96427403Y18100200D01*
X96194131Y18063253D01*
X96125977Y18041108D01*
X95969508Y17990268D01*
X95969505Y17990266D01*
X95969503Y17990266D01*
X95872384Y17940781D01*
X95759067Y17883043D01*
X95567990Y17744217D01*
X95400983Y17577210D01*
X95280375Y17411208D01*
X95262157Y17386133D01*
X95154933Y17175696D01*
X95081946Y16951068D01*
X95045000Y16717797D01*
X95045000Y16481602D01*
X95081946Y16248331D01*
X95154933Y16023703D01*
X95262157Y15813266D01*
X95294350Y15768957D01*
X95400983Y15622190D01*
X95400985Y15622188D01*
X95400985Y15622187D01*
X95567987Y15455185D01*
X95759066Y15316357D01*
X95969503Y15209133D01*
X96194131Y15136146D01*
X96427403Y15099200D01*
X96501481Y15099200D01*
X96568520Y15079515D01*
X96614275Y15026711D01*
X96624219Y14957553D01*
X96595194Y14893997D01*
X96589162Y14887519D01*
X88484662Y6783019D01*
X88423339Y6749534D01*
X88396981Y6746700D01*
X63200189Y6746700D01*
X63133150Y6766385D01*
X63087395Y6819189D01*
X63077451Y6888347D01*
X63106476Y6951903D01*
X63112508Y6958381D01*
X63278214Y7124087D01*
X63278217Y7124090D01*
X63417043Y7315167D01*
X63426332Y7333397D01*
X63474308Y7384192D01*
X63536816Y7401100D01*
X74614596Y7401100D01*
X74749922Y7428018D01*
X74749932Y7428021D01*
X74877407Y7480822D01*
X74992145Y7557487D01*
X74992146Y7557488D01*
X83476475Y16041818D01*
X83537798Y16075303D01*
X83602470Y16072069D01*
X83621928Y16065747D01*
X83855203Y16028800D01*
X83855208Y16028800D01*
X84091397Y16028800D01*
X84324668Y16065746D01*
X84549296Y16138733D01*
X84759733Y16245957D01*
X84761109Y16246957D01*
X84950810Y16384783D01*
X85117817Y16551790D01*
X85256643Y16742867D01*
X85330832Y16888471D01*
X85363866Y16953303D01*
X85364665Y16955760D01*
X85423610Y17137174D01*
X85436853Y17177931D01*
X85473800Y17411202D01*
X85473800Y17647397D01*
X85436853Y17880668D01*
X85436081Y17883043D01*
X85363868Y18105292D01*
X85256643Y18315733D01*
X85191813Y18404962D01*
X85168333Y18470768D01*
X85184158Y18538822D01*
X85234263Y18587517D01*
X85302741Y18601393D01*
X85367850Y18576045D01*
X85379812Y18565529D01*
X87330154Y16615187D01*
X87444892Y16538522D01*
X87572367Y16485721D01*
X87572377Y16485718D01*
X87707704Y16458800D01*
X87707706Y16458800D01*
X89410596Y16458800D01*
X89545922Y16485718D01*
X89545932Y16485721D01*
X89673407Y16538522D01*
X89788145Y16615187D01*
X91044312Y17871354D01*
X91120977Y17986092D01*
X91173778Y18113567D01*
X91173781Y18113577D01*
X91200700Y18248903D01*
X91200700Y25568795D01*
X91177489Y25685480D01*
X91177487Y25685488D01*
X91173780Y25704129D01*
X91120975Y25831611D01*
X91044314Y25946343D01*
X90472235Y26518422D01*
X92249500Y26518422D01*
X92249500Y26321577D01*
X92280290Y26127173D01*
X92341117Y25939970D01*
X92430476Y25764594D01*
X92496485Y25673741D01*
X92546172Y25605354D01*
X92546174Y25605352D01*
X92546174Y25605351D01*
X92685351Y25466174D01*
X92844594Y25350476D01*
X93019970Y25261117D01*
X93207173Y25200290D01*
X93401578Y25169500D01*
X93401583Y25169500D01*
X93598422Y25169500D01*
X93792826Y25200290D01*
X93980029Y25261117D01*
X94155405Y25350476D01*
X94167634Y25359361D01*
X94314646Y25466172D01*
X94453828Y25605354D01*
X94569524Y25764595D01*
X94628231Y25879815D01*
X94658882Y25939970D01*
X94660954Y25946345D01*
X94700687Y26068631D01*
X94719709Y26127173D01*
X94750500Y26321577D01*
X94750500Y26518422D01*
X94719709Y26712826D01*
X94689842Y26804746D01*
X94658884Y26900025D01*
X94569524Y27075405D01*
X94453828Y27234646D01*
X94314646Y27373828D01*
X94155405Y27489524D01*
X93980025Y27578884D01*
X93792826Y27639709D01*
X93789795Y27640189D01*
X93598422Y27670500D01*
X93598417Y27670500D01*
X93401583Y27670500D01*
X93401578Y27670500D01*
X93207173Y27639709D01*
X93129611Y27614507D01*
X93019975Y27578884D01*
X93019972Y27578882D01*
X93019970Y27578882D01*
X92928978Y27532519D01*
X92844595Y27489524D01*
X92685354Y27373828D01*
X92546172Y27234646D01*
X92456492Y27111213D01*
X92430476Y27075405D01*
X92341117Y26900029D01*
X92280290Y26712826D01*
X92249500Y26518422D01*
X90472235Y26518422D01*
X90183038Y26807619D01*
X90149553Y26868942D01*
X90154537Y26938634D01*
X90183038Y26982981D01*
X91720511Y28520453D01*
X91720512Y28520454D01*
X91797177Y28635192D01*
X91849978Y28762667D01*
X91849981Y28762677D01*
X91876900Y28898003D01*
X91876900Y41570481D01*
X91885544Y41599921D01*
X91892068Y41629908D01*
X91895822Y41634923D01*
X91896585Y41637520D01*
X91913219Y41658162D01*
X92037819Y41782762D01*
X92099142Y41816247D01*
X92168834Y41811263D01*
G37*
G04 #@! TD.AperFunction*
G04 #@! TA.AperFunction,Conductor*
G36*
X48356445Y46486267D02*
G01*
X48395485Y46441213D01*
X48485476Y46264594D01*
X48503502Y46239784D01*
X48601172Y46105354D01*
X48601174Y46105352D01*
X48601174Y46105351D01*
X48740354Y45966171D01*
X48803387Y45920375D01*
X48846052Y45865045D01*
X48854500Y45820058D01*
X48854500Y42570118D01*
X48834815Y42503079D01*
X48818181Y42482437D01*
X41830163Y35494420D01*
X41768840Y35460935D01*
X41704163Y35464170D01*
X41686368Y35469953D01*
X41582689Y35486373D01*
X41453097Y35506900D01*
X41453092Y35506900D01*
X41216908Y35506900D01*
X41216903Y35506900D01*
X40983631Y35469953D01*
X40950602Y35459221D01*
X40759008Y35396968D01*
X40759005Y35396966D01*
X40759003Y35396966D01*
X40687025Y35360291D01*
X40548567Y35289743D01*
X40357490Y35150917D01*
X40190483Y34983910D01*
X40051657Y34792833D01*
X39944433Y34582396D01*
X39871446Y34357768D01*
X39834500Y34124497D01*
X39834500Y33888302D01*
X39871446Y33655031D01*
X39944433Y33430403D01*
X40051657Y33219966D01*
X40113398Y33134988D01*
X40190483Y33028890D01*
X40190485Y33028888D01*
X40190485Y33028887D01*
X40357487Y32861885D01*
X40548566Y32723057D01*
X40759003Y32615833D01*
X40983631Y32542846D01*
X41216903Y32505900D01*
X41216908Y32505900D01*
X41453097Y32505900D01*
X41686368Y32542846D01*
X41910996Y32615833D01*
X42121433Y32723057D01*
X42159205Y32750500D01*
X42312510Y32861883D01*
X42479517Y33028890D01*
X42618343Y33219967D01*
X42688825Y33358295D01*
X42725566Y33430403D01*
X42738136Y33469087D01*
X42785130Y33613719D01*
X42798553Y33655031D01*
X42835500Y33888302D01*
X42835500Y34124497D01*
X42817061Y34240912D01*
X42798553Y34357768D01*
X42791690Y34378887D01*
X42789695Y34448725D01*
X42821941Y34504884D01*
X45686143Y37369086D01*
X45747466Y37402571D01*
X45817158Y37397587D01*
X45873091Y37355715D01*
X45897508Y37290251D01*
X45884309Y37225110D01*
X45779033Y37018496D01*
X45706046Y36793868D01*
X45669100Y36560597D01*
X45669100Y36324402D01*
X45706046Y36091131D01*
X45779033Y35866503D01*
X45886257Y35656066D01*
X45925185Y35602487D01*
X46025083Y35464990D01*
X46025085Y35464988D01*
X46025085Y35464987D01*
X46192087Y35297985D01*
X46383166Y35159157D01*
X46593603Y35051933D01*
X46818231Y34978946D01*
X47014842Y34947806D01*
X47077977Y34917877D01*
X47114908Y34858565D01*
X47113910Y34788702D01*
X47083125Y34737652D01*
X46935483Y34590010D01*
X46833919Y34450219D01*
X46796657Y34398933D01*
X46689433Y34188496D01*
X46616446Y33963868D01*
X46579500Y33730597D01*
X46579500Y33494402D01*
X46616446Y33261131D01*
X46689433Y33036503D01*
X46796657Y32826066D01*
X46835892Y32772065D01*
X46935483Y32634990D01*
X46935485Y32634988D01*
X46935485Y32634987D01*
X47102487Y32467985D01*
X47293569Y32329155D01*
X47311799Y32319866D01*
X47362593Y32271890D01*
X47379500Y32209383D01*
X47379500Y31772919D01*
X47359815Y31705880D01*
X47343181Y31685238D01*
X47094762Y31436819D01*
X47033439Y31403334D01*
X47007081Y31400500D01*
X44724499Y31400500D01*
X44657460Y31420185D01*
X44611705Y31472989D01*
X44600499Y31524500D01*
X44600499Y31570481D01*
X44600498Y31570490D01*
X44599484Y31579920D01*
X44594412Y31627114D01*
X44546628Y31755226D01*
X44464687Y31864687D01*
X44355226Y31946628D01*
X44227114Y31994412D01*
X44170485Y32000500D01*
X43729516Y32000499D01*
X43690025Y31996254D01*
X43672885Y31994412D01*
X43625101Y31976588D01*
X43544774Y31946628D01*
X43435313Y31864687D01*
X43399687Y31817096D01*
X43359117Y31762900D01*
X43353372Y31755226D01*
X43327268Y31685238D01*
X43305587Y31627110D01*
X43299500Y31570501D01*
X43299500Y30984712D01*
X43290061Y30937262D01*
X43278727Y30909897D01*
X43276419Y30904325D01*
X43276418Y30904321D01*
X43249500Y30768995D01*
X43249500Y30631004D01*
X43249499Y30631004D01*
X43276419Y30495673D01*
X43276420Y30495670D01*
X43290062Y30462735D01*
X43299500Y30415284D01*
X43299500Y29829518D01*
X43299501Y29829509D01*
X43305587Y29772885D01*
X43353372Y29644773D01*
X43435313Y29535313D01*
X43544771Y29453373D01*
X43672889Y29405587D01*
X43729506Y29399500D01*
X43729515Y29399500D01*
X44170481Y29399500D01*
X44170490Y29399501D01*
X44227114Y29405587D01*
X44355226Y29453372D01*
X44411628Y29495594D01*
X44464687Y29535313D01*
X44546628Y29644774D01*
X44594412Y29772886D01*
X44598863Y29814287D01*
X44600499Y29829498D01*
X44600500Y29829515D01*
X44600500Y29875500D01*
X44620185Y29942539D01*
X44672989Y29988294D01*
X44724500Y29999500D01*
X46524100Y29999500D01*
X46591139Y29979815D01*
X46636894Y29927011D01*
X46648100Y29875500D01*
X46648100Y27838503D01*
X46648099Y27838503D01*
X46675018Y27703177D01*
X46675021Y27703167D01*
X46727822Y27575692D01*
X46804487Y27460954D01*
X48016054Y26249387D01*
X48130792Y26172722D01*
X48258267Y26119921D01*
X48258277Y26119918D01*
X48393604Y26093000D01*
X48393606Y26093000D01*
X48393607Y26093000D01*
X49653681Y26093000D01*
X49720720Y26073315D01*
X49741362Y26056681D01*
X51600106Y24197936D01*
X51633591Y24136613D01*
X51628607Y24066921D01*
X51586735Y24010988D01*
X51521271Y23986571D01*
X51454485Y24000624D01*
X51450389Y24002787D01*
X51450382Y24002793D01*
X51350938Y24037590D01*
X51322200Y24047646D01*
X51291770Y24050500D01*
X51291766Y24050500D01*
X51166324Y24050500D01*
X51099285Y24070185D01*
X51087660Y24078646D01*
X51084045Y24081612D01*
X51084043Y24081614D01*
X50969311Y24158275D01*
X50969308Y24158276D01*
X50969307Y24158277D01*
X50879625Y24195424D01*
X50841828Y24211080D01*
X50797540Y24219889D01*
X50706496Y24238000D01*
X50706494Y24238000D01*
X50706493Y24238000D01*
X48811580Y24238000D01*
X48744541Y24257685D01*
X48736655Y24263196D01*
X48630650Y24343582D01*
X48609842Y24359361D01*
X48469064Y24414877D01*
X48380602Y24425500D01*
X47344398Y24425500D01*
X47255936Y24414877D01*
X47115158Y24359361D01*
X47115157Y24359360D01*
X47115156Y24359360D01*
X46988345Y24263196D01*
X46923034Y24238373D01*
X46913420Y24238000D01*
X45152015Y24238000D01*
X45084976Y24257685D01*
X45039221Y24310489D01*
X45036660Y24316512D01*
X45034361Y24322342D01*
X44942922Y24442922D01*
X44822342Y24534361D01*
X44681564Y24589877D01*
X44593102Y24600500D01*
X43406898Y24600500D01*
X43318436Y24589877D01*
X43177658Y24534361D01*
X43177657Y24534360D01*
X43177656Y24534360D01*
X43057078Y24442923D01*
X43056105Y24441639D01*
X43054913Y24440758D01*
X43051080Y24436925D01*
X43050504Y24437500D01*
X42999913Y24400115D01*
X42930192Y24395562D01*
X42869077Y24429426D01*
X42835973Y24490956D01*
X42833300Y24516563D01*
X42833300Y25875500D01*
X42852985Y25942539D01*
X42905789Y25988294D01*
X42957300Y25999500D01*
X43220480Y25999500D01*
X43220490Y25999501D01*
X43277114Y26005587D01*
X43405226Y26053372D01*
X43485012Y26113099D01*
X43514687Y26135313D01*
X43596628Y26244774D01*
X43644412Y26372886D01*
X43648069Y26406903D01*
X43650499Y26429498D01*
X43650499Y26429505D01*
X43650500Y26429515D01*
X43650499Y27015284D01*
X43659938Y27062736D01*
X43673578Y27095667D01*
X43673581Y27095677D01*
X43700500Y27231003D01*
X43700500Y27368996D01*
X43676525Y27489524D01*
X43673580Y27504328D01*
X43659937Y27537262D01*
X43650499Y27584715D01*
X43650499Y28170481D01*
X43650498Y28170490D01*
X43644412Y28227114D01*
X43636062Y28249500D01*
X43596628Y28355226D01*
X43514687Y28464687D01*
X43405226Y28546628D01*
X43277114Y28594412D01*
X43220485Y28600500D01*
X42779516Y28600499D01*
X42740025Y28596254D01*
X42722885Y28594412D01*
X42676493Y28577108D01*
X42594774Y28546628D01*
X42485313Y28464687D01*
X42461040Y28432262D01*
X42405324Y28357833D01*
X42403372Y28355226D01*
X42356443Y28229404D01*
X42355587Y28227110D01*
X42349500Y28170501D01*
X42349500Y27691519D01*
X42329815Y27624480D01*
X42313181Y27603838D01*
X41588688Y26879346D01*
X41588687Y26879345D01*
X41512022Y26764607D01*
X41459221Y26637132D01*
X41459218Y26637120D01*
X41439624Y26538613D01*
X41439624Y26538610D01*
X41432300Y26501793D01*
X41432300Y21934319D01*
X41412615Y21867280D01*
X41395981Y21846638D01*
X38316977Y18767634D01*
X38255654Y18734149D01*
X38209902Y18732842D01*
X38098417Y18750500D01*
X37901583Y18750500D01*
X37901578Y18750500D01*
X37707173Y18719709D01*
X37630765Y18694882D01*
X37519975Y18658884D01*
X37519972Y18658882D01*
X37519970Y18658882D01*
X37427455Y18611743D01*
X37344595Y18569524D01*
X37185354Y18453828D01*
X37046172Y18314646D01*
X36934815Y18161377D01*
X36879487Y18118714D01*
X36809873Y18112735D01*
X36748078Y18145341D01*
X36713721Y18206180D01*
X36710499Y18234265D01*
X36710499Y18694856D01*
X36710499Y18694864D01*
X36707618Y18719709D01*
X36707586Y18719987D01*
X36707585Y18719988D01*
X36707585Y18719991D01*
X36662206Y18822765D01*
X36582765Y18902206D01*
X36479991Y18947585D01*
X36454865Y18950500D01*
X36324499Y18950499D01*
X36315814Y18953049D01*
X36306853Y18951761D01*
X36282815Y18962738D01*
X36257461Y18970183D01*
X36251532Y18977025D01*
X36243297Y18980786D01*
X36229010Y19003017D01*
X36211706Y19022987D01*
X36209418Y19033502D01*
X36205523Y19039564D01*
X36200500Y19074499D01*
X36200500Y19108480D01*
X36220185Y19175519D01*
X36236819Y19196161D01*
X36558312Y19517654D01*
X36634977Y19632392D01*
X36687778Y19759867D01*
X36687781Y19759877D01*
X36714700Y19895203D01*
X36714700Y25496221D01*
X36734385Y25563260D01*
X36787189Y25609015D01*
X36856347Y25618959D01*
X36919903Y25589934D01*
X36939018Y25569107D01*
X36995484Y25491388D01*
X37162487Y25324385D01*
X37353566Y25185557D01*
X37564003Y25078333D01*
X37788631Y25005346D01*
X38021903Y24968400D01*
X38021908Y24968400D01*
X38258097Y24968400D01*
X38491368Y25005346D01*
X38715996Y25078333D01*
X38926433Y25185557D01*
X38946711Y25200290D01*
X39117510Y25324383D01*
X39284517Y25491390D01*
X39423343Y25682467D01*
X39475481Y25784793D01*
X39530566Y25892903D01*
X39533295Y25901300D01*
X39587664Y26068631D01*
X39603553Y26117531D01*
X39640500Y26350802D01*
X39640500Y26586997D01*
X39603553Y26820268D01*
X39595280Y26845730D01*
X39530568Y27044892D01*
X39423343Y27255333D01*
X39284517Y27446410D01*
X39117510Y27613417D01*
X39117509Y27613417D01*
X39114065Y27616862D01*
X39115109Y27617906D01*
X39080505Y27670882D01*
X39079986Y27740750D01*
X39117322Y27799807D01*
X39180661Y27829303D01*
X39199218Y27830700D01*
X39364855Y27830700D01*
X39364882Y27830702D01*
X39389987Y27833613D01*
X39389991Y27833615D01*
X39492764Y27878993D01*
X39572205Y27958434D01*
X39572206Y27958435D01*
X39605730Y28034360D01*
X39617584Y28061206D01*
X39617585Y28061209D01*
X39620500Y28086335D01*
X39620499Y29875500D01*
X39640184Y29942539D01*
X39692987Y29988294D01*
X39744499Y29999500D01*
X41275501Y29999500D01*
X41342540Y29979815D01*
X41388295Y29927011D01*
X41399501Y29875500D01*
X41399501Y29829509D01*
X41405587Y29772885D01*
X41453372Y29644773D01*
X41535313Y29535313D01*
X41644771Y29453373D01*
X41772889Y29405587D01*
X41829506Y29399500D01*
X41829515Y29399500D01*
X42270481Y29399500D01*
X42270490Y29399501D01*
X42327114Y29405587D01*
X42455226Y29453372D01*
X42511628Y29495594D01*
X42564687Y29535313D01*
X42646628Y29644774D01*
X42694412Y29772886D01*
X42698863Y29814287D01*
X42700499Y29829498D01*
X42700499Y29829509D01*
X42700500Y29829515D01*
X42700499Y30415284D01*
X42709938Y30462736D01*
X42723578Y30495667D01*
X42723581Y30495677D01*
X42750500Y30631004D01*
X42750500Y30768995D01*
X42723581Y30904323D01*
X42723580Y30904323D01*
X42723580Y30904328D01*
X42709937Y30937262D01*
X42700499Y30984715D01*
X42700499Y31570481D01*
X42700498Y31570490D01*
X42699484Y31579920D01*
X42694412Y31627114D01*
X42646628Y31755226D01*
X42564687Y31864687D01*
X42455226Y31946628D01*
X42327114Y31994412D01*
X42270485Y32000500D01*
X41829516Y32000499D01*
X41790025Y31996254D01*
X41772885Y31994412D01*
X41725101Y31976588D01*
X41644774Y31946628D01*
X41535313Y31864687D01*
X41499687Y31817096D01*
X41459117Y31762900D01*
X41453372Y31755226D01*
X41427268Y31685238D01*
X41405587Y31627110D01*
X41399500Y31570501D01*
X41399500Y31524500D01*
X41379815Y31457461D01*
X41327011Y31411706D01*
X41275500Y31400500D01*
X38944500Y31400500D01*
X38877461Y31420185D01*
X38831706Y31472989D01*
X38820500Y31524500D01*
X38820500Y32348850D01*
X38840185Y32415889D01*
X38871612Y32449166D01*
X38897506Y32467980D01*
X38897512Y32467985D01*
X39064514Y32634987D01*
X39064517Y32634990D01*
X39203343Y32826067D01*
X39276923Y32970476D01*
X39310566Y33036503D01*
X39311155Y33038314D01*
X39369102Y33216657D01*
X39383553Y33261131D01*
X39420500Y33494402D01*
X39420500Y33730597D01*
X39383553Y33963868D01*
X39380972Y33971811D01*
X39310568Y34188492D01*
X39203343Y34398933D01*
X39064517Y34590010D01*
X38897510Y34757017D01*
X38706433Y34895843D01*
X38495992Y35003068D01*
X38271368Y35076053D01*
X38038097Y35113000D01*
X38038092Y35113000D01*
X37801908Y35113000D01*
X37801903Y35113000D01*
X37568631Y35076053D01*
X37494395Y35051932D01*
X37344008Y35003068D01*
X37344005Y35003066D01*
X37344003Y35003066D01*
X37280223Y34970568D01*
X37133567Y34895843D01*
X36942490Y34757017D01*
X36942487Y34757014D01*
X36926381Y34740908D01*
X36865058Y34707423D01*
X36795366Y34712407D01*
X36739433Y34754279D01*
X36715016Y34819743D01*
X36714700Y34828589D01*
X36714700Y38972681D01*
X36734385Y39039720D01*
X36751019Y39060362D01*
X37503837Y39813181D01*
X37565160Y39846666D01*
X37591518Y39849500D01*
X38070481Y39849500D01*
X38070490Y39849501D01*
X38127114Y39855587D01*
X38255226Y39903372D01*
X38297003Y39934646D01*
X38364687Y39985313D01*
X38446628Y40094774D01*
X38494412Y40222886D01*
X38498167Y40257812D01*
X38500499Y40279498D01*
X38500499Y40279505D01*
X38500500Y40279515D01*
X38500499Y40720484D01*
X38494412Y40777114D01*
X38446628Y40905226D01*
X38364687Y41014687D01*
X38255226Y41096628D01*
X38127114Y41144412D01*
X38070485Y41150500D01*
X37484712Y41150499D01*
X37437260Y41159938D01*
X37404328Y41173580D01*
X37268996Y41200498D01*
X37268995Y41200499D01*
X37268994Y41200499D01*
X37131006Y41200499D01*
X36995671Y41173580D01*
X36995669Y41173579D01*
X36962737Y41159938D01*
X36915284Y41150499D01*
X36329516Y41150499D01*
X36290025Y41146254D01*
X36272885Y41144412D01*
X36225101Y41126588D01*
X36144774Y41096628D01*
X36035313Y41014687D01*
X35993456Y40958772D01*
X35967871Y40924594D01*
X35953372Y40905226D01*
X35906478Y40779498D01*
X35905587Y40777110D01*
X35899500Y40720501D01*
X35899500Y40279518D01*
X35899501Y40279515D01*
X35901833Y40257812D01*
X35889425Y40189053D01*
X35866224Y40156881D01*
X35470088Y39760746D01*
X35470087Y39760745D01*
X35470011Y39760631D01*
X35394367Y39647420D01*
X35393424Y39646009D01*
X35339060Y39514762D01*
X35295219Y39460359D01*
X35228925Y39438294D01*
X35161226Y39455573D01*
X35113615Y39506710D01*
X35100499Y39562215D01*
X35100499Y39770481D01*
X35100498Y39770490D01*
X35100023Y39774907D01*
X35094412Y39827114D01*
X35046628Y39955226D01*
X34964687Y40064687D01*
X34855226Y40146628D01*
X34727114Y40194412D01*
X34670485Y40200500D01*
X34084714Y40200499D01*
X34037262Y40209937D01*
X34004328Y40223580D01*
X34004323Y40223581D01*
X33868995Y40250500D01*
X33868993Y40250500D01*
X33778719Y40250500D01*
X33711680Y40270185D01*
X33691038Y40286819D01*
X32560919Y41416938D01*
X32527434Y41478261D01*
X32524600Y41504619D01*
X32524600Y45855732D01*
X32544285Y45922771D01*
X32575713Y45956049D01*
X32589645Y45966171D01*
X32728825Y46105351D01*
X32728828Y46105354D01*
X32844524Y46264595D01*
X32907397Y46387992D01*
X32934515Y46441213D01*
X32982489Y46492009D01*
X33050310Y46508804D01*
X33116445Y46486267D01*
X33155485Y46441213D01*
X33245476Y46264594D01*
X33263502Y46239784D01*
X33361172Y46105354D01*
X33361174Y46105352D01*
X33361174Y46105351D01*
X33500351Y45966174D01*
X33659594Y45850476D01*
X33834970Y45761117D01*
X34022173Y45700290D01*
X34216578Y45669500D01*
X34216583Y45669500D01*
X34413422Y45669500D01*
X34607826Y45700290D01*
X34795029Y45761117D01*
X34970405Y45850476D01*
X34990457Y45865045D01*
X35129646Y45966172D01*
X35268828Y46105354D01*
X35384524Y46264595D01*
X35447397Y46387992D01*
X35474515Y46441213D01*
X35522489Y46492009D01*
X35590310Y46508804D01*
X35656445Y46486267D01*
X35695485Y46441213D01*
X35785476Y46264594D01*
X35803502Y46239784D01*
X35901172Y46105354D01*
X35901174Y46105352D01*
X35901174Y46105351D01*
X36040351Y45966174D01*
X36199594Y45850476D01*
X36374970Y45761117D01*
X36562173Y45700290D01*
X36756578Y45669500D01*
X36756583Y45669500D01*
X36953422Y45669500D01*
X37147826Y45700290D01*
X37335029Y45761117D01*
X37510405Y45850476D01*
X37530457Y45865045D01*
X37669646Y45966172D01*
X37808828Y46105354D01*
X37924524Y46264595D01*
X37987397Y46387992D01*
X38014515Y46441213D01*
X38062489Y46492009D01*
X38130310Y46508804D01*
X38196445Y46486267D01*
X38235485Y46441213D01*
X38325476Y46264594D01*
X38343502Y46239784D01*
X38441172Y46105354D01*
X38441174Y46105352D01*
X38441174Y46105351D01*
X38580351Y45966174D01*
X38739594Y45850476D01*
X38914970Y45761117D01*
X39102173Y45700290D01*
X39296578Y45669500D01*
X39296583Y45669500D01*
X39493422Y45669500D01*
X39687826Y45700290D01*
X39875029Y45761117D01*
X40050405Y45850476D01*
X40070457Y45865045D01*
X40209646Y45966172D01*
X40348828Y46105354D01*
X40464524Y46264595D01*
X40527397Y46387992D01*
X40554515Y46441213D01*
X40602489Y46492009D01*
X40670310Y46508804D01*
X40736445Y46486267D01*
X40775485Y46441213D01*
X40865476Y46264594D01*
X40883502Y46239784D01*
X40981172Y46105354D01*
X40981174Y46105352D01*
X40981174Y46105351D01*
X41120351Y45966174D01*
X41279594Y45850476D01*
X41454970Y45761117D01*
X41642173Y45700290D01*
X41836578Y45669500D01*
X41836583Y45669500D01*
X42033422Y45669500D01*
X42227826Y45700290D01*
X42415029Y45761117D01*
X42590405Y45850476D01*
X42610457Y45865045D01*
X42749646Y45966172D01*
X42888828Y46105354D01*
X43004524Y46264595D01*
X43067397Y46387992D01*
X43094515Y46441213D01*
X43142489Y46492009D01*
X43210310Y46508804D01*
X43276445Y46486267D01*
X43315485Y46441213D01*
X43405476Y46264594D01*
X43423502Y46239784D01*
X43521172Y46105354D01*
X43521174Y46105352D01*
X43521174Y46105351D01*
X43660351Y45966174D01*
X43819594Y45850476D01*
X43994970Y45761117D01*
X44182173Y45700290D01*
X44376578Y45669500D01*
X44376583Y45669500D01*
X44573422Y45669500D01*
X44767826Y45700290D01*
X44955029Y45761117D01*
X45130405Y45850476D01*
X45150457Y45865045D01*
X45289646Y45966172D01*
X45428828Y46105354D01*
X45544524Y46264595D01*
X45607397Y46387992D01*
X45634515Y46441213D01*
X45682489Y46492009D01*
X45750310Y46508804D01*
X45816445Y46486267D01*
X45855485Y46441213D01*
X45945476Y46264594D01*
X45963502Y46239784D01*
X46061172Y46105354D01*
X46061174Y46105352D01*
X46061174Y46105351D01*
X46200354Y45966171D01*
X46263387Y45920375D01*
X46306052Y45865045D01*
X46314500Y45820058D01*
X46314500Y44499319D01*
X46294815Y44432280D01*
X46278181Y44411638D01*
X44763723Y42897180D01*
X44702400Y42863695D01*
X44637725Y42866930D01*
X44618268Y42873253D01*
X44559433Y42882571D01*
X44384997Y42910200D01*
X44384992Y42910200D01*
X44148808Y42910200D01*
X44148803Y42910200D01*
X43915531Y42873253D01*
X43872358Y42859225D01*
X43690908Y42800268D01*
X43690905Y42800266D01*
X43690903Y42800266D01*
X43645110Y42776933D01*
X43480467Y42693043D01*
X43289390Y42554217D01*
X43122383Y42387210D01*
X43012927Y42236557D01*
X42983557Y42196133D01*
X42876333Y41985696D01*
X42803346Y41761068D01*
X42766400Y41527797D01*
X42766400Y41291602D01*
X42803346Y41058331D01*
X42876333Y40833703D01*
X42983557Y40623266D01*
X43062762Y40514250D01*
X43122383Y40432190D01*
X43122385Y40432188D01*
X43122385Y40432187D01*
X43289387Y40265185D01*
X43480466Y40126357D01*
X43690903Y40019133D01*
X43915531Y39946146D01*
X44148803Y39909200D01*
X44148808Y39909200D01*
X44384997Y39909200D01*
X44618268Y39946146D01*
X44842896Y40019133D01*
X45053333Y40126357D01*
X45059035Y40130500D01*
X45244410Y40265183D01*
X45411417Y40432190D01*
X45550243Y40623267D01*
X45618797Y40757812D01*
X45657466Y40833703D01*
X45730453Y41058331D01*
X45767400Y41291602D01*
X45767400Y41527797D01*
X45730454Y41761060D01*
X45730453Y41761068D01*
X45724130Y41780524D01*
X45722134Y41850361D01*
X45754380Y41906523D01*
X47559109Y43711251D01*
X47559112Y43711254D01*
X47607286Y43783353D01*
X47607289Y43783357D01*
X47635775Y43825989D01*
X47635776Y43825992D01*
X47635778Y43825995D01*
X47688578Y43953467D01*
X47688581Y43953477D01*
X47715500Y44088804D01*
X47715500Y45820058D01*
X47735185Y45887097D01*
X47766613Y45920375D01*
X47829645Y45966171D01*
X47968825Y46105351D01*
X47968828Y46105354D01*
X48084524Y46264595D01*
X48147397Y46387992D01*
X48174515Y46441213D01*
X48222489Y46492009D01*
X48290310Y46508804D01*
X48356445Y46486267D01*
G37*
G04 #@! TD.AperFunction*
G04 #@! TA.AperFunction,Conductor*
G36*
X78698520Y64490415D02*
G01*
X78719162Y64473781D01*
X81111364Y62081577D01*
X81112334Y62080508D01*
X81213654Y61979188D01*
X81213658Y61979185D01*
X81328382Y61902528D01*
X81328395Y61902521D01*
X81455867Y61849721D01*
X81455877Y61849718D01*
X81591205Y61822800D01*
X81591207Y61822800D01*
X81729193Y61822800D01*
X89566682Y61822800D01*
X89633721Y61803115D01*
X89679476Y61750311D01*
X89689420Y61681153D01*
X89660395Y61617597D01*
X89654363Y61611119D01*
X85279239Y57235996D01*
X81188362Y53145119D01*
X81127039Y53111634D01*
X81100681Y53108800D01*
X79004135Y53108800D01*
X78937096Y53128485D01*
X78891341Y53181289D01*
X78881397Y53250447D01*
X78910422Y53314003D01*
X78947840Y53343285D01*
X79071233Y53406157D01*
X79071254Y53406172D01*
X79262310Y53544983D01*
X79429317Y53711990D01*
X79568143Y53903067D01*
X79618802Y54002491D01*
X79675366Y54113503D01*
X79687099Y54149611D01*
X79736035Y54300220D01*
X79748353Y54338131D01*
X79785300Y54571402D01*
X79785300Y54807597D01*
X79748353Y55040868D01*
X79717012Y55137325D01*
X79715017Y55207166D01*
X79751097Y55266999D01*
X79813798Y55297828D01*
X79883212Y55289864D01*
X79891238Y55286129D01*
X79924003Y55269433D01*
X80148631Y55196446D01*
X80381903Y55159500D01*
X80381908Y55159500D01*
X80618097Y55159500D01*
X80851368Y55196446D01*
X81075996Y55269433D01*
X81286433Y55376657D01*
X81304798Y55390000D01*
X81477510Y55515483D01*
X81644517Y55682490D01*
X81783343Y55873567D01*
X81834002Y55972991D01*
X81890566Y56084003D01*
X81891005Y56085352D01*
X81963550Y56308623D01*
X81963553Y56308631D01*
X82000500Y56541902D01*
X82000500Y56778097D01*
X81963553Y57011368D01*
X81890568Y57235992D01*
X81783343Y57446433D01*
X81644517Y57637510D01*
X81477510Y57804517D01*
X81286433Y57943343D01*
X81083719Y58046630D01*
X81075996Y58050566D01*
X81075995Y58050566D01*
X81075992Y58050568D01*
X80851368Y58123553D01*
X80618097Y58160500D01*
X80618092Y58160500D01*
X80381908Y58160500D01*
X80381903Y58160500D01*
X80148631Y58123553D01*
X80045752Y58090125D01*
X79924008Y58050568D01*
X79924005Y58050566D01*
X79924003Y58050566D01*
X79825071Y58000157D01*
X79713567Y57943343D01*
X79522490Y57804517D01*
X79355483Y57637510D01*
X79216657Y57446433D01*
X79109433Y57235996D01*
X79036446Y57011368D01*
X78999500Y56778097D01*
X78999500Y56541902D01*
X79036447Y56308630D01*
X79036448Y56308623D01*
X79067787Y56212172D01*
X79069782Y56142331D01*
X79033701Y56082499D01*
X78971000Y56051671D01*
X78901586Y56059636D01*
X78893578Y56063362D01*
X78860792Y56080068D01*
X78636168Y56153053D01*
X78402897Y56190000D01*
X78402892Y56190000D01*
X78166708Y56190000D01*
X78166703Y56190000D01*
X77933431Y56153053D01*
X77900433Y56142331D01*
X77708808Y56080068D01*
X77708805Y56080066D01*
X77708803Y56080066D01*
X77597791Y56023502D01*
X77498367Y55972843D01*
X77307290Y55834017D01*
X77140283Y55667010D01*
X77030192Y55515483D01*
X77001457Y55475933D01*
X76992168Y55457703D01*
X76944192Y55406908D01*
X76881684Y55390000D01*
X74116904Y55390000D01*
X73981577Y55363081D01*
X73981572Y55363080D01*
X73981567Y55363078D01*
X73854092Y55310277D01*
X73739354Y55233612D01*
X70982287Y52476545D01*
X70905622Y52361807D01*
X70852821Y52234332D01*
X70852821Y52234330D01*
X70852820Y52234328D01*
X70831775Y52128529D01*
X70799392Y52066621D01*
X70766455Y52042239D01*
X70739967Y52028743D01*
X70548890Y51889917D01*
X70381883Y51722910D01*
X70261663Y51557442D01*
X70243057Y51531833D01*
X70135833Y51321396D01*
X70062846Y51096768D01*
X70025900Y50863497D01*
X70025900Y50627302D01*
X70062846Y50394031D01*
X70135833Y50169403D01*
X70243057Y49958966D01*
X70295122Y49887306D01*
X70381883Y49767890D01*
X70381885Y49767888D01*
X70381885Y49767887D01*
X70548887Y49600885D01*
X70739966Y49462057D01*
X70950403Y49354833D01*
X71175031Y49281846D01*
X71408303Y49244900D01*
X71408308Y49244900D01*
X71644497Y49244900D01*
X71877768Y49281846D01*
X72102396Y49354833D01*
X72312833Y49462057D01*
X72324931Y49470847D01*
X72503910Y49600883D01*
X72670917Y49767890D01*
X72809743Y49958967D01*
X72860402Y50058391D01*
X72916966Y50169403D01*
X72926557Y50198919D01*
X72974935Y50347811D01*
X72989953Y50394031D01*
X73026900Y50627302D01*
X73026900Y50863497D01*
X72989953Y51096768D01*
X72967915Y51164594D01*
X72916968Y51321392D01*
X72809743Y51531833D01*
X72670917Y51722910D01*
X72528123Y51865704D01*
X72494638Y51927027D01*
X72499622Y51996719D01*
X72528123Y52041066D01*
X72915619Y52428562D01*
X72976942Y52462047D01*
X73046634Y52457063D01*
X73102567Y52415191D01*
X73126984Y52349727D01*
X73127300Y52340881D01*
X73127300Y52290202D01*
X73164246Y52056931D01*
X73237233Y51832303D01*
X73344457Y51621866D01*
X73409871Y51531833D01*
X73483283Y51430790D01*
X73483285Y51430788D01*
X73483285Y51430787D01*
X73650287Y51263785D01*
X73841366Y51124957D01*
X74051803Y51017733D01*
X74276431Y50944746D01*
X74509703Y50907800D01*
X74509708Y50907800D01*
X74745897Y50907800D01*
X74904391Y50932903D01*
X74973685Y50923948D01*
X75027136Y50878952D01*
X75047776Y50812201D01*
X75041720Y50772112D01*
X75019547Y50703872D01*
X75019547Y50703869D01*
X74982600Y50470597D01*
X74982600Y50234402D01*
X75019546Y50001131D01*
X75092533Y49776503D01*
X75199757Y49566066D01*
X75268939Y49470847D01*
X75338583Y49374990D01*
X75338585Y49374988D01*
X75338585Y49374987D01*
X75505587Y49207985D01*
X75696669Y49069155D01*
X75714899Y49059866D01*
X75765693Y49011890D01*
X75782600Y48949383D01*
X75782600Y39915095D01*
X75776928Y39895780D01*
X75776163Y39875661D01*
X75764215Y39852485D01*
X75762915Y39848056D01*
X75760291Y39844137D01*
X75759640Y39843204D01*
X75636657Y39673933D01*
X75623479Y39648070D01*
X75618575Y39641042D01*
X75597732Y39624326D01*
X75579392Y39604908D01*
X75570532Y39602511D01*
X75564069Y39597328D01*
X75543293Y39595143D01*
X75516884Y39588000D01*
X70993019Y39588000D01*
X70925980Y39607685D01*
X70905338Y39624319D01*
X68035545Y42494112D01*
X68035543Y42494114D01*
X67920811Y42570775D01*
X67920808Y42570776D01*
X67920807Y42570777D01*
X67843213Y42602917D01*
X67793328Y42623580D01*
X67749040Y42632389D01*
X67657996Y42650500D01*
X67657994Y42650500D01*
X67657993Y42650500D01*
X64131007Y42650500D01*
X64131005Y42650500D01*
X63995677Y42623581D01*
X63995672Y42623580D01*
X63972129Y42613828D01*
X63962738Y42609938D01*
X63915285Y42600499D01*
X63329516Y42600499D01*
X63290025Y42596254D01*
X63272885Y42594412D01*
X63252231Y42586708D01*
X63144774Y42546628D01*
X63035313Y42464687D01*
X62982883Y42394648D01*
X62955857Y42358545D01*
X62953372Y42355226D01*
X62908681Y42235405D01*
X62905587Y42227110D01*
X62899500Y42170501D01*
X62899500Y41729518D01*
X62899501Y41729509D01*
X62905587Y41672885D01*
X62953372Y41544773D01*
X63035313Y41435313D01*
X63144771Y41353373D01*
X63272889Y41305587D01*
X63329498Y41299500D01*
X63329515Y41299500D01*
X63915285Y41299500D01*
X63962737Y41290061D01*
X63995666Y41276421D01*
X63995673Y41276419D01*
X64131005Y41249500D01*
X64131007Y41249500D01*
X67247481Y41249500D01*
X67314520Y41229815D01*
X67335162Y41213181D01*
X70204953Y38343388D01*
X70204954Y38343387D01*
X70319692Y38266722D01*
X70447167Y38213921D01*
X70447177Y38213918D01*
X70582504Y38187000D01*
X70582506Y38187000D01*
X70582507Y38187000D01*
X75516884Y38187000D01*
X75583923Y38167315D01*
X75627368Y38119297D01*
X75636657Y38101066D01*
X75713761Y37994943D01*
X75775483Y37909990D01*
X75775485Y37909988D01*
X75775485Y37909987D01*
X75942487Y37742985D01*
X76133566Y37604157D01*
X76344003Y37496933D01*
X76568631Y37423946D01*
X76801903Y37387000D01*
X76865881Y37387000D01*
X76932920Y37367315D01*
X76978675Y37314511D01*
X76988619Y37245353D01*
X76959594Y37181797D01*
X76953562Y37175319D01*
X75015062Y35236819D01*
X74953739Y35203334D01*
X74927381Y35200500D01*
X73124499Y35200500D01*
X73057460Y35220185D01*
X73011705Y35272989D01*
X73000499Y35324500D01*
X73000499Y35744856D01*
X73000499Y35744864D01*
X73000114Y35748182D01*
X72997586Y35769987D01*
X72997585Y35769988D01*
X72997585Y35769991D01*
X72952206Y35872765D01*
X72872765Y35952206D01*
X72769991Y35997585D01*
X72744865Y36000500D01*
X70255136Y36000499D01*
X70255122Y36000497D01*
X70255117Y36000497D01*
X70230012Y35997586D01*
X70230010Y35997585D01*
X70230009Y35997585D01*
X70158095Y35965832D01*
X70127235Y35952206D01*
X70047794Y35872765D01*
X70002415Y35769993D01*
X70002415Y35769991D01*
X69999500Y35744868D01*
X69999500Y33255143D01*
X69999502Y33255117D01*
X70002413Y33230012D01*
X70002415Y33230008D01*
X70047793Y33127235D01*
X70127234Y33047794D01*
X70230007Y33002415D01*
X70255134Y32999500D01*
X70255135Y32999500D01*
X72744856Y32999500D01*
X72744882Y32999502D01*
X72769987Y33002413D01*
X72769991Y33002415D01*
X72872764Y33047793D01*
X72952205Y33127234D01*
X72952206Y33127235D01*
X72993151Y33219967D01*
X72997584Y33230006D01*
X72997585Y33230009D01*
X73000500Y33255135D01*
X73000500Y33675500D01*
X73020185Y33742539D01*
X73072989Y33788294D01*
X73124500Y33799500D01*
X75337896Y33799500D01*
X75473222Y33826418D01*
X75473232Y33826421D01*
X75600707Y33879222D01*
X75715445Y33955887D01*
X80260819Y38501261D01*
X80322142Y38534746D01*
X80391834Y38529762D01*
X80447767Y38487890D01*
X80472184Y38422426D01*
X80472500Y38413580D01*
X80472500Y34450219D01*
X80452815Y34383180D01*
X80436181Y34362538D01*
X79599681Y33526038D01*
X79538358Y33492553D01*
X79468666Y33497537D01*
X79412733Y33539409D01*
X79388316Y33604873D01*
X79388000Y33613719D01*
X79388000Y33698097D01*
X79351053Y33931368D01*
X79343086Y33955887D01*
X79278068Y34155992D01*
X79170843Y34366433D01*
X79032017Y34557510D01*
X78865010Y34724517D01*
X78673933Y34863343D01*
X78463492Y34970568D01*
X78238868Y35043553D01*
X78005597Y35080500D01*
X78005592Y35080500D01*
X77769408Y35080500D01*
X77769403Y35080500D01*
X77536131Y35043553D01*
X77499498Y35031650D01*
X77311508Y34970568D01*
X77311505Y34970566D01*
X77311503Y34970566D01*
X77208096Y34917877D01*
X77101067Y34863343D01*
X76909990Y34724517D01*
X76742983Y34557510D01*
X76615400Y34381908D01*
X76604157Y34366433D01*
X76496933Y34155996D01*
X76423946Y33931368D01*
X76387000Y33698097D01*
X76387000Y33461902D01*
X76423946Y33228631D01*
X76496933Y33004003D01*
X76604157Y32793566D01*
X76681286Y32687408D01*
X76742983Y32602490D01*
X76742985Y32602488D01*
X76742985Y32602487D01*
X76909987Y32435485D01*
X77104699Y32294018D01*
X77147364Y32238688D01*
X77153343Y32169074D01*
X77120737Y32107279D01*
X77059898Y32072922D01*
X77031813Y32069700D01*
X76332704Y32069700D01*
X76227304Y32048734D01*
X76197372Y32042780D01*
X76197367Y32042778D01*
X76069892Y31989977D01*
X75955154Y31913312D01*
X75955153Y31913311D01*
X75109323Y31067480D01*
X75048000Y31033995D01*
X74983325Y31037230D01*
X74963868Y31043553D01*
X74905033Y31052871D01*
X74730597Y31080500D01*
X74730592Y31080500D01*
X74494408Y31080500D01*
X74494403Y31080500D01*
X74261131Y31043553D01*
X74188551Y31019970D01*
X74036508Y30970568D01*
X74036505Y30970566D01*
X74036503Y30970566D01*
X73927948Y30915254D01*
X73826067Y30863343D01*
X73634990Y30724517D01*
X73467983Y30557510D01*
X73356306Y30403800D01*
X73329157Y30366433D01*
X73221933Y30155996D01*
X73148946Y29931368D01*
X73112000Y29698097D01*
X73112000Y29461902D01*
X73148946Y29228631D01*
X73221933Y29004003D01*
X73329157Y28793566D01*
X73376120Y28728928D01*
X73467983Y28602490D01*
X73467985Y28602488D01*
X73467985Y28602487D01*
X73525692Y28544781D01*
X73559177Y28483458D01*
X73554193Y28413766D01*
X73512321Y28357833D01*
X73446857Y28333416D01*
X73438011Y28333100D01*
X70898200Y28333100D01*
X70831161Y28352785D01*
X70785406Y28405589D01*
X70774200Y28457100D01*
X70774200Y28755095D01*
X70774199Y28755097D01*
X70766787Y28792357D01*
X70747280Y28890428D01*
X70744141Y28898006D01*
X70742365Y28902294D01*
X70742360Y28902304D01*
X70694478Y29017904D01*
X70694477Y29017904D01*
X70694475Y29017911D01*
X70617814Y29132643D01*
X69699319Y30051138D01*
X69665834Y30112461D01*
X69663000Y30138819D01*
X69663000Y30418098D01*
X69662749Y30420185D01*
X69652377Y30506564D01*
X69596861Y30647342D01*
X69505422Y30767922D01*
X69384842Y30859361D01*
X69244064Y30914877D01*
X69155602Y30925500D01*
X68119398Y30925500D01*
X68030936Y30914877D01*
X67890158Y30859361D01*
X67890157Y30859360D01*
X67890156Y30859360D01*
X67763345Y30763196D01*
X67698034Y30738373D01*
X67688420Y30738000D01*
X67101005Y30738000D01*
X66965677Y30711081D01*
X66965672Y30711080D01*
X66965667Y30711078D01*
X66838192Y30658277D01*
X66723454Y30581612D01*
X66723453Y30581611D01*
X65728662Y29586819D01*
X65667339Y29553334D01*
X65640981Y29550500D01*
X65570730Y29550500D01*
X65540300Y29547646D01*
X65540298Y29547646D01*
X65444163Y29514006D01*
X65412118Y29502793D01*
X65302850Y29422150D01*
X65265753Y29371885D01*
X65222207Y29312882D01*
X65222206Y29312880D01*
X65177353Y29184701D01*
X65177353Y29184699D01*
X65174500Y29154269D01*
X65174500Y28745730D01*
X65177353Y28715300D01*
X65177353Y28715298D01*
X65222206Y28587119D01*
X65222207Y28587117D01*
X65302850Y28477850D01*
X65412117Y28397207D01*
X65412119Y28397206D01*
X65540299Y28352353D01*
X65570730Y28349500D01*
X65570734Y28349500D01*
X65864858Y28349500D01*
X65912310Y28340061D01*
X65933167Y28331421D01*
X65933177Y28331418D01*
X66068504Y28304500D01*
X66068506Y28304500D01*
X66206496Y28304500D01*
X66341822Y28331418D01*
X66341832Y28331421D01*
X66362690Y28340061D01*
X66410142Y28349500D01*
X66704270Y28349500D01*
X66734699Y28352353D01*
X66734701Y28352353D01*
X66862880Y28397206D01*
X66862882Y28397207D01*
X66972150Y28477850D01*
X67052793Y28587118D01*
X67069615Y28635192D01*
X67097646Y28715298D01*
X67097646Y28715300D01*
X67100500Y28745730D01*
X67100500Y28925981D01*
X67120185Y28993020D01*
X67136819Y29013662D01*
X67423838Y29300681D01*
X67450765Y29315384D01*
X67476584Y29331977D01*
X67482784Y29332868D01*
X67485161Y29334166D01*
X67511519Y29337000D01*
X67688420Y29337000D01*
X67755459Y29317315D01*
X67763345Y29311804D01*
X67890156Y29215639D01*
X68030938Y29160122D01*
X68079685Y29154269D01*
X68119398Y29149500D01*
X68568281Y29149500D01*
X68635320Y29129815D01*
X68655962Y29113181D01*
X69336881Y28432262D01*
X69370366Y28370939D01*
X69373200Y28344581D01*
X69373200Y27532519D01*
X69353515Y27465480D01*
X69336881Y27444838D01*
X68835662Y26943619D01*
X68774339Y26910134D01*
X68747981Y26907300D01*
X67224500Y26907300D01*
X67157461Y26926985D01*
X67111706Y26979789D01*
X67100500Y27031300D01*
X67100500Y27254269D01*
X67097646Y27284699D01*
X67097646Y27284701D01*
X67071623Y27359069D01*
X67052793Y27412882D01*
X66972150Y27522150D01*
X66862882Y27602793D01*
X66757382Y27639709D01*
X66734700Y27647646D01*
X66704270Y27650500D01*
X66704266Y27650500D01*
X66218489Y27650500D01*
X66216623Y27651000D01*
X66058377Y27651000D01*
X66056511Y27650500D01*
X65570734Y27650500D01*
X65570730Y27650500D01*
X65540300Y27647646D01*
X65540298Y27647646D01*
X65452431Y27616899D01*
X65412118Y27602793D01*
X65302850Y27522150D01*
X65227750Y27420392D01*
X65222207Y27412882D01*
X65222206Y27412880D01*
X65177353Y27284701D01*
X65177353Y27284699D01*
X65174500Y27254269D01*
X65174500Y26845730D01*
X65177353Y26815300D01*
X65177353Y26815298D01*
X65222206Y26687119D01*
X65222207Y26687117D01*
X65302850Y26577850D01*
X65412117Y26497207D01*
X65453456Y26482742D01*
X65510232Y26442019D01*
X65535978Y26377066D01*
X65536500Y26365701D01*
X65536500Y25452919D01*
X65516815Y25385880D01*
X65500181Y25365238D01*
X63750662Y23615719D01*
X63689339Y23582234D01*
X63662981Y23579400D01*
X61516919Y23579400D01*
X61449880Y23599085D01*
X61429238Y23615719D01*
X59684245Y25360712D01*
X59684243Y25360714D01*
X59569511Y25437375D01*
X59569508Y25437376D01*
X59569507Y25437377D01*
X59499984Y25466174D01*
X59442028Y25490180D01*
X59397740Y25498989D01*
X59306696Y25517100D01*
X59306694Y25517100D01*
X59306693Y25517100D01*
X55673094Y25517100D01*
X55535106Y25517100D01*
X55535104Y25517100D01*
X55444059Y25498989D01*
X55399772Y25490180D01*
X55357380Y25472621D01*
X55356941Y25472439D01*
X55309489Y25463000D01*
X54844398Y25463000D01*
X54755936Y25452377D01*
X54615158Y25396861D01*
X54615157Y25396860D01*
X54615156Y25396860D01*
X54494577Y25305422D01*
X54403139Y25184843D01*
X54347622Y25044061D01*
X54342626Y25002454D01*
X54337000Y24955602D01*
X54337000Y24955596D01*
X54337000Y24513700D01*
X54317315Y24446661D01*
X54264511Y24400906D01*
X54213000Y24389700D01*
X53441019Y24389700D01*
X53373980Y24409385D01*
X53353338Y24426019D01*
X51858729Y25920628D01*
X51825244Y25981951D01*
X51830228Y26051643D01*
X51872100Y26107576D01*
X51937564Y26131993D01*
X52002705Y26118794D01*
X52213803Y26011233D01*
X52438431Y25938246D01*
X52671703Y25901300D01*
X52671708Y25901300D01*
X52907897Y25901300D01*
X53141168Y25938246D01*
X53365796Y26011233D01*
X53576233Y26118457D01*
X53583559Y26123780D01*
X53767310Y26257283D01*
X53934317Y26424290D01*
X54073143Y26615367D01*
X54149187Y26764611D01*
X54180366Y26825803D01*
X54197763Y26879343D01*
X54241933Y27015284D01*
X54253353Y27050431D01*
X54290300Y27283702D01*
X54290300Y27519897D01*
X54253353Y27753168D01*
X54234703Y27810566D01*
X54180368Y27977792D01*
X54073143Y28188233D01*
X53934317Y28379310D01*
X53785673Y28527954D01*
X53752188Y28589277D01*
X53757172Y28658969D01*
X53785673Y28703316D01*
X54187819Y29105462D01*
X54249142Y29138947D01*
X54318834Y29133963D01*
X54374767Y29092091D01*
X54399184Y29026627D01*
X54399500Y29017781D01*
X54399500Y28361998D01*
X54402932Y28333416D01*
X54410122Y28273538D01*
X54465639Y28132756D01*
X54557077Y28012177D01*
X54677656Y27920739D01*
X54818438Y27865222D01*
X54867853Y27859288D01*
X54906898Y27854600D01*
X54906903Y27854600D01*
X56093097Y27854600D01*
X56093102Y27854600D01*
X56135926Y27859742D01*
X56181561Y27865222D01*
X56322343Y27920739D01*
X56442922Y28012177D01*
X56534361Y28132758D01*
X56534362Y28132760D01*
X56551450Y28176090D01*
X56594356Y28231234D01*
X56660264Y28254427D01*
X56666804Y28254600D01*
X60247630Y28254600D01*
X60314669Y28234915D01*
X60322542Y28229413D01*
X60352909Y28206385D01*
X60390158Y28178138D01*
X60530938Y28122622D01*
X60580353Y28116688D01*
X60619398Y28112000D01*
X60619403Y28112000D01*
X61655597Y28112000D01*
X61655602Y28112000D01*
X61698426Y28117142D01*
X61744061Y28122622D01*
X61764077Y28130515D01*
X61813994Y28150200D01*
X61884843Y28178139D01*
X62011655Y28274304D01*
X62076966Y28299127D01*
X62086580Y28299500D01*
X63577787Y28299500D01*
X63625240Y28290061D01*
X63658171Y28276420D01*
X63658177Y28276418D01*
X63793504Y28249500D01*
X63793506Y28249500D01*
X63931496Y28249500D01*
X64066823Y28276418D01*
X64066829Y28276420D01*
X64194313Y28329225D01*
X64199681Y28332095D01*
X64200376Y28330794D01*
X64260062Y28349480D01*
X64262270Y28349500D01*
X64429270Y28349500D01*
X64459699Y28352353D01*
X64459701Y28352353D01*
X64587880Y28397206D01*
X64587882Y28397207D01*
X64697150Y28477850D01*
X64777793Y28587118D01*
X64794615Y28635192D01*
X64822646Y28715298D01*
X64822646Y28715300D01*
X64825500Y28745730D01*
X64825500Y29154269D01*
X64822646Y29184699D01*
X64822646Y29184701D01*
X64796503Y29259411D01*
X64777793Y29312882D01*
X64697150Y29422150D01*
X64587882Y29502793D01*
X64494945Y29535313D01*
X64459700Y29547646D01*
X64429270Y29550500D01*
X64429266Y29550500D01*
X64287101Y29550500D01*
X64220062Y29570185D01*
X64218211Y29571397D01*
X64217789Y29571679D01*
X64144311Y29620775D01*
X64016828Y29673580D01*
X63972540Y29682389D01*
X63881496Y29700500D01*
X63881494Y29700500D01*
X63881493Y29700500D01*
X62086580Y29700500D01*
X62019541Y29720185D01*
X62011655Y29725696D01*
X61884843Y29821860D01*
X61884842Y29821861D01*
X61744064Y29877377D01*
X61655602Y29888000D01*
X60619398Y29888000D01*
X60530936Y29877377D01*
X60390158Y29821861D01*
X60390157Y29821860D01*
X60390156Y29821860D01*
X60269582Y29730425D01*
X60269577Y29730421D01*
X60250054Y29704675D01*
X60193862Y29663152D01*
X60151250Y29655600D01*
X56666804Y29655600D01*
X56599765Y29675285D01*
X56554010Y29728089D01*
X56551450Y29734110D01*
X56534362Y29777439D01*
X56534361Y29777441D01*
X56534361Y29777442D01*
X56442922Y29898022D01*
X56400984Y29929824D01*
X56359462Y29986014D01*
X56354909Y30055735D01*
X56388773Y30116849D01*
X56407020Y30131730D01*
X56434045Y30149787D01*
X59787212Y33502954D01*
X59863877Y33617692D01*
X59916678Y33745167D01*
X59916682Y33745178D01*
X59943600Y33880503D01*
X59943600Y34230597D01*
X60579500Y34230597D01*
X60579500Y33994402D01*
X60616446Y33761131D01*
X60689433Y33536503D01*
X60796657Y33326066D01*
X60869831Y33225352D01*
X60935483Y33134990D01*
X60935485Y33134988D01*
X60935485Y33134987D01*
X61102487Y32967985D01*
X61293566Y32829157D01*
X61504003Y32721933D01*
X61728631Y32648946D01*
X61961903Y32612000D01*
X61961908Y32612000D01*
X62198097Y32612000D01*
X62431368Y32648946D01*
X62655996Y32721933D01*
X62866433Y32829157D01*
X62911479Y32861885D01*
X63057510Y32967983D01*
X63224517Y33134990D01*
X63363343Y33326067D01*
X63429167Y33455254D01*
X63470566Y33536503D01*
X63471511Y33539409D01*
X63528098Y33713567D01*
X63543553Y33761131D01*
X63580500Y33994402D01*
X63580500Y34230597D01*
X63543553Y34463868D01*
X63516626Y34546740D01*
X63493441Y34618097D01*
X65999500Y34618097D01*
X65999500Y34381902D01*
X66036446Y34148631D01*
X66109433Y33924003D01*
X66216657Y33713566D01*
X66286314Y33617692D01*
X66355483Y33522490D01*
X66355485Y33522488D01*
X66355485Y33522487D01*
X66522487Y33355485D01*
X66713566Y33216657D01*
X66924003Y33109433D01*
X67148631Y33036446D01*
X67381903Y32999500D01*
X67381908Y32999500D01*
X67618097Y32999500D01*
X67851368Y33036446D01*
X68075996Y33109433D01*
X68286433Y33216657D01*
X68298399Y33225351D01*
X68477510Y33355483D01*
X68644517Y33522490D01*
X68783343Y33713567D01*
X68840843Y33826418D01*
X68890566Y33924003D01*
X68902101Y33959502D01*
X68950072Y34107142D01*
X68963553Y34148631D01*
X69000500Y34381902D01*
X69000500Y34618097D01*
X68963553Y34851368D01*
X68940695Y34921718D01*
X68890568Y35075992D01*
X68783343Y35286433D01*
X68644517Y35477510D01*
X68477510Y35644517D01*
X68286433Y35783343D01*
X68075992Y35890568D01*
X67851368Y35963553D01*
X67826694Y35967461D01*
X67618097Y36000500D01*
X67618092Y36000500D01*
X67381908Y36000500D01*
X67381903Y36000500D01*
X67148631Y35963553D01*
X67044412Y35929689D01*
X66924008Y35890568D01*
X66924005Y35890566D01*
X66924003Y35890566D01*
X66855968Y35855900D01*
X66713567Y35783343D01*
X66522490Y35644517D01*
X66355483Y35477510D01*
X66229922Y35304690D01*
X66216657Y35286433D01*
X66109433Y35075996D01*
X66036446Y34851368D01*
X65999500Y34618097D01*
X63493441Y34618097D01*
X63470568Y34688492D01*
X63363343Y34898933D01*
X63224517Y35090010D01*
X63057510Y35257017D01*
X62866433Y35395843D01*
X62655992Y35503068D01*
X62431368Y35576053D01*
X62198097Y35613000D01*
X62198092Y35613000D01*
X61961908Y35613000D01*
X61961903Y35613000D01*
X61728631Y35576053D01*
X61707728Y35569261D01*
X61504008Y35503068D01*
X61504005Y35503066D01*
X61504003Y35503066D01*
X61427668Y35464171D01*
X61293567Y35395843D01*
X61102490Y35257017D01*
X60935483Y35090010D01*
X60827947Y34942000D01*
X60796657Y34898933D01*
X60689433Y34688496D01*
X60616446Y34463868D01*
X60579500Y34230597D01*
X59943600Y34230597D01*
X59943600Y36191411D01*
X59963285Y36258450D01*
X60016089Y36304205D01*
X60085247Y36314149D01*
X60148803Y36285124D01*
X60155281Y36279092D01*
X60222487Y36211885D01*
X60413566Y36073057D01*
X60624003Y35965833D01*
X60848631Y35892846D01*
X61081903Y35855900D01*
X61081908Y35855900D01*
X61318097Y35855900D01*
X61551368Y35892846D01*
X61775996Y35965833D01*
X61986433Y36073057D01*
X62009622Y36089905D01*
X62177510Y36211883D01*
X62344517Y36378890D01*
X62483343Y36569967D01*
X62548626Y36698092D01*
X62590566Y36780403D01*
X62606289Y36828791D01*
X62663553Y37005032D01*
X62665685Y37018492D01*
X62700500Y37238302D01*
X62700500Y37474497D01*
X62663553Y37707768D01*
X62652954Y37740389D01*
X62590568Y37932392D01*
X62483343Y38142833D01*
X62344517Y38333910D01*
X62177510Y38500917D01*
X61986433Y38639743D01*
X61775992Y38746968D01*
X61551368Y38819953D01*
X61548211Y38820453D01*
X61318097Y38856900D01*
X61318092Y38856900D01*
X61081908Y38856900D01*
X61081903Y38856900D01*
X60848631Y38819953D01*
X60813897Y38808667D01*
X60624008Y38746968D01*
X60624005Y38746966D01*
X60624003Y38746966D01*
X60512991Y38690402D01*
X60413567Y38639743D01*
X60222490Y38500917D01*
X60222487Y38500914D01*
X60155281Y38433708D01*
X60093958Y38400223D01*
X60024266Y38405207D01*
X59968333Y38447079D01*
X59943916Y38512543D01*
X59943600Y38521389D01*
X59943600Y39101581D01*
X59963285Y39168620D01*
X59979919Y39189262D01*
X61103838Y40313181D01*
X61165161Y40346666D01*
X61191519Y40349500D01*
X61670481Y40349500D01*
X61670490Y40349501D01*
X61727114Y40355587D01*
X61855226Y40403372D01*
X61878929Y40421116D01*
X61964687Y40485313D01*
X62046628Y40594774D01*
X62094412Y40722886D01*
X62098167Y40757812D01*
X62100499Y40779498D01*
X62100499Y40779505D01*
X62100500Y40779515D01*
X62100499Y41220484D01*
X62094412Y41277114D01*
X62046628Y41405226D01*
X61964687Y41514687D01*
X61855226Y41596628D01*
X61727114Y41644412D01*
X61670485Y41650500D01*
X61084714Y41650499D01*
X61037262Y41659937D01*
X61004328Y41673580D01*
X60960040Y41682389D01*
X60868996Y41700500D01*
X60868994Y41700500D01*
X60731006Y41700500D01*
X60731004Y41700500D01*
X60620014Y41678422D01*
X60595672Y41673580D01*
X60562738Y41659938D01*
X60515285Y41650499D01*
X59929516Y41650499D01*
X59890025Y41646254D01*
X59872885Y41644412D01*
X59847445Y41634923D01*
X59744774Y41596628D01*
X59635313Y41514687D01*
X59608045Y41478261D01*
X59560317Y41414503D01*
X59553372Y41405226D01*
X59509341Y41287174D01*
X59505587Y41277110D01*
X59499500Y41220501D01*
X59499500Y40779518D01*
X59499501Y40779504D01*
X59501833Y40757812D01*
X59489425Y40689053D01*
X59466224Y40656881D01*
X58698988Y39889646D01*
X58698987Y39889645D01*
X58622322Y39774907D01*
X58569521Y39647432D01*
X58569518Y39647420D01*
X58545388Y39526112D01*
X58545389Y39526112D01*
X58545388Y39526107D01*
X58542600Y39512093D01*
X58542600Y39512089D01*
X58542600Y34291019D01*
X58522915Y34223980D01*
X58506281Y34203338D01*
X58212180Y33909237D01*
X58150857Y33875752D01*
X58081165Y33880736D01*
X58025232Y33922608D01*
X58000815Y33988072D01*
X58000499Y33996918D01*
X58000499Y35882556D01*
X58000499Y35882564D01*
X58000497Y35882582D01*
X57997586Y35907687D01*
X57997585Y35907688D01*
X57997585Y35907691D01*
X57952206Y36010465D01*
X57872765Y36089906D01*
X57769991Y36135285D01*
X57744865Y36138200D01*
X57539218Y36138199D01*
X57472181Y36157883D01*
X57426426Y36210687D01*
X57416482Y36279845D01*
X57445507Y36343401D01*
X57454134Y36351968D01*
X57454065Y36352038D01*
X57624514Y36522487D01*
X57624517Y36522490D01*
X57763343Y36713567D01*
X57837795Y36859687D01*
X57870566Y36924003D01*
X57943553Y37148631D01*
X57980500Y37381902D01*
X57980500Y37618097D01*
X57943553Y37851368D01*
X57939662Y37863343D01*
X57870568Y38075992D01*
X57763343Y38286433D01*
X57624517Y38477510D01*
X57457510Y38644517D01*
X57266433Y38783343D01*
X57055992Y38890568D01*
X56831368Y38963553D01*
X56806555Y38967483D01*
X56598097Y39000500D01*
X56598092Y39000500D01*
X56361908Y39000500D01*
X56361903Y39000500D01*
X56128631Y38963553D01*
X56097301Y38953373D01*
X55904008Y38890568D01*
X55904005Y38890566D01*
X55904003Y38890566D01*
X55813331Y38844366D01*
X55693567Y38783343D01*
X55502490Y38644517D01*
X55335483Y38477510D01*
X55210404Y38305354D01*
X55196657Y38286433D01*
X55089433Y38075996D01*
X55016446Y37851368D01*
X54979500Y37618097D01*
X54979500Y37381902D01*
X55016446Y37148631D01*
X55089433Y36924003D01*
X55196657Y36713566D01*
X55261650Y36624112D01*
X55335483Y36522490D01*
X55335485Y36522488D01*
X55335485Y36522487D01*
X55505935Y36352038D01*
X55504895Y36350998D01*
X55539504Y36297990D01*
X55540007Y36228122D01*
X55502656Y36169073D01*
X55439311Y36139591D01*
X55420781Y36138199D01*
X55255136Y36138199D01*
X55255121Y36138197D01*
X55255117Y36138197D01*
X55230012Y36135286D01*
X55230010Y36135285D01*
X55230009Y36135285D01*
X55150039Y36099975D01*
X55127235Y36089906D01*
X55047794Y36010465D01*
X55002415Y35907693D01*
X55002415Y35907691D01*
X54999500Y35882568D01*
X54999500Y33392843D01*
X54999502Y33392817D01*
X55002413Y33367712D01*
X55002415Y33367708D01*
X55047793Y33264935D01*
X55127234Y33185494D01*
X55230007Y33140115D01*
X55255131Y33137200D01*
X55255135Y33137200D01*
X57140781Y33137200D01*
X57207820Y33117515D01*
X57253575Y33064711D01*
X57263519Y32995553D01*
X57234494Y32931997D01*
X57228462Y32925519D01*
X55733662Y31430719D01*
X55672339Y31397234D01*
X55645981Y31394400D01*
X54716605Y31394400D01*
X54682651Y31387645D01*
X54611939Y31373580D01*
X54581271Y31367480D01*
X54538369Y31349709D01*
X54475341Y31323602D01*
X54453793Y31314677D01*
X54453791Y31314676D01*
X54453789Y31314675D01*
X54348189Y31244115D01*
X54348188Y31244115D01*
X54339144Y31238071D01*
X54339057Y31238013D01*
X54339054Y31238010D01*
X52245688Y29144646D01*
X52245687Y29144645D01*
X52169022Y29029907D01*
X52116221Y28902432D01*
X52116218Y28902420D01*
X52094328Y28792370D01*
X52094326Y28792357D01*
X52092583Y28783599D01*
X52060192Y28721692D01*
X52027263Y28697318D01*
X52003367Y28685143D01*
X51812290Y28546317D01*
X51645283Y28379310D01*
X51526121Y28215298D01*
X51506457Y28188233D01*
X51399233Y27977796D01*
X51326246Y27753168D01*
X51289300Y27519897D01*
X51289300Y27283702D01*
X51326246Y27050431D01*
X51399233Y26825803D01*
X51506794Y26614705D01*
X51519690Y26546036D01*
X51493414Y26481295D01*
X51436307Y26441038D01*
X51366502Y26438046D01*
X51308628Y26470729D01*
X50441745Y27337612D01*
X50441743Y27337614D01*
X50327011Y27414275D01*
X50327007Y27414276D01*
X50327005Y27414278D01*
X50321637Y27417148D01*
X50322901Y27419513D01*
X50277524Y27456012D01*
X50255398Y27522285D01*
X50272615Y27590001D01*
X50291634Y27614507D01*
X50394814Y27717687D01*
X50394817Y27717690D01*
X50533643Y27908767D01*
X50611316Y28061209D01*
X50640866Y28119203D01*
X50641978Y28122623D01*
X50683203Y28249500D01*
X50713853Y28343831D01*
X50750800Y28577102D01*
X50750800Y28813297D01*
X50732952Y28925981D01*
X50713853Y29046568D01*
X50665840Y29194333D01*
X50662155Y29256836D01*
X50682200Y29357606D01*
X50682200Y29495594D01*
X50682200Y32928911D01*
X50701885Y32995950D01*
X50754689Y33041705D01*
X50823847Y33051649D01*
X50887403Y33022624D01*
X50893881Y33016592D01*
X50942487Y32967985D01*
X51133566Y32829157D01*
X51344003Y32721933D01*
X51568631Y32648946D01*
X51801903Y32612000D01*
X51801908Y32612000D01*
X52038097Y32612000D01*
X52271368Y32648946D01*
X52495996Y32721933D01*
X52706433Y32829157D01*
X52751479Y32861885D01*
X52897510Y32967983D01*
X53064517Y33134990D01*
X53203343Y33326067D01*
X53269167Y33455254D01*
X53310566Y33536503D01*
X53311511Y33539409D01*
X53368098Y33713567D01*
X53383553Y33761131D01*
X53420500Y33994402D01*
X53420500Y34230597D01*
X53383553Y34463868D01*
X53356626Y34546740D01*
X53310568Y34688492D01*
X53203343Y34898933D01*
X53064517Y35090010D01*
X52897510Y35257017D01*
X52706433Y35395843D01*
X52495992Y35503068D01*
X52271368Y35576053D01*
X52038097Y35613000D01*
X52038092Y35613000D01*
X51801908Y35613000D01*
X51801903Y35613000D01*
X51568631Y35576053D01*
X51547728Y35569261D01*
X51344008Y35503068D01*
X51344005Y35503066D01*
X51344003Y35503066D01*
X51267668Y35464171D01*
X51133567Y35395843D01*
X50942490Y35257017D01*
X50775483Y35090010D01*
X50667947Y34942000D01*
X50653431Y34922020D01*
X50598101Y34879355D01*
X50528487Y34873376D01*
X50466692Y34905982D01*
X50465432Y34907225D01*
X49864719Y35507938D01*
X49831234Y35569261D01*
X49828400Y35595619D01*
X49828400Y36146611D01*
X49848085Y36213650D01*
X49900889Y36259405D01*
X49970047Y36269349D01*
X50033603Y36240324D01*
X50040081Y36234292D01*
X50062487Y36211885D01*
X50253566Y36073057D01*
X50464003Y35965833D01*
X50688631Y35892846D01*
X50921903Y35855900D01*
X50921908Y35855900D01*
X51158097Y35855900D01*
X51391368Y35892846D01*
X51615996Y35965833D01*
X51826433Y36073057D01*
X51849622Y36089905D01*
X52017510Y36211883D01*
X52184517Y36378890D01*
X52323343Y36569967D01*
X52388626Y36698092D01*
X52430566Y36780403D01*
X52446289Y36828791D01*
X52503553Y37005032D01*
X52505685Y37018492D01*
X52540500Y37238302D01*
X52540500Y37474497D01*
X52503553Y37707768D01*
X52492954Y37740389D01*
X52441364Y37899162D01*
X52439370Y37968999D01*
X52471615Y38025158D01*
X57939538Y43493081D01*
X57941518Y43494162D01*
X70699500Y43494162D01*
X70699500Y43265837D01*
X70735215Y43040339D01*
X70805770Y42823196D01*
X70909421Y42619771D01*
X71043622Y42435061D01*
X71205061Y42273622D01*
X71389771Y42139421D01*
X71593196Y42035770D01*
X71810339Y41965215D01*
X72035838Y41929500D01*
X72035843Y41929500D01*
X72264162Y41929500D01*
X72489660Y41965215D01*
X72706803Y42035770D01*
X72910228Y42139421D01*
X73008762Y42211011D01*
X73094937Y42273621D01*
X73256379Y42435063D01*
X73390579Y42619772D01*
X73446501Y42729525D01*
X73494229Y42823196D01*
X73496603Y42830500D01*
X73540834Y42966630D01*
X73564784Y43040339D01*
X73600500Y43265837D01*
X73600500Y43494162D01*
X73564784Y43719660D01*
X73544089Y43783353D01*
X73494231Y43936799D01*
X73390579Y44140228D01*
X73256379Y44324937D01*
X73094937Y44486379D01*
X72910228Y44620579D01*
X72706799Y44724231D01*
X72489660Y44794784D01*
X72264162Y44830500D01*
X72264157Y44830500D01*
X72035843Y44830500D01*
X72035838Y44830500D01*
X71810339Y44794784D01*
X71742397Y44772708D01*
X71593201Y44724231D01*
X71593198Y44724229D01*
X71593196Y44724229D01*
X71485884Y44669550D01*
X71389772Y44620579D01*
X71205063Y44486379D01*
X71205061Y44486377D01*
X71043622Y44324938D01*
X70909421Y44140228D01*
X70805770Y43936803D01*
X70735215Y43719660D01*
X70699500Y43494162D01*
X57941518Y43494162D01*
X58000861Y43526566D01*
X58027219Y43529400D01*
X62928196Y43529400D01*
X63063522Y43556318D01*
X63063532Y43556321D01*
X63191007Y43609122D01*
X63305745Y43685787D01*
X64657312Y45037354D01*
X64733977Y45152092D01*
X64786778Y45279567D01*
X64786781Y45279577D01*
X64813700Y45414903D01*
X64813700Y50084995D01*
X64794157Y50183243D01*
X64786780Y50220328D01*
X64733975Y50347811D01*
X64732830Y50349524D01*
X64703092Y50394031D01*
X64703091Y50394033D01*
X64657315Y50462541D01*
X64657314Y50462543D01*
X59397211Y55722646D01*
X58424574Y56695283D01*
X58341760Y56778097D01*
X67724500Y56778097D01*
X67724500Y56541902D01*
X67761446Y56308631D01*
X67834433Y56084003D01*
X67941657Y55873566D01*
X67972966Y55830474D01*
X68080483Y55682490D01*
X68080485Y55682488D01*
X68080485Y55682487D01*
X68247487Y55515485D01*
X68438566Y55376657D01*
X68649003Y55269433D01*
X68873631Y55196446D01*
X69106903Y55159500D01*
X69106908Y55159500D01*
X69343097Y55159500D01*
X69576368Y55196446D01*
X69800996Y55269433D01*
X70011433Y55376657D01*
X70029798Y55390000D01*
X70202510Y55515483D01*
X70369517Y55682490D01*
X70508343Y55873567D01*
X70559002Y55972991D01*
X70615566Y56084003D01*
X70616005Y56085352D01*
X70688550Y56308623D01*
X70688553Y56308631D01*
X70725500Y56541902D01*
X70725500Y56778097D01*
X70688553Y57011368D01*
X70615568Y57235992D01*
X70508343Y57446433D01*
X70369517Y57637510D01*
X70202510Y57804517D01*
X70011433Y57943343D01*
X69808719Y58046630D01*
X69800996Y58050566D01*
X69800995Y58050566D01*
X69800992Y58050568D01*
X69576368Y58123553D01*
X69343097Y58160500D01*
X69343092Y58160500D01*
X69106908Y58160500D01*
X69106903Y58160500D01*
X68873631Y58123553D01*
X68770752Y58090125D01*
X68649008Y58050568D01*
X68649005Y58050566D01*
X68649003Y58050566D01*
X68550071Y58000157D01*
X68438567Y57943343D01*
X68247490Y57804517D01*
X68080483Y57637510D01*
X67941657Y57446433D01*
X67834433Y57235996D01*
X67761446Y57011368D01*
X67724500Y56778097D01*
X58341760Y56778097D01*
X54432037Y60687819D01*
X54398552Y60749142D01*
X54403536Y60818834D01*
X54445408Y60874767D01*
X54510872Y60899184D01*
X54519718Y60899500D01*
X54698422Y60899500D01*
X54892826Y60930290D01*
X55080029Y60991117D01*
X55255405Y61080476D01*
X55259381Y61083365D01*
X55414646Y61196172D01*
X55553828Y61335354D01*
X55669524Y61494595D01*
X55754051Y61660489D01*
X55759515Y61671213D01*
X55807489Y61722009D01*
X55875310Y61738804D01*
X55941445Y61716267D01*
X55980485Y61671213D01*
X56070476Y61494594D01*
X56103588Y61449020D01*
X56186172Y61335354D01*
X56186174Y61335352D01*
X56186174Y61335351D01*
X56325351Y61196174D01*
X56484594Y61080476D01*
X56659970Y60991117D01*
X56847173Y60930290D01*
X57041578Y60899500D01*
X57236280Y60899500D01*
X57303319Y60879815D01*
X57323961Y60863181D01*
X57582261Y60604882D01*
X58339886Y59847258D01*
X58388673Y59798471D01*
X58437459Y59749684D01*
X58552182Y59673028D01*
X58552195Y59673021D01*
X58621469Y59644328D01*
X58621470Y59644328D01*
X58679668Y59620221D01*
X58679675Y59620219D01*
X58704354Y59615310D01*
X58704353Y59615309D01*
X58815002Y59593300D01*
X58815007Y59593300D01*
X73065396Y59593300D01*
X73200722Y59620218D01*
X73200732Y59620221D01*
X73328207Y59673022D01*
X73442945Y59749687D01*
X73442946Y59749688D01*
X76827606Y63134349D01*
X76827612Y63134356D01*
X76834111Y63144081D01*
X76904271Y63249082D01*
X76904276Y63249091D01*
X76931069Y63313776D01*
X76950514Y63360720D01*
X76957080Y63376571D01*
X76965852Y63420672D01*
X76976214Y63472765D01*
X76984000Y63511904D01*
X76984000Y63755081D01*
X77003685Y63822120D01*
X77020319Y63842762D01*
X77651338Y64473781D01*
X77712661Y64507266D01*
X77739019Y64510100D01*
X78631481Y64510100D01*
X78698520Y64490415D01*
G37*
G04 #@! TD.AperFunction*
G04 #@! TA.AperFunction,Conductor*
G36*
X18227290Y63314115D02*
G01*
X18273045Y63261311D01*
X18282989Y63192153D01*
X18253964Y63128597D01*
X18233136Y63109482D01*
X18225354Y63103828D01*
X18086172Y62964646D01*
X18017542Y62870185D01*
X17970476Y62805405D01*
X17881117Y62630029D01*
X17820290Y62442826D01*
X17789500Y62248422D01*
X17789500Y62051577D01*
X17820290Y61857173D01*
X17881117Y61669970D01*
X17970476Y61494594D01*
X18003588Y61449020D01*
X18086172Y61335354D01*
X18086174Y61335352D01*
X18086174Y61335351D01*
X18225351Y61196174D01*
X18384594Y61080476D01*
X18559970Y60991117D01*
X18747173Y60930290D01*
X18941578Y60899500D01*
X18941583Y60899500D01*
X19138422Y60899500D01*
X19332826Y60930290D01*
X19520029Y60991117D01*
X19695405Y61080476D01*
X19699381Y61083365D01*
X19854646Y61196172D01*
X19993828Y61335354D01*
X20109524Y61494595D01*
X20194051Y61660489D01*
X20199515Y61671213D01*
X20247489Y61722009D01*
X20315310Y61738804D01*
X20381445Y61716267D01*
X20420485Y61671213D01*
X20510476Y61494594D01*
X20543588Y61449020D01*
X20626172Y61335354D01*
X20626174Y61335352D01*
X20626174Y61335351D01*
X20765354Y61196171D01*
X20828387Y61150375D01*
X20871052Y61095045D01*
X20879500Y61050058D01*
X20879500Y60261519D01*
X20859815Y60194480D01*
X20843181Y60173838D01*
X11933281Y51263938D01*
X11871958Y51230453D01*
X11802266Y51235437D01*
X11746333Y51277309D01*
X11721916Y51342773D01*
X11721600Y51351619D01*
X11721600Y54233181D01*
X11741285Y54300220D01*
X11757919Y54320862D01*
X15233075Y57796018D01*
X15294398Y57829503D01*
X15359070Y57826269D01*
X15378528Y57819947D01*
X15611803Y57783000D01*
X15611808Y57783000D01*
X15847997Y57783000D01*
X16081268Y57819946D01*
X16305896Y57892933D01*
X16516333Y58000157D01*
X16548719Y58023687D01*
X16707410Y58138983D01*
X16874417Y58305990D01*
X17013243Y58497067D01*
X17091081Y58649832D01*
X17120466Y58707503D01*
X17193453Y58932131D01*
X17230400Y59165402D01*
X17230400Y59401597D01*
X17193453Y59634868D01*
X17170817Y59704534D01*
X17120468Y59859492D01*
X17013243Y60069933D01*
X16874417Y60261010D01*
X16707410Y60428017D01*
X16516333Y60566843D01*
X16305892Y60674068D01*
X16081268Y60747053D01*
X15847997Y60784000D01*
X15847992Y60784000D01*
X15611808Y60784000D01*
X15611803Y60784000D01*
X15378531Y60747053D01*
X15274312Y60713189D01*
X15153908Y60674068D01*
X15153905Y60674066D01*
X15153903Y60674066D01*
X15091375Y60642206D01*
X14943467Y60566843D01*
X14752390Y60428017D01*
X14585383Y60261010D01*
X14446557Y60069933D01*
X14339333Y59859496D01*
X14266346Y59634868D01*
X14229400Y59401597D01*
X14229400Y59165402D01*
X14266347Y58932128D01*
X14266347Y58932127D01*
X14272669Y58912670D01*
X14274662Y58842829D01*
X14242418Y58786675D01*
X10476988Y55021246D01*
X10476987Y55021245D01*
X10400322Y54906507D01*
X10347521Y54779032D01*
X10347518Y54779020D01*
X10322417Y54652831D01*
X10322418Y54652831D01*
X10322417Y54652826D01*
X10320600Y54643693D01*
X10320600Y54643690D01*
X10320600Y44926503D01*
X10320599Y44926503D01*
X10347518Y44791177D01*
X10347521Y44791167D01*
X10400322Y44663692D01*
X10476987Y44548954D01*
X10476988Y44548953D01*
X12894381Y42131561D01*
X12927866Y42070238D01*
X12930700Y42043880D01*
X12930700Y34735519D01*
X12911015Y34668480D01*
X12894381Y34647838D01*
X12167071Y33920528D01*
X12105748Y33887043D01*
X12047890Y33889942D01*
X12047561Y33888572D01*
X12042837Y33889705D01*
X12042826Y33889709D01*
X11950278Y33904367D01*
X11848422Y33920500D01*
X11848417Y33920500D01*
X11651583Y33920500D01*
X11651578Y33920500D01*
X11457173Y33889709D01*
X11370317Y33861487D01*
X11269975Y33828884D01*
X11269972Y33828882D01*
X11269970Y33828882D01*
X11212305Y33799500D01*
X11094595Y33739524D01*
X10935354Y33623828D01*
X10796172Y33484646D01*
X10721226Y33381492D01*
X10680474Y33325403D01*
X10590485Y33148787D01*
X10542511Y33097990D01*
X10474690Y33081195D01*
X10408555Y33103732D01*
X10369515Y33148787D01*
X10279525Y33325403D01*
X10279524Y33325405D01*
X10163828Y33484646D01*
X10024646Y33623828D01*
X9871378Y33735184D01*
X9828714Y33790512D01*
X9822735Y33860125D01*
X9855341Y33921920D01*
X9916179Y33956277D01*
X9944265Y33959500D01*
X10204856Y33959500D01*
X10204882Y33959502D01*
X10229987Y33962413D01*
X10229991Y33962415D01*
X10332764Y34007793D01*
X10412205Y34087234D01*
X10412206Y34087235D01*
X10442567Y34155996D01*
X10457584Y34190006D01*
X10457585Y34190009D01*
X10460500Y34215135D01*
X10460499Y36204864D01*
X10459480Y36213650D01*
X10457586Y36229987D01*
X10457585Y36229988D01*
X10457585Y36229991D01*
X10412206Y36332765D01*
X10332765Y36412206D01*
X10229991Y36457585D01*
X10204865Y36460500D01*
X8215136Y36460499D01*
X8215122Y36460497D01*
X8215117Y36460497D01*
X8190012Y36457586D01*
X8190010Y36457585D01*
X8190009Y36457585D01*
X8087235Y36412206D01*
X8007794Y36332765D01*
X7962415Y36229993D01*
X7962415Y36229991D01*
X7959500Y36204868D01*
X7959500Y36034500D01*
X7939815Y35967461D01*
X7887011Y35921706D01*
X7835500Y35910500D01*
X7241005Y35910500D01*
X7105677Y35883581D01*
X7105672Y35883580D01*
X7105667Y35883578D01*
X7076452Y35871477D01*
X7006983Y35864008D01*
X6944504Y35895283D01*
X6908852Y35955372D01*
X6905000Y35986038D01*
X6905000Y46878422D01*
X7549500Y46878422D01*
X7549500Y46681577D01*
X7580290Y46487173D01*
X7641117Y46299970D01*
X7730476Y46124594D01*
X7796485Y46033741D01*
X7846172Y45965354D01*
X7846174Y45965352D01*
X7846174Y45965351D01*
X7985351Y45826174D01*
X8144594Y45710476D01*
X8281960Y45640485D01*
X8332756Y45592510D01*
X8349551Y45524689D01*
X8327014Y45458554D01*
X8281960Y45419515D01*
X8240824Y45398555D01*
X8144595Y45349524D01*
X7985354Y45233828D01*
X7846172Y45094646D01*
X7753227Y44966719D01*
X7730476Y44935405D01*
X7641117Y44760029D01*
X7580290Y44572826D01*
X7549500Y44378422D01*
X7549500Y44181577D01*
X7580290Y43987173D01*
X7641117Y43799970D01*
X7730476Y43624594D01*
X7788600Y43544595D01*
X7846172Y43465354D01*
X7846174Y43465352D01*
X7846174Y43465351D01*
X7985351Y43326174D01*
X8144594Y43210476D01*
X8319970Y43121117D01*
X8507173Y43060290D01*
X8556533Y43052473D01*
X8619668Y43022544D01*
X8656599Y42963232D01*
X8655601Y42893369D01*
X8616991Y42835137D01*
X8556533Y42807527D01*
X8507173Y42799709D01*
X8453727Y42782343D01*
X8319975Y42738884D01*
X8319972Y42738882D01*
X8319970Y42738882D01*
X8230006Y42693043D01*
X8144595Y42649524D01*
X7985354Y42533828D01*
X7846172Y42394646D01*
X7733394Y42239421D01*
X7730476Y42235405D01*
X7641117Y42060029D01*
X7580290Y41872826D01*
X7549500Y41678422D01*
X7549500Y41481577D01*
X7580290Y41287173D01*
X7641117Y41099970D01*
X7730476Y40924594D01*
X7764008Y40878442D01*
X7846172Y40765354D01*
X7846174Y40765352D01*
X7846174Y40765351D01*
X7985351Y40626174D01*
X8144594Y40510476D01*
X8319970Y40421117D01*
X8507173Y40360290D01*
X8556533Y40352473D01*
X8619668Y40322544D01*
X8656599Y40263232D01*
X8655601Y40193369D01*
X8616991Y40135137D01*
X8556533Y40107527D01*
X8507173Y40099709D01*
X8491976Y40094771D01*
X8319975Y40038884D01*
X8319972Y40038882D01*
X8319970Y40038882D01*
X8281211Y40019133D01*
X8144595Y39949524D01*
X7985354Y39833828D01*
X7846172Y39694646D01*
X7768689Y39588000D01*
X7730476Y39535405D01*
X7641117Y39360029D01*
X7580290Y39172826D01*
X7549500Y38978422D01*
X7549500Y38781577D01*
X7580290Y38587173D01*
X7641117Y38399970D01*
X7730476Y38224594D01*
X7783188Y38152043D01*
X7846172Y38065354D01*
X7846174Y38065352D01*
X7846174Y38065351D01*
X7985351Y37926174D01*
X8144594Y37810476D01*
X8319970Y37721117D01*
X8507173Y37660290D01*
X8701578Y37629500D01*
X8701583Y37629500D01*
X8898422Y37629500D01*
X9092826Y37660290D01*
X9280029Y37721117D01*
X9455405Y37810476D01*
X9455686Y37810680D01*
X9614646Y37926172D01*
X9753828Y38065354D01*
X9869524Y38224595D01*
X9921799Y38327191D01*
X9958882Y38399970D01*
X9958965Y38400223D01*
X10001471Y38531043D01*
X10019709Y38587173D01*
X10050500Y38781577D01*
X10050500Y38978422D01*
X10019709Y39172826D01*
X10014369Y39189262D01*
X9958884Y39360025D01*
X9869524Y39535405D01*
X9753828Y39694646D01*
X9614646Y39833828D01*
X9455405Y39949524D01*
X9280025Y40038884D01*
X9092826Y40099709D01*
X9043466Y40107527D01*
X8980331Y40137456D01*
X8943400Y40196768D01*
X8944398Y40266630D01*
X8983008Y40324863D01*
X9043466Y40352473D01*
X9092826Y40360290D01*
X9280029Y40421117D01*
X9455405Y40510476D01*
X9614646Y40626172D01*
X9753828Y40765354D01*
X9869524Y40924595D01*
X9915428Y41014687D01*
X9958882Y41099970D01*
X9973323Y41144412D01*
X10014862Y41272256D01*
X10019709Y41287173D01*
X10050500Y41481577D01*
X10050500Y41678422D01*
X10019709Y41872826D01*
X9993715Y41952826D01*
X9958884Y42060025D01*
X9869524Y42235405D01*
X9753828Y42394646D01*
X9614646Y42533828D01*
X9455405Y42649524D01*
X9280025Y42738884D01*
X9092826Y42799709D01*
X9089297Y42800268D01*
X9043466Y42807527D01*
X8980331Y42837456D01*
X8943400Y42896768D01*
X8944398Y42966630D01*
X8983008Y43024863D01*
X9043466Y43052473D01*
X9092826Y43060290D01*
X9280029Y43121117D01*
X9455405Y43210476D01*
X9504536Y43246172D01*
X9614646Y43326172D01*
X9753828Y43465354D01*
X9869524Y43624595D01*
X9950418Y43783359D01*
X9958882Y43799970D01*
X9967337Y43825989D01*
X10003341Y43936799D01*
X10019709Y43987173D01*
X10050500Y44181577D01*
X10050500Y44378422D01*
X10019709Y44572826D01*
X10004193Y44620579D01*
X9958884Y44760025D01*
X9869524Y44935405D01*
X9753828Y45094646D01*
X9614646Y45233828D01*
X9455405Y45349524D01*
X9318038Y45419515D01*
X9267243Y45467489D01*
X9250448Y45535310D01*
X9272985Y45601445D01*
X9318039Y45640485D01*
X9423821Y45694383D01*
X9455405Y45710476D01*
X9614646Y45826172D01*
X9753828Y45965354D01*
X9869524Y46124595D01*
X9925290Y46234042D01*
X9958882Y46299970D01*
X10019709Y46487173D01*
X10050500Y46681577D01*
X10050500Y46878422D01*
X10019709Y47072826D01*
X10002721Y47125108D01*
X9958884Y47260025D01*
X9869524Y47435405D01*
X9753828Y47594646D01*
X9614646Y47733828D01*
X9455405Y47849524D01*
X9280025Y47938884D01*
X9092826Y47999709D01*
X9087832Y48000500D01*
X8898422Y48030500D01*
X8898417Y48030500D01*
X8701583Y48030500D01*
X8701578Y48030500D01*
X8507173Y47999709D01*
X8420317Y47971487D01*
X8319975Y47938884D01*
X8319972Y47938882D01*
X8319970Y47938882D01*
X8242708Y47899515D01*
X8144595Y47849524D01*
X7985354Y47733828D01*
X7846172Y47594646D01*
X7730476Y47435405D01*
X7641117Y47260029D01*
X7580290Y47072826D01*
X7549500Y46878422D01*
X6905000Y46878422D01*
X6905000Y56712181D01*
X6924685Y56779220D01*
X6941319Y56799862D01*
X12499795Y62358338D01*
X12561118Y62391823D01*
X12630810Y62386839D01*
X12686743Y62344967D01*
X12711160Y62279503D01*
X12709950Y62251263D01*
X12709500Y62248421D01*
X12709500Y62051577D01*
X12740290Y61857173D01*
X12801117Y61669970D01*
X12890476Y61494594D01*
X12923588Y61449020D01*
X13006172Y61335354D01*
X13006174Y61335352D01*
X13006174Y61335351D01*
X13145351Y61196174D01*
X13304594Y61080476D01*
X13479970Y60991117D01*
X13667173Y60930290D01*
X13861578Y60899500D01*
X13861583Y60899500D01*
X14058422Y60899500D01*
X14252826Y60930290D01*
X14440029Y60991117D01*
X14615405Y61080476D01*
X14619381Y61083365D01*
X14774646Y61196172D01*
X14913828Y61335354D01*
X15029524Y61494595D01*
X15113122Y61658666D01*
X15118882Y61669970D01*
X15130448Y61705564D01*
X15163894Y61808501D01*
X15179709Y61857173D01*
X15210500Y62051577D01*
X15210500Y62248422D01*
X15179709Y62442826D01*
X15152823Y62525572D01*
X15118884Y62630025D01*
X15029524Y62805405D01*
X14913828Y62964646D01*
X14774646Y63103828D01*
X14766864Y63109482D01*
X14724198Y63164812D01*
X14718219Y63234425D01*
X14750825Y63296220D01*
X14811664Y63330578D01*
X14839749Y63333800D01*
X18160251Y63333800D01*
X18227290Y63314115D01*
G37*
G04 #@! TD.AperFunction*
G04 #@! TA.AperFunction,Conductor*
G36*
X50807227Y61734742D02*
G01*
X50819807Y61735282D01*
X50839672Y61723686D01*
X50861445Y61716267D01*
X50870719Y61705564D01*
X50880149Y61700060D01*
X50900485Y61671213D01*
X50990476Y61494594D01*
X51023588Y61449020D01*
X51106172Y61335354D01*
X51106174Y61335352D01*
X51106174Y61335351D01*
X51245351Y61196174D01*
X51404594Y61080476D01*
X51579970Y60991117D01*
X51767173Y60930290D01*
X51961578Y60899500D01*
X51961583Y60899500D01*
X52158420Y60899500D01*
X52165619Y60900640D01*
X52234912Y60891683D01*
X52272694Y60865847D01*
X63376381Y49762161D01*
X63409866Y49700838D01*
X63412700Y49674480D01*
X63412700Y45825419D01*
X63393015Y45758380D01*
X63376381Y45737738D01*
X62605362Y44966719D01*
X62544039Y44933234D01*
X62517681Y44930400D01*
X57616704Y44930400D01*
X57481377Y44903481D01*
X57481372Y44903480D01*
X57481367Y44903478D01*
X57353892Y44850677D01*
X57239154Y44774012D01*
X57239153Y44774011D01*
X51344301Y38879158D01*
X51282978Y38845673D01*
X51237226Y38844366D01*
X51158092Y38856900D01*
X50921908Y38856900D01*
X50921903Y38856900D01*
X50868300Y38848410D01*
X50799007Y38857364D01*
X50745555Y38902360D01*
X50724915Y38969112D01*
X50743640Y39036426D01*
X50761221Y39058564D01*
X57362248Y45659591D01*
X57423571Y45693076D01*
X57430529Y45694383D01*
X57467824Y45700290D01*
X57583075Y45737738D01*
X57655025Y45761116D01*
X57704201Y45786172D01*
X57830405Y45850476D01*
X57850457Y45865045D01*
X57989646Y45966172D01*
X58128828Y46105354D01*
X58244524Y46264595D01*
X58304298Y46381908D01*
X58333882Y46439970D01*
X58336223Y46447173D01*
X58394709Y46627174D01*
X58396991Y46641583D01*
X58425500Y46821577D01*
X58425500Y47018422D01*
X58394709Y47212826D01*
X58356248Y47331195D01*
X58333884Y47400025D01*
X58244524Y47575405D01*
X58128828Y47734646D01*
X57989646Y47873828D01*
X57830405Y47989524D01*
X57655025Y48078884D01*
X57467826Y48139709D01*
X57273422Y48170500D01*
X57273417Y48170500D01*
X57076583Y48170500D01*
X57076578Y48170500D01*
X56882173Y48139709D01*
X56824951Y48121116D01*
X56694975Y48078884D01*
X56694972Y48078882D01*
X56694970Y48078882D01*
X56602455Y48031743D01*
X56519595Y47989524D01*
X56360354Y47873828D01*
X56221172Y47734646D01*
X56191514Y47693825D01*
X56105474Y47575403D01*
X56015485Y47398787D01*
X55967511Y47347990D01*
X55899690Y47331195D01*
X55833555Y47353732D01*
X55794515Y47398787D01*
X55704525Y47575403D01*
X55704524Y47575405D01*
X55588828Y47734646D01*
X55449646Y47873828D01*
X55290405Y47989524D01*
X55115025Y48078884D01*
X54927826Y48139709D01*
X54733422Y48170500D01*
X54733417Y48170500D01*
X54536583Y48170500D01*
X54536578Y48170500D01*
X54342173Y48139709D01*
X54284951Y48121116D01*
X54154975Y48078884D01*
X54154972Y48078882D01*
X54154970Y48078882D01*
X54062455Y48031743D01*
X53979595Y47989524D01*
X53820354Y47873828D01*
X53681172Y47734646D01*
X53651514Y47693825D01*
X53565474Y47575403D01*
X53475485Y47398787D01*
X53427511Y47347990D01*
X53359690Y47331195D01*
X53293555Y47353732D01*
X53254515Y47398787D01*
X53164525Y47575403D01*
X53164524Y47575405D01*
X53048828Y47734646D01*
X52909646Y47873828D01*
X52750405Y47989524D01*
X52575025Y48078884D01*
X52387826Y48139709D01*
X52193422Y48170500D01*
X52193417Y48170500D01*
X51996583Y48170500D01*
X51996578Y48170500D01*
X51802173Y48139709D01*
X51744951Y48121116D01*
X51614975Y48078884D01*
X51614972Y48078882D01*
X51614970Y48078882D01*
X51522455Y48031743D01*
X51439595Y47989524D01*
X51280354Y47873828D01*
X51141172Y47734646D01*
X51111514Y47693825D01*
X51025474Y47575403D01*
X50935485Y47398787D01*
X50887511Y47347990D01*
X50819690Y47331195D01*
X50753555Y47353732D01*
X50714515Y47398787D01*
X50624525Y47575403D01*
X50624524Y47575405D01*
X50508828Y47734646D01*
X50369646Y47873828D01*
X50210405Y47989524D01*
X50035025Y48078884D01*
X49847826Y48139709D01*
X49653422Y48170500D01*
X49653417Y48170500D01*
X49456583Y48170500D01*
X49456578Y48170500D01*
X49262173Y48139709D01*
X49204951Y48121116D01*
X49074975Y48078884D01*
X49074972Y48078882D01*
X49074970Y48078882D01*
X48982455Y48031743D01*
X48899595Y47989524D01*
X48740354Y47873828D01*
X48601172Y47734646D01*
X48571514Y47693825D01*
X48485474Y47575403D01*
X48395485Y47398787D01*
X48347511Y47347990D01*
X48279690Y47331195D01*
X48213555Y47353732D01*
X48174515Y47398787D01*
X48084525Y47575403D01*
X48084524Y47575405D01*
X47968828Y47734646D01*
X47829646Y47873828D01*
X47670405Y47989524D01*
X47495025Y48078884D01*
X47307826Y48139709D01*
X47113422Y48170500D01*
X47113417Y48170500D01*
X46916583Y48170500D01*
X46916578Y48170500D01*
X46722173Y48139709D01*
X46664951Y48121116D01*
X46534975Y48078884D01*
X46534972Y48078882D01*
X46534970Y48078882D01*
X46442455Y48031743D01*
X46359595Y47989524D01*
X46200354Y47873828D01*
X46061172Y47734646D01*
X46031514Y47693825D01*
X45945474Y47575403D01*
X45855485Y47398787D01*
X45807511Y47347990D01*
X45739690Y47331195D01*
X45673555Y47353732D01*
X45634515Y47398787D01*
X45544525Y47575403D01*
X45544524Y47575405D01*
X45428828Y47734646D01*
X45289646Y47873828D01*
X45130405Y47989524D01*
X44955025Y48078884D01*
X44767826Y48139709D01*
X44573422Y48170500D01*
X44573417Y48170500D01*
X44376583Y48170500D01*
X44376578Y48170500D01*
X44182173Y48139709D01*
X44124951Y48121116D01*
X43994975Y48078884D01*
X43994972Y48078882D01*
X43994970Y48078882D01*
X43902455Y48031743D01*
X43819595Y47989524D01*
X43660354Y47873828D01*
X43521172Y47734646D01*
X43491514Y47693825D01*
X43405474Y47575403D01*
X43315485Y47398787D01*
X43267511Y47347990D01*
X43199690Y47331195D01*
X43133555Y47353732D01*
X43094515Y47398787D01*
X43004525Y47575403D01*
X43004524Y47575405D01*
X42888828Y47734646D01*
X42749646Y47873828D01*
X42590405Y47989524D01*
X42415025Y48078884D01*
X42227826Y48139709D01*
X42033422Y48170500D01*
X42033417Y48170500D01*
X41836583Y48170500D01*
X41836578Y48170500D01*
X41642173Y48139709D01*
X41584951Y48121116D01*
X41454975Y48078884D01*
X41454972Y48078882D01*
X41454970Y48078882D01*
X41362455Y48031743D01*
X41279595Y47989524D01*
X41120354Y47873828D01*
X40981172Y47734646D01*
X40951514Y47693825D01*
X40865474Y47575403D01*
X40775485Y47398787D01*
X40727511Y47347990D01*
X40659690Y47331195D01*
X40593555Y47353732D01*
X40554515Y47398787D01*
X40464525Y47575403D01*
X40464524Y47575405D01*
X40348828Y47734646D01*
X40209646Y47873828D01*
X40050405Y47989524D01*
X39875025Y48078884D01*
X39687826Y48139709D01*
X39493422Y48170500D01*
X39493417Y48170500D01*
X39296583Y48170500D01*
X39296578Y48170500D01*
X39102173Y48139709D01*
X39044951Y48121116D01*
X38914975Y48078884D01*
X38914972Y48078882D01*
X38914970Y48078882D01*
X38822455Y48031743D01*
X38739595Y47989524D01*
X38580354Y47873828D01*
X38441172Y47734646D01*
X38411514Y47693825D01*
X38325474Y47575403D01*
X38235485Y47398787D01*
X38187511Y47347990D01*
X38119690Y47331195D01*
X38053555Y47353732D01*
X38014515Y47398787D01*
X37924525Y47575403D01*
X37924524Y47575405D01*
X37808828Y47734646D01*
X37669646Y47873828D01*
X37510405Y47989524D01*
X37335025Y48078884D01*
X37147826Y48139709D01*
X36953422Y48170500D01*
X36953417Y48170500D01*
X36756583Y48170500D01*
X36756578Y48170500D01*
X36562173Y48139709D01*
X36504951Y48121116D01*
X36374975Y48078884D01*
X36374972Y48078882D01*
X36374970Y48078882D01*
X36282455Y48031743D01*
X36199595Y47989524D01*
X36040354Y47873828D01*
X35901172Y47734646D01*
X35871514Y47693825D01*
X35785474Y47575403D01*
X35695485Y47398787D01*
X35647511Y47347990D01*
X35579690Y47331195D01*
X35513555Y47353732D01*
X35474515Y47398787D01*
X35384525Y47575403D01*
X35384524Y47575405D01*
X35268828Y47734646D01*
X35129646Y47873828D01*
X34970405Y47989524D01*
X34795025Y48078884D01*
X34607826Y48139709D01*
X34413422Y48170500D01*
X34413417Y48170500D01*
X34216583Y48170500D01*
X34216578Y48170500D01*
X34022173Y48139709D01*
X33964951Y48121116D01*
X33834975Y48078884D01*
X33834972Y48078882D01*
X33834970Y48078882D01*
X33742455Y48031743D01*
X33659595Y47989524D01*
X33500354Y47873828D01*
X33361172Y47734646D01*
X33331514Y47693825D01*
X33245474Y47575403D01*
X33155485Y47398787D01*
X33107511Y47347990D01*
X33039690Y47331195D01*
X32973555Y47353732D01*
X32934515Y47398787D01*
X32844525Y47575403D01*
X32844524Y47575405D01*
X32728828Y47734646D01*
X32589646Y47873828D01*
X32430405Y47989524D01*
X32255025Y48078884D01*
X32067826Y48139709D01*
X31873422Y48170500D01*
X31873417Y48170500D01*
X31676583Y48170500D01*
X31676578Y48170500D01*
X31482173Y48139709D01*
X31424951Y48121116D01*
X31294975Y48078884D01*
X31294972Y48078882D01*
X31294970Y48078882D01*
X31202455Y48031743D01*
X31119595Y47989524D01*
X30960354Y47873828D01*
X30821172Y47734646D01*
X30791514Y47693825D01*
X30705474Y47575403D01*
X30615485Y47398787D01*
X30567511Y47347990D01*
X30499690Y47331195D01*
X30433555Y47353732D01*
X30394515Y47398787D01*
X30304525Y47575403D01*
X30304524Y47575405D01*
X30188828Y47734646D01*
X30049646Y47873828D01*
X29890405Y47989524D01*
X29715025Y48078884D01*
X29527826Y48139709D01*
X29333422Y48170500D01*
X29333417Y48170500D01*
X29136583Y48170500D01*
X29136578Y48170500D01*
X28942173Y48139709D01*
X28884951Y48121116D01*
X28754975Y48078884D01*
X28754972Y48078882D01*
X28754970Y48078882D01*
X28662455Y48031743D01*
X28579595Y47989524D01*
X28420354Y47873828D01*
X28281172Y47734646D01*
X28251514Y47693825D01*
X28165474Y47575403D01*
X28075485Y47398787D01*
X28027511Y47347990D01*
X27959690Y47331195D01*
X27893555Y47353732D01*
X27854515Y47398787D01*
X27764525Y47575403D01*
X27764524Y47575405D01*
X27648828Y47734646D01*
X27509646Y47873828D01*
X27350405Y47989524D01*
X27175025Y48078884D01*
X26987826Y48139709D01*
X26793422Y48170500D01*
X26793417Y48170500D01*
X26596583Y48170500D01*
X26596578Y48170500D01*
X26402173Y48139709D01*
X26344951Y48121116D01*
X26214975Y48078884D01*
X26214972Y48078882D01*
X26214970Y48078882D01*
X26122455Y48031743D01*
X26039595Y47989524D01*
X25880354Y47873828D01*
X25741172Y47734646D01*
X25711514Y47693825D01*
X25625474Y47575403D01*
X25535485Y47398787D01*
X25487511Y47347990D01*
X25419690Y47331195D01*
X25353555Y47353732D01*
X25314515Y47398787D01*
X25224525Y47575403D01*
X25224524Y47575405D01*
X25108828Y47734646D01*
X24969646Y47873828D01*
X24810405Y47989524D01*
X24635025Y48078884D01*
X24447826Y48139709D01*
X24253422Y48170500D01*
X24253417Y48170500D01*
X24056583Y48170500D01*
X24056578Y48170500D01*
X23862173Y48139709D01*
X23804951Y48121116D01*
X23674975Y48078884D01*
X23674972Y48078882D01*
X23674970Y48078882D01*
X23582455Y48031743D01*
X23499595Y47989524D01*
X23340354Y47873828D01*
X23201172Y47734646D01*
X23171514Y47693825D01*
X23085474Y47575403D01*
X22995485Y47398787D01*
X22947511Y47347990D01*
X22879690Y47331195D01*
X22813555Y47353732D01*
X22774515Y47398787D01*
X22684525Y47575403D01*
X22684524Y47575405D01*
X22568828Y47734646D01*
X22429646Y47873828D01*
X22270405Y47989524D01*
X22095025Y48078884D01*
X21907826Y48139709D01*
X21713422Y48170500D01*
X21713417Y48170500D01*
X21516583Y48170500D01*
X21516578Y48170500D01*
X21322173Y48139709D01*
X21264951Y48121116D01*
X21134975Y48078884D01*
X21134972Y48078882D01*
X21134970Y48078882D01*
X21042455Y48031743D01*
X20959595Y47989524D01*
X20800354Y47873828D01*
X20661172Y47734646D01*
X20631514Y47693825D01*
X20545474Y47575403D01*
X20455485Y47398787D01*
X20407511Y47347990D01*
X20339690Y47331195D01*
X20273555Y47353732D01*
X20234515Y47398787D01*
X20144525Y47575403D01*
X20144524Y47575405D01*
X20028828Y47734646D01*
X19889646Y47873828D01*
X19730405Y47989524D01*
X19555025Y48078884D01*
X19367826Y48139709D01*
X19173422Y48170500D01*
X19173417Y48170500D01*
X18976583Y48170500D01*
X18976578Y48170500D01*
X18782173Y48139709D01*
X18724951Y48121116D01*
X18594975Y48078884D01*
X18594972Y48078882D01*
X18594970Y48078882D01*
X18502455Y48031743D01*
X18419595Y47989524D01*
X18260354Y47873828D01*
X18121172Y47734646D01*
X18091514Y47693825D01*
X18005474Y47575403D01*
X17915485Y47398787D01*
X17867511Y47347990D01*
X17799690Y47331195D01*
X17733555Y47353732D01*
X17694515Y47398787D01*
X17604525Y47575403D01*
X17604524Y47575405D01*
X17488828Y47734646D01*
X17349646Y47873828D01*
X17190405Y47989524D01*
X17015025Y48078884D01*
X16827826Y48139709D01*
X16633422Y48170500D01*
X16633417Y48170500D01*
X16436583Y48170500D01*
X16436578Y48170500D01*
X16242173Y48139709D01*
X16184951Y48121116D01*
X16054975Y48078884D01*
X16054972Y48078882D01*
X16054970Y48078882D01*
X15962455Y48031743D01*
X15879595Y47989524D01*
X15720354Y47873828D01*
X15581172Y47734646D01*
X15551514Y47693825D01*
X15465474Y47575403D01*
X15375485Y47398787D01*
X15327511Y47347990D01*
X15259690Y47331195D01*
X15193555Y47353732D01*
X15154515Y47398787D01*
X15064525Y47575403D01*
X15064524Y47575405D01*
X14948828Y47734646D01*
X14809646Y47873828D01*
X14650405Y47989524D01*
X14475025Y48078884D01*
X14287826Y48139709D01*
X14093422Y48170500D01*
X14093417Y48170500D01*
X13896583Y48170500D01*
X13896578Y48170500D01*
X13702173Y48139709D01*
X13644951Y48121116D01*
X13514975Y48078884D01*
X13514972Y48078882D01*
X13514970Y48078882D01*
X13422455Y48031743D01*
X13339595Y47989524D01*
X13180354Y47873828D01*
X13180351Y47873825D01*
X13045581Y47739055D01*
X12984258Y47705570D01*
X12914566Y47710554D01*
X12858633Y47752426D01*
X12834216Y47817890D01*
X12833900Y47826736D01*
X12833900Y50131880D01*
X12853585Y50198919D01*
X12870219Y50219561D01*
X22124112Y59473454D01*
X22200777Y59588192D01*
X22253578Y59715667D01*
X22253581Y59715677D01*
X22280500Y59851003D01*
X22280500Y61050058D01*
X22300185Y61117097D01*
X22331613Y61150375D01*
X22394645Y61196171D01*
X22533825Y61335351D01*
X22533828Y61335354D01*
X22649524Y61494595D01*
X22734051Y61660489D01*
X22739515Y61671213D01*
X22787489Y61722009D01*
X22855310Y61738804D01*
X22921445Y61716267D01*
X22960485Y61671213D01*
X23050476Y61494594D01*
X23083588Y61449020D01*
X23166172Y61335354D01*
X23166174Y61335352D01*
X23166174Y61335351D01*
X23305351Y61196174D01*
X23464594Y61080476D01*
X23639970Y60991117D01*
X23827173Y60930290D01*
X24021578Y60899500D01*
X24021583Y60899500D01*
X24218422Y60899500D01*
X24412826Y60930290D01*
X24600029Y60991117D01*
X24775405Y61080476D01*
X24779381Y61083365D01*
X24934646Y61196172D01*
X25073828Y61335354D01*
X25189524Y61494595D01*
X25274051Y61660489D01*
X25279515Y61671213D01*
X25327489Y61722009D01*
X25395310Y61738804D01*
X25461445Y61716267D01*
X25500485Y61671213D01*
X25590476Y61494594D01*
X25623588Y61449020D01*
X25706172Y61335354D01*
X25706174Y61335352D01*
X25706174Y61335351D01*
X25845351Y61196174D01*
X26004594Y61080476D01*
X26179970Y60991117D01*
X26367173Y60930290D01*
X26561578Y60899500D01*
X26561583Y60899500D01*
X26758422Y60899500D01*
X26952826Y60930290D01*
X27140029Y60991117D01*
X27315405Y61080476D01*
X27319381Y61083365D01*
X27474646Y61196172D01*
X27613828Y61335354D01*
X27729524Y61494595D01*
X27814051Y61660489D01*
X27819515Y61671213D01*
X27867489Y61722009D01*
X27935310Y61738804D01*
X28001445Y61716267D01*
X28040485Y61671213D01*
X28130476Y61494594D01*
X28246176Y61335348D01*
X28246177Y61335347D01*
X28246253Y61335272D01*
X28246272Y61335236D01*
X28249341Y61331643D01*
X28248586Y61330998D01*
X28279738Y61273949D01*
X28274754Y61204257D01*
X28246253Y61159910D01*
X19508223Y52421880D01*
X19446900Y52388395D01*
X19382225Y52391630D01*
X19362768Y52397953D01*
X19303933Y52407271D01*
X19129497Y52434900D01*
X19129492Y52434900D01*
X18893308Y52434900D01*
X18893303Y52434900D01*
X18660031Y52397953D01*
X18568305Y52368149D01*
X18435408Y52324968D01*
X18435405Y52324966D01*
X18435403Y52324966D01*
X18324391Y52268402D01*
X18224967Y52217743D01*
X18033890Y52078917D01*
X17866883Y51911910D01*
X17729567Y51722911D01*
X17728057Y51720833D01*
X17620833Y51510396D01*
X17547846Y51285768D01*
X17510900Y51052497D01*
X17510900Y50816302D01*
X17547846Y50583031D01*
X17620833Y50358403D01*
X17728057Y50147966D01*
X17807262Y50038950D01*
X17866883Y49956890D01*
X17866885Y49956888D01*
X17866885Y49956887D01*
X18033887Y49789885D01*
X18224966Y49651057D01*
X18435403Y49543833D01*
X18660031Y49470846D01*
X18893303Y49433900D01*
X18893308Y49433900D01*
X19129497Y49433900D01*
X19362768Y49470846D01*
X19587396Y49543833D01*
X19797833Y49651057D01*
X19866350Y49700838D01*
X19988910Y49789883D01*
X20155917Y49956890D01*
X20294743Y50147967D01*
X20353186Y50262668D01*
X20401966Y50358403D01*
X20405943Y50370641D01*
X20462495Y50544690D01*
X20474953Y50583031D01*
X20511900Y50816302D01*
X20511900Y51052497D01*
X20478435Y51263785D01*
X20474953Y51285768D01*
X20468630Y51305224D01*
X20466634Y51375061D01*
X20498880Y51431223D01*
X29744109Y60676451D01*
X29744112Y60676454D01*
X29786799Y60740340D01*
X29786800Y60740342D01*
X29820775Y60791189D01*
X29820775Y60791191D01*
X29820778Y60791195D01*
X29873578Y60918667D01*
X29873581Y60918677D01*
X29900500Y61054004D01*
X29901097Y61060067D01*
X29903373Y61059842D01*
X29920185Y61117097D01*
X29951613Y61150375D01*
X30014645Y61196171D01*
X30153825Y61335351D01*
X30153828Y61335354D01*
X30269524Y61494595D01*
X30354051Y61660489D01*
X30359515Y61671213D01*
X30407489Y61722009D01*
X30475310Y61738804D01*
X30541445Y61716267D01*
X30580485Y61671213D01*
X30670476Y61494594D01*
X30703588Y61449020D01*
X30786172Y61335354D01*
X30786174Y61335352D01*
X30786174Y61335351D01*
X30925351Y61196174D01*
X31084594Y61080476D01*
X31259970Y60991117D01*
X31447173Y60930290D01*
X31641578Y60899500D01*
X31641583Y60899500D01*
X31838422Y60899500D01*
X32032826Y60930290D01*
X32220029Y60991117D01*
X32395405Y61080476D01*
X32399381Y61083365D01*
X32554646Y61196172D01*
X32693828Y61335354D01*
X32809524Y61494595D01*
X32894051Y61660489D01*
X32899515Y61671213D01*
X32947489Y61722009D01*
X33015310Y61738804D01*
X33081445Y61716267D01*
X33120485Y61671213D01*
X33210476Y61494594D01*
X33243588Y61449020D01*
X33326172Y61335354D01*
X33326174Y61335352D01*
X33326174Y61335351D01*
X33465351Y61196174D01*
X33624594Y61080476D01*
X33799970Y60991117D01*
X33987173Y60930290D01*
X34181578Y60899500D01*
X34181583Y60899500D01*
X34378422Y60899500D01*
X34572826Y60930290D01*
X34760029Y60991117D01*
X34935405Y61080476D01*
X34939381Y61083365D01*
X35094646Y61196172D01*
X35233828Y61335354D01*
X35349524Y61494595D01*
X35434051Y61660489D01*
X35439515Y61671213D01*
X35487489Y61722009D01*
X35555310Y61738804D01*
X35621445Y61716267D01*
X35660485Y61671213D01*
X35750476Y61494594D01*
X35783588Y61449020D01*
X35866172Y61335354D01*
X35866174Y61335352D01*
X35866174Y61335351D01*
X36005351Y61196174D01*
X36164594Y61080476D01*
X36339970Y60991117D01*
X36527173Y60930290D01*
X36721578Y60899500D01*
X36721583Y60899500D01*
X36918422Y60899500D01*
X37112826Y60930290D01*
X37300029Y60991117D01*
X37475405Y61080476D01*
X37479381Y61083365D01*
X37634646Y61196172D01*
X37773828Y61335354D01*
X37889524Y61494595D01*
X37974051Y61660489D01*
X37979515Y61671213D01*
X38027489Y61722009D01*
X38095310Y61738804D01*
X38161445Y61716267D01*
X38200485Y61671213D01*
X38290476Y61494594D01*
X38323588Y61449020D01*
X38406172Y61335354D01*
X38406174Y61335352D01*
X38406174Y61335351D01*
X38545351Y61196174D01*
X38704594Y61080476D01*
X38879970Y60991117D01*
X39067173Y60930290D01*
X39261578Y60899500D01*
X39261583Y60899500D01*
X39458422Y60899500D01*
X39652826Y60930290D01*
X39840029Y60991117D01*
X40015405Y61080476D01*
X40019381Y61083365D01*
X40174646Y61196172D01*
X40313828Y61335354D01*
X40429524Y61494595D01*
X40514051Y61660489D01*
X40519515Y61671213D01*
X40567489Y61722009D01*
X40635310Y61738804D01*
X40701445Y61716267D01*
X40740485Y61671213D01*
X40830476Y61494594D01*
X40863588Y61449020D01*
X40946172Y61335354D01*
X40946174Y61335352D01*
X40946174Y61335351D01*
X41085351Y61196174D01*
X41244594Y61080476D01*
X41419970Y60991117D01*
X41607173Y60930290D01*
X41801578Y60899500D01*
X41801583Y60899500D01*
X41998422Y60899500D01*
X42192826Y60930290D01*
X42380029Y60991117D01*
X42555405Y61080476D01*
X42559381Y61083365D01*
X42714646Y61196172D01*
X42853828Y61335354D01*
X42969524Y61494595D01*
X43054051Y61660489D01*
X43059515Y61671213D01*
X43107489Y61722009D01*
X43175310Y61738804D01*
X43241445Y61716267D01*
X43280485Y61671213D01*
X43370476Y61494594D01*
X43403588Y61449020D01*
X43486172Y61335354D01*
X43486174Y61335352D01*
X43486174Y61335351D01*
X43625351Y61196174D01*
X43784594Y61080476D01*
X43959970Y60991117D01*
X44147173Y60930290D01*
X44341578Y60899500D01*
X44341583Y60899500D01*
X44538422Y60899500D01*
X44732826Y60930290D01*
X44920029Y60991117D01*
X45095405Y61080476D01*
X45099381Y61083365D01*
X45254646Y61196172D01*
X45393828Y61335354D01*
X45509524Y61494595D01*
X45594051Y61660489D01*
X45599515Y61671213D01*
X45647489Y61722009D01*
X45715310Y61738804D01*
X45781445Y61716267D01*
X45820485Y61671213D01*
X45910476Y61494594D01*
X45943588Y61449020D01*
X46026172Y61335354D01*
X46026174Y61335352D01*
X46026174Y61335351D01*
X46165351Y61196174D01*
X46324594Y61080476D01*
X46499970Y60991117D01*
X46687173Y60930290D01*
X46881578Y60899500D01*
X46881583Y60899500D01*
X47078424Y60899500D01*
X47083281Y60899882D01*
X47083393Y60898448D01*
X47146298Y60890306D01*
X47199740Y60845299D01*
X47220367Y60778543D01*
X47201628Y60711233D01*
X47184060Y60689117D01*
X46232962Y59738019D01*
X46171639Y59704534D01*
X46145281Y59701700D01*
X41493516Y59701700D01*
X41426477Y59721385D01*
X41383032Y59769403D01*
X41380564Y59774245D01*
X41373743Y59787633D01*
X41234917Y59978710D01*
X41067910Y60145717D01*
X40876833Y60284543D01*
X40666392Y60391768D01*
X40441768Y60464753D01*
X40208497Y60501700D01*
X40208492Y60501700D01*
X39972308Y60501700D01*
X39972303Y60501700D01*
X39739031Y60464753D01*
X39680759Y60445819D01*
X39514408Y60391768D01*
X39514405Y60391766D01*
X39514403Y60391766D01*
X39403391Y60335202D01*
X39303967Y60284543D01*
X39112890Y60145717D01*
X38945883Y59978710D01*
X38807057Y59787633D01*
X38699833Y59577196D01*
X38626846Y59352568D01*
X38589900Y59119297D01*
X38589900Y58883102D01*
X38626846Y58649831D01*
X38699833Y58425203D01*
X38807057Y58214766D01*
X38846484Y58160500D01*
X38945883Y58023690D01*
X38945885Y58023688D01*
X38945885Y58023687D01*
X39112887Y57856685D01*
X39303966Y57717857D01*
X39514403Y57610633D01*
X39739031Y57537646D01*
X39972303Y57500700D01*
X39972308Y57500700D01*
X40208497Y57500700D01*
X40441768Y57537646D01*
X40666396Y57610633D01*
X40876833Y57717857D01*
X40966494Y57783000D01*
X41067910Y57856683D01*
X41234917Y58023690D01*
X41373743Y58214767D01*
X41379088Y58225258D01*
X41383032Y58232997D01*
X41431008Y58283792D01*
X41493516Y58300700D01*
X46555796Y58300700D01*
X46691122Y58327618D01*
X46691132Y58327621D01*
X46818607Y58380422D01*
X46933345Y58457087D01*
X46933346Y58457088D01*
X49339438Y60863181D01*
X49400761Y60896666D01*
X49427119Y60899500D01*
X49618422Y60899500D01*
X49812826Y60930290D01*
X50000029Y60991117D01*
X50175405Y61080476D01*
X50179381Y61083365D01*
X50334646Y61196172D01*
X50473828Y61335354D01*
X50589524Y61494595D01*
X50674051Y61660489D01*
X50679515Y61671213D01*
X50688160Y61680366D01*
X50692895Y61692033D01*
X50711694Y61705285D01*
X50727489Y61722009D01*
X50739711Y61725035D01*
X50750002Y61732290D01*
X50772983Y61733275D01*
X50795310Y61738804D01*
X50807227Y61734742D01*
G37*
G04 #@! TD.AperFunction*
M02*
