%TF.GenerationSoftware,KiCad,Pcbnew,9.0.5*%
%TF.CreationDate,2025-10-19T13:19:09+02:00*%
%TF.ProjectId,fotoaparat,666f746f-6170-4617-9261-742e6b696361,rev?*%
%TF.SameCoordinates,Original*%
%TF.FileFunction,Drillmap*%
%TF.FilePolarity,Positive*%
%FSLAX45Y45*%
G04 Gerber Fmt 4.5, Leading zero omitted, Abs format (unit mm)*
G04 Created by KiCad (PCBNEW 9.0.5) date 2025-10-19 13:19:09*
%MOMM*%
%LPD*%
G01*
G04 APERTURE LIST*
%ADD10C,0.050000*%
%ADD11C,0.200000*%
%ADD12C,0.100000*%
%ADD13C,0.105000*%
%ADD14C,0.150000*%
G04 APERTURE END LIST*
D10*
X20900000Y-14500000D02*
G75*
G02*
X20500000Y-14900000I-400000J0D01*
G01*
X20500000Y-5600000D02*
G75*
G02*
X20900000Y-6000000I0J-400000D01*
G01*
X8100000Y-6000000D02*
X8100000Y-14500000D01*
X8500000Y-14900000D02*
G75*
G02*
X8100000Y-14500000I0J400000D01*
G01*
X8500000Y-14900000D02*
X20500000Y-14900000D01*
X20900000Y-14500000D02*
X20900000Y-6000000D01*
X20500000Y-5600000D02*
X8500000Y-5600000D01*
X8100000Y-6000000D02*
G75*
G02*
X8500000Y-5600000I400000J0D01*
G01*
D11*
D12*
X8245000Y-11415000D02*
X8275000Y-11445000D01*
X8275000Y-11415000D02*
X8245000Y-11445000D01*
X8295000Y-11585000D02*
X8325000Y-11615000D01*
X8325000Y-11585000D02*
X8295000Y-11615000D01*
X8475000Y-10915000D02*
X8505000Y-10945000D01*
X8505000Y-10915000D02*
X8475000Y-10945000D01*
X8525000Y-11775000D02*
X8555000Y-11805000D01*
X8555000Y-11775000D02*
X8525000Y-11805000D01*
X8715000Y-12805000D02*
X8745000Y-12835000D01*
X8745000Y-12805000D02*
X8715000Y-12835000D01*
X8725000Y-12255000D02*
X8755000Y-12285000D01*
X8755000Y-12255000D02*
X8725000Y-12285000D01*
X8775000Y-9755000D02*
X8805000Y-9785000D01*
X8805000Y-9755000D02*
X8775000Y-9785000D01*
X8775000Y-10065000D02*
X8805000Y-10095000D01*
X8805000Y-10065000D02*
X8775000Y-10095000D01*
X8925000Y-11645000D02*
X8955000Y-11675000D01*
X8955000Y-11645000D02*
X8925000Y-11675000D01*
X8965000Y-9875000D02*
X8995000Y-9905000D01*
X8995000Y-9875000D02*
X8965000Y-9905000D01*
X8995000Y-10175000D02*
X9025000Y-10205000D01*
X9025000Y-10175000D02*
X8995000Y-10205000D01*
X9025000Y-8295000D02*
X9055000Y-8325000D01*
X9055000Y-8295000D02*
X9025000Y-8325000D01*
X9195000Y-7455000D02*
X9225000Y-7485000D01*
X9225000Y-7455000D02*
X9195000Y-7485000D01*
X9295000Y-10995000D02*
X9325000Y-11025000D01*
X9325000Y-10995000D02*
X9295000Y-11025000D01*
X9425000Y-12285000D02*
X9455000Y-12315000D01*
X9455000Y-12285000D02*
X9425000Y-12315000D01*
X9505000Y-11635000D02*
X9535000Y-11665000D01*
X9535000Y-11635000D02*
X9505000Y-11665000D01*
X9575000Y-8295000D02*
X9605000Y-8325000D01*
X9605000Y-8295000D02*
X9575000Y-8325000D01*
X9685000Y-11895000D02*
X9715000Y-11925000D01*
X9715000Y-11895000D02*
X9685000Y-11925000D01*
X9745000Y-13265000D02*
X9775000Y-13295000D01*
X9775000Y-13265000D02*
X9745000Y-13295000D01*
X9860000Y-10000000D02*
X9890000Y-10030000D01*
X9890000Y-10000000D02*
X9860000Y-10030000D01*
X9950000Y-9680000D02*
X9980000Y-9710000D01*
X9980000Y-9680000D02*
X9950000Y-9710000D01*
X9955000Y-9780000D02*
X9985000Y-9810000D01*
X9985000Y-9780000D02*
X9955000Y-9810000D01*
X9975000Y-9885000D02*
X10005000Y-9915000D01*
X10005000Y-9885000D02*
X9975000Y-9915000D01*
X10255000Y-11725000D02*
X10285000Y-11755000D01*
X10285000Y-11725000D02*
X10255000Y-11755000D01*
X10265000Y-10495000D02*
X10295000Y-10525000D01*
X10295000Y-10495000D02*
X10265000Y-10525000D01*
X10790000Y-9770000D02*
X10820000Y-9800000D01*
X10820000Y-9770000D02*
X10790000Y-9800000D01*
X10945000Y-14445000D02*
X10975000Y-14475000D01*
X10975000Y-14445000D02*
X10945000Y-14475000D01*
X11055000Y-8185000D02*
X11085000Y-8215000D01*
X11085000Y-8185000D02*
X11055000Y-8215000D01*
X11055000Y-11255000D02*
X11085000Y-11285000D01*
X11085000Y-11255000D02*
X11055000Y-11285000D01*
X11065000Y-8395000D02*
X11095000Y-8425000D01*
X11095000Y-8395000D02*
X11065000Y-8425000D01*
X11065000Y-12925000D02*
X11095000Y-12955000D01*
X11095000Y-12925000D02*
X11065000Y-12955000D01*
X11195000Y-10315000D02*
X11225000Y-10345000D01*
X11225000Y-10315000D02*
X11195000Y-10345000D01*
X11325000Y-14665000D02*
X11355000Y-14695000D01*
X11355000Y-14665000D02*
X11325000Y-14695000D01*
X11365000Y-6967500D02*
X11395000Y-6997500D01*
X11395000Y-6967500D02*
X11365000Y-6997500D01*
X11385000Y-10485000D02*
X11415000Y-10515000D01*
X11415000Y-10485000D02*
X11385000Y-10515000D01*
X11405000Y-11255000D02*
X11435000Y-11285000D01*
X11435000Y-11255000D02*
X11405000Y-11285000D01*
X11445000Y-9145000D02*
X11475000Y-9175000D01*
X11475000Y-9145000D02*
X11445000Y-9175000D01*
X11795000Y-10205000D02*
X11825000Y-10235000D01*
X11825000Y-10205000D02*
X11795000Y-10235000D01*
X12385000Y-13175000D02*
X12415000Y-13205000D01*
X12415000Y-13175000D02*
X12385000Y-13205000D01*
X12595000Y-8725000D02*
X12625000Y-8755000D01*
X12625000Y-8725000D02*
X12595000Y-8755000D01*
X12615000Y-11325000D02*
X12645000Y-11355000D01*
X12645000Y-11325000D02*
X12615000Y-11355000D01*
X12845000Y-9700000D02*
X12875000Y-9730000D01*
X12875000Y-9700000D02*
X12845000Y-9730000D01*
X12855000Y-9915000D02*
X12885000Y-9945000D01*
X12885000Y-9915000D02*
X12855000Y-9945000D01*
X12895000Y-10065000D02*
X12925000Y-10095000D01*
X12925000Y-10065000D02*
X12895000Y-10095000D01*
X12955000Y-7855000D02*
X12985000Y-7885000D01*
X12985000Y-7855000D02*
X12955000Y-7885000D01*
X12965000Y-10165000D02*
X12995000Y-10195000D01*
X12995000Y-10165000D02*
X12965000Y-10195000D01*
X12965000Y-10975000D02*
X12995000Y-11005000D01*
X12995000Y-10975000D02*
X12965000Y-11005000D01*
X12965000Y-11385000D02*
X12995000Y-11415000D01*
X12995000Y-11385000D02*
X12965000Y-11415000D01*
X13000000Y-7155000D02*
X13030000Y-7185000D01*
X13030000Y-7155000D02*
X13000000Y-7185000D01*
X13085000Y-9485000D02*
X13115000Y-9515000D01*
X13115000Y-9485000D02*
X13085000Y-9515000D01*
X13085000Y-10185000D02*
X13115000Y-10215000D01*
X13115000Y-10185000D02*
X13085000Y-10215000D01*
X13135000Y-11365000D02*
X13165000Y-11395000D01*
X13165000Y-11365000D02*
X13135000Y-11395000D01*
X13145000Y-10840000D02*
X13175000Y-10870000D01*
X13175000Y-10840000D02*
X13145000Y-10870000D01*
X13145000Y-13155000D02*
X13175000Y-13185000D01*
X13175000Y-13155000D02*
X13145000Y-13185000D01*
X13265000Y-10305000D02*
X13295000Y-10335000D01*
X13295000Y-10305000D02*
X13265000Y-10335000D01*
X13295000Y-11375000D02*
X13325000Y-11405000D01*
X13325000Y-11375000D02*
X13295000Y-11405000D01*
X13305000Y-10985000D02*
X13335000Y-11015000D01*
X13335000Y-10985000D02*
X13305000Y-11015000D01*
X13375000Y-10385000D02*
X13405000Y-10415000D01*
X13405000Y-10385000D02*
X13375000Y-10415000D01*
X13422000Y-7850000D02*
X13452000Y-7880000D01*
X13452000Y-7850000D02*
X13422000Y-7880000D01*
X13422000Y-8760000D02*
X13452000Y-8790000D01*
X13452000Y-8760000D02*
X13422000Y-8790000D01*
X13445000Y-9465000D02*
X13475000Y-9495000D01*
X13475000Y-9465000D02*
X13445000Y-9495000D01*
X13445000Y-11345000D02*
X13475000Y-11375000D01*
X13475000Y-11345000D02*
X13445000Y-11375000D01*
X13455000Y-10975000D02*
X13485000Y-11005000D01*
X13485000Y-10975000D02*
X13455000Y-11005000D01*
X13555000Y-7165000D02*
X13585000Y-7195000D01*
X13585000Y-7165000D02*
X13555000Y-7195000D01*
X13555000Y-8285000D02*
X13585000Y-8315000D01*
X13585000Y-8285000D02*
X13555000Y-8315000D01*
X13555000Y-10415000D02*
X13585000Y-10445000D01*
X13585000Y-10415000D02*
X13555000Y-10445000D01*
X13611250Y-9125000D02*
X13641250Y-9155000D01*
X13641250Y-9125000D02*
X13611250Y-9155000D01*
X13625000Y-10955000D02*
X13655000Y-10985000D01*
X13655000Y-10955000D02*
X13625000Y-10985000D01*
X13715000Y-7525000D02*
X13745000Y-7555000D01*
X13745000Y-7525000D02*
X13715000Y-7555000D01*
X13805000Y-8335000D02*
X13835000Y-8365000D01*
X13835000Y-8335000D02*
X13805000Y-8365000D01*
X13815000Y-8925000D02*
X13845000Y-8955000D01*
X13845000Y-8925000D02*
X13815000Y-8955000D01*
X13815000Y-10115000D02*
X13845000Y-10145000D01*
X13845000Y-10115000D02*
X13815000Y-10145000D01*
X13835000Y-7935000D02*
X13865000Y-7965000D01*
X13865000Y-7935000D02*
X13835000Y-7965000D01*
X13868750Y-10805000D02*
X13898750Y-10835000D01*
X13898750Y-10805000D02*
X13868750Y-10835000D01*
X13915000Y-11415000D02*
X13945000Y-11445000D01*
X13945000Y-11415000D02*
X13915000Y-11445000D01*
X13965000Y-8025000D02*
X13995000Y-8055000D01*
X13995000Y-8025000D02*
X13965000Y-8055000D01*
X13965000Y-8285000D02*
X13995000Y-8315000D01*
X13995000Y-8285000D02*
X13965000Y-8315000D01*
X13985000Y-10947500D02*
X14015000Y-10977500D01*
X14015000Y-10947500D02*
X13985000Y-10977500D01*
X14035000Y-11555000D02*
X14065000Y-11585000D01*
X14065000Y-11555000D02*
X14035000Y-11585000D01*
X14070000Y-11990000D02*
X14100000Y-12020000D01*
X14100000Y-11990000D02*
X14070000Y-12020000D01*
X14075000Y-8125000D02*
X14105000Y-8155000D01*
X14105000Y-8125000D02*
X14075000Y-8155000D01*
X14075000Y-8275000D02*
X14105000Y-8305000D01*
X14105000Y-8275000D02*
X14075000Y-8305000D01*
X14085000Y-10947500D02*
X14115000Y-10977500D01*
X14115000Y-10947500D02*
X14085000Y-10977500D01*
X14175000Y-9545000D02*
X14205000Y-9575000D01*
X14205000Y-9545000D02*
X14175000Y-9575000D01*
X14185000Y-10935000D02*
X14215000Y-10965000D01*
X14215000Y-10935000D02*
X14185000Y-10965000D01*
X14195000Y-8295000D02*
X14225000Y-8325000D01*
X14225000Y-8295000D02*
X14195000Y-8325000D01*
X14205000Y-7845000D02*
X14235000Y-7875000D01*
X14235000Y-7845000D02*
X14205000Y-7875000D01*
X14255000Y-8585000D02*
X14285000Y-8615000D01*
X14285000Y-8585000D02*
X14255000Y-8615000D01*
X14285000Y-10915000D02*
X14315000Y-10945000D01*
X14315000Y-10915000D02*
X14285000Y-10945000D01*
X14285000Y-13095000D02*
X14315000Y-13125000D01*
X14315000Y-13095000D02*
X14285000Y-13125000D01*
X14295000Y-10805000D02*
X14325000Y-10835000D01*
X14325000Y-10805000D02*
X14295000Y-10835000D01*
X14305000Y-10695000D02*
X14335000Y-10725000D01*
X14335000Y-10695000D02*
X14305000Y-10725000D01*
X14310000Y-8695000D02*
X14340000Y-8725000D01*
X14340000Y-8695000D02*
X14310000Y-8725000D01*
X14325000Y-9585000D02*
X14355000Y-9615000D01*
X14355000Y-9585000D02*
X14325000Y-9615000D01*
X14335000Y-7655000D02*
X14365000Y-7685000D01*
X14365000Y-7655000D02*
X14335000Y-7685000D01*
X14355000Y-10995000D02*
X14385000Y-11025000D01*
X14385000Y-10995000D02*
X14355000Y-11025000D01*
X14435000Y-12855000D02*
X14465000Y-12885000D01*
X14465000Y-12855000D02*
X14435000Y-12885000D01*
X14465000Y-13115000D02*
X14495000Y-13145000D01*
X14495000Y-13115000D02*
X14465000Y-13145000D01*
X14485000Y-10355000D02*
X14515000Y-10385000D01*
X14515000Y-10355000D02*
X14485000Y-10385000D01*
X14525000Y-7345000D02*
X14555000Y-7375000D01*
X14555000Y-7345000D02*
X14525000Y-7375000D01*
X14585000Y-10215000D02*
X14615000Y-10245000D01*
X14615000Y-10215000D02*
X14585000Y-10245000D01*
X14655000Y-8995000D02*
X14685000Y-9025000D01*
X14685000Y-8995000D02*
X14655000Y-9025000D01*
X14725000Y-8335000D02*
X14755000Y-8365000D01*
X14755000Y-8335000D02*
X14725000Y-8365000D01*
X14735000Y-7725000D02*
X14765000Y-7755000D01*
X14765000Y-7725000D02*
X14735000Y-7755000D01*
X14798750Y-10735000D02*
X14828750Y-10765000D01*
X14828750Y-10735000D02*
X14798750Y-10765000D01*
X14835000Y-13105000D02*
X14865000Y-13135000D01*
X14865000Y-13105000D02*
X14835000Y-13135000D01*
X14905000Y-7625000D02*
X14935000Y-7655000D01*
X14935000Y-7625000D02*
X14905000Y-7655000D01*
X14975000Y-10780000D02*
X15005000Y-10810000D01*
X15005000Y-10780000D02*
X14975000Y-10810000D01*
X14995000Y-10415000D02*
X15025000Y-10445000D01*
X15025000Y-10415000D02*
X14995000Y-10445000D01*
X15195000Y-8355000D02*
X15225000Y-8385000D01*
X15225000Y-8355000D02*
X15195000Y-8385000D01*
X15225000Y-9485000D02*
X15255000Y-9515000D01*
X15255000Y-9485000D02*
X15225000Y-9515000D01*
X15235000Y-10275000D02*
X15265000Y-10305000D01*
X15265000Y-10275000D02*
X15235000Y-10305000D01*
X15235000Y-13005000D02*
X15265000Y-13035000D01*
X15265000Y-13005000D02*
X15235000Y-13035000D01*
X15290000Y-7760000D02*
X15320000Y-7790000D01*
X15320000Y-7760000D02*
X15290000Y-7790000D01*
X15325252Y-7495252D02*
X15355252Y-7525252D01*
X15355252Y-7495252D02*
X15325252Y-7525252D01*
X15335000Y-9245000D02*
X15365000Y-9275000D01*
X15365000Y-9245000D02*
X15335000Y-9275000D01*
X15425000Y-9645000D02*
X15455000Y-9675000D01*
X15455000Y-9645000D02*
X15425000Y-9675000D01*
X15425000Y-9835000D02*
X15455000Y-9865000D01*
X15455000Y-9835000D02*
X15425000Y-9865000D01*
X15485000Y-8315000D02*
X15515000Y-8345000D01*
X15515000Y-8315000D02*
X15485000Y-8345000D01*
X15505000Y-7315000D02*
X15535000Y-7345000D01*
X15535000Y-7315000D02*
X15505000Y-7345000D01*
X15585000Y-7465000D02*
X15615000Y-7495000D01*
X15615000Y-7465000D02*
X15585000Y-7495000D01*
X15625000Y-9855000D02*
X15655000Y-9885000D01*
X15655000Y-9855000D02*
X15625000Y-9885000D01*
X15655000Y-8345000D02*
X15685000Y-8375000D01*
X15685000Y-8345000D02*
X15655000Y-8375000D01*
X15765000Y-7685000D02*
X15795000Y-7715000D01*
X15795000Y-7685000D02*
X15765000Y-7715000D01*
X15770000Y-8235000D02*
X15800000Y-8265000D01*
X15800000Y-8235000D02*
X15770000Y-8265000D01*
X15845000Y-13255000D02*
X15875000Y-13285000D01*
X15875000Y-13255000D02*
X15845000Y-13285000D01*
X15855000Y-7465000D02*
X15885000Y-7495000D01*
X15885000Y-7465000D02*
X15855000Y-7495000D01*
X15885000Y-13675000D02*
X15915000Y-13705000D01*
X15915000Y-13675000D02*
X15885000Y-13705000D01*
X15905000Y-7785000D02*
X15935000Y-7815000D01*
X15935000Y-7785000D02*
X15905000Y-7815000D01*
X15915000Y-8295000D02*
X15945000Y-8325000D01*
X15945000Y-8295000D02*
X15915000Y-8325000D01*
X15925000Y-10475000D02*
X15955000Y-10505000D01*
X15955000Y-10475000D02*
X15925000Y-10505000D01*
X16055000Y-7935000D02*
X16085000Y-7965000D01*
X16085000Y-7935000D02*
X16055000Y-7965000D01*
X16055000Y-8205000D02*
X16085000Y-8235000D01*
X16085000Y-8205000D02*
X16055000Y-8235000D01*
X16115000Y-9175000D02*
X16145000Y-9205000D01*
X16145000Y-9175000D02*
X16115000Y-9205000D01*
X16237500Y-9697500D02*
X16267500Y-9727500D01*
X16267500Y-9697500D02*
X16237500Y-9727500D01*
X16237500Y-9792500D02*
X16267500Y-9822500D01*
X16267500Y-9792500D02*
X16237500Y-9822500D01*
X16275000Y-9275000D02*
X16305000Y-9305000D01*
X16305000Y-9275000D02*
X16275000Y-9305000D01*
X16275000Y-9465000D02*
X16305000Y-9495000D01*
X16305000Y-9465000D02*
X16275000Y-9495000D01*
X16355000Y-9875000D02*
X16385000Y-9905000D01*
X16385000Y-9875000D02*
X16355000Y-9905000D01*
X16355000Y-10385000D02*
X16385000Y-10415000D01*
X16385000Y-10385000D02*
X16355000Y-10415000D01*
X16375000Y-8225000D02*
X16405000Y-8255000D01*
X16405000Y-8225000D02*
X16375000Y-8255000D01*
X16405000Y-7445000D02*
X16435000Y-7475000D01*
X16435000Y-7445000D02*
X16405000Y-7475000D01*
X16525000Y-10965000D02*
X16555000Y-10995000D01*
X16555000Y-10965000D02*
X16525000Y-10995000D01*
X16525000Y-11455000D02*
X16555000Y-11485000D01*
X16555000Y-11455000D02*
X16525000Y-11485000D01*
X16535000Y-8265000D02*
X16565000Y-8295000D01*
X16565000Y-8265000D02*
X16535000Y-8295000D01*
X16545000Y-8735000D02*
X16575000Y-8765000D01*
X16575000Y-8735000D02*
X16545000Y-8765000D01*
X16545000Y-9885000D02*
X16575000Y-9915000D01*
X16575000Y-9885000D02*
X16545000Y-9915000D01*
X16545000Y-10395000D02*
X16575000Y-10425000D01*
X16575000Y-10395000D02*
X16545000Y-10425000D01*
X16555000Y-7955000D02*
X16585000Y-7985000D01*
X16585000Y-7955000D02*
X16555000Y-7985000D01*
X16665000Y-11695000D02*
X16695000Y-11725000D01*
X16695000Y-11695000D02*
X16665000Y-11725000D01*
X16675000Y-14315000D02*
X16705000Y-14345000D01*
X16705000Y-14315000D02*
X16675000Y-14345000D01*
X16705000Y-12915000D02*
X16735000Y-12945000D01*
X16735000Y-12915000D02*
X16705000Y-12945000D01*
X16855000Y-11175000D02*
X16885000Y-11205000D01*
X16885000Y-11175000D02*
X16855000Y-11205000D01*
X16855000Y-11345000D02*
X16885000Y-11375000D01*
X16885000Y-11345000D02*
X16855000Y-11375000D01*
X17435000Y-8195000D02*
X17465000Y-8225000D01*
X17465000Y-8195000D02*
X17435000Y-8225000D01*
X17815000Y-10095000D02*
X17845000Y-10125000D01*
X17845000Y-10095000D02*
X17815000Y-10125000D01*
X17855000Y-6865000D02*
X17885000Y-6895000D01*
X17885000Y-6865000D02*
X17855000Y-6895000D01*
X17865000Y-9697500D02*
X17895000Y-9727500D01*
X17895000Y-9697500D02*
X17865000Y-9727500D01*
X17865000Y-9792500D02*
X17895000Y-9822500D01*
X17895000Y-9792500D02*
X17865000Y-9822500D01*
X17985000Y-12655000D02*
X18015000Y-12685000D01*
X18015000Y-12655000D02*
X17985000Y-12685000D01*
X18005000Y-11865000D02*
X18035000Y-11895000D01*
X18035000Y-11865000D02*
X18005000Y-11895000D01*
X18075000Y-9235000D02*
X18105000Y-9265000D01*
X18105000Y-9235000D02*
X18075000Y-9265000D01*
X18214360Y-12147500D02*
X18244360Y-12177500D01*
X18244360Y-12147500D02*
X18214360Y-12177500D01*
X18285000Y-9505000D02*
X18315000Y-9535000D01*
X18315000Y-9505000D02*
X18285000Y-9535000D01*
X18715000Y-9585000D02*
X18745000Y-9615000D01*
X18745000Y-9585000D02*
X18715000Y-9615000D01*
X18715000Y-9895000D02*
X18745000Y-9925000D01*
X18745000Y-9895000D02*
X18715000Y-9925000D01*
X18965000Y-9545000D02*
X18995000Y-9575000D01*
X18995000Y-9545000D02*
X18965000Y-9575000D01*
X18965000Y-9895000D02*
X18995000Y-9925000D01*
X18995000Y-9895000D02*
X18965000Y-9925000D01*
X19245000Y-9575000D02*
X19275000Y-9605000D01*
X19275000Y-9575000D02*
X19245000Y-9605000D01*
X19245000Y-9895000D02*
X19275000Y-9925000D01*
X19275000Y-9895000D02*
X19245000Y-9925000D01*
X20275000Y-9555000D02*
X20305000Y-9585000D01*
X20305000Y-9555000D02*
X20275000Y-9585000D01*
X12782500Y-9626000D02*
G75*
G02*
X12717500Y-9626000I-32500J0D01*
G01*
X12717500Y-9626000D02*
G75*
G02*
X12782500Y-9626000I32500J0D01*
G01*
X12782500Y-10114000D02*
G75*
G02*
X12717500Y-10114000I-32500J0D01*
G01*
X12717500Y-10114000D02*
G75*
G02*
X12782500Y-10114000I32500J0D01*
G01*
X12805000Y-6414489D02*
X12805000Y-6494489D01*
X12765000Y-6454489D02*
X12845000Y-6454489D01*
X12805000Y-6664489D02*
X12805000Y-6744489D01*
X12765000Y-6704489D02*
X12845000Y-6704489D01*
X18154489Y-6570000D02*
X18154489Y-6650000D01*
X18114489Y-6610000D02*
X18194489Y-6610000D01*
X18404489Y-6570000D02*
X18404489Y-6650000D01*
X18364489Y-6610000D02*
X18444489Y-6610000D01*
X8425356Y-9805356D02*
X8425356Y-9734644D01*
X8354644Y-9734644D01*
X8354644Y-9805356D01*
X8425356Y-9805356D01*
X8425356Y-10005356D02*
X8425356Y-9934644D01*
X8354644Y-9934644D01*
X8354644Y-10005356D01*
X8425356Y-10005356D01*
X8425356Y-10205356D02*
X8425356Y-10134644D01*
X8354644Y-10134644D01*
X8354644Y-10205356D01*
X8425356Y-10205356D01*
X8625356Y-9805356D02*
X8625356Y-9734644D01*
X8554644Y-9734644D01*
X8554644Y-9805356D01*
X8625356Y-9805356D01*
X8625356Y-10005356D02*
X8625356Y-9934644D01*
X8554644Y-9934644D01*
X8554644Y-10005356D01*
X8625356Y-10005356D01*
X8625356Y-10205356D02*
X8625356Y-10134644D01*
X8554644Y-10134644D01*
X8554644Y-10205356D01*
X8625356Y-10205356D01*
X9725356Y-12885356D02*
X9725356Y-12814644D01*
X9654644Y-12814644D01*
X9654644Y-12885356D01*
X9725356Y-12885356D01*
X9735356Y-12175356D02*
X9735356Y-12104644D01*
X9664644Y-12104644D01*
X9664644Y-12175356D01*
X9735356Y-12175356D01*
X9979356Y-12885356D02*
X9979356Y-12814644D01*
X9908644Y-12814644D01*
X9908644Y-12885356D01*
X9979356Y-12885356D01*
X9989356Y-12175356D02*
X9989356Y-12104644D01*
X9918644Y-12104644D01*
X9918644Y-12175356D01*
X9989356Y-12175356D01*
X12651356Y-11885356D02*
X12651356Y-11814644D01*
X12580644Y-11814644D01*
X12580644Y-11885356D01*
X12651356Y-11885356D01*
X12905356Y-11885356D02*
X12905356Y-11814644D01*
X12834644Y-11814644D01*
X12834644Y-11885356D01*
X12905356Y-11885356D01*
X14841356Y-8855356D02*
X14841356Y-8784644D01*
X14770644Y-8784644D01*
X14770644Y-8855356D01*
X14841356Y-8855356D01*
X15072856Y-7185356D02*
X15072856Y-7114644D01*
X15002144Y-7114644D01*
X15002144Y-7185356D01*
X15072856Y-7185356D01*
X15095356Y-8855356D02*
X15095356Y-8784644D01*
X15024644Y-8784644D01*
X15024644Y-8855356D01*
X15095356Y-8855356D01*
X15326856Y-7185356D02*
X15326856Y-7114644D01*
X15256144Y-7114644D01*
X15256144Y-7185356D01*
X15326856Y-7185356D01*
X15349356Y-8855356D02*
X15349356Y-8784644D01*
X15278644Y-8784644D01*
X15278644Y-8855356D01*
X15349356Y-8855356D01*
X15580856Y-7185356D02*
X15580856Y-7114644D01*
X15510144Y-7114644D01*
X15510144Y-7185356D01*
X15580856Y-7185356D01*
X15603356Y-8855356D02*
X15603356Y-8784644D01*
X15532644Y-8784644D01*
X15532644Y-8855356D01*
X15603356Y-8855356D01*
X15834856Y-7185356D02*
X15834856Y-7114644D01*
X15764144Y-7114644D01*
X15764144Y-7185356D01*
X15834856Y-7185356D01*
X16088856Y-7185356D02*
X16088856Y-7114644D01*
X16018144Y-7114644D01*
X16018144Y-7185356D01*
X16088856Y-7185356D01*
X16342856Y-7185356D02*
X16342856Y-7114644D01*
X16272144Y-7114644D01*
X16272144Y-7185356D01*
X16342856Y-7185356D01*
X16596856Y-7185356D02*
X16596856Y-7114644D01*
X16526144Y-7114644D01*
X16526144Y-7185356D01*
X16596856Y-7185356D01*
X16850856Y-7185356D02*
X16850856Y-7114644D01*
X16780144Y-7114644D01*
X16780144Y-7185356D01*
X16850856Y-7185356D01*
X17104856Y-7185356D02*
X17104856Y-7114644D01*
X17034144Y-7114644D01*
X17034144Y-7185356D01*
X17104856Y-7185356D01*
X17255356Y-8527856D02*
X17255356Y-8457144D01*
X17184644Y-8457144D01*
X17184644Y-8527856D01*
X17255356Y-8527856D01*
X17255356Y-8781856D02*
X17255356Y-8711144D01*
X17184644Y-8711144D01*
X17184644Y-8781856D01*
X17255356Y-8781856D01*
X17255356Y-9035856D02*
X17255356Y-8965144D01*
X17184644Y-8965144D01*
X17184644Y-9035856D01*
X17255356Y-9035856D01*
X17255356Y-9289856D02*
X17255356Y-9219144D01*
X17184644Y-9219144D01*
X17184644Y-9289856D01*
X17255356Y-9289856D01*
X17255356Y-9543856D02*
X17255356Y-9473144D01*
X17184644Y-9473144D01*
X17184644Y-9543856D01*
X17255356Y-9543856D01*
X17255356Y-9797856D02*
X17255356Y-9727144D01*
X17184644Y-9727144D01*
X17184644Y-9797856D01*
X17255356Y-9797856D01*
X17255356Y-10051856D02*
X17255356Y-9981144D01*
X17184644Y-9981144D01*
X17184644Y-10051856D01*
X17255356Y-10051856D01*
X17255356Y-10305856D02*
X17255356Y-10235144D01*
X17184644Y-10235144D01*
X17184644Y-10305856D01*
X17255356Y-10305856D01*
X17255356Y-10559856D02*
X17255356Y-10489144D01*
X17184644Y-10489144D01*
X17184644Y-10559856D01*
X17255356Y-10559856D01*
X17255356Y-10813856D02*
X17255356Y-10743144D01*
X17184644Y-10743144D01*
X17184644Y-10813856D01*
X17255356Y-10813856D01*
X17255356Y-11067856D02*
X17255356Y-10997144D01*
X17184644Y-10997144D01*
X17184644Y-11067856D01*
X17255356Y-11067856D01*
X17358856Y-7185356D02*
X17358856Y-7114644D01*
X17288144Y-7114644D01*
X17288144Y-7185356D01*
X17358856Y-7185356D01*
X17509356Y-8527856D02*
X17509356Y-8457144D01*
X17438644Y-8457144D01*
X17438644Y-8527856D01*
X17509356Y-8527856D01*
X17509356Y-8781856D02*
X17509356Y-8711144D01*
X17438644Y-8711144D01*
X17438644Y-8781856D01*
X17509356Y-8781856D01*
X17509356Y-9035856D02*
X17509356Y-8965144D01*
X17438644Y-8965144D01*
X17438644Y-9035856D01*
X17509356Y-9035856D01*
X17509356Y-9289856D02*
X17509356Y-9219144D01*
X17438644Y-9219144D01*
X17438644Y-9289856D01*
X17509356Y-9289856D01*
X17509356Y-9543856D02*
X17509356Y-9473144D01*
X17438644Y-9473144D01*
X17438644Y-9543856D01*
X17509356Y-9543856D01*
X17509356Y-9797856D02*
X17509356Y-9727144D01*
X17438644Y-9727144D01*
X17438644Y-9797856D01*
X17509356Y-9797856D01*
X17509356Y-10051856D02*
X17509356Y-9981144D01*
X17438644Y-9981144D01*
X17438644Y-10051856D01*
X17509356Y-10051856D01*
X17509356Y-10305856D02*
X17509356Y-10235144D01*
X17438644Y-10235144D01*
X17438644Y-10305856D01*
X17509356Y-10305856D01*
X17509356Y-10559856D02*
X17509356Y-10489144D01*
X17438644Y-10489144D01*
X17438644Y-10559856D01*
X17509356Y-10559856D01*
X17509356Y-10813856D02*
X17509356Y-10743144D01*
X17438644Y-10743144D01*
X17438644Y-10813856D01*
X17509356Y-10813856D01*
X17509356Y-11067856D02*
X17509356Y-10997144D01*
X17438644Y-10997144D01*
X17438644Y-11067856D01*
X17509356Y-11067856D01*
X17612856Y-7185356D02*
X17612856Y-7114644D01*
X17542144Y-7114644D01*
X17542144Y-7185356D01*
X17612856Y-7185356D01*
D13*
X12020000Y-13802500D02*
X12072500Y-13750000D01*
X12020000Y-13697500D01*
X11967500Y-13750000D01*
X12020000Y-13802500D01*
X12020000Y-14252500D02*
X12072500Y-14200000D01*
X12020000Y-14147500D01*
X11967500Y-14200000D01*
X12020000Y-14252500D01*
X12670000Y-13802500D02*
X12722500Y-13750000D01*
X12670000Y-13697500D01*
X12617500Y-13750000D01*
X12670000Y-13802500D01*
X12670000Y-14252500D02*
X12722500Y-14200000D01*
X12670000Y-14147500D01*
X12617500Y-14200000D01*
X12670000Y-14252500D01*
X13450000Y-13802500D02*
X13502500Y-13750000D01*
X13450000Y-13697500D01*
X13397500Y-13750000D01*
X13450000Y-13802500D01*
X13450000Y-14252500D02*
X13502500Y-14200000D01*
X13450000Y-14147500D01*
X13397500Y-14200000D01*
X13450000Y-14252500D01*
X14100000Y-13802500D02*
X14152500Y-13750000D01*
X14100000Y-13697500D01*
X14047500Y-13750000D01*
X14100000Y-13802500D01*
X14100000Y-14252500D02*
X14152500Y-14200000D01*
X14100000Y-14147500D01*
X14047500Y-14200000D01*
X14100000Y-14252500D01*
X14893100Y-13802500D02*
X14945600Y-13750000D01*
X14893100Y-13697500D01*
X14840600Y-13750000D01*
X14893100Y-13802500D01*
X14893100Y-14252500D02*
X14945600Y-14200000D01*
X14893100Y-14147500D01*
X14840600Y-14200000D01*
X14893100Y-14252500D01*
X15543100Y-13802500D02*
X15595600Y-13750000D01*
X15543100Y-13697500D01*
X15490600Y-13750000D01*
X15543100Y-13802500D01*
X15543100Y-14252500D02*
X15595600Y-14200000D01*
X15543100Y-14147500D01*
X15490600Y-14200000D01*
X15543100Y-14252500D01*
D14*
X8215000Y-9420000D02*
X8365000Y-9570000D01*
X8365000Y-9420000D02*
X8215000Y-9570000D01*
X8365000Y-9495000D02*
G75*
G02*
X8215000Y-9495000I-75000J0D01*
G01*
X8215000Y-9495000D02*
G75*
G02*
X8365000Y-9495000I75000J0D01*
G01*
X8215000Y-10370000D02*
X8365000Y-10520000D01*
X8365000Y-10370000D02*
X8215000Y-10520000D01*
X8365000Y-10445000D02*
G75*
G02*
X8215000Y-10445000I-75000J0D01*
G01*
X8215000Y-10445000D02*
G75*
G02*
X8365000Y-10445000I75000J0D01*
G01*
X8615000Y-9420000D02*
X8765000Y-9570000D01*
X8765000Y-9420000D02*
X8615000Y-9570000D01*
X8765000Y-9495000D02*
G75*
G02*
X8615000Y-9495000I-75000J0D01*
G01*
X8615000Y-9495000D02*
G75*
G02*
X8765000Y-9495000I75000J0D01*
G01*
X8615000Y-10370000D02*
X8765000Y-10520000D01*
X8765000Y-10370000D02*
X8615000Y-10520000D01*
X8765000Y-10445000D02*
G75*
G02*
X8615000Y-10445000I-75000J0D01*
G01*
X8615000Y-10445000D02*
G75*
G02*
X8765000Y-10445000I75000J0D01*
G01*
D11*
X8358277Y-15213984D02*
X8358277Y-15013984D01*
X8358277Y-15013984D02*
X8405896Y-15013984D01*
X8405896Y-15013984D02*
X8434467Y-15023508D01*
X8434467Y-15023508D02*
X8453515Y-15042555D01*
X8453515Y-15042555D02*
X8463039Y-15061603D01*
X8463039Y-15061603D02*
X8472563Y-15099698D01*
X8472563Y-15099698D02*
X8472563Y-15128269D01*
X8472563Y-15128269D02*
X8463039Y-15166365D01*
X8463039Y-15166365D02*
X8453515Y-15185412D01*
X8453515Y-15185412D02*
X8434467Y-15204460D01*
X8434467Y-15204460D02*
X8405896Y-15213984D01*
X8405896Y-15213984D02*
X8358277Y-15213984D01*
X8558277Y-15213984D02*
X8558277Y-15080650D01*
X8558277Y-15118746D02*
X8567801Y-15099698D01*
X8567801Y-15099698D02*
X8577324Y-15090174D01*
X8577324Y-15090174D02*
X8596372Y-15080650D01*
X8596372Y-15080650D02*
X8615420Y-15080650D01*
X8682086Y-15213984D02*
X8682086Y-15080650D01*
X8682086Y-15013984D02*
X8672563Y-15023508D01*
X8672563Y-15023508D02*
X8682086Y-15033031D01*
X8682086Y-15033031D02*
X8691610Y-15023508D01*
X8691610Y-15023508D02*
X8682086Y-15013984D01*
X8682086Y-15013984D02*
X8682086Y-15033031D01*
X8805896Y-15213984D02*
X8786848Y-15204460D01*
X8786848Y-15204460D02*
X8777324Y-15185412D01*
X8777324Y-15185412D02*
X8777324Y-15013984D01*
X8910658Y-15213984D02*
X8891610Y-15204460D01*
X8891610Y-15204460D02*
X8882086Y-15185412D01*
X8882086Y-15185412D02*
X8882086Y-15013984D01*
X9139229Y-15213984D02*
X9139229Y-15013984D01*
X9139229Y-15013984D02*
X9205896Y-15156841D01*
X9205896Y-15156841D02*
X9272563Y-15013984D01*
X9272563Y-15013984D02*
X9272563Y-15213984D01*
X9453515Y-15213984D02*
X9453515Y-15109222D01*
X9453515Y-15109222D02*
X9443991Y-15090174D01*
X9443991Y-15090174D02*
X9424944Y-15080650D01*
X9424944Y-15080650D02*
X9386848Y-15080650D01*
X9386848Y-15080650D02*
X9367801Y-15090174D01*
X9453515Y-15204460D02*
X9434467Y-15213984D01*
X9434467Y-15213984D02*
X9386848Y-15213984D01*
X9386848Y-15213984D02*
X9367801Y-15204460D01*
X9367801Y-15204460D02*
X9358277Y-15185412D01*
X9358277Y-15185412D02*
X9358277Y-15166365D01*
X9358277Y-15166365D02*
X9367801Y-15147317D01*
X9367801Y-15147317D02*
X9386848Y-15137793D01*
X9386848Y-15137793D02*
X9434467Y-15137793D01*
X9434467Y-15137793D02*
X9453515Y-15128269D01*
X9548753Y-15080650D02*
X9548753Y-15280650D01*
X9548753Y-15090174D02*
X9567801Y-15080650D01*
X9567801Y-15080650D02*
X9605896Y-15080650D01*
X9605896Y-15080650D02*
X9624944Y-15090174D01*
X9624944Y-15090174D02*
X9634467Y-15099698D01*
X9634467Y-15099698D02*
X9643991Y-15118746D01*
X9643991Y-15118746D02*
X9643991Y-15175888D01*
X9643991Y-15175888D02*
X9634467Y-15194936D01*
X9634467Y-15194936D02*
X9624944Y-15204460D01*
X9624944Y-15204460D02*
X9605896Y-15213984D01*
X9605896Y-15213984D02*
X9567801Y-15213984D01*
X9567801Y-15213984D02*
X9548753Y-15204460D01*
X9729705Y-15194936D02*
X9739229Y-15204460D01*
X9739229Y-15204460D02*
X9729705Y-15213984D01*
X9729705Y-15213984D02*
X9720182Y-15204460D01*
X9720182Y-15204460D02*
X9729705Y-15194936D01*
X9729705Y-15194936D02*
X9729705Y-15213984D01*
X9729705Y-15090174D02*
X9739229Y-15099698D01*
X9739229Y-15099698D02*
X9729705Y-15109222D01*
X9729705Y-15109222D02*
X9720182Y-15099698D01*
X9720182Y-15099698D02*
X9729705Y-15090174D01*
X9729705Y-15090174D02*
X9729705Y-15109222D01*
D12*
X8067500Y-15527500D02*
X8097500Y-15557500D01*
X8097500Y-15527500D02*
X8067500Y-15557500D01*
D11*
X8396372Y-15433984D02*
X8415420Y-15433984D01*
X8415420Y-15433984D02*
X8434467Y-15443508D01*
X8434467Y-15443508D02*
X8443991Y-15453031D01*
X8443991Y-15453031D02*
X8453515Y-15472079D01*
X8453515Y-15472079D02*
X8463039Y-15510174D01*
X8463039Y-15510174D02*
X8463039Y-15557793D01*
X8463039Y-15557793D02*
X8453515Y-15595888D01*
X8453515Y-15595888D02*
X8443991Y-15614936D01*
X8443991Y-15614936D02*
X8434467Y-15624460D01*
X8434467Y-15624460D02*
X8415420Y-15633984D01*
X8415420Y-15633984D02*
X8396372Y-15633984D01*
X8396372Y-15633984D02*
X8377324Y-15624460D01*
X8377324Y-15624460D02*
X8367801Y-15614936D01*
X8367801Y-15614936D02*
X8358277Y-15595888D01*
X8358277Y-15595888D02*
X8348753Y-15557793D01*
X8348753Y-15557793D02*
X8348753Y-15510174D01*
X8348753Y-15510174D02*
X8358277Y-15472079D01*
X8358277Y-15472079D02*
X8367801Y-15453031D01*
X8367801Y-15453031D02*
X8377324Y-15443508D01*
X8377324Y-15443508D02*
X8396372Y-15433984D01*
X8548753Y-15614936D02*
X8558277Y-15624460D01*
X8558277Y-15624460D02*
X8548753Y-15633984D01*
X8548753Y-15633984D02*
X8539229Y-15624460D01*
X8539229Y-15624460D02*
X8548753Y-15614936D01*
X8548753Y-15614936D02*
X8548753Y-15633984D01*
X8624944Y-15433984D02*
X8748753Y-15433984D01*
X8748753Y-15433984D02*
X8682086Y-15510174D01*
X8682086Y-15510174D02*
X8710658Y-15510174D01*
X8710658Y-15510174D02*
X8729705Y-15519698D01*
X8729705Y-15519698D02*
X8739229Y-15529222D01*
X8739229Y-15529222D02*
X8748753Y-15548269D01*
X8748753Y-15548269D02*
X8748753Y-15595888D01*
X8748753Y-15595888D02*
X8739229Y-15614936D01*
X8739229Y-15614936D02*
X8729705Y-15624460D01*
X8729705Y-15624460D02*
X8710658Y-15633984D01*
X8710658Y-15633984D02*
X8653515Y-15633984D01*
X8653515Y-15633984D02*
X8634467Y-15624460D01*
X8634467Y-15624460D02*
X8624944Y-15614936D01*
X8872563Y-15433984D02*
X8891610Y-15433984D01*
X8891610Y-15433984D02*
X8910658Y-15443508D01*
X8910658Y-15443508D02*
X8920182Y-15453031D01*
X8920182Y-15453031D02*
X8929705Y-15472079D01*
X8929705Y-15472079D02*
X8939229Y-15510174D01*
X8939229Y-15510174D02*
X8939229Y-15557793D01*
X8939229Y-15557793D02*
X8929705Y-15595888D01*
X8929705Y-15595888D02*
X8920182Y-15614936D01*
X8920182Y-15614936D02*
X8910658Y-15624460D01*
X8910658Y-15624460D02*
X8891610Y-15633984D01*
X8891610Y-15633984D02*
X8872563Y-15633984D01*
X8872563Y-15633984D02*
X8853515Y-15624460D01*
X8853515Y-15624460D02*
X8843991Y-15614936D01*
X8843991Y-15614936D02*
X8834467Y-15595888D01*
X8834467Y-15595888D02*
X8824944Y-15557793D01*
X8824944Y-15557793D02*
X8824944Y-15510174D01*
X8824944Y-15510174D02*
X8834467Y-15472079D01*
X8834467Y-15472079D02*
X8843991Y-15453031D01*
X8843991Y-15453031D02*
X8853515Y-15443508D01*
X8853515Y-15443508D02*
X8872563Y-15433984D01*
X9063039Y-15433984D02*
X9082086Y-15433984D01*
X9082086Y-15433984D02*
X9101134Y-15443508D01*
X9101134Y-15443508D02*
X9110658Y-15453031D01*
X9110658Y-15453031D02*
X9120182Y-15472079D01*
X9120182Y-15472079D02*
X9129705Y-15510174D01*
X9129705Y-15510174D02*
X9129705Y-15557793D01*
X9129705Y-15557793D02*
X9120182Y-15595888D01*
X9120182Y-15595888D02*
X9110658Y-15614936D01*
X9110658Y-15614936D02*
X9101134Y-15624460D01*
X9101134Y-15624460D02*
X9082086Y-15633984D01*
X9082086Y-15633984D02*
X9063039Y-15633984D01*
X9063039Y-15633984D02*
X9043991Y-15624460D01*
X9043991Y-15624460D02*
X9034467Y-15614936D01*
X9034467Y-15614936D02*
X9024944Y-15595888D01*
X9024944Y-15595888D02*
X9015420Y-15557793D01*
X9015420Y-15557793D02*
X9015420Y-15510174D01*
X9015420Y-15510174D02*
X9024944Y-15472079D01*
X9024944Y-15472079D02*
X9034467Y-15453031D01*
X9034467Y-15453031D02*
X9043991Y-15443508D01*
X9043991Y-15443508D02*
X9063039Y-15433984D01*
X9215420Y-15633984D02*
X9215420Y-15500650D01*
X9215420Y-15519698D02*
X9224944Y-15510174D01*
X9224944Y-15510174D02*
X9243991Y-15500650D01*
X9243991Y-15500650D02*
X9272563Y-15500650D01*
X9272563Y-15500650D02*
X9291610Y-15510174D01*
X9291610Y-15510174D02*
X9301134Y-15529222D01*
X9301134Y-15529222D02*
X9301134Y-15633984D01*
X9301134Y-15529222D02*
X9310658Y-15510174D01*
X9310658Y-15510174D02*
X9329705Y-15500650D01*
X9329705Y-15500650D02*
X9358277Y-15500650D01*
X9358277Y-15500650D02*
X9377325Y-15510174D01*
X9377325Y-15510174D02*
X9386848Y-15529222D01*
X9386848Y-15529222D02*
X9386848Y-15633984D01*
X9482086Y-15633984D02*
X9482086Y-15500650D01*
X9482086Y-15519698D02*
X9491610Y-15510174D01*
X9491610Y-15510174D02*
X9510658Y-15500650D01*
X9510658Y-15500650D02*
X9539229Y-15500650D01*
X9539229Y-15500650D02*
X9558277Y-15510174D01*
X9558277Y-15510174D02*
X9567801Y-15529222D01*
X9567801Y-15529222D02*
X9567801Y-15633984D01*
X9567801Y-15529222D02*
X9577325Y-15510174D01*
X9577325Y-15510174D02*
X9596372Y-15500650D01*
X9596372Y-15500650D02*
X9624944Y-15500650D01*
X9624944Y-15500650D02*
X9643991Y-15510174D01*
X9643991Y-15510174D02*
X9653515Y-15529222D01*
X9653515Y-15529222D02*
X9653515Y-15633984D01*
X10043991Y-15424460D02*
X9872563Y-15681603D01*
X10301134Y-15433984D02*
X10320182Y-15433984D01*
X10320182Y-15433984D02*
X10339229Y-15443508D01*
X10339229Y-15443508D02*
X10348753Y-15453031D01*
X10348753Y-15453031D02*
X10358277Y-15472079D01*
X10358277Y-15472079D02*
X10367801Y-15510174D01*
X10367801Y-15510174D02*
X10367801Y-15557793D01*
X10367801Y-15557793D02*
X10358277Y-15595888D01*
X10358277Y-15595888D02*
X10348753Y-15614936D01*
X10348753Y-15614936D02*
X10339229Y-15624460D01*
X10339229Y-15624460D02*
X10320182Y-15633984D01*
X10320182Y-15633984D02*
X10301134Y-15633984D01*
X10301134Y-15633984D02*
X10282087Y-15624460D01*
X10282087Y-15624460D02*
X10272563Y-15614936D01*
X10272563Y-15614936D02*
X10263039Y-15595888D01*
X10263039Y-15595888D02*
X10253515Y-15557793D01*
X10253515Y-15557793D02*
X10253515Y-15510174D01*
X10253515Y-15510174D02*
X10263039Y-15472079D01*
X10263039Y-15472079D02*
X10272563Y-15453031D01*
X10272563Y-15453031D02*
X10282087Y-15443508D01*
X10282087Y-15443508D02*
X10301134Y-15433984D01*
X10453515Y-15614936D02*
X10463039Y-15624460D01*
X10463039Y-15624460D02*
X10453515Y-15633984D01*
X10453515Y-15633984D02*
X10443991Y-15624460D01*
X10443991Y-15624460D02*
X10453515Y-15614936D01*
X10453515Y-15614936D02*
X10453515Y-15633984D01*
X10586848Y-15433984D02*
X10605896Y-15433984D01*
X10605896Y-15433984D02*
X10624944Y-15443508D01*
X10624944Y-15443508D02*
X10634468Y-15453031D01*
X10634468Y-15453031D02*
X10643991Y-15472079D01*
X10643991Y-15472079D02*
X10653515Y-15510174D01*
X10653515Y-15510174D02*
X10653515Y-15557793D01*
X10653515Y-15557793D02*
X10643991Y-15595888D01*
X10643991Y-15595888D02*
X10634468Y-15614936D01*
X10634468Y-15614936D02*
X10624944Y-15624460D01*
X10624944Y-15624460D02*
X10605896Y-15633984D01*
X10605896Y-15633984D02*
X10586848Y-15633984D01*
X10586848Y-15633984D02*
X10567801Y-15624460D01*
X10567801Y-15624460D02*
X10558277Y-15614936D01*
X10558277Y-15614936D02*
X10548753Y-15595888D01*
X10548753Y-15595888D02*
X10539229Y-15557793D01*
X10539229Y-15557793D02*
X10539229Y-15510174D01*
X10539229Y-15510174D02*
X10548753Y-15472079D01*
X10548753Y-15472079D02*
X10558277Y-15453031D01*
X10558277Y-15453031D02*
X10567801Y-15443508D01*
X10567801Y-15443508D02*
X10586848Y-15433984D01*
X10843991Y-15633984D02*
X10729706Y-15633984D01*
X10786848Y-15633984D02*
X10786848Y-15433984D01*
X10786848Y-15433984D02*
X10767801Y-15462555D01*
X10767801Y-15462555D02*
X10748753Y-15481603D01*
X10748753Y-15481603D02*
X10729706Y-15491127D01*
X11034468Y-15633984D02*
X10920182Y-15633984D01*
X10977325Y-15633984D02*
X10977325Y-15433984D01*
X10977325Y-15433984D02*
X10958277Y-15462555D01*
X10958277Y-15462555D02*
X10939229Y-15481603D01*
X10939229Y-15481603D02*
X10920182Y-15491127D01*
X11148753Y-15519698D02*
X11129706Y-15510174D01*
X11129706Y-15510174D02*
X11120182Y-15500650D01*
X11120182Y-15500650D02*
X11110658Y-15481603D01*
X11110658Y-15481603D02*
X11110658Y-15472079D01*
X11110658Y-15472079D02*
X11120182Y-15453031D01*
X11120182Y-15453031D02*
X11129706Y-15443508D01*
X11129706Y-15443508D02*
X11148753Y-15433984D01*
X11148753Y-15433984D02*
X11186848Y-15433984D01*
X11186848Y-15433984D02*
X11205896Y-15443508D01*
X11205896Y-15443508D02*
X11215420Y-15453031D01*
X11215420Y-15453031D02*
X11224944Y-15472079D01*
X11224944Y-15472079D02*
X11224944Y-15481603D01*
X11224944Y-15481603D02*
X11215420Y-15500650D01*
X11215420Y-15500650D02*
X11205896Y-15510174D01*
X11205896Y-15510174D02*
X11186848Y-15519698D01*
X11186848Y-15519698D02*
X11148753Y-15519698D01*
X11148753Y-15519698D02*
X11129706Y-15529222D01*
X11129706Y-15529222D02*
X11120182Y-15538746D01*
X11120182Y-15538746D02*
X11110658Y-15557793D01*
X11110658Y-15557793D02*
X11110658Y-15595888D01*
X11110658Y-15595888D02*
X11120182Y-15614936D01*
X11120182Y-15614936D02*
X11129706Y-15624460D01*
X11129706Y-15624460D02*
X11148753Y-15633984D01*
X11148753Y-15633984D02*
X11186848Y-15633984D01*
X11186848Y-15633984D02*
X11205896Y-15624460D01*
X11205896Y-15624460D02*
X11215420Y-15614936D01*
X11215420Y-15614936D02*
X11224944Y-15595888D01*
X11224944Y-15595888D02*
X11224944Y-15557793D01*
X11224944Y-15557793D02*
X11215420Y-15538746D01*
X11215420Y-15538746D02*
X11205896Y-15529222D01*
X11205896Y-15529222D02*
X11186848Y-15519698D01*
X11301134Y-15433984D02*
X11301134Y-15472079D01*
X11377325Y-15433984D02*
X11377325Y-15472079D01*
X11672563Y-15710174D02*
X11663039Y-15700650D01*
X11663039Y-15700650D02*
X11643991Y-15672079D01*
X11643991Y-15672079D02*
X11634468Y-15653031D01*
X11634468Y-15653031D02*
X11624944Y-15624460D01*
X11624944Y-15624460D02*
X11615420Y-15576841D01*
X11615420Y-15576841D02*
X11615420Y-15538746D01*
X11615420Y-15538746D02*
X11624944Y-15491127D01*
X11624944Y-15491127D02*
X11634468Y-15462555D01*
X11634468Y-15462555D02*
X11643991Y-15443508D01*
X11643991Y-15443508D02*
X11663039Y-15414936D01*
X11663039Y-15414936D02*
X11672563Y-15405412D01*
X11853515Y-15633984D02*
X11739229Y-15633984D01*
X11796372Y-15633984D02*
X11796372Y-15433984D01*
X11796372Y-15433984D02*
X11777325Y-15462555D01*
X11777325Y-15462555D02*
X11758277Y-15481603D01*
X11758277Y-15481603D02*
X11739229Y-15491127D01*
X11920182Y-15433984D02*
X12053515Y-15433984D01*
X12053515Y-15433984D02*
X11967801Y-15633984D01*
X12234468Y-15633984D02*
X12120182Y-15633984D01*
X12177325Y-15633984D02*
X12177325Y-15433984D01*
X12177325Y-15433984D02*
X12158277Y-15462555D01*
X12158277Y-15462555D02*
X12139229Y-15481603D01*
X12139229Y-15481603D02*
X12120182Y-15491127D01*
X12472563Y-15633984D02*
X12472563Y-15433984D01*
X12558277Y-15633984D02*
X12558277Y-15529222D01*
X12558277Y-15529222D02*
X12548753Y-15510174D01*
X12548753Y-15510174D02*
X12529706Y-15500650D01*
X12529706Y-15500650D02*
X12501134Y-15500650D01*
X12501134Y-15500650D02*
X12482087Y-15510174D01*
X12482087Y-15510174D02*
X12472563Y-15519698D01*
X12682087Y-15633984D02*
X12663039Y-15624460D01*
X12663039Y-15624460D02*
X12653515Y-15614936D01*
X12653515Y-15614936D02*
X12643991Y-15595888D01*
X12643991Y-15595888D02*
X12643991Y-15538746D01*
X12643991Y-15538746D02*
X12653515Y-15519698D01*
X12653515Y-15519698D02*
X12663039Y-15510174D01*
X12663039Y-15510174D02*
X12682087Y-15500650D01*
X12682087Y-15500650D02*
X12710658Y-15500650D01*
X12710658Y-15500650D02*
X12729706Y-15510174D01*
X12729706Y-15510174D02*
X12739230Y-15519698D01*
X12739230Y-15519698D02*
X12748753Y-15538746D01*
X12748753Y-15538746D02*
X12748753Y-15595888D01*
X12748753Y-15595888D02*
X12739230Y-15614936D01*
X12739230Y-15614936D02*
X12729706Y-15624460D01*
X12729706Y-15624460D02*
X12710658Y-15633984D01*
X12710658Y-15633984D02*
X12682087Y-15633984D01*
X12863039Y-15633984D02*
X12843991Y-15624460D01*
X12843991Y-15624460D02*
X12834468Y-15605412D01*
X12834468Y-15605412D02*
X12834468Y-15433984D01*
X13015420Y-15624460D02*
X12996372Y-15633984D01*
X12996372Y-15633984D02*
X12958277Y-15633984D01*
X12958277Y-15633984D02*
X12939230Y-15624460D01*
X12939230Y-15624460D02*
X12929706Y-15605412D01*
X12929706Y-15605412D02*
X12929706Y-15529222D01*
X12929706Y-15529222D02*
X12939230Y-15510174D01*
X12939230Y-15510174D02*
X12958277Y-15500650D01*
X12958277Y-15500650D02*
X12996372Y-15500650D01*
X12996372Y-15500650D02*
X13015420Y-15510174D01*
X13015420Y-15510174D02*
X13024944Y-15529222D01*
X13024944Y-15529222D02*
X13024944Y-15548269D01*
X13024944Y-15548269D02*
X12929706Y-15567317D01*
X13101134Y-15624460D02*
X13120182Y-15633984D01*
X13120182Y-15633984D02*
X13158277Y-15633984D01*
X13158277Y-15633984D02*
X13177325Y-15624460D01*
X13177325Y-15624460D02*
X13186849Y-15605412D01*
X13186849Y-15605412D02*
X13186849Y-15595888D01*
X13186849Y-15595888D02*
X13177325Y-15576841D01*
X13177325Y-15576841D02*
X13158277Y-15567317D01*
X13158277Y-15567317D02*
X13129706Y-15567317D01*
X13129706Y-15567317D02*
X13110658Y-15557793D01*
X13110658Y-15557793D02*
X13101134Y-15538746D01*
X13101134Y-15538746D02*
X13101134Y-15529222D01*
X13101134Y-15529222D02*
X13110658Y-15510174D01*
X13110658Y-15510174D02*
X13129706Y-15500650D01*
X13129706Y-15500650D02*
X13158277Y-15500650D01*
X13158277Y-15500650D02*
X13177325Y-15510174D01*
X13253515Y-15710174D02*
X13263039Y-15700650D01*
X13263039Y-15700650D02*
X13282087Y-15672079D01*
X13282087Y-15672079D02*
X13291611Y-15653031D01*
X13291611Y-15653031D02*
X13301134Y-15624460D01*
X13301134Y-15624460D02*
X13310658Y-15576841D01*
X13310658Y-15576841D02*
X13310658Y-15538746D01*
X13310658Y-15538746D02*
X13301134Y-15491127D01*
X13301134Y-15491127D02*
X13291611Y-15462555D01*
X13291611Y-15462555D02*
X13282087Y-15443508D01*
X13282087Y-15443508D02*
X13263039Y-15414936D01*
X13263039Y-15414936D02*
X13253515Y-15405412D01*
D12*
X8097500Y-15806500D02*
G75*
G02*
X8032500Y-15806500I-32500J0D01*
G01*
X8032500Y-15806500D02*
G75*
G02*
X8097500Y-15806500I32500J0D01*
G01*
D11*
X8396372Y-15697984D02*
X8415420Y-15697984D01*
X8415420Y-15697984D02*
X8434467Y-15707508D01*
X8434467Y-15707508D02*
X8443991Y-15717031D01*
X8443991Y-15717031D02*
X8453515Y-15736079D01*
X8453515Y-15736079D02*
X8463039Y-15774174D01*
X8463039Y-15774174D02*
X8463039Y-15821793D01*
X8463039Y-15821793D02*
X8453515Y-15859888D01*
X8453515Y-15859888D02*
X8443991Y-15878936D01*
X8443991Y-15878936D02*
X8434467Y-15888460D01*
X8434467Y-15888460D02*
X8415420Y-15897984D01*
X8415420Y-15897984D02*
X8396372Y-15897984D01*
X8396372Y-15897984D02*
X8377324Y-15888460D01*
X8377324Y-15888460D02*
X8367801Y-15878936D01*
X8367801Y-15878936D02*
X8358277Y-15859888D01*
X8358277Y-15859888D02*
X8348753Y-15821793D01*
X8348753Y-15821793D02*
X8348753Y-15774174D01*
X8348753Y-15774174D02*
X8358277Y-15736079D01*
X8358277Y-15736079D02*
X8367801Y-15717031D01*
X8367801Y-15717031D02*
X8377324Y-15707508D01*
X8377324Y-15707508D02*
X8396372Y-15697984D01*
X8548753Y-15878936D02*
X8558277Y-15888460D01*
X8558277Y-15888460D02*
X8548753Y-15897984D01*
X8548753Y-15897984D02*
X8539229Y-15888460D01*
X8539229Y-15888460D02*
X8548753Y-15878936D01*
X8548753Y-15878936D02*
X8548753Y-15897984D01*
X8729705Y-15697984D02*
X8691610Y-15697984D01*
X8691610Y-15697984D02*
X8672563Y-15707508D01*
X8672563Y-15707508D02*
X8663039Y-15717031D01*
X8663039Y-15717031D02*
X8643991Y-15745603D01*
X8643991Y-15745603D02*
X8634467Y-15783698D01*
X8634467Y-15783698D02*
X8634467Y-15859888D01*
X8634467Y-15859888D02*
X8643991Y-15878936D01*
X8643991Y-15878936D02*
X8653515Y-15888460D01*
X8653515Y-15888460D02*
X8672563Y-15897984D01*
X8672563Y-15897984D02*
X8710658Y-15897984D01*
X8710658Y-15897984D02*
X8729705Y-15888460D01*
X8729705Y-15888460D02*
X8739229Y-15878936D01*
X8739229Y-15878936D02*
X8748753Y-15859888D01*
X8748753Y-15859888D02*
X8748753Y-15812269D01*
X8748753Y-15812269D02*
X8739229Y-15793222D01*
X8739229Y-15793222D02*
X8729705Y-15783698D01*
X8729705Y-15783698D02*
X8710658Y-15774174D01*
X8710658Y-15774174D02*
X8672563Y-15774174D01*
X8672563Y-15774174D02*
X8653515Y-15783698D01*
X8653515Y-15783698D02*
X8643991Y-15793222D01*
X8643991Y-15793222D02*
X8634467Y-15812269D01*
X8929705Y-15697984D02*
X8834467Y-15697984D01*
X8834467Y-15697984D02*
X8824944Y-15793222D01*
X8824944Y-15793222D02*
X8834467Y-15783698D01*
X8834467Y-15783698D02*
X8853515Y-15774174D01*
X8853515Y-15774174D02*
X8901134Y-15774174D01*
X8901134Y-15774174D02*
X8920182Y-15783698D01*
X8920182Y-15783698D02*
X8929705Y-15793222D01*
X8929705Y-15793222D02*
X8939229Y-15812269D01*
X8939229Y-15812269D02*
X8939229Y-15859888D01*
X8939229Y-15859888D02*
X8929705Y-15878936D01*
X8929705Y-15878936D02*
X8920182Y-15888460D01*
X8920182Y-15888460D02*
X8901134Y-15897984D01*
X8901134Y-15897984D02*
X8853515Y-15897984D01*
X8853515Y-15897984D02*
X8834467Y-15888460D01*
X8834467Y-15888460D02*
X8824944Y-15878936D01*
X9063039Y-15697984D02*
X9082086Y-15697984D01*
X9082086Y-15697984D02*
X9101134Y-15707508D01*
X9101134Y-15707508D02*
X9110658Y-15717031D01*
X9110658Y-15717031D02*
X9120182Y-15736079D01*
X9120182Y-15736079D02*
X9129705Y-15774174D01*
X9129705Y-15774174D02*
X9129705Y-15821793D01*
X9129705Y-15821793D02*
X9120182Y-15859888D01*
X9120182Y-15859888D02*
X9110658Y-15878936D01*
X9110658Y-15878936D02*
X9101134Y-15888460D01*
X9101134Y-15888460D02*
X9082086Y-15897984D01*
X9082086Y-15897984D02*
X9063039Y-15897984D01*
X9063039Y-15897984D02*
X9043991Y-15888460D01*
X9043991Y-15888460D02*
X9034467Y-15878936D01*
X9034467Y-15878936D02*
X9024944Y-15859888D01*
X9024944Y-15859888D02*
X9015420Y-15821793D01*
X9015420Y-15821793D02*
X9015420Y-15774174D01*
X9015420Y-15774174D02*
X9024944Y-15736079D01*
X9024944Y-15736079D02*
X9034467Y-15717031D01*
X9034467Y-15717031D02*
X9043991Y-15707508D01*
X9043991Y-15707508D02*
X9063039Y-15697984D01*
X9215420Y-15897984D02*
X9215420Y-15764650D01*
X9215420Y-15783698D02*
X9224944Y-15774174D01*
X9224944Y-15774174D02*
X9243991Y-15764650D01*
X9243991Y-15764650D02*
X9272563Y-15764650D01*
X9272563Y-15764650D02*
X9291610Y-15774174D01*
X9291610Y-15774174D02*
X9301134Y-15793222D01*
X9301134Y-15793222D02*
X9301134Y-15897984D01*
X9301134Y-15793222D02*
X9310658Y-15774174D01*
X9310658Y-15774174D02*
X9329705Y-15764650D01*
X9329705Y-15764650D02*
X9358277Y-15764650D01*
X9358277Y-15764650D02*
X9377325Y-15774174D01*
X9377325Y-15774174D02*
X9386848Y-15793222D01*
X9386848Y-15793222D02*
X9386848Y-15897984D01*
X9482086Y-15897984D02*
X9482086Y-15764650D01*
X9482086Y-15783698D02*
X9491610Y-15774174D01*
X9491610Y-15774174D02*
X9510658Y-15764650D01*
X9510658Y-15764650D02*
X9539229Y-15764650D01*
X9539229Y-15764650D02*
X9558277Y-15774174D01*
X9558277Y-15774174D02*
X9567801Y-15793222D01*
X9567801Y-15793222D02*
X9567801Y-15897984D01*
X9567801Y-15793222D02*
X9577325Y-15774174D01*
X9577325Y-15774174D02*
X9596372Y-15764650D01*
X9596372Y-15764650D02*
X9624944Y-15764650D01*
X9624944Y-15764650D02*
X9643991Y-15774174D01*
X9643991Y-15774174D02*
X9653515Y-15793222D01*
X9653515Y-15793222D02*
X9653515Y-15897984D01*
X10043991Y-15688460D02*
X9872563Y-15945603D01*
X10301134Y-15697984D02*
X10320182Y-15697984D01*
X10320182Y-15697984D02*
X10339229Y-15707508D01*
X10339229Y-15707508D02*
X10348753Y-15717031D01*
X10348753Y-15717031D02*
X10358277Y-15736079D01*
X10358277Y-15736079D02*
X10367801Y-15774174D01*
X10367801Y-15774174D02*
X10367801Y-15821793D01*
X10367801Y-15821793D02*
X10358277Y-15859888D01*
X10358277Y-15859888D02*
X10348753Y-15878936D01*
X10348753Y-15878936D02*
X10339229Y-15888460D01*
X10339229Y-15888460D02*
X10320182Y-15897984D01*
X10320182Y-15897984D02*
X10301134Y-15897984D01*
X10301134Y-15897984D02*
X10282087Y-15888460D01*
X10282087Y-15888460D02*
X10272563Y-15878936D01*
X10272563Y-15878936D02*
X10263039Y-15859888D01*
X10263039Y-15859888D02*
X10253515Y-15821793D01*
X10253515Y-15821793D02*
X10253515Y-15774174D01*
X10253515Y-15774174D02*
X10263039Y-15736079D01*
X10263039Y-15736079D02*
X10272563Y-15717031D01*
X10272563Y-15717031D02*
X10282087Y-15707508D01*
X10282087Y-15707508D02*
X10301134Y-15697984D01*
X10453515Y-15878936D02*
X10463039Y-15888460D01*
X10463039Y-15888460D02*
X10453515Y-15897984D01*
X10453515Y-15897984D02*
X10443991Y-15888460D01*
X10443991Y-15888460D02*
X10453515Y-15878936D01*
X10453515Y-15878936D02*
X10453515Y-15897984D01*
X10586848Y-15697984D02*
X10605896Y-15697984D01*
X10605896Y-15697984D02*
X10624944Y-15707508D01*
X10624944Y-15707508D02*
X10634468Y-15717031D01*
X10634468Y-15717031D02*
X10643991Y-15736079D01*
X10643991Y-15736079D02*
X10653515Y-15774174D01*
X10653515Y-15774174D02*
X10653515Y-15821793D01*
X10653515Y-15821793D02*
X10643991Y-15859888D01*
X10643991Y-15859888D02*
X10634468Y-15878936D01*
X10634468Y-15878936D02*
X10624944Y-15888460D01*
X10624944Y-15888460D02*
X10605896Y-15897984D01*
X10605896Y-15897984D02*
X10586848Y-15897984D01*
X10586848Y-15897984D02*
X10567801Y-15888460D01*
X10567801Y-15888460D02*
X10558277Y-15878936D01*
X10558277Y-15878936D02*
X10548753Y-15859888D01*
X10548753Y-15859888D02*
X10539229Y-15821793D01*
X10539229Y-15821793D02*
X10539229Y-15774174D01*
X10539229Y-15774174D02*
X10548753Y-15736079D01*
X10548753Y-15736079D02*
X10558277Y-15717031D01*
X10558277Y-15717031D02*
X10567801Y-15707508D01*
X10567801Y-15707508D02*
X10586848Y-15697984D01*
X10729706Y-15717031D02*
X10739229Y-15707508D01*
X10739229Y-15707508D02*
X10758277Y-15697984D01*
X10758277Y-15697984D02*
X10805896Y-15697984D01*
X10805896Y-15697984D02*
X10824944Y-15707508D01*
X10824944Y-15707508D02*
X10834468Y-15717031D01*
X10834468Y-15717031D02*
X10843991Y-15736079D01*
X10843991Y-15736079D02*
X10843991Y-15755127D01*
X10843991Y-15755127D02*
X10834468Y-15783698D01*
X10834468Y-15783698D02*
X10720182Y-15897984D01*
X10720182Y-15897984D02*
X10843991Y-15897984D01*
X11024944Y-15697984D02*
X10929706Y-15697984D01*
X10929706Y-15697984D02*
X10920182Y-15793222D01*
X10920182Y-15793222D02*
X10929706Y-15783698D01*
X10929706Y-15783698D02*
X10948753Y-15774174D01*
X10948753Y-15774174D02*
X10996372Y-15774174D01*
X10996372Y-15774174D02*
X11015420Y-15783698D01*
X11015420Y-15783698D02*
X11024944Y-15793222D01*
X11024944Y-15793222D02*
X11034468Y-15812269D01*
X11034468Y-15812269D02*
X11034468Y-15859888D01*
X11034468Y-15859888D02*
X11024944Y-15878936D01*
X11024944Y-15878936D02*
X11015420Y-15888460D01*
X11015420Y-15888460D02*
X10996372Y-15897984D01*
X10996372Y-15897984D02*
X10948753Y-15897984D01*
X10948753Y-15897984D02*
X10929706Y-15888460D01*
X10929706Y-15888460D02*
X10920182Y-15878936D01*
X11205896Y-15697984D02*
X11167801Y-15697984D01*
X11167801Y-15697984D02*
X11148753Y-15707508D01*
X11148753Y-15707508D02*
X11139229Y-15717031D01*
X11139229Y-15717031D02*
X11120182Y-15745603D01*
X11120182Y-15745603D02*
X11110658Y-15783698D01*
X11110658Y-15783698D02*
X11110658Y-15859888D01*
X11110658Y-15859888D02*
X11120182Y-15878936D01*
X11120182Y-15878936D02*
X11129706Y-15888460D01*
X11129706Y-15888460D02*
X11148753Y-15897984D01*
X11148753Y-15897984D02*
X11186848Y-15897984D01*
X11186848Y-15897984D02*
X11205896Y-15888460D01*
X11205896Y-15888460D02*
X11215420Y-15878936D01*
X11215420Y-15878936D02*
X11224944Y-15859888D01*
X11224944Y-15859888D02*
X11224944Y-15812269D01*
X11224944Y-15812269D02*
X11215420Y-15793222D01*
X11215420Y-15793222D02*
X11205896Y-15783698D01*
X11205896Y-15783698D02*
X11186848Y-15774174D01*
X11186848Y-15774174D02*
X11148753Y-15774174D01*
X11148753Y-15774174D02*
X11129706Y-15783698D01*
X11129706Y-15783698D02*
X11120182Y-15793222D01*
X11120182Y-15793222D02*
X11110658Y-15812269D01*
X11301134Y-15697984D02*
X11301134Y-15736079D01*
X11377325Y-15697984D02*
X11377325Y-15736079D01*
X11672563Y-15974174D02*
X11663039Y-15964650D01*
X11663039Y-15964650D02*
X11643991Y-15936079D01*
X11643991Y-15936079D02*
X11634468Y-15917031D01*
X11634468Y-15917031D02*
X11624944Y-15888460D01*
X11624944Y-15888460D02*
X11615420Y-15840841D01*
X11615420Y-15840841D02*
X11615420Y-15802746D01*
X11615420Y-15802746D02*
X11624944Y-15755127D01*
X11624944Y-15755127D02*
X11634468Y-15726555D01*
X11634468Y-15726555D02*
X11643991Y-15707508D01*
X11643991Y-15707508D02*
X11663039Y-15678936D01*
X11663039Y-15678936D02*
X11672563Y-15669412D01*
X11739229Y-15717031D02*
X11748753Y-15707508D01*
X11748753Y-15707508D02*
X11767801Y-15697984D01*
X11767801Y-15697984D02*
X11815420Y-15697984D01*
X11815420Y-15697984D02*
X11834468Y-15707508D01*
X11834468Y-15707508D02*
X11843991Y-15717031D01*
X11843991Y-15717031D02*
X11853515Y-15736079D01*
X11853515Y-15736079D02*
X11853515Y-15755127D01*
X11853515Y-15755127D02*
X11843991Y-15783698D01*
X11843991Y-15783698D02*
X11729706Y-15897984D01*
X11729706Y-15897984D02*
X11853515Y-15897984D01*
X12091610Y-15897984D02*
X12091610Y-15697984D01*
X12177325Y-15897984D02*
X12177325Y-15793222D01*
X12177325Y-15793222D02*
X12167801Y-15774174D01*
X12167801Y-15774174D02*
X12148753Y-15764650D01*
X12148753Y-15764650D02*
X12120182Y-15764650D01*
X12120182Y-15764650D02*
X12101134Y-15774174D01*
X12101134Y-15774174D02*
X12091610Y-15783698D01*
X12301134Y-15897984D02*
X12282087Y-15888460D01*
X12282087Y-15888460D02*
X12272563Y-15878936D01*
X12272563Y-15878936D02*
X12263039Y-15859888D01*
X12263039Y-15859888D02*
X12263039Y-15802746D01*
X12263039Y-15802746D02*
X12272563Y-15783698D01*
X12272563Y-15783698D02*
X12282087Y-15774174D01*
X12282087Y-15774174D02*
X12301134Y-15764650D01*
X12301134Y-15764650D02*
X12329706Y-15764650D01*
X12329706Y-15764650D02*
X12348753Y-15774174D01*
X12348753Y-15774174D02*
X12358277Y-15783698D01*
X12358277Y-15783698D02*
X12367801Y-15802746D01*
X12367801Y-15802746D02*
X12367801Y-15859888D01*
X12367801Y-15859888D02*
X12358277Y-15878936D01*
X12358277Y-15878936D02*
X12348753Y-15888460D01*
X12348753Y-15888460D02*
X12329706Y-15897984D01*
X12329706Y-15897984D02*
X12301134Y-15897984D01*
X12482087Y-15897984D02*
X12463039Y-15888460D01*
X12463039Y-15888460D02*
X12453515Y-15869412D01*
X12453515Y-15869412D02*
X12453515Y-15697984D01*
X12634468Y-15888460D02*
X12615420Y-15897984D01*
X12615420Y-15897984D02*
X12577325Y-15897984D01*
X12577325Y-15897984D02*
X12558277Y-15888460D01*
X12558277Y-15888460D02*
X12548753Y-15869412D01*
X12548753Y-15869412D02*
X12548753Y-15793222D01*
X12548753Y-15793222D02*
X12558277Y-15774174D01*
X12558277Y-15774174D02*
X12577325Y-15764650D01*
X12577325Y-15764650D02*
X12615420Y-15764650D01*
X12615420Y-15764650D02*
X12634468Y-15774174D01*
X12634468Y-15774174D02*
X12643991Y-15793222D01*
X12643991Y-15793222D02*
X12643991Y-15812269D01*
X12643991Y-15812269D02*
X12548753Y-15831317D01*
X12720182Y-15888460D02*
X12739230Y-15897984D01*
X12739230Y-15897984D02*
X12777325Y-15897984D01*
X12777325Y-15897984D02*
X12796372Y-15888460D01*
X12796372Y-15888460D02*
X12805896Y-15869412D01*
X12805896Y-15869412D02*
X12805896Y-15859888D01*
X12805896Y-15859888D02*
X12796372Y-15840841D01*
X12796372Y-15840841D02*
X12777325Y-15831317D01*
X12777325Y-15831317D02*
X12748753Y-15831317D01*
X12748753Y-15831317D02*
X12729706Y-15821793D01*
X12729706Y-15821793D02*
X12720182Y-15802746D01*
X12720182Y-15802746D02*
X12720182Y-15793222D01*
X12720182Y-15793222D02*
X12729706Y-15774174D01*
X12729706Y-15774174D02*
X12748753Y-15764650D01*
X12748753Y-15764650D02*
X12777325Y-15764650D01*
X12777325Y-15764650D02*
X12796372Y-15774174D01*
X12872563Y-15974174D02*
X12882087Y-15964650D01*
X12882087Y-15964650D02*
X12901134Y-15936079D01*
X12901134Y-15936079D02*
X12910658Y-15917031D01*
X12910658Y-15917031D02*
X12920182Y-15888460D01*
X12920182Y-15888460D02*
X12929706Y-15840841D01*
X12929706Y-15840841D02*
X12929706Y-15802746D01*
X12929706Y-15802746D02*
X12920182Y-15755127D01*
X12920182Y-15755127D02*
X12910658Y-15726555D01*
X12910658Y-15726555D02*
X12901134Y-15707508D01*
X12901134Y-15707508D02*
X12882087Y-15678936D01*
X12882087Y-15678936D02*
X12872563Y-15669412D01*
D12*
X8057500Y-16030500D02*
X8057500Y-16110500D01*
X8017500Y-16070500D02*
X8097500Y-16070500D01*
D11*
X8396372Y-15961984D02*
X8415420Y-15961984D01*
X8415420Y-15961984D02*
X8434467Y-15971508D01*
X8434467Y-15971508D02*
X8443991Y-15981031D01*
X8443991Y-15981031D02*
X8453515Y-16000079D01*
X8453515Y-16000079D02*
X8463039Y-16038174D01*
X8463039Y-16038174D02*
X8463039Y-16085793D01*
X8463039Y-16085793D02*
X8453515Y-16123888D01*
X8453515Y-16123888D02*
X8443991Y-16142936D01*
X8443991Y-16142936D02*
X8434467Y-16152460D01*
X8434467Y-16152460D02*
X8415420Y-16161984D01*
X8415420Y-16161984D02*
X8396372Y-16161984D01*
X8396372Y-16161984D02*
X8377324Y-16152460D01*
X8377324Y-16152460D02*
X8367801Y-16142936D01*
X8367801Y-16142936D02*
X8358277Y-16123888D01*
X8358277Y-16123888D02*
X8348753Y-16085793D01*
X8348753Y-16085793D02*
X8348753Y-16038174D01*
X8348753Y-16038174D02*
X8358277Y-16000079D01*
X8358277Y-16000079D02*
X8367801Y-15981031D01*
X8367801Y-15981031D02*
X8377324Y-15971508D01*
X8377324Y-15971508D02*
X8396372Y-15961984D01*
X8548753Y-16142936D02*
X8558277Y-16152460D01*
X8558277Y-16152460D02*
X8548753Y-16161984D01*
X8548753Y-16161984D02*
X8539229Y-16152460D01*
X8539229Y-16152460D02*
X8548753Y-16142936D01*
X8548753Y-16142936D02*
X8548753Y-16161984D01*
X8672563Y-16047698D02*
X8653515Y-16038174D01*
X8653515Y-16038174D02*
X8643991Y-16028650D01*
X8643991Y-16028650D02*
X8634467Y-16009603D01*
X8634467Y-16009603D02*
X8634467Y-16000079D01*
X8634467Y-16000079D02*
X8643991Y-15981031D01*
X8643991Y-15981031D02*
X8653515Y-15971508D01*
X8653515Y-15971508D02*
X8672563Y-15961984D01*
X8672563Y-15961984D02*
X8710658Y-15961984D01*
X8710658Y-15961984D02*
X8729705Y-15971508D01*
X8729705Y-15971508D02*
X8739229Y-15981031D01*
X8739229Y-15981031D02*
X8748753Y-16000079D01*
X8748753Y-16000079D02*
X8748753Y-16009603D01*
X8748753Y-16009603D02*
X8739229Y-16028650D01*
X8739229Y-16028650D02*
X8729705Y-16038174D01*
X8729705Y-16038174D02*
X8710658Y-16047698D01*
X8710658Y-16047698D02*
X8672563Y-16047698D01*
X8672563Y-16047698D02*
X8653515Y-16057222D01*
X8653515Y-16057222D02*
X8643991Y-16066746D01*
X8643991Y-16066746D02*
X8634467Y-16085793D01*
X8634467Y-16085793D02*
X8634467Y-16123888D01*
X8634467Y-16123888D02*
X8643991Y-16142936D01*
X8643991Y-16142936D02*
X8653515Y-16152460D01*
X8653515Y-16152460D02*
X8672563Y-16161984D01*
X8672563Y-16161984D02*
X8710658Y-16161984D01*
X8710658Y-16161984D02*
X8729705Y-16152460D01*
X8729705Y-16152460D02*
X8739229Y-16142936D01*
X8739229Y-16142936D02*
X8748753Y-16123888D01*
X8748753Y-16123888D02*
X8748753Y-16085793D01*
X8748753Y-16085793D02*
X8739229Y-16066746D01*
X8739229Y-16066746D02*
X8729705Y-16057222D01*
X8729705Y-16057222D02*
X8710658Y-16047698D01*
X8872563Y-15961984D02*
X8891610Y-15961984D01*
X8891610Y-15961984D02*
X8910658Y-15971508D01*
X8910658Y-15971508D02*
X8920182Y-15981031D01*
X8920182Y-15981031D02*
X8929705Y-16000079D01*
X8929705Y-16000079D02*
X8939229Y-16038174D01*
X8939229Y-16038174D02*
X8939229Y-16085793D01*
X8939229Y-16085793D02*
X8929705Y-16123888D01*
X8929705Y-16123888D02*
X8920182Y-16142936D01*
X8920182Y-16142936D02*
X8910658Y-16152460D01*
X8910658Y-16152460D02*
X8891610Y-16161984D01*
X8891610Y-16161984D02*
X8872563Y-16161984D01*
X8872563Y-16161984D02*
X8853515Y-16152460D01*
X8853515Y-16152460D02*
X8843991Y-16142936D01*
X8843991Y-16142936D02*
X8834467Y-16123888D01*
X8834467Y-16123888D02*
X8824944Y-16085793D01*
X8824944Y-16085793D02*
X8824944Y-16038174D01*
X8824944Y-16038174D02*
X8834467Y-16000079D01*
X8834467Y-16000079D02*
X8843991Y-15981031D01*
X8843991Y-15981031D02*
X8853515Y-15971508D01*
X8853515Y-15971508D02*
X8872563Y-15961984D01*
X9063039Y-15961984D02*
X9082086Y-15961984D01*
X9082086Y-15961984D02*
X9101134Y-15971508D01*
X9101134Y-15971508D02*
X9110658Y-15981031D01*
X9110658Y-15981031D02*
X9120182Y-16000079D01*
X9120182Y-16000079D02*
X9129705Y-16038174D01*
X9129705Y-16038174D02*
X9129705Y-16085793D01*
X9129705Y-16085793D02*
X9120182Y-16123888D01*
X9120182Y-16123888D02*
X9110658Y-16142936D01*
X9110658Y-16142936D02*
X9101134Y-16152460D01*
X9101134Y-16152460D02*
X9082086Y-16161984D01*
X9082086Y-16161984D02*
X9063039Y-16161984D01*
X9063039Y-16161984D02*
X9043991Y-16152460D01*
X9043991Y-16152460D02*
X9034467Y-16142936D01*
X9034467Y-16142936D02*
X9024944Y-16123888D01*
X9024944Y-16123888D02*
X9015420Y-16085793D01*
X9015420Y-16085793D02*
X9015420Y-16038174D01*
X9015420Y-16038174D02*
X9024944Y-16000079D01*
X9024944Y-16000079D02*
X9034467Y-15981031D01*
X9034467Y-15981031D02*
X9043991Y-15971508D01*
X9043991Y-15971508D02*
X9063039Y-15961984D01*
X9215420Y-16161984D02*
X9215420Y-16028650D01*
X9215420Y-16047698D02*
X9224944Y-16038174D01*
X9224944Y-16038174D02*
X9243991Y-16028650D01*
X9243991Y-16028650D02*
X9272563Y-16028650D01*
X9272563Y-16028650D02*
X9291610Y-16038174D01*
X9291610Y-16038174D02*
X9301134Y-16057222D01*
X9301134Y-16057222D02*
X9301134Y-16161984D01*
X9301134Y-16057222D02*
X9310658Y-16038174D01*
X9310658Y-16038174D02*
X9329705Y-16028650D01*
X9329705Y-16028650D02*
X9358277Y-16028650D01*
X9358277Y-16028650D02*
X9377325Y-16038174D01*
X9377325Y-16038174D02*
X9386848Y-16057222D01*
X9386848Y-16057222D02*
X9386848Y-16161984D01*
X9482086Y-16161984D02*
X9482086Y-16028650D01*
X9482086Y-16047698D02*
X9491610Y-16038174D01*
X9491610Y-16038174D02*
X9510658Y-16028650D01*
X9510658Y-16028650D02*
X9539229Y-16028650D01*
X9539229Y-16028650D02*
X9558277Y-16038174D01*
X9558277Y-16038174D02*
X9567801Y-16057222D01*
X9567801Y-16057222D02*
X9567801Y-16161984D01*
X9567801Y-16057222D02*
X9577325Y-16038174D01*
X9577325Y-16038174D02*
X9596372Y-16028650D01*
X9596372Y-16028650D02*
X9624944Y-16028650D01*
X9624944Y-16028650D02*
X9643991Y-16038174D01*
X9643991Y-16038174D02*
X9653515Y-16057222D01*
X9653515Y-16057222D02*
X9653515Y-16161984D01*
X10043991Y-15952460D02*
X9872563Y-16209603D01*
X10301134Y-15961984D02*
X10320182Y-15961984D01*
X10320182Y-15961984D02*
X10339229Y-15971508D01*
X10339229Y-15971508D02*
X10348753Y-15981031D01*
X10348753Y-15981031D02*
X10358277Y-16000079D01*
X10358277Y-16000079D02*
X10367801Y-16038174D01*
X10367801Y-16038174D02*
X10367801Y-16085793D01*
X10367801Y-16085793D02*
X10358277Y-16123888D01*
X10358277Y-16123888D02*
X10348753Y-16142936D01*
X10348753Y-16142936D02*
X10339229Y-16152460D01*
X10339229Y-16152460D02*
X10320182Y-16161984D01*
X10320182Y-16161984D02*
X10301134Y-16161984D01*
X10301134Y-16161984D02*
X10282087Y-16152460D01*
X10282087Y-16152460D02*
X10272563Y-16142936D01*
X10272563Y-16142936D02*
X10263039Y-16123888D01*
X10263039Y-16123888D02*
X10253515Y-16085793D01*
X10253515Y-16085793D02*
X10253515Y-16038174D01*
X10253515Y-16038174D02*
X10263039Y-16000079D01*
X10263039Y-16000079D02*
X10272563Y-15981031D01*
X10272563Y-15981031D02*
X10282087Y-15971508D01*
X10282087Y-15971508D02*
X10301134Y-15961984D01*
X10453515Y-16142936D02*
X10463039Y-16152460D01*
X10463039Y-16152460D02*
X10453515Y-16161984D01*
X10453515Y-16161984D02*
X10443991Y-16152460D01*
X10443991Y-16152460D02*
X10453515Y-16142936D01*
X10453515Y-16142936D02*
X10453515Y-16161984D01*
X10586848Y-15961984D02*
X10605896Y-15961984D01*
X10605896Y-15961984D02*
X10624944Y-15971508D01*
X10624944Y-15971508D02*
X10634468Y-15981031D01*
X10634468Y-15981031D02*
X10643991Y-16000079D01*
X10643991Y-16000079D02*
X10653515Y-16038174D01*
X10653515Y-16038174D02*
X10653515Y-16085793D01*
X10653515Y-16085793D02*
X10643991Y-16123888D01*
X10643991Y-16123888D02*
X10634468Y-16142936D01*
X10634468Y-16142936D02*
X10624944Y-16152460D01*
X10624944Y-16152460D02*
X10605896Y-16161984D01*
X10605896Y-16161984D02*
X10586848Y-16161984D01*
X10586848Y-16161984D02*
X10567801Y-16152460D01*
X10567801Y-16152460D02*
X10558277Y-16142936D01*
X10558277Y-16142936D02*
X10548753Y-16123888D01*
X10548753Y-16123888D02*
X10539229Y-16085793D01*
X10539229Y-16085793D02*
X10539229Y-16038174D01*
X10539229Y-16038174D02*
X10548753Y-16000079D01*
X10548753Y-16000079D02*
X10558277Y-15981031D01*
X10558277Y-15981031D02*
X10567801Y-15971508D01*
X10567801Y-15971508D02*
X10586848Y-15961984D01*
X10720182Y-15961984D02*
X10843991Y-15961984D01*
X10843991Y-15961984D02*
X10777325Y-16038174D01*
X10777325Y-16038174D02*
X10805896Y-16038174D01*
X10805896Y-16038174D02*
X10824944Y-16047698D01*
X10824944Y-16047698D02*
X10834468Y-16057222D01*
X10834468Y-16057222D02*
X10843991Y-16076269D01*
X10843991Y-16076269D02*
X10843991Y-16123888D01*
X10843991Y-16123888D02*
X10834468Y-16142936D01*
X10834468Y-16142936D02*
X10824944Y-16152460D01*
X10824944Y-16152460D02*
X10805896Y-16161984D01*
X10805896Y-16161984D02*
X10748753Y-16161984D01*
X10748753Y-16161984D02*
X10729706Y-16152460D01*
X10729706Y-16152460D02*
X10720182Y-16142936D01*
X11034468Y-16161984D02*
X10920182Y-16161984D01*
X10977325Y-16161984D02*
X10977325Y-15961984D01*
X10977325Y-15961984D02*
X10958277Y-15990555D01*
X10958277Y-15990555D02*
X10939229Y-16009603D01*
X10939229Y-16009603D02*
X10920182Y-16019127D01*
X11215420Y-15961984D02*
X11120182Y-15961984D01*
X11120182Y-15961984D02*
X11110658Y-16057222D01*
X11110658Y-16057222D02*
X11120182Y-16047698D01*
X11120182Y-16047698D02*
X11139229Y-16038174D01*
X11139229Y-16038174D02*
X11186848Y-16038174D01*
X11186848Y-16038174D02*
X11205896Y-16047698D01*
X11205896Y-16047698D02*
X11215420Y-16057222D01*
X11215420Y-16057222D02*
X11224944Y-16076269D01*
X11224944Y-16076269D02*
X11224944Y-16123888D01*
X11224944Y-16123888D02*
X11215420Y-16142936D01*
X11215420Y-16142936D02*
X11205896Y-16152460D01*
X11205896Y-16152460D02*
X11186848Y-16161984D01*
X11186848Y-16161984D02*
X11139229Y-16161984D01*
X11139229Y-16161984D02*
X11120182Y-16152460D01*
X11120182Y-16152460D02*
X11110658Y-16142936D01*
X11301134Y-15961984D02*
X11301134Y-16000079D01*
X11377325Y-15961984D02*
X11377325Y-16000079D01*
X11672563Y-16238174D02*
X11663039Y-16228650D01*
X11663039Y-16228650D02*
X11643991Y-16200079D01*
X11643991Y-16200079D02*
X11634468Y-16181031D01*
X11634468Y-16181031D02*
X11624944Y-16152460D01*
X11624944Y-16152460D02*
X11615420Y-16104841D01*
X11615420Y-16104841D02*
X11615420Y-16066746D01*
X11615420Y-16066746D02*
X11624944Y-16019127D01*
X11624944Y-16019127D02*
X11634468Y-15990555D01*
X11634468Y-15990555D02*
X11643991Y-15971508D01*
X11643991Y-15971508D02*
X11663039Y-15942936D01*
X11663039Y-15942936D02*
X11672563Y-15933412D01*
X11834468Y-16028650D02*
X11834468Y-16161984D01*
X11786848Y-15952460D02*
X11739229Y-16095317D01*
X11739229Y-16095317D02*
X11863039Y-16095317D01*
X12091610Y-16161984D02*
X12091610Y-15961984D01*
X12177325Y-16161984D02*
X12177325Y-16057222D01*
X12177325Y-16057222D02*
X12167801Y-16038174D01*
X12167801Y-16038174D02*
X12148753Y-16028650D01*
X12148753Y-16028650D02*
X12120182Y-16028650D01*
X12120182Y-16028650D02*
X12101134Y-16038174D01*
X12101134Y-16038174D02*
X12091610Y-16047698D01*
X12301134Y-16161984D02*
X12282087Y-16152460D01*
X12282087Y-16152460D02*
X12272563Y-16142936D01*
X12272563Y-16142936D02*
X12263039Y-16123888D01*
X12263039Y-16123888D02*
X12263039Y-16066746D01*
X12263039Y-16066746D02*
X12272563Y-16047698D01*
X12272563Y-16047698D02*
X12282087Y-16038174D01*
X12282087Y-16038174D02*
X12301134Y-16028650D01*
X12301134Y-16028650D02*
X12329706Y-16028650D01*
X12329706Y-16028650D02*
X12348753Y-16038174D01*
X12348753Y-16038174D02*
X12358277Y-16047698D01*
X12358277Y-16047698D02*
X12367801Y-16066746D01*
X12367801Y-16066746D02*
X12367801Y-16123888D01*
X12367801Y-16123888D02*
X12358277Y-16142936D01*
X12358277Y-16142936D02*
X12348753Y-16152460D01*
X12348753Y-16152460D02*
X12329706Y-16161984D01*
X12329706Y-16161984D02*
X12301134Y-16161984D01*
X12482087Y-16161984D02*
X12463039Y-16152460D01*
X12463039Y-16152460D02*
X12453515Y-16133412D01*
X12453515Y-16133412D02*
X12453515Y-15961984D01*
X12634468Y-16152460D02*
X12615420Y-16161984D01*
X12615420Y-16161984D02*
X12577325Y-16161984D01*
X12577325Y-16161984D02*
X12558277Y-16152460D01*
X12558277Y-16152460D02*
X12548753Y-16133412D01*
X12548753Y-16133412D02*
X12548753Y-16057222D01*
X12548753Y-16057222D02*
X12558277Y-16038174D01*
X12558277Y-16038174D02*
X12577325Y-16028650D01*
X12577325Y-16028650D02*
X12615420Y-16028650D01*
X12615420Y-16028650D02*
X12634468Y-16038174D01*
X12634468Y-16038174D02*
X12643991Y-16057222D01*
X12643991Y-16057222D02*
X12643991Y-16076269D01*
X12643991Y-16076269D02*
X12548753Y-16095317D01*
X12720182Y-16152460D02*
X12739230Y-16161984D01*
X12739230Y-16161984D02*
X12777325Y-16161984D01*
X12777325Y-16161984D02*
X12796372Y-16152460D01*
X12796372Y-16152460D02*
X12805896Y-16133412D01*
X12805896Y-16133412D02*
X12805896Y-16123888D01*
X12805896Y-16123888D02*
X12796372Y-16104841D01*
X12796372Y-16104841D02*
X12777325Y-16095317D01*
X12777325Y-16095317D02*
X12748753Y-16095317D01*
X12748753Y-16095317D02*
X12729706Y-16085793D01*
X12729706Y-16085793D02*
X12720182Y-16066746D01*
X12720182Y-16066746D02*
X12720182Y-16057222D01*
X12720182Y-16057222D02*
X12729706Y-16038174D01*
X12729706Y-16038174D02*
X12748753Y-16028650D01*
X12748753Y-16028650D02*
X12777325Y-16028650D01*
X12777325Y-16028650D02*
X12796372Y-16038174D01*
X12872563Y-16238174D02*
X12882087Y-16228650D01*
X12882087Y-16228650D02*
X12901134Y-16200079D01*
X12901134Y-16200079D02*
X12910658Y-16181031D01*
X12910658Y-16181031D02*
X12920182Y-16152460D01*
X12920182Y-16152460D02*
X12929706Y-16104841D01*
X12929706Y-16104841D02*
X12929706Y-16066746D01*
X12929706Y-16066746D02*
X12920182Y-16019127D01*
X12920182Y-16019127D02*
X12910658Y-15990555D01*
X12910658Y-15990555D02*
X12901134Y-15971508D01*
X12901134Y-15971508D02*
X12882087Y-15942936D01*
X12882087Y-15942936D02*
X12872563Y-15933412D01*
D12*
X8082856Y-16369856D02*
X8082856Y-16299144D01*
X8012144Y-16299144D01*
X8012144Y-16369856D01*
X8082856Y-16369856D01*
D11*
X8463039Y-16425984D02*
X8348753Y-16425984D01*
X8405896Y-16425984D02*
X8405896Y-16225984D01*
X8405896Y-16225984D02*
X8386848Y-16254555D01*
X8386848Y-16254555D02*
X8367801Y-16273603D01*
X8367801Y-16273603D02*
X8348753Y-16283127D01*
X8548753Y-16406936D02*
X8558277Y-16416460D01*
X8558277Y-16416460D02*
X8548753Y-16425984D01*
X8548753Y-16425984D02*
X8539229Y-16416460D01*
X8539229Y-16416460D02*
X8548753Y-16406936D01*
X8548753Y-16406936D02*
X8548753Y-16425984D01*
X8682086Y-16225984D02*
X8701134Y-16225984D01*
X8701134Y-16225984D02*
X8720182Y-16235508D01*
X8720182Y-16235508D02*
X8729705Y-16245031D01*
X8729705Y-16245031D02*
X8739229Y-16264079D01*
X8739229Y-16264079D02*
X8748753Y-16302174D01*
X8748753Y-16302174D02*
X8748753Y-16349793D01*
X8748753Y-16349793D02*
X8739229Y-16387888D01*
X8739229Y-16387888D02*
X8729705Y-16406936D01*
X8729705Y-16406936D02*
X8720182Y-16416460D01*
X8720182Y-16416460D02*
X8701134Y-16425984D01*
X8701134Y-16425984D02*
X8682086Y-16425984D01*
X8682086Y-16425984D02*
X8663039Y-16416460D01*
X8663039Y-16416460D02*
X8653515Y-16406936D01*
X8653515Y-16406936D02*
X8643991Y-16387888D01*
X8643991Y-16387888D02*
X8634467Y-16349793D01*
X8634467Y-16349793D02*
X8634467Y-16302174D01*
X8634467Y-16302174D02*
X8643991Y-16264079D01*
X8643991Y-16264079D02*
X8653515Y-16245031D01*
X8653515Y-16245031D02*
X8663039Y-16235508D01*
X8663039Y-16235508D02*
X8682086Y-16225984D01*
X8872563Y-16225984D02*
X8891610Y-16225984D01*
X8891610Y-16225984D02*
X8910658Y-16235508D01*
X8910658Y-16235508D02*
X8920182Y-16245031D01*
X8920182Y-16245031D02*
X8929705Y-16264079D01*
X8929705Y-16264079D02*
X8939229Y-16302174D01*
X8939229Y-16302174D02*
X8939229Y-16349793D01*
X8939229Y-16349793D02*
X8929705Y-16387888D01*
X8929705Y-16387888D02*
X8920182Y-16406936D01*
X8920182Y-16406936D02*
X8910658Y-16416460D01*
X8910658Y-16416460D02*
X8891610Y-16425984D01*
X8891610Y-16425984D02*
X8872563Y-16425984D01*
X8872563Y-16425984D02*
X8853515Y-16416460D01*
X8853515Y-16416460D02*
X8843991Y-16406936D01*
X8843991Y-16406936D02*
X8834467Y-16387888D01*
X8834467Y-16387888D02*
X8824944Y-16349793D01*
X8824944Y-16349793D02*
X8824944Y-16302174D01*
X8824944Y-16302174D02*
X8834467Y-16264079D01*
X8834467Y-16264079D02*
X8843991Y-16245031D01*
X8843991Y-16245031D02*
X8853515Y-16235508D01*
X8853515Y-16235508D02*
X8872563Y-16225984D01*
X9063039Y-16225984D02*
X9082086Y-16225984D01*
X9082086Y-16225984D02*
X9101134Y-16235508D01*
X9101134Y-16235508D02*
X9110658Y-16245031D01*
X9110658Y-16245031D02*
X9120182Y-16264079D01*
X9120182Y-16264079D02*
X9129705Y-16302174D01*
X9129705Y-16302174D02*
X9129705Y-16349793D01*
X9129705Y-16349793D02*
X9120182Y-16387888D01*
X9120182Y-16387888D02*
X9110658Y-16406936D01*
X9110658Y-16406936D02*
X9101134Y-16416460D01*
X9101134Y-16416460D02*
X9082086Y-16425984D01*
X9082086Y-16425984D02*
X9063039Y-16425984D01*
X9063039Y-16425984D02*
X9043991Y-16416460D01*
X9043991Y-16416460D02*
X9034467Y-16406936D01*
X9034467Y-16406936D02*
X9024944Y-16387888D01*
X9024944Y-16387888D02*
X9015420Y-16349793D01*
X9015420Y-16349793D02*
X9015420Y-16302174D01*
X9015420Y-16302174D02*
X9024944Y-16264079D01*
X9024944Y-16264079D02*
X9034467Y-16245031D01*
X9034467Y-16245031D02*
X9043991Y-16235508D01*
X9043991Y-16235508D02*
X9063039Y-16225984D01*
X9215420Y-16425984D02*
X9215420Y-16292650D01*
X9215420Y-16311698D02*
X9224944Y-16302174D01*
X9224944Y-16302174D02*
X9243991Y-16292650D01*
X9243991Y-16292650D02*
X9272563Y-16292650D01*
X9272563Y-16292650D02*
X9291610Y-16302174D01*
X9291610Y-16302174D02*
X9301134Y-16321222D01*
X9301134Y-16321222D02*
X9301134Y-16425984D01*
X9301134Y-16321222D02*
X9310658Y-16302174D01*
X9310658Y-16302174D02*
X9329705Y-16292650D01*
X9329705Y-16292650D02*
X9358277Y-16292650D01*
X9358277Y-16292650D02*
X9377325Y-16302174D01*
X9377325Y-16302174D02*
X9386848Y-16321222D01*
X9386848Y-16321222D02*
X9386848Y-16425984D01*
X9482086Y-16425984D02*
X9482086Y-16292650D01*
X9482086Y-16311698D02*
X9491610Y-16302174D01*
X9491610Y-16302174D02*
X9510658Y-16292650D01*
X9510658Y-16292650D02*
X9539229Y-16292650D01*
X9539229Y-16292650D02*
X9558277Y-16302174D01*
X9558277Y-16302174D02*
X9567801Y-16321222D01*
X9567801Y-16321222D02*
X9567801Y-16425984D01*
X9567801Y-16321222D02*
X9577325Y-16302174D01*
X9577325Y-16302174D02*
X9596372Y-16292650D01*
X9596372Y-16292650D02*
X9624944Y-16292650D01*
X9624944Y-16292650D02*
X9643991Y-16302174D01*
X9643991Y-16302174D02*
X9653515Y-16321222D01*
X9653515Y-16321222D02*
X9653515Y-16425984D01*
X10043991Y-16216460D02*
X9872563Y-16473603D01*
X10301134Y-16225984D02*
X10320182Y-16225984D01*
X10320182Y-16225984D02*
X10339229Y-16235508D01*
X10339229Y-16235508D02*
X10348753Y-16245031D01*
X10348753Y-16245031D02*
X10358277Y-16264079D01*
X10358277Y-16264079D02*
X10367801Y-16302174D01*
X10367801Y-16302174D02*
X10367801Y-16349793D01*
X10367801Y-16349793D02*
X10358277Y-16387888D01*
X10358277Y-16387888D02*
X10348753Y-16406936D01*
X10348753Y-16406936D02*
X10339229Y-16416460D01*
X10339229Y-16416460D02*
X10320182Y-16425984D01*
X10320182Y-16425984D02*
X10301134Y-16425984D01*
X10301134Y-16425984D02*
X10282087Y-16416460D01*
X10282087Y-16416460D02*
X10272563Y-16406936D01*
X10272563Y-16406936D02*
X10263039Y-16387888D01*
X10263039Y-16387888D02*
X10253515Y-16349793D01*
X10253515Y-16349793D02*
X10253515Y-16302174D01*
X10253515Y-16302174D02*
X10263039Y-16264079D01*
X10263039Y-16264079D02*
X10272563Y-16245031D01*
X10272563Y-16245031D02*
X10282087Y-16235508D01*
X10282087Y-16235508D02*
X10301134Y-16225984D01*
X10453515Y-16406936D02*
X10463039Y-16416460D01*
X10463039Y-16416460D02*
X10453515Y-16425984D01*
X10453515Y-16425984D02*
X10443991Y-16416460D01*
X10443991Y-16416460D02*
X10453515Y-16406936D01*
X10453515Y-16406936D02*
X10453515Y-16425984D01*
X10586848Y-16225984D02*
X10605896Y-16225984D01*
X10605896Y-16225984D02*
X10624944Y-16235508D01*
X10624944Y-16235508D02*
X10634468Y-16245031D01*
X10634468Y-16245031D02*
X10643991Y-16264079D01*
X10643991Y-16264079D02*
X10653515Y-16302174D01*
X10653515Y-16302174D02*
X10653515Y-16349793D01*
X10653515Y-16349793D02*
X10643991Y-16387888D01*
X10643991Y-16387888D02*
X10634468Y-16406936D01*
X10634468Y-16406936D02*
X10624944Y-16416460D01*
X10624944Y-16416460D02*
X10605896Y-16425984D01*
X10605896Y-16425984D02*
X10586848Y-16425984D01*
X10586848Y-16425984D02*
X10567801Y-16416460D01*
X10567801Y-16416460D02*
X10558277Y-16406936D01*
X10558277Y-16406936D02*
X10548753Y-16387888D01*
X10548753Y-16387888D02*
X10539229Y-16349793D01*
X10539229Y-16349793D02*
X10539229Y-16302174D01*
X10539229Y-16302174D02*
X10548753Y-16264079D01*
X10548753Y-16264079D02*
X10558277Y-16245031D01*
X10558277Y-16245031D02*
X10567801Y-16235508D01*
X10567801Y-16235508D02*
X10586848Y-16225984D01*
X10720182Y-16225984D02*
X10843991Y-16225984D01*
X10843991Y-16225984D02*
X10777325Y-16302174D01*
X10777325Y-16302174D02*
X10805896Y-16302174D01*
X10805896Y-16302174D02*
X10824944Y-16311698D01*
X10824944Y-16311698D02*
X10834468Y-16321222D01*
X10834468Y-16321222D02*
X10843991Y-16340269D01*
X10843991Y-16340269D02*
X10843991Y-16387888D01*
X10843991Y-16387888D02*
X10834468Y-16406936D01*
X10834468Y-16406936D02*
X10824944Y-16416460D01*
X10824944Y-16416460D02*
X10805896Y-16425984D01*
X10805896Y-16425984D02*
X10748753Y-16425984D01*
X10748753Y-16425984D02*
X10729706Y-16416460D01*
X10729706Y-16416460D02*
X10720182Y-16406936D01*
X10939229Y-16425984D02*
X10977325Y-16425984D01*
X10977325Y-16425984D02*
X10996372Y-16416460D01*
X10996372Y-16416460D02*
X11005896Y-16406936D01*
X11005896Y-16406936D02*
X11024944Y-16378365D01*
X11024944Y-16378365D02*
X11034468Y-16340269D01*
X11034468Y-16340269D02*
X11034468Y-16264079D01*
X11034468Y-16264079D02*
X11024944Y-16245031D01*
X11024944Y-16245031D02*
X11015420Y-16235508D01*
X11015420Y-16235508D02*
X10996372Y-16225984D01*
X10996372Y-16225984D02*
X10958277Y-16225984D01*
X10958277Y-16225984D02*
X10939229Y-16235508D01*
X10939229Y-16235508D02*
X10929706Y-16245031D01*
X10929706Y-16245031D02*
X10920182Y-16264079D01*
X10920182Y-16264079D02*
X10920182Y-16311698D01*
X10920182Y-16311698D02*
X10929706Y-16330746D01*
X10929706Y-16330746D02*
X10939229Y-16340269D01*
X10939229Y-16340269D02*
X10958277Y-16349793D01*
X10958277Y-16349793D02*
X10996372Y-16349793D01*
X10996372Y-16349793D02*
X11015420Y-16340269D01*
X11015420Y-16340269D02*
X11024944Y-16330746D01*
X11024944Y-16330746D02*
X11034468Y-16311698D01*
X11205896Y-16292650D02*
X11205896Y-16425984D01*
X11158277Y-16216460D02*
X11110658Y-16359317D01*
X11110658Y-16359317D02*
X11234467Y-16359317D01*
X11301134Y-16225984D02*
X11301134Y-16264079D01*
X11377325Y-16225984D02*
X11377325Y-16264079D01*
X11672563Y-16502174D02*
X11663039Y-16492650D01*
X11663039Y-16492650D02*
X11643991Y-16464079D01*
X11643991Y-16464079D02*
X11634468Y-16445031D01*
X11634468Y-16445031D02*
X11624944Y-16416460D01*
X11624944Y-16416460D02*
X11615420Y-16368841D01*
X11615420Y-16368841D02*
X11615420Y-16330746D01*
X11615420Y-16330746D02*
X11624944Y-16283127D01*
X11624944Y-16283127D02*
X11634468Y-16254555D01*
X11634468Y-16254555D02*
X11643991Y-16235508D01*
X11643991Y-16235508D02*
X11663039Y-16206936D01*
X11663039Y-16206936D02*
X11672563Y-16197412D01*
X11834468Y-16292650D02*
X11834468Y-16425984D01*
X11786848Y-16216460D02*
X11739229Y-16359317D01*
X11739229Y-16359317D02*
X11863039Y-16359317D01*
X11948753Y-16425984D02*
X11986848Y-16425984D01*
X11986848Y-16425984D02*
X12005896Y-16416460D01*
X12005896Y-16416460D02*
X12015420Y-16406936D01*
X12015420Y-16406936D02*
X12034468Y-16378365D01*
X12034468Y-16378365D02*
X12043991Y-16340269D01*
X12043991Y-16340269D02*
X12043991Y-16264079D01*
X12043991Y-16264079D02*
X12034468Y-16245031D01*
X12034468Y-16245031D02*
X12024944Y-16235508D01*
X12024944Y-16235508D02*
X12005896Y-16225984D01*
X12005896Y-16225984D02*
X11967801Y-16225984D01*
X11967801Y-16225984D02*
X11948753Y-16235508D01*
X11948753Y-16235508D02*
X11939229Y-16245031D01*
X11939229Y-16245031D02*
X11929706Y-16264079D01*
X11929706Y-16264079D02*
X11929706Y-16311698D01*
X11929706Y-16311698D02*
X11939229Y-16330746D01*
X11939229Y-16330746D02*
X11948753Y-16340269D01*
X11948753Y-16340269D02*
X11967801Y-16349793D01*
X11967801Y-16349793D02*
X12005896Y-16349793D01*
X12005896Y-16349793D02*
X12024944Y-16340269D01*
X12024944Y-16340269D02*
X12034468Y-16330746D01*
X12034468Y-16330746D02*
X12043991Y-16311698D01*
X12282087Y-16425984D02*
X12282087Y-16225984D01*
X12367801Y-16425984D02*
X12367801Y-16321222D01*
X12367801Y-16321222D02*
X12358277Y-16302174D01*
X12358277Y-16302174D02*
X12339230Y-16292650D01*
X12339230Y-16292650D02*
X12310658Y-16292650D01*
X12310658Y-16292650D02*
X12291610Y-16302174D01*
X12291610Y-16302174D02*
X12282087Y-16311698D01*
X12491610Y-16425984D02*
X12472563Y-16416460D01*
X12472563Y-16416460D02*
X12463039Y-16406936D01*
X12463039Y-16406936D02*
X12453515Y-16387888D01*
X12453515Y-16387888D02*
X12453515Y-16330746D01*
X12453515Y-16330746D02*
X12463039Y-16311698D01*
X12463039Y-16311698D02*
X12472563Y-16302174D01*
X12472563Y-16302174D02*
X12491610Y-16292650D01*
X12491610Y-16292650D02*
X12520182Y-16292650D01*
X12520182Y-16292650D02*
X12539230Y-16302174D01*
X12539230Y-16302174D02*
X12548753Y-16311698D01*
X12548753Y-16311698D02*
X12558277Y-16330746D01*
X12558277Y-16330746D02*
X12558277Y-16387888D01*
X12558277Y-16387888D02*
X12548753Y-16406936D01*
X12548753Y-16406936D02*
X12539230Y-16416460D01*
X12539230Y-16416460D02*
X12520182Y-16425984D01*
X12520182Y-16425984D02*
X12491610Y-16425984D01*
X12672563Y-16425984D02*
X12653515Y-16416460D01*
X12653515Y-16416460D02*
X12643991Y-16397412D01*
X12643991Y-16397412D02*
X12643991Y-16225984D01*
X12824944Y-16416460D02*
X12805896Y-16425984D01*
X12805896Y-16425984D02*
X12767801Y-16425984D01*
X12767801Y-16425984D02*
X12748753Y-16416460D01*
X12748753Y-16416460D02*
X12739230Y-16397412D01*
X12739230Y-16397412D02*
X12739230Y-16321222D01*
X12739230Y-16321222D02*
X12748753Y-16302174D01*
X12748753Y-16302174D02*
X12767801Y-16292650D01*
X12767801Y-16292650D02*
X12805896Y-16292650D01*
X12805896Y-16292650D02*
X12824944Y-16302174D01*
X12824944Y-16302174D02*
X12834468Y-16321222D01*
X12834468Y-16321222D02*
X12834468Y-16340269D01*
X12834468Y-16340269D02*
X12739230Y-16359317D01*
X12910658Y-16416460D02*
X12929706Y-16425984D01*
X12929706Y-16425984D02*
X12967801Y-16425984D01*
X12967801Y-16425984D02*
X12986849Y-16416460D01*
X12986849Y-16416460D02*
X12996372Y-16397412D01*
X12996372Y-16397412D02*
X12996372Y-16387888D01*
X12996372Y-16387888D02*
X12986849Y-16368841D01*
X12986849Y-16368841D02*
X12967801Y-16359317D01*
X12967801Y-16359317D02*
X12939230Y-16359317D01*
X12939230Y-16359317D02*
X12920182Y-16349793D01*
X12920182Y-16349793D02*
X12910658Y-16330746D01*
X12910658Y-16330746D02*
X12910658Y-16321222D01*
X12910658Y-16321222D02*
X12920182Y-16302174D01*
X12920182Y-16302174D02*
X12939230Y-16292650D01*
X12939230Y-16292650D02*
X12967801Y-16292650D01*
X12967801Y-16292650D02*
X12986849Y-16302174D01*
X13063039Y-16502174D02*
X13072563Y-16492650D01*
X13072563Y-16492650D02*
X13091611Y-16464079D01*
X13091611Y-16464079D02*
X13101134Y-16445031D01*
X13101134Y-16445031D02*
X13110658Y-16416460D01*
X13110658Y-16416460D02*
X13120182Y-16368841D01*
X13120182Y-16368841D02*
X13120182Y-16330746D01*
X13120182Y-16330746D02*
X13110658Y-16283127D01*
X13110658Y-16283127D02*
X13101134Y-16254555D01*
X13101134Y-16254555D02*
X13091611Y-16235508D01*
X13091611Y-16235508D02*
X13072563Y-16206936D01*
X13072563Y-16206936D02*
X13063039Y-16197412D01*
D13*
X8045000Y-16651000D02*
X8097500Y-16598500D01*
X8045000Y-16546000D01*
X7992500Y-16598500D01*
X8045000Y-16651000D01*
D11*
X8463039Y-16689984D02*
X8348753Y-16689984D01*
X8405896Y-16689984D02*
X8405896Y-16489984D01*
X8405896Y-16489984D02*
X8386848Y-16518555D01*
X8386848Y-16518555D02*
X8367801Y-16537603D01*
X8367801Y-16537603D02*
X8348753Y-16547127D01*
X8548753Y-16670936D02*
X8558277Y-16680460D01*
X8558277Y-16680460D02*
X8548753Y-16689984D01*
X8548753Y-16689984D02*
X8539229Y-16680460D01*
X8539229Y-16680460D02*
X8548753Y-16670936D01*
X8548753Y-16670936D02*
X8548753Y-16689984D01*
X8682086Y-16489984D02*
X8701134Y-16489984D01*
X8701134Y-16489984D02*
X8720182Y-16499508D01*
X8720182Y-16499508D02*
X8729705Y-16509031D01*
X8729705Y-16509031D02*
X8739229Y-16528079D01*
X8739229Y-16528079D02*
X8748753Y-16566174D01*
X8748753Y-16566174D02*
X8748753Y-16613793D01*
X8748753Y-16613793D02*
X8739229Y-16651888D01*
X8739229Y-16651888D02*
X8729705Y-16670936D01*
X8729705Y-16670936D02*
X8720182Y-16680460D01*
X8720182Y-16680460D02*
X8701134Y-16689984D01*
X8701134Y-16689984D02*
X8682086Y-16689984D01*
X8682086Y-16689984D02*
X8663039Y-16680460D01*
X8663039Y-16680460D02*
X8653515Y-16670936D01*
X8653515Y-16670936D02*
X8643991Y-16651888D01*
X8643991Y-16651888D02*
X8634467Y-16613793D01*
X8634467Y-16613793D02*
X8634467Y-16566174D01*
X8634467Y-16566174D02*
X8643991Y-16528079D01*
X8643991Y-16528079D02*
X8653515Y-16509031D01*
X8653515Y-16509031D02*
X8663039Y-16499508D01*
X8663039Y-16499508D02*
X8682086Y-16489984D01*
X8929705Y-16489984D02*
X8834467Y-16489984D01*
X8834467Y-16489984D02*
X8824944Y-16585222D01*
X8824944Y-16585222D02*
X8834467Y-16575698D01*
X8834467Y-16575698D02*
X8853515Y-16566174D01*
X8853515Y-16566174D02*
X8901134Y-16566174D01*
X8901134Y-16566174D02*
X8920182Y-16575698D01*
X8920182Y-16575698D02*
X8929705Y-16585222D01*
X8929705Y-16585222D02*
X8939229Y-16604269D01*
X8939229Y-16604269D02*
X8939229Y-16651888D01*
X8939229Y-16651888D02*
X8929705Y-16670936D01*
X8929705Y-16670936D02*
X8920182Y-16680460D01*
X8920182Y-16680460D02*
X8901134Y-16689984D01*
X8901134Y-16689984D02*
X8853515Y-16689984D01*
X8853515Y-16689984D02*
X8834467Y-16680460D01*
X8834467Y-16680460D02*
X8824944Y-16670936D01*
X9063039Y-16489984D02*
X9082086Y-16489984D01*
X9082086Y-16489984D02*
X9101134Y-16499508D01*
X9101134Y-16499508D02*
X9110658Y-16509031D01*
X9110658Y-16509031D02*
X9120182Y-16528079D01*
X9120182Y-16528079D02*
X9129705Y-16566174D01*
X9129705Y-16566174D02*
X9129705Y-16613793D01*
X9129705Y-16613793D02*
X9120182Y-16651888D01*
X9120182Y-16651888D02*
X9110658Y-16670936D01*
X9110658Y-16670936D02*
X9101134Y-16680460D01*
X9101134Y-16680460D02*
X9082086Y-16689984D01*
X9082086Y-16689984D02*
X9063039Y-16689984D01*
X9063039Y-16689984D02*
X9043991Y-16680460D01*
X9043991Y-16680460D02*
X9034467Y-16670936D01*
X9034467Y-16670936D02*
X9024944Y-16651888D01*
X9024944Y-16651888D02*
X9015420Y-16613793D01*
X9015420Y-16613793D02*
X9015420Y-16566174D01*
X9015420Y-16566174D02*
X9024944Y-16528079D01*
X9024944Y-16528079D02*
X9034467Y-16509031D01*
X9034467Y-16509031D02*
X9043991Y-16499508D01*
X9043991Y-16499508D02*
X9063039Y-16489984D01*
X9215420Y-16689984D02*
X9215420Y-16556650D01*
X9215420Y-16575698D02*
X9224944Y-16566174D01*
X9224944Y-16566174D02*
X9243991Y-16556650D01*
X9243991Y-16556650D02*
X9272563Y-16556650D01*
X9272563Y-16556650D02*
X9291610Y-16566174D01*
X9291610Y-16566174D02*
X9301134Y-16585222D01*
X9301134Y-16585222D02*
X9301134Y-16689984D01*
X9301134Y-16585222D02*
X9310658Y-16566174D01*
X9310658Y-16566174D02*
X9329705Y-16556650D01*
X9329705Y-16556650D02*
X9358277Y-16556650D01*
X9358277Y-16556650D02*
X9377325Y-16566174D01*
X9377325Y-16566174D02*
X9386848Y-16585222D01*
X9386848Y-16585222D02*
X9386848Y-16689984D01*
X9482086Y-16689984D02*
X9482086Y-16556650D01*
X9482086Y-16575698D02*
X9491610Y-16566174D01*
X9491610Y-16566174D02*
X9510658Y-16556650D01*
X9510658Y-16556650D02*
X9539229Y-16556650D01*
X9539229Y-16556650D02*
X9558277Y-16566174D01*
X9558277Y-16566174D02*
X9567801Y-16585222D01*
X9567801Y-16585222D02*
X9567801Y-16689984D01*
X9567801Y-16585222D02*
X9577325Y-16566174D01*
X9577325Y-16566174D02*
X9596372Y-16556650D01*
X9596372Y-16556650D02*
X9624944Y-16556650D01*
X9624944Y-16556650D02*
X9643991Y-16566174D01*
X9643991Y-16566174D02*
X9653515Y-16585222D01*
X9653515Y-16585222D02*
X9653515Y-16689984D01*
X10043991Y-16480460D02*
X9872563Y-16737603D01*
X10301134Y-16489984D02*
X10320182Y-16489984D01*
X10320182Y-16489984D02*
X10339229Y-16499508D01*
X10339229Y-16499508D02*
X10348753Y-16509031D01*
X10348753Y-16509031D02*
X10358277Y-16528079D01*
X10358277Y-16528079D02*
X10367801Y-16566174D01*
X10367801Y-16566174D02*
X10367801Y-16613793D01*
X10367801Y-16613793D02*
X10358277Y-16651888D01*
X10358277Y-16651888D02*
X10348753Y-16670936D01*
X10348753Y-16670936D02*
X10339229Y-16680460D01*
X10339229Y-16680460D02*
X10320182Y-16689984D01*
X10320182Y-16689984D02*
X10301134Y-16689984D01*
X10301134Y-16689984D02*
X10282087Y-16680460D01*
X10282087Y-16680460D02*
X10272563Y-16670936D01*
X10272563Y-16670936D02*
X10263039Y-16651888D01*
X10263039Y-16651888D02*
X10253515Y-16613793D01*
X10253515Y-16613793D02*
X10253515Y-16566174D01*
X10253515Y-16566174D02*
X10263039Y-16528079D01*
X10263039Y-16528079D02*
X10272563Y-16509031D01*
X10272563Y-16509031D02*
X10282087Y-16499508D01*
X10282087Y-16499508D02*
X10301134Y-16489984D01*
X10453515Y-16670936D02*
X10463039Y-16680460D01*
X10463039Y-16680460D02*
X10453515Y-16689984D01*
X10453515Y-16689984D02*
X10443991Y-16680460D01*
X10443991Y-16680460D02*
X10453515Y-16670936D01*
X10453515Y-16670936D02*
X10453515Y-16689984D01*
X10586848Y-16489984D02*
X10605896Y-16489984D01*
X10605896Y-16489984D02*
X10624944Y-16499508D01*
X10624944Y-16499508D02*
X10634468Y-16509031D01*
X10634468Y-16509031D02*
X10643991Y-16528079D01*
X10643991Y-16528079D02*
X10653515Y-16566174D01*
X10653515Y-16566174D02*
X10653515Y-16613793D01*
X10653515Y-16613793D02*
X10643991Y-16651888D01*
X10643991Y-16651888D02*
X10634468Y-16670936D01*
X10634468Y-16670936D02*
X10624944Y-16680460D01*
X10624944Y-16680460D02*
X10605896Y-16689984D01*
X10605896Y-16689984D02*
X10586848Y-16689984D01*
X10586848Y-16689984D02*
X10567801Y-16680460D01*
X10567801Y-16680460D02*
X10558277Y-16670936D01*
X10558277Y-16670936D02*
X10548753Y-16651888D01*
X10548753Y-16651888D02*
X10539229Y-16613793D01*
X10539229Y-16613793D02*
X10539229Y-16566174D01*
X10539229Y-16566174D02*
X10548753Y-16528079D01*
X10548753Y-16528079D02*
X10558277Y-16509031D01*
X10558277Y-16509031D02*
X10567801Y-16499508D01*
X10567801Y-16499508D02*
X10586848Y-16489984D01*
X10824944Y-16556650D02*
X10824944Y-16689984D01*
X10777325Y-16480460D02*
X10729706Y-16623317D01*
X10729706Y-16623317D02*
X10853515Y-16623317D01*
X11034468Y-16689984D02*
X10920182Y-16689984D01*
X10977325Y-16689984D02*
X10977325Y-16489984D01*
X10977325Y-16489984D02*
X10958277Y-16518555D01*
X10958277Y-16518555D02*
X10939229Y-16537603D01*
X10939229Y-16537603D02*
X10920182Y-16547127D01*
X11101134Y-16489984D02*
X11224944Y-16489984D01*
X11224944Y-16489984D02*
X11158277Y-16566174D01*
X11158277Y-16566174D02*
X11186848Y-16566174D01*
X11186848Y-16566174D02*
X11205896Y-16575698D01*
X11205896Y-16575698D02*
X11215420Y-16585222D01*
X11215420Y-16585222D02*
X11224944Y-16604269D01*
X11224944Y-16604269D02*
X11224944Y-16651888D01*
X11224944Y-16651888D02*
X11215420Y-16670936D01*
X11215420Y-16670936D02*
X11205896Y-16680460D01*
X11205896Y-16680460D02*
X11186848Y-16689984D01*
X11186848Y-16689984D02*
X11129706Y-16689984D01*
X11129706Y-16689984D02*
X11110658Y-16680460D01*
X11110658Y-16680460D02*
X11101134Y-16670936D01*
X11301134Y-16489984D02*
X11301134Y-16528079D01*
X11377325Y-16489984D02*
X11377325Y-16528079D01*
X11672563Y-16766174D02*
X11663039Y-16756650D01*
X11663039Y-16756650D02*
X11643991Y-16728079D01*
X11643991Y-16728079D02*
X11634468Y-16709031D01*
X11634468Y-16709031D02*
X11624944Y-16680460D01*
X11624944Y-16680460D02*
X11615420Y-16632841D01*
X11615420Y-16632841D02*
X11615420Y-16594746D01*
X11615420Y-16594746D02*
X11624944Y-16547127D01*
X11624944Y-16547127D02*
X11634468Y-16518555D01*
X11634468Y-16518555D02*
X11643991Y-16499508D01*
X11643991Y-16499508D02*
X11663039Y-16470936D01*
X11663039Y-16470936D02*
X11672563Y-16461412D01*
X11853515Y-16689984D02*
X11739229Y-16689984D01*
X11796372Y-16689984D02*
X11796372Y-16489984D01*
X11796372Y-16489984D02*
X11777325Y-16518555D01*
X11777325Y-16518555D02*
X11758277Y-16537603D01*
X11758277Y-16537603D02*
X11739229Y-16547127D01*
X11929706Y-16509031D02*
X11939229Y-16499508D01*
X11939229Y-16499508D02*
X11958277Y-16489984D01*
X11958277Y-16489984D02*
X12005896Y-16489984D01*
X12005896Y-16489984D02*
X12024944Y-16499508D01*
X12024944Y-16499508D02*
X12034468Y-16509031D01*
X12034468Y-16509031D02*
X12043991Y-16528079D01*
X12043991Y-16528079D02*
X12043991Y-16547127D01*
X12043991Y-16547127D02*
X12034468Y-16575698D01*
X12034468Y-16575698D02*
X11920182Y-16689984D01*
X11920182Y-16689984D02*
X12043991Y-16689984D01*
X12282087Y-16689984D02*
X12282087Y-16489984D01*
X12367801Y-16689984D02*
X12367801Y-16585222D01*
X12367801Y-16585222D02*
X12358277Y-16566174D01*
X12358277Y-16566174D02*
X12339230Y-16556650D01*
X12339230Y-16556650D02*
X12310658Y-16556650D01*
X12310658Y-16556650D02*
X12291610Y-16566174D01*
X12291610Y-16566174D02*
X12282087Y-16575698D01*
X12491610Y-16689984D02*
X12472563Y-16680460D01*
X12472563Y-16680460D02*
X12463039Y-16670936D01*
X12463039Y-16670936D02*
X12453515Y-16651888D01*
X12453515Y-16651888D02*
X12453515Y-16594746D01*
X12453515Y-16594746D02*
X12463039Y-16575698D01*
X12463039Y-16575698D02*
X12472563Y-16566174D01*
X12472563Y-16566174D02*
X12491610Y-16556650D01*
X12491610Y-16556650D02*
X12520182Y-16556650D01*
X12520182Y-16556650D02*
X12539230Y-16566174D01*
X12539230Y-16566174D02*
X12548753Y-16575698D01*
X12548753Y-16575698D02*
X12558277Y-16594746D01*
X12558277Y-16594746D02*
X12558277Y-16651888D01*
X12558277Y-16651888D02*
X12548753Y-16670936D01*
X12548753Y-16670936D02*
X12539230Y-16680460D01*
X12539230Y-16680460D02*
X12520182Y-16689984D01*
X12520182Y-16689984D02*
X12491610Y-16689984D01*
X12672563Y-16689984D02*
X12653515Y-16680460D01*
X12653515Y-16680460D02*
X12643991Y-16661412D01*
X12643991Y-16661412D02*
X12643991Y-16489984D01*
X12824944Y-16680460D02*
X12805896Y-16689984D01*
X12805896Y-16689984D02*
X12767801Y-16689984D01*
X12767801Y-16689984D02*
X12748753Y-16680460D01*
X12748753Y-16680460D02*
X12739230Y-16661412D01*
X12739230Y-16661412D02*
X12739230Y-16585222D01*
X12739230Y-16585222D02*
X12748753Y-16566174D01*
X12748753Y-16566174D02*
X12767801Y-16556650D01*
X12767801Y-16556650D02*
X12805896Y-16556650D01*
X12805896Y-16556650D02*
X12824944Y-16566174D01*
X12824944Y-16566174D02*
X12834468Y-16585222D01*
X12834468Y-16585222D02*
X12834468Y-16604269D01*
X12834468Y-16604269D02*
X12739230Y-16623317D01*
X12910658Y-16680460D02*
X12929706Y-16689984D01*
X12929706Y-16689984D02*
X12967801Y-16689984D01*
X12967801Y-16689984D02*
X12986849Y-16680460D01*
X12986849Y-16680460D02*
X12996372Y-16661412D01*
X12996372Y-16661412D02*
X12996372Y-16651888D01*
X12996372Y-16651888D02*
X12986849Y-16632841D01*
X12986849Y-16632841D02*
X12967801Y-16623317D01*
X12967801Y-16623317D02*
X12939230Y-16623317D01*
X12939230Y-16623317D02*
X12920182Y-16613793D01*
X12920182Y-16613793D02*
X12910658Y-16594746D01*
X12910658Y-16594746D02*
X12910658Y-16585222D01*
X12910658Y-16585222D02*
X12920182Y-16566174D01*
X12920182Y-16566174D02*
X12939230Y-16556650D01*
X12939230Y-16556650D02*
X12967801Y-16556650D01*
X12967801Y-16556650D02*
X12986849Y-16566174D01*
X13063039Y-16766174D02*
X13072563Y-16756650D01*
X13072563Y-16756650D02*
X13091611Y-16728079D01*
X13091611Y-16728079D02*
X13101134Y-16709031D01*
X13101134Y-16709031D02*
X13110658Y-16680460D01*
X13110658Y-16680460D02*
X13120182Y-16632841D01*
X13120182Y-16632841D02*
X13120182Y-16594746D01*
X13120182Y-16594746D02*
X13110658Y-16547127D01*
X13110658Y-16547127D02*
X13101134Y-16518555D01*
X13101134Y-16518555D02*
X13091611Y-16499508D01*
X13091611Y-16499508D02*
X13072563Y-16470936D01*
X13072563Y-16470936D02*
X13063039Y-16461412D01*
D14*
X7947500Y-16787500D02*
X8097500Y-16937500D01*
X8097500Y-16787500D02*
X7947500Y-16937500D01*
X8097500Y-16862500D02*
G75*
G02*
X7947500Y-16862500I-75000J0D01*
G01*
X7947500Y-16862500D02*
G75*
G02*
X8097500Y-16862500I75000J0D01*
G01*
D11*
X8463039Y-16953984D02*
X8348753Y-16953984D01*
X8405896Y-16953984D02*
X8405896Y-16753984D01*
X8405896Y-16753984D02*
X8386848Y-16782555D01*
X8386848Y-16782555D02*
X8367801Y-16801603D01*
X8367801Y-16801603D02*
X8348753Y-16811127D01*
X8548753Y-16934936D02*
X8558277Y-16944460D01*
X8558277Y-16944460D02*
X8548753Y-16953984D01*
X8548753Y-16953984D02*
X8539229Y-16944460D01*
X8539229Y-16944460D02*
X8548753Y-16934936D01*
X8548753Y-16934936D02*
X8548753Y-16953984D01*
X8739229Y-16753984D02*
X8643991Y-16753984D01*
X8643991Y-16753984D02*
X8634467Y-16849222D01*
X8634467Y-16849222D02*
X8643991Y-16839698D01*
X8643991Y-16839698D02*
X8663039Y-16830174D01*
X8663039Y-16830174D02*
X8710658Y-16830174D01*
X8710658Y-16830174D02*
X8729705Y-16839698D01*
X8729705Y-16839698D02*
X8739229Y-16849222D01*
X8739229Y-16849222D02*
X8748753Y-16868270D01*
X8748753Y-16868270D02*
X8748753Y-16915889D01*
X8748753Y-16915889D02*
X8739229Y-16934936D01*
X8739229Y-16934936D02*
X8729705Y-16944460D01*
X8729705Y-16944460D02*
X8710658Y-16953984D01*
X8710658Y-16953984D02*
X8663039Y-16953984D01*
X8663039Y-16953984D02*
X8643991Y-16944460D01*
X8643991Y-16944460D02*
X8634467Y-16934936D01*
X8872563Y-16753984D02*
X8891610Y-16753984D01*
X8891610Y-16753984D02*
X8910658Y-16763508D01*
X8910658Y-16763508D02*
X8920182Y-16773031D01*
X8920182Y-16773031D02*
X8929705Y-16792079D01*
X8929705Y-16792079D02*
X8939229Y-16830174D01*
X8939229Y-16830174D02*
X8939229Y-16877793D01*
X8939229Y-16877793D02*
X8929705Y-16915889D01*
X8929705Y-16915889D02*
X8920182Y-16934936D01*
X8920182Y-16934936D02*
X8910658Y-16944460D01*
X8910658Y-16944460D02*
X8891610Y-16953984D01*
X8891610Y-16953984D02*
X8872563Y-16953984D01*
X8872563Y-16953984D02*
X8853515Y-16944460D01*
X8853515Y-16944460D02*
X8843991Y-16934936D01*
X8843991Y-16934936D02*
X8834467Y-16915889D01*
X8834467Y-16915889D02*
X8824944Y-16877793D01*
X8824944Y-16877793D02*
X8824944Y-16830174D01*
X8824944Y-16830174D02*
X8834467Y-16792079D01*
X8834467Y-16792079D02*
X8843991Y-16773031D01*
X8843991Y-16773031D02*
X8853515Y-16763508D01*
X8853515Y-16763508D02*
X8872563Y-16753984D01*
X9063039Y-16753984D02*
X9082086Y-16753984D01*
X9082086Y-16753984D02*
X9101134Y-16763508D01*
X9101134Y-16763508D02*
X9110658Y-16773031D01*
X9110658Y-16773031D02*
X9120182Y-16792079D01*
X9120182Y-16792079D02*
X9129705Y-16830174D01*
X9129705Y-16830174D02*
X9129705Y-16877793D01*
X9129705Y-16877793D02*
X9120182Y-16915889D01*
X9120182Y-16915889D02*
X9110658Y-16934936D01*
X9110658Y-16934936D02*
X9101134Y-16944460D01*
X9101134Y-16944460D02*
X9082086Y-16953984D01*
X9082086Y-16953984D02*
X9063039Y-16953984D01*
X9063039Y-16953984D02*
X9043991Y-16944460D01*
X9043991Y-16944460D02*
X9034467Y-16934936D01*
X9034467Y-16934936D02*
X9024944Y-16915889D01*
X9024944Y-16915889D02*
X9015420Y-16877793D01*
X9015420Y-16877793D02*
X9015420Y-16830174D01*
X9015420Y-16830174D02*
X9024944Y-16792079D01*
X9024944Y-16792079D02*
X9034467Y-16773031D01*
X9034467Y-16773031D02*
X9043991Y-16763508D01*
X9043991Y-16763508D02*
X9063039Y-16753984D01*
X9215420Y-16953984D02*
X9215420Y-16820650D01*
X9215420Y-16839698D02*
X9224944Y-16830174D01*
X9224944Y-16830174D02*
X9243991Y-16820650D01*
X9243991Y-16820650D02*
X9272563Y-16820650D01*
X9272563Y-16820650D02*
X9291610Y-16830174D01*
X9291610Y-16830174D02*
X9301134Y-16849222D01*
X9301134Y-16849222D02*
X9301134Y-16953984D01*
X9301134Y-16849222D02*
X9310658Y-16830174D01*
X9310658Y-16830174D02*
X9329705Y-16820650D01*
X9329705Y-16820650D02*
X9358277Y-16820650D01*
X9358277Y-16820650D02*
X9377325Y-16830174D01*
X9377325Y-16830174D02*
X9386848Y-16849222D01*
X9386848Y-16849222D02*
X9386848Y-16953984D01*
X9482086Y-16953984D02*
X9482086Y-16820650D01*
X9482086Y-16839698D02*
X9491610Y-16830174D01*
X9491610Y-16830174D02*
X9510658Y-16820650D01*
X9510658Y-16820650D02*
X9539229Y-16820650D01*
X9539229Y-16820650D02*
X9558277Y-16830174D01*
X9558277Y-16830174D02*
X9567801Y-16849222D01*
X9567801Y-16849222D02*
X9567801Y-16953984D01*
X9567801Y-16849222D02*
X9577325Y-16830174D01*
X9577325Y-16830174D02*
X9596372Y-16820650D01*
X9596372Y-16820650D02*
X9624944Y-16820650D01*
X9624944Y-16820650D02*
X9643991Y-16830174D01*
X9643991Y-16830174D02*
X9653515Y-16849222D01*
X9653515Y-16849222D02*
X9653515Y-16953984D01*
X10043991Y-16744460D02*
X9872563Y-17001603D01*
X10301134Y-16753984D02*
X10320182Y-16753984D01*
X10320182Y-16753984D02*
X10339229Y-16763508D01*
X10339229Y-16763508D02*
X10348753Y-16773031D01*
X10348753Y-16773031D02*
X10358277Y-16792079D01*
X10358277Y-16792079D02*
X10367801Y-16830174D01*
X10367801Y-16830174D02*
X10367801Y-16877793D01*
X10367801Y-16877793D02*
X10358277Y-16915889D01*
X10358277Y-16915889D02*
X10348753Y-16934936D01*
X10348753Y-16934936D02*
X10339229Y-16944460D01*
X10339229Y-16944460D02*
X10320182Y-16953984D01*
X10320182Y-16953984D02*
X10301134Y-16953984D01*
X10301134Y-16953984D02*
X10282087Y-16944460D01*
X10282087Y-16944460D02*
X10272563Y-16934936D01*
X10272563Y-16934936D02*
X10263039Y-16915889D01*
X10263039Y-16915889D02*
X10253515Y-16877793D01*
X10253515Y-16877793D02*
X10253515Y-16830174D01*
X10253515Y-16830174D02*
X10263039Y-16792079D01*
X10263039Y-16792079D02*
X10272563Y-16773031D01*
X10272563Y-16773031D02*
X10282087Y-16763508D01*
X10282087Y-16763508D02*
X10301134Y-16753984D01*
X10453515Y-16934936D02*
X10463039Y-16944460D01*
X10463039Y-16944460D02*
X10453515Y-16953984D01*
X10453515Y-16953984D02*
X10443991Y-16944460D01*
X10443991Y-16944460D02*
X10453515Y-16934936D01*
X10453515Y-16934936D02*
X10453515Y-16953984D01*
X10586848Y-16753984D02*
X10605896Y-16753984D01*
X10605896Y-16753984D02*
X10624944Y-16763508D01*
X10624944Y-16763508D02*
X10634468Y-16773031D01*
X10634468Y-16773031D02*
X10643991Y-16792079D01*
X10643991Y-16792079D02*
X10653515Y-16830174D01*
X10653515Y-16830174D02*
X10653515Y-16877793D01*
X10653515Y-16877793D02*
X10643991Y-16915889D01*
X10643991Y-16915889D02*
X10634468Y-16934936D01*
X10634468Y-16934936D02*
X10624944Y-16944460D01*
X10624944Y-16944460D02*
X10605896Y-16953984D01*
X10605896Y-16953984D02*
X10586848Y-16953984D01*
X10586848Y-16953984D02*
X10567801Y-16944460D01*
X10567801Y-16944460D02*
X10558277Y-16934936D01*
X10558277Y-16934936D02*
X10548753Y-16915889D01*
X10548753Y-16915889D02*
X10539229Y-16877793D01*
X10539229Y-16877793D02*
X10539229Y-16830174D01*
X10539229Y-16830174D02*
X10548753Y-16792079D01*
X10548753Y-16792079D02*
X10558277Y-16773031D01*
X10558277Y-16773031D02*
X10567801Y-16763508D01*
X10567801Y-16763508D02*
X10586848Y-16753984D01*
X10834468Y-16753984D02*
X10739229Y-16753984D01*
X10739229Y-16753984D02*
X10729706Y-16849222D01*
X10729706Y-16849222D02*
X10739229Y-16839698D01*
X10739229Y-16839698D02*
X10758277Y-16830174D01*
X10758277Y-16830174D02*
X10805896Y-16830174D01*
X10805896Y-16830174D02*
X10824944Y-16839698D01*
X10824944Y-16839698D02*
X10834468Y-16849222D01*
X10834468Y-16849222D02*
X10843991Y-16868270D01*
X10843991Y-16868270D02*
X10843991Y-16915889D01*
X10843991Y-16915889D02*
X10834468Y-16934936D01*
X10834468Y-16934936D02*
X10824944Y-16944460D01*
X10824944Y-16944460D02*
X10805896Y-16953984D01*
X10805896Y-16953984D02*
X10758277Y-16953984D01*
X10758277Y-16953984D02*
X10739229Y-16944460D01*
X10739229Y-16944460D02*
X10729706Y-16934936D01*
X10939229Y-16953984D02*
X10977325Y-16953984D01*
X10977325Y-16953984D02*
X10996372Y-16944460D01*
X10996372Y-16944460D02*
X11005896Y-16934936D01*
X11005896Y-16934936D02*
X11024944Y-16906365D01*
X11024944Y-16906365D02*
X11034468Y-16868270D01*
X11034468Y-16868270D02*
X11034468Y-16792079D01*
X11034468Y-16792079D02*
X11024944Y-16773031D01*
X11024944Y-16773031D02*
X11015420Y-16763508D01*
X11015420Y-16763508D02*
X10996372Y-16753984D01*
X10996372Y-16753984D02*
X10958277Y-16753984D01*
X10958277Y-16753984D02*
X10939229Y-16763508D01*
X10939229Y-16763508D02*
X10929706Y-16773031D01*
X10929706Y-16773031D02*
X10920182Y-16792079D01*
X10920182Y-16792079D02*
X10920182Y-16839698D01*
X10920182Y-16839698D02*
X10929706Y-16858746D01*
X10929706Y-16858746D02*
X10939229Y-16868270D01*
X10939229Y-16868270D02*
X10958277Y-16877793D01*
X10958277Y-16877793D02*
X10996372Y-16877793D01*
X10996372Y-16877793D02*
X11015420Y-16868270D01*
X11015420Y-16868270D02*
X11024944Y-16858746D01*
X11024944Y-16858746D02*
X11034468Y-16839698D01*
X11224944Y-16953984D02*
X11110658Y-16953984D01*
X11167801Y-16953984D02*
X11167801Y-16753984D01*
X11167801Y-16753984D02*
X11148753Y-16782555D01*
X11148753Y-16782555D02*
X11129706Y-16801603D01*
X11129706Y-16801603D02*
X11110658Y-16811127D01*
X11301134Y-16753984D02*
X11301134Y-16792079D01*
X11377325Y-16753984D02*
X11377325Y-16792079D01*
X11672563Y-17030174D02*
X11663039Y-17020650D01*
X11663039Y-17020650D02*
X11643991Y-16992079D01*
X11643991Y-16992079D02*
X11634468Y-16973031D01*
X11634468Y-16973031D02*
X11624944Y-16944460D01*
X11624944Y-16944460D02*
X11615420Y-16896841D01*
X11615420Y-16896841D02*
X11615420Y-16858746D01*
X11615420Y-16858746D02*
X11624944Y-16811127D01*
X11624944Y-16811127D02*
X11634468Y-16782555D01*
X11634468Y-16782555D02*
X11643991Y-16763508D01*
X11643991Y-16763508D02*
X11663039Y-16734936D01*
X11663039Y-16734936D02*
X11672563Y-16725412D01*
X11834468Y-16820650D02*
X11834468Y-16953984D01*
X11786848Y-16744460D02*
X11739229Y-16887317D01*
X11739229Y-16887317D02*
X11863039Y-16887317D01*
X12091610Y-16953984D02*
X12091610Y-16753984D01*
X12177325Y-16953984D02*
X12177325Y-16849222D01*
X12177325Y-16849222D02*
X12167801Y-16830174D01*
X12167801Y-16830174D02*
X12148753Y-16820650D01*
X12148753Y-16820650D02*
X12120182Y-16820650D01*
X12120182Y-16820650D02*
X12101134Y-16830174D01*
X12101134Y-16830174D02*
X12091610Y-16839698D01*
X12301134Y-16953984D02*
X12282087Y-16944460D01*
X12282087Y-16944460D02*
X12272563Y-16934936D01*
X12272563Y-16934936D02*
X12263039Y-16915889D01*
X12263039Y-16915889D02*
X12263039Y-16858746D01*
X12263039Y-16858746D02*
X12272563Y-16839698D01*
X12272563Y-16839698D02*
X12282087Y-16830174D01*
X12282087Y-16830174D02*
X12301134Y-16820650D01*
X12301134Y-16820650D02*
X12329706Y-16820650D01*
X12329706Y-16820650D02*
X12348753Y-16830174D01*
X12348753Y-16830174D02*
X12358277Y-16839698D01*
X12358277Y-16839698D02*
X12367801Y-16858746D01*
X12367801Y-16858746D02*
X12367801Y-16915889D01*
X12367801Y-16915889D02*
X12358277Y-16934936D01*
X12358277Y-16934936D02*
X12348753Y-16944460D01*
X12348753Y-16944460D02*
X12329706Y-16953984D01*
X12329706Y-16953984D02*
X12301134Y-16953984D01*
X12482087Y-16953984D02*
X12463039Y-16944460D01*
X12463039Y-16944460D02*
X12453515Y-16925412D01*
X12453515Y-16925412D02*
X12453515Y-16753984D01*
X12634468Y-16944460D02*
X12615420Y-16953984D01*
X12615420Y-16953984D02*
X12577325Y-16953984D01*
X12577325Y-16953984D02*
X12558277Y-16944460D01*
X12558277Y-16944460D02*
X12548753Y-16925412D01*
X12548753Y-16925412D02*
X12548753Y-16849222D01*
X12548753Y-16849222D02*
X12558277Y-16830174D01*
X12558277Y-16830174D02*
X12577325Y-16820650D01*
X12577325Y-16820650D02*
X12615420Y-16820650D01*
X12615420Y-16820650D02*
X12634468Y-16830174D01*
X12634468Y-16830174D02*
X12643991Y-16849222D01*
X12643991Y-16849222D02*
X12643991Y-16868270D01*
X12643991Y-16868270D02*
X12548753Y-16887317D01*
X12720182Y-16944460D02*
X12739230Y-16953984D01*
X12739230Y-16953984D02*
X12777325Y-16953984D01*
X12777325Y-16953984D02*
X12796372Y-16944460D01*
X12796372Y-16944460D02*
X12805896Y-16925412D01*
X12805896Y-16925412D02*
X12805896Y-16915889D01*
X12805896Y-16915889D02*
X12796372Y-16896841D01*
X12796372Y-16896841D02*
X12777325Y-16887317D01*
X12777325Y-16887317D02*
X12748753Y-16887317D01*
X12748753Y-16887317D02*
X12729706Y-16877793D01*
X12729706Y-16877793D02*
X12720182Y-16858746D01*
X12720182Y-16858746D02*
X12720182Y-16849222D01*
X12720182Y-16849222D02*
X12729706Y-16830174D01*
X12729706Y-16830174D02*
X12748753Y-16820650D01*
X12748753Y-16820650D02*
X12777325Y-16820650D01*
X12777325Y-16820650D02*
X12796372Y-16830174D01*
X12872563Y-17030174D02*
X12882087Y-17020650D01*
X12882087Y-17020650D02*
X12901134Y-16992079D01*
X12901134Y-16992079D02*
X12910658Y-16973031D01*
X12910658Y-16973031D02*
X12920182Y-16944460D01*
X12920182Y-16944460D02*
X12929706Y-16896841D01*
X12929706Y-16896841D02*
X12929706Y-16858746D01*
X12929706Y-16858746D02*
X12920182Y-16811127D01*
X12920182Y-16811127D02*
X12910658Y-16782555D01*
X12910658Y-16782555D02*
X12901134Y-16763508D01*
X12901134Y-16763508D02*
X12882087Y-16734936D01*
X12882087Y-16734936D02*
X12872563Y-16725412D01*
M02*
