%TF.GenerationSoftware,KiCad,Pcbnew,9.0.5*%
%TF.CreationDate,2025-11-24T21:14:30+01:00*%
%TF.ProjectId,fotoaparat,666f746f-6170-4617-9261-742e6b696361,rev?*%
%TF.SameCoordinates,Original*%
%TF.FileFunction,Drillmap*%
%TF.FilePolarity,Positive*%
%FSLAX45Y45*%
G04 Gerber Fmt 4.5, Leading zero omitted, Abs format (unit mm)*
G04 Created by KiCad (PCBNEW 9.0.5) date 2025-11-24 21:14:30*
%MOMM*%
%LPD*%
G01*
G04 APERTURE LIST*
%ADD10C,0.050000*%
%ADD11C,0.200000*%
%ADD12C,0.100000*%
G04 APERTURE END LIST*
D10*
X0Y6750000D02*
X10800000Y6750000D01*
X10800000Y0D01*
X0Y0D01*
X0Y6750000D01*
D11*
D12*
X1752000Y6228500D02*
X1832000Y6148500D01*
X1832000Y6228500D02*
X1752000Y6148500D01*
X1773630Y4367470D02*
X1853630Y4287470D01*
X1853630Y4367470D02*
X1773630Y4287470D01*
X1802000Y1878500D02*
X1882000Y1798500D01*
X1882000Y1878500D02*
X1802000Y1798500D01*
X2440740Y654070D02*
X2520740Y574070D01*
X2520740Y654070D02*
X2440740Y574070D01*
X2780250Y2520100D02*
X2860250Y2440100D01*
X2860250Y2520100D02*
X2780250Y2440100D01*
X3002000Y1078500D02*
X3082000Y998500D01*
X3082000Y1078500D02*
X3002000Y998500D01*
X3289270Y1627160D02*
X3369270Y1547160D01*
X3369270Y1627160D02*
X3289270Y1547160D01*
X3703730Y6474650D02*
X3783730Y6394650D01*
X3783730Y6474650D02*
X3703730Y6394650D01*
X3802000Y4828500D02*
X3882000Y4748500D01*
X3882000Y4828500D02*
X3802000Y4748500D01*
X3802000Y2878500D02*
X3882000Y2798500D01*
X3882000Y2878500D02*
X3802000Y2798500D01*
X3902000Y1478500D02*
X3982000Y1398500D01*
X3982000Y1478500D02*
X3902000Y1398500D01*
X4064200Y4260540D02*
X4144200Y4180540D01*
X4144200Y4260540D02*
X4064200Y4180540D01*
X4069760Y3352510D02*
X4149760Y3272510D01*
X4149760Y3352510D02*
X4069760Y3272510D01*
X4102000Y1228500D02*
X4182000Y1148500D01*
X4182000Y1228500D02*
X4102000Y1148500D01*
X4116070Y3090290D02*
X4196070Y3010290D01*
X4196070Y3090290D02*
X4116070Y3010290D01*
X4126670Y4567500D02*
X4206670Y4487500D01*
X4206670Y4567500D02*
X4126670Y4487500D01*
X4300380Y3643740D02*
X4380380Y3563740D01*
X4380380Y3643740D02*
X4300380Y3563740D01*
X4452000Y852570D02*
X4532000Y772570D01*
X4532000Y852570D02*
X4452000Y772570D01*
X4476420Y2974980D02*
X4556420Y2894980D01*
X4556420Y2974980D02*
X4476420Y2894980D01*
X4952000Y728500D02*
X5032000Y648500D01*
X5032000Y728500D02*
X4952000Y648500D01*
X5069090Y5811400D02*
X5149090Y5731400D01*
X5149090Y5811400D02*
X5069090Y5731400D01*
X5174910Y6596590D02*
X5254910Y6516590D01*
X5254910Y6596590D02*
X5174910Y6516590D01*
X5198190Y1388940D02*
X5278190Y1308940D01*
X5278190Y1388940D02*
X5198190Y1308940D01*
X5298620Y1730330D02*
X5378620Y1650330D01*
X5378620Y1730330D02*
X5298620Y1650330D01*
X5311290Y4408120D02*
X5391290Y4328120D01*
X5391290Y4408120D02*
X5311290Y4328120D01*
X5652790Y6527350D02*
X5732790Y6447350D01*
X5732790Y6527350D02*
X5652790Y6447350D01*
X5748720Y614000D02*
X5828720Y534000D01*
X5828720Y614000D02*
X5748720Y534000D01*
X6738540Y6498030D02*
X6818540Y6418030D01*
X6818540Y6498030D02*
X6738540Y6418030D01*
X7002000Y728500D02*
X7082000Y648500D01*
X7082000Y728500D02*
X7002000Y648500D01*
X9618950Y3809510D02*
X9698950Y3729510D01*
X9698950Y3809510D02*
X9618950Y3729510D01*
X9716530Y5444720D02*
X9796530Y5364720D01*
X9796530Y5444720D02*
X9716530Y5364720D01*
X10485950Y2590540D02*
X10565950Y2510540D01*
X10565950Y2590540D02*
X10485950Y2510540D01*
X382000Y3688500D02*
G75*
G02*
X302000Y3688500I-40000J0D01*
G01*
X302000Y3688500D02*
G75*
G02*
X382000Y3688500I40000J0D01*
G01*
X382000Y3088500D02*
G75*
G02*
X302000Y3088500I-40000J0D01*
G01*
X302000Y3088500D02*
G75*
G02*
X382000Y3088500I40000J0D01*
G01*
X924000Y1477250D02*
G75*
G02*
X844000Y1477250I-40000J0D01*
G01*
X844000Y1477250D02*
G75*
G02*
X924000Y1477250I40000J0D01*
G01*
X982000Y3688500D02*
G75*
G02*
X902000Y3688500I-40000J0D01*
G01*
X902000Y3688500D02*
G75*
G02*
X982000Y3688500I40000J0D01*
G01*
X982000Y3088500D02*
G75*
G02*
X902000Y3088500I-40000J0D01*
G01*
X902000Y3088500D02*
G75*
G02*
X982000Y3088500I40000J0D01*
G01*
X1124000Y2449750D02*
G75*
G02*
X1044000Y2449750I-40000J0D01*
G01*
X1044000Y2449750D02*
G75*
G02*
X1124000Y2449750I40000J0D01*
G01*
X1662000Y3920500D02*
G75*
G02*
X1582000Y3920500I-40000J0D01*
G01*
X1582000Y3920500D02*
G75*
G02*
X1662000Y3920500I40000J0D01*
G01*
X1662000Y3650500D02*
G75*
G02*
X1582000Y3650500I-40000J0D01*
G01*
X1582000Y3650500D02*
G75*
G02*
X1662000Y3650500I40000J0D01*
G01*
X1662000Y3380500D02*
G75*
G02*
X1582000Y3380500I-40000J0D01*
G01*
X1582000Y3380500D02*
G75*
G02*
X1662000Y3380500I40000J0D01*
G01*
X1662000Y3130500D02*
G75*
G02*
X1582000Y3130500I-40000J0D01*
G01*
X1582000Y3130500D02*
G75*
G02*
X1662000Y3130500I40000J0D01*
G01*
X1674000Y2799750D02*
G75*
G02*
X1594000Y2799750I-40000J0D01*
G01*
X1594000Y2799750D02*
G75*
G02*
X1674000Y2799750I40000J0D01*
G01*
X1940000Y1477250D02*
G75*
G02*
X1860000Y1477250I-40000J0D01*
G01*
X1860000Y1477250D02*
G75*
G02*
X1940000Y1477250I40000J0D01*
G01*
X2140000Y2449750D02*
G75*
G02*
X2060000Y2449750I-40000J0D01*
G01*
X2060000Y2449750D02*
G75*
G02*
X2140000Y2449750I40000J0D01*
G01*
X2147500Y1053500D02*
G75*
G02*
X2067500Y1053500I-40000J0D01*
G01*
X2067500Y1053500D02*
G75*
G02*
X2147500Y1053500I40000J0D01*
G01*
X2394000Y2065390D02*
G75*
G02*
X2314000Y2065390I-40000J0D01*
G01*
X2314000Y2065390D02*
G75*
G02*
X2394000Y2065390I40000J0D01*
G01*
X2394000Y1505390D02*
G75*
G02*
X2314000Y1505390I-40000J0D01*
G01*
X2314000Y1505390D02*
G75*
G02*
X2394000Y1505390I40000J0D01*
G01*
X2396000Y1785390D02*
G75*
G02*
X2316000Y1785390I-40000J0D01*
G01*
X2316000Y1785390D02*
G75*
G02*
X2396000Y1785390I40000J0D01*
G01*
X2401500Y1053500D02*
G75*
G02*
X2321500Y1053500I-40000J0D01*
G01*
X2321500Y1053500D02*
G75*
G02*
X2401500Y1053500I40000J0D01*
G01*
X2690000Y2799750D02*
G75*
G02*
X2610000Y2799750I-40000J0D01*
G01*
X2610000Y2799750D02*
G75*
G02*
X2690000Y2799750I40000J0D01*
G01*
X3307000Y5507500D02*
G75*
G02*
X3227000Y5507500I-40000J0D01*
G01*
X3227000Y5507500D02*
G75*
G02*
X3307000Y5507500I40000J0D01*
G01*
X3307000Y5253500D02*
G75*
G02*
X3227000Y5253500I-40000J0D01*
G01*
X3227000Y5253500D02*
G75*
G02*
X3307000Y5253500I40000J0D01*
G01*
X3307000Y4999500D02*
G75*
G02*
X3227000Y4999500I-40000J0D01*
G01*
X3227000Y4999500D02*
G75*
G02*
X3307000Y4999500I40000J0D01*
G01*
X3307000Y4745500D02*
G75*
G02*
X3227000Y4745500I-40000J0D01*
G01*
X3227000Y4745500D02*
G75*
G02*
X3307000Y4745500I40000J0D01*
G01*
X3307000Y4491500D02*
G75*
G02*
X3227000Y4491500I-40000J0D01*
G01*
X3227000Y4491500D02*
G75*
G02*
X3307000Y4491500I40000J0D01*
G01*
X3307000Y4237500D02*
G75*
G02*
X3227000Y4237500I-40000J0D01*
G01*
X3227000Y4237500D02*
G75*
G02*
X3307000Y4237500I40000J0D01*
G01*
X3307000Y3983500D02*
G75*
G02*
X3227000Y3983500I-40000J0D01*
G01*
X3227000Y3983500D02*
G75*
G02*
X3307000Y3983500I40000J0D01*
G01*
X3307000Y3729500D02*
G75*
G02*
X3227000Y3729500I-40000J0D01*
G01*
X3227000Y3729500D02*
G75*
G02*
X3307000Y3729500I40000J0D01*
G01*
X3307000Y3475500D02*
G75*
G02*
X3227000Y3475500I-40000J0D01*
G01*
X3227000Y3475500D02*
G75*
G02*
X3307000Y3475500I40000J0D01*
G01*
X3307000Y3221500D02*
G75*
G02*
X3227000Y3221500I-40000J0D01*
G01*
X3227000Y3221500D02*
G75*
G02*
X3307000Y3221500I40000J0D01*
G01*
X3307000Y2967500D02*
G75*
G02*
X3227000Y2967500I-40000J0D01*
G01*
X3227000Y2967500D02*
G75*
G02*
X3307000Y2967500I40000J0D01*
G01*
X3405120Y1900500D02*
G75*
G02*
X3325120Y1900500I-40000J0D01*
G01*
X3325120Y1900500D02*
G75*
G02*
X3405120Y1900500I40000J0D01*
G01*
X3561000Y5507500D02*
G75*
G02*
X3481000Y5507500I-40000J0D01*
G01*
X3481000Y5507500D02*
G75*
G02*
X3561000Y5507500I40000J0D01*
G01*
X3561000Y5253500D02*
G75*
G02*
X3481000Y5253500I-40000J0D01*
G01*
X3481000Y5253500D02*
G75*
G02*
X3561000Y5253500I40000J0D01*
G01*
X3561000Y4999500D02*
G75*
G02*
X3481000Y4999500I-40000J0D01*
G01*
X3481000Y4999500D02*
G75*
G02*
X3561000Y4999500I40000J0D01*
G01*
X3561000Y4745500D02*
G75*
G02*
X3481000Y4745500I-40000J0D01*
G01*
X3481000Y4745500D02*
G75*
G02*
X3561000Y4745500I40000J0D01*
G01*
X3561000Y4491500D02*
G75*
G02*
X3481000Y4491500I-40000J0D01*
G01*
X3481000Y4491500D02*
G75*
G02*
X3561000Y4491500I40000J0D01*
G01*
X3561000Y4237500D02*
G75*
G02*
X3481000Y4237500I-40000J0D01*
G01*
X3481000Y4237500D02*
G75*
G02*
X3561000Y4237500I40000J0D01*
G01*
X3561000Y3983500D02*
G75*
G02*
X3481000Y3983500I-40000J0D01*
G01*
X3481000Y3983500D02*
G75*
G02*
X3561000Y3983500I40000J0D01*
G01*
X3561000Y3729500D02*
G75*
G02*
X3481000Y3729500I-40000J0D01*
G01*
X3481000Y3729500D02*
G75*
G02*
X3561000Y3729500I40000J0D01*
G01*
X3561000Y3475500D02*
G75*
G02*
X3481000Y3475500I-40000J0D01*
G01*
X3481000Y3475500D02*
G75*
G02*
X3561000Y3475500I40000J0D01*
G01*
X3561000Y3221500D02*
G75*
G02*
X3481000Y3221500I-40000J0D01*
G01*
X3481000Y3221500D02*
G75*
G02*
X3561000Y3221500I40000J0D01*
G01*
X3561000Y2967500D02*
G75*
G02*
X3481000Y2967500I-40000J0D01*
G01*
X3481000Y2967500D02*
G75*
G02*
X3561000Y2967500I40000J0D01*
G01*
X3685120Y1902500D02*
G75*
G02*
X3605120Y1902500I-40000J0D01*
G01*
X3605120Y1902500D02*
G75*
G02*
X3685120Y1902500I40000J0D01*
G01*
X3693250Y1446500D02*
G75*
G02*
X3613250Y1446500I-40000J0D01*
G01*
X3613250Y1446500D02*
G75*
G02*
X3693250Y1446500I40000J0D01*
G01*
X3693250Y430500D02*
G75*
G02*
X3613250Y430500I-40000J0D01*
G01*
X3613250Y430500D02*
G75*
G02*
X3693250Y430500I40000J0D01*
G01*
X3965120Y1900500D02*
G75*
G02*
X3885120Y1900500I-40000J0D01*
G01*
X3885120Y1900500D02*
G75*
G02*
X3965120Y1900500I40000J0D01*
G01*
X4817000Y6060500D02*
G75*
G02*
X4737000Y6060500I-40000J0D01*
G01*
X4737000Y6060500D02*
G75*
G02*
X4817000Y6060500I40000J0D01*
G01*
X4817000Y5806500D02*
G75*
G02*
X4737000Y5806500I-40000J0D01*
G01*
X4737000Y5806500D02*
G75*
G02*
X4817000Y5806500I40000J0D01*
G01*
X4817000Y5552500D02*
G75*
G02*
X4737000Y5552500I-40000J0D01*
G01*
X4737000Y5552500D02*
G75*
G02*
X4817000Y5552500I40000J0D01*
G01*
X4817000Y5298500D02*
G75*
G02*
X4737000Y5298500I-40000J0D01*
G01*
X4737000Y5298500D02*
G75*
G02*
X4817000Y5298500I40000J0D01*
G01*
X4817000Y5044500D02*
G75*
G02*
X4737000Y5044500I-40000J0D01*
G01*
X4737000Y5044500D02*
G75*
G02*
X4817000Y5044500I40000J0D01*
G01*
X4817000Y4790500D02*
G75*
G02*
X4737000Y4790500I-40000J0D01*
G01*
X4737000Y4790500D02*
G75*
G02*
X4817000Y4790500I40000J0D01*
G01*
X4817000Y4536500D02*
G75*
G02*
X4737000Y4536500I-40000J0D01*
G01*
X4737000Y4536500D02*
G75*
G02*
X4817000Y4536500I40000J0D01*
G01*
X4817000Y4282500D02*
G75*
G02*
X4737000Y4282500I-40000J0D01*
G01*
X4737000Y4282500D02*
G75*
G02*
X4817000Y4282500I40000J0D01*
G01*
X4817000Y4028500D02*
G75*
G02*
X4737000Y4028500I-40000J0D01*
G01*
X4737000Y4028500D02*
G75*
G02*
X4817000Y4028500I40000J0D01*
G01*
X4817000Y3774500D02*
G75*
G02*
X4737000Y3774500I-40000J0D01*
G01*
X4737000Y3774500D02*
G75*
G02*
X4817000Y3774500I40000J0D01*
G01*
X4817000Y3520500D02*
G75*
G02*
X4737000Y3520500I-40000J0D01*
G01*
X4737000Y3520500D02*
G75*
G02*
X4817000Y3520500I40000J0D01*
G01*
X4817000Y3266500D02*
G75*
G02*
X4737000Y3266500I-40000J0D01*
G01*
X4737000Y3266500D02*
G75*
G02*
X4817000Y3266500I40000J0D01*
G01*
X4817000Y3012500D02*
G75*
G02*
X4737000Y3012500I-40000J0D01*
G01*
X4737000Y3012500D02*
G75*
G02*
X4817000Y3012500I40000J0D01*
G01*
X4817000Y2758500D02*
G75*
G02*
X4737000Y2758500I-40000J0D01*
G01*
X4737000Y2758500D02*
G75*
G02*
X4817000Y2758500I40000J0D01*
G01*
X4817000Y2504500D02*
G75*
G02*
X4737000Y2504500I-40000J0D01*
G01*
X4737000Y2504500D02*
G75*
G02*
X4817000Y2504500I40000J0D01*
G01*
X4817000Y2250500D02*
G75*
G02*
X4737000Y2250500I-40000J0D01*
G01*
X4737000Y2250500D02*
G75*
G02*
X4817000Y2250500I40000J0D01*
G01*
X4817000Y1996500D02*
G75*
G02*
X4737000Y1996500I-40000J0D01*
G01*
X4737000Y1996500D02*
G75*
G02*
X4817000Y1996500I40000J0D01*
G01*
X4817000Y1742500D02*
G75*
G02*
X4737000Y1742500I-40000J0D01*
G01*
X4737000Y1742500D02*
G75*
G02*
X4817000Y1742500I40000J0D01*
G01*
X4817000Y1488500D02*
G75*
G02*
X4737000Y1488500I-40000J0D01*
G01*
X4737000Y1488500D02*
G75*
G02*
X4817000Y1488500I40000J0D01*
G01*
X4817000Y1234500D02*
G75*
G02*
X4737000Y1234500I-40000J0D01*
G01*
X4737000Y1234500D02*
G75*
G02*
X4817000Y1234500I40000J0D01*
G01*
X5505500Y845750D02*
G75*
G02*
X5425500Y845750I-40000J0D01*
G01*
X5425500Y845750D02*
G75*
G02*
X5505500Y845750I40000J0D01*
G01*
X5593250Y5846500D02*
G75*
G02*
X5513250Y5846500I-40000J0D01*
G01*
X5513250Y5846500D02*
G75*
G02*
X5593250Y5846500I40000J0D01*
G01*
X5593250Y4830500D02*
G75*
G02*
X5513250Y4830500I-40000J0D01*
G01*
X5513250Y4830500D02*
G75*
G02*
X5593250Y4830500I40000J0D01*
G01*
X5759500Y845750D02*
G75*
G02*
X5679500Y845750I-40000J0D01*
G01*
X5679500Y845750D02*
G75*
G02*
X5759500Y845750I40000J0D01*
G01*
X6340000Y6064000D02*
G75*
G02*
X6260000Y6064000I-40000J0D01*
G01*
X6260000Y6064000D02*
G75*
G02*
X6340000Y6064000I40000J0D01*
G01*
X6340000Y5810000D02*
G75*
G02*
X6260000Y5810000I-40000J0D01*
G01*
X6260000Y5810000D02*
G75*
G02*
X6340000Y5810000I40000J0D01*
G01*
X6340000Y5556000D02*
G75*
G02*
X6260000Y5556000I-40000J0D01*
G01*
X6260000Y5556000D02*
G75*
G02*
X6340000Y5556000I40000J0D01*
G01*
X6340000Y5302000D02*
G75*
G02*
X6260000Y5302000I-40000J0D01*
G01*
X6260000Y5302000D02*
G75*
G02*
X6340000Y5302000I40000J0D01*
G01*
X6340000Y5048000D02*
G75*
G02*
X6260000Y5048000I-40000J0D01*
G01*
X6260000Y5048000D02*
G75*
G02*
X6340000Y5048000I40000J0D01*
G01*
X6340000Y4794000D02*
G75*
G02*
X6260000Y4794000I-40000J0D01*
G01*
X6260000Y4794000D02*
G75*
G02*
X6340000Y4794000I40000J0D01*
G01*
X6340000Y4540000D02*
G75*
G02*
X6260000Y4540000I-40000J0D01*
G01*
X6260000Y4540000D02*
G75*
G02*
X6340000Y4540000I40000J0D01*
G01*
X6340000Y4286000D02*
G75*
G02*
X6260000Y4286000I-40000J0D01*
G01*
X6260000Y4286000D02*
G75*
G02*
X6340000Y4286000I40000J0D01*
G01*
X6340000Y4032000D02*
G75*
G02*
X6260000Y4032000I-40000J0D01*
G01*
X6260000Y4032000D02*
G75*
G02*
X6340000Y4032000I40000J0D01*
G01*
X6340000Y3778000D02*
G75*
G02*
X6260000Y3778000I-40000J0D01*
G01*
X6260000Y3778000D02*
G75*
G02*
X6340000Y3778000I40000J0D01*
G01*
X6340000Y3524000D02*
G75*
G02*
X6260000Y3524000I-40000J0D01*
G01*
X6260000Y3524000D02*
G75*
G02*
X6340000Y3524000I40000J0D01*
G01*
X6340000Y3270000D02*
G75*
G02*
X6260000Y3270000I-40000J0D01*
G01*
X6260000Y3270000D02*
G75*
G02*
X6340000Y3270000I40000J0D01*
G01*
X6340000Y3016000D02*
G75*
G02*
X6260000Y3016000I-40000J0D01*
G01*
X6260000Y3016000D02*
G75*
G02*
X6340000Y3016000I40000J0D01*
G01*
X6340000Y2762000D02*
G75*
G02*
X6260000Y2762000I-40000J0D01*
G01*
X6260000Y2762000D02*
G75*
G02*
X6340000Y2762000I40000J0D01*
G01*
X6340000Y2508000D02*
G75*
G02*
X6260000Y2508000I-40000J0D01*
G01*
X6260000Y2508000D02*
G75*
G02*
X6340000Y2508000I40000J0D01*
G01*
X6340000Y2254000D02*
G75*
G02*
X6260000Y2254000I-40000J0D01*
G01*
X6260000Y2254000D02*
G75*
G02*
X6340000Y2254000I40000J0D01*
G01*
X6340000Y2000000D02*
G75*
G02*
X6260000Y2000000I-40000J0D01*
G01*
X6260000Y2000000D02*
G75*
G02*
X6340000Y2000000I40000J0D01*
G01*
X6340000Y1746000D02*
G75*
G02*
X6260000Y1746000I-40000J0D01*
G01*
X6260000Y1746000D02*
G75*
G02*
X6340000Y1746000I40000J0D01*
G01*
X6340000Y1492000D02*
G75*
G02*
X6260000Y1492000I-40000J0D01*
G01*
X6260000Y1492000D02*
G75*
G02*
X6340000Y1492000I40000J0D01*
G01*
X6340000Y1238000D02*
G75*
G02*
X6260000Y1238000I-40000J0D01*
G01*
X6260000Y1238000D02*
G75*
G02*
X6340000Y1238000I40000J0D01*
G01*
X6674000Y377250D02*
G75*
G02*
X6594000Y377250I-40000J0D01*
G01*
X6594000Y377250D02*
G75*
G02*
X6674000Y377250I40000J0D01*
G01*
X7043250Y3896500D02*
G75*
G02*
X6963250Y3896500I-40000J0D01*
G01*
X6963250Y3896500D02*
G75*
G02*
X7043250Y3896500I40000J0D01*
G01*
X7043250Y2880500D02*
G75*
G02*
X6963250Y2880500I-40000J0D01*
G01*
X6963250Y2880500D02*
G75*
G02*
X7043250Y2880500I40000J0D01*
G01*
X7402000Y2038500D02*
G75*
G02*
X7322000Y2038500I-40000J0D01*
G01*
X7322000Y2038500D02*
G75*
G02*
X7402000Y2038500I40000J0D01*
G01*
X7402000Y1638500D02*
G75*
G02*
X7322000Y1638500I-40000J0D01*
G01*
X7322000Y1638500D02*
G75*
G02*
X7402000Y1638500I40000J0D01*
G01*
X7434000Y3338500D02*
G75*
G02*
X7354000Y3338500I-40000J0D01*
G01*
X7354000Y3338500D02*
G75*
G02*
X7434000Y3338500I40000J0D01*
G01*
X7690000Y377250D02*
G75*
G02*
X7610000Y377250I-40000J0D01*
G01*
X7610000Y377250D02*
G75*
G02*
X7690000Y377250I40000J0D01*
G01*
X7924000Y3649750D02*
G75*
G02*
X7844000Y3649750I-40000J0D01*
G01*
X7844000Y3649750D02*
G75*
G02*
X7924000Y3649750I40000J0D01*
G01*
X8074000Y1277250D02*
G75*
G02*
X7994000Y1277250I-40000J0D01*
G01*
X7994000Y1277250D02*
G75*
G02*
X8074000Y1277250I40000J0D01*
G01*
X8178984Y6441000D02*
G75*
G02*
X8098984Y6441000I-40000J0D01*
G01*
X8098984Y6441000D02*
G75*
G02*
X8178984Y6441000I40000J0D01*
G01*
X8178984Y4141000D02*
G75*
G02*
X8098984Y4141000I-40000J0D01*
G01*
X8098984Y4141000D02*
G75*
G02*
X8178984Y4141000I40000J0D01*
G01*
X8244000Y865390D02*
G75*
G02*
X8164000Y865390I-40000J0D01*
G01*
X8164000Y865390D02*
G75*
G02*
X8244000Y865390I40000J0D01*
G01*
X8244000Y305390D02*
G75*
G02*
X8164000Y305390I-40000J0D01*
G01*
X8164000Y305390D02*
G75*
G02*
X8244000Y305390I40000J0D01*
G01*
X8246000Y585390D02*
G75*
G02*
X8166000Y585390I-40000J0D01*
G01*
X8166000Y585390D02*
G75*
G02*
X8246000Y585390I40000J0D01*
G01*
X8437000Y4136000D02*
G75*
G02*
X8357000Y4136000I-40000J0D01*
G01*
X8357000Y4136000D02*
G75*
G02*
X8437000Y4136000I40000J0D01*
G01*
X8450000Y3338500D02*
G75*
G02*
X8370000Y3338500I-40000J0D01*
G01*
X8370000Y3338500D02*
G75*
G02*
X8450000Y3338500I40000J0D01*
G01*
X8620750Y2746500D02*
G75*
G02*
X8540750Y2746500I-40000J0D01*
G01*
X8540750Y2746500D02*
G75*
G02*
X8620750Y2746500I40000J0D01*
G01*
X8620750Y1730500D02*
G75*
G02*
X8540750Y1730500I-40000J0D01*
G01*
X8540750Y1730500D02*
G75*
G02*
X8620750Y1730500I40000J0D01*
G01*
X8832000Y688500D02*
G75*
G02*
X8752000Y688500I-40000J0D01*
G01*
X8752000Y688500D02*
G75*
G02*
X8832000Y688500I40000J0D01*
G01*
X8940000Y3649750D02*
G75*
G02*
X8860000Y3649750I-40000J0D01*
G01*
X8860000Y3649750D02*
G75*
G02*
X8940000Y3649750I40000J0D01*
G01*
X9090000Y1277250D02*
G75*
G02*
X9010000Y1277250I-40000J0D01*
G01*
X9010000Y1277250D02*
G75*
G02*
X9090000Y1277250I40000J0D01*
G01*
X9146000Y2945500D02*
G75*
G02*
X9066000Y2945500I-40000J0D01*
G01*
X9066000Y2945500D02*
G75*
G02*
X9146000Y2945500I40000J0D01*
G01*
X9146000Y2385500D02*
G75*
G02*
X9066000Y2385500I-40000J0D01*
G01*
X9066000Y2385500D02*
G75*
G02*
X9146000Y2385500I40000J0D01*
G01*
X9148000Y2665500D02*
G75*
G02*
X9068000Y2665500I-40000J0D01*
G01*
X9068000Y2665500D02*
G75*
G02*
X9148000Y2665500I40000J0D01*
G01*
X9329500Y4136000D02*
G75*
G02*
X9249500Y4136000I-40000J0D01*
G01*
X9249500Y4136000D02*
G75*
G02*
X9329500Y4136000I40000J0D01*
G01*
X9578984Y6441000D02*
G75*
G02*
X9498984Y6441000I-40000J0D01*
G01*
X9498984Y6441000D02*
G75*
G02*
X9578984Y6441000I40000J0D01*
G01*
X9578984Y4141000D02*
G75*
G02*
X9498984Y4141000I-40000J0D01*
G01*
X9498984Y4141000D02*
G75*
G02*
X9578984Y4141000I40000J0D01*
G01*
X9848000Y688500D02*
G75*
G02*
X9768000Y688500I-40000J0D01*
G01*
X9768000Y688500D02*
G75*
G02*
X9848000Y688500I40000J0D01*
G01*
X10132000Y5166500D02*
G75*
G02*
X10052000Y5166500I-40000J0D01*
G01*
X10052000Y5166500D02*
G75*
G02*
X10132000Y5166500I40000J0D01*
G01*
X10132000Y4912500D02*
G75*
G02*
X10052000Y4912500I-40000J0D01*
G01*
X10052000Y4912500D02*
G75*
G02*
X10132000Y4912500I40000J0D01*
G01*
X10132000Y4658500D02*
G75*
G02*
X10052000Y4658500I-40000J0D01*
G01*
X10052000Y4658500D02*
G75*
G02*
X10132000Y4658500I40000J0D01*
G01*
X10132000Y4404500D02*
G75*
G02*
X10052000Y4404500I-40000J0D01*
G01*
X10052000Y4404500D02*
G75*
G02*
X10132000Y4404500I40000J0D01*
G01*
X10132000Y4150500D02*
G75*
G02*
X10052000Y4150500I-40000J0D01*
G01*
X10052000Y4150500D02*
G75*
G02*
X10132000Y4150500I40000J0D01*
G01*
X10132000Y3896500D02*
G75*
G02*
X10052000Y3896500I-40000J0D01*
G01*
X10052000Y3896500D02*
G75*
G02*
X10132000Y3896500I40000J0D01*
G01*
X10132000Y3642500D02*
G75*
G02*
X10052000Y3642500I-40000J0D01*
G01*
X10052000Y3642500D02*
G75*
G02*
X10132000Y3642500I40000J0D01*
G01*
X10132000Y3388500D02*
G75*
G02*
X10052000Y3388500I-40000J0D01*
G01*
X10052000Y3388500D02*
G75*
G02*
X10132000Y3388500I40000J0D01*
G01*
X10132000Y3134500D02*
G75*
G02*
X10052000Y3134500I-40000J0D01*
G01*
X10052000Y3134500D02*
G75*
G02*
X10132000Y3134500I40000J0D01*
G01*
X10132000Y2880500D02*
G75*
G02*
X10052000Y2880500I-40000J0D01*
G01*
X10052000Y2880500D02*
G75*
G02*
X10132000Y2880500I40000J0D01*
G01*
X10132000Y2626500D02*
G75*
G02*
X10052000Y2626500I-40000J0D01*
G01*
X10052000Y2626500D02*
G75*
G02*
X10132000Y2626500I40000J0D01*
G01*
X10132000Y2372500D02*
G75*
G02*
X10052000Y2372500I-40000J0D01*
G01*
X10052000Y2372500D02*
G75*
G02*
X10132000Y2372500I40000J0D01*
G01*
X10132000Y2118500D02*
G75*
G02*
X10052000Y2118500I-40000J0D01*
G01*
X10052000Y2118500D02*
G75*
G02*
X10132000Y2118500I40000J0D01*
G01*
X10132000Y1864500D02*
G75*
G02*
X10052000Y1864500I-40000J0D01*
G01*
X10052000Y1864500D02*
G75*
G02*
X10132000Y1864500I40000J0D01*
G01*
D11*
X258277Y-313984D02*
X258277Y-113984D01*
X258277Y-113984D02*
X305896Y-113984D01*
X305896Y-113984D02*
X334467Y-123508D01*
X334467Y-123508D02*
X353515Y-142555D01*
X353515Y-142555D02*
X363039Y-161603D01*
X363039Y-161603D02*
X372562Y-199698D01*
X372562Y-199698D02*
X372562Y-228269D01*
X372562Y-228269D02*
X363039Y-266365D01*
X363039Y-266365D02*
X353515Y-285412D01*
X353515Y-285412D02*
X334467Y-304460D01*
X334467Y-304460D02*
X305896Y-313984D01*
X305896Y-313984D02*
X258277Y-313984D01*
X458277Y-313984D02*
X458277Y-180650D01*
X458277Y-218746D02*
X467801Y-199698D01*
X467801Y-199698D02*
X477324Y-190174D01*
X477324Y-190174D02*
X496372Y-180650D01*
X496372Y-180650D02*
X515420Y-180650D01*
X582086Y-313984D02*
X582086Y-180650D01*
X582086Y-113984D02*
X572563Y-123508D01*
X572563Y-123508D02*
X582086Y-133031D01*
X582086Y-133031D02*
X591610Y-123508D01*
X591610Y-123508D02*
X582086Y-113984D01*
X582086Y-113984D02*
X582086Y-133031D01*
X705896Y-313984D02*
X686848Y-304460D01*
X686848Y-304460D02*
X677324Y-285412D01*
X677324Y-285412D02*
X677324Y-113984D01*
X810658Y-313984D02*
X791610Y-304460D01*
X791610Y-304460D02*
X782086Y-285412D01*
X782086Y-285412D02*
X782086Y-113984D01*
X1039229Y-313984D02*
X1039229Y-113984D01*
X1039229Y-113984D02*
X1105896Y-256841D01*
X1105896Y-256841D02*
X1172563Y-113984D01*
X1172563Y-113984D02*
X1172563Y-313984D01*
X1353515Y-313984D02*
X1353515Y-209222D01*
X1353515Y-209222D02*
X1343991Y-190174D01*
X1343991Y-190174D02*
X1324944Y-180650D01*
X1324944Y-180650D02*
X1286848Y-180650D01*
X1286848Y-180650D02*
X1267801Y-190174D01*
X1353515Y-304460D02*
X1334467Y-313984D01*
X1334467Y-313984D02*
X1286848Y-313984D01*
X1286848Y-313984D02*
X1267801Y-304460D01*
X1267801Y-304460D02*
X1258277Y-285412D01*
X1258277Y-285412D02*
X1258277Y-266365D01*
X1258277Y-266365D02*
X1267801Y-247317D01*
X1267801Y-247317D02*
X1286848Y-237793D01*
X1286848Y-237793D02*
X1334467Y-237793D01*
X1334467Y-237793D02*
X1353515Y-228269D01*
X1448753Y-180650D02*
X1448753Y-380650D01*
X1448753Y-190174D02*
X1467801Y-180650D01*
X1467801Y-180650D02*
X1505896Y-180650D01*
X1505896Y-180650D02*
X1524943Y-190174D01*
X1524943Y-190174D02*
X1534467Y-199698D01*
X1534467Y-199698D02*
X1543991Y-218746D01*
X1543991Y-218746D02*
X1543991Y-275889D01*
X1543991Y-275889D02*
X1534467Y-294936D01*
X1534467Y-294936D02*
X1524943Y-304460D01*
X1524943Y-304460D02*
X1505896Y-313984D01*
X1505896Y-313984D02*
X1467801Y-313984D01*
X1467801Y-313984D02*
X1448753Y-304460D01*
X1629705Y-294936D02*
X1639229Y-304460D01*
X1639229Y-304460D02*
X1629705Y-313984D01*
X1629705Y-313984D02*
X1620182Y-304460D01*
X1620182Y-304460D02*
X1629705Y-294936D01*
X1629705Y-294936D02*
X1629705Y-313984D01*
X1629705Y-190174D02*
X1639229Y-199698D01*
X1639229Y-199698D02*
X1629705Y-209222D01*
X1629705Y-209222D02*
X1620182Y-199698D01*
X1620182Y-199698D02*
X1629705Y-190174D01*
X1629705Y-190174D02*
X1629705Y-209222D01*
D12*
X-82500Y-602500D02*
X-2500Y-682500D01*
X-2500Y-602500D02*
X-82500Y-682500D01*
D11*
X296372Y-533984D02*
X315420Y-533984D01*
X315420Y-533984D02*
X334467Y-543508D01*
X334467Y-543508D02*
X343991Y-553031D01*
X343991Y-553031D02*
X353515Y-572079D01*
X353515Y-572079D02*
X363039Y-610174D01*
X363039Y-610174D02*
X363039Y-657793D01*
X363039Y-657793D02*
X353515Y-695889D01*
X353515Y-695889D02*
X343991Y-714936D01*
X343991Y-714936D02*
X334467Y-724460D01*
X334467Y-724460D02*
X315420Y-733984D01*
X315420Y-733984D02*
X296372Y-733984D01*
X296372Y-733984D02*
X277324Y-724460D01*
X277324Y-724460D02*
X267801Y-714936D01*
X267801Y-714936D02*
X258277Y-695889D01*
X258277Y-695889D02*
X248753Y-657793D01*
X248753Y-657793D02*
X248753Y-610174D01*
X248753Y-610174D02*
X258277Y-572079D01*
X258277Y-572079D02*
X267801Y-553031D01*
X267801Y-553031D02*
X277324Y-543508D01*
X277324Y-543508D02*
X296372Y-533984D01*
X448753Y-714936D02*
X458277Y-724460D01*
X458277Y-724460D02*
X448753Y-733984D01*
X448753Y-733984D02*
X439229Y-724460D01*
X439229Y-724460D02*
X448753Y-714936D01*
X448753Y-714936D02*
X448753Y-733984D01*
X572563Y-619698D02*
X553515Y-610174D01*
X553515Y-610174D02*
X543991Y-600650D01*
X543991Y-600650D02*
X534467Y-581603D01*
X534467Y-581603D02*
X534467Y-572079D01*
X534467Y-572079D02*
X543991Y-553031D01*
X543991Y-553031D02*
X553515Y-543508D01*
X553515Y-543508D02*
X572563Y-533984D01*
X572563Y-533984D02*
X610658Y-533984D01*
X610658Y-533984D02*
X629705Y-543508D01*
X629705Y-543508D02*
X639229Y-553031D01*
X639229Y-553031D02*
X648753Y-572079D01*
X648753Y-572079D02*
X648753Y-581603D01*
X648753Y-581603D02*
X639229Y-600650D01*
X639229Y-600650D02*
X629705Y-610174D01*
X629705Y-610174D02*
X610658Y-619698D01*
X610658Y-619698D02*
X572563Y-619698D01*
X572563Y-619698D02*
X553515Y-629222D01*
X553515Y-629222D02*
X543991Y-638746D01*
X543991Y-638746D02*
X534467Y-657793D01*
X534467Y-657793D02*
X534467Y-695889D01*
X534467Y-695889D02*
X543991Y-714936D01*
X543991Y-714936D02*
X553515Y-724460D01*
X553515Y-724460D02*
X572563Y-733984D01*
X572563Y-733984D02*
X610658Y-733984D01*
X610658Y-733984D02*
X629705Y-724460D01*
X629705Y-724460D02*
X639229Y-714936D01*
X639229Y-714936D02*
X648753Y-695889D01*
X648753Y-695889D02*
X648753Y-657793D01*
X648753Y-657793D02*
X639229Y-638746D01*
X639229Y-638746D02*
X629705Y-629222D01*
X629705Y-629222D02*
X610658Y-619698D01*
X772562Y-533984D02*
X791610Y-533984D01*
X791610Y-533984D02*
X810658Y-543508D01*
X810658Y-543508D02*
X820182Y-553031D01*
X820182Y-553031D02*
X829705Y-572079D01*
X829705Y-572079D02*
X839229Y-610174D01*
X839229Y-610174D02*
X839229Y-657793D01*
X839229Y-657793D02*
X829705Y-695889D01*
X829705Y-695889D02*
X820182Y-714936D01*
X820182Y-714936D02*
X810658Y-724460D01*
X810658Y-724460D02*
X791610Y-733984D01*
X791610Y-733984D02*
X772562Y-733984D01*
X772562Y-733984D02*
X753515Y-724460D01*
X753515Y-724460D02*
X743991Y-714936D01*
X743991Y-714936D02*
X734467Y-695889D01*
X734467Y-695889D02*
X724943Y-657793D01*
X724943Y-657793D02*
X724943Y-610174D01*
X724943Y-610174D02*
X734467Y-572079D01*
X734467Y-572079D02*
X743991Y-553031D01*
X743991Y-553031D02*
X753515Y-543508D01*
X753515Y-543508D02*
X772562Y-533984D01*
X963039Y-533984D02*
X982086Y-533984D01*
X982086Y-533984D02*
X1001134Y-543508D01*
X1001134Y-543508D02*
X1010658Y-553031D01*
X1010658Y-553031D02*
X1020182Y-572079D01*
X1020182Y-572079D02*
X1029705Y-610174D01*
X1029705Y-610174D02*
X1029705Y-657793D01*
X1029705Y-657793D02*
X1020182Y-695889D01*
X1020182Y-695889D02*
X1010658Y-714936D01*
X1010658Y-714936D02*
X1001134Y-724460D01*
X1001134Y-724460D02*
X982086Y-733984D01*
X982086Y-733984D02*
X963039Y-733984D01*
X963039Y-733984D02*
X943991Y-724460D01*
X943991Y-724460D02*
X934467Y-714936D01*
X934467Y-714936D02*
X924943Y-695889D01*
X924943Y-695889D02*
X915420Y-657793D01*
X915420Y-657793D02*
X915420Y-610174D01*
X915420Y-610174D02*
X924943Y-572079D01*
X924943Y-572079D02*
X934467Y-553031D01*
X934467Y-553031D02*
X943991Y-543508D01*
X943991Y-543508D02*
X963039Y-533984D01*
X1115420Y-733984D02*
X1115420Y-600650D01*
X1115420Y-619698D02*
X1124944Y-610174D01*
X1124944Y-610174D02*
X1143991Y-600650D01*
X1143991Y-600650D02*
X1172563Y-600650D01*
X1172563Y-600650D02*
X1191610Y-610174D01*
X1191610Y-610174D02*
X1201134Y-629222D01*
X1201134Y-629222D02*
X1201134Y-733984D01*
X1201134Y-629222D02*
X1210658Y-610174D01*
X1210658Y-610174D02*
X1229705Y-600650D01*
X1229705Y-600650D02*
X1258277Y-600650D01*
X1258277Y-600650D02*
X1277325Y-610174D01*
X1277325Y-610174D02*
X1286848Y-629222D01*
X1286848Y-629222D02*
X1286848Y-733984D01*
X1382086Y-733984D02*
X1382086Y-600650D01*
X1382086Y-619698D02*
X1391610Y-610174D01*
X1391610Y-610174D02*
X1410658Y-600650D01*
X1410658Y-600650D02*
X1439229Y-600650D01*
X1439229Y-600650D02*
X1458277Y-610174D01*
X1458277Y-610174D02*
X1467801Y-629222D01*
X1467801Y-629222D02*
X1467801Y-733984D01*
X1467801Y-629222D02*
X1477324Y-610174D01*
X1477324Y-610174D02*
X1496372Y-600650D01*
X1496372Y-600650D02*
X1524943Y-600650D01*
X1524943Y-600650D02*
X1543991Y-610174D01*
X1543991Y-610174D02*
X1553515Y-629222D01*
X1553515Y-629222D02*
X1553515Y-733984D01*
X1943991Y-524460D02*
X1772563Y-781603D01*
X2201134Y-533984D02*
X2220182Y-533984D01*
X2220182Y-533984D02*
X2239229Y-543508D01*
X2239229Y-543508D02*
X2248753Y-553031D01*
X2248753Y-553031D02*
X2258277Y-572079D01*
X2258277Y-572079D02*
X2267801Y-610174D01*
X2267801Y-610174D02*
X2267801Y-657793D01*
X2267801Y-657793D02*
X2258277Y-695889D01*
X2258277Y-695889D02*
X2248753Y-714936D01*
X2248753Y-714936D02*
X2239229Y-724460D01*
X2239229Y-724460D02*
X2220182Y-733984D01*
X2220182Y-733984D02*
X2201134Y-733984D01*
X2201134Y-733984D02*
X2182087Y-724460D01*
X2182087Y-724460D02*
X2172563Y-714936D01*
X2172563Y-714936D02*
X2163039Y-695889D01*
X2163039Y-695889D02*
X2153515Y-657793D01*
X2153515Y-657793D02*
X2153515Y-610174D01*
X2153515Y-610174D02*
X2163039Y-572079D01*
X2163039Y-572079D02*
X2172563Y-553031D01*
X2172563Y-553031D02*
X2182087Y-543508D01*
X2182087Y-543508D02*
X2201134Y-533984D01*
X2353515Y-714936D02*
X2363039Y-724460D01*
X2363039Y-724460D02*
X2353515Y-733984D01*
X2353515Y-733984D02*
X2343991Y-724460D01*
X2343991Y-724460D02*
X2353515Y-714936D01*
X2353515Y-714936D02*
X2353515Y-733984D01*
X2486848Y-533984D02*
X2505896Y-533984D01*
X2505896Y-533984D02*
X2524944Y-543508D01*
X2524944Y-543508D02*
X2534468Y-553031D01*
X2534468Y-553031D02*
X2543991Y-572079D01*
X2543991Y-572079D02*
X2553515Y-610174D01*
X2553515Y-610174D02*
X2553515Y-657793D01*
X2553515Y-657793D02*
X2543991Y-695889D01*
X2543991Y-695889D02*
X2534468Y-714936D01*
X2534468Y-714936D02*
X2524944Y-724460D01*
X2524944Y-724460D02*
X2505896Y-733984D01*
X2505896Y-733984D02*
X2486848Y-733984D01*
X2486848Y-733984D02*
X2467801Y-724460D01*
X2467801Y-724460D02*
X2458277Y-714936D01*
X2458277Y-714936D02*
X2448753Y-695889D01*
X2448753Y-695889D02*
X2439229Y-657793D01*
X2439229Y-657793D02*
X2439229Y-610174D01*
X2439229Y-610174D02*
X2448753Y-572079D01*
X2448753Y-572079D02*
X2458277Y-553031D01*
X2458277Y-553031D02*
X2467801Y-543508D01*
X2467801Y-543508D02*
X2486848Y-533984D01*
X2620182Y-533984D02*
X2743991Y-533984D01*
X2743991Y-533984D02*
X2677325Y-610174D01*
X2677325Y-610174D02*
X2705896Y-610174D01*
X2705896Y-610174D02*
X2724944Y-619698D01*
X2724944Y-619698D02*
X2734468Y-629222D01*
X2734468Y-629222D02*
X2743991Y-648270D01*
X2743991Y-648270D02*
X2743991Y-695889D01*
X2743991Y-695889D02*
X2734468Y-714936D01*
X2734468Y-714936D02*
X2724944Y-724460D01*
X2724944Y-724460D02*
X2705896Y-733984D01*
X2705896Y-733984D02*
X2648753Y-733984D01*
X2648753Y-733984D02*
X2629706Y-724460D01*
X2629706Y-724460D02*
X2620182Y-714936D01*
X2934467Y-733984D02*
X2820182Y-733984D01*
X2877325Y-733984D02*
X2877325Y-533984D01*
X2877325Y-533984D02*
X2858277Y-562555D01*
X2858277Y-562555D02*
X2839229Y-581603D01*
X2839229Y-581603D02*
X2820182Y-591127D01*
X3115420Y-533984D02*
X3020182Y-533984D01*
X3020182Y-533984D02*
X3010658Y-629222D01*
X3010658Y-629222D02*
X3020182Y-619698D01*
X3020182Y-619698D02*
X3039229Y-610174D01*
X3039229Y-610174D02*
X3086848Y-610174D01*
X3086848Y-610174D02*
X3105896Y-619698D01*
X3105896Y-619698D02*
X3115420Y-629222D01*
X3115420Y-629222D02*
X3124944Y-648270D01*
X3124944Y-648270D02*
X3124944Y-695889D01*
X3124944Y-695889D02*
X3115420Y-714936D01*
X3115420Y-714936D02*
X3105896Y-724460D01*
X3105896Y-724460D02*
X3086848Y-733984D01*
X3086848Y-733984D02*
X3039229Y-733984D01*
X3039229Y-733984D02*
X3020182Y-724460D01*
X3020182Y-724460D02*
X3010658Y-714936D01*
X3201134Y-533984D02*
X3201134Y-572079D01*
X3277325Y-533984D02*
X3277325Y-572079D01*
X3572563Y-810174D02*
X3563039Y-800650D01*
X3563039Y-800650D02*
X3543991Y-772079D01*
X3543991Y-772079D02*
X3534468Y-753031D01*
X3534468Y-753031D02*
X3524944Y-724460D01*
X3524944Y-724460D02*
X3515420Y-676841D01*
X3515420Y-676841D02*
X3515420Y-638746D01*
X3515420Y-638746D02*
X3524944Y-591127D01*
X3524944Y-591127D02*
X3534468Y-562555D01*
X3534468Y-562555D02*
X3543991Y-543508D01*
X3543991Y-543508D02*
X3563039Y-514936D01*
X3563039Y-514936D02*
X3572563Y-505412D01*
X3629706Y-533984D02*
X3753515Y-533984D01*
X3753515Y-533984D02*
X3686848Y-610174D01*
X3686848Y-610174D02*
X3715420Y-610174D01*
X3715420Y-610174D02*
X3734468Y-619698D01*
X3734468Y-619698D02*
X3743991Y-629222D01*
X3743991Y-629222D02*
X3753515Y-648270D01*
X3753515Y-648270D02*
X3753515Y-695889D01*
X3753515Y-695889D02*
X3743991Y-714936D01*
X3743991Y-714936D02*
X3734468Y-724460D01*
X3734468Y-724460D02*
X3715420Y-733984D01*
X3715420Y-733984D02*
X3658277Y-733984D01*
X3658277Y-733984D02*
X3639229Y-724460D01*
X3639229Y-724460D02*
X3629706Y-714936D01*
X3829706Y-553031D02*
X3839229Y-543508D01*
X3839229Y-543508D02*
X3858277Y-533984D01*
X3858277Y-533984D02*
X3905896Y-533984D01*
X3905896Y-533984D02*
X3924944Y-543508D01*
X3924944Y-543508D02*
X3934468Y-553031D01*
X3934468Y-553031D02*
X3943991Y-572079D01*
X3943991Y-572079D02*
X3943991Y-591127D01*
X3943991Y-591127D02*
X3934468Y-619698D01*
X3934468Y-619698D02*
X3820182Y-733984D01*
X3820182Y-733984D02*
X3943991Y-733984D01*
X4182087Y-733984D02*
X4182087Y-533984D01*
X4267801Y-733984D02*
X4267801Y-629222D01*
X4267801Y-629222D02*
X4258277Y-610174D01*
X4258277Y-610174D02*
X4239230Y-600650D01*
X4239230Y-600650D02*
X4210658Y-600650D01*
X4210658Y-600650D02*
X4191610Y-610174D01*
X4191610Y-610174D02*
X4182087Y-619698D01*
X4391611Y-733984D02*
X4372563Y-724460D01*
X4372563Y-724460D02*
X4363039Y-714936D01*
X4363039Y-714936D02*
X4353515Y-695889D01*
X4353515Y-695889D02*
X4353515Y-638746D01*
X4353515Y-638746D02*
X4363039Y-619698D01*
X4363039Y-619698D02*
X4372563Y-610174D01*
X4372563Y-610174D02*
X4391611Y-600650D01*
X4391611Y-600650D02*
X4420182Y-600650D01*
X4420182Y-600650D02*
X4439230Y-610174D01*
X4439230Y-610174D02*
X4448753Y-619698D01*
X4448753Y-619698D02*
X4458277Y-638746D01*
X4458277Y-638746D02*
X4458277Y-695889D01*
X4458277Y-695889D02*
X4448753Y-714936D01*
X4448753Y-714936D02*
X4439230Y-724460D01*
X4439230Y-724460D02*
X4420182Y-733984D01*
X4420182Y-733984D02*
X4391611Y-733984D01*
X4572563Y-733984D02*
X4553515Y-724460D01*
X4553515Y-724460D02*
X4543992Y-705412D01*
X4543992Y-705412D02*
X4543992Y-533984D01*
X4724944Y-724460D02*
X4705896Y-733984D01*
X4705896Y-733984D02*
X4667801Y-733984D01*
X4667801Y-733984D02*
X4648753Y-724460D01*
X4648753Y-724460D02*
X4639230Y-705412D01*
X4639230Y-705412D02*
X4639230Y-629222D01*
X4639230Y-629222D02*
X4648753Y-610174D01*
X4648753Y-610174D02*
X4667801Y-600650D01*
X4667801Y-600650D02*
X4705896Y-600650D01*
X4705896Y-600650D02*
X4724944Y-610174D01*
X4724944Y-610174D02*
X4734468Y-629222D01*
X4734468Y-629222D02*
X4734468Y-648270D01*
X4734468Y-648270D02*
X4639230Y-667317D01*
X4810658Y-724460D02*
X4829706Y-733984D01*
X4829706Y-733984D02*
X4867801Y-733984D01*
X4867801Y-733984D02*
X4886849Y-724460D01*
X4886849Y-724460D02*
X4896373Y-705412D01*
X4896373Y-705412D02*
X4896373Y-695889D01*
X4896373Y-695889D02*
X4886849Y-676841D01*
X4886849Y-676841D02*
X4867801Y-667317D01*
X4867801Y-667317D02*
X4839230Y-667317D01*
X4839230Y-667317D02*
X4820182Y-657793D01*
X4820182Y-657793D02*
X4810658Y-638746D01*
X4810658Y-638746D02*
X4810658Y-629222D01*
X4810658Y-629222D02*
X4820182Y-610174D01*
X4820182Y-610174D02*
X4839230Y-600650D01*
X4839230Y-600650D02*
X4867801Y-600650D01*
X4867801Y-600650D02*
X4886849Y-610174D01*
X4963039Y-810174D02*
X4972563Y-800650D01*
X4972563Y-800650D02*
X4991611Y-772079D01*
X4991611Y-772079D02*
X5001134Y-753031D01*
X5001134Y-753031D02*
X5010658Y-724460D01*
X5010658Y-724460D02*
X5020182Y-676841D01*
X5020182Y-676841D02*
X5020182Y-638746D01*
X5020182Y-638746D02*
X5010658Y-591127D01*
X5010658Y-591127D02*
X5001134Y-562555D01*
X5001134Y-562555D02*
X4991611Y-543508D01*
X4991611Y-543508D02*
X4972563Y-514936D01*
X4972563Y-514936D02*
X4963039Y-505412D01*
D12*
X-2500Y-906500D02*
G75*
G02*
X-82500Y-906500I-40000J0D01*
G01*
X-82500Y-906500D02*
G75*
G02*
X-2500Y-906500I40000J0D01*
G01*
D11*
X296372Y-797984D02*
X315420Y-797984D01*
X315420Y-797984D02*
X334467Y-807508D01*
X334467Y-807508D02*
X343991Y-817031D01*
X343991Y-817031D02*
X353515Y-836079D01*
X353515Y-836079D02*
X363039Y-874174D01*
X363039Y-874174D02*
X363039Y-921793D01*
X363039Y-921793D02*
X353515Y-959888D01*
X353515Y-959888D02*
X343991Y-978936D01*
X343991Y-978936D02*
X334467Y-988460D01*
X334467Y-988460D02*
X315420Y-997984D01*
X315420Y-997984D02*
X296372Y-997984D01*
X296372Y-997984D02*
X277324Y-988460D01*
X277324Y-988460D02*
X267801Y-978936D01*
X267801Y-978936D02*
X258277Y-959888D01*
X258277Y-959888D02*
X248753Y-921793D01*
X248753Y-921793D02*
X248753Y-874174D01*
X248753Y-874174D02*
X258277Y-836079D01*
X258277Y-836079D02*
X267801Y-817031D01*
X267801Y-817031D02*
X277324Y-807508D01*
X277324Y-807508D02*
X296372Y-797984D01*
X448753Y-978936D02*
X458277Y-988460D01*
X458277Y-988460D02*
X448753Y-997984D01*
X448753Y-997984D02*
X439229Y-988460D01*
X439229Y-988460D02*
X448753Y-978936D01*
X448753Y-978936D02*
X448753Y-997984D01*
X572563Y-883698D02*
X553515Y-874174D01*
X553515Y-874174D02*
X543991Y-864650D01*
X543991Y-864650D02*
X534467Y-845603D01*
X534467Y-845603D02*
X534467Y-836079D01*
X534467Y-836079D02*
X543991Y-817031D01*
X543991Y-817031D02*
X553515Y-807508D01*
X553515Y-807508D02*
X572563Y-797984D01*
X572563Y-797984D02*
X610658Y-797984D01*
X610658Y-797984D02*
X629705Y-807508D01*
X629705Y-807508D02*
X639229Y-817031D01*
X639229Y-817031D02*
X648753Y-836079D01*
X648753Y-836079D02*
X648753Y-845603D01*
X648753Y-845603D02*
X639229Y-864650D01*
X639229Y-864650D02*
X629705Y-874174D01*
X629705Y-874174D02*
X610658Y-883698D01*
X610658Y-883698D02*
X572563Y-883698D01*
X572563Y-883698D02*
X553515Y-893222D01*
X553515Y-893222D02*
X543991Y-902746D01*
X543991Y-902746D02*
X534467Y-921793D01*
X534467Y-921793D02*
X534467Y-959888D01*
X534467Y-959888D02*
X543991Y-978936D01*
X543991Y-978936D02*
X553515Y-988460D01*
X553515Y-988460D02*
X572563Y-997984D01*
X572563Y-997984D02*
X610658Y-997984D01*
X610658Y-997984D02*
X629705Y-988460D01*
X629705Y-988460D02*
X639229Y-978936D01*
X639229Y-978936D02*
X648753Y-959888D01*
X648753Y-959888D02*
X648753Y-921793D01*
X648753Y-921793D02*
X639229Y-902746D01*
X639229Y-902746D02*
X629705Y-893222D01*
X629705Y-893222D02*
X610658Y-883698D01*
X772562Y-797984D02*
X791610Y-797984D01*
X791610Y-797984D02*
X810658Y-807508D01*
X810658Y-807508D02*
X820182Y-817031D01*
X820182Y-817031D02*
X829705Y-836079D01*
X829705Y-836079D02*
X839229Y-874174D01*
X839229Y-874174D02*
X839229Y-921793D01*
X839229Y-921793D02*
X829705Y-959888D01*
X829705Y-959888D02*
X820182Y-978936D01*
X820182Y-978936D02*
X810658Y-988460D01*
X810658Y-988460D02*
X791610Y-997984D01*
X791610Y-997984D02*
X772562Y-997984D01*
X772562Y-997984D02*
X753515Y-988460D01*
X753515Y-988460D02*
X743991Y-978936D01*
X743991Y-978936D02*
X734467Y-959888D01*
X734467Y-959888D02*
X724943Y-921793D01*
X724943Y-921793D02*
X724943Y-874174D01*
X724943Y-874174D02*
X734467Y-836079D01*
X734467Y-836079D02*
X743991Y-817031D01*
X743991Y-817031D02*
X753515Y-807508D01*
X753515Y-807508D02*
X772562Y-797984D01*
X963039Y-797984D02*
X982086Y-797984D01*
X982086Y-797984D02*
X1001134Y-807508D01*
X1001134Y-807508D02*
X1010658Y-817031D01*
X1010658Y-817031D02*
X1020182Y-836079D01*
X1020182Y-836079D02*
X1029705Y-874174D01*
X1029705Y-874174D02*
X1029705Y-921793D01*
X1029705Y-921793D02*
X1020182Y-959888D01*
X1020182Y-959888D02*
X1010658Y-978936D01*
X1010658Y-978936D02*
X1001134Y-988460D01*
X1001134Y-988460D02*
X982086Y-997984D01*
X982086Y-997984D02*
X963039Y-997984D01*
X963039Y-997984D02*
X943991Y-988460D01*
X943991Y-988460D02*
X934467Y-978936D01*
X934467Y-978936D02*
X924943Y-959888D01*
X924943Y-959888D02*
X915420Y-921793D01*
X915420Y-921793D02*
X915420Y-874174D01*
X915420Y-874174D02*
X924943Y-836079D01*
X924943Y-836079D02*
X934467Y-817031D01*
X934467Y-817031D02*
X943991Y-807508D01*
X943991Y-807508D02*
X963039Y-797984D01*
X1115420Y-997984D02*
X1115420Y-864650D01*
X1115420Y-883698D02*
X1124944Y-874174D01*
X1124944Y-874174D02*
X1143991Y-864650D01*
X1143991Y-864650D02*
X1172563Y-864650D01*
X1172563Y-864650D02*
X1191610Y-874174D01*
X1191610Y-874174D02*
X1201134Y-893222D01*
X1201134Y-893222D02*
X1201134Y-997984D01*
X1201134Y-893222D02*
X1210658Y-874174D01*
X1210658Y-874174D02*
X1229705Y-864650D01*
X1229705Y-864650D02*
X1258277Y-864650D01*
X1258277Y-864650D02*
X1277325Y-874174D01*
X1277325Y-874174D02*
X1286848Y-893222D01*
X1286848Y-893222D02*
X1286848Y-997984D01*
X1382086Y-997984D02*
X1382086Y-864650D01*
X1382086Y-883698D02*
X1391610Y-874174D01*
X1391610Y-874174D02*
X1410658Y-864650D01*
X1410658Y-864650D02*
X1439229Y-864650D01*
X1439229Y-864650D02*
X1458277Y-874174D01*
X1458277Y-874174D02*
X1467801Y-893222D01*
X1467801Y-893222D02*
X1467801Y-997984D01*
X1467801Y-893222D02*
X1477324Y-874174D01*
X1477324Y-874174D02*
X1496372Y-864650D01*
X1496372Y-864650D02*
X1524943Y-864650D01*
X1524943Y-864650D02*
X1543991Y-874174D01*
X1543991Y-874174D02*
X1553515Y-893222D01*
X1553515Y-893222D02*
X1553515Y-997984D01*
X1943991Y-788460D02*
X1772563Y-1045603D01*
X2201134Y-797984D02*
X2220182Y-797984D01*
X2220182Y-797984D02*
X2239229Y-807508D01*
X2239229Y-807508D02*
X2248753Y-817031D01*
X2248753Y-817031D02*
X2258277Y-836079D01*
X2258277Y-836079D02*
X2267801Y-874174D01*
X2267801Y-874174D02*
X2267801Y-921793D01*
X2267801Y-921793D02*
X2258277Y-959888D01*
X2258277Y-959888D02*
X2248753Y-978936D01*
X2248753Y-978936D02*
X2239229Y-988460D01*
X2239229Y-988460D02*
X2220182Y-997984D01*
X2220182Y-997984D02*
X2201134Y-997984D01*
X2201134Y-997984D02*
X2182087Y-988460D01*
X2182087Y-988460D02*
X2172563Y-978936D01*
X2172563Y-978936D02*
X2163039Y-959888D01*
X2163039Y-959888D02*
X2153515Y-921793D01*
X2153515Y-921793D02*
X2153515Y-874174D01*
X2153515Y-874174D02*
X2163039Y-836079D01*
X2163039Y-836079D02*
X2172563Y-817031D01*
X2172563Y-817031D02*
X2182087Y-807508D01*
X2182087Y-807508D02*
X2201134Y-797984D01*
X2353515Y-978936D02*
X2363039Y-988460D01*
X2363039Y-988460D02*
X2353515Y-997984D01*
X2353515Y-997984D02*
X2343991Y-988460D01*
X2343991Y-988460D02*
X2353515Y-978936D01*
X2353515Y-978936D02*
X2353515Y-997984D01*
X2486848Y-797984D02*
X2505896Y-797984D01*
X2505896Y-797984D02*
X2524944Y-807508D01*
X2524944Y-807508D02*
X2534468Y-817031D01*
X2534468Y-817031D02*
X2543991Y-836079D01*
X2543991Y-836079D02*
X2553515Y-874174D01*
X2553515Y-874174D02*
X2553515Y-921793D01*
X2553515Y-921793D02*
X2543991Y-959888D01*
X2543991Y-959888D02*
X2534468Y-978936D01*
X2534468Y-978936D02*
X2524944Y-988460D01*
X2524944Y-988460D02*
X2505896Y-997984D01*
X2505896Y-997984D02*
X2486848Y-997984D01*
X2486848Y-997984D02*
X2467801Y-988460D01*
X2467801Y-988460D02*
X2458277Y-978936D01*
X2458277Y-978936D02*
X2448753Y-959888D01*
X2448753Y-959888D02*
X2439229Y-921793D01*
X2439229Y-921793D02*
X2439229Y-874174D01*
X2439229Y-874174D02*
X2448753Y-836079D01*
X2448753Y-836079D02*
X2458277Y-817031D01*
X2458277Y-817031D02*
X2467801Y-807508D01*
X2467801Y-807508D02*
X2486848Y-797984D01*
X2620182Y-797984D02*
X2743991Y-797984D01*
X2743991Y-797984D02*
X2677325Y-874174D01*
X2677325Y-874174D02*
X2705896Y-874174D01*
X2705896Y-874174D02*
X2724944Y-883698D01*
X2724944Y-883698D02*
X2734468Y-893222D01*
X2734468Y-893222D02*
X2743991Y-912269D01*
X2743991Y-912269D02*
X2743991Y-959888D01*
X2743991Y-959888D02*
X2734468Y-978936D01*
X2734468Y-978936D02*
X2724944Y-988460D01*
X2724944Y-988460D02*
X2705896Y-997984D01*
X2705896Y-997984D02*
X2648753Y-997984D01*
X2648753Y-997984D02*
X2629706Y-988460D01*
X2629706Y-988460D02*
X2620182Y-978936D01*
X2934467Y-997984D02*
X2820182Y-997984D01*
X2877325Y-997984D02*
X2877325Y-797984D01*
X2877325Y-797984D02*
X2858277Y-826555D01*
X2858277Y-826555D02*
X2839229Y-845603D01*
X2839229Y-845603D02*
X2820182Y-855127D01*
X3115420Y-797984D02*
X3020182Y-797984D01*
X3020182Y-797984D02*
X3010658Y-893222D01*
X3010658Y-893222D02*
X3020182Y-883698D01*
X3020182Y-883698D02*
X3039229Y-874174D01*
X3039229Y-874174D02*
X3086848Y-874174D01*
X3086848Y-874174D02*
X3105896Y-883698D01*
X3105896Y-883698D02*
X3115420Y-893222D01*
X3115420Y-893222D02*
X3124944Y-912269D01*
X3124944Y-912269D02*
X3124944Y-959888D01*
X3124944Y-959888D02*
X3115420Y-978936D01*
X3115420Y-978936D02*
X3105896Y-988460D01*
X3105896Y-988460D02*
X3086848Y-997984D01*
X3086848Y-997984D02*
X3039229Y-997984D01*
X3039229Y-997984D02*
X3020182Y-988460D01*
X3020182Y-988460D02*
X3010658Y-978936D01*
X3201134Y-797984D02*
X3201134Y-836079D01*
X3277325Y-797984D02*
X3277325Y-836079D01*
X3572563Y-1074174D02*
X3563039Y-1064650D01*
X3563039Y-1064650D02*
X3543991Y-1036079D01*
X3543991Y-1036079D02*
X3534468Y-1017031D01*
X3534468Y-1017031D02*
X3524944Y-988460D01*
X3524944Y-988460D02*
X3515420Y-940841D01*
X3515420Y-940841D02*
X3515420Y-902746D01*
X3515420Y-902746D02*
X3524944Y-855127D01*
X3524944Y-855127D02*
X3534468Y-826555D01*
X3534468Y-826555D02*
X3543991Y-807508D01*
X3543991Y-807508D02*
X3563039Y-778936D01*
X3563039Y-778936D02*
X3572563Y-769412D01*
X3753515Y-997984D02*
X3639229Y-997984D01*
X3696372Y-997984D02*
X3696372Y-797984D01*
X3696372Y-797984D02*
X3677325Y-826555D01*
X3677325Y-826555D02*
X3658277Y-845603D01*
X3658277Y-845603D02*
X3639229Y-855127D01*
X3820182Y-797984D02*
X3943991Y-797984D01*
X3943991Y-797984D02*
X3877325Y-874174D01*
X3877325Y-874174D02*
X3905896Y-874174D01*
X3905896Y-874174D02*
X3924944Y-883698D01*
X3924944Y-883698D02*
X3934468Y-893222D01*
X3934468Y-893222D02*
X3943991Y-912269D01*
X3943991Y-912269D02*
X3943991Y-959888D01*
X3943991Y-959888D02*
X3934468Y-978936D01*
X3934468Y-978936D02*
X3924944Y-988460D01*
X3924944Y-988460D02*
X3905896Y-997984D01*
X3905896Y-997984D02*
X3848753Y-997984D01*
X3848753Y-997984D02*
X3829706Y-988460D01*
X3829706Y-988460D02*
X3820182Y-978936D01*
X4020182Y-817031D02*
X4029706Y-807508D01*
X4029706Y-807508D02*
X4048753Y-797984D01*
X4048753Y-797984D02*
X4096372Y-797984D01*
X4096372Y-797984D02*
X4115420Y-807508D01*
X4115420Y-807508D02*
X4124944Y-817031D01*
X4124944Y-817031D02*
X4134468Y-836079D01*
X4134468Y-836079D02*
X4134468Y-855127D01*
X4134468Y-855127D02*
X4124944Y-883698D01*
X4124944Y-883698D02*
X4010658Y-997984D01*
X4010658Y-997984D02*
X4134468Y-997984D01*
X4372563Y-997984D02*
X4372563Y-797984D01*
X4458277Y-997984D02*
X4458277Y-893222D01*
X4458277Y-893222D02*
X4448753Y-874174D01*
X4448753Y-874174D02*
X4429706Y-864650D01*
X4429706Y-864650D02*
X4401134Y-864650D01*
X4401134Y-864650D02*
X4382087Y-874174D01*
X4382087Y-874174D02*
X4372563Y-883698D01*
X4582087Y-997984D02*
X4563039Y-988460D01*
X4563039Y-988460D02*
X4553515Y-978936D01*
X4553515Y-978936D02*
X4543992Y-959888D01*
X4543992Y-959888D02*
X4543992Y-902746D01*
X4543992Y-902746D02*
X4553515Y-883698D01*
X4553515Y-883698D02*
X4563039Y-874174D01*
X4563039Y-874174D02*
X4582087Y-864650D01*
X4582087Y-864650D02*
X4610658Y-864650D01*
X4610658Y-864650D02*
X4629706Y-874174D01*
X4629706Y-874174D02*
X4639230Y-883698D01*
X4639230Y-883698D02*
X4648753Y-902746D01*
X4648753Y-902746D02*
X4648753Y-959888D01*
X4648753Y-959888D02*
X4639230Y-978936D01*
X4639230Y-978936D02*
X4629706Y-988460D01*
X4629706Y-988460D02*
X4610658Y-997984D01*
X4610658Y-997984D02*
X4582087Y-997984D01*
X4763039Y-997984D02*
X4743992Y-988460D01*
X4743992Y-988460D02*
X4734468Y-969412D01*
X4734468Y-969412D02*
X4734468Y-797984D01*
X4915420Y-988460D02*
X4896373Y-997984D01*
X4896373Y-997984D02*
X4858277Y-997984D01*
X4858277Y-997984D02*
X4839230Y-988460D01*
X4839230Y-988460D02*
X4829706Y-969412D01*
X4829706Y-969412D02*
X4829706Y-893222D01*
X4829706Y-893222D02*
X4839230Y-874174D01*
X4839230Y-874174D02*
X4858277Y-864650D01*
X4858277Y-864650D02*
X4896373Y-864650D01*
X4896373Y-864650D02*
X4915420Y-874174D01*
X4915420Y-874174D02*
X4924944Y-893222D01*
X4924944Y-893222D02*
X4924944Y-912269D01*
X4924944Y-912269D02*
X4829706Y-931317D01*
X5001134Y-988460D02*
X5020182Y-997984D01*
X5020182Y-997984D02*
X5058277Y-997984D01*
X5058277Y-997984D02*
X5077325Y-988460D01*
X5077325Y-988460D02*
X5086849Y-969412D01*
X5086849Y-969412D02*
X5086849Y-959888D01*
X5086849Y-959888D02*
X5077325Y-940841D01*
X5077325Y-940841D02*
X5058277Y-931317D01*
X5058277Y-931317D02*
X5029706Y-931317D01*
X5029706Y-931317D02*
X5010658Y-921793D01*
X5010658Y-921793D02*
X5001134Y-902746D01*
X5001134Y-902746D02*
X5001134Y-893222D01*
X5001134Y-893222D02*
X5010658Y-874174D01*
X5010658Y-874174D02*
X5029706Y-864650D01*
X5029706Y-864650D02*
X5058277Y-864650D01*
X5058277Y-864650D02*
X5077325Y-874174D01*
X5153515Y-1074174D02*
X5163039Y-1064650D01*
X5163039Y-1064650D02*
X5182087Y-1036079D01*
X5182087Y-1036079D02*
X5191611Y-1017031D01*
X5191611Y-1017031D02*
X5201134Y-988460D01*
X5201134Y-988460D02*
X5210658Y-940841D01*
X5210658Y-940841D02*
X5210658Y-902746D01*
X5210658Y-902746D02*
X5201134Y-855127D01*
X5201134Y-855127D02*
X5191611Y-826555D01*
X5191611Y-826555D02*
X5182087Y-807508D01*
X5182087Y-807508D02*
X5163039Y-778936D01*
X5163039Y-778936D02*
X5153515Y-769412D01*
M02*
