M48
; DRILL file {KiCad 9.0.5} date 2026-04-12T18:20:44+0200
; FORMAT={-:-/ absolute / metric / decimal}
; #@! TF.CreationDate,2026-04-12T18:20:44+02:00
; #@! TF.GenerationSoftware,Kicad,Pcbnew,9.0.5
; #@! TF.FileFunction,Plated,1,2,PTH
FMAT,2
METRIC
; #@! TA.AperFunction,Plated,PTH,ViaDrill
T1C0.800
; #@! TA.AperFunction,Plated,PTH,ComponentDrill
T2C0.800
%
G90
G05
T1
X18.922Y27.668
X20.172Y51.368
X20.222Y66.088
X27.2Y84.65
X27.3Y68.68
X29.092Y27.838
X40.212Y83.488
X44.952Y46.218
X45.592Y54.868
X52.072Y83.338
X58.482Y23.918
X58.602Y10.938
X63.832Y60.648
X69.082Y60.458
X70.272Y18.258
X70.332Y30.618
X70.652Y39.588
X81.092Y11.548
X81.252Y30.848
X82.362Y69.298
X83.342Y36.47
X85.039Y60.43
X88.282Y82.078
X98.072Y61.398
X105.532Y82.208
X108.04Y57.87
T2
X4.152Y24.378
X4.152Y10.378
X6.472Y67.843
X6.472Y65.043
X13.482Y67.838
X13.482Y65.298
X13.482Y62.758
X13.482Y60.218
X13.482Y57.678
X13.482Y55.138
X13.482Y52.598
X13.482Y50.058
X13.482Y47.518
X13.482Y44.978
X13.482Y42.438
X13.482Y39.898
X13.482Y37.358
X13.482Y34.818
X27.152Y24.378
X27.152Y21.145
X27.152Y10.378
X27.252Y13.745
X27.272Y40.958
X27.272Y30.798
X31.474Y47.143
X31.474Y43.973
X31.514Y40.948
X31.514Y30.788
X33.819Y74.888
X33.819Y72.088
X37.317Y14.611
X40.402Y77.333
X40.402Y74.793
X40.402Y72.253
X40.402Y69.713
X40.402Y67.173
X40.402Y64.633
X40.402Y62.093
X40.402Y59.553
X40.402Y57.013
X40.402Y54.473
X40.402Y51.933
X40.402Y49.393
X40.402Y46.853
X40.402Y44.313
X40.402Y41.773
X40.402Y39.233
X40.402Y36.693
X40.402Y34.153
X40.402Y31.613
X40.402Y29.073
X40.617Y14.611
X51.594Y77.158
X51.594Y66.998
X52.262Y86.698
X55.632Y77.298
X55.632Y74.758
X55.632Y72.218
X55.632Y69.678
X55.632Y67.138
X55.632Y64.598
X55.632Y62.058
X55.632Y59.518
X55.632Y56.978
X55.632Y54.438
X55.632Y51.898
X55.632Y49.358
X55.632Y46.818
X55.632Y44.278
X55.632Y41.738
X55.632Y39.198
X55.632Y36.658
X55.632Y34.118
X55.632Y31.578
X55.632Y29.038
X56.062Y86.678
X59.862Y86.698
X60.222Y82.425
X70.042Y44.168
X70.042Y34.008
X70.382Y82.425
X75.422Y67.108
X75.422Y64.568
X75.422Y62.028
X75.422Y59.488
X75.422Y56.948
X75.422Y54.408
X75.422Y51.868
X75.422Y49.328
X75.422Y46.788
X75.422Y44.248
X75.422Y41.708
X75.867Y36.578
X75.932Y31.46
X76.672Y82.328
X78.622Y67.108
X78.622Y64.568
X78.622Y62.028
X78.622Y59.488
X78.622Y56.948
X78.622Y54.408
X78.622Y51.868
X78.622Y49.328
X78.622Y46.788
X78.622Y44.248
X78.622Y41.708
X78.667Y36.578
X80.672Y82.328
X86.092Y31.46
X98.182Y55.378
X98.182Y52.678
X98.182Y49.978
X98.182Y47.478
M30
