M48
; DRILL file {KiCad 9.0.5} date 2025-11-30T18:01:57+0100
; FORMAT={-:-/ absolute / metric / decimal}
; #@! TF.CreationDate,2025-11-30T18:01:57+01:00
; #@! TF.GenerationSoftware,Kicad,Pcbnew,9.0.5
; #@! TF.FileFunction,Plated,1,2,PTH
FMAT,2
METRIC
; #@! TA.AperFunction,Plated,PTH,ViaDrill
T1C0.800
; #@! TA.AperFunction,Plated,PTH,ComponentDrill
T2C0.800
%
G90
G05
T1
X5.648Y62.384
X8.715Y4.13
X14.525Y31.241
X14.73Y59.283
X16.959Y33.263
X18.011Y50.934
X18.47Y39.595
X19.5Y11.0
X19.866Y30.792
X26.27Y40.112
X27.452Y16.604
X28.922Y41.99
X39.09Y59.001
X39.368Y10.11
X40.335Y34.006
X43.267Y41.41
X46.17Y36.442
X48.25Y28.695
X51.79Y27.402
X53.606Y16.606
X56.694Y18.159
X61.134Y8.102
X70.526Y50.745
X71.447Y62.445
X71.737Y66.696
X73.628Y52.408
X75.483Y50.352
X77.285Y54.689
X82.973Y17.529
X85.697Y53.172
X85.886Y31.904
X95.545Y16.6
T2
X7.8Y46.78
X7.8Y44.28
X7.8Y41.58
X7.8Y38.88
X8.21Y35.21
X8.21Y32.67
X8.21Y30.13
X8.21Y27.59
X8.21Y25.05
X8.21Y22.51
X8.21Y19.97
X8.21Y17.43
X8.21Y14.89
X8.21Y12.35
X8.21Y9.81
X10.75Y35.21
X10.75Y32.67
X10.75Y30.13
X10.75Y27.59
X10.75Y25.05
X10.75Y22.51
X10.75Y19.97
X10.75Y17.43
X10.75Y14.89
X10.75Y12.35
X10.75Y9.81
X12.96Y62.15
X12.995Y46.92
X15.5Y62.15
X15.535Y46.92
X18.04Y62.15
X18.075Y46.92
X20.58Y62.15
X20.615Y46.92
X23.12Y62.15
X23.155Y46.92
X25.66Y62.15
X25.695Y46.92
X27.735Y2.572
X28.2Y62.15
X28.235Y46.92
X30.275Y2.572
X30.74Y62.15
X30.775Y46.92
X33.112Y36.58
X33.112Y26.42
X33.28Y62.15
X33.315Y46.92
X34.46Y17.5
X35.82Y62.15
X35.855Y46.92
X36.92Y33.612
X37.0Y17.5
X37.12Y29.269
X37.12Y23.669
X37.14Y26.469
X38.36Y62.15
X38.395Y46.92
X40.9Y62.15
X40.935Y46.92
X42.0Y8.0
X42.0Y2.0
X43.0Y23.5
X43.0Y21.5
X43.44Y62.15
X43.475Y46.92
X45.98Y62.15
X46.015Y46.92
X47.08Y33.612
X48.0Y8.0
X48.0Y2.0
X48.52Y62.15
X48.555Y46.92
X50.04Y37.356
X50.92Y34.112
X51.06Y62.15
X51.095Y46.92
X51.92Y18.887
X53.6Y62.15
X53.635Y46.92
X54.5Y28.955
X54.5Y26.955
X55.48Y37.5
X55.5Y40.3
X55.5Y34.7
X56.14Y62.15
X56.175Y46.92
X57.42Y22.887
X58.68Y62.15
X58.715Y46.92
X60.2Y37.356
X61.08Y34.112
X61.22Y62.15
X61.255Y46.92
X62.08Y18.887
X65.2Y19.02
X66.5Y34.5
X67.58Y22.887
X68.0Y19.0
X68.082Y66.48
X68.082Y43.48
X68.225Y56.66
X68.225Y46.5
X70.5Y34.5
X70.8Y19.02
X71.15Y43.38
X73.612Y29.58
X73.612Y19.42
X75.92Y38.887
X76.888Y33.58
X76.888Y23.42
X77.42Y19.113
X78.85Y43.48
X79.5Y56.66
X79.5Y46.5
X82.082Y66.48
X82.082Y43.48
X82.86Y33.531
X82.88Y36.331
X82.88Y30.731
X86.08Y38.887
X87.58Y19.113
X88.0Y29.0
X88.0Y27.0
X92.5Y59.44
X92.5Y56.9
X92.5Y54.36
X92.5Y51.82
X92.5Y49.28
X92.5Y46.74
X92.5Y44.2
X92.5Y41.66
X92.5Y39.12
X92.5Y36.58
X92.5Y34.04
X92.5Y31.5
X92.5Y28.96
X92.5Y26.42
M30
