%TF.GenerationSoftware,KiCad,Pcbnew,9.0.5*%
%TF.CreationDate,2025-12-01T18:27:16+01:00*%
%TF.ProjectId,fotoaparat,666f746f-6170-4617-9261-742e6b696361,rev?*%
%TF.SameCoordinates,Original*%
%TF.FileFunction,Drillmap*%
%TF.FilePolarity,Positive*%
%FSLAX45Y45*%
G04 Gerber Fmt 4.5, Leading zero omitted, Abs format (unit mm)*
G04 Created by KiCad (PCBNEW 9.0.5) date 2025-12-01 18:27:16*
%MOMM*%
%LPD*%
G01*
G04 APERTURE LIST*
%ADD10C,0.050000*%
%ADD11C,0.200000*%
%ADD12C,0.100000*%
G04 APERTURE END LIST*
D10*
X0Y6900000D02*
X10000000Y6900000D01*
X10000000Y0D01*
X0Y0D01*
X0Y6900000D01*
D11*
D12*
X624810Y6278450D02*
X704810Y6198450D01*
X704810Y6278450D02*
X624810Y6198450D01*
X931530Y452990D02*
X1011530Y372990D01*
X1011530Y452990D02*
X931530Y372990D01*
X1512540Y3164110D02*
X1592540Y3084110D01*
X1592540Y3164110D02*
X1512540Y3084110D01*
X1532990Y5968350D02*
X1612990Y5888350D01*
X1612990Y5968350D02*
X1532990Y5888350D01*
X1755900Y3366340D02*
X1835900Y3286340D01*
X1835900Y3366340D02*
X1755900Y3286340D01*
X1861140Y5133440D02*
X1941140Y5053440D01*
X1941140Y5133440D02*
X1861140Y5053440D01*
X1906970Y3999510D02*
X1986970Y3919510D01*
X1986970Y3999510D02*
X1906970Y3919510D01*
X2010000Y1140000D02*
X2090000Y1060000D01*
X2090000Y1140000D02*
X2010000Y1060000D01*
X2046650Y3119180D02*
X2126650Y3039180D01*
X2126650Y3119180D02*
X2046650Y3039180D01*
X2686980Y4051200D02*
X2766980Y3971200D01*
X2766980Y4051200D02*
X2686980Y3971200D01*
X2805160Y1700440D02*
X2885160Y1620440D01*
X2885160Y1700440D02*
X2805160Y1620440D01*
X2952240Y4239050D02*
X3032240Y4159050D01*
X3032240Y4239050D02*
X2952240Y4159050D01*
X3969040Y5940120D02*
X4049040Y5860120D01*
X4049040Y5940120D02*
X3969040Y5860120D01*
X3996790Y1051020D02*
X4076790Y971020D01*
X4076790Y1051020D02*
X3996790Y971020D01*
X4093500Y3440640D02*
X4173500Y3360640D01*
X4173500Y3440640D02*
X4093500Y3360640D01*
X4386690Y4180970D02*
X4466690Y4100970D01*
X4466690Y4180970D02*
X4386690Y4100970D01*
X4676960Y3684250D02*
X4756960Y3604250D01*
X4756960Y3684250D02*
X4676960Y3604250D01*
X4885030Y2909520D02*
X4965030Y2829520D01*
X4965030Y2909520D02*
X4885030Y2829520D01*
X5238980Y2780180D02*
X5318980Y2700180D01*
X5318980Y2780180D02*
X5238980Y2700180D01*
X5420560Y1700560D02*
X5500560Y1620560D01*
X5500560Y1700560D02*
X5420560Y1620560D01*
X5729350Y1855920D02*
X5809350Y1775920D01*
X5809350Y1855920D02*
X5729350Y1775920D01*
X6173370Y850160D02*
X6253370Y770160D01*
X6253370Y850160D02*
X6173370Y770160D01*
X7112640Y5114540D02*
X7192640Y5034540D01*
X7192640Y5114540D02*
X7112640Y5034540D01*
X7204650Y6284510D02*
X7284650Y6204510D01*
X7284650Y6284510D02*
X7204650Y6204510D01*
X7233680Y6709590D02*
X7313680Y6629590D01*
X7313680Y6709590D02*
X7233680Y6629590D01*
X7422780Y5280830D02*
X7502780Y5200830D01*
X7502780Y5280830D02*
X7422780Y5200830D01*
X7608310Y5075250D02*
X7688310Y4995250D01*
X7688310Y5075250D02*
X7608310Y4995250D01*
X7788480Y5508950D02*
X7868480Y5428950D01*
X7868480Y5508950D02*
X7788480Y5428950D01*
X8357330Y1792930D02*
X8437330Y1712930D01*
X8437330Y1792930D02*
X8357330Y1712930D01*
X8629720Y5357210D02*
X8709720Y5277210D01*
X8709720Y5357210D02*
X8629720Y5277210D01*
X8648570Y3230430D02*
X8728570Y3150430D01*
X8728570Y3230430D02*
X8648570Y3150430D01*
X9614550Y1699970D02*
X9694550Y1619970D01*
X9694550Y1699970D02*
X9614550Y1619970D01*
X920000Y4678000D02*
G75*
G02*
X840000Y4678000I-40000J0D01*
G01*
X840000Y4678000D02*
G75*
G02*
X920000Y4678000I40000J0D01*
G01*
X920000Y4428000D02*
G75*
G02*
X840000Y4428000I-40000J0D01*
G01*
X840000Y4428000D02*
G75*
G02*
X920000Y4428000I40000J0D01*
G01*
X920000Y4158000D02*
G75*
G02*
X840000Y4158000I-40000J0D01*
G01*
X840000Y4158000D02*
G75*
G02*
X920000Y4158000I40000J0D01*
G01*
X920000Y3888000D02*
G75*
G02*
X840000Y3888000I-40000J0D01*
G01*
X840000Y3888000D02*
G75*
G02*
X920000Y3888000I40000J0D01*
G01*
X961000Y3521000D02*
G75*
G02*
X881000Y3521000I-40000J0D01*
G01*
X881000Y3521000D02*
G75*
G02*
X961000Y3521000I40000J0D01*
G01*
X961000Y3267000D02*
G75*
G02*
X881000Y3267000I-40000J0D01*
G01*
X881000Y3267000D02*
G75*
G02*
X961000Y3267000I40000J0D01*
G01*
X961000Y3013000D02*
G75*
G02*
X881000Y3013000I-40000J0D01*
G01*
X881000Y3013000D02*
G75*
G02*
X961000Y3013000I40000J0D01*
G01*
X961000Y2759000D02*
G75*
G02*
X881000Y2759000I-40000J0D01*
G01*
X881000Y2759000D02*
G75*
G02*
X961000Y2759000I40000J0D01*
G01*
X961000Y2505000D02*
G75*
G02*
X881000Y2505000I-40000J0D01*
G01*
X881000Y2505000D02*
G75*
G02*
X961000Y2505000I40000J0D01*
G01*
X961000Y2251000D02*
G75*
G02*
X881000Y2251000I-40000J0D01*
G01*
X881000Y2251000D02*
G75*
G02*
X961000Y2251000I40000J0D01*
G01*
X961000Y1997000D02*
G75*
G02*
X881000Y1997000I-40000J0D01*
G01*
X881000Y1997000D02*
G75*
G02*
X961000Y1997000I40000J0D01*
G01*
X961000Y1743000D02*
G75*
G02*
X881000Y1743000I-40000J0D01*
G01*
X881000Y1743000D02*
G75*
G02*
X961000Y1743000I40000J0D01*
G01*
X961000Y1489000D02*
G75*
G02*
X881000Y1489000I-40000J0D01*
G01*
X881000Y1489000D02*
G75*
G02*
X961000Y1489000I40000J0D01*
G01*
X961000Y1235000D02*
G75*
G02*
X881000Y1235000I-40000J0D01*
G01*
X881000Y1235000D02*
G75*
G02*
X961000Y1235000I40000J0D01*
G01*
X961000Y981000D02*
G75*
G02*
X881000Y981000I-40000J0D01*
G01*
X881000Y981000D02*
G75*
G02*
X961000Y981000I40000J0D01*
G01*
X1215000Y3521000D02*
G75*
G02*
X1135000Y3521000I-40000J0D01*
G01*
X1135000Y3521000D02*
G75*
G02*
X1215000Y3521000I40000J0D01*
G01*
X1215000Y3267000D02*
G75*
G02*
X1135000Y3267000I-40000J0D01*
G01*
X1135000Y3267000D02*
G75*
G02*
X1215000Y3267000I40000J0D01*
G01*
X1215000Y3013000D02*
G75*
G02*
X1135000Y3013000I-40000J0D01*
G01*
X1135000Y3013000D02*
G75*
G02*
X1215000Y3013000I40000J0D01*
G01*
X1215000Y2759000D02*
G75*
G02*
X1135000Y2759000I-40000J0D01*
G01*
X1135000Y2759000D02*
G75*
G02*
X1215000Y2759000I40000J0D01*
G01*
X1215000Y2505000D02*
G75*
G02*
X1135000Y2505000I-40000J0D01*
G01*
X1135000Y2505000D02*
G75*
G02*
X1215000Y2505000I40000J0D01*
G01*
X1215000Y2251000D02*
G75*
G02*
X1135000Y2251000I-40000J0D01*
G01*
X1135000Y2251000D02*
G75*
G02*
X1215000Y2251000I40000J0D01*
G01*
X1215000Y1997000D02*
G75*
G02*
X1135000Y1997000I-40000J0D01*
G01*
X1135000Y1997000D02*
G75*
G02*
X1215000Y1997000I40000J0D01*
G01*
X1215000Y1743000D02*
G75*
G02*
X1135000Y1743000I-40000J0D01*
G01*
X1135000Y1743000D02*
G75*
G02*
X1215000Y1743000I40000J0D01*
G01*
X1215000Y1489000D02*
G75*
G02*
X1135000Y1489000I-40000J0D01*
G01*
X1135000Y1489000D02*
G75*
G02*
X1215000Y1489000I40000J0D01*
G01*
X1215000Y1235000D02*
G75*
G02*
X1135000Y1235000I-40000J0D01*
G01*
X1135000Y1235000D02*
G75*
G02*
X1215000Y1235000I40000J0D01*
G01*
X1215000Y981000D02*
G75*
G02*
X1135000Y981000I-40000J0D01*
G01*
X1135000Y981000D02*
G75*
G02*
X1215000Y981000I40000J0D01*
G01*
X1436000Y6215000D02*
G75*
G02*
X1356000Y6215000I-40000J0D01*
G01*
X1356000Y6215000D02*
G75*
G02*
X1436000Y6215000I40000J0D01*
G01*
X1439500Y4692000D02*
G75*
G02*
X1359500Y4692000I-40000J0D01*
G01*
X1359500Y4692000D02*
G75*
G02*
X1439500Y4692000I40000J0D01*
G01*
X1690000Y6215000D02*
G75*
G02*
X1610000Y6215000I-40000J0D01*
G01*
X1610000Y6215000D02*
G75*
G02*
X1690000Y6215000I40000J0D01*
G01*
X1693500Y4692000D02*
G75*
G02*
X1613500Y4692000I-40000J0D01*
G01*
X1613500Y4692000D02*
G75*
G02*
X1693500Y4692000I40000J0D01*
G01*
X1944000Y6215000D02*
G75*
G02*
X1864000Y6215000I-40000J0D01*
G01*
X1864000Y6215000D02*
G75*
G02*
X1944000Y6215000I40000J0D01*
G01*
X1947500Y4692000D02*
G75*
G02*
X1867500Y4692000I-40000J0D01*
G01*
X1867500Y4692000D02*
G75*
G02*
X1947500Y4692000I40000J0D01*
G01*
X2198000Y6215000D02*
G75*
G02*
X2118000Y6215000I-40000J0D01*
G01*
X2118000Y6215000D02*
G75*
G02*
X2198000Y6215000I40000J0D01*
G01*
X2201500Y4692000D02*
G75*
G02*
X2121500Y4692000I-40000J0D01*
G01*
X2121500Y4692000D02*
G75*
G02*
X2201500Y4692000I40000J0D01*
G01*
X2452000Y6215000D02*
G75*
G02*
X2372000Y6215000I-40000J0D01*
G01*
X2372000Y6215000D02*
G75*
G02*
X2452000Y6215000I40000J0D01*
G01*
X2455500Y4692000D02*
G75*
G02*
X2375500Y4692000I-40000J0D01*
G01*
X2375500Y4692000D02*
G75*
G02*
X2455500Y4692000I40000J0D01*
G01*
X2706000Y6215000D02*
G75*
G02*
X2626000Y6215000I-40000J0D01*
G01*
X2626000Y6215000D02*
G75*
G02*
X2706000Y6215000I40000J0D01*
G01*
X2709500Y4692000D02*
G75*
G02*
X2629500Y4692000I-40000J0D01*
G01*
X2629500Y4692000D02*
G75*
G02*
X2709500Y4692000I40000J0D01*
G01*
X2913500Y257250D02*
G75*
G02*
X2833500Y257250I-40000J0D01*
G01*
X2833500Y257250D02*
G75*
G02*
X2913500Y257250I40000J0D01*
G01*
X2960000Y6215000D02*
G75*
G02*
X2880000Y6215000I-40000J0D01*
G01*
X2880000Y6215000D02*
G75*
G02*
X2960000Y6215000I40000J0D01*
G01*
X2963500Y4692000D02*
G75*
G02*
X2883500Y4692000I-40000J0D01*
G01*
X2883500Y4692000D02*
G75*
G02*
X2963500Y4692000I40000J0D01*
G01*
X3167500Y257250D02*
G75*
G02*
X3087500Y257250I-40000J0D01*
G01*
X3087500Y257250D02*
G75*
G02*
X3167500Y257250I40000J0D01*
G01*
X3214000Y6215000D02*
G75*
G02*
X3134000Y6215000I-40000J0D01*
G01*
X3134000Y6215000D02*
G75*
G02*
X3214000Y6215000I40000J0D01*
G01*
X3217500Y4692000D02*
G75*
G02*
X3137500Y4692000I-40000J0D01*
G01*
X3137500Y4692000D02*
G75*
G02*
X3217500Y4692000I40000J0D01*
G01*
X3451250Y3658000D02*
G75*
G02*
X3371250Y3658000I-40000J0D01*
G01*
X3371250Y3658000D02*
G75*
G02*
X3451250Y3658000I40000J0D01*
G01*
X3451250Y2642000D02*
G75*
G02*
X3371250Y2642000I-40000J0D01*
G01*
X3371250Y2642000D02*
G75*
G02*
X3451250Y2642000I40000J0D01*
G01*
X3468000Y6215000D02*
G75*
G02*
X3388000Y6215000I-40000J0D01*
G01*
X3388000Y6215000D02*
G75*
G02*
X3468000Y6215000I40000J0D01*
G01*
X3471500Y4692000D02*
G75*
G02*
X3391500Y4692000I-40000J0D01*
G01*
X3391500Y4692000D02*
G75*
G02*
X3471500Y4692000I40000J0D01*
G01*
X3586000Y1750000D02*
G75*
G02*
X3506000Y1750000I-40000J0D01*
G01*
X3506000Y1750000D02*
G75*
G02*
X3586000Y1750000I40000J0D01*
G01*
X3722000Y6215000D02*
G75*
G02*
X3642000Y6215000I-40000J0D01*
G01*
X3642000Y6215000D02*
G75*
G02*
X3722000Y6215000I40000J0D01*
G01*
X3725500Y4692000D02*
G75*
G02*
X3645500Y4692000I-40000J0D01*
G01*
X3645500Y4692000D02*
G75*
G02*
X3725500Y4692000I40000J0D01*
G01*
X3832000Y3361250D02*
G75*
G02*
X3752000Y3361250I-40000J0D01*
G01*
X3752000Y3361250D02*
G75*
G02*
X3832000Y3361250I40000J0D01*
G01*
X3840000Y1750000D02*
G75*
G02*
X3760000Y1750000I-40000J0D01*
G01*
X3760000Y1750000D02*
G75*
G02*
X3840000Y1750000I40000J0D01*
G01*
X3852000Y2926890D02*
G75*
G02*
X3772000Y2926890I-40000J0D01*
G01*
X3772000Y2926890D02*
G75*
G02*
X3852000Y2926890I40000J0D01*
G01*
X3852000Y2366890D02*
G75*
G02*
X3772000Y2366890I-40000J0D01*
G01*
X3772000Y2366890D02*
G75*
G02*
X3852000Y2366890I40000J0D01*
G01*
X3854000Y2646890D02*
G75*
G02*
X3774000Y2646890I-40000J0D01*
G01*
X3774000Y2646890D02*
G75*
G02*
X3854000Y2646890I40000J0D01*
G01*
X3976000Y6215000D02*
G75*
G02*
X3896000Y6215000I-40000J0D01*
G01*
X3896000Y6215000D02*
G75*
G02*
X3976000Y6215000I40000J0D01*
G01*
X3979500Y4692000D02*
G75*
G02*
X3899500Y4692000I-40000J0D01*
G01*
X3899500Y4692000D02*
G75*
G02*
X3979500Y4692000I40000J0D01*
G01*
X4230000Y6215000D02*
G75*
G02*
X4150000Y6215000I-40000J0D01*
G01*
X4150000Y6215000D02*
G75*
G02*
X4230000Y6215000I40000J0D01*
G01*
X4233500Y4692000D02*
G75*
G02*
X4153500Y4692000I-40000J0D01*
G01*
X4153500Y4692000D02*
G75*
G02*
X4233500Y4692000I40000J0D01*
G01*
X4340000Y800000D02*
G75*
G02*
X4260000Y800000I-40000J0D01*
G01*
X4260000Y800000D02*
G75*
G02*
X4340000Y800000I40000J0D01*
G01*
X4340000Y200000D02*
G75*
G02*
X4260000Y200000I-40000J0D01*
G01*
X4260000Y200000D02*
G75*
G02*
X4340000Y200000I40000J0D01*
G01*
X4440000Y2350000D02*
G75*
G02*
X4360000Y2350000I-40000J0D01*
G01*
X4360000Y2350000D02*
G75*
G02*
X4440000Y2350000I40000J0D01*
G01*
X4440000Y2150000D02*
G75*
G02*
X4360000Y2150000I-40000J0D01*
G01*
X4360000Y2150000D02*
G75*
G02*
X4440000Y2150000I40000J0D01*
G01*
X4484000Y6215000D02*
G75*
G02*
X4404000Y6215000I-40000J0D01*
G01*
X4404000Y6215000D02*
G75*
G02*
X4484000Y6215000I40000J0D01*
G01*
X4487500Y4692000D02*
G75*
G02*
X4407500Y4692000I-40000J0D01*
G01*
X4407500Y4692000D02*
G75*
G02*
X4487500Y4692000I40000J0D01*
G01*
X4738000Y6215000D02*
G75*
G02*
X4658000Y6215000I-40000J0D01*
G01*
X4658000Y6215000D02*
G75*
G02*
X4738000Y6215000I40000J0D01*
G01*
X4741500Y4692000D02*
G75*
G02*
X4661500Y4692000I-40000J0D01*
G01*
X4661500Y4692000D02*
G75*
G02*
X4741500Y4692000I40000J0D01*
G01*
X4848000Y3361250D02*
G75*
G02*
X4768000Y3361250I-40000J0D01*
G01*
X4768000Y3361250D02*
G75*
G02*
X4848000Y3361250I40000J0D01*
G01*
X4940000Y800000D02*
G75*
G02*
X4860000Y800000I-40000J0D01*
G01*
X4860000Y800000D02*
G75*
G02*
X4940000Y800000I40000J0D01*
G01*
X4940000Y200000D02*
G75*
G02*
X4860000Y200000I-40000J0D01*
G01*
X4860000Y200000D02*
G75*
G02*
X4940000Y200000I40000J0D01*
G01*
X4992000Y6215000D02*
G75*
G02*
X4912000Y6215000I-40000J0D01*
G01*
X4912000Y6215000D02*
G75*
G02*
X4992000Y6215000I40000J0D01*
G01*
X4995500Y4692000D02*
G75*
G02*
X4915500Y4692000I-40000J0D01*
G01*
X4915500Y4692000D02*
G75*
G02*
X4995500Y4692000I40000J0D01*
G01*
X5144000Y3735640D02*
G75*
G02*
X5064000Y3735640I-40000J0D01*
G01*
X5064000Y3735640D02*
G75*
G02*
X5144000Y3735640I40000J0D01*
G01*
X5232000Y3411250D02*
G75*
G02*
X5152000Y3411250I-40000J0D01*
G01*
X5152000Y3411250D02*
G75*
G02*
X5232000Y3411250I40000J0D01*
G01*
X5246000Y6215000D02*
G75*
G02*
X5166000Y6215000I-40000J0D01*
G01*
X5166000Y6215000D02*
G75*
G02*
X5246000Y6215000I40000J0D01*
G01*
X5249500Y4692000D02*
G75*
G02*
X5169500Y4692000I-40000J0D01*
G01*
X5169500Y4692000D02*
G75*
G02*
X5249500Y4692000I40000J0D01*
G01*
X5332000Y1888750D02*
G75*
G02*
X5252000Y1888750I-40000J0D01*
G01*
X5252000Y1888750D02*
G75*
G02*
X5332000Y1888750I40000J0D01*
G01*
X5500000Y6215000D02*
G75*
G02*
X5420000Y6215000I-40000J0D01*
G01*
X5420000Y6215000D02*
G75*
G02*
X5500000Y6215000I40000J0D01*
G01*
X5503500Y4692000D02*
G75*
G02*
X5423500Y4692000I-40000J0D01*
G01*
X5423500Y4692000D02*
G75*
G02*
X5503500Y4692000I40000J0D01*
G01*
X5590000Y2895510D02*
G75*
G02*
X5510000Y2895510I-40000J0D01*
G01*
X5510000Y2895510D02*
G75*
G02*
X5590000Y2895510I40000J0D01*
G01*
X5590000Y2695510D02*
G75*
G02*
X5510000Y2695510I-40000J0D01*
G01*
X5510000Y2695510D02*
G75*
G02*
X5590000Y2695510I40000J0D01*
G01*
X5688000Y3750000D02*
G75*
G02*
X5608000Y3750000I-40000J0D01*
G01*
X5608000Y3750000D02*
G75*
G02*
X5688000Y3750000I40000J0D01*
G01*
X5690000Y4030000D02*
G75*
G02*
X5610000Y4030000I-40000J0D01*
G01*
X5610000Y4030000D02*
G75*
G02*
X5690000Y4030000I40000J0D01*
G01*
X5690000Y3470000D02*
G75*
G02*
X5610000Y3470000I-40000J0D01*
G01*
X5610000Y3470000D02*
G75*
G02*
X5690000Y3470000I40000J0D01*
G01*
X5754000Y6215000D02*
G75*
G02*
X5674000Y6215000I-40000J0D01*
G01*
X5674000Y6215000D02*
G75*
G02*
X5754000Y6215000I40000J0D01*
G01*
X5757500Y4692000D02*
G75*
G02*
X5677500Y4692000I-40000J0D01*
G01*
X5677500Y4692000D02*
G75*
G02*
X5757500Y4692000I40000J0D01*
G01*
X5882000Y2288750D02*
G75*
G02*
X5802000Y2288750I-40000J0D01*
G01*
X5802000Y2288750D02*
G75*
G02*
X5882000Y2288750I40000J0D01*
G01*
X6008000Y6215000D02*
G75*
G02*
X5928000Y6215000I-40000J0D01*
G01*
X5928000Y6215000D02*
G75*
G02*
X6008000Y6215000I40000J0D01*
G01*
X6011500Y4692000D02*
G75*
G02*
X5931500Y4692000I-40000J0D01*
G01*
X5931500Y4692000D02*
G75*
G02*
X6011500Y4692000I40000J0D01*
G01*
X6160000Y3735640D02*
G75*
G02*
X6080000Y3735640I-40000J0D01*
G01*
X6080000Y3735640D02*
G75*
G02*
X6160000Y3735640I40000J0D01*
G01*
X6248000Y3411250D02*
G75*
G02*
X6168000Y3411250I-40000J0D01*
G01*
X6168000Y3411250D02*
G75*
G02*
X6248000Y3411250I40000J0D01*
G01*
X6262000Y6215000D02*
G75*
G02*
X6182000Y6215000I-40000J0D01*
G01*
X6182000Y6215000D02*
G75*
G02*
X6262000Y6215000I40000J0D01*
G01*
X6265500Y4692000D02*
G75*
G02*
X6185500Y4692000I-40000J0D01*
G01*
X6185500Y4692000D02*
G75*
G02*
X6265500Y4692000I40000J0D01*
G01*
X6348000Y1888750D02*
G75*
G02*
X6268000Y1888750I-40000J0D01*
G01*
X6268000Y1888750D02*
G75*
G02*
X6348000Y1888750I40000J0D01*
G01*
X6660000Y1902000D02*
G75*
G02*
X6580000Y1902000I-40000J0D01*
G01*
X6580000Y1902000D02*
G75*
G02*
X6660000Y1902000I40000J0D01*
G01*
X6790000Y3450000D02*
G75*
G02*
X6710000Y3450000I-40000J0D01*
G01*
X6710000Y3450000D02*
G75*
G02*
X6790000Y3450000I40000J0D01*
G01*
X6898000Y2288750D02*
G75*
G02*
X6818000Y2288750I-40000J0D01*
G01*
X6818000Y2288750D02*
G75*
G02*
X6898000Y2288750I40000J0D01*
G01*
X6940000Y1900000D02*
G75*
G02*
X6860000Y1900000I-40000J0D01*
G01*
X6860000Y1900000D02*
G75*
G02*
X6940000Y1900000I40000J0D01*
G01*
X6948234Y6648000D02*
G75*
G02*
X6868234Y6648000I-40000J0D01*
G01*
X6868234Y6648000D02*
G75*
G02*
X6948234Y6648000I40000J0D01*
G01*
X6948234Y4348000D02*
G75*
G02*
X6868234Y4348000I-40000J0D01*
G01*
X6868234Y4348000D02*
G75*
G02*
X6948234Y4348000I40000J0D01*
G01*
X6962500Y5666000D02*
G75*
G02*
X6882500Y5666000I-40000J0D01*
G01*
X6882500Y5666000D02*
G75*
G02*
X6962500Y5666000I40000J0D01*
G01*
X6962500Y4650000D02*
G75*
G02*
X6882500Y4650000I-40000J0D01*
G01*
X6882500Y4650000D02*
G75*
G02*
X6962500Y4650000I40000J0D01*
G01*
X7190000Y3450000D02*
G75*
G02*
X7110000Y3450000I-40000J0D01*
G01*
X7110000Y3450000D02*
G75*
G02*
X7190000Y3450000I40000J0D01*
G01*
X7220000Y1902000D02*
G75*
G02*
X7140000Y1902000I-40000J0D01*
G01*
X7140000Y1902000D02*
G75*
G02*
X7220000Y1902000I40000J0D01*
G01*
X7255000Y4338000D02*
G75*
G02*
X7175000Y4338000I-40000J0D01*
G01*
X7175000Y4338000D02*
G75*
G02*
X7255000Y4338000I40000J0D01*
G01*
X7501250Y2958000D02*
G75*
G02*
X7421250Y2958000I-40000J0D01*
G01*
X7421250Y2958000D02*
G75*
G02*
X7501250Y2958000I40000J0D01*
G01*
X7501250Y1942000D02*
G75*
G02*
X7421250Y1942000I-40000J0D01*
G01*
X7421250Y1942000D02*
G75*
G02*
X7501250Y1942000I40000J0D01*
G01*
X7732000Y3888750D02*
G75*
G02*
X7652000Y3888750I-40000J0D01*
G01*
X7652000Y3888750D02*
G75*
G02*
X7732000Y3888750I40000J0D01*
G01*
X7828750Y3358000D02*
G75*
G02*
X7748750Y3358000I-40000J0D01*
G01*
X7748750Y3358000D02*
G75*
G02*
X7828750Y3358000I40000J0D01*
G01*
X7828750Y2342000D02*
G75*
G02*
X7748750Y2342000I-40000J0D01*
G01*
X7748750Y2342000D02*
G75*
G02*
X7828750Y2342000I40000J0D01*
G01*
X7882000Y1911250D02*
G75*
G02*
X7802000Y1911250I-40000J0D01*
G01*
X7802000Y1911250D02*
G75*
G02*
X7882000Y1911250I40000J0D01*
G01*
X8025000Y4348000D02*
G75*
G02*
X7945000Y4348000I-40000J0D01*
G01*
X7945000Y4348000D02*
G75*
G02*
X8025000Y4348000I40000J0D01*
G01*
X8090000Y5666000D02*
G75*
G02*
X8010000Y5666000I-40000J0D01*
G01*
X8010000Y5666000D02*
G75*
G02*
X8090000Y5666000I40000J0D01*
G01*
X8090000Y4650000D02*
G75*
G02*
X8010000Y4650000I-40000J0D01*
G01*
X8010000Y4650000D02*
G75*
G02*
X8090000Y4650000I40000J0D01*
G01*
X8348234Y6648000D02*
G75*
G02*
X8268234Y6648000I-40000J0D01*
G01*
X8268234Y6648000D02*
G75*
G02*
X8348234Y6648000I40000J0D01*
G01*
X8348234Y4348000D02*
G75*
G02*
X8268234Y4348000I-40000J0D01*
G01*
X8268234Y4348000D02*
G75*
G02*
X8348234Y4348000I40000J0D01*
G01*
X8426000Y3353115D02*
G75*
G02*
X8346000Y3353115I-40000J0D01*
G01*
X8346000Y3353115D02*
G75*
G02*
X8426000Y3353115I40000J0D01*
G01*
X8428000Y3633115D02*
G75*
G02*
X8348000Y3633115I-40000J0D01*
G01*
X8348000Y3633115D02*
G75*
G02*
X8428000Y3633115I40000J0D01*
G01*
X8428000Y3073115D02*
G75*
G02*
X8348000Y3073115I-40000J0D01*
G01*
X8348000Y3073115D02*
G75*
G02*
X8428000Y3073115I40000J0D01*
G01*
X8748000Y3888750D02*
G75*
G02*
X8668000Y3888750I-40000J0D01*
G01*
X8668000Y3888750D02*
G75*
G02*
X8748000Y3888750I40000J0D01*
G01*
X8898000Y1911250D02*
G75*
G02*
X8818000Y1911250I-40000J0D01*
G01*
X8818000Y1911250D02*
G75*
G02*
X8898000Y1911250I40000J0D01*
G01*
X8940000Y2900000D02*
G75*
G02*
X8860000Y2900000I-40000J0D01*
G01*
X8860000Y2900000D02*
G75*
G02*
X8940000Y2900000I40000J0D01*
G01*
X8940000Y2700000D02*
G75*
G02*
X8860000Y2700000I-40000J0D01*
G01*
X8860000Y2700000D02*
G75*
G02*
X8940000Y2700000I40000J0D01*
G01*
X9390000Y5944000D02*
G75*
G02*
X9310000Y5944000I-40000J0D01*
G01*
X9310000Y5944000D02*
G75*
G02*
X9390000Y5944000I40000J0D01*
G01*
X9390000Y5690000D02*
G75*
G02*
X9310000Y5690000I-40000J0D01*
G01*
X9310000Y5690000D02*
G75*
G02*
X9390000Y5690000I40000J0D01*
G01*
X9390000Y5436000D02*
G75*
G02*
X9310000Y5436000I-40000J0D01*
G01*
X9310000Y5436000D02*
G75*
G02*
X9390000Y5436000I40000J0D01*
G01*
X9390000Y5182000D02*
G75*
G02*
X9310000Y5182000I-40000J0D01*
G01*
X9310000Y5182000D02*
G75*
G02*
X9390000Y5182000I40000J0D01*
G01*
X9390000Y4928000D02*
G75*
G02*
X9310000Y4928000I-40000J0D01*
G01*
X9310000Y4928000D02*
G75*
G02*
X9390000Y4928000I40000J0D01*
G01*
X9390000Y4674000D02*
G75*
G02*
X9310000Y4674000I-40000J0D01*
G01*
X9310000Y4674000D02*
G75*
G02*
X9390000Y4674000I40000J0D01*
G01*
X9390000Y4420000D02*
G75*
G02*
X9310000Y4420000I-40000J0D01*
G01*
X9310000Y4420000D02*
G75*
G02*
X9390000Y4420000I40000J0D01*
G01*
X9390000Y4166000D02*
G75*
G02*
X9310000Y4166000I-40000J0D01*
G01*
X9310000Y4166000D02*
G75*
G02*
X9390000Y4166000I40000J0D01*
G01*
X9390000Y3912000D02*
G75*
G02*
X9310000Y3912000I-40000J0D01*
G01*
X9310000Y3912000D02*
G75*
G02*
X9390000Y3912000I40000J0D01*
G01*
X9390000Y3658000D02*
G75*
G02*
X9310000Y3658000I-40000J0D01*
G01*
X9310000Y3658000D02*
G75*
G02*
X9390000Y3658000I40000J0D01*
G01*
X9390000Y3404000D02*
G75*
G02*
X9310000Y3404000I-40000J0D01*
G01*
X9310000Y3404000D02*
G75*
G02*
X9390000Y3404000I40000J0D01*
G01*
X9390000Y3150000D02*
G75*
G02*
X9310000Y3150000I-40000J0D01*
G01*
X9310000Y3150000D02*
G75*
G02*
X9390000Y3150000I40000J0D01*
G01*
X9390000Y2896000D02*
G75*
G02*
X9310000Y2896000I-40000J0D01*
G01*
X9310000Y2896000D02*
G75*
G02*
X9390000Y2896000I40000J0D01*
G01*
X9390000Y2642000D02*
G75*
G02*
X9310000Y2642000I-40000J0D01*
G01*
X9310000Y2642000D02*
G75*
G02*
X9390000Y2642000I40000J0D01*
G01*
D11*
X258277Y-313984D02*
X258277Y-113984D01*
X258277Y-113984D02*
X305896Y-113984D01*
X305896Y-113984D02*
X334467Y-123508D01*
X334467Y-123508D02*
X353515Y-142555D01*
X353515Y-142555D02*
X363039Y-161603D01*
X363039Y-161603D02*
X372562Y-199698D01*
X372562Y-199698D02*
X372562Y-228269D01*
X372562Y-228269D02*
X363039Y-266365D01*
X363039Y-266365D02*
X353515Y-285412D01*
X353515Y-285412D02*
X334467Y-304460D01*
X334467Y-304460D02*
X305896Y-313984D01*
X305896Y-313984D02*
X258277Y-313984D01*
X458277Y-313984D02*
X458277Y-180650D01*
X458277Y-218746D02*
X467801Y-199698D01*
X467801Y-199698D02*
X477324Y-190174D01*
X477324Y-190174D02*
X496372Y-180650D01*
X496372Y-180650D02*
X515420Y-180650D01*
X582086Y-313984D02*
X582086Y-180650D01*
X582086Y-113984D02*
X572563Y-123508D01*
X572563Y-123508D02*
X582086Y-133031D01*
X582086Y-133031D02*
X591610Y-123508D01*
X591610Y-123508D02*
X582086Y-113984D01*
X582086Y-113984D02*
X582086Y-133031D01*
X705896Y-313984D02*
X686848Y-304460D01*
X686848Y-304460D02*
X677324Y-285412D01*
X677324Y-285412D02*
X677324Y-113984D01*
X810658Y-313984D02*
X791610Y-304460D01*
X791610Y-304460D02*
X782086Y-285412D01*
X782086Y-285412D02*
X782086Y-113984D01*
X1039229Y-313984D02*
X1039229Y-113984D01*
X1039229Y-113984D02*
X1105896Y-256841D01*
X1105896Y-256841D02*
X1172563Y-113984D01*
X1172563Y-113984D02*
X1172563Y-313984D01*
X1353515Y-313984D02*
X1353515Y-209222D01*
X1353515Y-209222D02*
X1343991Y-190174D01*
X1343991Y-190174D02*
X1324944Y-180650D01*
X1324944Y-180650D02*
X1286848Y-180650D01*
X1286848Y-180650D02*
X1267801Y-190174D01*
X1353515Y-304460D02*
X1334467Y-313984D01*
X1334467Y-313984D02*
X1286848Y-313984D01*
X1286848Y-313984D02*
X1267801Y-304460D01*
X1267801Y-304460D02*
X1258277Y-285412D01*
X1258277Y-285412D02*
X1258277Y-266365D01*
X1258277Y-266365D02*
X1267801Y-247317D01*
X1267801Y-247317D02*
X1286848Y-237793D01*
X1286848Y-237793D02*
X1334467Y-237793D01*
X1334467Y-237793D02*
X1353515Y-228269D01*
X1448753Y-180650D02*
X1448753Y-380650D01*
X1448753Y-190174D02*
X1467801Y-180650D01*
X1467801Y-180650D02*
X1505896Y-180650D01*
X1505896Y-180650D02*
X1524943Y-190174D01*
X1524943Y-190174D02*
X1534467Y-199698D01*
X1534467Y-199698D02*
X1543991Y-218746D01*
X1543991Y-218746D02*
X1543991Y-275889D01*
X1543991Y-275889D02*
X1534467Y-294936D01*
X1534467Y-294936D02*
X1524943Y-304460D01*
X1524943Y-304460D02*
X1505896Y-313984D01*
X1505896Y-313984D02*
X1467801Y-313984D01*
X1467801Y-313984D02*
X1448753Y-304460D01*
X1629705Y-294936D02*
X1639229Y-304460D01*
X1639229Y-304460D02*
X1629705Y-313984D01*
X1629705Y-313984D02*
X1620182Y-304460D01*
X1620182Y-304460D02*
X1629705Y-294936D01*
X1629705Y-294936D02*
X1629705Y-313984D01*
X1629705Y-190174D02*
X1639229Y-199698D01*
X1639229Y-199698D02*
X1629705Y-209222D01*
X1629705Y-209222D02*
X1620182Y-199698D01*
X1620182Y-199698D02*
X1629705Y-190174D01*
X1629705Y-190174D02*
X1629705Y-209222D01*
D12*
X-82500Y-602500D02*
X-2500Y-682500D01*
X-2500Y-602500D02*
X-82500Y-682500D01*
D11*
X296372Y-533984D02*
X315420Y-533984D01*
X315420Y-533984D02*
X334467Y-543508D01*
X334467Y-543508D02*
X343991Y-553031D01*
X343991Y-553031D02*
X353515Y-572079D01*
X353515Y-572079D02*
X363039Y-610174D01*
X363039Y-610174D02*
X363039Y-657793D01*
X363039Y-657793D02*
X353515Y-695889D01*
X353515Y-695889D02*
X343991Y-714936D01*
X343991Y-714936D02*
X334467Y-724460D01*
X334467Y-724460D02*
X315420Y-733984D01*
X315420Y-733984D02*
X296372Y-733984D01*
X296372Y-733984D02*
X277324Y-724460D01*
X277324Y-724460D02*
X267801Y-714936D01*
X267801Y-714936D02*
X258277Y-695889D01*
X258277Y-695889D02*
X248753Y-657793D01*
X248753Y-657793D02*
X248753Y-610174D01*
X248753Y-610174D02*
X258277Y-572079D01*
X258277Y-572079D02*
X267801Y-553031D01*
X267801Y-553031D02*
X277324Y-543508D01*
X277324Y-543508D02*
X296372Y-533984D01*
X448753Y-714936D02*
X458277Y-724460D01*
X458277Y-724460D02*
X448753Y-733984D01*
X448753Y-733984D02*
X439229Y-724460D01*
X439229Y-724460D02*
X448753Y-714936D01*
X448753Y-714936D02*
X448753Y-733984D01*
X572563Y-619698D02*
X553515Y-610174D01*
X553515Y-610174D02*
X543991Y-600650D01*
X543991Y-600650D02*
X534467Y-581603D01*
X534467Y-581603D02*
X534467Y-572079D01*
X534467Y-572079D02*
X543991Y-553031D01*
X543991Y-553031D02*
X553515Y-543508D01*
X553515Y-543508D02*
X572563Y-533984D01*
X572563Y-533984D02*
X610658Y-533984D01*
X610658Y-533984D02*
X629705Y-543508D01*
X629705Y-543508D02*
X639229Y-553031D01*
X639229Y-553031D02*
X648753Y-572079D01*
X648753Y-572079D02*
X648753Y-581603D01*
X648753Y-581603D02*
X639229Y-600650D01*
X639229Y-600650D02*
X629705Y-610174D01*
X629705Y-610174D02*
X610658Y-619698D01*
X610658Y-619698D02*
X572563Y-619698D01*
X572563Y-619698D02*
X553515Y-629222D01*
X553515Y-629222D02*
X543991Y-638746D01*
X543991Y-638746D02*
X534467Y-657793D01*
X534467Y-657793D02*
X534467Y-695889D01*
X534467Y-695889D02*
X543991Y-714936D01*
X543991Y-714936D02*
X553515Y-724460D01*
X553515Y-724460D02*
X572563Y-733984D01*
X572563Y-733984D02*
X610658Y-733984D01*
X610658Y-733984D02*
X629705Y-724460D01*
X629705Y-724460D02*
X639229Y-714936D01*
X639229Y-714936D02*
X648753Y-695889D01*
X648753Y-695889D02*
X648753Y-657793D01*
X648753Y-657793D02*
X639229Y-638746D01*
X639229Y-638746D02*
X629705Y-629222D01*
X629705Y-629222D02*
X610658Y-619698D01*
X772562Y-533984D02*
X791610Y-533984D01*
X791610Y-533984D02*
X810658Y-543508D01*
X810658Y-543508D02*
X820182Y-553031D01*
X820182Y-553031D02*
X829705Y-572079D01*
X829705Y-572079D02*
X839229Y-610174D01*
X839229Y-610174D02*
X839229Y-657793D01*
X839229Y-657793D02*
X829705Y-695889D01*
X829705Y-695889D02*
X820182Y-714936D01*
X820182Y-714936D02*
X810658Y-724460D01*
X810658Y-724460D02*
X791610Y-733984D01*
X791610Y-733984D02*
X772562Y-733984D01*
X772562Y-733984D02*
X753515Y-724460D01*
X753515Y-724460D02*
X743991Y-714936D01*
X743991Y-714936D02*
X734467Y-695889D01*
X734467Y-695889D02*
X724943Y-657793D01*
X724943Y-657793D02*
X724943Y-610174D01*
X724943Y-610174D02*
X734467Y-572079D01*
X734467Y-572079D02*
X743991Y-553031D01*
X743991Y-553031D02*
X753515Y-543508D01*
X753515Y-543508D02*
X772562Y-533984D01*
X963039Y-533984D02*
X982086Y-533984D01*
X982086Y-533984D02*
X1001134Y-543508D01*
X1001134Y-543508D02*
X1010658Y-553031D01*
X1010658Y-553031D02*
X1020182Y-572079D01*
X1020182Y-572079D02*
X1029705Y-610174D01*
X1029705Y-610174D02*
X1029705Y-657793D01*
X1029705Y-657793D02*
X1020182Y-695889D01*
X1020182Y-695889D02*
X1010658Y-714936D01*
X1010658Y-714936D02*
X1001134Y-724460D01*
X1001134Y-724460D02*
X982086Y-733984D01*
X982086Y-733984D02*
X963039Y-733984D01*
X963039Y-733984D02*
X943991Y-724460D01*
X943991Y-724460D02*
X934467Y-714936D01*
X934467Y-714936D02*
X924943Y-695889D01*
X924943Y-695889D02*
X915420Y-657793D01*
X915420Y-657793D02*
X915420Y-610174D01*
X915420Y-610174D02*
X924943Y-572079D01*
X924943Y-572079D02*
X934467Y-553031D01*
X934467Y-553031D02*
X943991Y-543508D01*
X943991Y-543508D02*
X963039Y-533984D01*
X1115420Y-733984D02*
X1115420Y-600650D01*
X1115420Y-619698D02*
X1124944Y-610174D01*
X1124944Y-610174D02*
X1143991Y-600650D01*
X1143991Y-600650D02*
X1172563Y-600650D01*
X1172563Y-600650D02*
X1191610Y-610174D01*
X1191610Y-610174D02*
X1201134Y-629222D01*
X1201134Y-629222D02*
X1201134Y-733984D01*
X1201134Y-629222D02*
X1210658Y-610174D01*
X1210658Y-610174D02*
X1229705Y-600650D01*
X1229705Y-600650D02*
X1258277Y-600650D01*
X1258277Y-600650D02*
X1277325Y-610174D01*
X1277325Y-610174D02*
X1286848Y-629222D01*
X1286848Y-629222D02*
X1286848Y-733984D01*
X1382086Y-733984D02*
X1382086Y-600650D01*
X1382086Y-619698D02*
X1391610Y-610174D01*
X1391610Y-610174D02*
X1410658Y-600650D01*
X1410658Y-600650D02*
X1439229Y-600650D01*
X1439229Y-600650D02*
X1458277Y-610174D01*
X1458277Y-610174D02*
X1467801Y-629222D01*
X1467801Y-629222D02*
X1467801Y-733984D01*
X1467801Y-629222D02*
X1477324Y-610174D01*
X1477324Y-610174D02*
X1496372Y-600650D01*
X1496372Y-600650D02*
X1524943Y-600650D01*
X1524943Y-600650D02*
X1543991Y-610174D01*
X1543991Y-610174D02*
X1553515Y-629222D01*
X1553515Y-629222D02*
X1553515Y-733984D01*
X1943991Y-524460D02*
X1772563Y-781603D01*
X2201134Y-533984D02*
X2220182Y-533984D01*
X2220182Y-533984D02*
X2239229Y-543508D01*
X2239229Y-543508D02*
X2248753Y-553031D01*
X2248753Y-553031D02*
X2258277Y-572079D01*
X2258277Y-572079D02*
X2267801Y-610174D01*
X2267801Y-610174D02*
X2267801Y-657793D01*
X2267801Y-657793D02*
X2258277Y-695889D01*
X2258277Y-695889D02*
X2248753Y-714936D01*
X2248753Y-714936D02*
X2239229Y-724460D01*
X2239229Y-724460D02*
X2220182Y-733984D01*
X2220182Y-733984D02*
X2201134Y-733984D01*
X2201134Y-733984D02*
X2182087Y-724460D01*
X2182087Y-724460D02*
X2172563Y-714936D01*
X2172563Y-714936D02*
X2163039Y-695889D01*
X2163039Y-695889D02*
X2153515Y-657793D01*
X2153515Y-657793D02*
X2153515Y-610174D01*
X2153515Y-610174D02*
X2163039Y-572079D01*
X2163039Y-572079D02*
X2172563Y-553031D01*
X2172563Y-553031D02*
X2182087Y-543508D01*
X2182087Y-543508D02*
X2201134Y-533984D01*
X2353515Y-714936D02*
X2363039Y-724460D01*
X2363039Y-724460D02*
X2353515Y-733984D01*
X2353515Y-733984D02*
X2343991Y-724460D01*
X2343991Y-724460D02*
X2353515Y-714936D01*
X2353515Y-714936D02*
X2353515Y-733984D01*
X2486848Y-533984D02*
X2505896Y-533984D01*
X2505896Y-533984D02*
X2524944Y-543508D01*
X2524944Y-543508D02*
X2534468Y-553031D01*
X2534468Y-553031D02*
X2543991Y-572079D01*
X2543991Y-572079D02*
X2553515Y-610174D01*
X2553515Y-610174D02*
X2553515Y-657793D01*
X2553515Y-657793D02*
X2543991Y-695889D01*
X2543991Y-695889D02*
X2534468Y-714936D01*
X2534468Y-714936D02*
X2524944Y-724460D01*
X2524944Y-724460D02*
X2505896Y-733984D01*
X2505896Y-733984D02*
X2486848Y-733984D01*
X2486848Y-733984D02*
X2467801Y-724460D01*
X2467801Y-724460D02*
X2458277Y-714936D01*
X2458277Y-714936D02*
X2448753Y-695889D01*
X2448753Y-695889D02*
X2439229Y-657793D01*
X2439229Y-657793D02*
X2439229Y-610174D01*
X2439229Y-610174D02*
X2448753Y-572079D01*
X2448753Y-572079D02*
X2458277Y-553031D01*
X2458277Y-553031D02*
X2467801Y-543508D01*
X2467801Y-543508D02*
X2486848Y-533984D01*
X2620182Y-533984D02*
X2743991Y-533984D01*
X2743991Y-533984D02*
X2677325Y-610174D01*
X2677325Y-610174D02*
X2705896Y-610174D01*
X2705896Y-610174D02*
X2724944Y-619698D01*
X2724944Y-619698D02*
X2734468Y-629222D01*
X2734468Y-629222D02*
X2743991Y-648270D01*
X2743991Y-648270D02*
X2743991Y-695889D01*
X2743991Y-695889D02*
X2734468Y-714936D01*
X2734468Y-714936D02*
X2724944Y-724460D01*
X2724944Y-724460D02*
X2705896Y-733984D01*
X2705896Y-733984D02*
X2648753Y-733984D01*
X2648753Y-733984D02*
X2629706Y-724460D01*
X2629706Y-724460D02*
X2620182Y-714936D01*
X2934467Y-733984D02*
X2820182Y-733984D01*
X2877325Y-733984D02*
X2877325Y-533984D01*
X2877325Y-533984D02*
X2858277Y-562555D01*
X2858277Y-562555D02*
X2839229Y-581603D01*
X2839229Y-581603D02*
X2820182Y-591127D01*
X3115420Y-533984D02*
X3020182Y-533984D01*
X3020182Y-533984D02*
X3010658Y-629222D01*
X3010658Y-629222D02*
X3020182Y-619698D01*
X3020182Y-619698D02*
X3039229Y-610174D01*
X3039229Y-610174D02*
X3086848Y-610174D01*
X3086848Y-610174D02*
X3105896Y-619698D01*
X3105896Y-619698D02*
X3115420Y-629222D01*
X3115420Y-629222D02*
X3124944Y-648270D01*
X3124944Y-648270D02*
X3124944Y-695889D01*
X3124944Y-695889D02*
X3115420Y-714936D01*
X3115420Y-714936D02*
X3105896Y-724460D01*
X3105896Y-724460D02*
X3086848Y-733984D01*
X3086848Y-733984D02*
X3039229Y-733984D01*
X3039229Y-733984D02*
X3020182Y-724460D01*
X3020182Y-724460D02*
X3010658Y-714936D01*
X3201134Y-533984D02*
X3201134Y-572079D01*
X3277325Y-533984D02*
X3277325Y-572079D01*
X3572563Y-810174D02*
X3563039Y-800650D01*
X3563039Y-800650D02*
X3543991Y-772079D01*
X3543991Y-772079D02*
X3534468Y-753031D01*
X3534468Y-753031D02*
X3524944Y-724460D01*
X3524944Y-724460D02*
X3515420Y-676841D01*
X3515420Y-676841D02*
X3515420Y-638746D01*
X3515420Y-638746D02*
X3524944Y-591127D01*
X3524944Y-591127D02*
X3534468Y-562555D01*
X3534468Y-562555D02*
X3543991Y-543508D01*
X3543991Y-543508D02*
X3563039Y-514936D01*
X3563039Y-514936D02*
X3572563Y-505412D01*
X3629706Y-533984D02*
X3753515Y-533984D01*
X3753515Y-533984D02*
X3686848Y-610174D01*
X3686848Y-610174D02*
X3715420Y-610174D01*
X3715420Y-610174D02*
X3734468Y-619698D01*
X3734468Y-619698D02*
X3743991Y-629222D01*
X3743991Y-629222D02*
X3753515Y-648270D01*
X3753515Y-648270D02*
X3753515Y-695889D01*
X3753515Y-695889D02*
X3743991Y-714936D01*
X3743991Y-714936D02*
X3734468Y-724460D01*
X3734468Y-724460D02*
X3715420Y-733984D01*
X3715420Y-733984D02*
X3658277Y-733984D01*
X3658277Y-733984D02*
X3639229Y-724460D01*
X3639229Y-724460D02*
X3629706Y-714936D01*
X3829706Y-553031D02*
X3839229Y-543508D01*
X3839229Y-543508D02*
X3858277Y-533984D01*
X3858277Y-533984D02*
X3905896Y-533984D01*
X3905896Y-533984D02*
X3924944Y-543508D01*
X3924944Y-543508D02*
X3934468Y-553031D01*
X3934468Y-553031D02*
X3943991Y-572079D01*
X3943991Y-572079D02*
X3943991Y-591127D01*
X3943991Y-591127D02*
X3934468Y-619698D01*
X3934468Y-619698D02*
X3820182Y-733984D01*
X3820182Y-733984D02*
X3943991Y-733984D01*
X4182087Y-733984D02*
X4182087Y-533984D01*
X4267801Y-733984D02*
X4267801Y-629222D01*
X4267801Y-629222D02*
X4258277Y-610174D01*
X4258277Y-610174D02*
X4239230Y-600650D01*
X4239230Y-600650D02*
X4210658Y-600650D01*
X4210658Y-600650D02*
X4191610Y-610174D01*
X4191610Y-610174D02*
X4182087Y-619698D01*
X4391611Y-733984D02*
X4372563Y-724460D01*
X4372563Y-724460D02*
X4363039Y-714936D01*
X4363039Y-714936D02*
X4353515Y-695889D01*
X4353515Y-695889D02*
X4353515Y-638746D01*
X4353515Y-638746D02*
X4363039Y-619698D01*
X4363039Y-619698D02*
X4372563Y-610174D01*
X4372563Y-610174D02*
X4391611Y-600650D01*
X4391611Y-600650D02*
X4420182Y-600650D01*
X4420182Y-600650D02*
X4439230Y-610174D01*
X4439230Y-610174D02*
X4448753Y-619698D01*
X4448753Y-619698D02*
X4458277Y-638746D01*
X4458277Y-638746D02*
X4458277Y-695889D01*
X4458277Y-695889D02*
X4448753Y-714936D01*
X4448753Y-714936D02*
X4439230Y-724460D01*
X4439230Y-724460D02*
X4420182Y-733984D01*
X4420182Y-733984D02*
X4391611Y-733984D01*
X4572563Y-733984D02*
X4553515Y-724460D01*
X4553515Y-724460D02*
X4543992Y-705412D01*
X4543992Y-705412D02*
X4543992Y-533984D01*
X4724944Y-724460D02*
X4705896Y-733984D01*
X4705896Y-733984D02*
X4667801Y-733984D01*
X4667801Y-733984D02*
X4648753Y-724460D01*
X4648753Y-724460D02*
X4639230Y-705412D01*
X4639230Y-705412D02*
X4639230Y-629222D01*
X4639230Y-629222D02*
X4648753Y-610174D01*
X4648753Y-610174D02*
X4667801Y-600650D01*
X4667801Y-600650D02*
X4705896Y-600650D01*
X4705896Y-600650D02*
X4724944Y-610174D01*
X4724944Y-610174D02*
X4734468Y-629222D01*
X4734468Y-629222D02*
X4734468Y-648270D01*
X4734468Y-648270D02*
X4639230Y-667317D01*
X4810658Y-724460D02*
X4829706Y-733984D01*
X4829706Y-733984D02*
X4867801Y-733984D01*
X4867801Y-733984D02*
X4886849Y-724460D01*
X4886849Y-724460D02*
X4896373Y-705412D01*
X4896373Y-705412D02*
X4896373Y-695889D01*
X4896373Y-695889D02*
X4886849Y-676841D01*
X4886849Y-676841D02*
X4867801Y-667317D01*
X4867801Y-667317D02*
X4839230Y-667317D01*
X4839230Y-667317D02*
X4820182Y-657793D01*
X4820182Y-657793D02*
X4810658Y-638746D01*
X4810658Y-638746D02*
X4810658Y-629222D01*
X4810658Y-629222D02*
X4820182Y-610174D01*
X4820182Y-610174D02*
X4839230Y-600650D01*
X4839230Y-600650D02*
X4867801Y-600650D01*
X4867801Y-600650D02*
X4886849Y-610174D01*
X4963039Y-810174D02*
X4972563Y-800650D01*
X4972563Y-800650D02*
X4991611Y-772079D01*
X4991611Y-772079D02*
X5001134Y-753031D01*
X5001134Y-753031D02*
X5010658Y-724460D01*
X5010658Y-724460D02*
X5020182Y-676841D01*
X5020182Y-676841D02*
X5020182Y-638746D01*
X5020182Y-638746D02*
X5010658Y-591127D01*
X5010658Y-591127D02*
X5001134Y-562555D01*
X5001134Y-562555D02*
X4991611Y-543508D01*
X4991611Y-543508D02*
X4972563Y-514936D01*
X4972563Y-514936D02*
X4963039Y-505412D01*
D12*
X-2500Y-906500D02*
G75*
G02*
X-82500Y-906500I-40000J0D01*
G01*
X-82500Y-906500D02*
G75*
G02*
X-2500Y-906500I40000J0D01*
G01*
D11*
X296372Y-797984D02*
X315420Y-797984D01*
X315420Y-797984D02*
X334467Y-807508D01*
X334467Y-807508D02*
X343991Y-817031D01*
X343991Y-817031D02*
X353515Y-836079D01*
X353515Y-836079D02*
X363039Y-874174D01*
X363039Y-874174D02*
X363039Y-921793D01*
X363039Y-921793D02*
X353515Y-959888D01*
X353515Y-959888D02*
X343991Y-978936D01*
X343991Y-978936D02*
X334467Y-988460D01*
X334467Y-988460D02*
X315420Y-997984D01*
X315420Y-997984D02*
X296372Y-997984D01*
X296372Y-997984D02*
X277324Y-988460D01*
X277324Y-988460D02*
X267801Y-978936D01*
X267801Y-978936D02*
X258277Y-959888D01*
X258277Y-959888D02*
X248753Y-921793D01*
X248753Y-921793D02*
X248753Y-874174D01*
X248753Y-874174D02*
X258277Y-836079D01*
X258277Y-836079D02*
X267801Y-817031D01*
X267801Y-817031D02*
X277324Y-807508D01*
X277324Y-807508D02*
X296372Y-797984D01*
X448753Y-978936D02*
X458277Y-988460D01*
X458277Y-988460D02*
X448753Y-997984D01*
X448753Y-997984D02*
X439229Y-988460D01*
X439229Y-988460D02*
X448753Y-978936D01*
X448753Y-978936D02*
X448753Y-997984D01*
X572563Y-883698D02*
X553515Y-874174D01*
X553515Y-874174D02*
X543991Y-864650D01*
X543991Y-864650D02*
X534467Y-845603D01*
X534467Y-845603D02*
X534467Y-836079D01*
X534467Y-836079D02*
X543991Y-817031D01*
X543991Y-817031D02*
X553515Y-807508D01*
X553515Y-807508D02*
X572563Y-797984D01*
X572563Y-797984D02*
X610658Y-797984D01*
X610658Y-797984D02*
X629705Y-807508D01*
X629705Y-807508D02*
X639229Y-817031D01*
X639229Y-817031D02*
X648753Y-836079D01*
X648753Y-836079D02*
X648753Y-845603D01*
X648753Y-845603D02*
X639229Y-864650D01*
X639229Y-864650D02*
X629705Y-874174D01*
X629705Y-874174D02*
X610658Y-883698D01*
X610658Y-883698D02*
X572563Y-883698D01*
X572563Y-883698D02*
X553515Y-893222D01*
X553515Y-893222D02*
X543991Y-902746D01*
X543991Y-902746D02*
X534467Y-921793D01*
X534467Y-921793D02*
X534467Y-959888D01*
X534467Y-959888D02*
X543991Y-978936D01*
X543991Y-978936D02*
X553515Y-988460D01*
X553515Y-988460D02*
X572563Y-997984D01*
X572563Y-997984D02*
X610658Y-997984D01*
X610658Y-997984D02*
X629705Y-988460D01*
X629705Y-988460D02*
X639229Y-978936D01*
X639229Y-978936D02*
X648753Y-959888D01*
X648753Y-959888D02*
X648753Y-921793D01*
X648753Y-921793D02*
X639229Y-902746D01*
X639229Y-902746D02*
X629705Y-893222D01*
X629705Y-893222D02*
X610658Y-883698D01*
X772562Y-797984D02*
X791610Y-797984D01*
X791610Y-797984D02*
X810658Y-807508D01*
X810658Y-807508D02*
X820182Y-817031D01*
X820182Y-817031D02*
X829705Y-836079D01*
X829705Y-836079D02*
X839229Y-874174D01*
X839229Y-874174D02*
X839229Y-921793D01*
X839229Y-921793D02*
X829705Y-959888D01*
X829705Y-959888D02*
X820182Y-978936D01*
X820182Y-978936D02*
X810658Y-988460D01*
X810658Y-988460D02*
X791610Y-997984D01*
X791610Y-997984D02*
X772562Y-997984D01*
X772562Y-997984D02*
X753515Y-988460D01*
X753515Y-988460D02*
X743991Y-978936D01*
X743991Y-978936D02*
X734467Y-959888D01*
X734467Y-959888D02*
X724943Y-921793D01*
X724943Y-921793D02*
X724943Y-874174D01*
X724943Y-874174D02*
X734467Y-836079D01*
X734467Y-836079D02*
X743991Y-817031D01*
X743991Y-817031D02*
X753515Y-807508D01*
X753515Y-807508D02*
X772562Y-797984D01*
X963039Y-797984D02*
X982086Y-797984D01*
X982086Y-797984D02*
X1001134Y-807508D01*
X1001134Y-807508D02*
X1010658Y-817031D01*
X1010658Y-817031D02*
X1020182Y-836079D01*
X1020182Y-836079D02*
X1029705Y-874174D01*
X1029705Y-874174D02*
X1029705Y-921793D01*
X1029705Y-921793D02*
X1020182Y-959888D01*
X1020182Y-959888D02*
X1010658Y-978936D01*
X1010658Y-978936D02*
X1001134Y-988460D01*
X1001134Y-988460D02*
X982086Y-997984D01*
X982086Y-997984D02*
X963039Y-997984D01*
X963039Y-997984D02*
X943991Y-988460D01*
X943991Y-988460D02*
X934467Y-978936D01*
X934467Y-978936D02*
X924943Y-959888D01*
X924943Y-959888D02*
X915420Y-921793D01*
X915420Y-921793D02*
X915420Y-874174D01*
X915420Y-874174D02*
X924943Y-836079D01*
X924943Y-836079D02*
X934467Y-817031D01*
X934467Y-817031D02*
X943991Y-807508D01*
X943991Y-807508D02*
X963039Y-797984D01*
X1115420Y-997984D02*
X1115420Y-864650D01*
X1115420Y-883698D02*
X1124944Y-874174D01*
X1124944Y-874174D02*
X1143991Y-864650D01*
X1143991Y-864650D02*
X1172563Y-864650D01*
X1172563Y-864650D02*
X1191610Y-874174D01*
X1191610Y-874174D02*
X1201134Y-893222D01*
X1201134Y-893222D02*
X1201134Y-997984D01*
X1201134Y-893222D02*
X1210658Y-874174D01*
X1210658Y-874174D02*
X1229705Y-864650D01*
X1229705Y-864650D02*
X1258277Y-864650D01*
X1258277Y-864650D02*
X1277325Y-874174D01*
X1277325Y-874174D02*
X1286848Y-893222D01*
X1286848Y-893222D02*
X1286848Y-997984D01*
X1382086Y-997984D02*
X1382086Y-864650D01*
X1382086Y-883698D02*
X1391610Y-874174D01*
X1391610Y-874174D02*
X1410658Y-864650D01*
X1410658Y-864650D02*
X1439229Y-864650D01*
X1439229Y-864650D02*
X1458277Y-874174D01*
X1458277Y-874174D02*
X1467801Y-893222D01*
X1467801Y-893222D02*
X1467801Y-997984D01*
X1467801Y-893222D02*
X1477324Y-874174D01*
X1477324Y-874174D02*
X1496372Y-864650D01*
X1496372Y-864650D02*
X1524943Y-864650D01*
X1524943Y-864650D02*
X1543991Y-874174D01*
X1543991Y-874174D02*
X1553515Y-893222D01*
X1553515Y-893222D02*
X1553515Y-997984D01*
X1943991Y-788460D02*
X1772563Y-1045603D01*
X2201134Y-797984D02*
X2220182Y-797984D01*
X2220182Y-797984D02*
X2239229Y-807508D01*
X2239229Y-807508D02*
X2248753Y-817031D01*
X2248753Y-817031D02*
X2258277Y-836079D01*
X2258277Y-836079D02*
X2267801Y-874174D01*
X2267801Y-874174D02*
X2267801Y-921793D01*
X2267801Y-921793D02*
X2258277Y-959888D01*
X2258277Y-959888D02*
X2248753Y-978936D01*
X2248753Y-978936D02*
X2239229Y-988460D01*
X2239229Y-988460D02*
X2220182Y-997984D01*
X2220182Y-997984D02*
X2201134Y-997984D01*
X2201134Y-997984D02*
X2182087Y-988460D01*
X2182087Y-988460D02*
X2172563Y-978936D01*
X2172563Y-978936D02*
X2163039Y-959888D01*
X2163039Y-959888D02*
X2153515Y-921793D01*
X2153515Y-921793D02*
X2153515Y-874174D01*
X2153515Y-874174D02*
X2163039Y-836079D01*
X2163039Y-836079D02*
X2172563Y-817031D01*
X2172563Y-817031D02*
X2182087Y-807508D01*
X2182087Y-807508D02*
X2201134Y-797984D01*
X2353515Y-978936D02*
X2363039Y-988460D01*
X2363039Y-988460D02*
X2353515Y-997984D01*
X2353515Y-997984D02*
X2343991Y-988460D01*
X2343991Y-988460D02*
X2353515Y-978936D01*
X2353515Y-978936D02*
X2353515Y-997984D01*
X2486848Y-797984D02*
X2505896Y-797984D01*
X2505896Y-797984D02*
X2524944Y-807508D01*
X2524944Y-807508D02*
X2534468Y-817031D01*
X2534468Y-817031D02*
X2543991Y-836079D01*
X2543991Y-836079D02*
X2553515Y-874174D01*
X2553515Y-874174D02*
X2553515Y-921793D01*
X2553515Y-921793D02*
X2543991Y-959888D01*
X2543991Y-959888D02*
X2534468Y-978936D01*
X2534468Y-978936D02*
X2524944Y-988460D01*
X2524944Y-988460D02*
X2505896Y-997984D01*
X2505896Y-997984D02*
X2486848Y-997984D01*
X2486848Y-997984D02*
X2467801Y-988460D01*
X2467801Y-988460D02*
X2458277Y-978936D01*
X2458277Y-978936D02*
X2448753Y-959888D01*
X2448753Y-959888D02*
X2439229Y-921793D01*
X2439229Y-921793D02*
X2439229Y-874174D01*
X2439229Y-874174D02*
X2448753Y-836079D01*
X2448753Y-836079D02*
X2458277Y-817031D01*
X2458277Y-817031D02*
X2467801Y-807508D01*
X2467801Y-807508D02*
X2486848Y-797984D01*
X2620182Y-797984D02*
X2743991Y-797984D01*
X2743991Y-797984D02*
X2677325Y-874174D01*
X2677325Y-874174D02*
X2705896Y-874174D01*
X2705896Y-874174D02*
X2724944Y-883698D01*
X2724944Y-883698D02*
X2734468Y-893222D01*
X2734468Y-893222D02*
X2743991Y-912269D01*
X2743991Y-912269D02*
X2743991Y-959888D01*
X2743991Y-959888D02*
X2734468Y-978936D01*
X2734468Y-978936D02*
X2724944Y-988460D01*
X2724944Y-988460D02*
X2705896Y-997984D01*
X2705896Y-997984D02*
X2648753Y-997984D01*
X2648753Y-997984D02*
X2629706Y-988460D01*
X2629706Y-988460D02*
X2620182Y-978936D01*
X2934467Y-997984D02*
X2820182Y-997984D01*
X2877325Y-997984D02*
X2877325Y-797984D01*
X2877325Y-797984D02*
X2858277Y-826555D01*
X2858277Y-826555D02*
X2839229Y-845603D01*
X2839229Y-845603D02*
X2820182Y-855127D01*
X3115420Y-797984D02*
X3020182Y-797984D01*
X3020182Y-797984D02*
X3010658Y-893222D01*
X3010658Y-893222D02*
X3020182Y-883698D01*
X3020182Y-883698D02*
X3039229Y-874174D01*
X3039229Y-874174D02*
X3086848Y-874174D01*
X3086848Y-874174D02*
X3105896Y-883698D01*
X3105896Y-883698D02*
X3115420Y-893222D01*
X3115420Y-893222D02*
X3124944Y-912269D01*
X3124944Y-912269D02*
X3124944Y-959888D01*
X3124944Y-959888D02*
X3115420Y-978936D01*
X3115420Y-978936D02*
X3105896Y-988460D01*
X3105896Y-988460D02*
X3086848Y-997984D01*
X3086848Y-997984D02*
X3039229Y-997984D01*
X3039229Y-997984D02*
X3020182Y-988460D01*
X3020182Y-988460D02*
X3010658Y-978936D01*
X3201134Y-797984D02*
X3201134Y-836079D01*
X3277325Y-797984D02*
X3277325Y-836079D01*
X3572563Y-1074174D02*
X3563039Y-1064650D01*
X3563039Y-1064650D02*
X3543991Y-1036079D01*
X3543991Y-1036079D02*
X3534468Y-1017031D01*
X3534468Y-1017031D02*
X3524944Y-988460D01*
X3524944Y-988460D02*
X3515420Y-940841D01*
X3515420Y-940841D02*
X3515420Y-902746D01*
X3515420Y-902746D02*
X3524944Y-855127D01*
X3524944Y-855127D02*
X3534468Y-826555D01*
X3534468Y-826555D02*
X3543991Y-807508D01*
X3543991Y-807508D02*
X3563039Y-778936D01*
X3563039Y-778936D02*
X3572563Y-769412D01*
X3753515Y-997984D02*
X3639229Y-997984D01*
X3696372Y-997984D02*
X3696372Y-797984D01*
X3696372Y-797984D02*
X3677325Y-826555D01*
X3677325Y-826555D02*
X3658277Y-845603D01*
X3658277Y-845603D02*
X3639229Y-855127D01*
X3820182Y-797984D02*
X3943991Y-797984D01*
X3943991Y-797984D02*
X3877325Y-874174D01*
X3877325Y-874174D02*
X3905896Y-874174D01*
X3905896Y-874174D02*
X3924944Y-883698D01*
X3924944Y-883698D02*
X3934468Y-893222D01*
X3934468Y-893222D02*
X3943991Y-912269D01*
X3943991Y-912269D02*
X3943991Y-959888D01*
X3943991Y-959888D02*
X3934468Y-978936D01*
X3934468Y-978936D02*
X3924944Y-988460D01*
X3924944Y-988460D02*
X3905896Y-997984D01*
X3905896Y-997984D02*
X3848753Y-997984D01*
X3848753Y-997984D02*
X3829706Y-988460D01*
X3829706Y-988460D02*
X3820182Y-978936D01*
X4058277Y-883698D02*
X4039229Y-874174D01*
X4039229Y-874174D02*
X4029706Y-864650D01*
X4029706Y-864650D02*
X4020182Y-845603D01*
X4020182Y-845603D02*
X4020182Y-836079D01*
X4020182Y-836079D02*
X4029706Y-817031D01*
X4029706Y-817031D02*
X4039229Y-807508D01*
X4039229Y-807508D02*
X4058277Y-797984D01*
X4058277Y-797984D02*
X4096372Y-797984D01*
X4096372Y-797984D02*
X4115420Y-807508D01*
X4115420Y-807508D02*
X4124944Y-817031D01*
X4124944Y-817031D02*
X4134468Y-836079D01*
X4134468Y-836079D02*
X4134468Y-845603D01*
X4134468Y-845603D02*
X4124944Y-864650D01*
X4124944Y-864650D02*
X4115420Y-874174D01*
X4115420Y-874174D02*
X4096372Y-883698D01*
X4096372Y-883698D02*
X4058277Y-883698D01*
X4058277Y-883698D02*
X4039229Y-893222D01*
X4039229Y-893222D02*
X4029706Y-902746D01*
X4029706Y-902746D02*
X4020182Y-921793D01*
X4020182Y-921793D02*
X4020182Y-959888D01*
X4020182Y-959888D02*
X4029706Y-978936D01*
X4029706Y-978936D02*
X4039229Y-988460D01*
X4039229Y-988460D02*
X4058277Y-997984D01*
X4058277Y-997984D02*
X4096372Y-997984D01*
X4096372Y-997984D02*
X4115420Y-988460D01*
X4115420Y-988460D02*
X4124944Y-978936D01*
X4124944Y-978936D02*
X4134468Y-959888D01*
X4134468Y-959888D02*
X4134468Y-921793D01*
X4134468Y-921793D02*
X4124944Y-902746D01*
X4124944Y-902746D02*
X4115420Y-893222D01*
X4115420Y-893222D02*
X4096372Y-883698D01*
X4372563Y-997984D02*
X4372563Y-797984D01*
X4458277Y-997984D02*
X4458277Y-893222D01*
X4458277Y-893222D02*
X4448753Y-874174D01*
X4448753Y-874174D02*
X4429706Y-864650D01*
X4429706Y-864650D02*
X4401134Y-864650D01*
X4401134Y-864650D02*
X4382087Y-874174D01*
X4382087Y-874174D02*
X4372563Y-883698D01*
X4582087Y-997984D02*
X4563039Y-988460D01*
X4563039Y-988460D02*
X4553515Y-978936D01*
X4553515Y-978936D02*
X4543992Y-959888D01*
X4543992Y-959888D02*
X4543992Y-902746D01*
X4543992Y-902746D02*
X4553515Y-883698D01*
X4553515Y-883698D02*
X4563039Y-874174D01*
X4563039Y-874174D02*
X4582087Y-864650D01*
X4582087Y-864650D02*
X4610658Y-864650D01*
X4610658Y-864650D02*
X4629706Y-874174D01*
X4629706Y-874174D02*
X4639230Y-883698D01*
X4639230Y-883698D02*
X4648753Y-902746D01*
X4648753Y-902746D02*
X4648753Y-959888D01*
X4648753Y-959888D02*
X4639230Y-978936D01*
X4639230Y-978936D02*
X4629706Y-988460D01*
X4629706Y-988460D02*
X4610658Y-997984D01*
X4610658Y-997984D02*
X4582087Y-997984D01*
X4763039Y-997984D02*
X4743992Y-988460D01*
X4743992Y-988460D02*
X4734468Y-969412D01*
X4734468Y-969412D02*
X4734468Y-797984D01*
X4915420Y-988460D02*
X4896373Y-997984D01*
X4896373Y-997984D02*
X4858277Y-997984D01*
X4858277Y-997984D02*
X4839230Y-988460D01*
X4839230Y-988460D02*
X4829706Y-969412D01*
X4829706Y-969412D02*
X4829706Y-893222D01*
X4829706Y-893222D02*
X4839230Y-874174D01*
X4839230Y-874174D02*
X4858277Y-864650D01*
X4858277Y-864650D02*
X4896373Y-864650D01*
X4896373Y-864650D02*
X4915420Y-874174D01*
X4915420Y-874174D02*
X4924944Y-893222D01*
X4924944Y-893222D02*
X4924944Y-912269D01*
X4924944Y-912269D02*
X4829706Y-931317D01*
X5001134Y-988460D02*
X5020182Y-997984D01*
X5020182Y-997984D02*
X5058277Y-997984D01*
X5058277Y-997984D02*
X5077325Y-988460D01*
X5077325Y-988460D02*
X5086849Y-969412D01*
X5086849Y-969412D02*
X5086849Y-959888D01*
X5086849Y-959888D02*
X5077325Y-940841D01*
X5077325Y-940841D02*
X5058277Y-931317D01*
X5058277Y-931317D02*
X5029706Y-931317D01*
X5029706Y-931317D02*
X5010658Y-921793D01*
X5010658Y-921793D02*
X5001134Y-902746D01*
X5001134Y-902746D02*
X5001134Y-893222D01*
X5001134Y-893222D02*
X5010658Y-874174D01*
X5010658Y-874174D02*
X5029706Y-864650D01*
X5029706Y-864650D02*
X5058277Y-864650D01*
X5058277Y-864650D02*
X5077325Y-874174D01*
X5153515Y-1074174D02*
X5163039Y-1064650D01*
X5163039Y-1064650D02*
X5182087Y-1036079D01*
X5182087Y-1036079D02*
X5191611Y-1017031D01*
X5191611Y-1017031D02*
X5201134Y-988460D01*
X5201134Y-988460D02*
X5210658Y-940841D01*
X5210658Y-940841D02*
X5210658Y-902746D01*
X5210658Y-902746D02*
X5201134Y-855127D01*
X5201134Y-855127D02*
X5191611Y-826555D01*
X5191611Y-826555D02*
X5182087Y-807508D01*
X5182087Y-807508D02*
X5163039Y-778936D01*
X5163039Y-778936D02*
X5153515Y-769412D01*
M02*
