G04 #@! TF.GenerationSoftware,KiCad,Pcbnew,9.0.4*
G04 #@! TF.CreationDate,2025-10-16T22:23:07+02:00*
G04 #@! TF.ProjectId,fotoaparat,666f746f-6170-4617-9261-742e6b696361,rev?*
G04 #@! TF.SameCoordinates,Original*
G04 #@! TF.FileFunction,Soldermask,Bot*
G04 #@! TF.FilePolarity,Negative*
%FSLAX46Y46*%
G04 Gerber Fmt 4.6, Leading zero omitted, Abs format (unit mm)*
G04 Created by KiCad (PCBNEW 9.0.4) date 2025-10-16 22:23:07*
%MOMM*%
%LPD*%
G01*
G04 APERTURE LIST*
%ADD10C,1.575000*%
%ADD11R,1.700000X1.700000*%
%ADD12C,1.700000*%
%ADD13C,3.200000*%
%ADD14R,1.192000X1.192000*%
%ADD15C,1.192000*%
%ADD16C,1.500000*%
%ADD17C,2.250000*%
G04 APERTURE END LIST*
D10*
X120200000Y-137500000D03*
X120200000Y-142000000D03*
X126700000Y-137500000D03*
X126700000Y-142000000D03*
D11*
X96900000Y-128500000D03*
D12*
X99440000Y-128500000D03*
D11*
X99540000Y-121400000D03*
D12*
X97000000Y-121400000D03*
D11*
X155680000Y-88200000D03*
D12*
X153140000Y-88200000D03*
X150600000Y-88200000D03*
X148060000Y-88200000D03*
D13*
X205000000Y-145000000D03*
X205000000Y-60000000D03*
D11*
X174740000Y-84925000D03*
D12*
X172200000Y-84925000D03*
X174740000Y-87465000D03*
X172200000Y-87465000D03*
X174740000Y-90005000D03*
X172200000Y-90005000D03*
X174740000Y-92545000D03*
X172200000Y-92545000D03*
X174740000Y-95085000D03*
X172200000Y-95085000D03*
X174740000Y-97625000D03*
X172200000Y-97625000D03*
X174740000Y-100165000D03*
X172200000Y-100165000D03*
X174740000Y-102705000D03*
X172200000Y-102705000D03*
X174740000Y-105245000D03*
X172200000Y-105245000D03*
X174740000Y-107785000D03*
X172200000Y-107785000D03*
X174740000Y-110325000D03*
X172200000Y-110325000D03*
D13*
X85000000Y-145000000D03*
D11*
X175775000Y-71500000D03*
D12*
X173235000Y-71500000D03*
X170695000Y-71500000D03*
X168155000Y-71500000D03*
X165615000Y-71500000D03*
X163075000Y-71500000D03*
X160535000Y-71500000D03*
X157995000Y-71500000D03*
X155455000Y-71500000D03*
X152915000Y-71500000D03*
X150375000Y-71500000D03*
D11*
X126160000Y-118500000D03*
D12*
X128700000Y-118500000D03*
D14*
X127500000Y-96260000D03*
D15*
X127500000Y-101140000D03*
D13*
X85000000Y-60000000D03*
D16*
X83900000Y-101700000D03*
X83900000Y-99700000D03*
X83900000Y-97700000D03*
X85900000Y-101700000D03*
X85900000Y-99700000D03*
X85900000Y-97700000D03*
D17*
X82900000Y-104450000D03*
X86900000Y-104450000D03*
X86900000Y-94950000D03*
X82900000Y-94950000D03*
D10*
X148931000Y-137500000D03*
X148931000Y-142000000D03*
X155431000Y-137500000D03*
X155431000Y-142000000D03*
X134500000Y-137500000D03*
X134500000Y-142000000D03*
X141000000Y-137500000D03*
X141000000Y-142000000D03*
M02*
