G04 #@! TF.GenerationSoftware,KiCad,Pcbnew,9.0.5*
G04 #@! TF.CreationDate,2025-10-18T23:40:24+02:00*
G04 #@! TF.ProjectId,fotoaparat,666f746f-6170-4617-9261-742e6b696361,rev?*
G04 #@! TF.SameCoordinates,Original*
G04 #@! TF.FileFunction,Legend,Bot*
G04 #@! TF.FilePolarity,Positive*
%FSLAX46Y46*%
G04 Gerber Fmt 4.6, Leading zero omitted, Abs format (unit mm)*
G04 Created by KiCad (PCBNEW 9.0.5) date 2025-10-18 23:40:24*
%MOMM*%
%LPD*%
G01*
G04 APERTURE LIST*
G04 Aperture macros list*
%AMRoundRect*
0 Rectangle with rounded corners*
0 $1 Rounding radius*
0 $2 $3 $4 $5 $6 $7 $8 $9 X,Y pos of 4 corners*
0 Add a 4 corners polygon primitive as box body*
4,1,4,$2,$3,$4,$5,$6,$7,$8,$9,$2,$3,0*
0 Add four circle primitives for the rounded corners*
1,1,$1+$1,$2,$3*
1,1,$1+$1,$4,$5*
1,1,$1+$1,$6,$7*
1,1,$1+$1,$8,$9*
0 Add four rect primitives between the rounded corners*
20,1,$1+$1,$2,$3,$4,$5,0*
20,1,$1+$1,$4,$5,$6,$7,0*
20,1,$1+$1,$6,$7,$8,$9,0*
20,1,$1+$1,$8,$9,$2,$3,0*%
G04 Aperture macros list end*
%ADD10C,0.200000*%
%ADD11C,0.150000*%
%ADD12C,0.254000*%
%ADD13RoundRect,0.250000X-0.550000X0.550000X-0.550000X-0.550000X0.550000X-0.550000X0.550000X0.550000X0*%
%ADD14C,1.600000*%
%ADD15C,1.575000*%
%ADD16R,1.700000X1.700000*%
%ADD17C,1.700000*%
%ADD18C,3.200000*%
%ADD19R,1.192000X1.192000*%
%ADD20C,1.192000*%
%ADD21C,1.500000*%
%ADD22C,2.250000*%
G04 APERTURE END LIST*
D10*
X178675564Y-107500552D02*
X178485088Y-108167219D01*
X178485088Y-108167219D02*
X178294612Y-107691028D01*
X178294612Y-107691028D02*
X178104136Y-108167219D01*
X178104136Y-108167219D02*
X177913660Y-107500552D01*
X177532707Y-108167219D02*
X177532707Y-107500552D01*
X177532707Y-107691028D02*
X177485088Y-107595790D01*
X177485088Y-107595790D02*
X177437469Y-107548171D01*
X177437469Y-107548171D02*
X177342231Y-107500552D01*
X177342231Y-107500552D02*
X177246993Y-107500552D01*
X170530326Y-105667219D02*
X170530326Y-105000552D01*
X170530326Y-105191028D02*
X170482707Y-105095790D01*
X170482707Y-105095790D02*
X170435088Y-105048171D01*
X170435088Y-105048171D02*
X170339850Y-105000552D01*
X170339850Y-105000552D02*
X170244612Y-105000552D01*
X169482707Y-105619600D02*
X169577945Y-105667219D01*
X169577945Y-105667219D02*
X169768421Y-105667219D01*
X169768421Y-105667219D02*
X169863659Y-105619600D01*
X169863659Y-105619600D02*
X169911278Y-105571980D01*
X169911278Y-105571980D02*
X169958897Y-105476742D01*
X169958897Y-105476742D02*
X169958897Y-105191028D01*
X169958897Y-105191028D02*
X169911278Y-105095790D01*
X169911278Y-105095790D02*
X169863659Y-105048171D01*
X169863659Y-105048171D02*
X169768421Y-105000552D01*
X169768421Y-105000552D02*
X169577945Y-105000552D01*
X169577945Y-105000552D02*
X169482707Y-105048171D01*
X169054135Y-105667219D02*
X169054135Y-104667219D01*
X168958897Y-105286266D02*
X168673183Y-105667219D01*
X168673183Y-105000552D02*
X169054135Y-105381504D01*
X180125564Y-89850552D02*
X179887469Y-90517219D01*
X179887469Y-90517219D02*
X179649374Y-89850552D01*
X179316040Y-90469600D02*
X179220802Y-90517219D01*
X179220802Y-90517219D02*
X179030326Y-90517219D01*
X179030326Y-90517219D02*
X178935088Y-90469600D01*
X178935088Y-90469600D02*
X178887469Y-90374361D01*
X178887469Y-90374361D02*
X178887469Y-90326742D01*
X178887469Y-90326742D02*
X178935088Y-90231504D01*
X178935088Y-90231504D02*
X179030326Y-90183885D01*
X179030326Y-90183885D02*
X179173183Y-90183885D01*
X179173183Y-90183885D02*
X179268421Y-90136266D01*
X179268421Y-90136266D02*
X179316040Y-90041028D01*
X179316040Y-90041028D02*
X179316040Y-89993409D01*
X179316040Y-89993409D02*
X179268421Y-89898171D01*
X179268421Y-89898171D02*
X179173183Y-89850552D01*
X179173183Y-89850552D02*
X179030326Y-89850552D01*
X179030326Y-89850552D02*
X178935088Y-89898171D01*
X178554135Y-89850552D02*
X178316040Y-90517219D01*
X178077945Y-89850552D02*
X178316040Y-90517219D01*
X178316040Y-90517219D02*
X178411278Y-90755314D01*
X178411278Y-90755314D02*
X178458897Y-90802933D01*
X178458897Y-90802933D02*
X178554135Y-90850552D01*
X177696992Y-89850552D02*
X177696992Y-90517219D01*
X177696992Y-89945790D02*
X177649373Y-89898171D01*
X177649373Y-89898171D02*
X177554135Y-89850552D01*
X177554135Y-89850552D02*
X177411278Y-89850552D01*
X177411278Y-89850552D02*
X177316040Y-89898171D01*
X177316040Y-89898171D02*
X177268421Y-89993409D01*
X177268421Y-89993409D02*
X177268421Y-90517219D01*
X176363659Y-90469600D02*
X176458897Y-90517219D01*
X176458897Y-90517219D02*
X176649373Y-90517219D01*
X176649373Y-90517219D02*
X176744611Y-90469600D01*
X176744611Y-90469600D02*
X176792230Y-90421980D01*
X176792230Y-90421980D02*
X176839849Y-90326742D01*
X176839849Y-90326742D02*
X176839849Y-90041028D01*
X176839849Y-90041028D02*
X176792230Y-89945790D01*
X176792230Y-89945790D02*
X176744611Y-89898171D01*
X176744611Y-89898171D02*
X176649373Y-89850552D01*
X176649373Y-89850552D02*
X176458897Y-89850552D01*
X176458897Y-89850552D02*
X176363659Y-89898171D01*
X170230326Y-90117219D02*
X170230326Y-89117219D01*
X169801755Y-90117219D02*
X169801755Y-89593409D01*
X169801755Y-89593409D02*
X169849374Y-89498171D01*
X169849374Y-89498171D02*
X169944612Y-89450552D01*
X169944612Y-89450552D02*
X170087469Y-89450552D01*
X170087469Y-89450552D02*
X170182707Y-89498171D01*
X170182707Y-89498171D02*
X170230326Y-89545790D01*
X169325564Y-90117219D02*
X169325564Y-89450552D01*
X169325564Y-89641028D02*
X169277945Y-89545790D01*
X169277945Y-89545790D02*
X169230326Y-89498171D01*
X169230326Y-89498171D02*
X169135088Y-89450552D01*
X169135088Y-89450552D02*
X169039850Y-89450552D01*
X168325564Y-90069600D02*
X168420802Y-90117219D01*
X168420802Y-90117219D02*
X168611278Y-90117219D01*
X168611278Y-90117219D02*
X168706516Y-90069600D01*
X168706516Y-90069600D02*
X168754135Y-89974361D01*
X168754135Y-89974361D02*
X168754135Y-89593409D01*
X168754135Y-89593409D02*
X168706516Y-89498171D01*
X168706516Y-89498171D02*
X168611278Y-89450552D01*
X168611278Y-89450552D02*
X168420802Y-89450552D01*
X168420802Y-89450552D02*
X168325564Y-89498171D01*
X168325564Y-89498171D02*
X168277945Y-89593409D01*
X168277945Y-89593409D02*
X168277945Y-89688647D01*
X168277945Y-89688647D02*
X168754135Y-89783885D01*
X167992230Y-89450552D02*
X167611278Y-89450552D01*
X167849373Y-90117219D02*
X167849373Y-89260076D01*
X167849373Y-89260076D02*
X167801754Y-89164838D01*
X167801754Y-89164838D02*
X167706516Y-89117219D01*
X167706516Y-89117219D02*
X167611278Y-89117219D01*
X178775564Y-110200552D02*
X178585088Y-110867219D01*
X178585088Y-110867219D02*
X178394612Y-110391028D01*
X178394612Y-110391028D02*
X178204136Y-110867219D01*
X178204136Y-110867219D02*
X178013660Y-110200552D01*
X177632707Y-110867219D02*
X177632707Y-110200552D01*
X177632707Y-110391028D02*
X177585088Y-110295790D01*
X177585088Y-110295790D02*
X177537469Y-110248171D01*
X177537469Y-110248171D02*
X177442231Y-110200552D01*
X177442231Y-110200552D02*
X177346993Y-110200552D01*
X177061278Y-110819600D02*
X176966040Y-110867219D01*
X176966040Y-110867219D02*
X176775564Y-110867219D01*
X176775564Y-110867219D02*
X176680326Y-110819600D01*
X176680326Y-110819600D02*
X176632707Y-110724361D01*
X176632707Y-110724361D02*
X176632707Y-110676742D01*
X176632707Y-110676742D02*
X176680326Y-110581504D01*
X176680326Y-110581504D02*
X176775564Y-110533885D01*
X176775564Y-110533885D02*
X176918421Y-110533885D01*
X176918421Y-110533885D02*
X177013659Y-110486266D01*
X177013659Y-110486266D02*
X177061278Y-110391028D01*
X177061278Y-110391028D02*
X177061278Y-110343409D01*
X177061278Y-110343409D02*
X177013659Y-110248171D01*
X177013659Y-110248171D02*
X176918421Y-110200552D01*
X176918421Y-110200552D02*
X176775564Y-110200552D01*
X176775564Y-110200552D02*
X176680326Y-110248171D01*
X176346992Y-110200552D02*
X175966040Y-110200552D01*
X176204135Y-109867219D02*
X176204135Y-110724361D01*
X176204135Y-110724361D02*
X176156516Y-110819600D01*
X176156516Y-110819600D02*
X176061278Y-110867219D01*
X176061278Y-110867219D02*
X175966040Y-110867219D01*
X169780326Y-110817219D02*
X169780326Y-110150552D01*
X169780326Y-110341028D02*
X169732707Y-110245790D01*
X169732707Y-110245790D02*
X169685088Y-110198171D01*
X169685088Y-110198171D02*
X169589850Y-110150552D01*
X169589850Y-110150552D02*
X169494612Y-110150552D01*
X169161278Y-110817219D02*
X169161278Y-110150552D01*
X169161278Y-110341028D02*
X169113659Y-110245790D01*
X169113659Y-110245790D02*
X169066040Y-110198171D01*
X169066040Y-110198171D02*
X168970802Y-110150552D01*
X168970802Y-110150552D02*
X168875564Y-110150552D01*
X168589849Y-110769600D02*
X168494611Y-110817219D01*
X168494611Y-110817219D02*
X168304135Y-110817219D01*
X168304135Y-110817219D02*
X168208897Y-110769600D01*
X168208897Y-110769600D02*
X168161278Y-110674361D01*
X168161278Y-110674361D02*
X168161278Y-110626742D01*
X168161278Y-110626742D02*
X168208897Y-110531504D01*
X168208897Y-110531504D02*
X168304135Y-110483885D01*
X168304135Y-110483885D02*
X168446992Y-110483885D01*
X168446992Y-110483885D02*
X168542230Y-110436266D01*
X168542230Y-110436266D02*
X168589849Y-110341028D01*
X168589849Y-110341028D02*
X168589849Y-110293409D01*
X168589849Y-110293409D02*
X168542230Y-110198171D01*
X168542230Y-110198171D02*
X168446992Y-110150552D01*
X168446992Y-110150552D02*
X168304135Y-110150552D01*
X168304135Y-110150552D02*
X168208897Y-110198171D01*
X167875563Y-110150552D02*
X167494611Y-110150552D01*
X167732706Y-109817219D02*
X167732706Y-110674361D01*
X167732706Y-110674361D02*
X167685087Y-110769600D01*
X167685087Y-110769600D02*
X167589849Y-110817219D01*
X167589849Y-110817219D02*
X167494611Y-110817219D01*
X183180326Y-95567219D02*
X183180326Y-94567219D01*
X183180326Y-94567219D02*
X182942231Y-94567219D01*
X182942231Y-94567219D02*
X182799374Y-94614838D01*
X182799374Y-94614838D02*
X182704136Y-94710076D01*
X182704136Y-94710076D02*
X182656517Y-94805314D01*
X182656517Y-94805314D02*
X182608898Y-94995790D01*
X182608898Y-94995790D02*
X182608898Y-95138647D01*
X182608898Y-95138647D02*
X182656517Y-95329123D01*
X182656517Y-95329123D02*
X182704136Y-95424361D01*
X182704136Y-95424361D02*
X182799374Y-95519600D01*
X182799374Y-95519600D02*
X182942231Y-95567219D01*
X182942231Y-95567219D02*
X183180326Y-95567219D01*
X181751755Y-95567219D02*
X181751755Y-95043409D01*
X181751755Y-95043409D02*
X181799374Y-94948171D01*
X181799374Y-94948171D02*
X181894612Y-94900552D01*
X181894612Y-94900552D02*
X182085088Y-94900552D01*
X182085088Y-94900552D02*
X182180326Y-94948171D01*
X181751755Y-95519600D02*
X181846993Y-95567219D01*
X181846993Y-95567219D02*
X182085088Y-95567219D01*
X182085088Y-95567219D02*
X182180326Y-95519600D01*
X182180326Y-95519600D02*
X182227945Y-95424361D01*
X182227945Y-95424361D02*
X182227945Y-95329123D01*
X182227945Y-95329123D02*
X182180326Y-95233885D01*
X182180326Y-95233885D02*
X182085088Y-95186266D01*
X182085088Y-95186266D02*
X181846993Y-95186266D01*
X181846993Y-95186266D02*
X181751755Y-95138647D01*
X181418421Y-94900552D02*
X181037469Y-94900552D01*
X181275564Y-94567219D02*
X181275564Y-95424361D01*
X181275564Y-95424361D02*
X181227945Y-95519600D01*
X181227945Y-95519600D02*
X181132707Y-95567219D01*
X181132707Y-95567219D02*
X181037469Y-95567219D01*
X180513659Y-94567219D02*
X180418421Y-94567219D01*
X180418421Y-94567219D02*
X180323183Y-94614838D01*
X180323183Y-94614838D02*
X180275564Y-94662457D01*
X180275564Y-94662457D02*
X180227945Y-94757695D01*
X180227945Y-94757695D02*
X180180326Y-94948171D01*
X180180326Y-94948171D02*
X180180326Y-95186266D01*
X180180326Y-95186266D02*
X180227945Y-95376742D01*
X180227945Y-95376742D02*
X180275564Y-95471980D01*
X180275564Y-95471980D02*
X180323183Y-95519600D01*
X180323183Y-95519600D02*
X180418421Y-95567219D01*
X180418421Y-95567219D02*
X180513659Y-95567219D01*
X180513659Y-95567219D02*
X180608897Y-95519600D01*
X180608897Y-95519600D02*
X180656516Y-95471980D01*
X180656516Y-95471980D02*
X180704135Y-95376742D01*
X180704135Y-95376742D02*
X180751754Y-95186266D01*
X180751754Y-95186266D02*
X180751754Y-94948171D01*
X180751754Y-94948171D02*
X180704135Y-94757695D01*
X180704135Y-94757695D02*
X180656516Y-94662457D01*
X180656516Y-94662457D02*
X180608897Y-94614838D01*
X180608897Y-94614838D02*
X180513659Y-94567219D01*
X178989849Y-95186266D02*
X178227945Y-95186266D01*
X177085087Y-94567219D02*
X176418421Y-94567219D01*
X176418421Y-94567219D02*
X176846992Y-95567219D01*
X170151755Y-107550552D02*
X170151755Y-108360076D01*
X170151755Y-108360076D02*
X170199374Y-108455314D01*
X170199374Y-108455314D02*
X170246993Y-108502933D01*
X170246993Y-108502933D02*
X170342231Y-108550552D01*
X170342231Y-108550552D02*
X170485088Y-108550552D01*
X170485088Y-108550552D02*
X170580326Y-108502933D01*
X170151755Y-108169600D02*
X170246993Y-108217219D01*
X170246993Y-108217219D02*
X170437469Y-108217219D01*
X170437469Y-108217219D02*
X170532707Y-108169600D01*
X170532707Y-108169600D02*
X170580326Y-108121980D01*
X170580326Y-108121980D02*
X170627945Y-108026742D01*
X170627945Y-108026742D02*
X170627945Y-107741028D01*
X170627945Y-107741028D02*
X170580326Y-107645790D01*
X170580326Y-107645790D02*
X170532707Y-107598171D01*
X170532707Y-107598171D02*
X170437469Y-107550552D01*
X170437469Y-107550552D02*
X170246993Y-107550552D01*
X170246993Y-107550552D02*
X170151755Y-107598171D01*
X169675564Y-107550552D02*
X169675564Y-108217219D01*
X169675564Y-107645790D02*
X169627945Y-107598171D01*
X169627945Y-107598171D02*
X169532707Y-107550552D01*
X169532707Y-107550552D02*
X169389850Y-107550552D01*
X169389850Y-107550552D02*
X169294612Y-107598171D01*
X169294612Y-107598171D02*
X169246993Y-107693409D01*
X169246993Y-107693409D02*
X169246993Y-108217219D01*
X168342231Y-108217219D02*
X168342231Y-107217219D01*
X168342231Y-108169600D02*
X168437469Y-108217219D01*
X168437469Y-108217219D02*
X168627945Y-108217219D01*
X168627945Y-108217219D02*
X168723183Y-108169600D01*
X168723183Y-108169600D02*
X168770802Y-108121980D01*
X168770802Y-108121980D02*
X168818421Y-108026742D01*
X168818421Y-108026742D02*
X168818421Y-107741028D01*
X168818421Y-107741028D02*
X168770802Y-107645790D01*
X168770802Y-107645790D02*
X168723183Y-107598171D01*
X168723183Y-107598171D02*
X168627945Y-107550552D01*
X168627945Y-107550552D02*
X168437469Y-107550552D01*
X168437469Y-107550552D02*
X168342231Y-107598171D01*
X170380326Y-102500552D02*
X170380326Y-103167219D01*
X170380326Y-102595790D02*
X170332707Y-102548171D01*
X170332707Y-102548171D02*
X170237469Y-102500552D01*
X170237469Y-102500552D02*
X170094612Y-102500552D01*
X170094612Y-102500552D02*
X169999374Y-102548171D01*
X169999374Y-102548171D02*
X169951755Y-102643409D01*
X169951755Y-102643409D02*
X169951755Y-103167219D01*
X169046993Y-103119600D02*
X169142231Y-103167219D01*
X169142231Y-103167219D02*
X169332707Y-103167219D01*
X169332707Y-103167219D02*
X169427945Y-103119600D01*
X169427945Y-103119600D02*
X169475564Y-103071980D01*
X169475564Y-103071980D02*
X169523183Y-102976742D01*
X169523183Y-102976742D02*
X169523183Y-102691028D01*
X169523183Y-102691028D02*
X169475564Y-102595790D01*
X169475564Y-102595790D02*
X169427945Y-102548171D01*
X169427945Y-102548171D02*
X169332707Y-102500552D01*
X169332707Y-102500552D02*
X169142231Y-102500552D01*
X169142231Y-102500552D02*
X169046993Y-102548171D01*
X178630326Y-104850552D02*
X178630326Y-105517219D01*
X178630326Y-104945790D02*
X178582707Y-104898171D01*
X178582707Y-104898171D02*
X178487469Y-104850552D01*
X178487469Y-104850552D02*
X178344612Y-104850552D01*
X178344612Y-104850552D02*
X178249374Y-104898171D01*
X178249374Y-104898171D02*
X178201755Y-104993409D01*
X178201755Y-104993409D02*
X178201755Y-105517219D01*
X177296993Y-105469600D02*
X177392231Y-105517219D01*
X177392231Y-105517219D02*
X177582707Y-105517219D01*
X177582707Y-105517219D02*
X177677945Y-105469600D01*
X177677945Y-105469600D02*
X177725564Y-105421980D01*
X177725564Y-105421980D02*
X177773183Y-105326742D01*
X177773183Y-105326742D02*
X177773183Y-105041028D01*
X177773183Y-105041028D02*
X177725564Y-104945790D01*
X177725564Y-104945790D02*
X177677945Y-104898171D01*
X177677945Y-104898171D02*
X177582707Y-104850552D01*
X177582707Y-104850552D02*
X177392231Y-104850552D01*
X177392231Y-104850552D02*
X177296993Y-104898171D01*
X178875564Y-102317219D02*
X178256517Y-102317219D01*
X178256517Y-102317219D02*
X178589850Y-102698171D01*
X178589850Y-102698171D02*
X178446993Y-102698171D01*
X178446993Y-102698171D02*
X178351755Y-102745790D01*
X178351755Y-102745790D02*
X178304136Y-102793409D01*
X178304136Y-102793409D02*
X178256517Y-102888647D01*
X178256517Y-102888647D02*
X178256517Y-103126742D01*
X178256517Y-103126742D02*
X178304136Y-103221980D01*
X178304136Y-103221980D02*
X178351755Y-103269600D01*
X178351755Y-103269600D02*
X178446993Y-103317219D01*
X178446993Y-103317219D02*
X178732707Y-103317219D01*
X178732707Y-103317219D02*
X178827945Y-103269600D01*
X178827945Y-103269600D02*
X178875564Y-103221980D01*
X177827945Y-103221980D02*
X177780326Y-103269600D01*
X177780326Y-103269600D02*
X177827945Y-103317219D01*
X177827945Y-103317219D02*
X177875564Y-103269600D01*
X177875564Y-103269600D02*
X177827945Y-103221980D01*
X177827945Y-103221980D02*
X177827945Y-103317219D01*
X177446993Y-102317219D02*
X176827946Y-102317219D01*
X176827946Y-102317219D02*
X177161279Y-102698171D01*
X177161279Y-102698171D02*
X177018422Y-102698171D01*
X177018422Y-102698171D02*
X176923184Y-102745790D01*
X176923184Y-102745790D02*
X176875565Y-102793409D01*
X176875565Y-102793409D02*
X176827946Y-102888647D01*
X176827946Y-102888647D02*
X176827946Y-103126742D01*
X176827946Y-103126742D02*
X176875565Y-103221980D01*
X176875565Y-103221980D02*
X176923184Y-103269600D01*
X176923184Y-103269600D02*
X177018422Y-103317219D01*
X177018422Y-103317219D02*
X177304136Y-103317219D01*
X177304136Y-103317219D02*
X177399374Y-103269600D01*
X177399374Y-103269600D02*
X177446993Y-103221980D01*
X176494612Y-102650552D02*
X176256517Y-103317219D01*
X176256517Y-103317219D02*
X176018422Y-102650552D01*
X170327945Y-87719600D02*
X170232707Y-87767219D01*
X170232707Y-87767219D02*
X170042231Y-87767219D01*
X170042231Y-87767219D02*
X169946993Y-87719600D01*
X169946993Y-87719600D02*
X169899374Y-87624361D01*
X169899374Y-87624361D02*
X169899374Y-87576742D01*
X169899374Y-87576742D02*
X169946993Y-87481504D01*
X169946993Y-87481504D02*
X170042231Y-87433885D01*
X170042231Y-87433885D02*
X170185088Y-87433885D01*
X170185088Y-87433885D02*
X170280326Y-87386266D01*
X170280326Y-87386266D02*
X170327945Y-87291028D01*
X170327945Y-87291028D02*
X170327945Y-87243409D01*
X170327945Y-87243409D02*
X170280326Y-87148171D01*
X170280326Y-87148171D02*
X170185088Y-87100552D01*
X170185088Y-87100552D02*
X170042231Y-87100552D01*
X170042231Y-87100552D02*
X169946993Y-87148171D01*
X169042231Y-87767219D02*
X169042231Y-86767219D01*
X169042231Y-87719600D02*
X169137469Y-87767219D01*
X169137469Y-87767219D02*
X169327945Y-87767219D01*
X169327945Y-87767219D02*
X169423183Y-87719600D01*
X169423183Y-87719600D02*
X169470802Y-87671980D01*
X169470802Y-87671980D02*
X169518421Y-87576742D01*
X169518421Y-87576742D02*
X169518421Y-87291028D01*
X169518421Y-87291028D02*
X169470802Y-87195790D01*
X169470802Y-87195790D02*
X169423183Y-87148171D01*
X169423183Y-87148171D02*
X169327945Y-87100552D01*
X169327945Y-87100552D02*
X169137469Y-87100552D01*
X169137469Y-87100552D02*
X169042231Y-87148171D01*
X168137469Y-87767219D02*
X168137469Y-87243409D01*
X168137469Y-87243409D02*
X168185088Y-87148171D01*
X168185088Y-87148171D02*
X168280326Y-87100552D01*
X168280326Y-87100552D02*
X168470802Y-87100552D01*
X168470802Y-87100552D02*
X168566040Y-87148171D01*
X168137469Y-87719600D02*
X168232707Y-87767219D01*
X168232707Y-87767219D02*
X168470802Y-87767219D01*
X168470802Y-87767219D02*
X168566040Y-87719600D01*
X168566040Y-87719600D02*
X168613659Y-87624361D01*
X168613659Y-87624361D02*
X168613659Y-87529123D01*
X168613659Y-87529123D02*
X168566040Y-87433885D01*
X168566040Y-87433885D02*
X168470802Y-87386266D01*
X168470802Y-87386266D02*
X168232707Y-87386266D01*
X168232707Y-87386266D02*
X168137469Y-87338647D01*
X178827945Y-87719600D02*
X178732707Y-87767219D01*
X178732707Y-87767219D02*
X178542231Y-87767219D01*
X178542231Y-87767219D02*
X178446993Y-87719600D01*
X178446993Y-87719600D02*
X178399374Y-87624361D01*
X178399374Y-87624361D02*
X178399374Y-87576742D01*
X178399374Y-87576742D02*
X178446993Y-87481504D01*
X178446993Y-87481504D02*
X178542231Y-87433885D01*
X178542231Y-87433885D02*
X178685088Y-87433885D01*
X178685088Y-87433885D02*
X178780326Y-87386266D01*
X178780326Y-87386266D02*
X178827945Y-87291028D01*
X178827945Y-87291028D02*
X178827945Y-87243409D01*
X178827945Y-87243409D02*
X178780326Y-87148171D01*
X178780326Y-87148171D02*
X178685088Y-87100552D01*
X178685088Y-87100552D02*
X178542231Y-87100552D01*
X178542231Y-87100552D02*
X178446993Y-87148171D01*
X177542231Y-87719600D02*
X177637469Y-87767219D01*
X177637469Y-87767219D02*
X177827945Y-87767219D01*
X177827945Y-87767219D02*
X177923183Y-87719600D01*
X177923183Y-87719600D02*
X177970802Y-87671980D01*
X177970802Y-87671980D02*
X178018421Y-87576742D01*
X178018421Y-87576742D02*
X178018421Y-87291028D01*
X178018421Y-87291028D02*
X177970802Y-87195790D01*
X177970802Y-87195790D02*
X177923183Y-87148171D01*
X177923183Y-87148171D02*
X177827945Y-87100552D01*
X177827945Y-87100552D02*
X177637469Y-87100552D01*
X177637469Y-87100552D02*
X177542231Y-87148171D01*
X176970802Y-87767219D02*
X177066040Y-87719600D01*
X177066040Y-87719600D02*
X177113659Y-87624361D01*
X177113659Y-87624361D02*
X177113659Y-86767219D01*
D11*
X179658458Y-82669819D02*
X179039411Y-82669819D01*
X179039411Y-82669819D02*
X179372744Y-83050771D01*
X179372744Y-83050771D02*
X179229887Y-83050771D01*
X179229887Y-83050771D02*
X179134649Y-83098390D01*
X179134649Y-83098390D02*
X179087030Y-83146009D01*
X179087030Y-83146009D02*
X179039411Y-83241247D01*
X179039411Y-83241247D02*
X179039411Y-83479342D01*
X179039411Y-83479342D02*
X179087030Y-83574580D01*
X179087030Y-83574580D02*
X179134649Y-83622200D01*
X179134649Y-83622200D02*
X179229887Y-83669819D01*
X179229887Y-83669819D02*
X179515601Y-83669819D01*
X179515601Y-83669819D02*
X179610839Y-83622200D01*
X179610839Y-83622200D02*
X179658458Y-83574580D01*
X178610839Y-83574580D02*
X178563220Y-83622200D01*
X178563220Y-83622200D02*
X178610839Y-83669819D01*
X178610839Y-83669819D02*
X178658458Y-83622200D01*
X178658458Y-83622200D02*
X178610839Y-83574580D01*
X178610839Y-83574580D02*
X178610839Y-83669819D01*
X178229887Y-82669819D02*
X177610840Y-82669819D01*
X177610840Y-82669819D02*
X177944173Y-83050771D01*
X177944173Y-83050771D02*
X177801316Y-83050771D01*
X177801316Y-83050771D02*
X177706078Y-83098390D01*
X177706078Y-83098390D02*
X177658459Y-83146009D01*
X177658459Y-83146009D02*
X177610840Y-83241247D01*
X177610840Y-83241247D02*
X177610840Y-83479342D01*
X177610840Y-83479342D02*
X177658459Y-83574580D01*
X177658459Y-83574580D02*
X177706078Y-83622200D01*
X177706078Y-83622200D02*
X177801316Y-83669819D01*
X177801316Y-83669819D02*
X178087030Y-83669819D01*
X178087030Y-83669819D02*
X178182268Y-83622200D01*
X178182268Y-83622200D02*
X178229887Y-83574580D01*
X177277506Y-83003152D02*
X177039411Y-83669819D01*
X177039411Y-83669819D02*
X176801316Y-83003152D01*
X170434649Y-82903152D02*
X170434649Y-83712676D01*
X170434649Y-83712676D02*
X170482268Y-83807914D01*
X170482268Y-83807914D02*
X170529887Y-83855533D01*
X170529887Y-83855533D02*
X170625125Y-83903152D01*
X170625125Y-83903152D02*
X170767982Y-83903152D01*
X170767982Y-83903152D02*
X170863220Y-83855533D01*
X170434649Y-83522200D02*
X170529887Y-83569819D01*
X170529887Y-83569819D02*
X170720363Y-83569819D01*
X170720363Y-83569819D02*
X170815601Y-83522200D01*
X170815601Y-83522200D02*
X170863220Y-83474580D01*
X170863220Y-83474580D02*
X170910839Y-83379342D01*
X170910839Y-83379342D02*
X170910839Y-83093628D01*
X170910839Y-83093628D02*
X170863220Y-82998390D01*
X170863220Y-82998390D02*
X170815601Y-82950771D01*
X170815601Y-82950771D02*
X170720363Y-82903152D01*
X170720363Y-82903152D02*
X170529887Y-82903152D01*
X170529887Y-82903152D02*
X170434649Y-82950771D01*
X169958458Y-82903152D02*
X169958458Y-83569819D01*
X169958458Y-82998390D02*
X169910839Y-82950771D01*
X169910839Y-82950771D02*
X169815601Y-82903152D01*
X169815601Y-82903152D02*
X169672744Y-82903152D01*
X169672744Y-82903152D02*
X169577506Y-82950771D01*
X169577506Y-82950771D02*
X169529887Y-83046009D01*
X169529887Y-83046009D02*
X169529887Y-83569819D01*
X168625125Y-83569819D02*
X168625125Y-82569819D01*
X168625125Y-83522200D02*
X168720363Y-83569819D01*
X168720363Y-83569819D02*
X168910839Y-83569819D01*
X168910839Y-83569819D02*
X169006077Y-83522200D01*
X169006077Y-83522200D02*
X169053696Y-83474580D01*
X169053696Y-83474580D02*
X169101315Y-83379342D01*
X169101315Y-83379342D02*
X169101315Y-83093628D01*
X169101315Y-83093628D02*
X169053696Y-82998390D01*
X169053696Y-82998390D02*
X169006077Y-82950771D01*
X169006077Y-82950771D02*
X168910839Y-82903152D01*
X168910839Y-82903152D02*
X168720363Y-82903152D01*
X168720363Y-82903152D02*
X168625125Y-82950771D01*
D12*
X180649000Y-114142000D02*
G75*
G02*
X180395000Y-114142000I-127000J0D01*
G01*
X180395000Y-114142000D02*
G75*
G02*
X180649000Y-114142000I127000J0D01*
G01*
%LPC*%
D13*
X128050000Y-64544887D03*
D14*
X128050000Y-67044887D03*
D15*
X120200000Y-137500000D03*
X120200000Y-142000000D03*
X126700000Y-137500000D03*
X126700000Y-142000000D03*
D16*
X96900000Y-128500000D03*
D17*
X99440000Y-128500000D03*
D16*
X99540000Y-121400000D03*
D17*
X97000000Y-121400000D03*
D16*
X155680000Y-88200000D03*
D17*
X153140000Y-88200000D03*
X150600000Y-88200000D03*
X148060000Y-88200000D03*
D18*
X205000000Y-145000000D03*
X205000000Y-60000000D03*
D16*
X174740000Y-84925000D03*
D17*
X172200000Y-84925000D03*
X174740000Y-87465000D03*
X172200000Y-87465000D03*
X174740000Y-90005000D03*
X172200000Y-90005000D03*
X174740000Y-92545000D03*
X172200000Y-92545000D03*
X174740000Y-95085000D03*
X172200000Y-95085000D03*
X174740000Y-97625000D03*
X172200000Y-97625000D03*
X174740000Y-100165000D03*
X172200000Y-100165000D03*
X174740000Y-102705000D03*
X172200000Y-102705000D03*
X174740000Y-105245000D03*
X172200000Y-105245000D03*
X174740000Y-107785000D03*
X172200000Y-107785000D03*
X174740000Y-110325000D03*
X172200000Y-110325000D03*
D18*
X85000000Y-145000000D03*
D16*
X175775000Y-71500000D03*
D17*
X173235000Y-71500000D03*
X170695000Y-71500000D03*
X168155000Y-71500000D03*
X165615000Y-71500000D03*
X163075000Y-71500000D03*
X160535000Y-71500000D03*
X157995000Y-71500000D03*
X155455000Y-71500000D03*
X152915000Y-71500000D03*
X150375000Y-71500000D03*
D16*
X126160000Y-118500000D03*
D17*
X128700000Y-118500000D03*
D19*
X127500000Y-96260000D03*
D20*
X127500000Y-101140000D03*
D18*
X85000000Y-60000000D03*
D21*
X83900000Y-101700000D03*
X83900000Y-99700000D03*
X83900000Y-97700000D03*
X85900000Y-101700000D03*
X85900000Y-99700000D03*
X85900000Y-97700000D03*
D22*
X82900000Y-104450000D03*
X86900000Y-104450000D03*
X86900000Y-94950000D03*
X82900000Y-94950000D03*
D15*
X148931000Y-137500000D03*
X148931000Y-142000000D03*
X155431000Y-137500000D03*
X155431000Y-142000000D03*
X134500000Y-137500000D03*
X134500000Y-142000000D03*
X141000000Y-137500000D03*
X141000000Y-142000000D03*
%LPD*%
M02*
