G04 #@! TF.GenerationSoftware,KiCad,Pcbnew,9.0.4*
G04 #@! TF.CreationDate,2025-10-16T22:23:07+02:00*
G04 #@! TF.ProjectId,fotoaparat,666f746f-6170-4617-9261-742e6b696361,rev?*
G04 #@! TF.SameCoordinates,Original*
G04 #@! TF.FileFunction,Soldermask,Top*
G04 #@! TF.FilePolarity,Negative*
%FSLAX46Y46*%
G04 Gerber Fmt 4.6, Leading zero omitted, Abs format (unit mm)*
G04 Created by KiCad (PCBNEW 9.0.4) date 2025-10-16 22:23:07*
%MOMM*%
%LPD*%
G01*
G04 APERTURE LIST*
G04 Aperture macros list*
%AMRoundRect*
0 Rectangle with rounded corners*
0 $1 Rounding radius*
0 $2 $3 $4 $5 $6 $7 $8 $9 X,Y pos of 4 corners*
0 Add a 4 corners polygon primitive as box body*
4,1,4,$2,$3,$4,$5,$6,$7,$8,$9,$2,$3,0*
0 Add four circle primitives for the rounded corners*
1,1,$1+$1,$2,$3*
1,1,$1+$1,$4,$5*
1,1,$1+$1,$6,$7*
1,1,$1+$1,$8,$9*
0 Add four rect primitives between the rounded corners*
20,1,$1+$1,$2,$3,$4,$5,0*
20,1,$1+$1,$4,$5,$6,$7,0*
20,1,$1+$1,$6,$7,$8,$9,0*
20,1,$1+$1,$8,$9,$2,$3,0*%
G04 Aperture macros list end*
%ADD10C,1.575000*%
%ADD11R,1.498600X0.990600*%
%ADD12R,1.498600X0.711200*%
%ADD13R,2.794000X1.498600*%
%ADD14RoundRect,0.250000X0.475000X-0.337500X0.475000X0.337500X-0.475000X0.337500X-0.475000X-0.337500X0*%
%ADD15RoundRect,0.250000X-0.475000X0.337500X-0.475000X-0.337500X0.475000X-0.337500X0.475000X0.337500X0*%
%ADD16R,1.700000X1.700000*%
%ADD17C,1.700000*%
%ADD18RoundRect,0.075000X-0.700000X-0.075000X0.700000X-0.075000X0.700000X0.075000X-0.700000X0.075000X0*%
%ADD19RoundRect,0.075000X-0.075000X-0.700000X0.075000X-0.700000X0.075000X0.700000X-0.075000X0.700000X0*%
%ADD20R,1.380000X0.450000*%
%ADD21R,1.550000X1.425000*%
%ADD22R,1.300000X1.650000*%
%ADD23R,1.900000X1.800000*%
%ADD24R,1.900000X1.000000*%
%ADD25C,3.200000*%
%ADD26RoundRect,0.250000X-0.325000X-0.450000X0.325000X-0.450000X0.325000X0.450000X-0.325000X0.450000X0*%
%ADD27RoundRect,0.162500X-0.837500X-0.162500X0.837500X-0.162500X0.837500X0.162500X-0.837500X0.162500X0*%
%ADD28RoundRect,0.250000X-0.350000X-0.450000X0.350000X-0.450000X0.350000X0.450000X-0.350000X0.450000X0*%
%ADD29RoundRect,0.250000X-0.337500X-0.475000X0.337500X-0.475000X0.337500X0.475000X-0.337500X0.475000X0*%
%ADD30RoundRect,0.250000X0.450000X-0.350000X0.450000X0.350000X-0.450000X0.350000X-0.450000X-0.350000X0*%
%ADD31RoundRect,0.250000X0.350000X0.450000X-0.350000X0.450000X-0.350000X-0.450000X0.350000X-0.450000X0*%
%ADD32RoundRect,0.250000X-0.350000X0.275000X-0.350000X-0.275000X0.350000X-0.275000X0.350000X0.275000X0*%
%ADD33RoundRect,0.102000X0.750000X-0.300000X0.750000X0.300000X-0.750000X0.300000X-0.750000X-0.300000X0*%
%ADD34RoundRect,0.102000X0.750000X-0.400000X0.750000X0.400000X-0.750000X0.400000X-0.750000X-0.400000X0*%
%ADD35R,1.192000X1.192000*%
%ADD36C,1.192000*%
%ADD37RoundRect,0.250000X0.337500X0.475000X-0.337500X0.475000X-0.337500X-0.475000X0.337500X-0.475000X0*%
%ADD38RoundRect,0.250000X-0.550000X-0.850000X0.550000X-0.850000X0.550000X0.850000X-0.550000X0.850000X0*%
%ADD39RoundRect,0.250000X-0.450000X0.350000X-0.450000X-0.350000X0.450000X-0.350000X0.450000X0.350000X0*%
%ADD40C,1.500000*%
%ADD41C,2.250000*%
%ADD42R,1.512799X0.330200*%
%ADD43R,1.000000X2.500000*%
G04 APERTURE END LIST*
D10*
X120200000Y-137500000D03*
X120200000Y-142000000D03*
X126700000Y-137500000D03*
X126700000Y-142000000D03*
D11*
X182293599Y-114125000D03*
X182293599Y-116625000D03*
X182293599Y-119125000D03*
X182293599Y-121625000D03*
X182293599Y-124125000D03*
X182293599Y-126625000D03*
X182293599Y-129049999D03*
X182293599Y-130750021D03*
X182293599Y-111625000D03*
D12*
X182293599Y-132050001D03*
X182293599Y-133249897D03*
D13*
X184093601Y-134650001D03*
X184093601Y-109550000D03*
X205593601Y-134649998D03*
X205593601Y-107350002D03*
D14*
X123400000Y-71900000D03*
X123400000Y-69825000D03*
D15*
X83300000Y-126462500D03*
X83300000Y-128537500D03*
D16*
X96900000Y-128500000D03*
D17*
X99440000Y-128500000D03*
D18*
X136525000Y-95850000D03*
X136525000Y-96350000D03*
X136525000Y-96850000D03*
X136525000Y-97350000D03*
X136525000Y-97850000D03*
X136525000Y-98350000D03*
X136525000Y-98850000D03*
X136525000Y-99350000D03*
X136525000Y-99850000D03*
X136525000Y-100350000D03*
X136525000Y-100850000D03*
X136525000Y-101350000D03*
X136525000Y-101850000D03*
X136525000Y-102350000D03*
X136525000Y-102850000D03*
X136525000Y-103350000D03*
D19*
X138450000Y-105275000D03*
X138950000Y-105275000D03*
X139450000Y-105275000D03*
X139950000Y-105275000D03*
X140450000Y-105275000D03*
X140950000Y-105275000D03*
X141450000Y-105275000D03*
X141950000Y-105275000D03*
X142450000Y-105275000D03*
X142950000Y-105275000D03*
X143450000Y-105275000D03*
X143950000Y-105275000D03*
X144450000Y-105275000D03*
X144950000Y-105275000D03*
X145450000Y-105275000D03*
X145950000Y-105275000D03*
D18*
X147875000Y-103350000D03*
X147875000Y-102850000D03*
X147875000Y-102350000D03*
X147875000Y-101850000D03*
X147875000Y-101350000D03*
X147875000Y-100850000D03*
X147875000Y-100350000D03*
X147875000Y-99850000D03*
X147875000Y-99350000D03*
X147875000Y-98850000D03*
X147875000Y-98350000D03*
X147875000Y-97850000D03*
X147875000Y-97350000D03*
X147875000Y-96850000D03*
X147875000Y-96350000D03*
X147875000Y-95850000D03*
D19*
X145950000Y-93925000D03*
X145450000Y-93925000D03*
X144950000Y-93925000D03*
X144450000Y-93925000D03*
X143950000Y-93925000D03*
X143450000Y-93925000D03*
X142950000Y-93925000D03*
X142450000Y-93925000D03*
X141950000Y-93925000D03*
X141450000Y-93925000D03*
X140950000Y-93925000D03*
X140450000Y-93925000D03*
X139950000Y-93925000D03*
X139450000Y-93925000D03*
X138950000Y-93925000D03*
X138450000Y-93925000D03*
D16*
X99540000Y-121400000D03*
D17*
X97000000Y-121400000D03*
D20*
X204475000Y-98300000D03*
X204475000Y-97650000D03*
X204475000Y-97000000D03*
X204475000Y-96350000D03*
X204475000Y-95700000D03*
D21*
X204560000Y-99487000D03*
X204560000Y-94513000D03*
D22*
X207135000Y-100375000D03*
D23*
X207135000Y-98150000D03*
D24*
X207135000Y-95450000D03*
D22*
X207135000Y-93625000D03*
D16*
X155680000Y-88200000D03*
D17*
X153140000Y-88200000D03*
X150600000Y-88200000D03*
X148060000Y-88200000D03*
D25*
X205000000Y-145000000D03*
D14*
X83200000Y-120037500D03*
X83200000Y-117962500D03*
D26*
X106815000Y-138400000D03*
X108865000Y-138400000D03*
D27*
X85580000Y-127050000D03*
X85580000Y-128000000D03*
X85580000Y-128950000D03*
X89000000Y-128950000D03*
X89000000Y-127050000D03*
D14*
X125700000Y-71900000D03*
X125700000Y-69825000D03*
D28*
X105640000Y-121300000D03*
X107640000Y-121300000D03*
X107200000Y-100300000D03*
X109200000Y-100300000D03*
D27*
X85580000Y-120000000D03*
X85580000Y-120950000D03*
X85580000Y-121900000D03*
X89000000Y-121900000D03*
X89000000Y-120000000D03*
D25*
X205000000Y-60000000D03*
D28*
X86800000Y-109300000D03*
X88800000Y-109300000D03*
D29*
X132462500Y-95000000D03*
X134537500Y-95000000D03*
D26*
X106815000Y-135360000D03*
X108865000Y-135360000D03*
D30*
X172300000Y-81700000D03*
X172300000Y-79700000D03*
D28*
X170900000Y-117100000D03*
X172900000Y-117100000D03*
D16*
X174740000Y-84925000D03*
D17*
X172200000Y-84925000D03*
X174740000Y-87465000D03*
X172200000Y-87465000D03*
X174740000Y-90005000D03*
X172200000Y-90005000D03*
X174740000Y-92545000D03*
X172200000Y-92545000D03*
X174740000Y-95085000D03*
X172200000Y-95085000D03*
X174740000Y-97625000D03*
X172200000Y-97625000D03*
X174740000Y-100165000D03*
X172200000Y-100165000D03*
X174740000Y-102705000D03*
X172200000Y-102705000D03*
X174740000Y-105245000D03*
X172200000Y-105245000D03*
X174740000Y-107785000D03*
X172200000Y-107785000D03*
X174740000Y-110325000D03*
X172200000Y-110325000D03*
D31*
X105140000Y-141400000D03*
X103140000Y-141400000D03*
D14*
X150300000Y-95837500D03*
X150300000Y-93762500D03*
D25*
X85000000Y-145000000D03*
D15*
X127500000Y-89162500D03*
X127500000Y-91237500D03*
D29*
X108865000Y-127600000D03*
X110940000Y-127600000D03*
D28*
X167200000Y-129300000D03*
X169200000Y-129300000D03*
D15*
X129500000Y-106362500D03*
X129500000Y-108437500D03*
D16*
X175775000Y-71500000D03*
D17*
X173235000Y-71500000D03*
X170695000Y-71500000D03*
X168155000Y-71500000D03*
X165615000Y-71500000D03*
X163075000Y-71500000D03*
X160535000Y-71500000D03*
X157995000Y-71500000D03*
X155455000Y-71500000D03*
X152915000Y-71500000D03*
X150375000Y-71500000D03*
D32*
X131600000Y-106250000D03*
X131600000Y-108550000D03*
D31*
X168700000Y-85500000D03*
X166700000Y-85500000D03*
D28*
X132000000Y-71700000D03*
X134000000Y-71700000D03*
D33*
X101400000Y-92900000D03*
X104200000Y-93400000D03*
X101400000Y-93900000D03*
X104200000Y-94400000D03*
X101400000Y-94900000D03*
X104200000Y-95400000D03*
X101400000Y-95900000D03*
X104200000Y-96400000D03*
X101400000Y-96900000D03*
X104200000Y-97400000D03*
X101400000Y-97900000D03*
X104200000Y-98400000D03*
X101400000Y-98900000D03*
X104200000Y-99400000D03*
X101400000Y-99900000D03*
X104200000Y-100400000D03*
X101400000Y-100900000D03*
X104200000Y-101400000D03*
X101400000Y-101900000D03*
X104200000Y-102400000D03*
D34*
X104200000Y-91900000D03*
X101400000Y-91900000D03*
X104200000Y-103400000D03*
X101400000Y-103400000D03*
D16*
X126160000Y-118500000D03*
D17*
X128700000Y-118500000D03*
D35*
X127500000Y-96260000D03*
D36*
X127500000Y-101140000D03*
D14*
X118600000Y-71900000D03*
X118600000Y-69825000D03*
X121000000Y-71937500D03*
X121000000Y-69862500D03*
D37*
X131500000Y-115700000D03*
X129425000Y-115700000D03*
D25*
X85000000Y-60000000D03*
D38*
X155000000Y-104800000D03*
X161400000Y-104800000D03*
D14*
X102740000Y-121175000D03*
X102740000Y-119100000D03*
D30*
X104940000Y-138500000D03*
X104940000Y-136500000D03*
D31*
X93100000Y-108400000D03*
X91100000Y-108400000D03*
D39*
X179500000Y-110500000D03*
X179500000Y-112500000D03*
D40*
X83900000Y-101700000D03*
X83900000Y-99700000D03*
X83900000Y-97700000D03*
X85900000Y-101700000D03*
X85900000Y-99700000D03*
X85900000Y-97700000D03*
D41*
X82900000Y-104450000D03*
X86900000Y-104450000D03*
X86900000Y-94950000D03*
X82900000Y-94950000D03*
D42*
X108829400Y-125200000D03*
X108829400Y-124699998D03*
X108829400Y-124199999D03*
X108829400Y-123700000D03*
X108829400Y-123199998D03*
X104740000Y-123199998D03*
X104740000Y-123700000D03*
X104740000Y-124199999D03*
X104740000Y-124699998D03*
X104740000Y-125200000D03*
D28*
X101700000Y-87900000D03*
X103700000Y-87900000D03*
X166800000Y-117100000D03*
X168800000Y-117100000D03*
D10*
X148931000Y-137500000D03*
X148931000Y-142000000D03*
X155431000Y-137500000D03*
X155431000Y-142000000D03*
D30*
X106640000Y-133400000D03*
X106640000Y-131400000D03*
D39*
X158400000Y-141000000D03*
X158400000Y-143000000D03*
D28*
X174900000Y-117200000D03*
X176900000Y-117200000D03*
D37*
X138337500Y-91400000D03*
X136262500Y-91400000D03*
D14*
X128100000Y-71875000D03*
X128100000Y-69800000D03*
D28*
X175200000Y-129300000D03*
X177200000Y-129300000D03*
D14*
X91300000Y-122037500D03*
X91300000Y-119962500D03*
D39*
X144000000Y-141000000D03*
X144000000Y-143000000D03*
D31*
X96740000Y-124700000D03*
X94740000Y-124700000D03*
D37*
X93937500Y-130000000D03*
X91862500Y-130000000D03*
D43*
X131830000Y-87750000D03*
X134370000Y-87750000D03*
X131830000Y-78650000D03*
X134370000Y-78650000D03*
D29*
X136762500Y-108200000D03*
X138837500Y-108200000D03*
D31*
X181600000Y-103800000D03*
X179600000Y-103800000D03*
D14*
X125400000Y-108437500D03*
X125400000Y-106362500D03*
D15*
X127400000Y-106362500D03*
X127400000Y-108437500D03*
D31*
X134100000Y-91300000D03*
X132100000Y-91300000D03*
D28*
X171100000Y-129300000D03*
X173100000Y-129300000D03*
D39*
X179500000Y-106200000D03*
X179500000Y-108200000D03*
D10*
X134500000Y-137500000D03*
X134500000Y-142000000D03*
X141000000Y-137500000D03*
X141000000Y-142000000D03*
D26*
X106815000Y-141440000D03*
X108865000Y-141440000D03*
D39*
X129900000Y-141000000D03*
X129900000Y-143000000D03*
D29*
X146062500Y-107500000D03*
X148137500Y-107500000D03*
D31*
X101340000Y-124700000D03*
X99340000Y-124700000D03*
M02*
