M48
; DRILL file {KiCad 9.0.5} date 2025-12-01T18:27:16+0100
; FORMAT={-:-/ absolute / metric / decimal}
; #@! TF.CreationDate,2025-12-01T18:27:16+01:00
; #@! TF.GenerationSoftware,Kicad,Pcbnew,9.0.5
; #@! TF.FileFunction,Plated,1,2,PTH
FMAT,2
METRIC
; #@! TA.AperFunction,Plated,PTH,ViaDrill
T1C0.800
; #@! TA.AperFunction,Plated,PTH,ComponentDrill
T2C0.800
%
G90
G05
T1
X6.648Y62.384
X9.715Y4.13
X15.525Y31.241
X15.73Y59.283
X17.959Y33.263
X19.011Y50.934
X19.47Y39.595
X20.5Y11.0
X20.866Y30.792
X27.27Y40.112
X28.452Y16.604
X29.922Y41.99
X40.09Y59.001
X40.368Y10.11
X41.335Y34.006
X44.267Y41.41
X47.17Y36.442
X49.25Y28.695
X52.79Y27.402
X54.606Y16.606
X57.694Y18.159
X62.134Y8.102
X71.526Y50.745
X72.447Y62.445
X72.737Y66.696
X74.628Y52.408
X76.483Y50.352
X78.285Y54.689
X83.973Y17.529
X86.697Y53.172
X86.886Y31.904
X96.545Y16.6
T2
X8.8Y46.78
X8.8Y44.28
X8.8Y41.58
X8.8Y38.88
X9.21Y35.21
X9.21Y32.67
X9.21Y30.13
X9.21Y27.59
X9.21Y25.05
X9.21Y22.51
X9.21Y19.97
X9.21Y17.43
X9.21Y14.89
X9.21Y12.35
X9.21Y9.81
X11.75Y35.21
X11.75Y32.67
X11.75Y30.13
X11.75Y27.59
X11.75Y25.05
X11.75Y22.51
X11.75Y19.97
X11.75Y17.43
X11.75Y14.89
X11.75Y12.35
X11.75Y9.81
X13.96Y62.15
X13.995Y46.92
X16.5Y62.15
X16.535Y46.92
X19.04Y62.15
X19.075Y46.92
X21.58Y62.15
X21.615Y46.92
X24.12Y62.15
X24.155Y46.92
X26.66Y62.15
X26.695Y46.92
X28.735Y2.572
X29.2Y62.15
X29.235Y46.92
X31.275Y2.572
X31.74Y62.15
X31.775Y46.92
X34.112Y36.58
X34.112Y26.42
X34.28Y62.15
X34.315Y46.92
X35.46Y17.5
X36.82Y62.15
X36.855Y46.92
X37.92Y33.612
X38.0Y17.5
X38.12Y29.269
X38.12Y23.669
X38.14Y26.469
X39.36Y62.15
X39.395Y46.92
X41.9Y62.15
X41.935Y46.92
X43.0Y8.0
X43.0Y2.0
X44.0Y23.5
X44.0Y21.5
X44.44Y62.15
X44.475Y46.92
X46.98Y62.15
X47.015Y46.92
X48.08Y33.612
X49.0Y8.0
X49.0Y2.0
X49.52Y62.15
X49.555Y46.92
X51.04Y37.356
X51.92Y34.112
X52.06Y62.15
X52.095Y46.92
X52.92Y18.887
X54.6Y62.15
X54.635Y46.92
X55.5Y28.955
X55.5Y26.955
X56.48Y37.5
X56.5Y40.3
X56.5Y34.7
X57.14Y62.15
X57.175Y46.92
X58.42Y22.887
X59.68Y62.15
X59.715Y46.92
X61.2Y37.356
X62.08Y34.112
X62.22Y62.15
X62.255Y46.92
X63.08Y18.887
X66.2Y19.02
X67.5Y34.5
X68.58Y22.887
X69.0Y19.0
X69.082Y66.48
X69.082Y43.48
X69.225Y56.66
X69.225Y46.5
X71.5Y34.5
X71.8Y19.02
X72.15Y43.38
X74.612Y29.58
X74.612Y19.42
X76.92Y38.887
X77.888Y33.58
X77.888Y23.42
X78.42Y19.113
X79.85Y43.48
X80.5Y56.66
X80.5Y46.5
X83.082Y66.48
X83.082Y43.48
X83.86Y33.531
X83.88Y36.331
X83.88Y30.731
X87.08Y38.887
X88.58Y19.113
X89.0Y29.0
X89.0Y27.0
X93.5Y59.44
X93.5Y56.9
X93.5Y54.36
X93.5Y51.82
X93.5Y49.28
X93.5Y46.74
X93.5Y44.2
X93.5Y41.66
X93.5Y39.12
X93.5Y36.58
X93.5Y34.04
X93.5Y31.5
X93.5Y28.96
X93.5Y26.42
M30
