G04 #@! TF.GenerationSoftware,KiCad,Pcbnew,9.0.5*
G04 #@! TF.CreationDate,2025-11-30T18:01:55+01:00*
G04 #@! TF.ProjectId,fotoaparat,666f746f-6170-4617-9261-742e6b696361,rev?*
G04 #@! TF.SameCoordinates,Original*
G04 #@! TF.FileFunction,Copper,L2,Bot*
G04 #@! TF.FilePolarity,Positive*
%FSLAX46Y46*%
G04 Gerber Fmt 4.6, Leading zero omitted, Abs format (unit mm)*
G04 Created by KiCad (PCBNEW 9.0.5) date 2025-11-30 18:01:55*
%MOMM*%
%LPD*%
G01*
G04 APERTURE LIST*
G04 Aperture macros list*
%AMRoundRect*
0 Rectangle with rounded corners*
0 $1 Rounding radius*
0 $2 $3 $4 $5 $6 $7 $8 $9 X,Y pos of 4 corners*
0 Add a 4 corners polygon primitive as box body*
4,1,4,$2,$3,$4,$5,$6,$7,$8,$9,$2,$3,0*
0 Add four circle primitives for the rounded corners*
1,1,$1+$1,$2,$3*
1,1,$1+$1,$4,$5*
1,1,$1+$1,$6,$7*
1,1,$1+$1,$8,$9*
0 Add four rect primitives between the rounded corners*
20,1,$1+$1,$2,$3,$4,$5,0*
20,1,$1+$1,$4,$5,$6,$7,0*
20,1,$1+$1,$6,$7,$8,$9,0*
20,1,$1+$1,$8,$9,$2,$3,0*%
G04 Aperture macros list end*
G04 #@! TA.AperFunction,ComponentPad*
%ADD10R,1.900000X2.300000*%
G04 #@! TD*
G04 #@! TA.AperFunction,ComponentPad*
%ADD11C,1.900000*%
G04 #@! TD*
G04 #@! TA.AperFunction,ComponentPad*
%ADD12R,2.400000X1.900000*%
G04 #@! TD*
G04 #@! TA.AperFunction,ComponentPad*
%ADD13R,1.900000X1.900000*%
G04 #@! TD*
G04 #@! TA.AperFunction,ComponentPad*
%ADD14C,2.300000*%
G04 #@! TD*
G04 #@! TA.AperFunction,SMDPad,CuDef*
%ADD15RoundRect,0.250000X-0.475000X0.337500X-0.475000X-0.337500X0.475000X-0.337500X0.475000X0.337500X0*%
G04 #@! TD*
G04 #@! TA.AperFunction,SMDPad,CuDef*
%ADD16RoundRect,0.150000X-0.512500X-0.150000X0.512500X-0.150000X0.512500X0.150000X-0.512500X0.150000X0*%
G04 #@! TD*
G04 #@! TA.AperFunction,ComponentPad*
%ADD17C,2.400000*%
G04 #@! TD*
G04 #@! TA.AperFunction,ComponentPad*
%ADD18C,1.600000*%
G04 #@! TD*
G04 #@! TA.AperFunction,ComponentPad*
%ADD19RoundRect,0.250000X-0.550000X0.550000X-0.550000X-0.550000X0.550000X-0.550000X0.550000X0.550000X0*%
G04 #@! TD*
G04 #@! TA.AperFunction,SMDPad,CuDef*
%ADD20RoundRect,0.150000X0.512500X0.150000X-0.512500X0.150000X-0.512500X-0.150000X0.512500X-0.150000X0*%
G04 #@! TD*
G04 #@! TA.AperFunction,ComponentPad*
%ADD21O,2.400000X2.400000*%
G04 #@! TD*
G04 #@! TA.AperFunction,ComponentPad*
%ADD22R,2.400000X2.400000*%
G04 #@! TD*
G04 #@! TA.AperFunction,SMDPad,CuDef*
%ADD23RoundRect,0.175000X-0.175000X0.825000X-0.175000X-0.825000X0.175000X-0.825000X0.175000X0.825000X0*%
G04 #@! TD*
G04 #@! TA.AperFunction,ComponentPad*
%ADD24RoundRect,0.250000X0.550000X-0.550000X0.550000X0.550000X-0.550000X0.550000X-0.550000X-0.550000X0*%
G04 #@! TD*
G04 #@! TA.AperFunction,SMDPad,CuDef*
%ADD25RoundRect,0.175000X-0.825000X-0.175000X0.825000X-0.175000X0.825000X0.175000X-0.825000X0.175000X0*%
G04 #@! TD*
G04 #@! TA.AperFunction,SMDPad,CuDef*
%ADD26RoundRect,0.175000X0.825000X0.175000X-0.825000X0.175000X-0.825000X-0.175000X0.825000X-0.175000X0*%
G04 #@! TD*
G04 #@! TA.AperFunction,ViaPad*
%ADD27C,2.400000*%
G04 #@! TD*
G04 #@! TA.AperFunction,Conductor*
%ADD28C,0.800000*%
G04 #@! TD*
G04 #@! TA.AperFunction,Conductor*
%ADD29C,0.601000*%
G04 #@! TD*
G04 APERTURE END LIST*
D10*
X30275000Y2572500D03*
D11*
X27735000Y2572500D03*
D10*
X34460000Y17500000D03*
D11*
X37000000Y17500000D03*
D12*
X92500000Y59440000D03*
D11*
X92500000Y56900000D03*
X92500000Y54360000D03*
X92500000Y51820000D03*
X92500000Y49280000D03*
X92500000Y46740000D03*
X92500000Y44200000D03*
X92500000Y41660000D03*
X92500000Y39120000D03*
X92500000Y36580000D03*
X92500000Y34040000D03*
X92500000Y31500000D03*
X92500000Y28960000D03*
X92500000Y26420000D03*
X7800000Y46780000D03*
X7800000Y44280000D03*
X7800000Y41580000D03*
X7800000Y38880000D03*
D13*
X8210000Y35210000D03*
D11*
X10750000Y35210000D03*
X8210000Y32670000D03*
X10750000Y32670000D03*
X8210000Y30130000D03*
X10750000Y30130000D03*
X8210000Y27590000D03*
X10750000Y27590000D03*
X8210000Y25050000D03*
X10750000Y25050000D03*
X8210000Y22510000D03*
X10750000Y22510000D03*
X8210000Y19970000D03*
X10750000Y19970000D03*
X8210000Y17430000D03*
X10750000Y17430000D03*
X8210000Y14890000D03*
X10750000Y14890000D03*
X8210000Y12350000D03*
X10750000Y12350000D03*
X8210000Y9810000D03*
X10750000Y9810000D03*
D10*
X61220000Y62150000D03*
D11*
X58680000Y62150000D03*
X56140000Y62150000D03*
X53600000Y62150000D03*
X51060000Y62150000D03*
X48520000Y62150000D03*
X45980000Y62150000D03*
X43440000Y62150000D03*
X40900000Y62150000D03*
X38360000Y62150000D03*
X35820000Y62150000D03*
X33280000Y62150000D03*
X30740000Y62150000D03*
X28200000Y62150000D03*
X25660000Y62150000D03*
X23120000Y62150000D03*
X20580000Y62150000D03*
X18040000Y62150000D03*
X15500000Y62150000D03*
X12960000Y62150000D03*
D10*
X61255000Y46920000D03*
D11*
X58715000Y46920000D03*
X56175000Y46920000D03*
X53635000Y46920000D03*
X51095000Y46920000D03*
X48555000Y46920000D03*
X46015000Y46920000D03*
X43475000Y46920000D03*
X40935000Y46920000D03*
X38395000Y46920000D03*
X35855000Y46920000D03*
X33315000Y46920000D03*
X30775000Y46920000D03*
X28235000Y46920000D03*
X25695000Y46920000D03*
X23155000Y46920000D03*
X20615000Y46920000D03*
X18075000Y46920000D03*
X15535000Y46920000D03*
X12995000Y46920000D03*
D14*
X82082341Y66480000D03*
X68082341Y66480000D03*
X82082341Y43480000D03*
X68082341Y43480000D03*
X78850000Y43480000D03*
X71150000Y43380000D03*
D15*
X54362500Y22500000D03*
X54362500Y24575000D03*
D16*
X81275000Y26550000D03*
X81275000Y28450000D03*
X79000000Y28450000D03*
X79000000Y27500000D03*
X79000000Y26550000D03*
D17*
X33112500Y36580000D03*
X33112500Y26420000D03*
X68225000Y56660000D03*
X68225000Y46500000D03*
X36920000Y33612500D03*
X47080000Y33612500D03*
D18*
X43000000Y21500000D03*
D19*
X43000000Y23500000D03*
D17*
X79500000Y46500000D03*
X79500000Y56660000D03*
D15*
X67637500Y27962500D03*
X67637500Y30037500D03*
D17*
X87580000Y19112500D03*
X77420000Y19112500D03*
D20*
X49725000Y23450000D03*
X49725000Y21550000D03*
X52000000Y21550000D03*
X52000000Y22500000D03*
X52000000Y23450000D03*
D17*
X51920000Y18887500D03*
X62080000Y18887500D03*
D21*
X82880000Y36331150D03*
X82860000Y33531150D03*
D22*
X82880000Y30668850D03*
D17*
X60200000Y37356400D03*
X50040000Y37356400D03*
D21*
X65200000Y19020000D03*
X68000000Y19000000D03*
D22*
X70862300Y19020000D03*
D15*
X76637500Y27462500D03*
X76637500Y29537500D03*
X81637500Y22462500D03*
X81637500Y24537500D03*
X60137500Y26925000D03*
X60137500Y29000000D03*
D17*
X75920000Y38887500D03*
X86080000Y38887500D03*
X76887500Y33580000D03*
X76887500Y23420000D03*
D20*
X62862500Y28950000D03*
X62862500Y27050000D03*
X65137500Y27050000D03*
X65137500Y28000000D03*
X65137500Y28950000D03*
D17*
X73612500Y29580000D03*
X73612500Y19420000D03*
X66500000Y34500000D03*
D22*
X70500000Y34500000D03*
D23*
X42000000Y27300000D03*
X42950000Y30700000D03*
X41050000Y30700000D03*
D18*
X88000000Y29000000D03*
D24*
X88000000Y27000000D03*
D21*
X37120000Y23668900D03*
X37140000Y26468900D03*
D22*
X37120000Y29331200D03*
D15*
X46862500Y21462500D03*
X46862500Y23537500D03*
D18*
X54500000Y26955100D03*
D19*
X54500000Y28955100D03*
D17*
X57420000Y22887500D03*
X67580000Y22887500D03*
D21*
X55500000Y40300000D03*
X55480000Y37500000D03*
D22*
X55500000Y34637700D03*
D17*
X48000000Y8000000D03*
X42000000Y8000000D03*
X48000000Y2000000D03*
X42000000Y2000000D03*
X50920000Y34112500D03*
X61080000Y34112500D03*
D25*
X36200000Y40500000D03*
X32800000Y41450000D03*
X32800000Y39550000D03*
D26*
X59800000Y41000000D03*
X63200000Y40050000D03*
X63200000Y41950000D03*
D27*
X19500000Y11000000D03*
X53605600Y16605600D03*
X71446500Y62445100D03*
X73627800Y52408300D03*
X27451600Y16604400D03*
X28922400Y41990500D03*
X18469700Y39595100D03*
X16959000Y33263400D03*
X19866500Y30791800D03*
X71736800Y66695900D03*
X39367900Y10110200D03*
X77284800Y54689500D03*
X70526400Y50745400D03*
X43266900Y41409700D03*
X14729900Y59283500D03*
X51789800Y27401800D03*
X95545500Y16599700D03*
X46169600Y36442500D03*
X26269800Y40112000D03*
X5648100Y62384500D03*
X8715300Y4129900D03*
X18011400Y50934400D03*
X40335000Y34006400D03*
X14525400Y31241100D03*
X75483100Y50352500D03*
X56693500Y18159200D03*
X61133700Y8101600D03*
X82973300Y17529300D03*
X85885700Y31904300D03*
X39090400Y59001200D03*
X85697200Y53172100D03*
X48250300Y28695200D03*
D28*
X85408850Y36080000D02*
X82860000Y33531150D01*
X86080000Y36080000D02*
X85408850Y36080000D01*
X83911150Y29700000D02*
X82880000Y30731150D01*
X84520000Y29700000D02*
X83911150Y29700000D01*
X10836800Y19970000D02*
X10750000Y19970000D01*
X16500000Y14306800D02*
X10836800Y19970000D01*
X16500000Y9225100D02*
X16500000Y14306800D01*
X7927600Y2228200D02*
X9503100Y2228200D01*
X1818900Y61244700D02*
X1818900Y8336900D01*
X1818900Y8336900D02*
X7927600Y2228200D01*
X54701800Y66251900D02*
X6826100Y66251900D01*
X6826100Y66251900D02*
X1818900Y61244700D01*
X9503100Y2228200D02*
X16500000Y9225100D01*
X58680000Y62273700D02*
X54701800Y66251900D01*
X58680000Y62150000D02*
X58680000Y62273700D01*
X75327600Y66326200D02*
X71446500Y62445100D01*
X79550200Y66326200D02*
X75327600Y66326200D01*
X82251400Y63625000D02*
X79550200Y66326200D01*
X95195500Y63625000D02*
X82251400Y63625000D01*
X97907800Y60912700D02*
X95195500Y63625000D01*
X97907800Y16215500D02*
X97907800Y60912700D01*
X87738500Y6046200D02*
X97907800Y16215500D01*
X47258600Y6046200D02*
X87738500Y6046200D01*
X46086100Y7218700D02*
X47258600Y6046200D01*
X46086100Y9086100D02*
X46086100Y7218700D01*
X53605600Y16605600D02*
X46086100Y9086100D01*
X68000000Y22467500D02*
X68000000Y19000000D01*
X67580000Y22887500D02*
X68000000Y22467500D01*
X92815600Y31620000D02*
X92700000Y31620000D01*
X95660900Y34465300D02*
X92815600Y31620000D01*
X95660900Y59952700D02*
X95660900Y34465300D01*
X94201900Y61411700D02*
X95660900Y59952700D01*
X89445600Y61411700D02*
X94201900Y61411700D01*
X80442200Y52408300D02*
X89445600Y61411700D01*
X73627800Y52408300D02*
X80442200Y52408300D01*
X92815600Y39240000D02*
X92700000Y39240000D01*
X94557700Y40982100D02*
X92815600Y39240000D01*
X94557700Y52720900D02*
X94557700Y40982100D01*
X92798600Y54480000D02*
X94557700Y52720900D01*
X92700000Y54480000D02*
X92798600Y54480000D01*
X28922400Y18075200D02*
X27451600Y16604400D01*
X28922400Y41990500D02*
X28922400Y18075200D01*
X67190900Y62150000D02*
X71736800Y66695900D01*
X61220000Y62150000D02*
X67190900Y62150000D01*
X16959100Y33263400D02*
X16959000Y33263400D01*
X16959100Y38084500D02*
X16959100Y33263400D01*
X18469700Y39595100D02*
X16959100Y38084500D01*
X39367900Y10110300D02*
X39367900Y10110200D01*
X31218300Y10110300D02*
X39367900Y10110300D01*
X19866500Y21462100D02*
X31218300Y10110300D01*
X19866500Y30791800D02*
X19866500Y21462100D01*
X41050000Y30700000D02*
X37120000Y30700000D01*
X37120000Y33412500D02*
X37120000Y30700000D01*
X36920000Y33612500D02*
X37120000Y33412500D01*
X37120000Y30700000D02*
X37120000Y29268900D01*
X70526400Y52030000D02*
X70526400Y50745400D01*
X73185900Y54689500D02*
X70526400Y52030000D01*
X77284800Y54689500D02*
X73185900Y54689500D01*
X84520000Y22172500D02*
X84520000Y29700000D01*
X87580000Y19112500D02*
X84520000Y22172500D01*
X86080000Y38887500D02*
X86080000Y36080000D01*
X46015000Y44157800D02*
X43266900Y41409700D01*
X46015000Y46920000D02*
X46015000Y44157800D01*
X92576100Y46860000D02*
X92700000Y46860000D01*
X90838200Y48597900D02*
X92576100Y46860000D01*
X90838200Y55276100D02*
X90838200Y48597900D01*
X92582100Y57020000D02*
X90838200Y55276100D01*
X92700000Y57020000D02*
X92582100Y57020000D01*
X10021100Y54574700D02*
X14729900Y59283500D01*
X10021100Y44995500D02*
X10021100Y54574700D01*
X12631200Y42385400D02*
X10021100Y44995500D01*
X12631200Y34394000D02*
X12631200Y42385400D01*
X10907200Y32670000D02*
X12631200Y34394000D01*
X10750000Y32670000D02*
X10907200Y32670000D01*
X41132800Y26432800D02*
X42000000Y27300000D01*
X41132800Y21592800D02*
X41132800Y26432800D01*
X37040000Y17500000D02*
X41132800Y21592800D01*
X51789800Y28698100D02*
X51789800Y27401800D01*
X53785600Y30693900D02*
X51789800Y28698100D01*
X54987500Y30693900D02*
X53785600Y30693900D01*
X58243100Y33949500D02*
X54987500Y30693900D01*
X58243100Y39443100D02*
X58243100Y33949500D01*
X59800000Y41000000D02*
X58243100Y39443100D01*
X96770300Y17824500D02*
X95545500Y16599700D01*
X96770300Y60435600D02*
X96770300Y17824500D01*
X94682600Y62523300D02*
X96770300Y60435600D01*
X80660200Y62523300D02*
X94682600Y62523300D01*
X80660200Y62523400D02*
X80660200Y62523300D01*
X77973000Y65210600D02*
X80660200Y62523400D01*
X76397500Y65210600D02*
X77973000Y65210600D01*
X75283500Y64096600D02*
X76397500Y65210600D01*
X75283500Y63580900D02*
X75283500Y64096600D01*
X71996400Y60293800D02*
X75283500Y63580900D01*
X57884000Y60293800D02*
X71996400Y60293800D01*
X56140000Y62037800D02*
X57884000Y60293800D01*
X56140000Y62150000D02*
X56140000Y62037800D01*
X46169600Y38285100D02*
X46169600Y36442500D01*
X51095000Y43210500D02*
X46169600Y38285100D01*
X51095000Y46920000D02*
X51095000Y43210500D01*
X26269800Y39884700D02*
X26269800Y40112000D01*
X11435100Y25050000D02*
X26269800Y39884700D01*
X10750000Y25050000D02*
X11435100Y25050000D01*
X34500000Y17500000D02*
X34500000Y19450000D01*
X35014200Y39314200D02*
X36200000Y40500000D01*
X35014200Y19964200D02*
X35014200Y39314200D01*
X34500000Y19450000D02*
X35014200Y19964200D01*
X2932900Y9912300D02*
X8715300Y4129900D01*
X2932900Y59669300D02*
X2932900Y9912300D01*
X5648100Y62384500D02*
X2932900Y59669300D01*
X28200000Y61123000D02*
X18011400Y50934400D01*
X28200000Y62150000D02*
X28200000Y61123000D01*
X40335000Y34008600D02*
X40335000Y34006400D01*
X48555000Y42228600D02*
X40335000Y34008600D01*
X48555000Y46920000D02*
X48555000Y42228600D01*
X53600000Y62289700D02*
X53600000Y62150000D01*
X50748400Y65141300D02*
X53600000Y62289700D01*
X11712800Y65141300D02*
X50748400Y65141300D01*
X4080100Y57508600D02*
X11712800Y65141300D01*
X4080100Y11260100D02*
X4080100Y57508600D01*
X7382300Y7957900D02*
X4080100Y11260100D01*
X9041400Y7957900D02*
X7382300Y7957900D01*
X10750000Y9666500D02*
X9041400Y7957900D01*
X10750000Y9810000D02*
X10750000Y9666500D01*
X20580000Y59920000D02*
X20580000Y62150000D01*
X11133400Y50473400D02*
X20580000Y59920000D01*
X11133400Y45977800D02*
X11133400Y50473400D01*
X14525400Y42585800D02*
X11133400Y45977800D01*
X14525400Y31241100D02*
X14525400Y42585800D01*
X45980000Y62229400D02*
X45980000Y62150000D01*
X44175100Y64034300D02*
X45980000Y62229400D01*
X12185100Y64034300D02*
X44175100Y64034300D01*
X5204500Y57053700D02*
X12185100Y64034300D01*
X5204500Y12670200D02*
X5204500Y57053700D01*
X8064700Y9810000D02*
X5204500Y12670200D01*
X8210000Y9810000D02*
X8064700Y9810000D01*
X32800000Y36892500D02*
X32800000Y39550000D01*
X33112500Y36580000D02*
X32800000Y36892500D01*
X30824100Y46870900D02*
X30775000Y46920000D01*
X30824100Y41163100D02*
X30824100Y46870900D01*
X32437200Y39550000D02*
X30824100Y41163100D01*
X32800000Y39550000D02*
X32437200Y39550000D01*
X75483100Y39324400D02*
X75920000Y38887500D01*
X75483100Y50352500D02*
X75483100Y39324400D01*
X66589000Y41950000D02*
X63200000Y41950000D01*
X69651500Y38887500D02*
X66589000Y41950000D01*
X75920000Y38887500D02*
X69651500Y38887500D01*
X56693500Y16693500D02*
X56693500Y18159200D01*
X48000000Y8000000D02*
X56693500Y16693500D01*
X80173000Y41570700D02*
X82082300Y43480000D01*
X80173000Y34108700D02*
X80173000Y41570700D01*
X77433500Y31369200D02*
X80173000Y34108700D01*
X75401700Y31369200D02*
X77433500Y31369200D01*
X73612500Y29580000D02*
X75401700Y31369200D01*
X50040000Y37584200D02*
X50040000Y37356400D01*
X56685700Y44229900D02*
X50040000Y37584200D01*
X61859200Y44229900D02*
X56685700Y44229900D01*
X63113200Y45483900D02*
X61859200Y44229900D01*
X63113200Y50016000D02*
X63113200Y45483900D01*
X51060000Y62069200D02*
X63113200Y50016000D01*
X51060000Y62150000D02*
X51060000Y62069200D01*
X73612500Y20145000D02*
X73612500Y19420000D01*
X76887500Y23420000D02*
X73612500Y20145000D01*
X51920000Y17920000D02*
X42000000Y8000000D01*
X51920000Y18887500D02*
X51920000Y17920000D01*
X88032700Y50836600D02*
X85697200Y53172100D01*
X88032700Y34051300D02*
X88032700Y50836600D01*
X85885700Y31904300D02*
X88032700Y34051300D01*
X45486800Y59001200D02*
X39090400Y59001200D01*
X48520000Y62034400D02*
X45486800Y59001200D01*
X48520000Y62150000D02*
X48520000Y62034400D01*
X73545600Y8101600D02*
X61133700Y8101600D01*
X82973300Y17529300D02*
X73545600Y8101600D01*
X81275000Y24900000D02*
X81275000Y26550000D01*
X81637500Y24537500D02*
X81275000Y24900000D01*
X89500200Y25499800D02*
X88000000Y27000000D01*
X89500200Y18317900D02*
X89500200Y25499800D01*
X88341600Y17159300D02*
X89500200Y18317900D01*
X86776700Y17159300D02*
X88341600Y17159300D01*
X83065200Y20870800D02*
X86776700Y17159300D01*
X83065200Y23269700D02*
X83065200Y20870800D01*
X81797400Y24537500D02*
X83065200Y23269700D01*
X81637500Y24537500D02*
X81797400Y24537500D01*
X92584400Y44320000D02*
X92700000Y44320000D01*
X90176400Y41912000D02*
X92584400Y44320000D01*
X90176400Y28967000D02*
X90176400Y41912000D01*
X88209400Y27000000D02*
X90176400Y28967000D01*
X88000000Y27000000D02*
X88209400Y27000000D01*
X62812500Y29000000D02*
X62862500Y28950000D01*
X60137500Y29000000D02*
X62812500Y29000000D01*
X60092600Y28955100D02*
X60137500Y29000000D01*
X54500000Y28955100D02*
X60092600Y28955100D01*
X8122200Y17430000D02*
X8210000Y17430000D01*
X6310000Y19242200D02*
X8122200Y17430000D01*
X6310000Y35210000D02*
X6310000Y19242200D01*
X8210000Y35210000D02*
X6310000Y35210000D01*
X49637500Y23537500D02*
X46862500Y23537500D01*
X49725000Y23450000D02*
X49637500Y23537500D01*
X43037500Y23537500D02*
X43000000Y23500000D01*
X46862500Y23537500D02*
X43037500Y23537500D01*
X56175000Y46463000D02*
X56175000Y46920000D01*
X48127900Y38415900D02*
X56175000Y46463000D01*
X48127900Y35254100D02*
X48127900Y38415900D01*
X48981700Y34400300D02*
X48127900Y35254100D01*
X48981700Y29426600D02*
X48981700Y34400300D01*
X48250300Y28695200D02*
X48981700Y29426600D01*
X79000000Y20692500D02*
X79000000Y23994800D01*
X77420000Y19112500D02*
X79000000Y20692500D01*
X66170000Y30037500D02*
X65137500Y29005000D01*
X67637500Y30037500D02*
X66170000Y30037500D01*
D29*
X65137500Y29005000D02*
X65137500Y28950000D01*
X79000000Y28751000D02*
X79000000Y28450000D01*
D28*
X79000000Y28751000D02*
X79000000Y28751200D01*
D29*
X77423800Y28751200D02*
X79000000Y28751200D01*
X76637500Y29537500D02*
X77423800Y28751200D01*
X52000000Y23788500D02*
X52000000Y23450000D01*
D28*
X52000000Y23788500D02*
X52000000Y23788700D01*
D29*
X65980700Y26206800D02*
X65137500Y27050000D01*
D28*
X69073700Y28686100D02*
X69073700Y27632600D01*
X67722300Y30037500D02*
X69073700Y28686100D01*
X67637500Y30037500D02*
X67722300Y30037500D01*
X68089500Y26206800D02*
X65980700Y26206800D01*
X69073700Y27191000D02*
X68089500Y26206800D01*
X69073700Y27632600D02*
X69073700Y27191000D01*
X69073700Y27632600D02*
X74647900Y27632600D01*
X76552800Y29537500D02*
X76637500Y29537500D01*
X74647900Y27632600D02*
X76552800Y29537500D01*
X75762600Y26146200D02*
X79000000Y26146200D01*
X74647900Y27260900D02*
X75762600Y26146200D01*
X74647900Y27632600D02*
X74647900Y27260900D01*
D29*
X79000000Y23994800D02*
X79000000Y26146200D01*
X79000000Y26146200D02*
X79000000Y26550000D01*
X53576200Y23788700D02*
X52000000Y23788700D01*
X54362500Y24575000D02*
X53576200Y23788700D01*
X52000000Y21499200D02*
X52000000Y21550000D01*
X52803500Y20695700D02*
X52000000Y21499200D01*
X65137500Y25011900D02*
X65137500Y27050000D01*
D28*
X63004500Y22878900D02*
X65137500Y25011900D01*
X60175400Y22878900D02*
X63004500Y22878900D01*
X57992200Y20695700D02*
X52803500Y20695700D01*
X60175400Y22878900D02*
X57992200Y20695700D01*
X58237700Y24816600D02*
X60175400Y22878900D01*
X54604100Y24816600D02*
X58237700Y24816600D01*
X54362500Y24575000D02*
X54604100Y24816600D01*
X48995200Y26793500D02*
X52000000Y23788700D01*
X47462600Y26793500D02*
X48995200Y26793500D01*
X46348600Y27907500D02*
X47462600Y26793500D01*
X46348600Y30700000D02*
X46348600Y27907500D01*
X42950000Y30700000D02*
X46348600Y30700000D01*
X47080000Y31431400D02*
X47080000Y33612500D01*
X46348600Y30700000D02*
X47080000Y31431400D01*
X78850000Y45850000D02*
X78850000Y43480000D01*
X79500000Y46500000D02*
X78850000Y45850000D01*
X78850000Y39081100D02*
X78850000Y43480000D01*
X74268900Y34500000D02*
X78850000Y39081100D01*
X70500000Y34500000D02*
X74268900Y34500000D01*
G04 #@! TA.AperFunction,Conductor*
G36*
X98742539Y68779815D02*
G01*
X98788294Y68727011D01*
X98799500Y68675500D01*
X98799500Y61213830D01*
X98779815Y61146791D01*
X98727011Y61101036D01*
X98657853Y61091092D01*
X98594297Y61120117D01*
X98560939Y61166378D01*
X98528578Y61244504D01*
X98528577Y61244504D01*
X98528575Y61244511D01*
X98451914Y61359242D01*
X98354342Y61456814D01*
X95642043Y64169114D01*
X95527311Y64245775D01*
X95527308Y64245776D01*
X95527307Y64245777D01*
X95463569Y64272177D01*
X95399828Y64298580D01*
X95355540Y64307389D01*
X95264496Y64325500D01*
X95264494Y64325500D01*
X95264493Y64325500D01*
X82592919Y64325500D01*
X82525880Y64345185D01*
X82505238Y64361819D01*
X82049237Y64817819D01*
X82015752Y64879142D01*
X82020736Y64948833D01*
X82062607Y65004767D01*
X82128072Y65029184D01*
X82136918Y65029500D01*
X82196503Y65029500D01*
X82422001Y65065215D01*
X82639144Y65135770D01*
X82842569Y65239421D01*
X82845985Y65241903D01*
X83027278Y65373621D01*
X83188720Y65535063D01*
X83322920Y65719772D01*
X83419574Y65909466D01*
X83426570Y65923196D01*
X83497125Y66140339D01*
X83532841Y66365837D01*
X83532841Y66594162D01*
X83497125Y66819660D01*
X83486614Y66852010D01*
X83426572Y67036799D01*
X83322920Y67240228D01*
X83188720Y67424937D01*
X83027278Y67586379D01*
X82842569Y67720579D01*
X82639140Y67824231D01*
X82422001Y67894784D01*
X82196503Y67930500D01*
X82196498Y67930500D01*
X81968184Y67930500D01*
X81968179Y67930500D01*
X81742680Y67894784D01*
X81641933Y67862049D01*
X81525542Y67824231D01*
X81525539Y67824229D01*
X81525537Y67824229D01*
X81418225Y67769550D01*
X81322113Y67720579D01*
X81137404Y67586379D01*
X81137402Y67586377D01*
X80975963Y67424938D01*
X80841762Y67240228D01*
X80738111Y67036803D01*
X80667556Y66819660D01*
X80631841Y66594162D01*
X80631841Y66534577D01*
X80612156Y66467538D01*
X80559352Y66421783D01*
X80490194Y66411839D01*
X80426638Y66440864D01*
X80420160Y66446896D01*
X80289254Y66577802D01*
X79996743Y66870314D01*
X79882011Y66946975D01*
X79882008Y66946976D01*
X79882007Y66946977D01*
X79818269Y66973377D01*
X79754528Y66999780D01*
X79710240Y67008589D01*
X79619196Y67026700D01*
X79619194Y67026700D01*
X79619193Y67026700D01*
X75258607Y67026700D01*
X75258606Y67026700D01*
X75240537Y67023105D01*
X75150191Y67005134D01*
X75150189Y67005134D01*
X75123277Y66999782D01*
X75123272Y66999780D01*
X75123271Y66999780D01*
X75094390Y66987817D01*
X74995790Y66946976D01*
X74881054Y66870312D01*
X74881053Y66870311D01*
X71943323Y63932580D01*
X71882000Y63899095D01*
X71817325Y63902330D01*
X71797868Y63908653D01*
X71710959Y63922418D01*
X71564597Y63945600D01*
X71564592Y63945600D01*
X71328408Y63945600D01*
X71328403Y63945600D01*
X71095131Y63908653D01*
X71003405Y63878849D01*
X70870508Y63835668D01*
X70870505Y63835666D01*
X70870503Y63835666D01*
X70759491Y63779102D01*
X70660067Y63728443D01*
X70468990Y63589617D01*
X70301983Y63422610D01*
X70193592Y63273423D01*
X70163157Y63231533D01*
X70055933Y63021096D01*
X69982946Y62796468D01*
X69946000Y62563197D01*
X69946000Y62327002D01*
X69982946Y62093731D01*
X70055933Y61869103D01*
X70163157Y61658666D01*
X70222847Y61576511D01*
X70301983Y61467590D01*
X70301985Y61467588D01*
X70301985Y61467587D01*
X70468987Y61300585D01*
X70468990Y61300583D01*
X70552398Y61239983D01*
X70581805Y61218618D01*
X70624470Y61163288D01*
X70630449Y61093674D01*
X70597843Y61031879D01*
X70537004Y60997522D01*
X70508919Y60994300D01*
X62594500Y60994300D01*
X62585814Y60996850D01*
X62576853Y60995562D01*
X62552812Y61006540D01*
X62527461Y61013985D01*
X62521533Y61020825D01*
X62513297Y61024587D01*
X62499007Y61046821D01*
X62481706Y61066789D01*
X62479418Y61077303D01*
X62475523Y61083365D01*
X62470500Y61118300D01*
X62470500Y61325500D01*
X62490185Y61392539D01*
X62542989Y61438294D01*
X62594500Y61449500D01*
X67259896Y61449500D01*
X67395222Y61476418D01*
X67395232Y61476421D01*
X67522707Y61529222D01*
X67637445Y61605887D01*
X67637446Y61605888D01*
X71239975Y65208418D01*
X71301298Y65241903D01*
X71365970Y65238669D01*
X71385428Y65232347D01*
X71618703Y65195400D01*
X71618708Y65195400D01*
X71854897Y65195400D01*
X72088168Y65232346D01*
X72312796Y65305333D01*
X72523233Y65412557D01*
X72525245Y65414019D01*
X72714310Y65551383D01*
X72881317Y65718390D01*
X73020143Y65909467D01*
X73070802Y66008891D01*
X73127366Y66119903D01*
X73134007Y66140340D01*
X73171336Y66255226D01*
X73200353Y66344531D01*
X73237300Y66577802D01*
X73237300Y66813997D01*
X73200353Y67047268D01*
X73137656Y67240228D01*
X73127368Y67271892D01*
X73020143Y67482333D01*
X72881317Y67673410D01*
X72714310Y67840417D01*
X72523233Y67979243D01*
X72312792Y68086468D01*
X72088168Y68159453D01*
X71854897Y68196400D01*
X71854892Y68196400D01*
X71618708Y68196400D01*
X71618703Y68196400D01*
X71385431Y68159453D01*
X71281212Y68125589D01*
X71160808Y68086468D01*
X71160805Y68086466D01*
X71160803Y68086466D01*
X71049791Y68029902D01*
X70950367Y67979243D01*
X70759290Y67840417D01*
X70592283Y67673410D01*
X70529050Y67586377D01*
X70453457Y67482333D01*
X70346233Y67271896D01*
X70273246Y67047268D01*
X70236300Y66813997D01*
X70236300Y66577802D01*
X70273247Y66344529D01*
X70279570Y66325067D01*
X70281562Y66255226D01*
X70249318Y66199074D01*
X68560343Y64510100D01*
X66937062Y62886819D01*
X66875739Y62853334D01*
X66849381Y62850500D01*
X62594499Y62850500D01*
X62527460Y62870185D01*
X62481705Y62922989D01*
X62470499Y62974500D01*
X62470499Y63344856D01*
X62470499Y63344864D01*
X62469525Y63353264D01*
X62467586Y63369987D01*
X62467585Y63369988D01*
X62467585Y63369991D01*
X62422206Y63472765D01*
X62342765Y63552206D01*
X62239991Y63597585D01*
X62214865Y63600500D01*
X60225136Y63600499D01*
X60225122Y63600497D01*
X60225117Y63600497D01*
X60200012Y63597586D01*
X60200010Y63597585D01*
X60200009Y63597585D01*
X60097235Y63552206D01*
X60017794Y63472765D01*
X59972415Y63369993D01*
X59972415Y63369991D01*
X59969500Y63344868D01*
X59969500Y62884266D01*
X59949815Y62817227D01*
X59897011Y62771472D01*
X59827853Y62761528D01*
X59764297Y62790553D01*
X59745186Y62811375D01*
X59633828Y62964646D01*
X59494646Y63103828D01*
X59335405Y63219524D01*
X59160025Y63308884D01*
X58972826Y63369709D01*
X58971033Y63369993D01*
X58778422Y63400500D01*
X58778417Y63400500D01*
X58595217Y63400500D01*
X58528178Y63420185D01*
X58507536Y63436819D01*
X55433010Y66511348D01*
X55350196Y66594162D01*
X66631841Y66594162D01*
X66631841Y66365837D01*
X66667556Y66140339D01*
X66738111Y65923196D01*
X66841762Y65719771D01*
X66975963Y65535061D01*
X67137402Y65373622D01*
X67322112Y65239421D01*
X67525537Y65135770D01*
X67742680Y65065215D01*
X67968179Y65029500D01*
X67968184Y65029500D01*
X68196503Y65029500D01*
X68422001Y65065215D01*
X68639144Y65135770D01*
X68842569Y65239421D01*
X68845985Y65241903D01*
X69027278Y65373621D01*
X69188720Y65535063D01*
X69322920Y65719772D01*
X69419574Y65909466D01*
X69426570Y65923196D01*
X69497125Y66140339D01*
X69532841Y66365837D01*
X69532841Y66594162D01*
X69497125Y66819660D01*
X69486614Y66852010D01*
X69426572Y67036799D01*
X69322920Y67240228D01*
X69188720Y67424937D01*
X69027278Y67586379D01*
X68842569Y67720579D01*
X68639140Y67824231D01*
X68422001Y67894784D01*
X68196503Y67930500D01*
X68196498Y67930500D01*
X67968184Y67930500D01*
X67968179Y67930500D01*
X67742680Y67894784D01*
X67641933Y67862049D01*
X67525542Y67824231D01*
X67525539Y67824229D01*
X67525537Y67824229D01*
X67418225Y67769550D01*
X67322113Y67720579D01*
X67137404Y67586379D01*
X67137402Y67586377D01*
X66975963Y67424938D01*
X66841762Y67240228D01*
X66738111Y67036803D01*
X66667556Y66819660D01*
X66631841Y66594162D01*
X55350196Y66594162D01*
X55148346Y66796011D01*
X55148345Y66796012D01*
X55148344Y66796012D01*
X55148343Y66796014D01*
X55033611Y66872675D01*
X55033608Y66872676D01*
X55033607Y66872677D01*
X54969869Y66899077D01*
X54906128Y66925480D01*
X54861840Y66934289D01*
X54770796Y66952400D01*
X54770794Y66952400D01*
X54770793Y66952400D01*
X6757107Y66952400D01*
X6757106Y66952400D01*
X6739037Y66948805D01*
X6648691Y66930834D01*
X6648689Y66930834D01*
X6621777Y66925482D01*
X6621772Y66925480D01*
X6621771Y66925480D01*
X6592890Y66913517D01*
X6494290Y66872676D01*
X6379554Y66796012D01*
X1274787Y61691245D01*
X1198122Y61576507D01*
X1145321Y61449032D01*
X1145318Y61449020D01*
X1127461Y61359245D01*
X1127461Y61359243D01*
X1121971Y61331643D01*
X1118400Y61313693D01*
X1118400Y8267903D01*
X1118399Y8267903D01*
X1145318Y8132577D01*
X1145321Y8132567D01*
X1198122Y8005092D01*
X1274787Y7890354D01*
X1274788Y7890353D01*
X7383486Y1781658D01*
X7481057Y1684087D01*
X7481060Y1684084D01*
X7481062Y1684082D01*
X7595786Y1607426D01*
X7595791Y1607423D01*
X7670463Y1576492D01*
X7670464Y1576493D01*
X7723273Y1554619D01*
X7736731Y1551942D01*
X7750189Y1549265D01*
X7750190Y1549265D01*
X7858603Y1527700D01*
X7858607Y1527700D01*
X9572096Y1527700D01*
X9707422Y1554618D01*
X9707432Y1554621D01*
X9834907Y1607422D01*
X9949645Y1684087D01*
X10936480Y2670922D01*
X26484500Y2670922D01*
X26484500Y2474077D01*
X26515290Y2279673D01*
X26576117Y2092470D01*
X26665476Y1917094D01*
X26691041Y1881908D01*
X26781172Y1757854D01*
X26781174Y1757852D01*
X26781174Y1757851D01*
X26920351Y1618674D01*
X27079594Y1502976D01*
X27254970Y1413617D01*
X27442173Y1352790D01*
X27636578Y1322000D01*
X27636583Y1322000D01*
X27833422Y1322000D01*
X28027826Y1352790D01*
X28215029Y1413617D01*
X28390405Y1502976D01*
X28424434Y1527700D01*
X28549646Y1618672D01*
X28688828Y1757854D01*
X28800184Y1911121D01*
X28855512Y1953785D01*
X28925125Y1959764D01*
X28986920Y1927158D01*
X29021278Y1866319D01*
X29024500Y1838234D01*
X29024500Y1377643D01*
X29024502Y1377617D01*
X29027413Y1352512D01*
X29027415Y1352508D01*
X29072793Y1249735D01*
X29152234Y1170294D01*
X29255007Y1124915D01*
X29280134Y1122000D01*
X29280135Y1122000D01*
X31269856Y1122000D01*
X31269882Y1122002D01*
X31294987Y1124913D01*
X31294991Y1124915D01*
X31397764Y1170293D01*
X31477205Y1249734D01*
X31477206Y1249735D01*
X31522585Y1352509D01*
X31525500Y1377635D01*
X31525499Y2118097D01*
X40499500Y2118097D01*
X40499500Y1881902D01*
X40536446Y1648631D01*
X40609433Y1424003D01*
X40716657Y1213566D01*
X40795862Y1104550D01*
X40855483Y1022490D01*
X40855485Y1022488D01*
X40855485Y1022487D01*
X41022487Y855485D01*
X41213566Y716657D01*
X41424003Y609433D01*
X41648631Y536446D01*
X41881903Y499500D01*
X41881908Y499500D01*
X42118097Y499500D01*
X42351368Y536446D01*
X42575996Y609433D01*
X42786433Y716657D01*
X42977510Y855483D01*
X43144517Y1022490D01*
X43283343Y1213567D01*
X43354137Y1352508D01*
X43390566Y1424003D01*
X43463553Y1648631D01*
X43500500Y1881902D01*
X43500500Y2118097D01*
X46499500Y2118097D01*
X46499500Y1881902D01*
X46536446Y1648631D01*
X46609433Y1424003D01*
X46716657Y1213566D01*
X46795862Y1104550D01*
X46855483Y1022490D01*
X46855485Y1022488D01*
X46855485Y1022487D01*
X47022487Y855485D01*
X47213566Y716657D01*
X47424003Y609433D01*
X47648631Y536446D01*
X47881903Y499500D01*
X47881908Y499500D01*
X48118097Y499500D01*
X48351368Y536446D01*
X48575996Y609433D01*
X48786433Y716657D01*
X48977510Y855483D01*
X49144517Y1022490D01*
X49283343Y1213567D01*
X49354137Y1352508D01*
X49390566Y1424003D01*
X49463553Y1648631D01*
X49500500Y1881902D01*
X49500500Y2118097D01*
X49463553Y2351368D01*
X49423680Y2474083D01*
X49390568Y2575992D01*
X49283343Y2786433D01*
X49144517Y2977510D01*
X49004023Y3118004D01*
X94199500Y3118004D01*
X94199500Y2881995D01*
X94199501Y2881979D01*
X94230306Y2647989D01*
X94291394Y2420006D01*
X94381714Y2201954D01*
X94381719Y2201943D01*
X94499730Y1997545D01*
X94643406Y1810302D01*
X94643412Y1810295D01*
X94810295Y1643412D01*
X94810302Y1643406D01*
X94997545Y1499730D01*
X95201943Y1381719D01*
X95201954Y1381714D01*
X95420006Y1291394D01*
X95647989Y1230306D01*
X95881979Y1199501D01*
X95881983Y1199500D01*
X95881989Y1199500D01*
X95881996Y1199500D01*
X96118004Y1199500D01*
X96118011Y1199500D01*
X96118017Y1199500D01*
X96118020Y1199501D01*
X96352010Y1230306D01*
X96579993Y1291394D01*
X96798045Y1381714D01*
X96798056Y1381719D01*
X96920957Y1452677D01*
X97002450Y1499727D01*
X97038905Y1527700D01*
X97189697Y1643406D01*
X97189704Y1643412D01*
X97356587Y1810295D01*
X97356593Y1810302D01*
X97500269Y1997545D01*
X97500273Y1997550D01*
X97576118Y2128918D01*
X97618280Y2201943D01*
X97618285Y2201954D01*
X97708606Y2420007D01*
X97769693Y2647986D01*
X97800500Y2881989D01*
X97800500Y3118011D01*
X97769693Y3352014D01*
X97708606Y3579993D01*
X97618284Y3798049D01*
X97500273Y4002450D01*
X97356592Y4189699D01*
X97189699Y4356592D01*
X97002450Y4500273D01*
X96798049Y4618284D01*
X96579993Y4708606D01*
X96352014Y4769693D01*
X96118011Y4800500D01*
X95881989Y4800500D01*
X95647986Y4769693D01*
X95420007Y4708606D01*
X95201951Y4618284D01*
X95201948Y4618282D01*
X95201943Y4618280D01*
X95128918Y4576118D01*
X94997550Y4500273D01*
X94972782Y4481268D01*
X94810302Y4356593D01*
X94810295Y4356587D01*
X94643412Y4189704D01*
X94643406Y4189697D01*
X94513259Y4020085D01*
X94499727Y4002450D01*
X94452677Y3920957D01*
X94381719Y3798056D01*
X94381714Y3798045D01*
X94291394Y3579993D01*
X94230306Y3352010D01*
X94199501Y3118020D01*
X94199500Y3118004D01*
X49004023Y3118004D01*
X48977510Y3144517D01*
X48786433Y3283343D01*
X48575992Y3390568D01*
X48351368Y3463553D01*
X48118097Y3500500D01*
X48118092Y3500500D01*
X47881908Y3500500D01*
X47881903Y3500500D01*
X47648631Y3463553D01*
X47544412Y3429689D01*
X47424008Y3390568D01*
X47424005Y3390566D01*
X47424003Y3390566D01*
X47312991Y3334002D01*
X47213567Y3283343D01*
X47022490Y3144517D01*
X46855483Y2977510D01*
X46716657Y2786433D01*
X46609433Y2575996D01*
X46536446Y2351368D01*
X46499500Y2118097D01*
X43500500Y2118097D01*
X43463553Y2351368D01*
X43423680Y2474083D01*
X43390568Y2575992D01*
X43283343Y2786433D01*
X43144517Y2977510D01*
X42977510Y3144517D01*
X42786433Y3283343D01*
X42575992Y3390568D01*
X42351368Y3463553D01*
X42118097Y3500500D01*
X42118092Y3500500D01*
X41881908Y3500500D01*
X41881903Y3500500D01*
X41648631Y3463553D01*
X41544412Y3429689D01*
X41424008Y3390568D01*
X41424005Y3390566D01*
X41424003Y3390566D01*
X41312991Y3334002D01*
X41213567Y3283343D01*
X41022490Y3144517D01*
X40855483Y2977510D01*
X40716657Y2786433D01*
X40609433Y2575996D01*
X40536446Y2351368D01*
X40499500Y2118097D01*
X31525499Y2118097D01*
X31525499Y2575992D01*
X31525499Y3767356D01*
X31525499Y3767364D01*
X31522618Y3792209D01*
X31522586Y3792487D01*
X31522585Y3792488D01*
X31522585Y3792491D01*
X31477206Y3895265D01*
X31397765Y3974706D01*
X31294991Y4020085D01*
X31269865Y4023000D01*
X29280136Y4022999D01*
X29280122Y4022997D01*
X29280117Y4022997D01*
X29255012Y4020086D01*
X29255010Y4020085D01*
X29255009Y4020085D01*
X29152235Y3974706D01*
X29072794Y3895265D01*
X29027415Y3792493D01*
X29027415Y3792491D01*
X29024500Y3767368D01*
X29024500Y3306766D01*
X29004815Y3239727D01*
X28952011Y3193972D01*
X28882853Y3184028D01*
X28819297Y3213053D01*
X28800186Y3233875D01*
X28688828Y3387146D01*
X28549646Y3526328D01*
X28390405Y3642024D01*
X28215025Y3731384D01*
X28027826Y3792209D01*
X27990979Y3798045D01*
X27833422Y3823000D01*
X27833417Y3823000D01*
X27636583Y3823000D01*
X27636578Y3823000D01*
X27442173Y3792209D01*
X27365765Y3767382D01*
X27254975Y3731384D01*
X27254972Y3731382D01*
X27254970Y3731382D01*
X27162455Y3684243D01*
X27079595Y3642024D01*
X26920354Y3526328D01*
X26781172Y3387146D01*
X26705754Y3283342D01*
X26665476Y3227905D01*
X26576117Y3052529D01*
X26515290Y2865326D01*
X26484500Y2670922D01*
X10936480Y2670922D01*
X17044112Y8778554D01*
X17120777Y8893292D01*
X17173578Y9020767D01*
X17173581Y9020777D01*
X17200500Y9156103D01*
X17200500Y14375795D01*
X17173581Y14511122D01*
X17173580Y14511128D01*
X17120775Y14638611D01*
X17089330Y14685672D01*
X17044114Y14753343D01*
X12034969Y19762486D01*
X12001486Y19823807D01*
X12000262Y19866720D01*
X12000118Y19866732D01*
X12000223Y19868076D01*
X12000181Y19869570D01*
X12000500Y19871583D01*
X12000500Y20068417D01*
X12000500Y20068422D01*
X11969709Y20262826D01*
X11964757Y20278066D01*
X11908884Y20450025D01*
X11819524Y20625405D01*
X11703828Y20784646D01*
X11564646Y20923828D01*
X11405405Y21039524D01*
X11330186Y21077850D01*
X11228787Y21129515D01*
X11177990Y21177489D01*
X11161195Y21245310D01*
X11183732Y21311445D01*
X11228787Y21350485D01*
X11405403Y21440474D01*
X11481240Y21495574D01*
X11564646Y21556172D01*
X11703828Y21695354D01*
X11819524Y21854595D01*
X11886605Y21986250D01*
X11908882Y22029970D01*
X11969709Y22217173D01*
X12000500Y22411577D01*
X12000500Y22608422D01*
X11969709Y22802826D01*
X11961131Y22829225D01*
X11908884Y22990025D01*
X11819524Y23165405D01*
X11703828Y23324646D01*
X11564646Y23463828D01*
X11405405Y23579524D01*
X11306703Y23629815D01*
X11228787Y23669515D01*
X11177990Y23717489D01*
X11161195Y23785310D01*
X11183732Y23851445D01*
X11228787Y23890485D01*
X11405403Y23980474D01*
X11453246Y24015234D01*
X11564646Y24096172D01*
X11703828Y24235354D01*
X11793925Y24359361D01*
X11819521Y24394590D01*
X11819523Y24394594D01*
X11819524Y24394595D01*
X11861687Y24477346D01*
X11884491Y24508733D01*
X18154319Y30778561D01*
X18215642Y30812046D01*
X18285334Y30807062D01*
X18341267Y30765190D01*
X18365684Y30699726D01*
X18366000Y30690880D01*
X18366000Y30673702D01*
X18402946Y30440431D01*
X18475933Y30215803D01*
X18583157Y30005366D01*
X18636926Y29931360D01*
X18721983Y29814290D01*
X18721985Y29814288D01*
X18721985Y29814287D01*
X18888987Y29647285D01*
X19080069Y29508455D01*
X19098299Y29499166D01*
X19149093Y29451190D01*
X19166000Y29388683D01*
X19166000Y21393103D01*
X19165999Y21393103D01*
X19192918Y21257777D01*
X19192921Y21257767D01*
X19245722Y21130292D01*
X19322387Y21015554D01*
X30771754Y9566187D01*
X30886492Y9489522D01*
X31013967Y9436721D01*
X31013977Y9436718D01*
X31149305Y9409800D01*
X31149307Y9409800D01*
X31287294Y9409800D01*
X37964734Y9409800D01*
X38031773Y9390115D01*
X38075218Y9342094D01*
X38078761Y9335143D01*
X38084557Y9323766D01*
X38140973Y9246117D01*
X38223383Y9132690D01*
X38223385Y9132688D01*
X38223385Y9132687D01*
X38390387Y8965685D01*
X38581466Y8826857D01*
X38791903Y8719633D01*
X39016531Y8646646D01*
X39249803Y8609700D01*
X39249808Y8609700D01*
X39485997Y8609700D01*
X39719268Y8646646D01*
X39943896Y8719633D01*
X40154333Y8826857D01*
X40170247Y8838419D01*
X40345410Y8965683D01*
X40512417Y9132690D01*
X40651243Y9323767D01*
X40708796Y9436721D01*
X40758466Y9534203D01*
X40760550Y9540615D01*
X40831453Y9758832D01*
X40868400Y9992102D01*
X40868400Y10228297D01*
X40831453Y10461568D01*
X40806125Y10539518D01*
X40758468Y10686192D01*
X40651243Y10896633D01*
X40512417Y11087710D01*
X40345410Y11254717D01*
X40154333Y11393543D01*
X39943892Y11500768D01*
X39719268Y11573753D01*
X39709753Y11575260D01*
X39485997Y11610700D01*
X39485992Y11610700D01*
X39249808Y11610700D01*
X39249803Y11610700D01*
X39016531Y11573753D01*
X38944219Y11550257D01*
X38791908Y11500768D01*
X38791905Y11500766D01*
X38791903Y11500766D01*
X38680891Y11444202D01*
X38581467Y11393543D01*
X38390390Y11254717D01*
X38223383Y11087710D01*
X38084557Y10896633D01*
X38075319Y10878503D01*
X38027344Y10827708D01*
X37964835Y10810800D01*
X31559819Y10810800D01*
X31492780Y10830485D01*
X31472138Y10847119D01*
X29489228Y12830029D01*
X27427036Y14892219D01*
X27393552Y14953542D01*
X27398536Y15023234D01*
X27440408Y15079167D01*
X27505872Y15103584D01*
X27514718Y15103900D01*
X27569697Y15103900D01*
X27802968Y15140846D01*
X28027596Y15213833D01*
X28238033Y15321057D01*
X28241715Y15323732D01*
X28429110Y15459883D01*
X28596117Y15626890D01*
X28734943Y15817967D01*
X28798335Y15942380D01*
X28842166Y16028403D01*
X28849022Y16049501D01*
X28908139Y16231445D01*
X28915153Y16253031D01*
X28952100Y16486302D01*
X28952100Y16722497D01*
X28916071Y16949970D01*
X28915153Y16955768D01*
X28908830Y16975224D01*
X28906834Y17045061D01*
X28939080Y17101223D01*
X29466509Y17628651D01*
X29466512Y17628654D01*
X29479032Y17647392D01*
X29522641Y17712658D01*
X29543175Y17743389D01*
X29545919Y17750012D01*
X29585904Y17846546D01*
X29595980Y17870872D01*
X29595981Y17870877D01*
X29596090Y17871420D01*
X29604231Y17912352D01*
X29605653Y17919500D01*
X29622900Y18006207D01*
X29622900Y40587383D01*
X29642585Y40654422D01*
X29690601Y40697866D01*
X29708830Y40707155D01*
X29708833Y40707157D01*
X29899910Y40845983D01*
X29978928Y40925001D01*
X30040251Y40958486D01*
X30109943Y40953502D01*
X30165876Y40911630D01*
X30181169Y40884774D01*
X30203322Y40831293D01*
X30279987Y40716554D01*
X31463181Y39533360D01*
X31496666Y39472037D01*
X31499500Y39445680D01*
X31499500Y39329519D01*
X31499501Y39329509D01*
X31505587Y39272885D01*
X31553372Y39144773D01*
X31635313Y39035313D01*
X31744771Y38953373D01*
X31872889Y38905587D01*
X31929498Y38899500D01*
X31929515Y38899500D01*
X31975500Y38899500D01*
X32042539Y38879815D01*
X32088294Y38827011D01*
X32099500Y38775500D01*
X32099500Y37740389D01*
X32079815Y37673350D01*
X32063181Y37652708D01*
X31967983Y37557510D01*
X31849656Y37394647D01*
X31829157Y37366433D01*
X31721933Y37155996D01*
X31648946Y36931368D01*
X31612000Y36698097D01*
X31612000Y36461902D01*
X31648946Y36228631D01*
X31721933Y36004003D01*
X31829157Y35793566D01*
X31908362Y35684550D01*
X31967983Y35602490D01*
X31967985Y35602488D01*
X31967985Y35602487D01*
X32134987Y35435485D01*
X32326066Y35296657D01*
X32536503Y35189433D01*
X32761131Y35116446D01*
X32994403Y35079500D01*
X32994408Y35079500D01*
X33230597Y35079500D01*
X33463868Y35116446D01*
X33688496Y35189433D01*
X33898933Y35296657D01*
X33909989Y35304690D01*
X34090010Y35435483D01*
X34102019Y35447492D01*
X34163342Y35480977D01*
X34233034Y35475993D01*
X34288967Y35434121D01*
X34313384Y35368657D01*
X34313700Y35359811D01*
X34313700Y27640189D01*
X34294015Y27573150D01*
X34241211Y27527395D01*
X34172053Y27517451D01*
X34108497Y27546476D01*
X34102019Y27552508D01*
X34090010Y27564517D01*
X33898933Y27703343D01*
X33688492Y27810568D01*
X33463868Y27883553D01*
X33230597Y27920500D01*
X33230592Y27920500D01*
X32994408Y27920500D01*
X32994403Y27920500D01*
X32761131Y27883553D01*
X32704718Y27865223D01*
X32536508Y27810568D01*
X32536505Y27810566D01*
X32536503Y27810566D01*
X32431997Y27757317D01*
X32326067Y27703343D01*
X32134990Y27564517D01*
X31967983Y27397510D01*
X31847008Y27231003D01*
X31829157Y27206433D01*
X31721933Y26995996D01*
X31648946Y26771368D01*
X31612000Y26538097D01*
X31612000Y26301902D01*
X31648946Y26068631D01*
X31721933Y25844003D01*
X31829157Y25633566D01*
X31876218Y25568793D01*
X31967983Y25442490D01*
X31967985Y25442488D01*
X31967985Y25442487D01*
X32134987Y25275485D01*
X32326066Y25136657D01*
X32536503Y25029433D01*
X32761131Y24956446D01*
X32994403Y24919500D01*
X32994408Y24919500D01*
X33230597Y24919500D01*
X33463868Y24956446D01*
X33688496Y25029433D01*
X33898933Y25136657D01*
X34090010Y25275483D01*
X34102019Y25287492D01*
X34163342Y25320977D01*
X34233034Y25315993D01*
X34288967Y25274121D01*
X34313384Y25208657D01*
X34313700Y25199811D01*
X34313700Y20305719D01*
X34294015Y20238680D01*
X34277381Y20218038D01*
X33955888Y19896546D01*
X33955887Y19896545D01*
X33879222Y19781807D01*
X33826421Y19654332D01*
X33826418Y19654320D01*
X33806780Y19555592D01*
X33805622Y19549768D01*
X33799500Y19518993D01*
X33799500Y19074499D01*
X33779815Y19007460D01*
X33727011Y18961705D01*
X33675500Y18950499D01*
X33465136Y18950499D01*
X33465121Y18950497D01*
X33465117Y18950497D01*
X33440012Y18947586D01*
X33440010Y18947585D01*
X33440009Y18947585D01*
X33337235Y18902206D01*
X33257794Y18822765D01*
X33212415Y18719993D01*
X33212415Y18719991D01*
X33209500Y18694868D01*
X33209500Y16305143D01*
X33209502Y16305117D01*
X33212413Y16280012D01*
X33212415Y16280008D01*
X33257793Y16177235D01*
X33337234Y16097794D01*
X33440007Y16052415D01*
X33465134Y16049500D01*
X33465135Y16049500D01*
X35454856Y16049500D01*
X35454882Y16049502D01*
X35479987Y16052413D01*
X35479991Y16052415D01*
X35582764Y16097793D01*
X35662205Y16177234D01*
X35662206Y16177235D01*
X35703380Y16270485D01*
X35707584Y16280006D01*
X35707585Y16280009D01*
X35710500Y16305135D01*
X35710499Y16765735D01*
X35730183Y16832772D01*
X35782987Y16878527D01*
X35852146Y16888471D01*
X35915702Y16859446D01*
X35934816Y16838619D01*
X36046167Y16685360D01*
X36046174Y16685351D01*
X36185351Y16546174D01*
X36344594Y16430476D01*
X36519970Y16341117D01*
X36707173Y16280290D01*
X36901578Y16249500D01*
X36901583Y16249500D01*
X37098422Y16249500D01*
X37292826Y16280290D01*
X37480029Y16341117D01*
X37655405Y16430476D01*
X37694389Y16458800D01*
X37814646Y16546172D01*
X37953828Y16685354D01*
X38069524Y16844595D01*
X38123215Y16949970D01*
X38158882Y17019970D01*
X38162946Y17032475D01*
X38196964Y17137173D01*
X38219709Y17207173D01*
X38250500Y17401577D01*
X38250500Y17598415D01*
X38248348Y17612000D01*
X38243781Y17640837D01*
X38252735Y17710130D01*
X38278573Y17747916D01*
X41676911Y21146253D01*
X41676912Y21146254D01*
X41697782Y21177489D01*
X41753575Y21260989D01*
X41806380Y21388471D01*
X41811880Y21416122D01*
X41816715Y21440428D01*
X41816719Y21440452D01*
X41816724Y21440476D01*
X41833300Y21523807D01*
X41833300Y22483436D01*
X41852985Y22550475D01*
X41905789Y22596230D01*
X41974947Y22606174D01*
X42038503Y22577149D01*
X42056101Y22558366D01*
X42057078Y22557077D01*
X42177656Y22465639D01*
X42318438Y22410122D01*
X42367853Y22404188D01*
X42406898Y22399500D01*
X42406903Y22399500D01*
X43593097Y22399500D01*
X43593102Y22399500D01*
X43635926Y22404642D01*
X43681561Y22410122D01*
X43822343Y22465639D01*
X43942922Y22557077D01*
X44034361Y22677658D01*
X44034362Y22677660D01*
X44066238Y22758490D01*
X44109143Y22813634D01*
X44175051Y22836827D01*
X44181592Y22837000D01*
X45913420Y22837000D01*
X45980459Y22817315D01*
X45988345Y22811804D01*
X46115156Y22715639D01*
X46255938Y22660122D01*
X46305353Y22654188D01*
X46344398Y22649500D01*
X46344403Y22649500D01*
X47380597Y22649500D01*
X47380602Y22649500D01*
X47423426Y22654642D01*
X47469061Y22660122D01*
X47609843Y22715639D01*
X47736655Y22811804D01*
X47801966Y22836627D01*
X47811580Y22837000D01*
X49349753Y22837000D01*
X49397205Y22827561D01*
X49520667Y22776421D01*
X49520677Y22776418D01*
X49656004Y22749500D01*
X49656006Y22749500D01*
X49793996Y22749500D01*
X49929323Y22776418D01*
X49929329Y22776420D01*
X50056813Y22829225D01*
X50062181Y22832095D01*
X50062876Y22830794D01*
X50122562Y22849480D01*
X50124770Y22849500D01*
X50291770Y22849500D01*
X50322199Y22852353D01*
X50322201Y22852353D01*
X50450380Y22897206D01*
X50450382Y22897207D01*
X50463513Y22906898D01*
X50559650Y22977850D01*
X50640293Y23087118D01*
X50666296Y23161430D01*
X50685146Y23215298D01*
X50685146Y23215300D01*
X50688000Y23245730D01*
X50688000Y23654269D01*
X50685146Y23684699D01*
X50685146Y23684701D01*
X50653657Y23774690D01*
X50640293Y23812882D01*
X50640289Y23812887D01*
X50638126Y23816981D01*
X50634737Y23833643D01*
X50626589Y23848566D01*
X50627919Y23867169D01*
X50624202Y23885449D01*
X50630360Y23901298D01*
X50631573Y23918258D01*
X50642750Y23933189D01*
X50649506Y23950576D01*
X50663256Y23960580D01*
X50673445Y23974191D01*
X50690918Y23980708D01*
X50706003Y23991684D01*
X50722979Y23992666D01*
X50738909Y23998608D01*
X50757134Y23994643D01*
X50775756Y23995721D01*
X50790958Y23987285D01*
X50807182Y23983756D01*
X50835436Y23962605D01*
X51005102Y23792939D01*
X51038587Y23731616D01*
X51038569Y23692398D01*
X51040558Y23692212D01*
X51037000Y23654269D01*
X51037000Y23245730D01*
X51039853Y23215300D01*
X51039853Y23215298D01*
X51084706Y23087119D01*
X51084707Y23087117D01*
X51165350Y22977850D01*
X51274617Y22897207D01*
X51274619Y22897206D01*
X51402799Y22852353D01*
X51433230Y22849500D01*
X51433234Y22849500D01*
X51919011Y22849500D01*
X51920877Y22849000D01*
X52079123Y22849000D01*
X52080989Y22849500D01*
X52566766Y22849500D01*
X52566770Y22849500D01*
X52597199Y22852353D01*
X52597201Y22852353D01*
X52725380Y22897206D01*
X52725382Y22897207D01*
X52738513Y22906898D01*
X52834650Y22977850D01*
X52915293Y23087118D01*
X52921430Y23104656D01*
X52962149Y23161430D01*
X53027102Y23187178D01*
X53038470Y23187700D01*
X53655322Y23187700D01*
X53655323Y23187700D01*
X53808178Y23228657D01*
X53839274Y23246610D01*
X53853859Y23255031D01*
X53945223Y23307780D01*
X54288124Y23650681D01*
X54349447Y23684166D01*
X54375805Y23687000D01*
X54880597Y23687000D01*
X54880602Y23687000D01*
X54924004Y23692212D01*
X54969061Y23697622D01*
X55109843Y23753139D01*
X55230422Y23844577D01*
X55321860Y23965156D01*
X55327901Y23980474D01*
X55350425Y24037591D01*
X55393330Y24092734D01*
X55459238Y24115927D01*
X55465779Y24116100D01*
X56227211Y24116100D01*
X56294250Y24096415D01*
X56340005Y24043611D01*
X56349949Y23974453D01*
X56320924Y23910897D01*
X56314892Y23904419D01*
X56275483Y23865010D01*
X56144479Y23684699D01*
X56136657Y23673933D01*
X56029433Y23463496D01*
X55956446Y23238868D01*
X55919500Y23005597D01*
X55919500Y22769402D01*
X55956446Y22536131D01*
X56029433Y22311503D01*
X56136657Y22101066D01*
X56188312Y22029970D01*
X56275483Y21909990D01*
X56275485Y21909988D01*
X56275485Y21909987D01*
X56442487Y21742985D01*
X56611048Y21620518D01*
X56653713Y21565188D01*
X56659692Y21495574D01*
X56627086Y21433779D01*
X56566247Y21399422D01*
X56538162Y21396200D01*
X53087000Y21396200D01*
X53019961Y21415885D01*
X52974206Y21468689D01*
X52963000Y21520200D01*
X52963000Y21754269D01*
X52960146Y21784699D01*
X52960146Y21784701D01*
X52925764Y21882957D01*
X52915293Y21912882D01*
X52834650Y22022150D01*
X52725382Y22102793D01*
X52628604Y22136657D01*
X52597200Y22147646D01*
X52566770Y22150500D01*
X52566766Y22150500D01*
X52080989Y22150500D01*
X52079123Y22151000D01*
X51920877Y22151000D01*
X51919011Y22150500D01*
X51433234Y22150500D01*
X51433230Y22150500D01*
X51402800Y22147646D01*
X51402798Y22147646D01*
X51306663Y22114006D01*
X51274618Y22102793D01*
X51165350Y22022150D01*
X51116859Y21956446D01*
X51084707Y21912882D01*
X51084706Y21912880D01*
X51039853Y21784701D01*
X51039853Y21784699D01*
X51037000Y21754269D01*
X51037000Y21345730D01*
X51039853Y21315300D01*
X51039853Y21315298D01*
X51084706Y21187119D01*
X51084707Y21187117D01*
X51165350Y21077850D01*
X51274617Y20997207D01*
X51274619Y20997206D01*
X51402799Y20952353D01*
X51433230Y20949500D01*
X51433234Y20949500D01*
X51648395Y20949500D01*
X51715434Y20929815D01*
X51736076Y20913181D01*
X52049575Y20599681D01*
X52083060Y20538358D01*
X52078076Y20468666D01*
X52036204Y20412733D01*
X51970740Y20388316D01*
X51961894Y20388000D01*
X51801903Y20388000D01*
X51568631Y20351053D01*
X51488517Y20325022D01*
X51344008Y20278068D01*
X51344005Y20278066D01*
X51344003Y20278066D01*
X51242816Y20226508D01*
X51133567Y20170843D01*
X50942490Y20032017D01*
X50775483Y19865010D01*
X50699096Y19759872D01*
X50636657Y19673933D01*
X50529433Y19463496D01*
X50456446Y19238868D01*
X50419500Y19005597D01*
X50419500Y18769402D01*
X50456446Y18536131D01*
X50529433Y18311503D01*
X50636659Y18101063D01*
X50773766Y17912352D01*
X50797246Y17846546D01*
X50781421Y17778492D01*
X50761129Y17751786D01*
X42496823Y9487480D01*
X42435500Y9453995D01*
X42370825Y9457230D01*
X42351368Y9463553D01*
X42292533Y9472871D01*
X42118097Y9500500D01*
X42118092Y9500500D01*
X41881908Y9500500D01*
X41881903Y9500500D01*
X41648631Y9463553D01*
X41556905Y9433749D01*
X41424008Y9390568D01*
X41424005Y9390566D01*
X41424003Y9390566D01*
X41336780Y9346123D01*
X41213567Y9283343D01*
X41022490Y9144517D01*
X40855483Y8977510D01*
X40746027Y8826857D01*
X40716657Y8786433D01*
X40609433Y8575996D01*
X40536446Y8351368D01*
X40499500Y8118097D01*
X40499500Y7881902D01*
X40536446Y7648631D01*
X40609433Y7424003D01*
X40716657Y7213566D01*
X40781668Y7124087D01*
X40855483Y7022490D01*
X40855485Y7022488D01*
X40855485Y7022487D01*
X41022487Y6855485D01*
X41213566Y6716657D01*
X41424003Y6609433D01*
X41648631Y6536446D01*
X41881903Y6499500D01*
X41881908Y6499500D01*
X42118097Y6499500D01*
X42351368Y6536446D01*
X42575996Y6609433D01*
X42786433Y6716657D01*
X42977510Y6855483D01*
X43144517Y7022490D01*
X43283343Y7213567D01*
X43335111Y7315167D01*
X43390566Y7424003D01*
X43391872Y7428020D01*
X43463553Y7648632D01*
X43479645Y7750232D01*
X43500500Y7881902D01*
X43500500Y8118097D01*
X43463554Y8351360D01*
X43463553Y8351368D01*
X43457230Y8370824D01*
X43455234Y8440661D01*
X43487480Y8496823D01*
X51908780Y16918123D01*
X51970103Y16951608D01*
X52039795Y16946624D01*
X52095728Y16904752D01*
X52120145Y16839288D01*
X52118934Y16811045D01*
X52105100Y16723698D01*
X52105100Y16487502D01*
X52142047Y16254228D01*
X52142047Y16254227D01*
X52148369Y16234770D01*
X52150362Y16164929D01*
X52118118Y16108775D01*
X45541988Y9532646D01*
X45541987Y9532645D01*
X45516432Y9494399D01*
X45465325Y9417911D01*
X45465323Y9417908D01*
X45465323Y9417907D01*
X45412521Y9290431D01*
X45412520Y9290428D01*
X45398503Y9219958D01*
X45398503Y9219957D01*
X45385600Y9155094D01*
X45385600Y7149703D01*
X45385599Y7149703D01*
X45412518Y7014377D01*
X45412521Y7014367D01*
X45465322Y6886892D01*
X45541987Y6772154D01*
X45541988Y6772153D01*
X46714486Y5599658D01*
X46793676Y5520468D01*
X46812060Y5502084D01*
X46812062Y5502082D01*
X46926786Y5425426D01*
X46926791Y5425423D01*
X47001463Y5394492D01*
X47001464Y5394493D01*
X47054273Y5372619D01*
X47067731Y5369942D01*
X47081189Y5367265D01*
X47081190Y5367265D01*
X47189603Y5345700D01*
X47189607Y5345700D01*
X87807496Y5345700D01*
X87942822Y5372618D01*
X87942832Y5372621D01*
X88070307Y5425422D01*
X88185045Y5502087D01*
X98451912Y15768954D01*
X98481521Y15813267D01*
X98528575Y15883689D01*
X98552886Y15942380D01*
X98560939Y15961822D01*
X98604780Y16016225D01*
X98671074Y16038290D01*
X98738774Y16021011D01*
X98786384Y15969873D01*
X98799500Y15914369D01*
X98799500Y324500D01*
X98779815Y257461D01*
X98727011Y211706D01*
X98675500Y200500D01*
X-675500Y200500D01*
X-742539Y220185D01*
X-788294Y272989D01*
X-799500Y324500D01*
X-799500Y66618011D01*
X-300500Y66618011D01*
X-300500Y66381989D01*
X-269693Y66147986D01*
X-208606Y65920007D01*
X-125665Y65719771D01*
X-118285Y65701954D01*
X-118280Y65701943D01*
X-76118Y65628918D01*
X-273Y65497550D01*
X-269Y65497545D01*
X143406Y65310302D01*
X143412Y65310295D01*
X310295Y65143412D01*
X310302Y65143406D01*
X497545Y64999730D01*
X701943Y64881719D01*
X701954Y64881714D01*
X920006Y64791394D01*
X1147989Y64730306D01*
X1381979Y64699501D01*
X1381983Y64699500D01*
X1381989Y64699500D01*
X1381996Y64699500D01*
X1618004Y64699500D01*
X1618011Y64699500D01*
X1618017Y64699500D01*
X1618020Y64699501D01*
X1852010Y64730306D01*
X2079993Y64791394D01*
X2298045Y64881714D01*
X2298056Y64881719D01*
X2420957Y64952677D01*
X2502450Y64999727D01*
X2679744Y65135769D01*
X2689697Y65143406D01*
X2689704Y65143412D01*
X2856587Y65310295D01*
X2856593Y65310302D01*
X3000269Y65497545D01*
X3000273Y65497550D01*
X3076118Y65628918D01*
X3118280Y65701943D01*
X3118285Y65701954D01*
X3125665Y65719771D01*
X3208606Y65920007D01*
X3269693Y66147986D01*
X3300500Y66381989D01*
X3300500Y66618011D01*
X3269693Y66852014D01*
X3208606Y67079993D01*
X3118284Y67298049D01*
X3000273Y67502450D01*
X2856592Y67689699D01*
X2689699Y67856592D01*
X2502450Y68000273D01*
X2298049Y68118284D01*
X2079993Y68208606D01*
X1852014Y68269693D01*
X1618011Y68300500D01*
X1381989Y68300500D01*
X1147986Y68269693D01*
X920007Y68208606D01*
X701951Y68118284D01*
X701948Y68118282D01*
X701943Y68118280D01*
X628918Y68076118D01*
X497550Y68000273D01*
X497545Y68000269D01*
X310302Y67856593D01*
X310295Y67856587D01*
X143412Y67689704D01*
X143406Y67689697D01*
X130909Y67673410D01*
X-273Y67502450D01*
X-118284Y67298049D01*
X-208606Y67079993D01*
X-269693Y66852014D01*
X-300500Y66618011D01*
X-799500Y66618011D01*
X-799500Y68675500D01*
X-779815Y68742539D01*
X-727011Y68788294D01*
X-675500Y68799500D01*
X98675500Y68799500D01*
X98742539Y68779815D01*
G37*
G04 #@! TD.AperFunction*
G04 #@! TA.AperFunction,Conductor*
G36*
X12205703Y17609993D02*
G01*
X12212181Y17603961D01*
X15763181Y14052961D01*
X15796666Y13991638D01*
X15799500Y13965280D01*
X15799500Y9566619D01*
X15779815Y9499580D01*
X15763181Y9478938D01*
X10427481Y4143238D01*
X10366158Y4109753D01*
X10296466Y4114737D01*
X10240533Y4156609D01*
X10216116Y4222073D01*
X10215800Y4230919D01*
X10215800Y4247997D01*
X10178853Y4481268D01*
X10134335Y4618280D01*
X10105868Y4705892D01*
X9998643Y4916333D01*
X9859817Y5107410D01*
X9692810Y5274417D01*
X9501733Y5413243D01*
X9291292Y5520468D01*
X9066668Y5593453D01*
X8833397Y5630400D01*
X8833392Y5630400D01*
X8597208Y5630400D01*
X8597203Y5630400D01*
X8451410Y5607308D01*
X8363932Y5593453D01*
X8344475Y5587130D01*
X8274635Y5585134D01*
X8218477Y5617378D01*
X3669717Y10166139D01*
X3655015Y10193064D01*
X3638423Y10218883D01*
X3637531Y10225083D01*
X3636234Y10227460D01*
X3633400Y10253818D01*
X3633400Y10416780D01*
X3653085Y10483819D01*
X3705889Y10529574D01*
X3775047Y10539518D01*
X3838603Y10510493D01*
X3845081Y10504461D01*
X6935753Y7413788D01*
X6935754Y7413787D01*
X7050492Y7337122D01*
X7177967Y7284321D01*
X7177977Y7284318D01*
X7313304Y7257400D01*
X7313306Y7257400D01*
X9110396Y7257400D01*
X9245722Y7284318D01*
X9245732Y7284321D01*
X9373207Y7337122D01*
X9487945Y7413787D01*
X9487946Y7413788D01*
X10597338Y8523181D01*
X10658661Y8556666D01*
X10685019Y8559500D01*
X10848422Y8559500D01*
X11042826Y8590290D01*
X11230029Y8651117D01*
X11405405Y8740476D01*
X11564646Y8856172D01*
X11703828Y8995354D01*
X11819524Y9154595D01*
X11866155Y9246114D01*
X11908882Y9329970D01*
X11969709Y9517173D01*
X12000500Y9711577D01*
X12000500Y9908422D01*
X11969709Y10102826D01*
X11949138Y10166137D01*
X11908884Y10290025D01*
X11819524Y10465405D01*
X11703828Y10624646D01*
X11564646Y10763828D01*
X11405405Y10879524D01*
X11230025Y10968884D01*
X11042826Y11029709D01*
X10848422Y11060500D01*
X10848417Y11060500D01*
X10651583Y11060500D01*
X10651578Y11060500D01*
X10457173Y11029709D01*
X10395639Y11009715D01*
X10269975Y10968884D01*
X10269972Y10968882D01*
X10269970Y10968882D01*
X10177455Y10921743D01*
X10094595Y10879524D01*
X9935354Y10763828D01*
X9796172Y10624646D01*
X9734323Y10539518D01*
X9680474Y10465403D01*
X9590485Y10288787D01*
X9542511Y10237990D01*
X9474690Y10221195D01*
X9408555Y10243732D01*
X9369515Y10288787D01*
X9279525Y10465403D01*
X9266145Y10483819D01*
X9163828Y10624646D01*
X9024646Y10763828D01*
X8865405Y10879524D01*
X8850816Y10886957D01*
X8688787Y10969515D01*
X8637990Y11017489D01*
X8621195Y11085310D01*
X8643732Y11151445D01*
X8688787Y11190485D01*
X8865403Y11280474D01*
X8913246Y11315234D01*
X9024646Y11396172D01*
X9163828Y11535354D01*
X9279524Y11694595D01*
X9335309Y11804080D01*
X9368882Y11869970D01*
X9369256Y11871119D01*
X9429709Y12057174D01*
X9435697Y12094981D01*
X9460500Y12251577D01*
X9460500Y12448422D01*
X9429709Y12642826D01*
X9368884Y12830025D01*
X9279524Y13005405D01*
X9163828Y13164646D01*
X9024646Y13303828D01*
X8865405Y13419524D01*
X8690025Y13508884D01*
X8688787Y13509515D01*
X8637990Y13557489D01*
X8621195Y13625310D01*
X8643732Y13691445D01*
X8688787Y13730485D01*
X8865403Y13820474D01*
X8913246Y13855234D01*
X9024646Y13936172D01*
X9163828Y14075354D01*
X9279524Y14234595D01*
X9351469Y14375795D01*
X9369515Y14411213D01*
X9417489Y14462009D01*
X9485310Y14478804D01*
X9551445Y14456267D01*
X9590485Y14411213D01*
X9680476Y14234594D01*
X9746485Y14143741D01*
X9796172Y14075354D01*
X9796174Y14075352D01*
X9796174Y14075351D01*
X9935351Y13936174D01*
X10094594Y13820476D01*
X10269970Y13731117D01*
X10457173Y13670290D01*
X10651578Y13639500D01*
X10651583Y13639500D01*
X10848422Y13639500D01*
X11042826Y13670290D01*
X11230029Y13731117D01*
X11405405Y13820476D01*
X11564646Y13936172D01*
X11703828Y14075354D01*
X11819524Y14234595D01*
X11891469Y14375795D01*
X11908882Y14409970D01*
X11969709Y14597173D01*
X12000500Y14791577D01*
X12000500Y14988422D01*
X11969709Y15182826D01*
X11959634Y15213833D01*
X11908884Y15370025D01*
X11819524Y15545405D01*
X11703828Y15704646D01*
X11564646Y15843828D01*
X11405405Y15959524D01*
X11385094Y15969873D01*
X11228787Y16049515D01*
X11177990Y16097489D01*
X11161195Y16165310D01*
X11183732Y16231445D01*
X11228787Y16270485D01*
X11405403Y16360474D01*
X11453246Y16395234D01*
X11564646Y16476172D01*
X11703828Y16615354D01*
X11819524Y16774595D01*
X11872480Y16878527D01*
X11908882Y16949970D01*
X11909415Y16951608D01*
X11969709Y17137174D01*
X11975810Y17175692D01*
X12000500Y17331577D01*
X12000500Y17516280D01*
X12020185Y17583319D01*
X12072989Y17629074D01*
X12142147Y17639018D01*
X12205703Y17609993D01*
G37*
G04 #@! TD.AperFunction*
G04 #@! TA.AperFunction,Conductor*
G36*
X90955845Y60701565D02*
G01*
X90988754Y60692351D01*
X90989293Y60691743D01*
X90990073Y60691515D01*
X91012435Y60665707D01*
X91035171Y60640128D01*
X91035296Y60639323D01*
X91035828Y60638711D01*
X91040692Y60604882D01*
X91045984Y60571100D01*
X91045696Y60570074D01*
X91045772Y60569553D01*
X91036468Y60537113D01*
X91002415Y60459993D01*
X91002415Y60459991D01*
X90999500Y60434868D01*
X90999500Y58445143D01*
X90999502Y58445117D01*
X91002413Y58420012D01*
X91002415Y58420008D01*
X91047793Y58317235D01*
X91127234Y58237794D01*
X91230007Y58192415D01*
X91255131Y58189500D01*
X91765733Y58189500D01*
X91832772Y58169815D01*
X91878527Y58117011D01*
X91888471Y58047853D01*
X91859446Y57984297D01*
X91838619Y57965182D01*
X91685354Y57853828D01*
X91546172Y57714646D01*
X91470602Y57610633D01*
X91430476Y57555405D01*
X91341117Y57380029D01*
X91280290Y57192826D01*
X91249500Y56998422D01*
X91249500Y56801577D01*
X91256505Y56757348D01*
X91247550Y56688055D01*
X91221713Y56650270D01*
X90294088Y55722646D01*
X90294087Y55722645D01*
X90217422Y55607907D01*
X90164621Y55480432D01*
X90164618Y55480420D01*
X90143979Y55376659D01*
X90143979Y55376656D01*
X90137700Y55345093D01*
X90137700Y48528903D01*
X90137699Y48528903D01*
X90164618Y48393577D01*
X90164621Y48393567D01*
X90217422Y48266092D01*
X90294087Y48151354D01*
X91259010Y47186431D01*
X91292495Y47125108D01*
X91289260Y47060432D01*
X91280291Y47032830D01*
X91280291Y47032827D01*
X91249500Y46838422D01*
X91249500Y46641577D01*
X91280290Y46447173D01*
X91341117Y46259970D01*
X91430476Y46084594D01*
X91496485Y45993741D01*
X91546172Y45925354D01*
X91546174Y45925352D01*
X91546174Y45925351D01*
X91685351Y45786174D01*
X91844594Y45670476D01*
X92021213Y45580485D01*
X92072009Y45532511D01*
X92088804Y45464690D01*
X92066267Y45398555D01*
X92021213Y45359515D01*
X92019975Y45358884D01*
X91844595Y45269524D01*
X91685354Y45153828D01*
X91546172Y45014646D01*
X91459087Y44894784D01*
X91430476Y44855405D01*
X91341117Y44680029D01*
X91280290Y44492826D01*
X91249500Y44298422D01*
X91249500Y44101582D01*
X91256820Y44055361D01*
X91247864Y43986068D01*
X91222027Y43948284D01*
X89632288Y42358546D01*
X89632287Y42358545D01*
X89555622Y42243807D01*
X89502821Y42116332D01*
X89502818Y42116320D01*
X89483111Y42017245D01*
X89483111Y42017242D01*
X89475900Y41980993D01*
X89475900Y29308519D01*
X89456215Y29241480D01*
X89439581Y29220838D01*
X88355562Y28136819D01*
X88294239Y28103334D01*
X88267881Y28100500D01*
X87406898Y28100500D01*
X87318436Y28089877D01*
X87177658Y28034361D01*
X87177657Y28034360D01*
X87177656Y28034360D01*
X87057077Y27942922D01*
X86965639Y27822343D01*
X86947811Y27777134D01*
X86912399Y27687334D01*
X86910122Y27681561D01*
X86908840Y27670882D01*
X86899500Y27593102D01*
X86899500Y26406898D01*
X86903584Y26372889D01*
X86910122Y26318438D01*
X86965639Y26177656D01*
X87057077Y26057077D01*
X87177656Y25965639D01*
X87318438Y25910122D01*
X87367853Y25904188D01*
X87406898Y25899500D01*
X88058481Y25899500D01*
X88125520Y25879815D01*
X88146162Y25863181D01*
X88763381Y25245962D01*
X88796866Y25184639D01*
X88799700Y25158281D01*
X88799700Y20314189D01*
X88780015Y20247150D01*
X88727211Y20201395D01*
X88658053Y20191451D01*
X88594497Y20220476D01*
X88588019Y20226508D01*
X88575847Y20238680D01*
X88557510Y20257017D01*
X88366433Y20395843D01*
X88155992Y20503068D01*
X87931368Y20576053D01*
X87698097Y20613000D01*
X87698092Y20613000D01*
X87461908Y20613000D01*
X87461903Y20613000D01*
X87316110Y20589908D01*
X87228632Y20576053D01*
X87209175Y20569730D01*
X87139335Y20567734D01*
X87083177Y20599978D01*
X85256817Y22426339D01*
X85223334Y22487660D01*
X85220500Y22514018D01*
X85220500Y29768995D01*
X85196828Y29888000D01*
X85193580Y29904328D01*
X85151233Y30006564D01*
X85140778Y30031804D01*
X85140777Y30031804D01*
X85140775Y30031811D01*
X85064114Y30146542D01*
X84966542Y30244114D01*
X84851811Y30320775D01*
X84724328Y30373580D01*
X84680041Y30382389D01*
X84588995Y30400500D01*
X84588993Y30400500D01*
X84504500Y30400500D01*
X84437461Y30420185D01*
X84391706Y30472989D01*
X84380500Y30524500D01*
X84380500Y30780305D01*
X84380499Y31041595D01*
X84400183Y31108633D01*
X84452987Y31154388D01*
X84522146Y31164332D01*
X84585702Y31135307D01*
X84604817Y31114480D01*
X84741184Y30926788D01*
X84908187Y30759785D01*
X85099266Y30620957D01*
X85309703Y30513733D01*
X85534331Y30440746D01*
X85767603Y30403800D01*
X85767608Y30403800D01*
X86003797Y30403800D01*
X86237068Y30440746D01*
X86461696Y30513733D01*
X86672133Y30620957D01*
X86685961Y30631004D01*
X86863210Y30759783D01*
X87030217Y30926790D01*
X87169043Y31117867D01*
X87230259Y31238010D01*
X87276266Y31328303D01*
X87282577Y31347724D01*
X87315903Y31450291D01*
X87349253Y31552931D01*
X87386200Y31786202D01*
X87386200Y32022397D01*
X87355052Y32219052D01*
X87349253Y32255668D01*
X87342930Y32275124D01*
X87340934Y32344961D01*
X87373180Y32401123D01*
X88576811Y33604753D01*
X88576812Y33604754D01*
X88653477Y33719492D01*
X88706278Y33846967D01*
X88706281Y33846977D01*
X88733200Y33982304D01*
X88733200Y50905595D01*
X88713356Y51005354D01*
X88706280Y51040928D01*
X88653475Y51168411D01*
X88632886Y51199225D01*
X88576814Y51283143D01*
X87184678Y52675277D01*
X87151195Y52736598D01*
X87154431Y52801276D01*
X87160753Y52820732D01*
X87185902Y52979515D01*
X87197700Y53054002D01*
X87197700Y53290197D01*
X87160753Y53523468D01*
X87133216Y53608218D01*
X87087768Y53748092D01*
X86980543Y53958533D01*
X86841717Y54149610D01*
X86674710Y54316617D01*
X86483633Y54455443D01*
X86273192Y54562668D01*
X86048568Y54635653D01*
X85815297Y54672600D01*
X85815292Y54672600D01*
X85579108Y54672600D01*
X85579103Y54672600D01*
X85345831Y54635653D01*
X85241612Y54601789D01*
X85121208Y54562668D01*
X85121205Y54562666D01*
X85121203Y54562666D01*
X85057313Y54530112D01*
X84910767Y54455443D01*
X84719690Y54316617D01*
X84552683Y54149610D01*
X84435993Y53989000D01*
X84413857Y53958533D01*
X84306633Y53748096D01*
X84233646Y53523468D01*
X84196700Y53290197D01*
X84196700Y53054002D01*
X84233646Y52820731D01*
X84306633Y52596103D01*
X84413857Y52385666D01*
X84457959Y52324966D01*
X84552683Y52194590D01*
X84552685Y52194588D01*
X84552685Y52194587D01*
X84719687Y52027585D01*
X84910766Y51888757D01*
X85121203Y51781533D01*
X85345831Y51708546D01*
X85579103Y51671600D01*
X85579108Y51671600D01*
X85815297Y51671600D01*
X86048569Y51708547D01*
X86048572Y51708547D01*
X86068024Y51714868D01*
X86137865Y51716863D01*
X86194023Y51684618D01*
X87295881Y50582761D01*
X87329366Y50521438D01*
X87332200Y50495080D01*
X87332200Y40056689D01*
X87312515Y39989650D01*
X87259711Y39943895D01*
X87190553Y39933951D01*
X87126997Y39962976D01*
X87120519Y39969008D01*
X87095619Y39993908D01*
X87057510Y40032017D01*
X86866433Y40170843D01*
X86655992Y40278068D01*
X86431368Y40351053D01*
X86427087Y40351731D01*
X86198097Y40388000D01*
X86198092Y40388000D01*
X85961908Y40388000D01*
X85961903Y40388000D01*
X85728631Y40351053D01*
X85628614Y40318555D01*
X85504008Y40278068D01*
X85504005Y40278066D01*
X85504003Y40278066D01*
X85409850Y40230092D01*
X85293567Y40170843D01*
X85102490Y40032017D01*
X84935483Y39865010D01*
X84811707Y39694647D01*
X84796657Y39673933D01*
X84689433Y39463496D01*
X84616446Y39238868D01*
X84579500Y39005597D01*
X84579500Y38769402D01*
X84616446Y38536131D01*
X84689433Y38311503D01*
X84796657Y38101066D01*
X84873761Y37994943D01*
X84935483Y37909990D01*
X84935485Y37909988D01*
X84935485Y37909987D01*
X85102487Y37742985D01*
X85293569Y37604155D01*
X85311799Y37594866D01*
X85362593Y37546890D01*
X85379500Y37484383D01*
X85379500Y36890149D01*
X85370555Y36859687D01*
X85363255Y36828791D01*
X85360782Y36826405D01*
X85359815Y36823110D01*
X85335827Y36802324D01*
X85312977Y36780275D01*
X85308597Y36778729D01*
X85307011Y36777355D01*
X85279697Y36768533D01*
X85231441Y36758934D01*
X85231439Y36758934D01*
X85204527Y36753582D01*
X85204522Y36753580D01*
X85204521Y36753580D01*
X85204519Y36753579D01*
X85077040Y36700776D01*
X84962304Y36624112D01*
X84962303Y36624111D01*
X83356823Y35018630D01*
X83295500Y34985145D01*
X83230825Y34988380D01*
X83211368Y34994703D01*
X83152533Y35004021D01*
X82978097Y35031650D01*
X82978092Y35031650D01*
X82741908Y35031650D01*
X82741903Y35031650D01*
X82508631Y34994703D01*
X82460140Y34978947D01*
X82284008Y34921718D01*
X82284005Y34921716D01*
X82284003Y34921716D01*
X82233225Y34895843D01*
X82073567Y34814493D01*
X81882490Y34675667D01*
X81715483Y34508660D01*
X81582051Y34325007D01*
X81576657Y34317583D01*
X81469433Y34107146D01*
X81396446Y33882518D01*
X81359500Y33649247D01*
X81359500Y33413052D01*
X81396446Y33179781D01*
X81469433Y32955153D01*
X81576657Y32744716D01*
X81646238Y32648947D01*
X81715483Y32553640D01*
X81715485Y32553638D01*
X81715485Y32553637D01*
X81885935Y32383188D01*
X81884895Y32382148D01*
X81919504Y32329140D01*
X81920007Y32259272D01*
X81882656Y32200223D01*
X81819311Y32170741D01*
X81800781Y32169349D01*
X81635136Y32169349D01*
X81635121Y32169347D01*
X81635117Y32169347D01*
X81610012Y32166436D01*
X81610010Y32166435D01*
X81610009Y32166435D01*
X81516210Y32125019D01*
X81507235Y32121056D01*
X81427794Y32041615D01*
X81382415Y31938843D01*
X81382415Y31938841D01*
X81379500Y31913718D01*
X81379500Y29423993D01*
X81379502Y29423967D01*
X81382413Y29398862D01*
X81382415Y29398858D01*
X81427793Y29296085D01*
X81507234Y29216644D01*
X81610007Y29171265D01*
X81635131Y29168350D01*
X81635135Y29168350D01*
X83408340Y29168350D01*
X83475379Y29148665D01*
X83477197Y29147473D01*
X83489959Y29138947D01*
X83579341Y29079223D01*
X83657966Y29046656D01*
X83669482Y29041886D01*
X83706321Y29026627D01*
X83706826Y29026418D01*
X83706825Y29026418D01*
X83719693Y29023859D01*
X83781604Y28991473D01*
X83816177Y28930757D01*
X83819500Y28902242D01*
X83819500Y23805419D01*
X83799815Y23738380D01*
X83747011Y23692625D01*
X83677853Y23682681D01*
X83614297Y23711706D01*
X83607819Y23717738D01*
X82699319Y24626238D01*
X82665834Y24687561D01*
X82663000Y24713919D01*
X82663000Y24918096D01*
X82663000Y24918102D01*
X82652377Y25006564D01*
X82596861Y25147342D01*
X82505422Y25267922D01*
X82384842Y25359361D01*
X82244064Y25414877D01*
X82155602Y25425500D01*
X82155597Y25425500D01*
X82099500Y25425500D01*
X82032461Y25445185D01*
X81986706Y25497989D01*
X81975500Y25549500D01*
X81975500Y25916245D01*
X81995185Y25983284D01*
X82025866Y26016015D01*
X82109650Y26077850D01*
X82190293Y26187118D01*
X82211791Y26248555D01*
X82235146Y26315298D01*
X82235146Y26315300D01*
X82238000Y26345730D01*
X82238000Y26754269D01*
X82235146Y26784699D01*
X82235146Y26784701D01*
X82209079Y26859194D01*
X82190293Y26912882D01*
X82109650Y27022150D01*
X82000382Y27102793D01*
X81914926Y27132695D01*
X81872200Y27147646D01*
X81841770Y27150500D01*
X81841766Y27150500D01*
X81674770Y27150500D01*
X81612630Y27168746D01*
X81612181Y27167905D01*
X81608140Y27170064D01*
X81607731Y27170185D01*
X81606912Y27170721D01*
X81606809Y27170776D01*
X81564316Y27188376D01*
X81479328Y27223580D01*
X81422032Y27234977D01*
X81343995Y27250500D01*
X81343993Y27250500D01*
X81206007Y27250500D01*
X81206005Y27250500D01*
X81070677Y27223581D01*
X81070672Y27223580D01*
X81070667Y27223578D01*
X80943190Y27170776D01*
X80937819Y27167905D01*
X80937123Y27169205D01*
X80877438Y27150520D01*
X80875230Y27150500D01*
X80708230Y27150500D01*
X80677800Y27147646D01*
X80677798Y27147646D01*
X80581663Y27114006D01*
X80549618Y27102793D01*
X80440350Y27022150D01*
X80359707Y26912882D01*
X80359706Y26912880D01*
X80314853Y26784701D01*
X80314853Y26784699D01*
X80312000Y26754269D01*
X80312000Y26345730D01*
X80314853Y26315300D01*
X80314853Y26315298D01*
X80359706Y26187119D01*
X80359707Y26187117D01*
X80440350Y26077850D01*
X80524134Y26016015D01*
X80566384Y25960368D01*
X80574500Y25916245D01*
X80574500Y24831003D01*
X80574499Y24831003D01*
X80601418Y24695678D01*
X80601419Y24695675D01*
X80601420Y24695672D01*
X80602563Y24692911D01*
X80603145Y24689986D01*
X80603187Y24689849D01*
X80603173Y24689844D01*
X80612000Y24645465D01*
X80612000Y24156898D01*
X80614436Y24136613D01*
X80622622Y24068438D01*
X80678139Y23927656D01*
X80769577Y23807077D01*
X80890156Y23715639D01*
X81030938Y23660122D01*
X81079685Y23654269D01*
X81119398Y23649500D01*
X81643381Y23649500D01*
X81710420Y23629815D01*
X81731062Y23613181D01*
X82328381Y23015862D01*
X82361866Y22954539D01*
X82364700Y22928181D01*
X82364700Y20801803D01*
X82364699Y20801803D01*
X82391618Y20666477D01*
X82391621Y20666467D01*
X82444422Y20538992D01*
X82521087Y20424254D01*
X84009529Y18935812D01*
X84043014Y18874489D01*
X84038030Y18804797D01*
X83996158Y18748864D01*
X83930694Y18724447D01*
X83862421Y18739299D01*
X83848962Y18747814D01*
X83830631Y18761132D01*
X83759733Y18812643D01*
X83549292Y18919868D01*
X83324668Y18992853D01*
X83314850Y18994408D01*
X83091397Y19029800D01*
X83091392Y19029800D01*
X82855208Y19029800D01*
X82855203Y19029800D01*
X82621931Y18992853D01*
X82552161Y18970183D01*
X82397308Y18919868D01*
X82397305Y18919866D01*
X82397303Y18919866D01*
X82286291Y18863302D01*
X82186867Y18812643D01*
X81995790Y18673817D01*
X81828783Y18506810D01*
X81739429Y18383825D01*
X81689957Y18315733D01*
X81582733Y18105296D01*
X81509746Y17880668D01*
X81472800Y17647397D01*
X81472800Y17411202D01*
X81509747Y17177928D01*
X81509747Y17177927D01*
X81516069Y17158470D01*
X81518062Y17088629D01*
X81485818Y17032475D01*
X73291762Y8838419D01*
X73230439Y8804934D01*
X73204081Y8802100D01*
X62536816Y8802100D01*
X62469777Y8821785D01*
X62426332Y8869803D01*
X62423864Y8874645D01*
X62417043Y8888033D01*
X62278217Y9079110D01*
X62111210Y9246117D01*
X61920133Y9384943D01*
X61709692Y9492168D01*
X61485068Y9565153D01*
X61461366Y9568907D01*
X61251797Y9602100D01*
X61251792Y9602100D01*
X61015608Y9602100D01*
X61015603Y9602100D01*
X60782331Y9565153D01*
X60707618Y9540877D01*
X60557708Y9492168D01*
X60557705Y9492166D01*
X60557703Y9492166D01*
X60489140Y9457231D01*
X60347267Y9384943D01*
X60156190Y9246117D01*
X59989183Y9079110D01*
X59854178Y8893292D01*
X59850357Y8888033D01*
X59743133Y8677596D01*
X59670146Y8452968D01*
X59633200Y8219697D01*
X59633200Y7983502D01*
X59670146Y7750231D01*
X59743133Y7525603D01*
X59850357Y7315166D01*
X59872770Y7284318D01*
X59989183Y7124090D01*
X59989185Y7124088D01*
X59989185Y7124087D01*
X60154892Y6958381D01*
X60188377Y6897058D01*
X60183393Y6827366D01*
X60141521Y6771433D01*
X60076057Y6747016D01*
X60067211Y6746700D01*
X49168089Y6746700D01*
X49101050Y6766385D01*
X49055295Y6819189D01*
X49045351Y6888347D01*
X49074376Y6951903D01*
X49080408Y6958381D01*
X49144514Y7022487D01*
X49144517Y7022490D01*
X49283343Y7213567D01*
X49335111Y7315167D01*
X49390566Y7424003D01*
X49391872Y7428020D01*
X49463553Y7648632D01*
X49479645Y7750232D01*
X49500500Y7881902D01*
X49500500Y8118097D01*
X49463554Y8351360D01*
X49463553Y8351368D01*
X49457230Y8370824D01*
X49455234Y8440661D01*
X49487480Y8496823D01*
X57237611Y16246953D01*
X57237612Y16246954D01*
X57313463Y16360474D01*
X57314275Y16361689D01*
X57314277Y16361692D01*
X57367078Y16489167D01*
X57367081Y16489177D01*
X57394000Y16624503D01*
X57394000Y16756083D01*
X57413685Y16823122D01*
X57461701Y16866566D01*
X57479930Y16875855D01*
X57492597Y16885058D01*
X57671010Y17014683D01*
X57838017Y17181690D01*
X57976843Y17372767D01*
X58041417Y17499500D01*
X58084066Y17583203D01*
X58089010Y17598417D01*
X58136114Y17743389D01*
X58157053Y17807831D01*
X58194000Y18041102D01*
X58194000Y18277297D01*
X58157053Y18510568D01*
X58148626Y18536503D01*
X58084068Y18735192D01*
X57976843Y18945633D01*
X57838017Y19136710D01*
X57671010Y19303717D01*
X57479933Y19442543D01*
X57269492Y19549768D01*
X57044868Y19622753D01*
X56811597Y19659700D01*
X56811592Y19659700D01*
X56575408Y19659700D01*
X56575403Y19659700D01*
X56342131Y19622753D01*
X56237912Y19588889D01*
X56117508Y19549768D01*
X56117506Y19549767D01*
X56117503Y19549766D01*
X56006491Y19493202D01*
X55907067Y19442543D01*
X55715990Y19303717D01*
X55548983Y19136710D01*
X55410157Y18945633D01*
X55302933Y18735196D01*
X55229946Y18510568D01*
X55193000Y18277297D01*
X55193000Y18041102D01*
X55229946Y17807831D01*
X55302933Y17583203D01*
X55410157Y17372766D01*
X55440079Y17331583D01*
X55548983Y17181690D01*
X55548985Y17181688D01*
X55548985Y17181687D01*
X55715990Y17014682D01*
X55776946Y16970395D01*
X55819611Y16915065D01*
X55825589Y16845451D01*
X55792982Y16783657D01*
X55791740Y16782397D01*
X55302419Y16293076D01*
X55241096Y16259591D01*
X55171404Y16264575D01*
X55115471Y16306447D01*
X55091054Y16371911D01*
X55092265Y16400156D01*
X55106100Y16487503D01*
X55106100Y16723697D01*
X55069153Y16956968D01*
X55059952Y16985285D01*
X54996168Y17181592D01*
X54888943Y17392033D01*
X54750117Y17583110D01*
X54583110Y17750117D01*
X54392033Y17888943D01*
X54181592Y17996168D01*
X53956968Y18069153D01*
X53723697Y18106100D01*
X53723692Y18106100D01*
X53487508Y18106100D01*
X53487504Y18106100D01*
X53443270Y18099093D01*
X53421554Y18095654D01*
X53352263Y18104608D01*
X53298810Y18149603D01*
X53278170Y18216355D01*
X53291672Y18274422D01*
X53310565Y18311503D01*
X53310568Y18311508D01*
X53383553Y18536132D01*
X53392119Y18590215D01*
X53420500Y18769402D01*
X53420500Y19005597D01*
X53383553Y19238868D01*
X53358948Y19314594D01*
X53310568Y19463492D01*
X53203343Y19673933D01*
X53112973Y19798315D01*
X53089494Y19864120D01*
X53105319Y19932174D01*
X53155425Y19980869D01*
X53213292Y19995200D01*
X58061196Y19995200D01*
X58196522Y20022118D01*
X58196532Y20022121D01*
X58324007Y20074922D01*
X58438745Y20151587D01*
X58438746Y20151588D01*
X60429238Y22142081D01*
X60490561Y22175566D01*
X60516919Y22178400D01*
X63073496Y22178400D01*
X63208822Y22205318D01*
X63208832Y22205321D01*
X63336307Y22258122D01*
X63451045Y22334787D01*
X65681612Y24565354D01*
X65758277Y24680092D01*
X65811078Y24807567D01*
X65811081Y24807577D01*
X65838000Y24942904D01*
X65838000Y25080896D01*
X65811081Y25216223D01*
X65811080Y25216229D01*
X65759882Y25339830D01*
X65752414Y25409299D01*
X65783689Y25471778D01*
X65843778Y25507430D01*
X65898632Y25508900D01*
X65911705Y25506300D01*
X65911707Y25506300D01*
X68158496Y25506300D01*
X68293822Y25533218D01*
X68293832Y25533221D01*
X68421307Y25586022D01*
X68536045Y25662687D01*
X69617812Y26744454D01*
X69635795Y26771368D01*
X69694475Y26859189D01*
X69694475Y26859190D01*
X69694478Y26859194D01*
X69697348Y26864563D01*
X69699363Y26863485D01*
X69736805Y26909953D01*
X69803098Y26932021D01*
X69807530Y26932100D01*
X73958833Y26932100D01*
X74025872Y26912415D01*
X74061935Y26876991D01*
X74103785Y26814357D01*
X74103788Y26814353D01*
X75316054Y25602087D01*
X75430792Y25525422D01*
X75558267Y25472621D01*
X75558277Y25472618D01*
X75693604Y25445700D01*
X75693606Y25445700D01*
X75693607Y25445700D01*
X78275000Y25445700D01*
X78342039Y25426015D01*
X78387794Y25373211D01*
X78399000Y25321700D01*
X78399000Y24393820D01*
X78388367Y24343582D01*
X78384039Y24333815D01*
X78379225Y24326611D01*
X78356016Y24270579D01*
X78355395Y24269178D01*
X78333757Y24243630D01*
X78312748Y24217560D01*
X78311255Y24217063D01*
X78310238Y24215862D01*
X78278221Y24206068D01*
X78246454Y24195495D01*
X78244928Y24195884D01*
X78243424Y24195424D01*
X78211190Y24204495D01*
X78178755Y24212774D01*
X78177405Y24214003D01*
X78176167Y24214352D01*
X78172570Y24218409D01*
X78141712Y24246528D01*
X78032017Y24397510D01*
X77865010Y24564517D01*
X77673933Y24703343D01*
X77463492Y24810568D01*
X77238868Y24883553D01*
X77005597Y24920500D01*
X77005592Y24920500D01*
X76769408Y24920500D01*
X76769403Y24920500D01*
X76536131Y24883553D01*
X76431912Y24849689D01*
X76311508Y24810568D01*
X76311505Y24810566D01*
X76311503Y24810566D01*
X76206716Y24757174D01*
X76101067Y24703343D01*
X75909990Y24564517D01*
X75742983Y24397510D01*
X75625168Y24235352D01*
X75604157Y24206433D01*
X75496933Y23995996D01*
X75423946Y23771368D01*
X75387000Y23538097D01*
X75387000Y23301902D01*
X75423947Y23068628D01*
X75423947Y23068627D01*
X75430269Y23049170D01*
X75432262Y22979329D01*
X75400018Y22923175D01*
X73407565Y20930722D01*
X73346242Y20897237D01*
X73339323Y20895937D01*
X73261132Y20883553D01*
X73261126Y20883551D01*
X73261125Y20883551D01*
X73166261Y20852727D01*
X73036508Y20810568D01*
X73036505Y20810566D01*
X73036503Y20810566D01*
X72985637Y20784648D01*
X72826067Y20703343D01*
X72634990Y20564517D01*
X72634987Y20564514D01*
X72476553Y20406080D01*
X72415230Y20372595D01*
X72345538Y20377579D01*
X72301191Y20406080D01*
X72283014Y20424257D01*
X72235065Y20472206D01*
X72132291Y20517585D01*
X72107165Y20520500D01*
X69617436Y20520499D01*
X69617422Y20520497D01*
X69617417Y20520497D01*
X69592312Y20517586D01*
X69592310Y20517585D01*
X69592309Y20517585D01*
X69489535Y20472206D01*
X69410094Y20392765D01*
X69364715Y20289993D01*
X69364715Y20289991D01*
X69361800Y20264868D01*
X69361800Y20059220D01*
X69342115Y19992181D01*
X69289311Y19946426D01*
X69220153Y19936482D01*
X69156597Y19965507D01*
X69148031Y19974134D01*
X69147962Y19974065D01*
X69062807Y20059220D01*
X68977510Y20144517D01*
X68786433Y20283343D01*
X68768205Y20292630D01*
X68717410Y20340603D01*
X68700500Y20403115D01*
X68700500Y21836643D01*
X68720185Y21903682D01*
X68724182Y21909529D01*
X68779923Y21986250D01*
X68863343Y22101067D01*
X68922502Y22217173D01*
X68970566Y22311503D01*
X68978132Y22334786D01*
X69017874Y22457101D01*
X69043553Y22536131D01*
X69080500Y22769402D01*
X69080500Y23005597D01*
X69043553Y23238868D01*
X69023070Y23301908D01*
X68970568Y23463492D01*
X68863343Y23673933D01*
X68724517Y23865010D01*
X68557510Y24032017D01*
X68366433Y24170843D01*
X68155992Y24278068D01*
X67931368Y24351053D01*
X67698097Y24388000D01*
X67698092Y24388000D01*
X67461908Y24388000D01*
X67461903Y24388000D01*
X67228631Y24351053D01*
X67153392Y24326606D01*
X67004008Y24278068D01*
X67004005Y24278066D01*
X67004003Y24278066D01*
X66926102Y24238373D01*
X66793567Y24170843D01*
X66602490Y24032017D01*
X66435483Y23865010D01*
X66304479Y23684699D01*
X66296657Y23673933D01*
X66189433Y23463496D01*
X66116446Y23238868D01*
X66079500Y23005597D01*
X66079500Y22769402D01*
X66116446Y22536131D01*
X66189433Y22311503D01*
X66296657Y22101066D01*
X66348312Y22029970D01*
X66435483Y21909990D01*
X66435485Y21909988D01*
X66435485Y21909987D01*
X66602487Y21742985D01*
X66793566Y21604157D01*
X67004003Y21496933D01*
X67213819Y21428760D01*
X67271494Y21389322D01*
X67298692Y21324963D01*
X67299500Y21310829D01*
X67299500Y20403115D01*
X67279815Y20336076D01*
X67231794Y20292630D01*
X67213567Y20283343D01*
X67022490Y20144517D01*
X66855483Y19977510D01*
X66743811Y19823807D01*
X66716657Y19786433D01*
X66609433Y19575996D01*
X66536446Y19351368D01*
X66499500Y19118097D01*
X66499500Y18881902D01*
X66536446Y18648631D01*
X66609433Y18424003D01*
X66716657Y18213566D01*
X66789304Y18113577D01*
X66855483Y18022490D01*
X66855485Y18022488D01*
X66855485Y18022487D01*
X67022487Y17855485D01*
X67213566Y17716657D01*
X67424003Y17609433D01*
X67648631Y17536446D01*
X67881903Y17499500D01*
X67881908Y17499500D01*
X68118097Y17499500D01*
X68351368Y17536446D01*
X68575996Y17609433D01*
X68786433Y17716657D01*
X68823226Y17743389D01*
X68977510Y17855483D01*
X69144517Y18022490D01*
X69147962Y18025935D01*
X69149002Y18024894D01*
X69202005Y18059501D01*
X69271873Y18060007D01*
X69330923Y18022658D01*
X69360407Y17959314D01*
X69361800Y17940781D01*
X69361800Y17775144D01*
X69361802Y17775117D01*
X69364713Y17750012D01*
X69364715Y17750008D01*
X69410093Y17647235D01*
X69489534Y17567794D01*
X69592307Y17522415D01*
X69617434Y17519500D01*
X69617435Y17519500D01*
X72107156Y17519500D01*
X72107182Y17519502D01*
X72132287Y17522413D01*
X72132291Y17522415D01*
X72235064Y17567793D01*
X72314505Y17647234D01*
X72314506Y17647235D01*
X72356964Y17743393D01*
X72359884Y17750006D01*
X72359885Y17750009D01*
X72362800Y17775135D01*
X72362799Y18248312D01*
X72382483Y18315350D01*
X72435287Y18361105D01*
X72504446Y18371049D01*
X72568002Y18342024D01*
X72574480Y18335993D01*
X72634990Y18275482D01*
X72826066Y18136657D01*
X73036503Y18029433D01*
X73261131Y17956446D01*
X73494403Y17919500D01*
X73494408Y17919500D01*
X73730597Y17919500D01*
X73963868Y17956446D01*
X74188496Y18029433D01*
X74398933Y18136657D01*
X74410885Y18145341D01*
X74590010Y18275483D01*
X74757017Y18442490D01*
X74895843Y18633567D01*
X74964154Y18767634D01*
X75003066Y18844003D01*
X75015381Y18881902D01*
X75066608Y19039564D01*
X75076053Y19068631D01*
X75113000Y19301902D01*
X75113000Y19538097D01*
X75076053Y19771368D01*
X75045916Y19864120D01*
X75003068Y19995992D01*
X74895843Y20206433D01*
X74860779Y20254692D01*
X74837299Y20320498D01*
X74853124Y20388552D01*
X74873416Y20415259D01*
X76390675Y21932518D01*
X76451998Y21966003D01*
X76516670Y21962769D01*
X76536128Y21956447D01*
X76769403Y21919500D01*
X76769408Y21919500D01*
X77005597Y21919500D01*
X77238868Y21956446D01*
X77463496Y22029433D01*
X77673933Y22136657D01*
X77768436Y22205318D01*
X77865010Y22275483D01*
X78032017Y22442490D01*
X78075183Y22501902D01*
X78130512Y22544567D01*
X78200126Y22550546D01*
X78261921Y22517940D01*
X78296278Y22457101D01*
X78299500Y22429016D01*
X78299500Y21034018D01*
X78279815Y20966979D01*
X78263181Y20946337D01*
X77916824Y20599980D01*
X77855501Y20566495D01*
X77790825Y20569730D01*
X77771368Y20576053D01*
X77667689Y20592473D01*
X77538097Y20613000D01*
X77538092Y20613000D01*
X77301908Y20613000D01*
X77301903Y20613000D01*
X77068631Y20576053D01*
X76976905Y20546249D01*
X76844008Y20503068D01*
X76844005Y20503066D01*
X76844003Y20503066D01*
X76776490Y20468666D01*
X76633567Y20395843D01*
X76442490Y20257017D01*
X76275483Y20090010D01*
X76193747Y19977510D01*
X76136657Y19898933D01*
X76029433Y19688496D01*
X75956446Y19463868D01*
X75919500Y19230597D01*
X75919500Y18994402D01*
X75956446Y18761131D01*
X76029433Y18536503D01*
X76136657Y18326066D01*
X76195812Y18244647D01*
X76275483Y18134990D01*
X76275485Y18134988D01*
X76275485Y18134987D01*
X76442487Y17967985D01*
X76633566Y17829157D01*
X76844003Y17721933D01*
X77068631Y17648946D01*
X77301903Y17612000D01*
X77301908Y17612000D01*
X77538097Y17612000D01*
X77771368Y17648946D01*
X77995996Y17721933D01*
X78206433Y17829157D01*
X78230367Y17846546D01*
X78397510Y17967983D01*
X78564517Y18134990D01*
X78703343Y18326067D01*
X78762662Y18442487D01*
X78810566Y18536503D01*
X78811320Y18538822D01*
X78862021Y18694864D01*
X78883553Y18761131D01*
X78920500Y18994402D01*
X78920500Y19230597D01*
X78899973Y19360189D01*
X78883553Y19463868D01*
X78877230Y19483324D01*
X78875234Y19553163D01*
X78907480Y19609324D01*
X79544111Y20245954D01*
X79546256Y20249163D01*
X79548644Y20252737D01*
X79620775Y20360689D01*
X79632219Y20388316D01*
X79673578Y20488167D01*
X79673581Y20488177D01*
X79700500Y20623504D01*
X79700500Y24063795D01*
X79674317Y24195424D01*
X79673580Y24199128D01*
X79620775Y24326611D01*
X79620771Y24326616D01*
X79617906Y24331978D01*
X79619437Y24332796D01*
X79601020Y24391593D01*
X79601000Y24393820D01*
X79601000Y25747178D01*
X79611060Y25796103D01*
X79615561Y25806586D01*
X79620775Y25814389D01*
X79671614Y25937127D01*
X79671922Y25937843D01*
X79693722Y25964193D01*
X79715142Y25990774D01*
X79716291Y25991473D01*
X79716460Y25991677D01*
X79716808Y25991788D01*
X79723815Y25996051D01*
X79725380Y25997206D01*
X79725382Y25997207D01*
X79834650Y26077850D01*
X79915293Y26187118D01*
X79936791Y26248555D01*
X79960146Y26315298D01*
X79960146Y26315300D01*
X79963000Y26345730D01*
X79963000Y26754269D01*
X79960146Y26784699D01*
X79960146Y26784701D01*
X79934079Y26859194D01*
X79915293Y26912882D01*
X79834650Y27022150D01*
X79725382Y27102793D01*
X79639926Y27132695D01*
X79597200Y27147646D01*
X79566770Y27150500D01*
X79566766Y27150500D01*
X79080989Y27150500D01*
X79079123Y27151000D01*
X78920877Y27151000D01*
X78919011Y27150500D01*
X78433234Y27150500D01*
X78433230Y27150500D01*
X78402800Y27147646D01*
X78402798Y27147646D01*
X78306663Y27114006D01*
X78274618Y27102793D01*
X78165350Y27022150D01*
X78084707Y26912882D01*
X78084644Y26912762D01*
X78084539Y26912654D01*
X78079189Y26905405D01*
X78078197Y26906137D01*
X78035916Y26862688D01*
X77975012Y26846700D01*
X76104119Y26846700D01*
X76037080Y26866385D01*
X76016438Y26883019D01*
X75540387Y27359069D01*
X75506902Y27420392D01*
X75511886Y27490083D01*
X75540387Y27534431D01*
X76577825Y28571869D01*
X76639148Y28605354D01*
X76708840Y28600370D01*
X76753187Y28571869D01*
X76942878Y28382179D01*
X77054775Y28270281D01*
X77054783Y28270275D01*
X77129542Y28227114D01*
X77129543Y28227114D01*
X77150009Y28215298D01*
X77191821Y28191157D01*
X77344677Y28150200D01*
X77502923Y28150200D01*
X77976650Y28150200D01*
X78043689Y28130515D01*
X78077693Y28093491D01*
X78079189Y28094595D01*
X78084706Y28087118D01*
X78084707Y28087118D01*
X78140015Y28012178D01*
X78165350Y27977850D01*
X78274617Y27897207D01*
X78274619Y27897206D01*
X78402799Y27852353D01*
X78433230Y27849500D01*
X78433234Y27849500D01*
X78919011Y27849500D01*
X78920877Y27849000D01*
X79079123Y27849000D01*
X79080989Y27849500D01*
X79566766Y27849500D01*
X79566770Y27849500D01*
X79597199Y27852353D01*
X79597201Y27852353D01*
X79725380Y27897206D01*
X79725382Y27897207D01*
X79757267Y27920739D01*
X79834650Y27977850D01*
X79915293Y28087118D01*
X79930478Y28130515D01*
X79960146Y28215298D01*
X79960146Y28215300D01*
X79963000Y28245730D01*
X79963000Y28654269D01*
X79960146Y28684699D01*
X79960146Y28684701D01*
X79931315Y28767093D01*
X79915293Y28812882D01*
X79834650Y28922150D01*
X79738624Y28993020D01*
X79725384Y29002792D01*
X79725382Y29002792D01*
X79725382Y29002793D01*
X79694276Y29013677D01*
X79637502Y29054395D01*
X79623881Y29077760D01*
X79623648Y29077636D01*
X79620778Y29083002D01*
X79620775Y29083011D01*
X79544114Y29197742D01*
X79446542Y29295314D01*
X79331811Y29371975D01*
X79204328Y29424780D01*
X79160041Y29433589D01*
X79068995Y29451700D01*
X79068993Y29451700D01*
X78931007Y29451700D01*
X78931005Y29451700D01*
X78795677Y29424781D01*
X78795672Y29424780D01*
X78795667Y29424778D01*
X78668193Y29371977D01*
X78662822Y29369106D01*
X78662004Y29370634D01*
X78603189Y29352220D01*
X78600979Y29352200D01*
X77787000Y29352200D01*
X77719961Y29371885D01*
X77674206Y29424689D01*
X77663000Y29476200D01*
X77663000Y29918096D01*
X77663000Y29918102D01*
X77652377Y30006564D01*
X77596861Y30147342D01*
X77505422Y30267922D01*
X77384842Y30359361D01*
X77244064Y30414877D01*
X77188206Y30421584D01*
X77123994Y30449121D01*
X77084861Y30507004D01*
X77083233Y30576854D01*
X77119629Y30636496D01*
X77182491Y30666994D01*
X77202992Y30668700D01*
X77502496Y30668700D01*
X77637822Y30695618D01*
X77637832Y30695621D01*
X77765307Y30748422D01*
X77880045Y30825087D01*
X80717112Y33662154D01*
X80793777Y33776892D01*
X80846578Y33904367D01*
X80846581Y33904377D01*
X80873500Y34039703D01*
X80873500Y41229181D01*
X80893185Y41296220D01*
X80909819Y41316862D01*
X81625429Y42032472D01*
X81686752Y42065957D01*
X81737779Y42065415D01*
X81737869Y42065978D01*
X81741684Y42065373D01*
X81742035Y42065370D01*
X81742671Y42065217D01*
X81968179Y42029500D01*
X81968184Y42029500D01*
X82196503Y42029500D01*
X82422001Y42065215D01*
X82639144Y42135770D01*
X82842569Y42239421D01*
X82880949Y42267306D01*
X83027278Y42373621D01*
X83188720Y42535063D01*
X83322920Y42719772D01*
X83382883Y42837456D01*
X83426570Y42923196D01*
X83441132Y42968011D01*
X83474262Y43069974D01*
X83497125Y43140339D01*
X83532841Y43365837D01*
X83532841Y43594162D01*
X83497125Y43819660D01*
X83459064Y43936799D01*
X83426572Y44036799D01*
X83322920Y44240228D01*
X83188720Y44424937D01*
X83027278Y44586379D01*
X82842569Y44720579D01*
X82639140Y44824231D01*
X82422001Y44894784D01*
X82196503Y44930500D01*
X82196498Y44930500D01*
X81968184Y44930500D01*
X81968179Y44930500D01*
X81742680Y44894784D01*
X81641933Y44862049D01*
X81525542Y44824231D01*
X81525539Y44824229D01*
X81525537Y44824229D01*
X81460650Y44791167D01*
X81322113Y44720579D01*
X81137404Y44586379D01*
X81137402Y44586377D01*
X80975963Y44424938D01*
X80841762Y44240228D01*
X80738111Y44036803D01*
X80667556Y43819660D01*
X80631841Y43594162D01*
X80631841Y43365837D01*
X80667558Y43140328D01*
X80667696Y43139756D01*
X80667684Y43139532D01*
X80668319Y43135528D01*
X80667476Y43135394D01*
X80664190Y43069974D01*
X80634797Y43023154D01*
X80393985Y42782343D01*
X80332662Y42748858D01*
X80262970Y42753842D01*
X80207037Y42795714D01*
X80182620Y42861178D01*
X80194140Y42917956D01*
X80192364Y42918692D01*
X80194226Y42923190D01*
X80194228Y42923196D01*
X80194231Y42923201D01*
X80258538Y43121117D01*
X80264784Y43140339D01*
X80300500Y43365837D01*
X80300500Y43594162D01*
X80264784Y43819660D01*
X80226723Y43936799D01*
X80194231Y44036799D01*
X80090579Y44240228D01*
X79956379Y44424937D01*
X79794937Y44586379D01*
X79610228Y44720579D01*
X79610221Y44720582D01*
X79609710Y44720897D01*
X79609556Y44721067D01*
X79606286Y44723443D01*
X79606785Y44724129D01*
X79602743Y44728596D01*
X79593297Y44732911D01*
X79579703Y44754063D01*
X79562835Y44772708D01*
X79560133Y44784514D01*
X79555523Y44791689D01*
X79550500Y44826624D01*
X79550500Y44882888D01*
X79570185Y44949927D01*
X79622989Y44995682D01*
X79655102Y45005361D01*
X79851368Y45036446D01*
X80075996Y45109433D01*
X80286433Y45216657D01*
X80477510Y45355483D01*
X80644517Y45522490D01*
X80783343Y45713567D01*
X80864014Y45871893D01*
X80890566Y45924003D01*
X80891005Y45925352D01*
X80949490Y46105351D01*
X80963553Y46148631D01*
X81000500Y46381902D01*
X81000500Y46618097D01*
X80963553Y46851368D01*
X80909275Y47018417D01*
X80890568Y47075992D01*
X80783343Y47286433D01*
X80644517Y47477510D01*
X80477510Y47644517D01*
X80286433Y47783343D01*
X80075992Y47890568D01*
X79851368Y47963553D01*
X79618097Y48000500D01*
X79618092Y48000500D01*
X79381908Y48000500D01*
X79381903Y48000500D01*
X79148631Y47963553D01*
X79044412Y47929689D01*
X78924008Y47890568D01*
X78924005Y47890566D01*
X78924003Y47890566D01*
X78812991Y47834002D01*
X78713567Y47783343D01*
X78522490Y47644517D01*
X78355483Y47477510D01*
X78265553Y47353732D01*
X78216657Y47286433D01*
X78109433Y47075996D01*
X78036446Y46851368D01*
X77999500Y46618097D01*
X77999500Y46381902D01*
X78036446Y46148631D01*
X78109434Y45924000D01*
X78135985Y45871893D01*
X78149500Y45815599D01*
X78149500Y44826624D01*
X78129815Y44759585D01*
X78093371Y44723913D01*
X78093714Y44723443D01*
X78090521Y44721123D01*
X78090290Y44720897D01*
X78089777Y44720582D01*
X78089774Y44720580D01*
X78089772Y44720579D01*
X77905063Y44586379D01*
X77905061Y44586377D01*
X77743622Y44424938D01*
X77609421Y44240228D01*
X77505770Y44036803D01*
X77435215Y43819660D01*
X77399500Y43594162D01*
X77399500Y43365837D01*
X77435215Y43140339D01*
X77505770Y42923196D01*
X77609421Y42719771D01*
X77743622Y42535061D01*
X77905061Y42373622D01*
X78089777Y42239417D01*
X78090290Y42239103D01*
X78090443Y42238932D01*
X78093714Y42236557D01*
X78093214Y42235870D01*
X78137165Y42187292D01*
X78149500Y42133376D01*
X78149500Y39422619D01*
X78129815Y39355580D01*
X78113181Y39334938D01*
X77632181Y38853938D01*
X77570858Y38820453D01*
X77501166Y38825437D01*
X77445233Y38867309D01*
X77420816Y38932773D01*
X77420500Y38941619D01*
X77420500Y39005597D01*
X77383553Y39238868D01*
X77355383Y39325566D01*
X77310568Y39463492D01*
X77203343Y39673933D01*
X77064517Y39865010D01*
X76897510Y40032017D01*
X76706433Y40170843D01*
X76495992Y40278068D01*
X76276145Y40349501D01*
X76269282Y40351731D01*
X76211606Y40391169D01*
X76184408Y40455527D01*
X76183600Y40469662D01*
X76183600Y48949383D01*
X76203285Y49016422D01*
X76251301Y49059866D01*
X76269530Y49069155D01*
X76269533Y49069157D01*
X76460610Y49207983D01*
X76627617Y49374990D01*
X76766443Y49566067D01*
X76847853Y49725843D01*
X76873666Y49776503D01*
X76878014Y49789883D01*
X76932278Y49956890D01*
X76946653Y50001131D01*
X76983600Y50234402D01*
X76983600Y50470597D01*
X76946653Y50703868D01*
X76905775Y50829676D01*
X76873668Y50928492D01*
X76871420Y50932903D01*
X76816379Y51040928D01*
X76766443Y51138933D01*
X76627617Y51330010D01*
X76461508Y51496119D01*
X76428023Y51557442D01*
X76433007Y51627134D01*
X76474879Y51683067D01*
X76540343Y51707484D01*
X76549189Y51707800D01*
X80511196Y51707800D01*
X80646522Y51734718D01*
X80646532Y51734721D01*
X80774007Y51787522D01*
X80888745Y51864187D01*
X80888746Y51864188D01*
X89699437Y60674881D01*
X89760760Y60708366D01*
X89787118Y60711200D01*
X90923034Y60711200D01*
X90955845Y60701565D01*
G37*
G04 #@! TD.AperFunction*
G04 #@! TA.AperFunction,Conductor*
G36*
X91168834Y41811263D02*
G01*
X91224767Y41769391D01*
X91249184Y41703927D01*
X91249500Y41695081D01*
X91249500Y41561577D01*
X91280290Y41367173D01*
X91341117Y41179970D01*
X91430476Y41004594D01*
X91463976Y40958486D01*
X91546172Y40845354D01*
X91546174Y40845352D01*
X91546174Y40845351D01*
X91685351Y40706174D01*
X91844594Y40590476D01*
X92021213Y40500485D01*
X92072009Y40452511D01*
X92088804Y40384690D01*
X92066267Y40318555D01*
X92021213Y40279515D01*
X92002902Y40270185D01*
X91844595Y40189524D01*
X91685354Y40073828D01*
X91546172Y39934646D01*
X91472923Y39833828D01*
X91430476Y39775405D01*
X91341117Y39600029D01*
X91280290Y39412826D01*
X91249500Y39218422D01*
X91249500Y39021577D01*
X91280290Y38827173D01*
X91341117Y38639970D01*
X91430476Y38464594D01*
X91473624Y38405207D01*
X91546172Y38305354D01*
X91546174Y38305352D01*
X91546174Y38305351D01*
X91685351Y38166174D01*
X91844594Y38050476D01*
X92021213Y37960485D01*
X92072009Y37912511D01*
X92088804Y37844690D01*
X92066267Y37778555D01*
X92021213Y37739515D01*
X92019975Y37738884D01*
X91844595Y37649524D01*
X91685354Y37533828D01*
X91546172Y37394646D01*
X91451316Y37264089D01*
X91430476Y37235405D01*
X91341117Y37060029D01*
X91280290Y36872826D01*
X91249500Y36678422D01*
X91249500Y36481577D01*
X91280290Y36287173D01*
X91341117Y36099970D01*
X91430476Y35924594D01*
X91474495Y35864008D01*
X91546172Y35765354D01*
X91546174Y35765352D01*
X91546174Y35765351D01*
X91685351Y35626174D01*
X91844594Y35510476D01*
X92021213Y35420485D01*
X92072009Y35372511D01*
X92088804Y35304690D01*
X92066267Y35238555D01*
X92021213Y35199515D01*
X92019975Y35198884D01*
X91844595Y35109524D01*
X91685354Y34993828D01*
X91546172Y34854646D01*
X91459621Y34735519D01*
X91430476Y34695405D01*
X91341117Y34520029D01*
X91280290Y34332826D01*
X91249500Y34138422D01*
X91249500Y33941581D01*
X91249499Y33941579D01*
X91280290Y33747173D01*
X91341117Y33559970D01*
X91430476Y33384594D01*
X91483652Y33311405D01*
X91546172Y33225354D01*
X91546174Y33225352D01*
X91546174Y33225351D01*
X91685351Y33086174D01*
X91844594Y32970476D01*
X92021213Y32880485D01*
X92072009Y32832511D01*
X92088804Y32764690D01*
X92066267Y32698555D01*
X92021213Y32659515D01*
X92019975Y32658884D01*
X91844595Y32569524D01*
X91685354Y32453828D01*
X91546172Y32314646D01*
X91447264Y32178511D01*
X91430476Y32155405D01*
X91341117Y31980029D01*
X91280290Y31792826D01*
X91249500Y31598422D01*
X91249500Y31401577D01*
X91280290Y31207173D01*
X91341117Y31019970D01*
X91430476Y30844594D01*
X91488167Y30765190D01*
X91546172Y30685354D01*
X91546174Y30685352D01*
X91546174Y30685351D01*
X91685351Y30546174D01*
X91844594Y30430476D01*
X92019970Y30341117D01*
X92207173Y30280290D01*
X92401578Y30249500D01*
X92401583Y30249500D01*
X92598422Y30249500D01*
X92792826Y30280290D01*
X92980029Y30341117D01*
X93155405Y30430476D01*
X93199805Y30462735D01*
X93314646Y30546172D01*
X93453828Y30685354D01*
X93569524Y30844595D01*
X93626134Y30955699D01*
X93658882Y31019970D01*
X93719709Y31207173D01*
X93750500Y31401577D01*
X93750500Y31512881D01*
X93770185Y31579920D01*
X93786819Y31600562D01*
X95858119Y33671862D01*
X95919442Y33705347D01*
X95989134Y33700363D01*
X96045067Y33658491D01*
X96069484Y33593027D01*
X96069800Y33584181D01*
X96069800Y18177734D01*
X96050115Y18110695D01*
X95997311Y18064940D01*
X95928153Y18054996D01*
X95907490Y18059801D01*
X95896868Y18063253D01*
X95859617Y18069153D01*
X95663597Y18100200D01*
X95663592Y18100200D01*
X95427408Y18100200D01*
X95427403Y18100200D01*
X95194131Y18063253D01*
X95125977Y18041108D01*
X94969508Y17990268D01*
X94969505Y17990266D01*
X94969503Y17990266D01*
X94872384Y17940781D01*
X94759067Y17883043D01*
X94567990Y17744217D01*
X94400983Y17577210D01*
X94280375Y17411208D01*
X94262157Y17386133D01*
X94154933Y17175696D01*
X94081946Y16951068D01*
X94045000Y16717797D01*
X94045000Y16481602D01*
X94081946Y16248331D01*
X94154933Y16023703D01*
X94262157Y15813266D01*
X94294350Y15768957D01*
X94400983Y15622190D01*
X94400985Y15622188D01*
X94400985Y15622187D01*
X94567987Y15455185D01*
X94759066Y15316357D01*
X94969503Y15209133D01*
X95194131Y15136146D01*
X95427403Y15099200D01*
X95501481Y15099200D01*
X95568520Y15079515D01*
X95614275Y15026711D01*
X95624219Y14957553D01*
X95595194Y14893997D01*
X95589162Y14887519D01*
X87484662Y6783019D01*
X87423339Y6749534D01*
X87396981Y6746700D01*
X62200189Y6746700D01*
X62133150Y6766385D01*
X62087395Y6819189D01*
X62077451Y6888347D01*
X62106476Y6951903D01*
X62112508Y6958381D01*
X62278214Y7124087D01*
X62278217Y7124090D01*
X62417043Y7315167D01*
X62426332Y7333397D01*
X62474308Y7384192D01*
X62536816Y7401100D01*
X73614596Y7401100D01*
X73749922Y7428018D01*
X73749932Y7428021D01*
X73877407Y7480822D01*
X73992145Y7557487D01*
X73992146Y7557488D01*
X82476475Y16041818D01*
X82537798Y16075303D01*
X82602470Y16072069D01*
X82621928Y16065747D01*
X82855203Y16028800D01*
X82855208Y16028800D01*
X83091397Y16028800D01*
X83324668Y16065746D01*
X83549296Y16138733D01*
X83759733Y16245957D01*
X83761109Y16246957D01*
X83950810Y16384783D01*
X84117817Y16551790D01*
X84256643Y16742867D01*
X84330832Y16888471D01*
X84363866Y16953303D01*
X84364665Y16955760D01*
X84423610Y17137174D01*
X84436853Y17177931D01*
X84473800Y17411202D01*
X84473800Y17647397D01*
X84436853Y17880668D01*
X84436081Y17883043D01*
X84363868Y18105292D01*
X84256643Y18315733D01*
X84191813Y18404962D01*
X84168333Y18470768D01*
X84184158Y18538822D01*
X84234263Y18587517D01*
X84302741Y18601393D01*
X84367850Y18576045D01*
X84379812Y18565529D01*
X86330154Y16615187D01*
X86444892Y16538522D01*
X86572367Y16485721D01*
X86572377Y16485718D01*
X86707704Y16458800D01*
X86707706Y16458800D01*
X88410596Y16458800D01*
X88545922Y16485718D01*
X88545932Y16485721D01*
X88673407Y16538522D01*
X88788145Y16615187D01*
X90044312Y17871354D01*
X90120977Y17986092D01*
X90173778Y18113567D01*
X90173781Y18113577D01*
X90200700Y18248903D01*
X90200700Y25568795D01*
X90177489Y25685480D01*
X90177487Y25685488D01*
X90173780Y25704129D01*
X90120975Y25831611D01*
X90044314Y25946343D01*
X89472235Y26518422D01*
X91249500Y26518422D01*
X91249500Y26321577D01*
X91280290Y26127173D01*
X91341117Y25939970D01*
X91430476Y25764594D01*
X91496485Y25673741D01*
X91546172Y25605354D01*
X91546174Y25605352D01*
X91546174Y25605351D01*
X91685351Y25466174D01*
X91844594Y25350476D01*
X92019970Y25261117D01*
X92207173Y25200290D01*
X92401578Y25169500D01*
X92401583Y25169500D01*
X92598422Y25169500D01*
X92792826Y25200290D01*
X92980029Y25261117D01*
X93155405Y25350476D01*
X93167634Y25359361D01*
X93314646Y25466172D01*
X93453828Y25605354D01*
X93569524Y25764595D01*
X93628231Y25879815D01*
X93658882Y25939970D01*
X93660954Y25946345D01*
X93700687Y26068631D01*
X93719709Y26127173D01*
X93750500Y26321577D01*
X93750500Y26518422D01*
X93719709Y26712826D01*
X93689842Y26804746D01*
X93658884Y26900025D01*
X93569524Y27075405D01*
X93453828Y27234646D01*
X93314646Y27373828D01*
X93155405Y27489524D01*
X92980025Y27578884D01*
X92792826Y27639709D01*
X92789795Y27640189D01*
X92598422Y27670500D01*
X92598417Y27670500D01*
X92401583Y27670500D01*
X92401578Y27670500D01*
X92207173Y27639709D01*
X92129611Y27614507D01*
X92019975Y27578884D01*
X92019972Y27578882D01*
X92019970Y27578882D01*
X91928978Y27532519D01*
X91844595Y27489524D01*
X91685354Y27373828D01*
X91546172Y27234646D01*
X91456492Y27111213D01*
X91430476Y27075405D01*
X91341117Y26900029D01*
X91280290Y26712826D01*
X91249500Y26518422D01*
X89472235Y26518422D01*
X89183038Y26807619D01*
X89149553Y26868942D01*
X89154537Y26938634D01*
X89183038Y26982981D01*
X90720511Y28520453D01*
X90720512Y28520454D01*
X90797177Y28635192D01*
X90849978Y28762667D01*
X90849981Y28762677D01*
X90876900Y28898003D01*
X90876900Y41570481D01*
X90885544Y41599921D01*
X90892068Y41629908D01*
X90895822Y41634923D01*
X90896585Y41637520D01*
X90913219Y41658162D01*
X91037819Y41782762D01*
X91099142Y41816247D01*
X91168834Y41811263D01*
G37*
G04 #@! TD.AperFunction*
G04 #@! TA.AperFunction,Conductor*
G36*
X47356445Y46486267D02*
G01*
X47395485Y46441213D01*
X47485476Y46264594D01*
X47503502Y46239784D01*
X47601172Y46105354D01*
X47601174Y46105352D01*
X47601174Y46105351D01*
X47740354Y45966171D01*
X47803387Y45920375D01*
X47846052Y45865045D01*
X47854500Y45820058D01*
X47854500Y42570118D01*
X47834815Y42503079D01*
X47818181Y42482437D01*
X40830163Y35494420D01*
X40768840Y35460935D01*
X40704163Y35464170D01*
X40686368Y35469953D01*
X40582689Y35486373D01*
X40453097Y35506900D01*
X40453092Y35506900D01*
X40216908Y35506900D01*
X40216903Y35506900D01*
X39983631Y35469953D01*
X39950602Y35459221D01*
X39759008Y35396968D01*
X39759005Y35396966D01*
X39759003Y35396966D01*
X39687025Y35360291D01*
X39548567Y35289743D01*
X39357490Y35150917D01*
X39190483Y34983910D01*
X39051657Y34792833D01*
X38944433Y34582396D01*
X38871446Y34357768D01*
X38834500Y34124497D01*
X38834500Y33888302D01*
X38871446Y33655031D01*
X38944433Y33430403D01*
X39051657Y33219966D01*
X39113398Y33134988D01*
X39190483Y33028890D01*
X39190485Y33028888D01*
X39190485Y33028887D01*
X39357487Y32861885D01*
X39548566Y32723057D01*
X39759003Y32615833D01*
X39983631Y32542846D01*
X40216903Y32505900D01*
X40216908Y32505900D01*
X40453097Y32505900D01*
X40686368Y32542846D01*
X40910996Y32615833D01*
X41121433Y32723057D01*
X41159205Y32750500D01*
X41312510Y32861883D01*
X41479517Y33028890D01*
X41618343Y33219967D01*
X41688825Y33358295D01*
X41725566Y33430403D01*
X41738136Y33469087D01*
X41785130Y33613719D01*
X41798553Y33655031D01*
X41835500Y33888302D01*
X41835500Y34124497D01*
X41817061Y34240912D01*
X41798553Y34357768D01*
X41791690Y34378887D01*
X41789695Y34448725D01*
X41821941Y34504884D01*
X44686143Y37369086D01*
X44747466Y37402571D01*
X44817158Y37397587D01*
X44873091Y37355715D01*
X44897508Y37290251D01*
X44884309Y37225110D01*
X44779033Y37018496D01*
X44706046Y36793868D01*
X44669100Y36560597D01*
X44669100Y36324402D01*
X44706046Y36091131D01*
X44779033Y35866503D01*
X44886257Y35656066D01*
X44925185Y35602487D01*
X45025083Y35464990D01*
X45025085Y35464988D01*
X45025085Y35464987D01*
X45192087Y35297985D01*
X45383166Y35159157D01*
X45593603Y35051933D01*
X45818231Y34978946D01*
X46014842Y34947806D01*
X46077977Y34917877D01*
X46114908Y34858565D01*
X46113910Y34788702D01*
X46083125Y34737652D01*
X45935483Y34590010D01*
X45833919Y34450219D01*
X45796657Y34398933D01*
X45689433Y34188496D01*
X45616446Y33963868D01*
X45579500Y33730597D01*
X45579500Y33494402D01*
X45616446Y33261131D01*
X45689433Y33036503D01*
X45796657Y32826066D01*
X45835892Y32772065D01*
X45935483Y32634990D01*
X45935485Y32634988D01*
X45935485Y32634987D01*
X46102487Y32467985D01*
X46293569Y32329155D01*
X46311799Y32319866D01*
X46362593Y32271890D01*
X46379500Y32209383D01*
X46379500Y31772919D01*
X46359815Y31705880D01*
X46343181Y31685238D01*
X46094762Y31436819D01*
X46033439Y31403334D01*
X46007081Y31400500D01*
X43724499Y31400500D01*
X43657460Y31420185D01*
X43611705Y31472989D01*
X43600499Y31524500D01*
X43600499Y31570481D01*
X43600498Y31570490D01*
X43599484Y31579920D01*
X43594412Y31627114D01*
X43546628Y31755226D01*
X43464687Y31864687D01*
X43355226Y31946628D01*
X43227114Y31994412D01*
X43170485Y32000500D01*
X42729516Y32000499D01*
X42690025Y31996254D01*
X42672885Y31994412D01*
X42625101Y31976588D01*
X42544774Y31946628D01*
X42435313Y31864687D01*
X42399687Y31817096D01*
X42359117Y31762900D01*
X42353372Y31755226D01*
X42327268Y31685238D01*
X42305587Y31627110D01*
X42299500Y31570501D01*
X42299500Y30984712D01*
X42290061Y30937262D01*
X42278727Y30909897D01*
X42276419Y30904325D01*
X42276418Y30904321D01*
X42249500Y30768995D01*
X42249500Y30631004D01*
X42249499Y30631004D01*
X42276419Y30495673D01*
X42276420Y30495670D01*
X42290062Y30462735D01*
X42299500Y30415284D01*
X42299500Y29829518D01*
X42299501Y29829509D01*
X42305587Y29772885D01*
X42353372Y29644773D01*
X42435313Y29535313D01*
X42544771Y29453373D01*
X42672889Y29405587D01*
X42729506Y29399500D01*
X42729515Y29399500D01*
X43170481Y29399500D01*
X43170490Y29399501D01*
X43227114Y29405587D01*
X43355226Y29453372D01*
X43411628Y29495594D01*
X43464687Y29535313D01*
X43546628Y29644774D01*
X43594412Y29772886D01*
X43598863Y29814287D01*
X43600499Y29829498D01*
X43600500Y29829515D01*
X43600500Y29875500D01*
X43620185Y29942539D01*
X43672989Y29988294D01*
X43724500Y29999500D01*
X45524100Y29999500D01*
X45591139Y29979815D01*
X45636894Y29927011D01*
X45648100Y29875500D01*
X45648100Y27838503D01*
X45648099Y27838503D01*
X45675018Y27703177D01*
X45675021Y27703167D01*
X45727822Y27575692D01*
X45804487Y27460954D01*
X47016054Y26249387D01*
X47130792Y26172722D01*
X47258267Y26119921D01*
X47258277Y26119918D01*
X47393604Y26093000D01*
X47393606Y26093000D01*
X47393607Y26093000D01*
X48653681Y26093000D01*
X48720720Y26073315D01*
X48741362Y26056681D01*
X50600106Y24197936D01*
X50633591Y24136613D01*
X50628607Y24066921D01*
X50586735Y24010988D01*
X50521271Y23986571D01*
X50454485Y24000624D01*
X50450389Y24002787D01*
X50450382Y24002793D01*
X50350938Y24037590D01*
X50322200Y24047646D01*
X50291770Y24050500D01*
X50291766Y24050500D01*
X50166324Y24050500D01*
X50099285Y24070185D01*
X50087660Y24078646D01*
X50084045Y24081612D01*
X50084043Y24081614D01*
X49969311Y24158275D01*
X49969308Y24158276D01*
X49969307Y24158277D01*
X49879625Y24195424D01*
X49841828Y24211080D01*
X49797540Y24219889D01*
X49706496Y24238000D01*
X49706494Y24238000D01*
X49706493Y24238000D01*
X47811580Y24238000D01*
X47744541Y24257685D01*
X47736655Y24263196D01*
X47630650Y24343582D01*
X47609842Y24359361D01*
X47469064Y24414877D01*
X47380602Y24425500D01*
X46344398Y24425500D01*
X46255936Y24414877D01*
X46115158Y24359361D01*
X46115157Y24359360D01*
X46115156Y24359360D01*
X45988345Y24263196D01*
X45923034Y24238373D01*
X45913420Y24238000D01*
X44152015Y24238000D01*
X44084976Y24257685D01*
X44039221Y24310489D01*
X44036660Y24316512D01*
X44034361Y24322342D01*
X43942922Y24442922D01*
X43822342Y24534361D01*
X43681564Y24589877D01*
X43593102Y24600500D01*
X42406898Y24600500D01*
X42318436Y24589877D01*
X42177658Y24534361D01*
X42177657Y24534360D01*
X42177656Y24534360D01*
X42057078Y24442923D01*
X42056105Y24441639D01*
X42054913Y24440758D01*
X42051080Y24436925D01*
X42050504Y24437500D01*
X41999913Y24400115D01*
X41930192Y24395562D01*
X41869077Y24429426D01*
X41835973Y24490956D01*
X41833300Y24516563D01*
X41833300Y25875500D01*
X41852985Y25942539D01*
X41905789Y25988294D01*
X41957300Y25999500D01*
X42220480Y25999500D01*
X42220490Y25999501D01*
X42277114Y26005587D01*
X42405226Y26053372D01*
X42485012Y26113099D01*
X42514687Y26135313D01*
X42596628Y26244774D01*
X42644412Y26372886D01*
X42648069Y26406903D01*
X42650499Y26429498D01*
X42650499Y26429505D01*
X42650500Y26429515D01*
X42650499Y27015284D01*
X42659938Y27062736D01*
X42673578Y27095667D01*
X42673581Y27095677D01*
X42700500Y27231003D01*
X42700500Y27368996D01*
X42676525Y27489524D01*
X42673580Y27504328D01*
X42659937Y27537262D01*
X42650499Y27584715D01*
X42650499Y28170481D01*
X42650498Y28170490D01*
X42644412Y28227114D01*
X42636062Y28249500D01*
X42596628Y28355226D01*
X42514687Y28464687D01*
X42405226Y28546628D01*
X42277114Y28594412D01*
X42220485Y28600500D01*
X41779516Y28600499D01*
X41740025Y28596254D01*
X41722885Y28594412D01*
X41676493Y28577108D01*
X41594774Y28546628D01*
X41485313Y28464687D01*
X41461040Y28432262D01*
X41405324Y28357833D01*
X41403372Y28355226D01*
X41356443Y28229404D01*
X41355587Y28227110D01*
X41349500Y28170501D01*
X41349500Y27691519D01*
X41329815Y27624480D01*
X41313181Y27603838D01*
X40588688Y26879346D01*
X40588687Y26879345D01*
X40512022Y26764607D01*
X40459221Y26637132D01*
X40459218Y26637120D01*
X40439624Y26538613D01*
X40439624Y26538610D01*
X40432300Y26501793D01*
X40432300Y21934319D01*
X40412615Y21867280D01*
X40395981Y21846638D01*
X37316977Y18767634D01*
X37255654Y18734149D01*
X37209902Y18732842D01*
X37098417Y18750500D01*
X36901583Y18750500D01*
X36901578Y18750500D01*
X36707173Y18719709D01*
X36630765Y18694882D01*
X36519975Y18658884D01*
X36519972Y18658882D01*
X36519970Y18658882D01*
X36427455Y18611743D01*
X36344595Y18569524D01*
X36185354Y18453828D01*
X36046172Y18314646D01*
X35934815Y18161377D01*
X35879487Y18118714D01*
X35809873Y18112735D01*
X35748078Y18145341D01*
X35713721Y18206180D01*
X35710499Y18234265D01*
X35710499Y18694856D01*
X35710499Y18694864D01*
X35707618Y18719709D01*
X35707586Y18719987D01*
X35707585Y18719988D01*
X35707585Y18719991D01*
X35662206Y18822765D01*
X35582765Y18902206D01*
X35479991Y18947585D01*
X35454865Y18950500D01*
X35324499Y18950499D01*
X35315814Y18953049D01*
X35306853Y18951761D01*
X35282815Y18962738D01*
X35257461Y18970183D01*
X35251532Y18977025D01*
X35243297Y18980786D01*
X35229010Y19003017D01*
X35211706Y19022987D01*
X35209418Y19033502D01*
X35205523Y19039564D01*
X35200500Y19074499D01*
X35200500Y19108480D01*
X35220185Y19175519D01*
X35236819Y19196161D01*
X35558312Y19517654D01*
X35634977Y19632392D01*
X35687778Y19759867D01*
X35687781Y19759877D01*
X35714700Y19895203D01*
X35714700Y25496221D01*
X35734385Y25563260D01*
X35787189Y25609015D01*
X35856347Y25618959D01*
X35919903Y25589934D01*
X35939018Y25569107D01*
X35995484Y25491388D01*
X36162487Y25324385D01*
X36353566Y25185557D01*
X36564003Y25078333D01*
X36788631Y25005346D01*
X37021903Y24968400D01*
X37021908Y24968400D01*
X37258097Y24968400D01*
X37491368Y25005346D01*
X37715996Y25078333D01*
X37926433Y25185557D01*
X37946711Y25200290D01*
X38117510Y25324383D01*
X38284517Y25491390D01*
X38423343Y25682467D01*
X38475481Y25784793D01*
X38530566Y25892903D01*
X38533295Y25901300D01*
X38587664Y26068631D01*
X38603553Y26117531D01*
X38640500Y26350802D01*
X38640500Y26586997D01*
X38603553Y26820268D01*
X38595280Y26845730D01*
X38530568Y27044892D01*
X38423343Y27255333D01*
X38284517Y27446410D01*
X38117510Y27613417D01*
X38117509Y27613417D01*
X38114065Y27616862D01*
X38115109Y27617906D01*
X38080505Y27670882D01*
X38079986Y27740750D01*
X38117322Y27799807D01*
X38180661Y27829303D01*
X38199218Y27830700D01*
X38364855Y27830700D01*
X38364882Y27830702D01*
X38389987Y27833613D01*
X38389991Y27833615D01*
X38492764Y27878993D01*
X38572205Y27958434D01*
X38572206Y27958435D01*
X38605730Y28034360D01*
X38617584Y28061206D01*
X38617585Y28061209D01*
X38620500Y28086335D01*
X38620499Y29875500D01*
X38640184Y29942539D01*
X38692987Y29988294D01*
X38744499Y29999500D01*
X40275501Y29999500D01*
X40342540Y29979815D01*
X40388295Y29927011D01*
X40399501Y29875500D01*
X40399501Y29829509D01*
X40405587Y29772885D01*
X40453372Y29644773D01*
X40535313Y29535313D01*
X40644771Y29453373D01*
X40772889Y29405587D01*
X40829506Y29399500D01*
X40829515Y29399500D01*
X41270481Y29399500D01*
X41270490Y29399501D01*
X41327114Y29405587D01*
X41455226Y29453372D01*
X41511628Y29495594D01*
X41564687Y29535313D01*
X41646628Y29644774D01*
X41694412Y29772886D01*
X41698863Y29814287D01*
X41700499Y29829498D01*
X41700499Y29829509D01*
X41700500Y29829515D01*
X41700499Y30415284D01*
X41709938Y30462736D01*
X41723578Y30495667D01*
X41723581Y30495677D01*
X41750500Y30631004D01*
X41750500Y30768995D01*
X41723581Y30904323D01*
X41723580Y30904323D01*
X41723580Y30904328D01*
X41709937Y30937262D01*
X41700499Y30984715D01*
X41700499Y31570481D01*
X41700498Y31570490D01*
X41699484Y31579920D01*
X41694412Y31627114D01*
X41646628Y31755226D01*
X41564687Y31864687D01*
X41455226Y31946628D01*
X41327114Y31994412D01*
X41270485Y32000500D01*
X40829516Y32000499D01*
X40790025Y31996254D01*
X40772885Y31994412D01*
X40725101Y31976588D01*
X40644774Y31946628D01*
X40535313Y31864687D01*
X40499687Y31817096D01*
X40459117Y31762900D01*
X40453372Y31755226D01*
X40427268Y31685238D01*
X40405587Y31627110D01*
X40399500Y31570501D01*
X40399500Y31524500D01*
X40379815Y31457461D01*
X40327011Y31411706D01*
X40275500Y31400500D01*
X37944500Y31400500D01*
X37877461Y31420185D01*
X37831706Y31472989D01*
X37820500Y31524500D01*
X37820500Y32348850D01*
X37840185Y32415889D01*
X37871612Y32449166D01*
X37897506Y32467980D01*
X37897512Y32467985D01*
X38064514Y32634987D01*
X38064517Y32634990D01*
X38203343Y32826067D01*
X38276923Y32970476D01*
X38310566Y33036503D01*
X38311155Y33038314D01*
X38369102Y33216657D01*
X38383553Y33261131D01*
X38420500Y33494402D01*
X38420500Y33730597D01*
X38383553Y33963868D01*
X38380972Y33971811D01*
X38310568Y34188492D01*
X38203343Y34398933D01*
X38064517Y34590010D01*
X37897510Y34757017D01*
X37706433Y34895843D01*
X37495992Y35003068D01*
X37271368Y35076053D01*
X37038097Y35113000D01*
X37038092Y35113000D01*
X36801908Y35113000D01*
X36801903Y35113000D01*
X36568631Y35076053D01*
X36494395Y35051932D01*
X36344008Y35003068D01*
X36344005Y35003066D01*
X36344003Y35003066D01*
X36280223Y34970568D01*
X36133567Y34895843D01*
X35942490Y34757017D01*
X35942487Y34757014D01*
X35926381Y34740908D01*
X35865058Y34707423D01*
X35795366Y34712407D01*
X35739433Y34754279D01*
X35715016Y34819743D01*
X35714700Y34828589D01*
X35714700Y38972681D01*
X35734385Y39039720D01*
X35751019Y39060362D01*
X36503837Y39813181D01*
X36565160Y39846666D01*
X36591518Y39849500D01*
X37070481Y39849500D01*
X37070490Y39849501D01*
X37127114Y39855587D01*
X37255226Y39903372D01*
X37297003Y39934646D01*
X37364687Y39985313D01*
X37446628Y40094774D01*
X37494412Y40222886D01*
X37498167Y40257812D01*
X37500499Y40279498D01*
X37500499Y40279505D01*
X37500500Y40279515D01*
X37500499Y40720484D01*
X37494412Y40777114D01*
X37446628Y40905226D01*
X37364687Y41014687D01*
X37255226Y41096628D01*
X37127114Y41144412D01*
X37070485Y41150500D01*
X36484712Y41150499D01*
X36437260Y41159938D01*
X36404328Y41173580D01*
X36268996Y41200498D01*
X36268995Y41200499D01*
X36268994Y41200499D01*
X36131006Y41200499D01*
X35995671Y41173580D01*
X35995669Y41173579D01*
X35962737Y41159938D01*
X35915284Y41150499D01*
X35329516Y41150499D01*
X35290025Y41146254D01*
X35272885Y41144412D01*
X35225101Y41126588D01*
X35144774Y41096628D01*
X35035313Y41014687D01*
X34993456Y40958772D01*
X34967871Y40924594D01*
X34953372Y40905226D01*
X34906478Y40779498D01*
X34905587Y40777110D01*
X34899500Y40720501D01*
X34899500Y40279518D01*
X34899501Y40279515D01*
X34901833Y40257812D01*
X34889425Y40189053D01*
X34866224Y40156881D01*
X34470088Y39760746D01*
X34470087Y39760745D01*
X34470011Y39760631D01*
X34394367Y39647420D01*
X34393424Y39646009D01*
X34339060Y39514762D01*
X34295219Y39460359D01*
X34228925Y39438294D01*
X34161226Y39455573D01*
X34113615Y39506710D01*
X34100499Y39562215D01*
X34100499Y39770481D01*
X34100498Y39770490D01*
X34100023Y39774907D01*
X34094412Y39827114D01*
X34046628Y39955226D01*
X33964687Y40064687D01*
X33855226Y40146628D01*
X33727114Y40194412D01*
X33670485Y40200500D01*
X33084714Y40200499D01*
X33037262Y40209937D01*
X33004328Y40223580D01*
X33004323Y40223581D01*
X32868995Y40250500D01*
X32868993Y40250500D01*
X32778719Y40250500D01*
X32711680Y40270185D01*
X32691038Y40286819D01*
X31560919Y41416938D01*
X31527434Y41478261D01*
X31524600Y41504619D01*
X31524600Y45855732D01*
X31544285Y45922771D01*
X31575713Y45956049D01*
X31589645Y45966171D01*
X31728825Y46105351D01*
X31728828Y46105354D01*
X31844524Y46264595D01*
X31907397Y46387992D01*
X31934515Y46441213D01*
X31982489Y46492009D01*
X32050310Y46508804D01*
X32116445Y46486267D01*
X32155485Y46441213D01*
X32245476Y46264594D01*
X32263502Y46239784D01*
X32361172Y46105354D01*
X32361174Y46105352D01*
X32361174Y46105351D01*
X32500351Y45966174D01*
X32659594Y45850476D01*
X32834970Y45761117D01*
X33022173Y45700290D01*
X33216578Y45669500D01*
X33216583Y45669500D01*
X33413422Y45669500D01*
X33607826Y45700290D01*
X33795029Y45761117D01*
X33970405Y45850476D01*
X33990457Y45865045D01*
X34129646Y45966172D01*
X34268828Y46105354D01*
X34384524Y46264595D01*
X34447397Y46387992D01*
X34474515Y46441213D01*
X34522489Y46492009D01*
X34590310Y46508804D01*
X34656445Y46486267D01*
X34695485Y46441213D01*
X34785476Y46264594D01*
X34803502Y46239784D01*
X34901172Y46105354D01*
X34901174Y46105352D01*
X34901174Y46105351D01*
X35040351Y45966174D01*
X35199594Y45850476D01*
X35374970Y45761117D01*
X35562173Y45700290D01*
X35756578Y45669500D01*
X35756583Y45669500D01*
X35953422Y45669500D01*
X36147826Y45700290D01*
X36335029Y45761117D01*
X36510405Y45850476D01*
X36530457Y45865045D01*
X36669646Y45966172D01*
X36808828Y46105354D01*
X36924524Y46264595D01*
X36987397Y46387992D01*
X37014515Y46441213D01*
X37062489Y46492009D01*
X37130310Y46508804D01*
X37196445Y46486267D01*
X37235485Y46441213D01*
X37325476Y46264594D01*
X37343502Y46239784D01*
X37441172Y46105354D01*
X37441174Y46105352D01*
X37441174Y46105351D01*
X37580351Y45966174D01*
X37739594Y45850476D01*
X37914970Y45761117D01*
X38102173Y45700290D01*
X38296578Y45669500D01*
X38296583Y45669500D01*
X38493422Y45669500D01*
X38687826Y45700290D01*
X38875029Y45761117D01*
X39050405Y45850476D01*
X39070457Y45865045D01*
X39209646Y45966172D01*
X39348828Y46105354D01*
X39464524Y46264595D01*
X39527397Y46387992D01*
X39554515Y46441213D01*
X39602489Y46492009D01*
X39670310Y46508804D01*
X39736445Y46486267D01*
X39775485Y46441213D01*
X39865476Y46264594D01*
X39883502Y46239784D01*
X39981172Y46105354D01*
X39981174Y46105352D01*
X39981174Y46105351D01*
X40120351Y45966174D01*
X40279594Y45850476D01*
X40454970Y45761117D01*
X40642173Y45700290D01*
X40836578Y45669500D01*
X40836583Y45669500D01*
X41033422Y45669500D01*
X41227826Y45700290D01*
X41415029Y45761117D01*
X41590405Y45850476D01*
X41610457Y45865045D01*
X41749646Y45966172D01*
X41888828Y46105354D01*
X42004524Y46264595D01*
X42067397Y46387992D01*
X42094515Y46441213D01*
X42142489Y46492009D01*
X42210310Y46508804D01*
X42276445Y46486267D01*
X42315485Y46441213D01*
X42405476Y46264594D01*
X42423502Y46239784D01*
X42521172Y46105354D01*
X42521174Y46105352D01*
X42521174Y46105351D01*
X42660351Y45966174D01*
X42819594Y45850476D01*
X42994970Y45761117D01*
X43182173Y45700290D01*
X43376578Y45669500D01*
X43376583Y45669500D01*
X43573422Y45669500D01*
X43767826Y45700290D01*
X43955029Y45761117D01*
X44130405Y45850476D01*
X44150457Y45865045D01*
X44289646Y45966172D01*
X44428828Y46105354D01*
X44544524Y46264595D01*
X44607397Y46387992D01*
X44634515Y46441213D01*
X44682489Y46492009D01*
X44750310Y46508804D01*
X44816445Y46486267D01*
X44855485Y46441213D01*
X44945476Y46264594D01*
X44963502Y46239784D01*
X45061172Y46105354D01*
X45061174Y46105352D01*
X45061174Y46105351D01*
X45200354Y45966171D01*
X45263387Y45920375D01*
X45306052Y45865045D01*
X45314500Y45820058D01*
X45314500Y44499319D01*
X45294815Y44432280D01*
X45278181Y44411638D01*
X43763723Y42897180D01*
X43702400Y42863695D01*
X43637725Y42866930D01*
X43618268Y42873253D01*
X43559433Y42882571D01*
X43384997Y42910200D01*
X43384992Y42910200D01*
X43148808Y42910200D01*
X43148803Y42910200D01*
X42915531Y42873253D01*
X42872358Y42859225D01*
X42690908Y42800268D01*
X42690905Y42800266D01*
X42690903Y42800266D01*
X42645110Y42776933D01*
X42480467Y42693043D01*
X42289390Y42554217D01*
X42122383Y42387210D01*
X42012927Y42236557D01*
X41983557Y42196133D01*
X41876333Y41985696D01*
X41803346Y41761068D01*
X41766400Y41527797D01*
X41766400Y41291602D01*
X41803346Y41058331D01*
X41876333Y40833703D01*
X41983557Y40623266D01*
X42062762Y40514250D01*
X42122383Y40432190D01*
X42122385Y40432188D01*
X42122385Y40432187D01*
X42289387Y40265185D01*
X42480466Y40126357D01*
X42690903Y40019133D01*
X42915531Y39946146D01*
X43148803Y39909200D01*
X43148808Y39909200D01*
X43384997Y39909200D01*
X43618268Y39946146D01*
X43842896Y40019133D01*
X44053333Y40126357D01*
X44059035Y40130500D01*
X44244410Y40265183D01*
X44411417Y40432190D01*
X44550243Y40623267D01*
X44618797Y40757812D01*
X44657466Y40833703D01*
X44730453Y41058331D01*
X44767400Y41291602D01*
X44767400Y41527797D01*
X44730454Y41761060D01*
X44730453Y41761068D01*
X44724130Y41780524D01*
X44722134Y41850361D01*
X44754380Y41906523D01*
X46559109Y43711251D01*
X46559112Y43711254D01*
X46607286Y43783353D01*
X46607289Y43783357D01*
X46635775Y43825989D01*
X46635776Y43825992D01*
X46635778Y43825995D01*
X46688578Y43953467D01*
X46688581Y43953477D01*
X46715500Y44088804D01*
X46715500Y45820058D01*
X46735185Y45887097D01*
X46766613Y45920375D01*
X46829645Y45966171D01*
X46968825Y46105351D01*
X46968828Y46105354D01*
X47084524Y46264595D01*
X47147397Y46387992D01*
X47174515Y46441213D01*
X47222489Y46492009D01*
X47290310Y46508804D01*
X47356445Y46486267D01*
G37*
G04 #@! TD.AperFunction*
G04 #@! TA.AperFunction,Conductor*
G36*
X77698520Y64490415D02*
G01*
X77719162Y64473781D01*
X80111364Y62081577D01*
X80112334Y62080508D01*
X80213654Y61979188D01*
X80213658Y61979185D01*
X80328382Y61902528D01*
X80328395Y61902521D01*
X80455867Y61849721D01*
X80455877Y61849718D01*
X80591205Y61822800D01*
X80591207Y61822800D01*
X80729193Y61822800D01*
X88566682Y61822800D01*
X88633721Y61803115D01*
X88679476Y61750311D01*
X88689420Y61681153D01*
X88660395Y61617597D01*
X88654363Y61611119D01*
X84279239Y57235996D01*
X80188362Y53145119D01*
X80127039Y53111634D01*
X80100681Y53108800D01*
X78004135Y53108800D01*
X77937096Y53128485D01*
X77891341Y53181289D01*
X77881397Y53250447D01*
X77910422Y53314003D01*
X77947840Y53343285D01*
X78071233Y53406157D01*
X78071254Y53406172D01*
X78262310Y53544983D01*
X78429317Y53711990D01*
X78568143Y53903067D01*
X78618802Y54002491D01*
X78675366Y54113503D01*
X78687099Y54149611D01*
X78736035Y54300220D01*
X78748353Y54338131D01*
X78785300Y54571402D01*
X78785300Y54807597D01*
X78748353Y55040868D01*
X78717012Y55137325D01*
X78715017Y55207166D01*
X78751097Y55266999D01*
X78813798Y55297828D01*
X78883212Y55289864D01*
X78891238Y55286129D01*
X78924003Y55269433D01*
X79148631Y55196446D01*
X79381903Y55159500D01*
X79381908Y55159500D01*
X79618097Y55159500D01*
X79851368Y55196446D01*
X80075996Y55269433D01*
X80286433Y55376657D01*
X80304798Y55390000D01*
X80477510Y55515483D01*
X80644517Y55682490D01*
X80783343Y55873567D01*
X80834002Y55972991D01*
X80890566Y56084003D01*
X80891005Y56085352D01*
X80963550Y56308623D01*
X80963553Y56308631D01*
X81000500Y56541902D01*
X81000500Y56778097D01*
X80963553Y57011368D01*
X80890568Y57235992D01*
X80783343Y57446433D01*
X80644517Y57637510D01*
X80477510Y57804517D01*
X80286433Y57943343D01*
X80083719Y58046630D01*
X80075996Y58050566D01*
X80075995Y58050566D01*
X80075992Y58050568D01*
X79851368Y58123553D01*
X79618097Y58160500D01*
X79618092Y58160500D01*
X79381908Y58160500D01*
X79381903Y58160500D01*
X79148631Y58123553D01*
X79045752Y58090125D01*
X78924008Y58050568D01*
X78924005Y58050566D01*
X78924003Y58050566D01*
X78825071Y58000157D01*
X78713567Y57943343D01*
X78522490Y57804517D01*
X78355483Y57637510D01*
X78216657Y57446433D01*
X78109433Y57235996D01*
X78036446Y57011368D01*
X77999500Y56778097D01*
X77999500Y56541902D01*
X78036447Y56308630D01*
X78036448Y56308623D01*
X78067787Y56212172D01*
X78069782Y56142331D01*
X78033701Y56082499D01*
X77971000Y56051671D01*
X77901586Y56059636D01*
X77893578Y56063362D01*
X77860792Y56080068D01*
X77636168Y56153053D01*
X77402897Y56190000D01*
X77402892Y56190000D01*
X77166708Y56190000D01*
X77166703Y56190000D01*
X76933431Y56153053D01*
X76900433Y56142331D01*
X76708808Y56080068D01*
X76708805Y56080066D01*
X76708803Y56080066D01*
X76597791Y56023502D01*
X76498367Y55972843D01*
X76307290Y55834017D01*
X76140283Y55667010D01*
X76030192Y55515483D01*
X76001457Y55475933D01*
X75992168Y55457703D01*
X75944192Y55406908D01*
X75881684Y55390000D01*
X73116904Y55390000D01*
X72981577Y55363081D01*
X72981572Y55363080D01*
X72981567Y55363078D01*
X72854092Y55310277D01*
X72739354Y55233612D01*
X69982287Y52476545D01*
X69905622Y52361807D01*
X69852821Y52234332D01*
X69852821Y52234330D01*
X69852820Y52234328D01*
X69831775Y52128529D01*
X69799392Y52066621D01*
X69766455Y52042239D01*
X69739967Y52028743D01*
X69548890Y51889917D01*
X69381883Y51722910D01*
X69261663Y51557442D01*
X69243057Y51531833D01*
X69135833Y51321396D01*
X69062846Y51096768D01*
X69025900Y50863497D01*
X69025900Y50627302D01*
X69062846Y50394031D01*
X69135833Y50169403D01*
X69243057Y49958966D01*
X69295122Y49887306D01*
X69381883Y49767890D01*
X69381885Y49767888D01*
X69381885Y49767887D01*
X69548887Y49600885D01*
X69739966Y49462057D01*
X69950403Y49354833D01*
X70175031Y49281846D01*
X70408303Y49244900D01*
X70408308Y49244900D01*
X70644497Y49244900D01*
X70877768Y49281846D01*
X71102396Y49354833D01*
X71312833Y49462057D01*
X71324931Y49470847D01*
X71503910Y49600883D01*
X71670917Y49767890D01*
X71809743Y49958967D01*
X71860402Y50058391D01*
X71916966Y50169403D01*
X71926557Y50198919D01*
X71974935Y50347811D01*
X71989953Y50394031D01*
X72026900Y50627302D01*
X72026900Y50863497D01*
X71989953Y51096768D01*
X71967915Y51164594D01*
X71916968Y51321392D01*
X71809743Y51531833D01*
X71670917Y51722910D01*
X71528123Y51865704D01*
X71494638Y51927027D01*
X71499622Y51996719D01*
X71528123Y52041066D01*
X71915619Y52428562D01*
X71976942Y52462047D01*
X72046634Y52457063D01*
X72102567Y52415191D01*
X72126984Y52349727D01*
X72127300Y52340881D01*
X72127300Y52290202D01*
X72164246Y52056931D01*
X72237233Y51832303D01*
X72344457Y51621866D01*
X72409871Y51531833D01*
X72483283Y51430790D01*
X72483285Y51430788D01*
X72483285Y51430787D01*
X72650287Y51263785D01*
X72841366Y51124957D01*
X73051803Y51017733D01*
X73276431Y50944746D01*
X73509703Y50907800D01*
X73509708Y50907800D01*
X73745897Y50907800D01*
X73904391Y50932903D01*
X73973685Y50923948D01*
X74027136Y50878952D01*
X74047776Y50812201D01*
X74041720Y50772112D01*
X74019547Y50703872D01*
X74019547Y50703869D01*
X73982600Y50470597D01*
X73982600Y50234402D01*
X74019546Y50001131D01*
X74092533Y49776503D01*
X74199757Y49566066D01*
X74268939Y49470847D01*
X74338583Y49374990D01*
X74338585Y49374988D01*
X74338585Y49374987D01*
X74505587Y49207985D01*
X74696669Y49069155D01*
X74714899Y49059866D01*
X74765693Y49011890D01*
X74782600Y48949383D01*
X74782600Y39915095D01*
X74776928Y39895780D01*
X74776163Y39875661D01*
X74764215Y39852485D01*
X74762915Y39848056D01*
X74760291Y39844137D01*
X74759640Y39843204D01*
X74636657Y39673933D01*
X74623479Y39648070D01*
X74618575Y39641042D01*
X74597732Y39624326D01*
X74579392Y39604908D01*
X74570532Y39602511D01*
X74564069Y39597328D01*
X74543293Y39595143D01*
X74516884Y39588000D01*
X69993019Y39588000D01*
X69925980Y39607685D01*
X69905338Y39624319D01*
X67035545Y42494112D01*
X67035543Y42494114D01*
X66920811Y42570775D01*
X66920808Y42570776D01*
X66920807Y42570777D01*
X66843213Y42602917D01*
X66793328Y42623580D01*
X66749040Y42632389D01*
X66657996Y42650500D01*
X66657994Y42650500D01*
X66657993Y42650500D01*
X63131007Y42650500D01*
X63131005Y42650500D01*
X62995677Y42623581D01*
X62995672Y42623580D01*
X62972129Y42613828D01*
X62962738Y42609938D01*
X62915285Y42600499D01*
X62329516Y42600499D01*
X62290025Y42596254D01*
X62272885Y42594412D01*
X62252231Y42586708D01*
X62144774Y42546628D01*
X62035313Y42464687D01*
X61982883Y42394648D01*
X61955857Y42358545D01*
X61953372Y42355226D01*
X61908681Y42235405D01*
X61905587Y42227110D01*
X61899500Y42170501D01*
X61899500Y41729518D01*
X61899501Y41729509D01*
X61905587Y41672885D01*
X61953372Y41544773D01*
X62035313Y41435313D01*
X62144771Y41353373D01*
X62272889Y41305587D01*
X62329498Y41299500D01*
X62329515Y41299500D01*
X62915285Y41299500D01*
X62962737Y41290061D01*
X62995666Y41276421D01*
X62995673Y41276419D01*
X63131005Y41249500D01*
X63131007Y41249500D01*
X66247481Y41249500D01*
X66314520Y41229815D01*
X66335162Y41213181D01*
X69204953Y38343388D01*
X69204954Y38343387D01*
X69319692Y38266722D01*
X69447167Y38213921D01*
X69447177Y38213918D01*
X69582504Y38187000D01*
X69582506Y38187000D01*
X69582507Y38187000D01*
X74516884Y38187000D01*
X74583923Y38167315D01*
X74627368Y38119297D01*
X74636657Y38101066D01*
X74713761Y37994943D01*
X74775483Y37909990D01*
X74775485Y37909988D01*
X74775485Y37909987D01*
X74942487Y37742985D01*
X75133566Y37604157D01*
X75344003Y37496933D01*
X75568631Y37423946D01*
X75801903Y37387000D01*
X75865881Y37387000D01*
X75932920Y37367315D01*
X75978675Y37314511D01*
X75988619Y37245353D01*
X75959594Y37181797D01*
X75953562Y37175319D01*
X74015062Y35236819D01*
X73953739Y35203334D01*
X73927381Y35200500D01*
X72124499Y35200500D01*
X72057460Y35220185D01*
X72011705Y35272989D01*
X72000499Y35324500D01*
X72000499Y35744856D01*
X72000499Y35744864D01*
X72000114Y35748182D01*
X71997586Y35769987D01*
X71997585Y35769988D01*
X71997585Y35769991D01*
X71952206Y35872765D01*
X71872765Y35952206D01*
X71769991Y35997585D01*
X71744865Y36000500D01*
X69255136Y36000499D01*
X69255122Y36000497D01*
X69255117Y36000497D01*
X69230012Y35997586D01*
X69230010Y35997585D01*
X69230009Y35997585D01*
X69158095Y35965832D01*
X69127235Y35952206D01*
X69047794Y35872765D01*
X69002415Y35769993D01*
X69002415Y35769991D01*
X68999500Y35744868D01*
X68999500Y33255143D01*
X68999502Y33255117D01*
X69002413Y33230012D01*
X69002415Y33230008D01*
X69047793Y33127235D01*
X69127234Y33047794D01*
X69230007Y33002415D01*
X69255134Y32999500D01*
X69255135Y32999500D01*
X71744856Y32999500D01*
X71744882Y32999502D01*
X71769987Y33002413D01*
X71769991Y33002415D01*
X71872764Y33047793D01*
X71952205Y33127234D01*
X71952206Y33127235D01*
X71993151Y33219967D01*
X71997584Y33230006D01*
X71997585Y33230009D01*
X72000500Y33255135D01*
X72000500Y33675500D01*
X72020185Y33742539D01*
X72072989Y33788294D01*
X72124500Y33799500D01*
X74337896Y33799500D01*
X74473222Y33826418D01*
X74473232Y33826421D01*
X74600707Y33879222D01*
X74715445Y33955887D01*
X79260819Y38501261D01*
X79322142Y38534746D01*
X79391834Y38529762D01*
X79447767Y38487890D01*
X79472184Y38422426D01*
X79472500Y38413580D01*
X79472500Y34450219D01*
X79452815Y34383180D01*
X79436181Y34362538D01*
X78599681Y33526038D01*
X78538358Y33492553D01*
X78468666Y33497537D01*
X78412733Y33539409D01*
X78388316Y33604873D01*
X78388000Y33613719D01*
X78388000Y33698097D01*
X78351053Y33931368D01*
X78343086Y33955887D01*
X78278068Y34155992D01*
X78170843Y34366433D01*
X78032017Y34557510D01*
X77865010Y34724517D01*
X77673933Y34863343D01*
X77463492Y34970568D01*
X77238868Y35043553D01*
X77005597Y35080500D01*
X77005592Y35080500D01*
X76769408Y35080500D01*
X76769403Y35080500D01*
X76536131Y35043553D01*
X76499498Y35031650D01*
X76311508Y34970568D01*
X76311505Y34970566D01*
X76311503Y34970566D01*
X76208096Y34917877D01*
X76101067Y34863343D01*
X75909990Y34724517D01*
X75742983Y34557510D01*
X75615400Y34381908D01*
X75604157Y34366433D01*
X75496933Y34155996D01*
X75423946Y33931368D01*
X75387000Y33698097D01*
X75387000Y33461902D01*
X75423946Y33228631D01*
X75496933Y33004003D01*
X75604157Y32793566D01*
X75681286Y32687408D01*
X75742983Y32602490D01*
X75742985Y32602488D01*
X75742985Y32602487D01*
X75909987Y32435485D01*
X76104699Y32294018D01*
X76147364Y32238688D01*
X76153343Y32169074D01*
X76120737Y32107279D01*
X76059898Y32072922D01*
X76031813Y32069700D01*
X75332704Y32069700D01*
X75227304Y32048734D01*
X75197372Y32042780D01*
X75197367Y32042778D01*
X75069892Y31989977D01*
X74955154Y31913312D01*
X74955153Y31913311D01*
X74109323Y31067480D01*
X74048000Y31033995D01*
X73983325Y31037230D01*
X73963868Y31043553D01*
X73905033Y31052871D01*
X73730597Y31080500D01*
X73730592Y31080500D01*
X73494408Y31080500D01*
X73494403Y31080500D01*
X73261131Y31043553D01*
X73188551Y31019970D01*
X73036508Y30970568D01*
X73036505Y30970566D01*
X73036503Y30970566D01*
X72927948Y30915254D01*
X72826067Y30863343D01*
X72634990Y30724517D01*
X72467983Y30557510D01*
X72356306Y30403800D01*
X72329157Y30366433D01*
X72221933Y30155996D01*
X72148946Y29931368D01*
X72112000Y29698097D01*
X72112000Y29461902D01*
X72148946Y29228631D01*
X72221933Y29004003D01*
X72329157Y28793566D01*
X72376120Y28728928D01*
X72467983Y28602490D01*
X72467985Y28602488D01*
X72467985Y28602487D01*
X72525692Y28544781D01*
X72559177Y28483458D01*
X72554193Y28413766D01*
X72512321Y28357833D01*
X72446857Y28333416D01*
X72438011Y28333100D01*
X69898200Y28333100D01*
X69831161Y28352785D01*
X69785406Y28405589D01*
X69774200Y28457100D01*
X69774200Y28755095D01*
X69774199Y28755097D01*
X69766787Y28792357D01*
X69747280Y28890428D01*
X69744141Y28898006D01*
X69742365Y28902294D01*
X69742360Y28902304D01*
X69694478Y29017904D01*
X69694477Y29017904D01*
X69694475Y29017911D01*
X69617814Y29132643D01*
X68699319Y30051138D01*
X68665834Y30112461D01*
X68663000Y30138819D01*
X68663000Y30418098D01*
X68662749Y30420185D01*
X68652377Y30506564D01*
X68596861Y30647342D01*
X68505422Y30767922D01*
X68384842Y30859361D01*
X68244064Y30914877D01*
X68155602Y30925500D01*
X67119398Y30925500D01*
X67030936Y30914877D01*
X66890158Y30859361D01*
X66890157Y30859360D01*
X66890156Y30859360D01*
X66763345Y30763196D01*
X66698034Y30738373D01*
X66688420Y30738000D01*
X66101005Y30738000D01*
X65965677Y30711081D01*
X65965672Y30711080D01*
X65965667Y30711078D01*
X65838192Y30658277D01*
X65723454Y30581612D01*
X65723453Y30581611D01*
X64728662Y29586819D01*
X64667339Y29553334D01*
X64640981Y29550500D01*
X64570730Y29550500D01*
X64540300Y29547646D01*
X64540298Y29547646D01*
X64444163Y29514006D01*
X64412118Y29502793D01*
X64302850Y29422150D01*
X64265753Y29371885D01*
X64222207Y29312882D01*
X64222206Y29312880D01*
X64177353Y29184701D01*
X64177353Y29184699D01*
X64174500Y29154269D01*
X64174500Y28745730D01*
X64177353Y28715300D01*
X64177353Y28715298D01*
X64222206Y28587119D01*
X64222207Y28587117D01*
X64302850Y28477850D01*
X64412117Y28397207D01*
X64412119Y28397206D01*
X64540299Y28352353D01*
X64570730Y28349500D01*
X64570734Y28349500D01*
X64864858Y28349500D01*
X64912310Y28340061D01*
X64933167Y28331421D01*
X64933177Y28331418D01*
X65068504Y28304500D01*
X65068506Y28304500D01*
X65206496Y28304500D01*
X65341822Y28331418D01*
X65341832Y28331421D01*
X65362690Y28340061D01*
X65410142Y28349500D01*
X65704270Y28349500D01*
X65734699Y28352353D01*
X65734701Y28352353D01*
X65862880Y28397206D01*
X65862882Y28397207D01*
X65972150Y28477850D01*
X66052793Y28587118D01*
X66069615Y28635192D01*
X66097646Y28715298D01*
X66097646Y28715300D01*
X66100500Y28745730D01*
X66100500Y28925981D01*
X66120185Y28993020D01*
X66136819Y29013662D01*
X66423838Y29300681D01*
X66450765Y29315384D01*
X66476584Y29331977D01*
X66482784Y29332868D01*
X66485161Y29334166D01*
X66511519Y29337000D01*
X66688420Y29337000D01*
X66755459Y29317315D01*
X66763345Y29311804D01*
X66890156Y29215639D01*
X67030938Y29160122D01*
X67079685Y29154269D01*
X67119398Y29149500D01*
X67568281Y29149500D01*
X67635320Y29129815D01*
X67655962Y29113181D01*
X68336881Y28432262D01*
X68370366Y28370939D01*
X68373200Y28344581D01*
X68373200Y27532519D01*
X68353515Y27465480D01*
X68336881Y27444838D01*
X67835662Y26943619D01*
X67774339Y26910134D01*
X67747981Y26907300D01*
X66224500Y26907300D01*
X66157461Y26926985D01*
X66111706Y26979789D01*
X66100500Y27031300D01*
X66100500Y27254269D01*
X66097646Y27284699D01*
X66097646Y27284701D01*
X66071623Y27359069D01*
X66052793Y27412882D01*
X65972150Y27522150D01*
X65862882Y27602793D01*
X65757382Y27639709D01*
X65734700Y27647646D01*
X65704270Y27650500D01*
X65704266Y27650500D01*
X65218489Y27650500D01*
X65216623Y27651000D01*
X65058377Y27651000D01*
X65056511Y27650500D01*
X64570734Y27650500D01*
X64570730Y27650500D01*
X64540300Y27647646D01*
X64540298Y27647646D01*
X64452431Y27616899D01*
X64412118Y27602793D01*
X64302850Y27522150D01*
X64227750Y27420392D01*
X64222207Y27412882D01*
X64222206Y27412880D01*
X64177353Y27284701D01*
X64177353Y27284699D01*
X64174500Y27254269D01*
X64174500Y26845730D01*
X64177353Y26815300D01*
X64177353Y26815298D01*
X64222206Y26687119D01*
X64222207Y26687117D01*
X64302850Y26577850D01*
X64412117Y26497207D01*
X64453456Y26482742D01*
X64510232Y26442019D01*
X64535978Y26377066D01*
X64536500Y26365701D01*
X64536500Y25452919D01*
X64516815Y25385880D01*
X64500181Y25365238D01*
X62750662Y23615719D01*
X62689339Y23582234D01*
X62662981Y23579400D01*
X60516919Y23579400D01*
X60449880Y23599085D01*
X60429238Y23615719D01*
X58684245Y25360712D01*
X58684243Y25360714D01*
X58569511Y25437375D01*
X58569508Y25437376D01*
X58569507Y25437377D01*
X58499984Y25466174D01*
X58442028Y25490180D01*
X58397740Y25498989D01*
X58306696Y25517100D01*
X58306694Y25517100D01*
X58306693Y25517100D01*
X54673094Y25517100D01*
X54535106Y25517100D01*
X54535104Y25517100D01*
X54444059Y25498989D01*
X54399772Y25490180D01*
X54357380Y25472621D01*
X54356941Y25472439D01*
X54309489Y25463000D01*
X53844398Y25463000D01*
X53755936Y25452377D01*
X53615158Y25396861D01*
X53615157Y25396860D01*
X53615156Y25396860D01*
X53494577Y25305422D01*
X53403139Y25184843D01*
X53347622Y25044061D01*
X53342626Y25002454D01*
X53337000Y24955602D01*
X53337000Y24955596D01*
X53337000Y24513700D01*
X53317315Y24446661D01*
X53264511Y24400906D01*
X53213000Y24389700D01*
X52441019Y24389700D01*
X52373980Y24409385D01*
X52353338Y24426019D01*
X50858729Y25920628D01*
X50825244Y25981951D01*
X50830228Y26051643D01*
X50872100Y26107576D01*
X50937564Y26131993D01*
X51002705Y26118794D01*
X51213803Y26011233D01*
X51438431Y25938246D01*
X51671703Y25901300D01*
X51671708Y25901300D01*
X51907897Y25901300D01*
X52141168Y25938246D01*
X52365796Y26011233D01*
X52576233Y26118457D01*
X52583559Y26123780D01*
X52767310Y26257283D01*
X52934317Y26424290D01*
X53073143Y26615367D01*
X53149187Y26764611D01*
X53180366Y26825803D01*
X53197763Y26879343D01*
X53241933Y27015284D01*
X53253353Y27050431D01*
X53290300Y27283702D01*
X53290300Y27519897D01*
X53253353Y27753168D01*
X53234703Y27810566D01*
X53180368Y27977792D01*
X53073143Y28188233D01*
X52934317Y28379310D01*
X52785673Y28527954D01*
X52752188Y28589277D01*
X52757172Y28658969D01*
X52785673Y28703316D01*
X53187819Y29105462D01*
X53249142Y29138947D01*
X53318834Y29133963D01*
X53374767Y29092091D01*
X53399184Y29026627D01*
X53399500Y29017781D01*
X53399500Y28361998D01*
X53402932Y28333416D01*
X53410122Y28273538D01*
X53465639Y28132756D01*
X53557077Y28012177D01*
X53677656Y27920739D01*
X53818438Y27865222D01*
X53867853Y27859288D01*
X53906898Y27854600D01*
X53906903Y27854600D01*
X55093097Y27854600D01*
X55093102Y27854600D01*
X55135926Y27859742D01*
X55181561Y27865222D01*
X55322343Y27920739D01*
X55442922Y28012177D01*
X55534361Y28132758D01*
X55534362Y28132760D01*
X55551450Y28176090D01*
X55594356Y28231234D01*
X55660264Y28254427D01*
X55666804Y28254600D01*
X59247630Y28254600D01*
X59314669Y28234915D01*
X59322542Y28229413D01*
X59352909Y28206385D01*
X59390158Y28178138D01*
X59530938Y28122622D01*
X59580353Y28116688D01*
X59619398Y28112000D01*
X59619403Y28112000D01*
X60655597Y28112000D01*
X60655602Y28112000D01*
X60698426Y28117142D01*
X60744061Y28122622D01*
X60764077Y28130515D01*
X60813994Y28150200D01*
X60884843Y28178139D01*
X61011655Y28274304D01*
X61076966Y28299127D01*
X61086580Y28299500D01*
X62577787Y28299500D01*
X62625240Y28290061D01*
X62658171Y28276420D01*
X62658177Y28276418D01*
X62793504Y28249500D01*
X62793506Y28249500D01*
X62931496Y28249500D01*
X63066823Y28276418D01*
X63066829Y28276420D01*
X63194313Y28329225D01*
X63199681Y28332095D01*
X63200376Y28330794D01*
X63260062Y28349480D01*
X63262270Y28349500D01*
X63429270Y28349500D01*
X63459699Y28352353D01*
X63459701Y28352353D01*
X63587880Y28397206D01*
X63587882Y28397207D01*
X63697150Y28477850D01*
X63777793Y28587118D01*
X63794615Y28635192D01*
X63822646Y28715298D01*
X63822646Y28715300D01*
X63825500Y28745730D01*
X63825500Y29154269D01*
X63822646Y29184699D01*
X63822646Y29184701D01*
X63796503Y29259411D01*
X63777793Y29312882D01*
X63697150Y29422150D01*
X63587882Y29502793D01*
X63494945Y29535313D01*
X63459700Y29547646D01*
X63429270Y29550500D01*
X63429266Y29550500D01*
X63287101Y29550500D01*
X63220062Y29570185D01*
X63218211Y29571397D01*
X63217789Y29571679D01*
X63144311Y29620775D01*
X63016828Y29673580D01*
X62972540Y29682389D01*
X62881496Y29700500D01*
X62881494Y29700500D01*
X62881493Y29700500D01*
X61086580Y29700500D01*
X61019541Y29720185D01*
X61011655Y29725696D01*
X60884843Y29821860D01*
X60884842Y29821861D01*
X60744064Y29877377D01*
X60655602Y29888000D01*
X59619398Y29888000D01*
X59530936Y29877377D01*
X59390158Y29821861D01*
X59390157Y29821860D01*
X59390156Y29821860D01*
X59269582Y29730425D01*
X59269577Y29730421D01*
X59250054Y29704675D01*
X59193862Y29663152D01*
X59151250Y29655600D01*
X55666804Y29655600D01*
X55599765Y29675285D01*
X55554010Y29728089D01*
X55551450Y29734110D01*
X55534362Y29777439D01*
X55534361Y29777441D01*
X55534361Y29777442D01*
X55442922Y29898022D01*
X55400984Y29929824D01*
X55359462Y29986014D01*
X55354909Y30055735D01*
X55388773Y30116849D01*
X55407020Y30131730D01*
X55434045Y30149787D01*
X58787212Y33502954D01*
X58863877Y33617692D01*
X58916678Y33745167D01*
X58916682Y33745178D01*
X58943600Y33880503D01*
X58943600Y34230597D01*
X59579500Y34230597D01*
X59579500Y33994402D01*
X59616446Y33761131D01*
X59689433Y33536503D01*
X59796657Y33326066D01*
X59869831Y33225352D01*
X59935483Y33134990D01*
X59935485Y33134988D01*
X59935485Y33134987D01*
X60102487Y32967985D01*
X60293566Y32829157D01*
X60504003Y32721933D01*
X60728631Y32648946D01*
X60961903Y32612000D01*
X60961908Y32612000D01*
X61198097Y32612000D01*
X61431368Y32648946D01*
X61655996Y32721933D01*
X61866433Y32829157D01*
X61911479Y32861885D01*
X62057510Y32967983D01*
X62224517Y33134990D01*
X62363343Y33326067D01*
X62429167Y33455254D01*
X62470566Y33536503D01*
X62471511Y33539409D01*
X62528098Y33713567D01*
X62543553Y33761131D01*
X62580500Y33994402D01*
X62580500Y34230597D01*
X62543553Y34463868D01*
X62516626Y34546740D01*
X62493441Y34618097D01*
X64999500Y34618097D01*
X64999500Y34381902D01*
X65036446Y34148631D01*
X65109433Y33924003D01*
X65216657Y33713566D01*
X65286314Y33617692D01*
X65355483Y33522490D01*
X65355485Y33522488D01*
X65355485Y33522487D01*
X65522487Y33355485D01*
X65713566Y33216657D01*
X65924003Y33109433D01*
X66148631Y33036446D01*
X66381903Y32999500D01*
X66381908Y32999500D01*
X66618097Y32999500D01*
X66851368Y33036446D01*
X67075996Y33109433D01*
X67286433Y33216657D01*
X67298399Y33225351D01*
X67477510Y33355483D01*
X67644517Y33522490D01*
X67783343Y33713567D01*
X67840843Y33826418D01*
X67890566Y33924003D01*
X67902101Y33959502D01*
X67950072Y34107142D01*
X67963553Y34148631D01*
X68000500Y34381902D01*
X68000500Y34618097D01*
X67963553Y34851368D01*
X67940695Y34921718D01*
X67890568Y35075992D01*
X67783343Y35286433D01*
X67644517Y35477510D01*
X67477510Y35644517D01*
X67286433Y35783343D01*
X67075992Y35890568D01*
X66851368Y35963553D01*
X66826694Y35967461D01*
X66618097Y36000500D01*
X66618092Y36000500D01*
X66381908Y36000500D01*
X66381903Y36000500D01*
X66148631Y35963553D01*
X66044412Y35929689D01*
X65924008Y35890568D01*
X65924005Y35890566D01*
X65924003Y35890566D01*
X65855968Y35855900D01*
X65713567Y35783343D01*
X65522490Y35644517D01*
X65355483Y35477510D01*
X65229922Y35304690D01*
X65216657Y35286433D01*
X65109433Y35075996D01*
X65036446Y34851368D01*
X64999500Y34618097D01*
X62493441Y34618097D01*
X62470568Y34688492D01*
X62363343Y34898933D01*
X62224517Y35090010D01*
X62057510Y35257017D01*
X61866433Y35395843D01*
X61655992Y35503068D01*
X61431368Y35576053D01*
X61198097Y35613000D01*
X61198092Y35613000D01*
X60961908Y35613000D01*
X60961903Y35613000D01*
X60728631Y35576053D01*
X60707728Y35569261D01*
X60504008Y35503068D01*
X60504005Y35503066D01*
X60504003Y35503066D01*
X60427668Y35464171D01*
X60293567Y35395843D01*
X60102490Y35257017D01*
X59935483Y35090010D01*
X59827947Y34942000D01*
X59796657Y34898933D01*
X59689433Y34688496D01*
X59616446Y34463868D01*
X59579500Y34230597D01*
X58943600Y34230597D01*
X58943600Y36191411D01*
X58963285Y36258450D01*
X59016089Y36304205D01*
X59085247Y36314149D01*
X59148803Y36285124D01*
X59155281Y36279092D01*
X59222487Y36211885D01*
X59413566Y36073057D01*
X59624003Y35965833D01*
X59848631Y35892846D01*
X60081903Y35855900D01*
X60081908Y35855900D01*
X60318097Y35855900D01*
X60551368Y35892846D01*
X60775996Y35965833D01*
X60986433Y36073057D01*
X61009622Y36089905D01*
X61177510Y36211883D01*
X61344517Y36378890D01*
X61483343Y36569967D01*
X61548626Y36698092D01*
X61590566Y36780403D01*
X61606289Y36828791D01*
X61663553Y37005032D01*
X61665685Y37018492D01*
X61700500Y37238302D01*
X61700500Y37474497D01*
X61663553Y37707768D01*
X61652954Y37740389D01*
X61590568Y37932392D01*
X61483343Y38142833D01*
X61344517Y38333910D01*
X61177510Y38500917D01*
X60986433Y38639743D01*
X60775992Y38746968D01*
X60551368Y38819953D01*
X60548211Y38820453D01*
X60318097Y38856900D01*
X60318092Y38856900D01*
X60081908Y38856900D01*
X60081903Y38856900D01*
X59848631Y38819953D01*
X59813897Y38808667D01*
X59624008Y38746968D01*
X59624005Y38746966D01*
X59624003Y38746966D01*
X59512991Y38690402D01*
X59413567Y38639743D01*
X59222490Y38500917D01*
X59222487Y38500914D01*
X59155281Y38433708D01*
X59093958Y38400223D01*
X59024266Y38405207D01*
X58968333Y38447079D01*
X58943916Y38512543D01*
X58943600Y38521389D01*
X58943600Y39101581D01*
X58963285Y39168620D01*
X58979919Y39189262D01*
X60103838Y40313181D01*
X60165161Y40346666D01*
X60191519Y40349500D01*
X60670481Y40349500D01*
X60670490Y40349501D01*
X60727114Y40355587D01*
X60855226Y40403372D01*
X60878929Y40421116D01*
X60964687Y40485313D01*
X61046628Y40594774D01*
X61094412Y40722886D01*
X61098167Y40757812D01*
X61100499Y40779498D01*
X61100499Y40779505D01*
X61100500Y40779515D01*
X61100499Y41220484D01*
X61094412Y41277114D01*
X61046628Y41405226D01*
X60964687Y41514687D01*
X60855226Y41596628D01*
X60727114Y41644412D01*
X60670485Y41650500D01*
X60084714Y41650499D01*
X60037262Y41659937D01*
X60004328Y41673580D01*
X59960040Y41682389D01*
X59868996Y41700500D01*
X59868994Y41700500D01*
X59731006Y41700500D01*
X59731004Y41700500D01*
X59620014Y41678422D01*
X59595672Y41673580D01*
X59562738Y41659938D01*
X59515285Y41650499D01*
X58929516Y41650499D01*
X58890025Y41646254D01*
X58872885Y41644412D01*
X58847445Y41634923D01*
X58744774Y41596628D01*
X58635313Y41514687D01*
X58608045Y41478261D01*
X58560317Y41414503D01*
X58553372Y41405226D01*
X58509341Y41287174D01*
X58505587Y41277110D01*
X58499500Y41220501D01*
X58499500Y40779518D01*
X58499501Y40779504D01*
X58501833Y40757812D01*
X58489425Y40689053D01*
X58466224Y40656881D01*
X57698988Y39889646D01*
X57698987Y39889645D01*
X57622322Y39774907D01*
X57569521Y39647432D01*
X57569518Y39647420D01*
X57545388Y39526112D01*
X57545389Y39526112D01*
X57545388Y39526107D01*
X57542600Y39512093D01*
X57542600Y39512089D01*
X57542600Y34291019D01*
X57522915Y34223980D01*
X57506281Y34203338D01*
X57212180Y33909237D01*
X57150857Y33875752D01*
X57081165Y33880736D01*
X57025232Y33922608D01*
X57000815Y33988072D01*
X57000499Y33996918D01*
X57000499Y35882556D01*
X57000499Y35882564D01*
X57000497Y35882582D01*
X56997586Y35907687D01*
X56997585Y35907688D01*
X56997585Y35907691D01*
X56952206Y36010465D01*
X56872765Y36089906D01*
X56769991Y36135285D01*
X56744865Y36138200D01*
X56539218Y36138199D01*
X56472181Y36157883D01*
X56426426Y36210687D01*
X56416482Y36279845D01*
X56445507Y36343401D01*
X56454134Y36351968D01*
X56454065Y36352038D01*
X56624514Y36522487D01*
X56624517Y36522490D01*
X56763343Y36713567D01*
X56837795Y36859687D01*
X56870566Y36924003D01*
X56943553Y37148631D01*
X56980500Y37381902D01*
X56980500Y37618097D01*
X56943553Y37851368D01*
X56939662Y37863343D01*
X56870568Y38075992D01*
X56763343Y38286433D01*
X56624517Y38477510D01*
X56457510Y38644517D01*
X56266433Y38783343D01*
X56055992Y38890568D01*
X55831368Y38963553D01*
X55806555Y38967483D01*
X55598097Y39000500D01*
X55598092Y39000500D01*
X55361908Y39000500D01*
X55361903Y39000500D01*
X55128631Y38963553D01*
X55097301Y38953373D01*
X54904008Y38890568D01*
X54904005Y38890566D01*
X54904003Y38890566D01*
X54813331Y38844366D01*
X54693567Y38783343D01*
X54502490Y38644517D01*
X54335483Y38477510D01*
X54210404Y38305354D01*
X54196657Y38286433D01*
X54089433Y38075996D01*
X54016446Y37851368D01*
X53979500Y37618097D01*
X53979500Y37381902D01*
X54016446Y37148631D01*
X54089433Y36924003D01*
X54196657Y36713566D01*
X54261650Y36624112D01*
X54335483Y36522490D01*
X54335485Y36522488D01*
X54335485Y36522487D01*
X54505935Y36352038D01*
X54504895Y36350998D01*
X54539504Y36297990D01*
X54540007Y36228122D01*
X54502656Y36169073D01*
X54439311Y36139591D01*
X54420781Y36138199D01*
X54255136Y36138199D01*
X54255121Y36138197D01*
X54255117Y36138197D01*
X54230012Y36135286D01*
X54230010Y36135285D01*
X54230009Y36135285D01*
X54150039Y36099975D01*
X54127235Y36089906D01*
X54047794Y36010465D01*
X54002415Y35907693D01*
X54002415Y35907691D01*
X53999500Y35882568D01*
X53999500Y33392843D01*
X53999502Y33392817D01*
X54002413Y33367712D01*
X54002415Y33367708D01*
X54047793Y33264935D01*
X54127234Y33185494D01*
X54230007Y33140115D01*
X54255131Y33137200D01*
X54255135Y33137200D01*
X56140781Y33137200D01*
X56207820Y33117515D01*
X56253575Y33064711D01*
X56263519Y32995553D01*
X56234494Y32931997D01*
X56228462Y32925519D01*
X54733662Y31430719D01*
X54672339Y31397234D01*
X54645981Y31394400D01*
X53716605Y31394400D01*
X53682651Y31387645D01*
X53611939Y31373580D01*
X53581271Y31367480D01*
X53538369Y31349709D01*
X53475341Y31323602D01*
X53453793Y31314677D01*
X53453791Y31314676D01*
X53453789Y31314675D01*
X53348189Y31244115D01*
X53348188Y31244115D01*
X53339144Y31238071D01*
X53339057Y31238013D01*
X53339054Y31238010D01*
X51245688Y29144646D01*
X51245687Y29144645D01*
X51169022Y29029907D01*
X51116221Y28902432D01*
X51116218Y28902420D01*
X51094328Y28792370D01*
X51094326Y28792357D01*
X51092583Y28783599D01*
X51060192Y28721692D01*
X51027263Y28697318D01*
X51003367Y28685143D01*
X50812290Y28546317D01*
X50645283Y28379310D01*
X50526121Y28215298D01*
X50506457Y28188233D01*
X50399233Y27977796D01*
X50326246Y27753168D01*
X50289300Y27519897D01*
X50289300Y27283702D01*
X50326246Y27050431D01*
X50399233Y26825803D01*
X50506794Y26614705D01*
X50519690Y26546036D01*
X50493414Y26481295D01*
X50436307Y26441038D01*
X50366502Y26438046D01*
X50308628Y26470729D01*
X49441745Y27337612D01*
X49441743Y27337614D01*
X49327011Y27414275D01*
X49327007Y27414276D01*
X49327005Y27414278D01*
X49321637Y27417148D01*
X49322901Y27419513D01*
X49277524Y27456012D01*
X49255398Y27522285D01*
X49272615Y27590001D01*
X49291634Y27614507D01*
X49394814Y27717687D01*
X49394817Y27717690D01*
X49533643Y27908767D01*
X49611316Y28061209D01*
X49640866Y28119203D01*
X49641978Y28122623D01*
X49683203Y28249500D01*
X49713853Y28343831D01*
X49750800Y28577102D01*
X49750800Y28813297D01*
X49732952Y28925981D01*
X49713853Y29046568D01*
X49665840Y29194333D01*
X49662155Y29256836D01*
X49682200Y29357606D01*
X49682200Y29495594D01*
X49682200Y32928911D01*
X49701885Y32995950D01*
X49754689Y33041705D01*
X49823847Y33051649D01*
X49887403Y33022624D01*
X49893881Y33016592D01*
X49942487Y32967985D01*
X50133566Y32829157D01*
X50344003Y32721933D01*
X50568631Y32648946D01*
X50801903Y32612000D01*
X50801908Y32612000D01*
X51038097Y32612000D01*
X51271368Y32648946D01*
X51495996Y32721933D01*
X51706433Y32829157D01*
X51751479Y32861885D01*
X51897510Y32967983D01*
X52064517Y33134990D01*
X52203343Y33326067D01*
X52269167Y33455254D01*
X52310566Y33536503D01*
X52311511Y33539409D01*
X52368098Y33713567D01*
X52383553Y33761131D01*
X52420500Y33994402D01*
X52420500Y34230597D01*
X52383553Y34463868D01*
X52356626Y34546740D01*
X52310568Y34688492D01*
X52203343Y34898933D01*
X52064517Y35090010D01*
X51897510Y35257017D01*
X51706433Y35395843D01*
X51495992Y35503068D01*
X51271368Y35576053D01*
X51038097Y35613000D01*
X51038092Y35613000D01*
X50801908Y35613000D01*
X50801903Y35613000D01*
X50568631Y35576053D01*
X50547728Y35569261D01*
X50344008Y35503068D01*
X50344005Y35503066D01*
X50344003Y35503066D01*
X50267668Y35464171D01*
X50133567Y35395843D01*
X49942490Y35257017D01*
X49775483Y35090010D01*
X49667947Y34942000D01*
X49653431Y34922020D01*
X49598101Y34879355D01*
X49528487Y34873376D01*
X49466692Y34905982D01*
X49465432Y34907225D01*
X48864719Y35507938D01*
X48831234Y35569261D01*
X48828400Y35595619D01*
X48828400Y36146611D01*
X48848085Y36213650D01*
X48900889Y36259405D01*
X48970047Y36269349D01*
X49033603Y36240324D01*
X49040081Y36234292D01*
X49062487Y36211885D01*
X49253566Y36073057D01*
X49464003Y35965833D01*
X49688631Y35892846D01*
X49921903Y35855900D01*
X49921908Y35855900D01*
X50158097Y35855900D01*
X50391368Y35892846D01*
X50615996Y35965833D01*
X50826433Y36073057D01*
X50849622Y36089905D01*
X51017510Y36211883D01*
X51184517Y36378890D01*
X51323343Y36569967D01*
X51388626Y36698092D01*
X51430566Y36780403D01*
X51446289Y36828791D01*
X51503553Y37005032D01*
X51505685Y37018492D01*
X51540500Y37238302D01*
X51540500Y37474497D01*
X51503553Y37707768D01*
X51492954Y37740389D01*
X51441364Y37899162D01*
X51439370Y37968999D01*
X51471615Y38025158D01*
X56939538Y43493081D01*
X56941518Y43494162D01*
X69699500Y43494162D01*
X69699500Y43265837D01*
X69735215Y43040339D01*
X69805770Y42823196D01*
X69909421Y42619771D01*
X70043622Y42435061D01*
X70205061Y42273622D01*
X70389771Y42139421D01*
X70593196Y42035770D01*
X70810339Y41965215D01*
X71035838Y41929500D01*
X71035843Y41929500D01*
X71264162Y41929500D01*
X71489660Y41965215D01*
X71706803Y42035770D01*
X71910228Y42139421D01*
X72008762Y42211011D01*
X72094937Y42273621D01*
X72256379Y42435063D01*
X72390579Y42619772D01*
X72446501Y42729525D01*
X72494229Y42823196D01*
X72496603Y42830500D01*
X72540834Y42966630D01*
X72564784Y43040339D01*
X72600500Y43265837D01*
X72600500Y43494162D01*
X72564784Y43719660D01*
X72544089Y43783353D01*
X72494231Y43936799D01*
X72390579Y44140228D01*
X72256379Y44324937D01*
X72094937Y44486379D01*
X71910228Y44620579D01*
X71706799Y44724231D01*
X71489660Y44794784D01*
X71264162Y44830500D01*
X71264157Y44830500D01*
X71035843Y44830500D01*
X71035838Y44830500D01*
X70810339Y44794784D01*
X70742397Y44772708D01*
X70593201Y44724231D01*
X70593198Y44724229D01*
X70593196Y44724229D01*
X70485884Y44669550D01*
X70389772Y44620579D01*
X70205063Y44486379D01*
X70205061Y44486377D01*
X70043622Y44324938D01*
X69909421Y44140228D01*
X69805770Y43936803D01*
X69735215Y43719660D01*
X69699500Y43494162D01*
X56941518Y43494162D01*
X57000861Y43526566D01*
X57027219Y43529400D01*
X61928196Y43529400D01*
X62063522Y43556318D01*
X62063532Y43556321D01*
X62191007Y43609122D01*
X62305745Y43685787D01*
X63657312Y45037354D01*
X63733977Y45152092D01*
X63786778Y45279567D01*
X63786781Y45279577D01*
X63813700Y45414903D01*
X63813700Y50084995D01*
X63794157Y50183243D01*
X63786780Y50220328D01*
X63733975Y50347811D01*
X63732830Y50349524D01*
X63703092Y50394031D01*
X63703091Y50394033D01*
X63657315Y50462541D01*
X63657314Y50462543D01*
X58397211Y55722646D01*
X57424574Y56695283D01*
X57341760Y56778097D01*
X66724500Y56778097D01*
X66724500Y56541902D01*
X66761446Y56308631D01*
X66834433Y56084003D01*
X66941657Y55873566D01*
X66972966Y55830474D01*
X67080483Y55682490D01*
X67080485Y55682488D01*
X67080485Y55682487D01*
X67247487Y55515485D01*
X67438566Y55376657D01*
X67649003Y55269433D01*
X67873631Y55196446D01*
X68106903Y55159500D01*
X68106908Y55159500D01*
X68343097Y55159500D01*
X68576368Y55196446D01*
X68800996Y55269433D01*
X69011433Y55376657D01*
X69029798Y55390000D01*
X69202510Y55515483D01*
X69369517Y55682490D01*
X69508343Y55873567D01*
X69559002Y55972991D01*
X69615566Y56084003D01*
X69616005Y56085352D01*
X69688550Y56308623D01*
X69688553Y56308631D01*
X69725500Y56541902D01*
X69725500Y56778097D01*
X69688553Y57011368D01*
X69615568Y57235992D01*
X69508343Y57446433D01*
X69369517Y57637510D01*
X69202510Y57804517D01*
X69011433Y57943343D01*
X68808719Y58046630D01*
X68800996Y58050566D01*
X68800995Y58050566D01*
X68800992Y58050568D01*
X68576368Y58123553D01*
X68343097Y58160500D01*
X68343092Y58160500D01*
X68106908Y58160500D01*
X68106903Y58160500D01*
X67873631Y58123553D01*
X67770752Y58090125D01*
X67649008Y58050568D01*
X67649005Y58050566D01*
X67649003Y58050566D01*
X67550071Y58000157D01*
X67438567Y57943343D01*
X67247490Y57804517D01*
X67080483Y57637510D01*
X66941657Y57446433D01*
X66834433Y57235996D01*
X66761446Y57011368D01*
X66724500Y56778097D01*
X57341760Y56778097D01*
X53432037Y60687819D01*
X53398552Y60749142D01*
X53403536Y60818834D01*
X53445408Y60874767D01*
X53510872Y60899184D01*
X53519718Y60899500D01*
X53698422Y60899500D01*
X53892826Y60930290D01*
X54080029Y60991117D01*
X54255405Y61080476D01*
X54259381Y61083365D01*
X54414646Y61196172D01*
X54553828Y61335354D01*
X54669524Y61494595D01*
X54754051Y61660489D01*
X54759515Y61671213D01*
X54807489Y61722009D01*
X54875310Y61738804D01*
X54941445Y61716267D01*
X54980485Y61671213D01*
X55070476Y61494594D01*
X55103588Y61449020D01*
X55186172Y61335354D01*
X55186174Y61335352D01*
X55186174Y61335351D01*
X55325351Y61196174D01*
X55484594Y61080476D01*
X55659970Y60991117D01*
X55847173Y60930290D01*
X56041578Y60899500D01*
X56236280Y60899500D01*
X56303319Y60879815D01*
X56323961Y60863181D01*
X56582261Y60604882D01*
X57339886Y59847258D01*
X57388673Y59798471D01*
X57437459Y59749684D01*
X57552182Y59673028D01*
X57552195Y59673021D01*
X57621469Y59644328D01*
X57621470Y59644328D01*
X57679668Y59620221D01*
X57679675Y59620219D01*
X57704354Y59615310D01*
X57704353Y59615309D01*
X57815002Y59593300D01*
X57815007Y59593300D01*
X72065396Y59593300D01*
X72200722Y59620218D01*
X72200732Y59620221D01*
X72328207Y59673022D01*
X72442945Y59749687D01*
X72442946Y59749688D01*
X75827606Y63134349D01*
X75827612Y63134356D01*
X75834111Y63144081D01*
X75904271Y63249082D01*
X75904276Y63249091D01*
X75931069Y63313776D01*
X75950514Y63360720D01*
X75957080Y63376571D01*
X75965852Y63420672D01*
X75976214Y63472765D01*
X75984000Y63511904D01*
X75984000Y63755081D01*
X76003685Y63822120D01*
X76020319Y63842762D01*
X76651338Y64473781D01*
X76712661Y64507266D01*
X76739019Y64510100D01*
X77631481Y64510100D01*
X77698520Y64490415D01*
G37*
G04 #@! TD.AperFunction*
G04 #@! TA.AperFunction,Conductor*
G36*
X17227290Y63314115D02*
G01*
X17273045Y63261311D01*
X17282989Y63192153D01*
X17253964Y63128597D01*
X17233136Y63109482D01*
X17225354Y63103828D01*
X17086172Y62964646D01*
X17017542Y62870185D01*
X16970476Y62805405D01*
X16881117Y62630029D01*
X16820290Y62442826D01*
X16789500Y62248422D01*
X16789500Y62051577D01*
X16820290Y61857173D01*
X16881117Y61669970D01*
X16970476Y61494594D01*
X17003588Y61449020D01*
X17086172Y61335354D01*
X17086174Y61335352D01*
X17086174Y61335351D01*
X17225351Y61196174D01*
X17384594Y61080476D01*
X17559970Y60991117D01*
X17747173Y60930290D01*
X17941578Y60899500D01*
X17941583Y60899500D01*
X18138422Y60899500D01*
X18332826Y60930290D01*
X18520029Y60991117D01*
X18695405Y61080476D01*
X18699381Y61083365D01*
X18854646Y61196172D01*
X18993828Y61335354D01*
X19109524Y61494595D01*
X19194051Y61660489D01*
X19199515Y61671213D01*
X19247489Y61722009D01*
X19315310Y61738804D01*
X19381445Y61716267D01*
X19420485Y61671213D01*
X19510476Y61494594D01*
X19543588Y61449020D01*
X19626172Y61335354D01*
X19626174Y61335352D01*
X19626174Y61335351D01*
X19765354Y61196171D01*
X19828387Y61150375D01*
X19871052Y61095045D01*
X19879500Y61050058D01*
X19879500Y60261519D01*
X19859815Y60194480D01*
X19843181Y60173838D01*
X10933281Y51263938D01*
X10871958Y51230453D01*
X10802266Y51235437D01*
X10746333Y51277309D01*
X10721916Y51342773D01*
X10721600Y51351619D01*
X10721600Y54233181D01*
X10741285Y54300220D01*
X10757919Y54320862D01*
X14233075Y57796018D01*
X14294398Y57829503D01*
X14359070Y57826269D01*
X14378528Y57819947D01*
X14611803Y57783000D01*
X14611808Y57783000D01*
X14847997Y57783000D01*
X15081268Y57819946D01*
X15305896Y57892933D01*
X15516333Y58000157D01*
X15548719Y58023687D01*
X15707410Y58138983D01*
X15874417Y58305990D01*
X16013243Y58497067D01*
X16091081Y58649832D01*
X16120466Y58707503D01*
X16193453Y58932131D01*
X16230400Y59165402D01*
X16230400Y59401597D01*
X16193453Y59634868D01*
X16170817Y59704534D01*
X16120468Y59859492D01*
X16013243Y60069933D01*
X15874417Y60261010D01*
X15707410Y60428017D01*
X15516333Y60566843D01*
X15305892Y60674068D01*
X15081268Y60747053D01*
X14847997Y60784000D01*
X14847992Y60784000D01*
X14611808Y60784000D01*
X14611803Y60784000D01*
X14378531Y60747053D01*
X14274312Y60713189D01*
X14153908Y60674068D01*
X14153905Y60674066D01*
X14153903Y60674066D01*
X14091375Y60642206D01*
X13943467Y60566843D01*
X13752390Y60428017D01*
X13585383Y60261010D01*
X13446557Y60069933D01*
X13339333Y59859496D01*
X13266346Y59634868D01*
X13229400Y59401597D01*
X13229400Y59165402D01*
X13266347Y58932128D01*
X13266347Y58932127D01*
X13272669Y58912670D01*
X13274662Y58842829D01*
X13242418Y58786675D01*
X9476988Y55021246D01*
X9476987Y55021245D01*
X9400322Y54906507D01*
X9347521Y54779032D01*
X9347518Y54779020D01*
X9322417Y54652831D01*
X9322418Y54652831D01*
X9322417Y54652826D01*
X9320600Y54643693D01*
X9320600Y54643690D01*
X9320600Y44926503D01*
X9320599Y44926503D01*
X9347518Y44791177D01*
X9347521Y44791167D01*
X9400322Y44663692D01*
X9476987Y44548954D01*
X9476988Y44548953D01*
X11894381Y42131561D01*
X11927866Y42070238D01*
X11930700Y42043880D01*
X11930700Y34735519D01*
X11911015Y34668480D01*
X11894381Y34647838D01*
X11167071Y33920528D01*
X11105748Y33887043D01*
X11047890Y33889942D01*
X11047561Y33888572D01*
X11042837Y33889705D01*
X11042826Y33889709D01*
X10950278Y33904367D01*
X10848422Y33920500D01*
X10848417Y33920500D01*
X10651583Y33920500D01*
X10651578Y33920500D01*
X10457173Y33889709D01*
X10370317Y33861487D01*
X10269975Y33828884D01*
X10269972Y33828882D01*
X10269970Y33828882D01*
X10212305Y33799500D01*
X10094595Y33739524D01*
X9935354Y33623828D01*
X9796172Y33484646D01*
X9721226Y33381492D01*
X9680474Y33325403D01*
X9590485Y33148787D01*
X9542511Y33097990D01*
X9474690Y33081195D01*
X9408555Y33103732D01*
X9369515Y33148787D01*
X9279525Y33325403D01*
X9279524Y33325405D01*
X9163828Y33484646D01*
X9024646Y33623828D01*
X8871378Y33735184D01*
X8828714Y33790512D01*
X8822735Y33860125D01*
X8855341Y33921920D01*
X8916179Y33956277D01*
X8944265Y33959500D01*
X9204856Y33959500D01*
X9204882Y33959502D01*
X9229987Y33962413D01*
X9229991Y33962415D01*
X9332764Y34007793D01*
X9412205Y34087234D01*
X9412206Y34087235D01*
X9442567Y34155996D01*
X9457584Y34190006D01*
X9457585Y34190009D01*
X9460500Y34215135D01*
X9460499Y36204864D01*
X9459480Y36213650D01*
X9457586Y36229987D01*
X9457585Y36229988D01*
X9457585Y36229991D01*
X9412206Y36332765D01*
X9332765Y36412206D01*
X9229991Y36457585D01*
X9204865Y36460500D01*
X7215136Y36460499D01*
X7215122Y36460497D01*
X7215117Y36460497D01*
X7190012Y36457586D01*
X7190010Y36457585D01*
X7190009Y36457585D01*
X7087235Y36412206D01*
X7007794Y36332765D01*
X6962415Y36229993D01*
X6962415Y36229991D01*
X6959500Y36204868D01*
X6959500Y36034500D01*
X6939815Y35967461D01*
X6887011Y35921706D01*
X6835500Y35910500D01*
X6241005Y35910500D01*
X6105677Y35883581D01*
X6105672Y35883580D01*
X6105667Y35883578D01*
X6076452Y35871477D01*
X6006983Y35864008D01*
X5944504Y35895283D01*
X5908852Y35955372D01*
X5905000Y35986038D01*
X5905000Y46878422D01*
X6549500Y46878422D01*
X6549500Y46681577D01*
X6580290Y46487173D01*
X6641117Y46299970D01*
X6730476Y46124594D01*
X6796485Y46033741D01*
X6846172Y45965354D01*
X6846174Y45965352D01*
X6846174Y45965351D01*
X6985351Y45826174D01*
X7144594Y45710476D01*
X7281960Y45640485D01*
X7332756Y45592510D01*
X7349551Y45524689D01*
X7327014Y45458554D01*
X7281960Y45419515D01*
X7240824Y45398555D01*
X7144595Y45349524D01*
X6985354Y45233828D01*
X6846172Y45094646D01*
X6753227Y44966719D01*
X6730476Y44935405D01*
X6641117Y44760029D01*
X6580290Y44572826D01*
X6549500Y44378422D01*
X6549500Y44181577D01*
X6580290Y43987173D01*
X6641117Y43799970D01*
X6730476Y43624594D01*
X6788600Y43544595D01*
X6846172Y43465354D01*
X6846174Y43465352D01*
X6846174Y43465351D01*
X6985351Y43326174D01*
X7144594Y43210476D01*
X7319970Y43121117D01*
X7507173Y43060290D01*
X7556533Y43052473D01*
X7619668Y43022544D01*
X7656599Y42963232D01*
X7655601Y42893369D01*
X7616991Y42835137D01*
X7556533Y42807527D01*
X7507173Y42799709D01*
X7453727Y42782343D01*
X7319975Y42738884D01*
X7319972Y42738882D01*
X7319970Y42738882D01*
X7230006Y42693043D01*
X7144595Y42649524D01*
X6985354Y42533828D01*
X6846172Y42394646D01*
X6733394Y42239421D01*
X6730476Y42235405D01*
X6641117Y42060029D01*
X6580290Y41872826D01*
X6549500Y41678422D01*
X6549500Y41481577D01*
X6580290Y41287173D01*
X6641117Y41099970D01*
X6730476Y40924594D01*
X6764008Y40878442D01*
X6846172Y40765354D01*
X6846174Y40765352D01*
X6846174Y40765351D01*
X6985351Y40626174D01*
X7144594Y40510476D01*
X7319970Y40421117D01*
X7507173Y40360290D01*
X7556533Y40352473D01*
X7619668Y40322544D01*
X7656599Y40263232D01*
X7655601Y40193369D01*
X7616991Y40135137D01*
X7556533Y40107527D01*
X7507173Y40099709D01*
X7491976Y40094771D01*
X7319975Y40038884D01*
X7319972Y40038882D01*
X7319970Y40038882D01*
X7281211Y40019133D01*
X7144595Y39949524D01*
X6985354Y39833828D01*
X6846172Y39694646D01*
X6768689Y39588000D01*
X6730476Y39535405D01*
X6641117Y39360029D01*
X6580290Y39172826D01*
X6549500Y38978422D01*
X6549500Y38781577D01*
X6580290Y38587173D01*
X6641117Y38399970D01*
X6730476Y38224594D01*
X6783188Y38152043D01*
X6846172Y38065354D01*
X6846174Y38065352D01*
X6846174Y38065351D01*
X6985351Y37926174D01*
X7144594Y37810476D01*
X7319970Y37721117D01*
X7507173Y37660290D01*
X7701578Y37629500D01*
X7701583Y37629500D01*
X7898422Y37629500D01*
X8092826Y37660290D01*
X8280029Y37721117D01*
X8455405Y37810476D01*
X8455686Y37810680D01*
X8614646Y37926172D01*
X8753828Y38065354D01*
X8869524Y38224595D01*
X8921799Y38327191D01*
X8958882Y38399970D01*
X8958965Y38400223D01*
X9001471Y38531043D01*
X9019709Y38587173D01*
X9050500Y38781577D01*
X9050500Y38978422D01*
X9019709Y39172826D01*
X9014369Y39189262D01*
X8958884Y39360025D01*
X8869524Y39535405D01*
X8753828Y39694646D01*
X8614646Y39833828D01*
X8455405Y39949524D01*
X8280025Y40038884D01*
X8092826Y40099709D01*
X8043466Y40107527D01*
X7980331Y40137456D01*
X7943400Y40196768D01*
X7944398Y40266630D01*
X7983008Y40324863D01*
X8043466Y40352473D01*
X8092826Y40360290D01*
X8280029Y40421117D01*
X8455405Y40510476D01*
X8614646Y40626172D01*
X8753828Y40765354D01*
X8869524Y40924595D01*
X8915428Y41014687D01*
X8958882Y41099970D01*
X8973323Y41144412D01*
X9014862Y41272256D01*
X9019709Y41287173D01*
X9050500Y41481577D01*
X9050500Y41678422D01*
X9019709Y41872826D01*
X8993715Y41952826D01*
X8958884Y42060025D01*
X8869524Y42235405D01*
X8753828Y42394646D01*
X8614646Y42533828D01*
X8455405Y42649524D01*
X8280025Y42738884D01*
X8092826Y42799709D01*
X8089297Y42800268D01*
X8043466Y42807527D01*
X7980331Y42837456D01*
X7943400Y42896768D01*
X7944398Y42966630D01*
X7983008Y43024863D01*
X8043466Y43052473D01*
X8092826Y43060290D01*
X8280029Y43121117D01*
X8455405Y43210476D01*
X8504536Y43246172D01*
X8614646Y43326172D01*
X8753828Y43465354D01*
X8869524Y43624595D01*
X8950418Y43783359D01*
X8958882Y43799970D01*
X8967337Y43825989D01*
X9003341Y43936799D01*
X9019709Y43987173D01*
X9050500Y44181577D01*
X9050500Y44378422D01*
X9019709Y44572826D01*
X9004193Y44620579D01*
X8958884Y44760025D01*
X8869524Y44935405D01*
X8753828Y45094646D01*
X8614646Y45233828D01*
X8455405Y45349524D01*
X8318038Y45419515D01*
X8267243Y45467489D01*
X8250448Y45535310D01*
X8272985Y45601445D01*
X8318039Y45640485D01*
X8423821Y45694383D01*
X8455405Y45710476D01*
X8614646Y45826172D01*
X8753828Y45965354D01*
X8869524Y46124595D01*
X8925290Y46234042D01*
X8958882Y46299970D01*
X9019709Y46487173D01*
X9050500Y46681577D01*
X9050500Y46878422D01*
X9019709Y47072826D01*
X9002721Y47125108D01*
X8958884Y47260025D01*
X8869524Y47435405D01*
X8753828Y47594646D01*
X8614646Y47733828D01*
X8455405Y47849524D01*
X8280025Y47938884D01*
X8092826Y47999709D01*
X8087832Y48000500D01*
X7898422Y48030500D01*
X7898417Y48030500D01*
X7701583Y48030500D01*
X7701578Y48030500D01*
X7507173Y47999709D01*
X7420317Y47971487D01*
X7319975Y47938884D01*
X7319972Y47938882D01*
X7319970Y47938882D01*
X7242708Y47899515D01*
X7144595Y47849524D01*
X6985354Y47733828D01*
X6846172Y47594646D01*
X6730476Y47435405D01*
X6641117Y47260029D01*
X6580290Y47072826D01*
X6549500Y46878422D01*
X5905000Y46878422D01*
X5905000Y56712181D01*
X5924685Y56779220D01*
X5941319Y56799862D01*
X11499795Y62358338D01*
X11561118Y62391823D01*
X11630810Y62386839D01*
X11686743Y62344967D01*
X11711160Y62279503D01*
X11709950Y62251263D01*
X11709500Y62248421D01*
X11709500Y62051577D01*
X11740290Y61857173D01*
X11801117Y61669970D01*
X11890476Y61494594D01*
X11923588Y61449020D01*
X12006172Y61335354D01*
X12006174Y61335352D01*
X12006174Y61335351D01*
X12145351Y61196174D01*
X12304594Y61080476D01*
X12479970Y60991117D01*
X12667173Y60930290D01*
X12861578Y60899500D01*
X12861583Y60899500D01*
X13058422Y60899500D01*
X13252826Y60930290D01*
X13440029Y60991117D01*
X13615405Y61080476D01*
X13619381Y61083365D01*
X13774646Y61196172D01*
X13913828Y61335354D01*
X14029524Y61494595D01*
X14113122Y61658666D01*
X14118882Y61669970D01*
X14130448Y61705564D01*
X14163894Y61808501D01*
X14179709Y61857173D01*
X14210500Y62051577D01*
X14210500Y62248422D01*
X14179709Y62442826D01*
X14152823Y62525572D01*
X14118884Y62630025D01*
X14029524Y62805405D01*
X13913828Y62964646D01*
X13774646Y63103828D01*
X13766864Y63109482D01*
X13724198Y63164812D01*
X13718219Y63234425D01*
X13750825Y63296220D01*
X13811664Y63330578D01*
X13839749Y63333800D01*
X17160251Y63333800D01*
X17227290Y63314115D01*
G37*
G04 #@! TD.AperFunction*
G04 #@! TA.AperFunction,Conductor*
G36*
X49807227Y61734742D02*
G01*
X49819807Y61735282D01*
X49839672Y61723686D01*
X49861445Y61716267D01*
X49870719Y61705564D01*
X49880149Y61700060D01*
X49900485Y61671213D01*
X49990476Y61494594D01*
X50023588Y61449020D01*
X50106172Y61335354D01*
X50106174Y61335352D01*
X50106174Y61335351D01*
X50245351Y61196174D01*
X50404594Y61080476D01*
X50579970Y60991117D01*
X50767173Y60930290D01*
X50961578Y60899500D01*
X50961583Y60899500D01*
X51158420Y60899500D01*
X51165619Y60900640D01*
X51234912Y60891683D01*
X51272694Y60865847D01*
X62376381Y49762161D01*
X62409866Y49700838D01*
X62412700Y49674480D01*
X62412700Y45825419D01*
X62393015Y45758380D01*
X62376381Y45737738D01*
X61605362Y44966719D01*
X61544039Y44933234D01*
X61517681Y44930400D01*
X56616704Y44930400D01*
X56481377Y44903481D01*
X56481372Y44903480D01*
X56481367Y44903478D01*
X56353892Y44850677D01*
X56239154Y44774012D01*
X56239153Y44774011D01*
X50344301Y38879158D01*
X50282978Y38845673D01*
X50237226Y38844366D01*
X50158092Y38856900D01*
X49921908Y38856900D01*
X49921903Y38856900D01*
X49868300Y38848410D01*
X49799007Y38857364D01*
X49745555Y38902360D01*
X49724915Y38969112D01*
X49743640Y39036426D01*
X49761221Y39058564D01*
X56362248Y45659591D01*
X56423571Y45693076D01*
X56430529Y45694383D01*
X56467824Y45700290D01*
X56583075Y45737738D01*
X56655025Y45761116D01*
X56704201Y45786172D01*
X56830405Y45850476D01*
X56850457Y45865045D01*
X56989646Y45966172D01*
X57128828Y46105354D01*
X57244524Y46264595D01*
X57304298Y46381908D01*
X57333882Y46439970D01*
X57336223Y46447173D01*
X57394709Y46627174D01*
X57396991Y46641583D01*
X57425500Y46821577D01*
X57425500Y47018422D01*
X57394709Y47212826D01*
X57356248Y47331195D01*
X57333884Y47400025D01*
X57244524Y47575405D01*
X57128828Y47734646D01*
X56989646Y47873828D01*
X56830405Y47989524D01*
X56655025Y48078884D01*
X56467826Y48139709D01*
X56273422Y48170500D01*
X56273417Y48170500D01*
X56076583Y48170500D01*
X56076578Y48170500D01*
X55882173Y48139709D01*
X55824951Y48121116D01*
X55694975Y48078884D01*
X55694972Y48078882D01*
X55694970Y48078882D01*
X55602455Y48031743D01*
X55519595Y47989524D01*
X55360354Y47873828D01*
X55221172Y47734646D01*
X55191514Y47693825D01*
X55105474Y47575403D01*
X55015485Y47398787D01*
X54967511Y47347990D01*
X54899690Y47331195D01*
X54833555Y47353732D01*
X54794515Y47398787D01*
X54704525Y47575403D01*
X54704524Y47575405D01*
X54588828Y47734646D01*
X54449646Y47873828D01*
X54290405Y47989524D01*
X54115025Y48078884D01*
X53927826Y48139709D01*
X53733422Y48170500D01*
X53733417Y48170500D01*
X53536583Y48170500D01*
X53536578Y48170500D01*
X53342173Y48139709D01*
X53284951Y48121116D01*
X53154975Y48078884D01*
X53154972Y48078882D01*
X53154970Y48078882D01*
X53062455Y48031743D01*
X52979595Y47989524D01*
X52820354Y47873828D01*
X52681172Y47734646D01*
X52651514Y47693825D01*
X52565474Y47575403D01*
X52475485Y47398787D01*
X52427511Y47347990D01*
X52359690Y47331195D01*
X52293555Y47353732D01*
X52254515Y47398787D01*
X52164525Y47575403D01*
X52164524Y47575405D01*
X52048828Y47734646D01*
X51909646Y47873828D01*
X51750405Y47989524D01*
X51575025Y48078884D01*
X51387826Y48139709D01*
X51193422Y48170500D01*
X51193417Y48170500D01*
X50996583Y48170500D01*
X50996578Y48170500D01*
X50802173Y48139709D01*
X50744951Y48121116D01*
X50614975Y48078884D01*
X50614972Y48078882D01*
X50614970Y48078882D01*
X50522455Y48031743D01*
X50439595Y47989524D01*
X50280354Y47873828D01*
X50141172Y47734646D01*
X50111514Y47693825D01*
X50025474Y47575403D01*
X49935485Y47398787D01*
X49887511Y47347990D01*
X49819690Y47331195D01*
X49753555Y47353732D01*
X49714515Y47398787D01*
X49624525Y47575403D01*
X49624524Y47575405D01*
X49508828Y47734646D01*
X49369646Y47873828D01*
X49210405Y47989524D01*
X49035025Y48078884D01*
X48847826Y48139709D01*
X48653422Y48170500D01*
X48653417Y48170500D01*
X48456583Y48170500D01*
X48456578Y48170500D01*
X48262173Y48139709D01*
X48204951Y48121116D01*
X48074975Y48078884D01*
X48074972Y48078882D01*
X48074970Y48078882D01*
X47982455Y48031743D01*
X47899595Y47989524D01*
X47740354Y47873828D01*
X47601172Y47734646D01*
X47571514Y47693825D01*
X47485474Y47575403D01*
X47395485Y47398787D01*
X47347511Y47347990D01*
X47279690Y47331195D01*
X47213555Y47353732D01*
X47174515Y47398787D01*
X47084525Y47575403D01*
X47084524Y47575405D01*
X46968828Y47734646D01*
X46829646Y47873828D01*
X46670405Y47989524D01*
X46495025Y48078884D01*
X46307826Y48139709D01*
X46113422Y48170500D01*
X46113417Y48170500D01*
X45916583Y48170500D01*
X45916578Y48170500D01*
X45722173Y48139709D01*
X45664951Y48121116D01*
X45534975Y48078884D01*
X45534972Y48078882D01*
X45534970Y48078882D01*
X45442455Y48031743D01*
X45359595Y47989524D01*
X45200354Y47873828D01*
X45061172Y47734646D01*
X45031514Y47693825D01*
X44945474Y47575403D01*
X44855485Y47398787D01*
X44807511Y47347990D01*
X44739690Y47331195D01*
X44673555Y47353732D01*
X44634515Y47398787D01*
X44544525Y47575403D01*
X44544524Y47575405D01*
X44428828Y47734646D01*
X44289646Y47873828D01*
X44130405Y47989524D01*
X43955025Y48078884D01*
X43767826Y48139709D01*
X43573422Y48170500D01*
X43573417Y48170500D01*
X43376583Y48170500D01*
X43376578Y48170500D01*
X43182173Y48139709D01*
X43124951Y48121116D01*
X42994975Y48078884D01*
X42994972Y48078882D01*
X42994970Y48078882D01*
X42902455Y48031743D01*
X42819595Y47989524D01*
X42660354Y47873828D01*
X42521172Y47734646D01*
X42491514Y47693825D01*
X42405474Y47575403D01*
X42315485Y47398787D01*
X42267511Y47347990D01*
X42199690Y47331195D01*
X42133555Y47353732D01*
X42094515Y47398787D01*
X42004525Y47575403D01*
X42004524Y47575405D01*
X41888828Y47734646D01*
X41749646Y47873828D01*
X41590405Y47989524D01*
X41415025Y48078884D01*
X41227826Y48139709D01*
X41033422Y48170500D01*
X41033417Y48170500D01*
X40836583Y48170500D01*
X40836578Y48170500D01*
X40642173Y48139709D01*
X40584951Y48121116D01*
X40454975Y48078884D01*
X40454972Y48078882D01*
X40454970Y48078882D01*
X40362455Y48031743D01*
X40279595Y47989524D01*
X40120354Y47873828D01*
X39981172Y47734646D01*
X39951514Y47693825D01*
X39865474Y47575403D01*
X39775485Y47398787D01*
X39727511Y47347990D01*
X39659690Y47331195D01*
X39593555Y47353732D01*
X39554515Y47398787D01*
X39464525Y47575403D01*
X39464524Y47575405D01*
X39348828Y47734646D01*
X39209646Y47873828D01*
X39050405Y47989524D01*
X38875025Y48078884D01*
X38687826Y48139709D01*
X38493422Y48170500D01*
X38493417Y48170500D01*
X38296583Y48170500D01*
X38296578Y48170500D01*
X38102173Y48139709D01*
X38044951Y48121116D01*
X37914975Y48078884D01*
X37914972Y48078882D01*
X37914970Y48078882D01*
X37822455Y48031743D01*
X37739595Y47989524D01*
X37580354Y47873828D01*
X37441172Y47734646D01*
X37411514Y47693825D01*
X37325474Y47575403D01*
X37235485Y47398787D01*
X37187511Y47347990D01*
X37119690Y47331195D01*
X37053555Y47353732D01*
X37014515Y47398787D01*
X36924525Y47575403D01*
X36924524Y47575405D01*
X36808828Y47734646D01*
X36669646Y47873828D01*
X36510405Y47989524D01*
X36335025Y48078884D01*
X36147826Y48139709D01*
X35953422Y48170500D01*
X35953417Y48170500D01*
X35756583Y48170500D01*
X35756578Y48170500D01*
X35562173Y48139709D01*
X35504951Y48121116D01*
X35374975Y48078884D01*
X35374972Y48078882D01*
X35374970Y48078882D01*
X35282455Y48031743D01*
X35199595Y47989524D01*
X35040354Y47873828D01*
X34901172Y47734646D01*
X34871514Y47693825D01*
X34785474Y47575403D01*
X34695485Y47398787D01*
X34647511Y47347990D01*
X34579690Y47331195D01*
X34513555Y47353732D01*
X34474515Y47398787D01*
X34384525Y47575403D01*
X34384524Y47575405D01*
X34268828Y47734646D01*
X34129646Y47873828D01*
X33970405Y47989524D01*
X33795025Y48078884D01*
X33607826Y48139709D01*
X33413422Y48170500D01*
X33413417Y48170500D01*
X33216583Y48170500D01*
X33216578Y48170500D01*
X33022173Y48139709D01*
X32964951Y48121116D01*
X32834975Y48078884D01*
X32834972Y48078882D01*
X32834970Y48078882D01*
X32742455Y48031743D01*
X32659595Y47989524D01*
X32500354Y47873828D01*
X32361172Y47734646D01*
X32331514Y47693825D01*
X32245474Y47575403D01*
X32155485Y47398787D01*
X32107511Y47347990D01*
X32039690Y47331195D01*
X31973555Y47353732D01*
X31934515Y47398787D01*
X31844525Y47575403D01*
X31844524Y47575405D01*
X31728828Y47734646D01*
X31589646Y47873828D01*
X31430405Y47989524D01*
X31255025Y48078884D01*
X31067826Y48139709D01*
X30873422Y48170500D01*
X30873417Y48170500D01*
X30676583Y48170500D01*
X30676578Y48170500D01*
X30482173Y48139709D01*
X30424951Y48121116D01*
X30294975Y48078884D01*
X30294972Y48078882D01*
X30294970Y48078882D01*
X30202455Y48031743D01*
X30119595Y47989524D01*
X29960354Y47873828D01*
X29821172Y47734646D01*
X29791514Y47693825D01*
X29705474Y47575403D01*
X29615485Y47398787D01*
X29567511Y47347990D01*
X29499690Y47331195D01*
X29433555Y47353732D01*
X29394515Y47398787D01*
X29304525Y47575403D01*
X29304524Y47575405D01*
X29188828Y47734646D01*
X29049646Y47873828D01*
X28890405Y47989524D01*
X28715025Y48078884D01*
X28527826Y48139709D01*
X28333422Y48170500D01*
X28333417Y48170500D01*
X28136583Y48170500D01*
X28136578Y48170500D01*
X27942173Y48139709D01*
X27884951Y48121116D01*
X27754975Y48078884D01*
X27754972Y48078882D01*
X27754970Y48078882D01*
X27662455Y48031743D01*
X27579595Y47989524D01*
X27420354Y47873828D01*
X27281172Y47734646D01*
X27251514Y47693825D01*
X27165474Y47575403D01*
X27075485Y47398787D01*
X27027511Y47347990D01*
X26959690Y47331195D01*
X26893555Y47353732D01*
X26854515Y47398787D01*
X26764525Y47575403D01*
X26764524Y47575405D01*
X26648828Y47734646D01*
X26509646Y47873828D01*
X26350405Y47989524D01*
X26175025Y48078884D01*
X25987826Y48139709D01*
X25793422Y48170500D01*
X25793417Y48170500D01*
X25596583Y48170500D01*
X25596578Y48170500D01*
X25402173Y48139709D01*
X25344951Y48121116D01*
X25214975Y48078884D01*
X25214972Y48078882D01*
X25214970Y48078882D01*
X25122455Y48031743D01*
X25039595Y47989524D01*
X24880354Y47873828D01*
X24741172Y47734646D01*
X24711514Y47693825D01*
X24625474Y47575403D01*
X24535485Y47398787D01*
X24487511Y47347990D01*
X24419690Y47331195D01*
X24353555Y47353732D01*
X24314515Y47398787D01*
X24224525Y47575403D01*
X24224524Y47575405D01*
X24108828Y47734646D01*
X23969646Y47873828D01*
X23810405Y47989524D01*
X23635025Y48078884D01*
X23447826Y48139709D01*
X23253422Y48170500D01*
X23253417Y48170500D01*
X23056583Y48170500D01*
X23056578Y48170500D01*
X22862173Y48139709D01*
X22804951Y48121116D01*
X22674975Y48078884D01*
X22674972Y48078882D01*
X22674970Y48078882D01*
X22582455Y48031743D01*
X22499595Y47989524D01*
X22340354Y47873828D01*
X22201172Y47734646D01*
X22171514Y47693825D01*
X22085474Y47575403D01*
X21995485Y47398787D01*
X21947511Y47347990D01*
X21879690Y47331195D01*
X21813555Y47353732D01*
X21774515Y47398787D01*
X21684525Y47575403D01*
X21684524Y47575405D01*
X21568828Y47734646D01*
X21429646Y47873828D01*
X21270405Y47989524D01*
X21095025Y48078884D01*
X20907826Y48139709D01*
X20713422Y48170500D01*
X20713417Y48170500D01*
X20516583Y48170500D01*
X20516578Y48170500D01*
X20322173Y48139709D01*
X20264951Y48121116D01*
X20134975Y48078884D01*
X20134972Y48078882D01*
X20134970Y48078882D01*
X20042455Y48031743D01*
X19959595Y47989524D01*
X19800354Y47873828D01*
X19661172Y47734646D01*
X19631514Y47693825D01*
X19545474Y47575403D01*
X19455485Y47398787D01*
X19407511Y47347990D01*
X19339690Y47331195D01*
X19273555Y47353732D01*
X19234515Y47398787D01*
X19144525Y47575403D01*
X19144524Y47575405D01*
X19028828Y47734646D01*
X18889646Y47873828D01*
X18730405Y47989524D01*
X18555025Y48078884D01*
X18367826Y48139709D01*
X18173422Y48170500D01*
X18173417Y48170500D01*
X17976583Y48170500D01*
X17976578Y48170500D01*
X17782173Y48139709D01*
X17724951Y48121116D01*
X17594975Y48078884D01*
X17594972Y48078882D01*
X17594970Y48078882D01*
X17502455Y48031743D01*
X17419595Y47989524D01*
X17260354Y47873828D01*
X17121172Y47734646D01*
X17091514Y47693825D01*
X17005474Y47575403D01*
X16915485Y47398787D01*
X16867511Y47347990D01*
X16799690Y47331195D01*
X16733555Y47353732D01*
X16694515Y47398787D01*
X16604525Y47575403D01*
X16604524Y47575405D01*
X16488828Y47734646D01*
X16349646Y47873828D01*
X16190405Y47989524D01*
X16015025Y48078884D01*
X15827826Y48139709D01*
X15633422Y48170500D01*
X15633417Y48170500D01*
X15436583Y48170500D01*
X15436578Y48170500D01*
X15242173Y48139709D01*
X15184951Y48121116D01*
X15054975Y48078884D01*
X15054972Y48078882D01*
X15054970Y48078882D01*
X14962455Y48031743D01*
X14879595Y47989524D01*
X14720354Y47873828D01*
X14581172Y47734646D01*
X14551514Y47693825D01*
X14465474Y47575403D01*
X14375485Y47398787D01*
X14327511Y47347990D01*
X14259690Y47331195D01*
X14193555Y47353732D01*
X14154515Y47398787D01*
X14064525Y47575403D01*
X14064524Y47575405D01*
X13948828Y47734646D01*
X13809646Y47873828D01*
X13650405Y47989524D01*
X13475025Y48078884D01*
X13287826Y48139709D01*
X13093422Y48170500D01*
X13093417Y48170500D01*
X12896583Y48170500D01*
X12896578Y48170500D01*
X12702173Y48139709D01*
X12644951Y48121116D01*
X12514975Y48078884D01*
X12514972Y48078882D01*
X12514970Y48078882D01*
X12422455Y48031743D01*
X12339595Y47989524D01*
X12180354Y47873828D01*
X12180351Y47873825D01*
X12045581Y47739055D01*
X11984258Y47705570D01*
X11914566Y47710554D01*
X11858633Y47752426D01*
X11834216Y47817890D01*
X11833900Y47826736D01*
X11833900Y50131880D01*
X11853585Y50198919D01*
X11870219Y50219561D01*
X21124112Y59473454D01*
X21200777Y59588192D01*
X21253578Y59715667D01*
X21253581Y59715677D01*
X21280500Y59851003D01*
X21280500Y61050058D01*
X21300185Y61117097D01*
X21331613Y61150375D01*
X21394645Y61196171D01*
X21533825Y61335351D01*
X21533828Y61335354D01*
X21649524Y61494595D01*
X21734051Y61660489D01*
X21739515Y61671213D01*
X21787489Y61722009D01*
X21855310Y61738804D01*
X21921445Y61716267D01*
X21960485Y61671213D01*
X22050476Y61494594D01*
X22083588Y61449020D01*
X22166172Y61335354D01*
X22166174Y61335352D01*
X22166174Y61335351D01*
X22305351Y61196174D01*
X22464594Y61080476D01*
X22639970Y60991117D01*
X22827173Y60930290D01*
X23021578Y60899500D01*
X23021583Y60899500D01*
X23218422Y60899500D01*
X23412826Y60930290D01*
X23600029Y60991117D01*
X23775405Y61080476D01*
X23779381Y61083365D01*
X23934646Y61196172D01*
X24073828Y61335354D01*
X24189524Y61494595D01*
X24274051Y61660489D01*
X24279515Y61671213D01*
X24327489Y61722009D01*
X24395310Y61738804D01*
X24461445Y61716267D01*
X24500485Y61671213D01*
X24590476Y61494594D01*
X24623588Y61449020D01*
X24706172Y61335354D01*
X24706174Y61335352D01*
X24706174Y61335351D01*
X24845351Y61196174D01*
X25004594Y61080476D01*
X25179970Y60991117D01*
X25367173Y60930290D01*
X25561578Y60899500D01*
X25561583Y60899500D01*
X25758422Y60899500D01*
X25952826Y60930290D01*
X26140029Y60991117D01*
X26315405Y61080476D01*
X26319381Y61083365D01*
X26474646Y61196172D01*
X26613828Y61335354D01*
X26729524Y61494595D01*
X26814051Y61660489D01*
X26819515Y61671213D01*
X26867489Y61722009D01*
X26935310Y61738804D01*
X27001445Y61716267D01*
X27040485Y61671213D01*
X27130476Y61494594D01*
X27246176Y61335348D01*
X27246177Y61335347D01*
X27246253Y61335272D01*
X27246272Y61335236D01*
X27249341Y61331643D01*
X27248586Y61330998D01*
X27279738Y61273949D01*
X27274754Y61204257D01*
X27246253Y61159910D01*
X18508223Y52421880D01*
X18446900Y52388395D01*
X18382225Y52391630D01*
X18362768Y52397953D01*
X18303933Y52407271D01*
X18129497Y52434900D01*
X18129492Y52434900D01*
X17893308Y52434900D01*
X17893303Y52434900D01*
X17660031Y52397953D01*
X17568305Y52368149D01*
X17435408Y52324968D01*
X17435405Y52324966D01*
X17435403Y52324966D01*
X17324391Y52268402D01*
X17224967Y52217743D01*
X17033890Y52078917D01*
X16866883Y51911910D01*
X16729567Y51722911D01*
X16728057Y51720833D01*
X16620833Y51510396D01*
X16547846Y51285768D01*
X16510900Y51052497D01*
X16510900Y50816302D01*
X16547846Y50583031D01*
X16620833Y50358403D01*
X16728057Y50147966D01*
X16807262Y50038950D01*
X16866883Y49956890D01*
X16866885Y49956888D01*
X16866885Y49956887D01*
X17033887Y49789885D01*
X17224966Y49651057D01*
X17435403Y49543833D01*
X17660031Y49470846D01*
X17893303Y49433900D01*
X17893308Y49433900D01*
X18129497Y49433900D01*
X18362768Y49470846D01*
X18587396Y49543833D01*
X18797833Y49651057D01*
X18866350Y49700838D01*
X18988910Y49789883D01*
X19155917Y49956890D01*
X19294743Y50147967D01*
X19353186Y50262668D01*
X19401966Y50358403D01*
X19405943Y50370641D01*
X19462495Y50544690D01*
X19474953Y50583031D01*
X19511900Y50816302D01*
X19511900Y51052497D01*
X19478435Y51263785D01*
X19474953Y51285768D01*
X19468630Y51305224D01*
X19466634Y51375061D01*
X19498880Y51431223D01*
X28744109Y60676451D01*
X28744112Y60676454D01*
X28786799Y60740340D01*
X28786800Y60740342D01*
X28820775Y60791189D01*
X28820775Y60791191D01*
X28820778Y60791195D01*
X28873578Y60918667D01*
X28873581Y60918677D01*
X28900500Y61054004D01*
X28901097Y61060067D01*
X28903373Y61059842D01*
X28920185Y61117097D01*
X28951613Y61150375D01*
X29014645Y61196171D01*
X29153825Y61335351D01*
X29153828Y61335354D01*
X29269524Y61494595D01*
X29354051Y61660489D01*
X29359515Y61671213D01*
X29407489Y61722009D01*
X29475310Y61738804D01*
X29541445Y61716267D01*
X29580485Y61671213D01*
X29670476Y61494594D01*
X29703588Y61449020D01*
X29786172Y61335354D01*
X29786174Y61335352D01*
X29786174Y61335351D01*
X29925351Y61196174D01*
X30084594Y61080476D01*
X30259970Y60991117D01*
X30447173Y60930290D01*
X30641578Y60899500D01*
X30641583Y60899500D01*
X30838422Y60899500D01*
X31032826Y60930290D01*
X31220029Y60991117D01*
X31395405Y61080476D01*
X31399381Y61083365D01*
X31554646Y61196172D01*
X31693828Y61335354D01*
X31809524Y61494595D01*
X31894051Y61660489D01*
X31899515Y61671213D01*
X31947489Y61722009D01*
X32015310Y61738804D01*
X32081445Y61716267D01*
X32120485Y61671213D01*
X32210476Y61494594D01*
X32243588Y61449020D01*
X32326172Y61335354D01*
X32326174Y61335352D01*
X32326174Y61335351D01*
X32465351Y61196174D01*
X32624594Y61080476D01*
X32799970Y60991117D01*
X32987173Y60930290D01*
X33181578Y60899500D01*
X33181583Y60899500D01*
X33378422Y60899500D01*
X33572826Y60930290D01*
X33760029Y60991117D01*
X33935405Y61080476D01*
X33939381Y61083365D01*
X34094646Y61196172D01*
X34233828Y61335354D01*
X34349524Y61494595D01*
X34434051Y61660489D01*
X34439515Y61671213D01*
X34487489Y61722009D01*
X34555310Y61738804D01*
X34621445Y61716267D01*
X34660485Y61671213D01*
X34750476Y61494594D01*
X34783588Y61449020D01*
X34866172Y61335354D01*
X34866174Y61335352D01*
X34866174Y61335351D01*
X35005351Y61196174D01*
X35164594Y61080476D01*
X35339970Y60991117D01*
X35527173Y60930290D01*
X35721578Y60899500D01*
X35721583Y60899500D01*
X35918422Y60899500D01*
X36112826Y60930290D01*
X36300029Y60991117D01*
X36475405Y61080476D01*
X36479381Y61083365D01*
X36634646Y61196172D01*
X36773828Y61335354D01*
X36889524Y61494595D01*
X36974051Y61660489D01*
X36979515Y61671213D01*
X37027489Y61722009D01*
X37095310Y61738804D01*
X37161445Y61716267D01*
X37200485Y61671213D01*
X37290476Y61494594D01*
X37323588Y61449020D01*
X37406172Y61335354D01*
X37406174Y61335352D01*
X37406174Y61335351D01*
X37545351Y61196174D01*
X37704594Y61080476D01*
X37879970Y60991117D01*
X38067173Y60930290D01*
X38261578Y60899500D01*
X38261583Y60899500D01*
X38458422Y60899500D01*
X38652826Y60930290D01*
X38840029Y60991117D01*
X39015405Y61080476D01*
X39019381Y61083365D01*
X39174646Y61196172D01*
X39313828Y61335354D01*
X39429524Y61494595D01*
X39514051Y61660489D01*
X39519515Y61671213D01*
X39567489Y61722009D01*
X39635310Y61738804D01*
X39701445Y61716267D01*
X39740485Y61671213D01*
X39830476Y61494594D01*
X39863588Y61449020D01*
X39946172Y61335354D01*
X39946174Y61335352D01*
X39946174Y61335351D01*
X40085351Y61196174D01*
X40244594Y61080476D01*
X40419970Y60991117D01*
X40607173Y60930290D01*
X40801578Y60899500D01*
X40801583Y60899500D01*
X40998422Y60899500D01*
X41192826Y60930290D01*
X41380029Y60991117D01*
X41555405Y61080476D01*
X41559381Y61083365D01*
X41714646Y61196172D01*
X41853828Y61335354D01*
X41969524Y61494595D01*
X42054051Y61660489D01*
X42059515Y61671213D01*
X42107489Y61722009D01*
X42175310Y61738804D01*
X42241445Y61716267D01*
X42280485Y61671213D01*
X42370476Y61494594D01*
X42403588Y61449020D01*
X42486172Y61335354D01*
X42486174Y61335352D01*
X42486174Y61335351D01*
X42625351Y61196174D01*
X42784594Y61080476D01*
X42959970Y60991117D01*
X43147173Y60930290D01*
X43341578Y60899500D01*
X43341583Y60899500D01*
X43538422Y60899500D01*
X43732826Y60930290D01*
X43920029Y60991117D01*
X44095405Y61080476D01*
X44099381Y61083365D01*
X44254646Y61196172D01*
X44393828Y61335354D01*
X44509524Y61494595D01*
X44594051Y61660489D01*
X44599515Y61671213D01*
X44647489Y61722009D01*
X44715310Y61738804D01*
X44781445Y61716267D01*
X44820485Y61671213D01*
X44910476Y61494594D01*
X44943588Y61449020D01*
X45026172Y61335354D01*
X45026174Y61335352D01*
X45026174Y61335351D01*
X45165351Y61196174D01*
X45324594Y61080476D01*
X45499970Y60991117D01*
X45687173Y60930290D01*
X45881578Y60899500D01*
X45881583Y60899500D01*
X46078424Y60899500D01*
X46083281Y60899882D01*
X46083393Y60898448D01*
X46146298Y60890306D01*
X46199740Y60845299D01*
X46220367Y60778543D01*
X46201628Y60711233D01*
X46184060Y60689117D01*
X45232962Y59738019D01*
X45171639Y59704534D01*
X45145281Y59701700D01*
X40493516Y59701700D01*
X40426477Y59721385D01*
X40383032Y59769403D01*
X40380564Y59774245D01*
X40373743Y59787633D01*
X40234917Y59978710D01*
X40067910Y60145717D01*
X39876833Y60284543D01*
X39666392Y60391768D01*
X39441768Y60464753D01*
X39208497Y60501700D01*
X39208492Y60501700D01*
X38972308Y60501700D01*
X38972303Y60501700D01*
X38739031Y60464753D01*
X38680759Y60445819D01*
X38514408Y60391768D01*
X38514405Y60391766D01*
X38514403Y60391766D01*
X38403391Y60335202D01*
X38303967Y60284543D01*
X38112890Y60145717D01*
X37945883Y59978710D01*
X37807057Y59787633D01*
X37699833Y59577196D01*
X37626846Y59352568D01*
X37589900Y59119297D01*
X37589900Y58883102D01*
X37626846Y58649831D01*
X37699833Y58425203D01*
X37807057Y58214766D01*
X37846484Y58160500D01*
X37945883Y58023690D01*
X37945885Y58023688D01*
X37945885Y58023687D01*
X38112887Y57856685D01*
X38303966Y57717857D01*
X38514403Y57610633D01*
X38739031Y57537646D01*
X38972303Y57500700D01*
X38972308Y57500700D01*
X39208497Y57500700D01*
X39441768Y57537646D01*
X39666396Y57610633D01*
X39876833Y57717857D01*
X39966494Y57783000D01*
X40067910Y57856683D01*
X40234917Y58023690D01*
X40373743Y58214767D01*
X40379088Y58225258D01*
X40383032Y58232997D01*
X40431008Y58283792D01*
X40493516Y58300700D01*
X45555796Y58300700D01*
X45691122Y58327618D01*
X45691132Y58327621D01*
X45818607Y58380422D01*
X45933345Y58457087D01*
X45933346Y58457088D01*
X48339438Y60863181D01*
X48400761Y60896666D01*
X48427119Y60899500D01*
X48618422Y60899500D01*
X48812826Y60930290D01*
X49000029Y60991117D01*
X49175405Y61080476D01*
X49179381Y61083365D01*
X49334646Y61196172D01*
X49473828Y61335354D01*
X49589524Y61494595D01*
X49674051Y61660489D01*
X49679515Y61671213D01*
X49688160Y61680366D01*
X49692895Y61692033D01*
X49711694Y61705285D01*
X49727489Y61722009D01*
X49739711Y61725035D01*
X49750002Y61732290D01*
X49772983Y61733275D01*
X49795310Y61738804D01*
X49807227Y61734742D01*
G37*
G04 #@! TD.AperFunction*
M02*
