M48
; DRILL file {KiCad 9.0.5} date 2025-10-18T23:42:46+0200
; FORMAT={-:-/ absolute / metric / decimal}
; #@! TF.CreationDate,2025-10-18T23:42:46+02:00
; #@! TF.GenerationSoftware,Kicad,Pcbnew,9.0.5
; #@! TF.FileFunction,MixedPlating,1,2
FMAT,2
METRIC
; #@! TA.AperFunction,Plated,PTH,ViaDrill
T1C0.300
; #@! TA.AperFunction,Plated,PTH,ComponentDrill
T2C0.650
; #@! TA.AperFunction,Plated,PTH,ComponentDrill
T3C0.800
; #@! TA.AperFunction,Plated,PTH,ComponentDrill
T4C1.000
; #@! TA.AperFunction,Plated,PTH,ComponentDrill
T5C1.050
; #@! TA.AperFunction,Plated,PTH,ComponentDrill
T6C1.500
; #@! TA.AperFunction,NonPlated,NPTH,ComponentDrill
T7C1.092
; #@! TA.AperFunction,NonPlated,NPTH,ComponentDrill
T8C1.600
; #@! TA.AperFunction,NonPlated,NPTH,ComponentDrill
T9C3.200
%
G90
G05
T1
X82.6Y-114.3
X83.1Y-116.0
X84.9Y-109.3
X85.4Y-117.9
X87.3Y-128.2
X87.4Y-122.7
X87.9Y-97.7
X87.9Y-100.8
X89.4Y-116.6
X89.8Y-98.9
X90.1Y-101.9
X90.4Y-83.1
X92.1Y-74.7
X93.1Y-110.1
X94.4Y-123.0
X95.2Y-116.5
X95.9Y-83.1
X97.0Y-119.1
X97.6Y-132.8
X98.75Y-100.15
X99.65Y-96.95
X99.7Y-97.95
X99.9Y-99.0
X102.7Y-117.4
X102.8Y-105.1
X108.05Y-97.85
X109.6Y-144.6
X110.7Y-82.0
X110.7Y-112.7
X110.8Y-84.1
X110.8Y-129.4
X112.1Y-103.3
X113.4Y-146.8
X113.8Y-69.825
X114.0Y-105.0
X114.2Y-112.7
X114.6Y-91.6
X118.1Y-102.2
X124.0Y-131.9
X126.1Y-87.4
X126.3Y-113.4
X128.6Y-97.15
X128.7Y-99.3
X129.1Y-100.8
X129.7Y-78.7
X129.8Y-101.8
X129.8Y-109.9
X129.8Y-114.0
X130.15Y-71.7
X131.0Y-95.0
X131.0Y-102.0
X131.5Y-113.8
X131.6Y-108.55
X131.6Y-131.7
X132.8Y-103.2
X133.1Y-113.9
X133.2Y-110.0
X133.9Y-104.0
X134.37Y-78.65
X134.37Y-87.75
X134.6Y-94.8
X134.6Y-113.6
X134.7Y-109.9
X135.7Y-71.8
X135.7Y-83.0
X135.7Y-104.3
X136.262Y-91.4
X136.4Y-109.7
X137.3Y-75.4
X138.2Y-83.5
X138.3Y-89.4
X138.3Y-101.3
X138.5Y-79.5
X138.838Y-108.2
X139.3Y-114.3
X139.8Y-80.4
X139.8Y-83.0
X140.0Y-109.625
X140.5Y-115.7
X140.85Y-120.05
X140.9Y-81.4
X140.9Y-82.9
X141.0Y-109.625
X141.9Y-95.6
X142.0Y-109.5
X142.1Y-83.1
X142.2Y-78.6
X142.7Y-86.0
X143.0Y-109.3
X143.0Y-131.1
X143.1Y-108.2
X143.2Y-107.1
X143.25Y-87.1
X143.4Y-96.0
X143.5Y-76.7
X143.7Y-110.1
X144.5Y-128.7
X144.8Y-131.3
X145.0Y-103.7
X145.4Y-73.6
X146.0Y-102.3
X146.7Y-90.1
X147.4Y-83.5
X147.5Y-77.4
X148.137Y-107.5
X148.5Y-131.2
X149.2Y-76.4
X149.9Y-107.95
X150.1Y-104.3
X152.1Y-83.7
X152.4Y-95.0
X152.5Y-102.9
X152.5Y-130.2
X153.05Y-77.75
X153.403Y-75.103
X153.5Y-92.6
X154.4Y-96.6
X154.4Y-98.5
X155.0Y-83.3
X155.2Y-73.3
X156.0Y-74.8
X156.4Y-98.7
X156.7Y-83.6
X157.8Y-77.0
X157.85Y-82.5
X158.6Y-132.7
X158.7Y-74.8
X159.0Y-136.9
X159.2Y-78.0
X159.3Y-83.1
X159.4Y-104.9
X160.7Y-79.5
X160.7Y-82.2
X161.3Y-91.9
X162.525Y-97.125
X162.525Y-98.075
X162.9Y-92.9
X162.9Y-94.8
X163.7Y-98.9
X163.7Y-104.0
X163.9Y-82.4
X164.2Y-74.6
X165.4Y-109.8
X165.4Y-114.7
X165.5Y-82.8
X165.6Y-87.5
X165.6Y-99.0
X165.6Y-104.1
X165.7Y-79.7
X166.8Y-117.1
X166.9Y-143.3
X167.2Y-129.3
X168.7Y-111.9
X168.7Y-113.6
X174.5Y-82.1
X178.3Y-101.1
X178.7Y-68.8
X178.8Y-97.125
X178.8Y-98.075
X180.0Y-126.7
X180.2Y-118.8
X180.9Y-92.5
X182.294Y-121.625
X183.0Y-95.2
X187.3Y-96.0
X187.3Y-99.1
X189.8Y-95.6
X189.8Y-99.1
X192.6Y-95.9
X192.6Y-99.1
X202.9Y-95.7
T2
X127.5Y-96.26
X127.5Y-101.14
T3
X128.05Y-64.545
X128.05Y-67.045
T4
X83.9Y-97.7
X83.9Y-99.7
X83.9Y-101.7
X85.9Y-97.7
X85.9Y-99.7
X85.9Y-101.7
X96.9Y-128.5
X97.0Y-121.4
X99.44Y-128.5
X99.54Y-121.4
X126.16Y-118.5
X128.7Y-118.5
X148.06Y-88.2
X150.375Y-71.5
X150.6Y-88.2
X152.915Y-71.5
X153.14Y-88.2
X155.455Y-71.5
X155.68Y-88.2
X157.995Y-71.5
X160.535Y-71.5
X163.075Y-71.5
X165.615Y-71.5
X168.155Y-71.5
X170.695Y-71.5
X172.2Y-84.925
X172.2Y-87.465
X172.2Y-90.005
X172.2Y-92.545
X172.2Y-95.085
X172.2Y-97.625
X172.2Y-100.165
X172.2Y-102.705
X172.2Y-105.245
X172.2Y-107.785
X172.2Y-110.325
X173.235Y-71.5
X174.74Y-84.925
X174.74Y-87.465
X174.74Y-90.005
X174.74Y-92.545
X174.74Y-95.085
X174.74Y-97.625
X174.74Y-100.165
X174.74Y-102.705
X174.74Y-105.245
X174.74Y-107.785
X174.74Y-110.325
X175.775Y-71.5
T5
X120.2Y-137.5
X120.2Y-142.0
X126.7Y-137.5
X126.7Y-142.0
X134.5Y-137.5
X134.5Y-142.0
X141.0Y-137.5
X141.0Y-142.0
X148.931Y-137.5
X148.931Y-142.0
X155.431Y-137.5
X155.431Y-142.0
T6
X82.9Y-94.95
X82.9Y-104.45
X86.9Y-94.95
X86.9Y-104.45
T7
X185.094Y-132.5
T8
X185.094Y-111.5
T9
X85.0Y-60.0
X85.0Y-145.0
X205.0Y-60.0
X205.0Y-145.0
M30
