%TF.GenerationSoftware,KiCad,Pcbnew,9.0.5*%
%TF.CreationDate,2025-11-30T18:01:57+01:00*%
%TF.ProjectId,fotoaparat,666f746f-6170-4617-9261-742e6b696361,rev?*%
%TF.SameCoordinates,Original*%
%TF.FileFunction,Drillmap*%
%TF.FilePolarity,Positive*%
%FSLAX45Y45*%
G04 Gerber Fmt 4.5, Leading zero omitted, Abs format (unit mm)*
G04 Created by KiCad (PCBNEW 9.0.5) date 2025-11-30 18:01:57*
%MOMM*%
%LPD*%
G01*
G04 APERTURE LIST*
%ADD10C,0.050000*%
%ADD11C,0.200000*%
%ADD12C,0.100000*%
G04 APERTURE END LIST*
D10*
X-100000Y6900000D02*
X9900000Y6900000D01*
X9900000Y0D01*
X-100000Y0D01*
X-100000Y6900000D01*
D11*
D12*
X524810Y6278450D02*
X604810Y6198450D01*
X604810Y6278450D02*
X524810Y6198450D01*
X831530Y452990D02*
X911530Y372990D01*
X911530Y452990D02*
X831530Y372990D01*
X1412540Y3164110D02*
X1492540Y3084110D01*
X1492540Y3164110D02*
X1412540Y3084110D01*
X1432990Y5968350D02*
X1512990Y5888350D01*
X1512990Y5968350D02*
X1432990Y5888350D01*
X1655900Y3366340D02*
X1735900Y3286340D01*
X1735900Y3366340D02*
X1655900Y3286340D01*
X1761140Y5133440D02*
X1841140Y5053440D01*
X1841140Y5133440D02*
X1761140Y5053440D01*
X1806970Y3999510D02*
X1886970Y3919510D01*
X1886970Y3999510D02*
X1806970Y3919510D01*
X1910000Y1140000D02*
X1990000Y1060000D01*
X1990000Y1140000D02*
X1910000Y1060000D01*
X1946650Y3119180D02*
X2026650Y3039180D01*
X2026650Y3119180D02*
X1946650Y3039180D01*
X2586980Y4051200D02*
X2666980Y3971200D01*
X2666980Y4051200D02*
X2586980Y3971200D01*
X2705160Y1700440D02*
X2785160Y1620440D01*
X2785160Y1700440D02*
X2705160Y1620440D01*
X2852240Y4239050D02*
X2932240Y4159050D01*
X2932240Y4239050D02*
X2852240Y4159050D01*
X3869040Y5940120D02*
X3949040Y5860120D01*
X3949040Y5940120D02*
X3869040Y5860120D01*
X3896790Y1051020D02*
X3976790Y971020D01*
X3976790Y1051020D02*
X3896790Y971020D01*
X3993500Y3440640D02*
X4073500Y3360640D01*
X4073500Y3440640D02*
X3993500Y3360640D01*
X4286690Y4180970D02*
X4366690Y4100970D01*
X4366690Y4180970D02*
X4286690Y4100970D01*
X4576960Y3684250D02*
X4656960Y3604250D01*
X4656960Y3684250D02*
X4576960Y3604250D01*
X4785030Y2909520D02*
X4865030Y2829520D01*
X4865030Y2909520D02*
X4785030Y2829520D01*
X5138980Y2780180D02*
X5218980Y2700180D01*
X5218980Y2780180D02*
X5138980Y2700180D01*
X5320560Y1700560D02*
X5400560Y1620560D01*
X5400560Y1700560D02*
X5320560Y1620560D01*
X5629350Y1855920D02*
X5709350Y1775920D01*
X5709350Y1855920D02*
X5629350Y1775920D01*
X6073370Y850160D02*
X6153370Y770160D01*
X6153370Y850160D02*
X6073370Y770160D01*
X7012640Y5114540D02*
X7092640Y5034540D01*
X7092640Y5114540D02*
X7012640Y5034540D01*
X7104650Y6284510D02*
X7184650Y6204510D01*
X7184650Y6284510D02*
X7104650Y6204510D01*
X7133680Y6709590D02*
X7213680Y6629590D01*
X7213680Y6709590D02*
X7133680Y6629590D01*
X7322780Y5280830D02*
X7402780Y5200830D01*
X7402780Y5280830D02*
X7322780Y5200830D01*
X7508310Y5075250D02*
X7588310Y4995250D01*
X7588310Y5075250D02*
X7508310Y4995250D01*
X7688480Y5508950D02*
X7768480Y5428950D01*
X7768480Y5508950D02*
X7688480Y5428950D01*
X8257330Y1792930D02*
X8337330Y1712930D01*
X8337330Y1792930D02*
X8257330Y1712930D01*
X8529720Y5357210D02*
X8609720Y5277210D01*
X8609720Y5357210D02*
X8529720Y5277210D01*
X8548570Y3230430D02*
X8628570Y3150430D01*
X8628570Y3230430D02*
X8548570Y3150430D01*
X9514550Y1699970D02*
X9594550Y1619970D01*
X9594550Y1699970D02*
X9514550Y1619970D01*
X820000Y4678000D02*
G75*
G02*
X740000Y4678000I-40000J0D01*
G01*
X740000Y4678000D02*
G75*
G02*
X820000Y4678000I40000J0D01*
G01*
X820000Y4428000D02*
G75*
G02*
X740000Y4428000I-40000J0D01*
G01*
X740000Y4428000D02*
G75*
G02*
X820000Y4428000I40000J0D01*
G01*
X820000Y4158000D02*
G75*
G02*
X740000Y4158000I-40000J0D01*
G01*
X740000Y4158000D02*
G75*
G02*
X820000Y4158000I40000J0D01*
G01*
X820000Y3888000D02*
G75*
G02*
X740000Y3888000I-40000J0D01*
G01*
X740000Y3888000D02*
G75*
G02*
X820000Y3888000I40000J0D01*
G01*
X861000Y3521000D02*
G75*
G02*
X781000Y3521000I-40000J0D01*
G01*
X781000Y3521000D02*
G75*
G02*
X861000Y3521000I40000J0D01*
G01*
X861000Y3267000D02*
G75*
G02*
X781000Y3267000I-40000J0D01*
G01*
X781000Y3267000D02*
G75*
G02*
X861000Y3267000I40000J0D01*
G01*
X861000Y3013000D02*
G75*
G02*
X781000Y3013000I-40000J0D01*
G01*
X781000Y3013000D02*
G75*
G02*
X861000Y3013000I40000J0D01*
G01*
X861000Y2759000D02*
G75*
G02*
X781000Y2759000I-40000J0D01*
G01*
X781000Y2759000D02*
G75*
G02*
X861000Y2759000I40000J0D01*
G01*
X861000Y2505000D02*
G75*
G02*
X781000Y2505000I-40000J0D01*
G01*
X781000Y2505000D02*
G75*
G02*
X861000Y2505000I40000J0D01*
G01*
X861000Y2251000D02*
G75*
G02*
X781000Y2251000I-40000J0D01*
G01*
X781000Y2251000D02*
G75*
G02*
X861000Y2251000I40000J0D01*
G01*
X861000Y1997000D02*
G75*
G02*
X781000Y1997000I-40000J0D01*
G01*
X781000Y1997000D02*
G75*
G02*
X861000Y1997000I40000J0D01*
G01*
X861000Y1743000D02*
G75*
G02*
X781000Y1743000I-40000J0D01*
G01*
X781000Y1743000D02*
G75*
G02*
X861000Y1743000I40000J0D01*
G01*
X861000Y1489000D02*
G75*
G02*
X781000Y1489000I-40000J0D01*
G01*
X781000Y1489000D02*
G75*
G02*
X861000Y1489000I40000J0D01*
G01*
X861000Y1235000D02*
G75*
G02*
X781000Y1235000I-40000J0D01*
G01*
X781000Y1235000D02*
G75*
G02*
X861000Y1235000I40000J0D01*
G01*
X861000Y981000D02*
G75*
G02*
X781000Y981000I-40000J0D01*
G01*
X781000Y981000D02*
G75*
G02*
X861000Y981000I40000J0D01*
G01*
X1115000Y3521000D02*
G75*
G02*
X1035000Y3521000I-40000J0D01*
G01*
X1035000Y3521000D02*
G75*
G02*
X1115000Y3521000I40000J0D01*
G01*
X1115000Y3267000D02*
G75*
G02*
X1035000Y3267000I-40000J0D01*
G01*
X1035000Y3267000D02*
G75*
G02*
X1115000Y3267000I40000J0D01*
G01*
X1115000Y3013000D02*
G75*
G02*
X1035000Y3013000I-40000J0D01*
G01*
X1035000Y3013000D02*
G75*
G02*
X1115000Y3013000I40000J0D01*
G01*
X1115000Y2759000D02*
G75*
G02*
X1035000Y2759000I-40000J0D01*
G01*
X1035000Y2759000D02*
G75*
G02*
X1115000Y2759000I40000J0D01*
G01*
X1115000Y2505000D02*
G75*
G02*
X1035000Y2505000I-40000J0D01*
G01*
X1035000Y2505000D02*
G75*
G02*
X1115000Y2505000I40000J0D01*
G01*
X1115000Y2251000D02*
G75*
G02*
X1035000Y2251000I-40000J0D01*
G01*
X1035000Y2251000D02*
G75*
G02*
X1115000Y2251000I40000J0D01*
G01*
X1115000Y1997000D02*
G75*
G02*
X1035000Y1997000I-40000J0D01*
G01*
X1035000Y1997000D02*
G75*
G02*
X1115000Y1997000I40000J0D01*
G01*
X1115000Y1743000D02*
G75*
G02*
X1035000Y1743000I-40000J0D01*
G01*
X1035000Y1743000D02*
G75*
G02*
X1115000Y1743000I40000J0D01*
G01*
X1115000Y1489000D02*
G75*
G02*
X1035000Y1489000I-40000J0D01*
G01*
X1035000Y1489000D02*
G75*
G02*
X1115000Y1489000I40000J0D01*
G01*
X1115000Y1235000D02*
G75*
G02*
X1035000Y1235000I-40000J0D01*
G01*
X1035000Y1235000D02*
G75*
G02*
X1115000Y1235000I40000J0D01*
G01*
X1115000Y981000D02*
G75*
G02*
X1035000Y981000I-40000J0D01*
G01*
X1035000Y981000D02*
G75*
G02*
X1115000Y981000I40000J0D01*
G01*
X1336000Y6215000D02*
G75*
G02*
X1256000Y6215000I-40000J0D01*
G01*
X1256000Y6215000D02*
G75*
G02*
X1336000Y6215000I40000J0D01*
G01*
X1339500Y4692000D02*
G75*
G02*
X1259500Y4692000I-40000J0D01*
G01*
X1259500Y4692000D02*
G75*
G02*
X1339500Y4692000I40000J0D01*
G01*
X1590000Y6215000D02*
G75*
G02*
X1510000Y6215000I-40000J0D01*
G01*
X1510000Y6215000D02*
G75*
G02*
X1590000Y6215000I40000J0D01*
G01*
X1593500Y4692000D02*
G75*
G02*
X1513500Y4692000I-40000J0D01*
G01*
X1513500Y4692000D02*
G75*
G02*
X1593500Y4692000I40000J0D01*
G01*
X1844000Y6215000D02*
G75*
G02*
X1764000Y6215000I-40000J0D01*
G01*
X1764000Y6215000D02*
G75*
G02*
X1844000Y6215000I40000J0D01*
G01*
X1847500Y4692000D02*
G75*
G02*
X1767500Y4692000I-40000J0D01*
G01*
X1767500Y4692000D02*
G75*
G02*
X1847500Y4692000I40000J0D01*
G01*
X2098000Y6215000D02*
G75*
G02*
X2018000Y6215000I-40000J0D01*
G01*
X2018000Y6215000D02*
G75*
G02*
X2098000Y6215000I40000J0D01*
G01*
X2101500Y4692000D02*
G75*
G02*
X2021500Y4692000I-40000J0D01*
G01*
X2021500Y4692000D02*
G75*
G02*
X2101500Y4692000I40000J0D01*
G01*
X2352000Y6215000D02*
G75*
G02*
X2272000Y6215000I-40000J0D01*
G01*
X2272000Y6215000D02*
G75*
G02*
X2352000Y6215000I40000J0D01*
G01*
X2355500Y4692000D02*
G75*
G02*
X2275500Y4692000I-40000J0D01*
G01*
X2275500Y4692000D02*
G75*
G02*
X2355500Y4692000I40000J0D01*
G01*
X2606000Y6215000D02*
G75*
G02*
X2526000Y6215000I-40000J0D01*
G01*
X2526000Y6215000D02*
G75*
G02*
X2606000Y6215000I40000J0D01*
G01*
X2609500Y4692000D02*
G75*
G02*
X2529500Y4692000I-40000J0D01*
G01*
X2529500Y4692000D02*
G75*
G02*
X2609500Y4692000I40000J0D01*
G01*
X2813500Y257250D02*
G75*
G02*
X2733500Y257250I-40000J0D01*
G01*
X2733500Y257250D02*
G75*
G02*
X2813500Y257250I40000J0D01*
G01*
X2860000Y6215000D02*
G75*
G02*
X2780000Y6215000I-40000J0D01*
G01*
X2780000Y6215000D02*
G75*
G02*
X2860000Y6215000I40000J0D01*
G01*
X2863500Y4692000D02*
G75*
G02*
X2783500Y4692000I-40000J0D01*
G01*
X2783500Y4692000D02*
G75*
G02*
X2863500Y4692000I40000J0D01*
G01*
X3067500Y257250D02*
G75*
G02*
X2987500Y257250I-40000J0D01*
G01*
X2987500Y257250D02*
G75*
G02*
X3067500Y257250I40000J0D01*
G01*
X3114000Y6215000D02*
G75*
G02*
X3034000Y6215000I-40000J0D01*
G01*
X3034000Y6215000D02*
G75*
G02*
X3114000Y6215000I40000J0D01*
G01*
X3117500Y4692000D02*
G75*
G02*
X3037500Y4692000I-40000J0D01*
G01*
X3037500Y4692000D02*
G75*
G02*
X3117500Y4692000I40000J0D01*
G01*
X3351250Y3658000D02*
G75*
G02*
X3271250Y3658000I-40000J0D01*
G01*
X3271250Y3658000D02*
G75*
G02*
X3351250Y3658000I40000J0D01*
G01*
X3351250Y2642000D02*
G75*
G02*
X3271250Y2642000I-40000J0D01*
G01*
X3271250Y2642000D02*
G75*
G02*
X3351250Y2642000I40000J0D01*
G01*
X3368000Y6215000D02*
G75*
G02*
X3288000Y6215000I-40000J0D01*
G01*
X3288000Y6215000D02*
G75*
G02*
X3368000Y6215000I40000J0D01*
G01*
X3371500Y4692000D02*
G75*
G02*
X3291500Y4692000I-40000J0D01*
G01*
X3291500Y4692000D02*
G75*
G02*
X3371500Y4692000I40000J0D01*
G01*
X3486000Y1750000D02*
G75*
G02*
X3406000Y1750000I-40000J0D01*
G01*
X3406000Y1750000D02*
G75*
G02*
X3486000Y1750000I40000J0D01*
G01*
X3622000Y6215000D02*
G75*
G02*
X3542000Y6215000I-40000J0D01*
G01*
X3542000Y6215000D02*
G75*
G02*
X3622000Y6215000I40000J0D01*
G01*
X3625500Y4692000D02*
G75*
G02*
X3545500Y4692000I-40000J0D01*
G01*
X3545500Y4692000D02*
G75*
G02*
X3625500Y4692000I40000J0D01*
G01*
X3732000Y3361250D02*
G75*
G02*
X3652000Y3361250I-40000J0D01*
G01*
X3652000Y3361250D02*
G75*
G02*
X3732000Y3361250I40000J0D01*
G01*
X3740000Y1750000D02*
G75*
G02*
X3660000Y1750000I-40000J0D01*
G01*
X3660000Y1750000D02*
G75*
G02*
X3740000Y1750000I40000J0D01*
G01*
X3752000Y2926890D02*
G75*
G02*
X3672000Y2926890I-40000J0D01*
G01*
X3672000Y2926890D02*
G75*
G02*
X3752000Y2926890I40000J0D01*
G01*
X3752000Y2366890D02*
G75*
G02*
X3672000Y2366890I-40000J0D01*
G01*
X3672000Y2366890D02*
G75*
G02*
X3752000Y2366890I40000J0D01*
G01*
X3754000Y2646890D02*
G75*
G02*
X3674000Y2646890I-40000J0D01*
G01*
X3674000Y2646890D02*
G75*
G02*
X3754000Y2646890I40000J0D01*
G01*
X3876000Y6215000D02*
G75*
G02*
X3796000Y6215000I-40000J0D01*
G01*
X3796000Y6215000D02*
G75*
G02*
X3876000Y6215000I40000J0D01*
G01*
X3879500Y4692000D02*
G75*
G02*
X3799500Y4692000I-40000J0D01*
G01*
X3799500Y4692000D02*
G75*
G02*
X3879500Y4692000I40000J0D01*
G01*
X4130000Y6215000D02*
G75*
G02*
X4050000Y6215000I-40000J0D01*
G01*
X4050000Y6215000D02*
G75*
G02*
X4130000Y6215000I40000J0D01*
G01*
X4133500Y4692000D02*
G75*
G02*
X4053500Y4692000I-40000J0D01*
G01*
X4053500Y4692000D02*
G75*
G02*
X4133500Y4692000I40000J0D01*
G01*
X4240000Y800000D02*
G75*
G02*
X4160000Y800000I-40000J0D01*
G01*
X4160000Y800000D02*
G75*
G02*
X4240000Y800000I40000J0D01*
G01*
X4240000Y200000D02*
G75*
G02*
X4160000Y200000I-40000J0D01*
G01*
X4160000Y200000D02*
G75*
G02*
X4240000Y200000I40000J0D01*
G01*
X4340000Y2350000D02*
G75*
G02*
X4260000Y2350000I-40000J0D01*
G01*
X4260000Y2350000D02*
G75*
G02*
X4340000Y2350000I40000J0D01*
G01*
X4340000Y2150000D02*
G75*
G02*
X4260000Y2150000I-40000J0D01*
G01*
X4260000Y2150000D02*
G75*
G02*
X4340000Y2150000I40000J0D01*
G01*
X4384000Y6215000D02*
G75*
G02*
X4304000Y6215000I-40000J0D01*
G01*
X4304000Y6215000D02*
G75*
G02*
X4384000Y6215000I40000J0D01*
G01*
X4387500Y4692000D02*
G75*
G02*
X4307500Y4692000I-40000J0D01*
G01*
X4307500Y4692000D02*
G75*
G02*
X4387500Y4692000I40000J0D01*
G01*
X4638000Y6215000D02*
G75*
G02*
X4558000Y6215000I-40000J0D01*
G01*
X4558000Y6215000D02*
G75*
G02*
X4638000Y6215000I40000J0D01*
G01*
X4641500Y4692000D02*
G75*
G02*
X4561500Y4692000I-40000J0D01*
G01*
X4561500Y4692000D02*
G75*
G02*
X4641500Y4692000I40000J0D01*
G01*
X4748000Y3361250D02*
G75*
G02*
X4668000Y3361250I-40000J0D01*
G01*
X4668000Y3361250D02*
G75*
G02*
X4748000Y3361250I40000J0D01*
G01*
X4840000Y800000D02*
G75*
G02*
X4760000Y800000I-40000J0D01*
G01*
X4760000Y800000D02*
G75*
G02*
X4840000Y800000I40000J0D01*
G01*
X4840000Y200000D02*
G75*
G02*
X4760000Y200000I-40000J0D01*
G01*
X4760000Y200000D02*
G75*
G02*
X4840000Y200000I40000J0D01*
G01*
X4892000Y6215000D02*
G75*
G02*
X4812000Y6215000I-40000J0D01*
G01*
X4812000Y6215000D02*
G75*
G02*
X4892000Y6215000I40000J0D01*
G01*
X4895500Y4692000D02*
G75*
G02*
X4815500Y4692000I-40000J0D01*
G01*
X4815500Y4692000D02*
G75*
G02*
X4895500Y4692000I40000J0D01*
G01*
X5044000Y3735640D02*
G75*
G02*
X4964000Y3735640I-40000J0D01*
G01*
X4964000Y3735640D02*
G75*
G02*
X5044000Y3735640I40000J0D01*
G01*
X5132000Y3411250D02*
G75*
G02*
X5052000Y3411250I-40000J0D01*
G01*
X5052000Y3411250D02*
G75*
G02*
X5132000Y3411250I40000J0D01*
G01*
X5146000Y6215000D02*
G75*
G02*
X5066000Y6215000I-40000J0D01*
G01*
X5066000Y6215000D02*
G75*
G02*
X5146000Y6215000I40000J0D01*
G01*
X5149500Y4692000D02*
G75*
G02*
X5069500Y4692000I-40000J0D01*
G01*
X5069500Y4692000D02*
G75*
G02*
X5149500Y4692000I40000J0D01*
G01*
X5232000Y1888750D02*
G75*
G02*
X5152000Y1888750I-40000J0D01*
G01*
X5152000Y1888750D02*
G75*
G02*
X5232000Y1888750I40000J0D01*
G01*
X5400000Y6215000D02*
G75*
G02*
X5320000Y6215000I-40000J0D01*
G01*
X5320000Y6215000D02*
G75*
G02*
X5400000Y6215000I40000J0D01*
G01*
X5403500Y4692000D02*
G75*
G02*
X5323500Y4692000I-40000J0D01*
G01*
X5323500Y4692000D02*
G75*
G02*
X5403500Y4692000I40000J0D01*
G01*
X5490000Y2895510D02*
G75*
G02*
X5410000Y2895510I-40000J0D01*
G01*
X5410000Y2895510D02*
G75*
G02*
X5490000Y2895510I40000J0D01*
G01*
X5490000Y2695510D02*
G75*
G02*
X5410000Y2695510I-40000J0D01*
G01*
X5410000Y2695510D02*
G75*
G02*
X5490000Y2695510I40000J0D01*
G01*
X5588000Y3750000D02*
G75*
G02*
X5508000Y3750000I-40000J0D01*
G01*
X5508000Y3750000D02*
G75*
G02*
X5588000Y3750000I40000J0D01*
G01*
X5590000Y4030000D02*
G75*
G02*
X5510000Y4030000I-40000J0D01*
G01*
X5510000Y4030000D02*
G75*
G02*
X5590000Y4030000I40000J0D01*
G01*
X5590000Y3470000D02*
G75*
G02*
X5510000Y3470000I-40000J0D01*
G01*
X5510000Y3470000D02*
G75*
G02*
X5590000Y3470000I40000J0D01*
G01*
X5654000Y6215000D02*
G75*
G02*
X5574000Y6215000I-40000J0D01*
G01*
X5574000Y6215000D02*
G75*
G02*
X5654000Y6215000I40000J0D01*
G01*
X5657500Y4692000D02*
G75*
G02*
X5577500Y4692000I-40000J0D01*
G01*
X5577500Y4692000D02*
G75*
G02*
X5657500Y4692000I40000J0D01*
G01*
X5782000Y2288750D02*
G75*
G02*
X5702000Y2288750I-40000J0D01*
G01*
X5702000Y2288750D02*
G75*
G02*
X5782000Y2288750I40000J0D01*
G01*
X5908000Y6215000D02*
G75*
G02*
X5828000Y6215000I-40000J0D01*
G01*
X5828000Y6215000D02*
G75*
G02*
X5908000Y6215000I40000J0D01*
G01*
X5911500Y4692000D02*
G75*
G02*
X5831500Y4692000I-40000J0D01*
G01*
X5831500Y4692000D02*
G75*
G02*
X5911500Y4692000I40000J0D01*
G01*
X6060000Y3735640D02*
G75*
G02*
X5980000Y3735640I-40000J0D01*
G01*
X5980000Y3735640D02*
G75*
G02*
X6060000Y3735640I40000J0D01*
G01*
X6148000Y3411250D02*
G75*
G02*
X6068000Y3411250I-40000J0D01*
G01*
X6068000Y3411250D02*
G75*
G02*
X6148000Y3411250I40000J0D01*
G01*
X6162000Y6215000D02*
G75*
G02*
X6082000Y6215000I-40000J0D01*
G01*
X6082000Y6215000D02*
G75*
G02*
X6162000Y6215000I40000J0D01*
G01*
X6165500Y4692000D02*
G75*
G02*
X6085500Y4692000I-40000J0D01*
G01*
X6085500Y4692000D02*
G75*
G02*
X6165500Y4692000I40000J0D01*
G01*
X6248000Y1888750D02*
G75*
G02*
X6168000Y1888750I-40000J0D01*
G01*
X6168000Y1888750D02*
G75*
G02*
X6248000Y1888750I40000J0D01*
G01*
X6560000Y1902000D02*
G75*
G02*
X6480000Y1902000I-40000J0D01*
G01*
X6480000Y1902000D02*
G75*
G02*
X6560000Y1902000I40000J0D01*
G01*
X6690000Y3450000D02*
G75*
G02*
X6610000Y3450000I-40000J0D01*
G01*
X6610000Y3450000D02*
G75*
G02*
X6690000Y3450000I40000J0D01*
G01*
X6798000Y2288750D02*
G75*
G02*
X6718000Y2288750I-40000J0D01*
G01*
X6718000Y2288750D02*
G75*
G02*
X6798000Y2288750I40000J0D01*
G01*
X6840000Y1900000D02*
G75*
G02*
X6760000Y1900000I-40000J0D01*
G01*
X6760000Y1900000D02*
G75*
G02*
X6840000Y1900000I40000J0D01*
G01*
X6848234Y6648000D02*
G75*
G02*
X6768234Y6648000I-40000J0D01*
G01*
X6768234Y6648000D02*
G75*
G02*
X6848234Y6648000I40000J0D01*
G01*
X6848234Y4348000D02*
G75*
G02*
X6768234Y4348000I-40000J0D01*
G01*
X6768234Y4348000D02*
G75*
G02*
X6848234Y4348000I40000J0D01*
G01*
X6862500Y5666000D02*
G75*
G02*
X6782500Y5666000I-40000J0D01*
G01*
X6782500Y5666000D02*
G75*
G02*
X6862500Y5666000I40000J0D01*
G01*
X6862500Y4650000D02*
G75*
G02*
X6782500Y4650000I-40000J0D01*
G01*
X6782500Y4650000D02*
G75*
G02*
X6862500Y4650000I40000J0D01*
G01*
X7090000Y3450000D02*
G75*
G02*
X7010000Y3450000I-40000J0D01*
G01*
X7010000Y3450000D02*
G75*
G02*
X7090000Y3450000I40000J0D01*
G01*
X7120000Y1902000D02*
G75*
G02*
X7040000Y1902000I-40000J0D01*
G01*
X7040000Y1902000D02*
G75*
G02*
X7120000Y1902000I40000J0D01*
G01*
X7155000Y4338000D02*
G75*
G02*
X7075000Y4338000I-40000J0D01*
G01*
X7075000Y4338000D02*
G75*
G02*
X7155000Y4338000I40000J0D01*
G01*
X7401250Y2958000D02*
G75*
G02*
X7321250Y2958000I-40000J0D01*
G01*
X7321250Y2958000D02*
G75*
G02*
X7401250Y2958000I40000J0D01*
G01*
X7401250Y1942000D02*
G75*
G02*
X7321250Y1942000I-40000J0D01*
G01*
X7321250Y1942000D02*
G75*
G02*
X7401250Y1942000I40000J0D01*
G01*
X7632000Y3888750D02*
G75*
G02*
X7552000Y3888750I-40000J0D01*
G01*
X7552000Y3888750D02*
G75*
G02*
X7632000Y3888750I40000J0D01*
G01*
X7728750Y3358000D02*
G75*
G02*
X7648750Y3358000I-40000J0D01*
G01*
X7648750Y3358000D02*
G75*
G02*
X7728750Y3358000I40000J0D01*
G01*
X7728750Y2342000D02*
G75*
G02*
X7648750Y2342000I-40000J0D01*
G01*
X7648750Y2342000D02*
G75*
G02*
X7728750Y2342000I40000J0D01*
G01*
X7782000Y1911250D02*
G75*
G02*
X7702000Y1911250I-40000J0D01*
G01*
X7702000Y1911250D02*
G75*
G02*
X7782000Y1911250I40000J0D01*
G01*
X7925000Y4348000D02*
G75*
G02*
X7845000Y4348000I-40000J0D01*
G01*
X7845000Y4348000D02*
G75*
G02*
X7925000Y4348000I40000J0D01*
G01*
X7990000Y5666000D02*
G75*
G02*
X7910000Y5666000I-40000J0D01*
G01*
X7910000Y5666000D02*
G75*
G02*
X7990000Y5666000I40000J0D01*
G01*
X7990000Y4650000D02*
G75*
G02*
X7910000Y4650000I-40000J0D01*
G01*
X7910000Y4650000D02*
G75*
G02*
X7990000Y4650000I40000J0D01*
G01*
X8248234Y6648000D02*
G75*
G02*
X8168234Y6648000I-40000J0D01*
G01*
X8168234Y6648000D02*
G75*
G02*
X8248234Y6648000I40000J0D01*
G01*
X8248234Y4348000D02*
G75*
G02*
X8168234Y4348000I-40000J0D01*
G01*
X8168234Y4348000D02*
G75*
G02*
X8248234Y4348000I40000J0D01*
G01*
X8326000Y3353115D02*
G75*
G02*
X8246000Y3353115I-40000J0D01*
G01*
X8246000Y3353115D02*
G75*
G02*
X8326000Y3353115I40000J0D01*
G01*
X8328000Y3633115D02*
G75*
G02*
X8248000Y3633115I-40000J0D01*
G01*
X8248000Y3633115D02*
G75*
G02*
X8328000Y3633115I40000J0D01*
G01*
X8328000Y3073115D02*
G75*
G02*
X8248000Y3073115I-40000J0D01*
G01*
X8248000Y3073115D02*
G75*
G02*
X8328000Y3073115I40000J0D01*
G01*
X8648000Y3888750D02*
G75*
G02*
X8568000Y3888750I-40000J0D01*
G01*
X8568000Y3888750D02*
G75*
G02*
X8648000Y3888750I40000J0D01*
G01*
X8798000Y1911250D02*
G75*
G02*
X8718000Y1911250I-40000J0D01*
G01*
X8718000Y1911250D02*
G75*
G02*
X8798000Y1911250I40000J0D01*
G01*
X8840000Y2900000D02*
G75*
G02*
X8760000Y2900000I-40000J0D01*
G01*
X8760000Y2900000D02*
G75*
G02*
X8840000Y2900000I40000J0D01*
G01*
X8840000Y2700000D02*
G75*
G02*
X8760000Y2700000I-40000J0D01*
G01*
X8760000Y2700000D02*
G75*
G02*
X8840000Y2700000I40000J0D01*
G01*
X9290000Y5944000D02*
G75*
G02*
X9210000Y5944000I-40000J0D01*
G01*
X9210000Y5944000D02*
G75*
G02*
X9290000Y5944000I40000J0D01*
G01*
X9290000Y5690000D02*
G75*
G02*
X9210000Y5690000I-40000J0D01*
G01*
X9210000Y5690000D02*
G75*
G02*
X9290000Y5690000I40000J0D01*
G01*
X9290000Y5436000D02*
G75*
G02*
X9210000Y5436000I-40000J0D01*
G01*
X9210000Y5436000D02*
G75*
G02*
X9290000Y5436000I40000J0D01*
G01*
X9290000Y5182000D02*
G75*
G02*
X9210000Y5182000I-40000J0D01*
G01*
X9210000Y5182000D02*
G75*
G02*
X9290000Y5182000I40000J0D01*
G01*
X9290000Y4928000D02*
G75*
G02*
X9210000Y4928000I-40000J0D01*
G01*
X9210000Y4928000D02*
G75*
G02*
X9290000Y4928000I40000J0D01*
G01*
X9290000Y4674000D02*
G75*
G02*
X9210000Y4674000I-40000J0D01*
G01*
X9210000Y4674000D02*
G75*
G02*
X9290000Y4674000I40000J0D01*
G01*
X9290000Y4420000D02*
G75*
G02*
X9210000Y4420000I-40000J0D01*
G01*
X9210000Y4420000D02*
G75*
G02*
X9290000Y4420000I40000J0D01*
G01*
X9290000Y4166000D02*
G75*
G02*
X9210000Y4166000I-40000J0D01*
G01*
X9210000Y4166000D02*
G75*
G02*
X9290000Y4166000I40000J0D01*
G01*
X9290000Y3912000D02*
G75*
G02*
X9210000Y3912000I-40000J0D01*
G01*
X9210000Y3912000D02*
G75*
G02*
X9290000Y3912000I40000J0D01*
G01*
X9290000Y3658000D02*
G75*
G02*
X9210000Y3658000I-40000J0D01*
G01*
X9210000Y3658000D02*
G75*
G02*
X9290000Y3658000I40000J0D01*
G01*
X9290000Y3404000D02*
G75*
G02*
X9210000Y3404000I-40000J0D01*
G01*
X9210000Y3404000D02*
G75*
G02*
X9290000Y3404000I40000J0D01*
G01*
X9290000Y3150000D02*
G75*
G02*
X9210000Y3150000I-40000J0D01*
G01*
X9210000Y3150000D02*
G75*
G02*
X9290000Y3150000I40000J0D01*
G01*
X9290000Y2896000D02*
G75*
G02*
X9210000Y2896000I-40000J0D01*
G01*
X9210000Y2896000D02*
G75*
G02*
X9290000Y2896000I40000J0D01*
G01*
X9290000Y2642000D02*
G75*
G02*
X9210000Y2642000I-40000J0D01*
G01*
X9210000Y2642000D02*
G75*
G02*
X9290000Y2642000I40000J0D01*
G01*
D11*
X158277Y-313984D02*
X158277Y-113984D01*
X158277Y-113984D02*
X205896Y-113984D01*
X205896Y-113984D02*
X234467Y-123508D01*
X234467Y-123508D02*
X253515Y-142555D01*
X253515Y-142555D02*
X263039Y-161603D01*
X263039Y-161603D02*
X272563Y-199698D01*
X272563Y-199698D02*
X272563Y-228269D01*
X272563Y-228269D02*
X263039Y-266365D01*
X263039Y-266365D02*
X253515Y-285412D01*
X253515Y-285412D02*
X234467Y-304460D01*
X234467Y-304460D02*
X205896Y-313984D01*
X205896Y-313984D02*
X158277Y-313984D01*
X358277Y-313984D02*
X358277Y-180650D01*
X358277Y-218746D02*
X367801Y-199698D01*
X367801Y-199698D02*
X377324Y-190174D01*
X377324Y-190174D02*
X396372Y-180650D01*
X396372Y-180650D02*
X415420Y-180650D01*
X482086Y-313984D02*
X482086Y-180650D01*
X482086Y-113984D02*
X472562Y-123508D01*
X472562Y-123508D02*
X482086Y-133031D01*
X482086Y-133031D02*
X491610Y-123508D01*
X491610Y-123508D02*
X482086Y-113984D01*
X482086Y-113984D02*
X482086Y-133031D01*
X605896Y-313984D02*
X586848Y-304460D01*
X586848Y-304460D02*
X577324Y-285412D01*
X577324Y-285412D02*
X577324Y-113984D01*
X710658Y-313984D02*
X691610Y-304460D01*
X691610Y-304460D02*
X682086Y-285412D01*
X682086Y-285412D02*
X682086Y-113984D01*
X939229Y-313984D02*
X939229Y-113984D01*
X939229Y-113984D02*
X1005896Y-256841D01*
X1005896Y-256841D02*
X1072563Y-113984D01*
X1072563Y-113984D02*
X1072563Y-313984D01*
X1253515Y-313984D02*
X1253515Y-209222D01*
X1253515Y-209222D02*
X1243991Y-190174D01*
X1243991Y-190174D02*
X1224944Y-180650D01*
X1224944Y-180650D02*
X1186848Y-180650D01*
X1186848Y-180650D02*
X1167801Y-190174D01*
X1253515Y-304460D02*
X1234467Y-313984D01*
X1234467Y-313984D02*
X1186848Y-313984D01*
X1186848Y-313984D02*
X1167801Y-304460D01*
X1167801Y-304460D02*
X1158277Y-285412D01*
X1158277Y-285412D02*
X1158277Y-266365D01*
X1158277Y-266365D02*
X1167801Y-247317D01*
X1167801Y-247317D02*
X1186848Y-237793D01*
X1186848Y-237793D02*
X1234467Y-237793D01*
X1234467Y-237793D02*
X1253515Y-228269D01*
X1348753Y-180650D02*
X1348753Y-380650D01*
X1348753Y-190174D02*
X1367801Y-180650D01*
X1367801Y-180650D02*
X1405896Y-180650D01*
X1405896Y-180650D02*
X1424943Y-190174D01*
X1424943Y-190174D02*
X1434467Y-199698D01*
X1434467Y-199698D02*
X1443991Y-218746D01*
X1443991Y-218746D02*
X1443991Y-275889D01*
X1443991Y-275889D02*
X1434467Y-294936D01*
X1434467Y-294936D02*
X1424943Y-304460D01*
X1424943Y-304460D02*
X1405896Y-313984D01*
X1405896Y-313984D02*
X1367801Y-313984D01*
X1367801Y-313984D02*
X1348753Y-304460D01*
X1529705Y-294936D02*
X1539229Y-304460D01*
X1539229Y-304460D02*
X1529705Y-313984D01*
X1529705Y-313984D02*
X1520182Y-304460D01*
X1520182Y-304460D02*
X1529705Y-294936D01*
X1529705Y-294936D02*
X1529705Y-313984D01*
X1529705Y-190174D02*
X1539229Y-199698D01*
X1539229Y-199698D02*
X1529705Y-209222D01*
X1529705Y-209222D02*
X1520182Y-199698D01*
X1520182Y-199698D02*
X1529705Y-190174D01*
X1529705Y-190174D02*
X1529705Y-209222D01*
D12*
X-182500Y-602500D02*
X-102500Y-682500D01*
X-102500Y-602500D02*
X-182500Y-682500D01*
D11*
X196372Y-533984D02*
X215420Y-533984D01*
X215420Y-533984D02*
X234467Y-543508D01*
X234467Y-543508D02*
X243991Y-553031D01*
X243991Y-553031D02*
X253515Y-572079D01*
X253515Y-572079D02*
X263039Y-610174D01*
X263039Y-610174D02*
X263039Y-657793D01*
X263039Y-657793D02*
X253515Y-695889D01*
X253515Y-695889D02*
X243991Y-714936D01*
X243991Y-714936D02*
X234467Y-724460D01*
X234467Y-724460D02*
X215420Y-733984D01*
X215420Y-733984D02*
X196372Y-733984D01*
X196372Y-733984D02*
X177324Y-724460D01*
X177324Y-724460D02*
X167801Y-714936D01*
X167801Y-714936D02*
X158277Y-695889D01*
X158277Y-695889D02*
X148753Y-657793D01*
X148753Y-657793D02*
X148753Y-610174D01*
X148753Y-610174D02*
X158277Y-572079D01*
X158277Y-572079D02*
X167801Y-553031D01*
X167801Y-553031D02*
X177324Y-543508D01*
X177324Y-543508D02*
X196372Y-533984D01*
X348753Y-714936D02*
X358277Y-724460D01*
X358277Y-724460D02*
X348753Y-733984D01*
X348753Y-733984D02*
X339229Y-724460D01*
X339229Y-724460D02*
X348753Y-714936D01*
X348753Y-714936D02*
X348753Y-733984D01*
X472562Y-619698D02*
X453515Y-610174D01*
X453515Y-610174D02*
X443991Y-600650D01*
X443991Y-600650D02*
X434467Y-581603D01*
X434467Y-581603D02*
X434467Y-572079D01*
X434467Y-572079D02*
X443991Y-553031D01*
X443991Y-553031D02*
X453515Y-543508D01*
X453515Y-543508D02*
X472562Y-533984D01*
X472562Y-533984D02*
X510658Y-533984D01*
X510658Y-533984D02*
X529705Y-543508D01*
X529705Y-543508D02*
X539229Y-553031D01*
X539229Y-553031D02*
X548753Y-572079D01*
X548753Y-572079D02*
X548753Y-581603D01*
X548753Y-581603D02*
X539229Y-600650D01*
X539229Y-600650D02*
X529705Y-610174D01*
X529705Y-610174D02*
X510658Y-619698D01*
X510658Y-619698D02*
X472562Y-619698D01*
X472562Y-619698D02*
X453515Y-629222D01*
X453515Y-629222D02*
X443991Y-638746D01*
X443991Y-638746D02*
X434467Y-657793D01*
X434467Y-657793D02*
X434467Y-695889D01*
X434467Y-695889D02*
X443991Y-714936D01*
X443991Y-714936D02*
X453515Y-724460D01*
X453515Y-724460D02*
X472562Y-733984D01*
X472562Y-733984D02*
X510658Y-733984D01*
X510658Y-733984D02*
X529705Y-724460D01*
X529705Y-724460D02*
X539229Y-714936D01*
X539229Y-714936D02*
X548753Y-695889D01*
X548753Y-695889D02*
X548753Y-657793D01*
X548753Y-657793D02*
X539229Y-638746D01*
X539229Y-638746D02*
X529705Y-629222D01*
X529705Y-629222D02*
X510658Y-619698D01*
X672563Y-533984D02*
X691610Y-533984D01*
X691610Y-533984D02*
X710658Y-543508D01*
X710658Y-543508D02*
X720182Y-553031D01*
X720182Y-553031D02*
X729705Y-572079D01*
X729705Y-572079D02*
X739229Y-610174D01*
X739229Y-610174D02*
X739229Y-657793D01*
X739229Y-657793D02*
X729705Y-695889D01*
X729705Y-695889D02*
X720182Y-714936D01*
X720182Y-714936D02*
X710658Y-724460D01*
X710658Y-724460D02*
X691610Y-733984D01*
X691610Y-733984D02*
X672563Y-733984D01*
X672563Y-733984D02*
X653515Y-724460D01*
X653515Y-724460D02*
X643991Y-714936D01*
X643991Y-714936D02*
X634467Y-695889D01*
X634467Y-695889D02*
X624944Y-657793D01*
X624944Y-657793D02*
X624944Y-610174D01*
X624944Y-610174D02*
X634467Y-572079D01*
X634467Y-572079D02*
X643991Y-553031D01*
X643991Y-553031D02*
X653515Y-543508D01*
X653515Y-543508D02*
X672563Y-533984D01*
X863039Y-533984D02*
X882086Y-533984D01*
X882086Y-533984D02*
X901134Y-543508D01*
X901134Y-543508D02*
X910658Y-553031D01*
X910658Y-553031D02*
X920182Y-572079D01*
X920182Y-572079D02*
X929705Y-610174D01*
X929705Y-610174D02*
X929705Y-657793D01*
X929705Y-657793D02*
X920182Y-695889D01*
X920182Y-695889D02*
X910658Y-714936D01*
X910658Y-714936D02*
X901134Y-724460D01*
X901134Y-724460D02*
X882086Y-733984D01*
X882086Y-733984D02*
X863039Y-733984D01*
X863039Y-733984D02*
X843991Y-724460D01*
X843991Y-724460D02*
X834467Y-714936D01*
X834467Y-714936D02*
X824943Y-695889D01*
X824943Y-695889D02*
X815420Y-657793D01*
X815420Y-657793D02*
X815420Y-610174D01*
X815420Y-610174D02*
X824943Y-572079D01*
X824943Y-572079D02*
X834467Y-553031D01*
X834467Y-553031D02*
X843991Y-543508D01*
X843991Y-543508D02*
X863039Y-533984D01*
X1015420Y-733984D02*
X1015420Y-600650D01*
X1015420Y-619698D02*
X1024943Y-610174D01*
X1024943Y-610174D02*
X1043991Y-600650D01*
X1043991Y-600650D02*
X1072563Y-600650D01*
X1072563Y-600650D02*
X1091610Y-610174D01*
X1091610Y-610174D02*
X1101134Y-629222D01*
X1101134Y-629222D02*
X1101134Y-733984D01*
X1101134Y-629222D02*
X1110658Y-610174D01*
X1110658Y-610174D02*
X1129705Y-600650D01*
X1129705Y-600650D02*
X1158277Y-600650D01*
X1158277Y-600650D02*
X1177325Y-610174D01*
X1177325Y-610174D02*
X1186848Y-629222D01*
X1186848Y-629222D02*
X1186848Y-733984D01*
X1282086Y-733984D02*
X1282086Y-600650D01*
X1282086Y-619698D02*
X1291610Y-610174D01*
X1291610Y-610174D02*
X1310658Y-600650D01*
X1310658Y-600650D02*
X1339229Y-600650D01*
X1339229Y-600650D02*
X1358277Y-610174D01*
X1358277Y-610174D02*
X1367801Y-629222D01*
X1367801Y-629222D02*
X1367801Y-733984D01*
X1367801Y-629222D02*
X1377325Y-610174D01*
X1377325Y-610174D02*
X1396372Y-600650D01*
X1396372Y-600650D02*
X1424943Y-600650D01*
X1424943Y-600650D02*
X1443991Y-610174D01*
X1443991Y-610174D02*
X1453515Y-629222D01*
X1453515Y-629222D02*
X1453515Y-733984D01*
X1843991Y-524460D02*
X1672563Y-781603D01*
X2101134Y-533984D02*
X2120182Y-533984D01*
X2120182Y-533984D02*
X2139229Y-543508D01*
X2139229Y-543508D02*
X2148753Y-553031D01*
X2148753Y-553031D02*
X2158277Y-572079D01*
X2158277Y-572079D02*
X2167801Y-610174D01*
X2167801Y-610174D02*
X2167801Y-657793D01*
X2167801Y-657793D02*
X2158277Y-695889D01*
X2158277Y-695889D02*
X2148753Y-714936D01*
X2148753Y-714936D02*
X2139229Y-724460D01*
X2139229Y-724460D02*
X2120182Y-733984D01*
X2120182Y-733984D02*
X2101134Y-733984D01*
X2101134Y-733984D02*
X2082086Y-724460D01*
X2082086Y-724460D02*
X2072563Y-714936D01*
X2072563Y-714936D02*
X2063039Y-695889D01*
X2063039Y-695889D02*
X2053515Y-657793D01*
X2053515Y-657793D02*
X2053515Y-610174D01*
X2053515Y-610174D02*
X2063039Y-572079D01*
X2063039Y-572079D02*
X2072563Y-553031D01*
X2072563Y-553031D02*
X2082086Y-543508D01*
X2082086Y-543508D02*
X2101134Y-533984D01*
X2253515Y-714936D02*
X2263039Y-724460D01*
X2263039Y-724460D02*
X2253515Y-733984D01*
X2253515Y-733984D02*
X2243991Y-724460D01*
X2243991Y-724460D02*
X2253515Y-714936D01*
X2253515Y-714936D02*
X2253515Y-733984D01*
X2386848Y-533984D02*
X2405896Y-533984D01*
X2405896Y-533984D02*
X2424944Y-543508D01*
X2424944Y-543508D02*
X2434468Y-553031D01*
X2434468Y-553031D02*
X2443991Y-572079D01*
X2443991Y-572079D02*
X2453515Y-610174D01*
X2453515Y-610174D02*
X2453515Y-657793D01*
X2453515Y-657793D02*
X2443991Y-695889D01*
X2443991Y-695889D02*
X2434468Y-714936D01*
X2434468Y-714936D02*
X2424944Y-724460D01*
X2424944Y-724460D02*
X2405896Y-733984D01*
X2405896Y-733984D02*
X2386848Y-733984D01*
X2386848Y-733984D02*
X2367801Y-724460D01*
X2367801Y-724460D02*
X2358277Y-714936D01*
X2358277Y-714936D02*
X2348753Y-695889D01*
X2348753Y-695889D02*
X2339229Y-657793D01*
X2339229Y-657793D02*
X2339229Y-610174D01*
X2339229Y-610174D02*
X2348753Y-572079D01*
X2348753Y-572079D02*
X2358277Y-553031D01*
X2358277Y-553031D02*
X2367801Y-543508D01*
X2367801Y-543508D02*
X2386848Y-533984D01*
X2520182Y-533984D02*
X2643991Y-533984D01*
X2643991Y-533984D02*
X2577325Y-610174D01*
X2577325Y-610174D02*
X2605896Y-610174D01*
X2605896Y-610174D02*
X2624944Y-619698D01*
X2624944Y-619698D02*
X2634468Y-629222D01*
X2634468Y-629222D02*
X2643991Y-648270D01*
X2643991Y-648270D02*
X2643991Y-695889D01*
X2643991Y-695889D02*
X2634468Y-714936D01*
X2634468Y-714936D02*
X2624944Y-724460D01*
X2624944Y-724460D02*
X2605896Y-733984D01*
X2605896Y-733984D02*
X2548753Y-733984D01*
X2548753Y-733984D02*
X2529706Y-724460D01*
X2529706Y-724460D02*
X2520182Y-714936D01*
X2834467Y-733984D02*
X2720182Y-733984D01*
X2777325Y-733984D02*
X2777325Y-533984D01*
X2777325Y-533984D02*
X2758277Y-562555D01*
X2758277Y-562555D02*
X2739229Y-581603D01*
X2739229Y-581603D02*
X2720182Y-591127D01*
X3015420Y-533984D02*
X2920182Y-533984D01*
X2920182Y-533984D02*
X2910658Y-629222D01*
X2910658Y-629222D02*
X2920182Y-619698D01*
X2920182Y-619698D02*
X2939229Y-610174D01*
X2939229Y-610174D02*
X2986848Y-610174D01*
X2986848Y-610174D02*
X3005896Y-619698D01*
X3005896Y-619698D02*
X3015420Y-629222D01*
X3015420Y-629222D02*
X3024944Y-648270D01*
X3024944Y-648270D02*
X3024944Y-695889D01*
X3024944Y-695889D02*
X3015420Y-714936D01*
X3015420Y-714936D02*
X3005896Y-724460D01*
X3005896Y-724460D02*
X2986848Y-733984D01*
X2986848Y-733984D02*
X2939229Y-733984D01*
X2939229Y-733984D02*
X2920182Y-724460D01*
X2920182Y-724460D02*
X2910658Y-714936D01*
X3101134Y-533984D02*
X3101134Y-572079D01*
X3177325Y-533984D02*
X3177325Y-572079D01*
X3472563Y-810174D02*
X3463039Y-800650D01*
X3463039Y-800650D02*
X3443991Y-772079D01*
X3443991Y-772079D02*
X3434468Y-753031D01*
X3434468Y-753031D02*
X3424944Y-724460D01*
X3424944Y-724460D02*
X3415420Y-676841D01*
X3415420Y-676841D02*
X3415420Y-638746D01*
X3415420Y-638746D02*
X3424944Y-591127D01*
X3424944Y-591127D02*
X3434468Y-562555D01*
X3434468Y-562555D02*
X3443991Y-543508D01*
X3443991Y-543508D02*
X3463039Y-514936D01*
X3463039Y-514936D02*
X3472563Y-505412D01*
X3529706Y-533984D02*
X3653515Y-533984D01*
X3653515Y-533984D02*
X3586848Y-610174D01*
X3586848Y-610174D02*
X3615420Y-610174D01*
X3615420Y-610174D02*
X3634468Y-619698D01*
X3634468Y-619698D02*
X3643991Y-629222D01*
X3643991Y-629222D02*
X3653515Y-648270D01*
X3653515Y-648270D02*
X3653515Y-695889D01*
X3653515Y-695889D02*
X3643991Y-714936D01*
X3643991Y-714936D02*
X3634468Y-724460D01*
X3634468Y-724460D02*
X3615420Y-733984D01*
X3615420Y-733984D02*
X3558277Y-733984D01*
X3558277Y-733984D02*
X3539229Y-724460D01*
X3539229Y-724460D02*
X3529706Y-714936D01*
X3729706Y-553031D02*
X3739229Y-543508D01*
X3739229Y-543508D02*
X3758277Y-533984D01*
X3758277Y-533984D02*
X3805896Y-533984D01*
X3805896Y-533984D02*
X3824944Y-543508D01*
X3824944Y-543508D02*
X3834468Y-553031D01*
X3834468Y-553031D02*
X3843991Y-572079D01*
X3843991Y-572079D02*
X3843991Y-591127D01*
X3843991Y-591127D02*
X3834468Y-619698D01*
X3834468Y-619698D02*
X3720182Y-733984D01*
X3720182Y-733984D02*
X3843991Y-733984D01*
X4082087Y-733984D02*
X4082087Y-533984D01*
X4167801Y-733984D02*
X4167801Y-629222D01*
X4167801Y-629222D02*
X4158277Y-610174D01*
X4158277Y-610174D02*
X4139230Y-600650D01*
X4139230Y-600650D02*
X4110658Y-600650D01*
X4110658Y-600650D02*
X4091610Y-610174D01*
X4091610Y-610174D02*
X4082087Y-619698D01*
X4291611Y-733984D02*
X4272563Y-724460D01*
X4272563Y-724460D02*
X4263039Y-714936D01*
X4263039Y-714936D02*
X4253515Y-695889D01*
X4253515Y-695889D02*
X4253515Y-638746D01*
X4253515Y-638746D02*
X4263039Y-619698D01*
X4263039Y-619698D02*
X4272563Y-610174D01*
X4272563Y-610174D02*
X4291611Y-600650D01*
X4291611Y-600650D02*
X4320182Y-600650D01*
X4320182Y-600650D02*
X4339230Y-610174D01*
X4339230Y-610174D02*
X4348753Y-619698D01*
X4348753Y-619698D02*
X4358277Y-638746D01*
X4358277Y-638746D02*
X4358277Y-695889D01*
X4358277Y-695889D02*
X4348753Y-714936D01*
X4348753Y-714936D02*
X4339230Y-724460D01*
X4339230Y-724460D02*
X4320182Y-733984D01*
X4320182Y-733984D02*
X4291611Y-733984D01*
X4472563Y-733984D02*
X4453515Y-724460D01*
X4453515Y-724460D02*
X4443992Y-705412D01*
X4443992Y-705412D02*
X4443992Y-533984D01*
X4624944Y-724460D02*
X4605896Y-733984D01*
X4605896Y-733984D02*
X4567801Y-733984D01*
X4567801Y-733984D02*
X4548753Y-724460D01*
X4548753Y-724460D02*
X4539230Y-705412D01*
X4539230Y-705412D02*
X4539230Y-629222D01*
X4539230Y-629222D02*
X4548753Y-610174D01*
X4548753Y-610174D02*
X4567801Y-600650D01*
X4567801Y-600650D02*
X4605896Y-600650D01*
X4605896Y-600650D02*
X4624944Y-610174D01*
X4624944Y-610174D02*
X4634468Y-629222D01*
X4634468Y-629222D02*
X4634468Y-648270D01*
X4634468Y-648270D02*
X4539230Y-667317D01*
X4710658Y-724460D02*
X4729706Y-733984D01*
X4729706Y-733984D02*
X4767801Y-733984D01*
X4767801Y-733984D02*
X4786849Y-724460D01*
X4786849Y-724460D02*
X4796373Y-705412D01*
X4796373Y-705412D02*
X4796373Y-695889D01*
X4796373Y-695889D02*
X4786849Y-676841D01*
X4786849Y-676841D02*
X4767801Y-667317D01*
X4767801Y-667317D02*
X4739230Y-667317D01*
X4739230Y-667317D02*
X4720182Y-657793D01*
X4720182Y-657793D02*
X4710658Y-638746D01*
X4710658Y-638746D02*
X4710658Y-629222D01*
X4710658Y-629222D02*
X4720182Y-610174D01*
X4720182Y-610174D02*
X4739230Y-600650D01*
X4739230Y-600650D02*
X4767801Y-600650D01*
X4767801Y-600650D02*
X4786849Y-610174D01*
X4863039Y-810174D02*
X4872563Y-800650D01*
X4872563Y-800650D02*
X4891611Y-772079D01*
X4891611Y-772079D02*
X4901134Y-753031D01*
X4901134Y-753031D02*
X4910658Y-724460D01*
X4910658Y-724460D02*
X4920182Y-676841D01*
X4920182Y-676841D02*
X4920182Y-638746D01*
X4920182Y-638746D02*
X4910658Y-591127D01*
X4910658Y-591127D02*
X4901134Y-562555D01*
X4901134Y-562555D02*
X4891611Y-543508D01*
X4891611Y-543508D02*
X4872563Y-514936D01*
X4872563Y-514936D02*
X4863039Y-505412D01*
D12*
X-102500Y-906500D02*
G75*
G02*
X-182500Y-906500I-40000J0D01*
G01*
X-182500Y-906500D02*
G75*
G02*
X-102500Y-906500I40000J0D01*
G01*
D11*
X196372Y-797984D02*
X215420Y-797984D01*
X215420Y-797984D02*
X234467Y-807508D01*
X234467Y-807508D02*
X243991Y-817031D01*
X243991Y-817031D02*
X253515Y-836079D01*
X253515Y-836079D02*
X263039Y-874174D01*
X263039Y-874174D02*
X263039Y-921793D01*
X263039Y-921793D02*
X253515Y-959888D01*
X253515Y-959888D02*
X243991Y-978936D01*
X243991Y-978936D02*
X234467Y-988460D01*
X234467Y-988460D02*
X215420Y-997984D01*
X215420Y-997984D02*
X196372Y-997984D01*
X196372Y-997984D02*
X177324Y-988460D01*
X177324Y-988460D02*
X167801Y-978936D01*
X167801Y-978936D02*
X158277Y-959888D01*
X158277Y-959888D02*
X148753Y-921793D01*
X148753Y-921793D02*
X148753Y-874174D01*
X148753Y-874174D02*
X158277Y-836079D01*
X158277Y-836079D02*
X167801Y-817031D01*
X167801Y-817031D02*
X177324Y-807508D01*
X177324Y-807508D02*
X196372Y-797984D01*
X348753Y-978936D02*
X358277Y-988460D01*
X358277Y-988460D02*
X348753Y-997984D01*
X348753Y-997984D02*
X339229Y-988460D01*
X339229Y-988460D02*
X348753Y-978936D01*
X348753Y-978936D02*
X348753Y-997984D01*
X472562Y-883698D02*
X453515Y-874174D01*
X453515Y-874174D02*
X443991Y-864650D01*
X443991Y-864650D02*
X434467Y-845603D01*
X434467Y-845603D02*
X434467Y-836079D01*
X434467Y-836079D02*
X443991Y-817031D01*
X443991Y-817031D02*
X453515Y-807508D01*
X453515Y-807508D02*
X472562Y-797984D01*
X472562Y-797984D02*
X510658Y-797984D01*
X510658Y-797984D02*
X529705Y-807508D01*
X529705Y-807508D02*
X539229Y-817031D01*
X539229Y-817031D02*
X548753Y-836079D01*
X548753Y-836079D02*
X548753Y-845603D01*
X548753Y-845603D02*
X539229Y-864650D01*
X539229Y-864650D02*
X529705Y-874174D01*
X529705Y-874174D02*
X510658Y-883698D01*
X510658Y-883698D02*
X472562Y-883698D01*
X472562Y-883698D02*
X453515Y-893222D01*
X453515Y-893222D02*
X443991Y-902746D01*
X443991Y-902746D02*
X434467Y-921793D01*
X434467Y-921793D02*
X434467Y-959888D01*
X434467Y-959888D02*
X443991Y-978936D01*
X443991Y-978936D02*
X453515Y-988460D01*
X453515Y-988460D02*
X472562Y-997984D01*
X472562Y-997984D02*
X510658Y-997984D01*
X510658Y-997984D02*
X529705Y-988460D01*
X529705Y-988460D02*
X539229Y-978936D01*
X539229Y-978936D02*
X548753Y-959888D01*
X548753Y-959888D02*
X548753Y-921793D01*
X548753Y-921793D02*
X539229Y-902746D01*
X539229Y-902746D02*
X529705Y-893222D01*
X529705Y-893222D02*
X510658Y-883698D01*
X672563Y-797984D02*
X691610Y-797984D01*
X691610Y-797984D02*
X710658Y-807508D01*
X710658Y-807508D02*
X720182Y-817031D01*
X720182Y-817031D02*
X729705Y-836079D01*
X729705Y-836079D02*
X739229Y-874174D01*
X739229Y-874174D02*
X739229Y-921793D01*
X739229Y-921793D02*
X729705Y-959888D01*
X729705Y-959888D02*
X720182Y-978936D01*
X720182Y-978936D02*
X710658Y-988460D01*
X710658Y-988460D02*
X691610Y-997984D01*
X691610Y-997984D02*
X672563Y-997984D01*
X672563Y-997984D02*
X653515Y-988460D01*
X653515Y-988460D02*
X643991Y-978936D01*
X643991Y-978936D02*
X634467Y-959888D01*
X634467Y-959888D02*
X624944Y-921793D01*
X624944Y-921793D02*
X624944Y-874174D01*
X624944Y-874174D02*
X634467Y-836079D01*
X634467Y-836079D02*
X643991Y-817031D01*
X643991Y-817031D02*
X653515Y-807508D01*
X653515Y-807508D02*
X672563Y-797984D01*
X863039Y-797984D02*
X882086Y-797984D01*
X882086Y-797984D02*
X901134Y-807508D01*
X901134Y-807508D02*
X910658Y-817031D01*
X910658Y-817031D02*
X920182Y-836079D01*
X920182Y-836079D02*
X929705Y-874174D01*
X929705Y-874174D02*
X929705Y-921793D01*
X929705Y-921793D02*
X920182Y-959888D01*
X920182Y-959888D02*
X910658Y-978936D01*
X910658Y-978936D02*
X901134Y-988460D01*
X901134Y-988460D02*
X882086Y-997984D01*
X882086Y-997984D02*
X863039Y-997984D01*
X863039Y-997984D02*
X843991Y-988460D01*
X843991Y-988460D02*
X834467Y-978936D01*
X834467Y-978936D02*
X824943Y-959888D01*
X824943Y-959888D02*
X815420Y-921793D01*
X815420Y-921793D02*
X815420Y-874174D01*
X815420Y-874174D02*
X824943Y-836079D01*
X824943Y-836079D02*
X834467Y-817031D01*
X834467Y-817031D02*
X843991Y-807508D01*
X843991Y-807508D02*
X863039Y-797984D01*
X1015420Y-997984D02*
X1015420Y-864650D01*
X1015420Y-883698D02*
X1024943Y-874174D01*
X1024943Y-874174D02*
X1043991Y-864650D01*
X1043991Y-864650D02*
X1072563Y-864650D01*
X1072563Y-864650D02*
X1091610Y-874174D01*
X1091610Y-874174D02*
X1101134Y-893222D01*
X1101134Y-893222D02*
X1101134Y-997984D01*
X1101134Y-893222D02*
X1110658Y-874174D01*
X1110658Y-874174D02*
X1129705Y-864650D01*
X1129705Y-864650D02*
X1158277Y-864650D01*
X1158277Y-864650D02*
X1177325Y-874174D01*
X1177325Y-874174D02*
X1186848Y-893222D01*
X1186848Y-893222D02*
X1186848Y-997984D01*
X1282086Y-997984D02*
X1282086Y-864650D01*
X1282086Y-883698D02*
X1291610Y-874174D01*
X1291610Y-874174D02*
X1310658Y-864650D01*
X1310658Y-864650D02*
X1339229Y-864650D01*
X1339229Y-864650D02*
X1358277Y-874174D01*
X1358277Y-874174D02*
X1367801Y-893222D01*
X1367801Y-893222D02*
X1367801Y-997984D01*
X1367801Y-893222D02*
X1377325Y-874174D01*
X1377325Y-874174D02*
X1396372Y-864650D01*
X1396372Y-864650D02*
X1424943Y-864650D01*
X1424943Y-864650D02*
X1443991Y-874174D01*
X1443991Y-874174D02*
X1453515Y-893222D01*
X1453515Y-893222D02*
X1453515Y-997984D01*
X1843991Y-788460D02*
X1672563Y-1045603D01*
X2101134Y-797984D02*
X2120182Y-797984D01*
X2120182Y-797984D02*
X2139229Y-807508D01*
X2139229Y-807508D02*
X2148753Y-817031D01*
X2148753Y-817031D02*
X2158277Y-836079D01*
X2158277Y-836079D02*
X2167801Y-874174D01*
X2167801Y-874174D02*
X2167801Y-921793D01*
X2167801Y-921793D02*
X2158277Y-959888D01*
X2158277Y-959888D02*
X2148753Y-978936D01*
X2148753Y-978936D02*
X2139229Y-988460D01*
X2139229Y-988460D02*
X2120182Y-997984D01*
X2120182Y-997984D02*
X2101134Y-997984D01*
X2101134Y-997984D02*
X2082086Y-988460D01*
X2082086Y-988460D02*
X2072563Y-978936D01*
X2072563Y-978936D02*
X2063039Y-959888D01*
X2063039Y-959888D02*
X2053515Y-921793D01*
X2053515Y-921793D02*
X2053515Y-874174D01*
X2053515Y-874174D02*
X2063039Y-836079D01*
X2063039Y-836079D02*
X2072563Y-817031D01*
X2072563Y-817031D02*
X2082086Y-807508D01*
X2082086Y-807508D02*
X2101134Y-797984D01*
X2253515Y-978936D02*
X2263039Y-988460D01*
X2263039Y-988460D02*
X2253515Y-997984D01*
X2253515Y-997984D02*
X2243991Y-988460D01*
X2243991Y-988460D02*
X2253515Y-978936D01*
X2253515Y-978936D02*
X2253515Y-997984D01*
X2386848Y-797984D02*
X2405896Y-797984D01*
X2405896Y-797984D02*
X2424944Y-807508D01*
X2424944Y-807508D02*
X2434468Y-817031D01*
X2434468Y-817031D02*
X2443991Y-836079D01*
X2443991Y-836079D02*
X2453515Y-874174D01*
X2453515Y-874174D02*
X2453515Y-921793D01*
X2453515Y-921793D02*
X2443991Y-959888D01*
X2443991Y-959888D02*
X2434468Y-978936D01*
X2434468Y-978936D02*
X2424944Y-988460D01*
X2424944Y-988460D02*
X2405896Y-997984D01*
X2405896Y-997984D02*
X2386848Y-997984D01*
X2386848Y-997984D02*
X2367801Y-988460D01*
X2367801Y-988460D02*
X2358277Y-978936D01*
X2358277Y-978936D02*
X2348753Y-959888D01*
X2348753Y-959888D02*
X2339229Y-921793D01*
X2339229Y-921793D02*
X2339229Y-874174D01*
X2339229Y-874174D02*
X2348753Y-836079D01*
X2348753Y-836079D02*
X2358277Y-817031D01*
X2358277Y-817031D02*
X2367801Y-807508D01*
X2367801Y-807508D02*
X2386848Y-797984D01*
X2520182Y-797984D02*
X2643991Y-797984D01*
X2643991Y-797984D02*
X2577325Y-874174D01*
X2577325Y-874174D02*
X2605896Y-874174D01*
X2605896Y-874174D02*
X2624944Y-883698D01*
X2624944Y-883698D02*
X2634468Y-893222D01*
X2634468Y-893222D02*
X2643991Y-912269D01*
X2643991Y-912269D02*
X2643991Y-959888D01*
X2643991Y-959888D02*
X2634468Y-978936D01*
X2634468Y-978936D02*
X2624944Y-988460D01*
X2624944Y-988460D02*
X2605896Y-997984D01*
X2605896Y-997984D02*
X2548753Y-997984D01*
X2548753Y-997984D02*
X2529706Y-988460D01*
X2529706Y-988460D02*
X2520182Y-978936D01*
X2834467Y-997984D02*
X2720182Y-997984D01*
X2777325Y-997984D02*
X2777325Y-797984D01*
X2777325Y-797984D02*
X2758277Y-826555D01*
X2758277Y-826555D02*
X2739229Y-845603D01*
X2739229Y-845603D02*
X2720182Y-855127D01*
X3015420Y-797984D02*
X2920182Y-797984D01*
X2920182Y-797984D02*
X2910658Y-893222D01*
X2910658Y-893222D02*
X2920182Y-883698D01*
X2920182Y-883698D02*
X2939229Y-874174D01*
X2939229Y-874174D02*
X2986848Y-874174D01*
X2986848Y-874174D02*
X3005896Y-883698D01*
X3005896Y-883698D02*
X3015420Y-893222D01*
X3015420Y-893222D02*
X3024944Y-912269D01*
X3024944Y-912269D02*
X3024944Y-959888D01*
X3024944Y-959888D02*
X3015420Y-978936D01*
X3015420Y-978936D02*
X3005896Y-988460D01*
X3005896Y-988460D02*
X2986848Y-997984D01*
X2986848Y-997984D02*
X2939229Y-997984D01*
X2939229Y-997984D02*
X2920182Y-988460D01*
X2920182Y-988460D02*
X2910658Y-978936D01*
X3101134Y-797984D02*
X3101134Y-836079D01*
X3177325Y-797984D02*
X3177325Y-836079D01*
X3472563Y-1074174D02*
X3463039Y-1064650D01*
X3463039Y-1064650D02*
X3443991Y-1036079D01*
X3443991Y-1036079D02*
X3434468Y-1017031D01*
X3434468Y-1017031D02*
X3424944Y-988460D01*
X3424944Y-988460D02*
X3415420Y-940841D01*
X3415420Y-940841D02*
X3415420Y-902746D01*
X3415420Y-902746D02*
X3424944Y-855127D01*
X3424944Y-855127D02*
X3434468Y-826555D01*
X3434468Y-826555D02*
X3443991Y-807508D01*
X3443991Y-807508D02*
X3463039Y-778936D01*
X3463039Y-778936D02*
X3472563Y-769412D01*
X3653515Y-997984D02*
X3539229Y-997984D01*
X3596372Y-997984D02*
X3596372Y-797984D01*
X3596372Y-797984D02*
X3577325Y-826555D01*
X3577325Y-826555D02*
X3558277Y-845603D01*
X3558277Y-845603D02*
X3539229Y-855127D01*
X3720182Y-797984D02*
X3843991Y-797984D01*
X3843991Y-797984D02*
X3777325Y-874174D01*
X3777325Y-874174D02*
X3805896Y-874174D01*
X3805896Y-874174D02*
X3824944Y-883698D01*
X3824944Y-883698D02*
X3834468Y-893222D01*
X3834468Y-893222D02*
X3843991Y-912269D01*
X3843991Y-912269D02*
X3843991Y-959888D01*
X3843991Y-959888D02*
X3834468Y-978936D01*
X3834468Y-978936D02*
X3824944Y-988460D01*
X3824944Y-988460D02*
X3805896Y-997984D01*
X3805896Y-997984D02*
X3748753Y-997984D01*
X3748753Y-997984D02*
X3729706Y-988460D01*
X3729706Y-988460D02*
X3720182Y-978936D01*
X3958277Y-883698D02*
X3939229Y-874174D01*
X3939229Y-874174D02*
X3929706Y-864650D01*
X3929706Y-864650D02*
X3920182Y-845603D01*
X3920182Y-845603D02*
X3920182Y-836079D01*
X3920182Y-836079D02*
X3929706Y-817031D01*
X3929706Y-817031D02*
X3939229Y-807508D01*
X3939229Y-807508D02*
X3958277Y-797984D01*
X3958277Y-797984D02*
X3996372Y-797984D01*
X3996372Y-797984D02*
X4015420Y-807508D01*
X4015420Y-807508D02*
X4024944Y-817031D01*
X4024944Y-817031D02*
X4034468Y-836079D01*
X4034468Y-836079D02*
X4034468Y-845603D01*
X4034468Y-845603D02*
X4024944Y-864650D01*
X4024944Y-864650D02*
X4015420Y-874174D01*
X4015420Y-874174D02*
X3996372Y-883698D01*
X3996372Y-883698D02*
X3958277Y-883698D01*
X3958277Y-883698D02*
X3939229Y-893222D01*
X3939229Y-893222D02*
X3929706Y-902746D01*
X3929706Y-902746D02*
X3920182Y-921793D01*
X3920182Y-921793D02*
X3920182Y-959888D01*
X3920182Y-959888D02*
X3929706Y-978936D01*
X3929706Y-978936D02*
X3939229Y-988460D01*
X3939229Y-988460D02*
X3958277Y-997984D01*
X3958277Y-997984D02*
X3996372Y-997984D01*
X3996372Y-997984D02*
X4015420Y-988460D01*
X4015420Y-988460D02*
X4024944Y-978936D01*
X4024944Y-978936D02*
X4034468Y-959888D01*
X4034468Y-959888D02*
X4034468Y-921793D01*
X4034468Y-921793D02*
X4024944Y-902746D01*
X4024944Y-902746D02*
X4015420Y-893222D01*
X4015420Y-893222D02*
X3996372Y-883698D01*
X4272563Y-997984D02*
X4272563Y-797984D01*
X4358277Y-997984D02*
X4358277Y-893222D01*
X4358277Y-893222D02*
X4348753Y-874174D01*
X4348753Y-874174D02*
X4329706Y-864650D01*
X4329706Y-864650D02*
X4301134Y-864650D01*
X4301134Y-864650D02*
X4282087Y-874174D01*
X4282087Y-874174D02*
X4272563Y-883698D01*
X4482087Y-997984D02*
X4463039Y-988460D01*
X4463039Y-988460D02*
X4453515Y-978936D01*
X4453515Y-978936D02*
X4443992Y-959888D01*
X4443992Y-959888D02*
X4443992Y-902746D01*
X4443992Y-902746D02*
X4453515Y-883698D01*
X4453515Y-883698D02*
X4463039Y-874174D01*
X4463039Y-874174D02*
X4482087Y-864650D01*
X4482087Y-864650D02*
X4510658Y-864650D01*
X4510658Y-864650D02*
X4529706Y-874174D01*
X4529706Y-874174D02*
X4539230Y-883698D01*
X4539230Y-883698D02*
X4548753Y-902746D01*
X4548753Y-902746D02*
X4548753Y-959888D01*
X4548753Y-959888D02*
X4539230Y-978936D01*
X4539230Y-978936D02*
X4529706Y-988460D01*
X4529706Y-988460D02*
X4510658Y-997984D01*
X4510658Y-997984D02*
X4482087Y-997984D01*
X4663039Y-997984D02*
X4643992Y-988460D01*
X4643992Y-988460D02*
X4634468Y-969412D01*
X4634468Y-969412D02*
X4634468Y-797984D01*
X4815420Y-988460D02*
X4796373Y-997984D01*
X4796373Y-997984D02*
X4758277Y-997984D01*
X4758277Y-997984D02*
X4739230Y-988460D01*
X4739230Y-988460D02*
X4729706Y-969412D01*
X4729706Y-969412D02*
X4729706Y-893222D01*
X4729706Y-893222D02*
X4739230Y-874174D01*
X4739230Y-874174D02*
X4758277Y-864650D01*
X4758277Y-864650D02*
X4796373Y-864650D01*
X4796373Y-864650D02*
X4815420Y-874174D01*
X4815420Y-874174D02*
X4824944Y-893222D01*
X4824944Y-893222D02*
X4824944Y-912269D01*
X4824944Y-912269D02*
X4729706Y-931317D01*
X4901134Y-988460D02*
X4920182Y-997984D01*
X4920182Y-997984D02*
X4958277Y-997984D01*
X4958277Y-997984D02*
X4977325Y-988460D01*
X4977325Y-988460D02*
X4986849Y-969412D01*
X4986849Y-969412D02*
X4986849Y-959888D01*
X4986849Y-959888D02*
X4977325Y-940841D01*
X4977325Y-940841D02*
X4958277Y-931317D01*
X4958277Y-931317D02*
X4929706Y-931317D01*
X4929706Y-931317D02*
X4910658Y-921793D01*
X4910658Y-921793D02*
X4901134Y-902746D01*
X4901134Y-902746D02*
X4901134Y-893222D01*
X4901134Y-893222D02*
X4910658Y-874174D01*
X4910658Y-874174D02*
X4929706Y-864650D01*
X4929706Y-864650D02*
X4958277Y-864650D01*
X4958277Y-864650D02*
X4977325Y-874174D01*
X5053515Y-1074174D02*
X5063039Y-1064650D01*
X5063039Y-1064650D02*
X5082087Y-1036079D01*
X5082087Y-1036079D02*
X5091611Y-1017031D01*
X5091611Y-1017031D02*
X5101134Y-988460D01*
X5101134Y-988460D02*
X5110658Y-940841D01*
X5110658Y-940841D02*
X5110658Y-902746D01*
X5110658Y-902746D02*
X5101134Y-855127D01*
X5101134Y-855127D02*
X5091611Y-826555D01*
X5091611Y-826555D02*
X5082087Y-807508D01*
X5082087Y-807508D02*
X5063039Y-778936D01*
X5063039Y-778936D02*
X5053515Y-769412D01*
M02*
