G04 #@! TF.GenerationSoftware,KiCad,Pcbnew,9.0.4*
G04 #@! TF.CreationDate,2025-10-16T22:23:07+02:00*
G04 #@! TF.ProjectId,fotoaparat,666f746f-6170-4617-9261-742e6b696361,rev?*
G04 #@! TF.SameCoordinates,Original*
G04 #@! TF.FileFunction,Legend,Top*
G04 #@! TF.FilePolarity,Positive*
%FSLAX46Y46*%
G04 Gerber Fmt 4.6, Leading zero omitted, Abs format (unit mm)*
G04 Created by KiCad (PCBNEW 9.0.4) date 2025-10-16 22:23:07*
%MOMM*%
%LPD*%
G01*
G04 APERTURE LIST*
G04 Aperture macros list*
%AMRoundRect*
0 Rectangle with rounded corners*
0 $1 Rounding radius*
0 $2 $3 $4 $5 $6 $7 $8 $9 X,Y pos of 4 corners*
0 Add a 4 corners polygon primitive as box body*
4,1,4,$2,$3,$4,$5,$6,$7,$8,$9,$2,$3,0*
0 Add four circle primitives for the rounded corners*
1,1,$1+$1,$2,$3*
1,1,$1+$1,$4,$5*
1,1,$1+$1,$6,$7*
1,1,$1+$1,$8,$9*
0 Add four rect primitives between the rounded corners*
20,1,$1+$1,$2,$3,$4,$5,0*
20,1,$1+$1,$4,$5,$6,$7,0*
20,1,$1+$1,$6,$7,$8,$9,0*
20,1,$1+$1,$8,$9,$2,$3,0*%
G04 Aperture macros list end*
%ADD10C,0.150000*%
%ADD11C,0.250000*%
%ADD12C,0.254000*%
%ADD13C,0.200000*%
%ADD14C,0.100000*%
%ADD15C,0.152400*%
%ADD16C,0.120000*%
%ADD17C,0.000000*%
%ADD18C,1.575000*%
%ADD19R,1.498600X0.990600*%
%ADD20R,1.498600X0.711200*%
%ADD21R,2.794000X1.498600*%
%ADD22RoundRect,0.250000X0.475000X-0.337500X0.475000X0.337500X-0.475000X0.337500X-0.475000X-0.337500X0*%
%ADD23RoundRect,0.250000X-0.475000X0.337500X-0.475000X-0.337500X0.475000X-0.337500X0.475000X0.337500X0*%
%ADD24R,1.700000X1.700000*%
%ADD25C,1.700000*%
%ADD26RoundRect,0.075000X-0.700000X-0.075000X0.700000X-0.075000X0.700000X0.075000X-0.700000X0.075000X0*%
%ADD27RoundRect,0.075000X-0.075000X-0.700000X0.075000X-0.700000X0.075000X0.700000X-0.075000X0.700000X0*%
%ADD28R,1.380000X0.450000*%
%ADD29R,1.550000X1.425000*%
%ADD30R,1.300000X1.650000*%
%ADD31R,1.900000X1.800000*%
%ADD32R,1.900000X1.000000*%
%ADD33C,3.200000*%
%ADD34RoundRect,0.250000X-0.325000X-0.450000X0.325000X-0.450000X0.325000X0.450000X-0.325000X0.450000X0*%
%ADD35RoundRect,0.162500X-0.837500X-0.162500X0.837500X-0.162500X0.837500X0.162500X-0.837500X0.162500X0*%
%ADD36RoundRect,0.250000X-0.350000X-0.450000X0.350000X-0.450000X0.350000X0.450000X-0.350000X0.450000X0*%
%ADD37RoundRect,0.250000X-0.337500X-0.475000X0.337500X-0.475000X0.337500X0.475000X-0.337500X0.475000X0*%
%ADD38RoundRect,0.250000X0.450000X-0.350000X0.450000X0.350000X-0.450000X0.350000X-0.450000X-0.350000X0*%
%ADD39RoundRect,0.250000X0.350000X0.450000X-0.350000X0.450000X-0.350000X-0.450000X0.350000X-0.450000X0*%
%ADD40RoundRect,0.250000X-0.350000X0.275000X-0.350000X-0.275000X0.350000X-0.275000X0.350000X0.275000X0*%
%ADD41RoundRect,0.102000X0.750000X-0.300000X0.750000X0.300000X-0.750000X0.300000X-0.750000X-0.300000X0*%
%ADD42RoundRect,0.102000X0.750000X-0.400000X0.750000X0.400000X-0.750000X0.400000X-0.750000X-0.400000X0*%
%ADD43R,1.192000X1.192000*%
%ADD44C,1.192000*%
%ADD45RoundRect,0.250000X0.337500X0.475000X-0.337500X0.475000X-0.337500X-0.475000X0.337500X-0.475000X0*%
%ADD46RoundRect,0.250000X-0.550000X-0.850000X0.550000X-0.850000X0.550000X0.850000X-0.550000X0.850000X0*%
%ADD47RoundRect,0.250000X-0.450000X0.350000X-0.450000X-0.350000X0.450000X-0.350000X0.450000X0.350000X0*%
%ADD48C,1.500000*%
%ADD49C,2.250000*%
%ADD50R,1.512799X0.330200*%
%ADD51R,1.000000X2.500000*%
G04 APERTURE END LIST*
D10*
X150365350Y-85822200D02*
X150270112Y-85869819D01*
X150270112Y-85869819D02*
X150079636Y-85869819D01*
X150079636Y-85869819D02*
X149984398Y-85822200D01*
X149984398Y-85822200D02*
X149936779Y-85774580D01*
X149936779Y-85774580D02*
X149889160Y-85679342D01*
X149889160Y-85679342D02*
X149889160Y-85393628D01*
X149889160Y-85393628D02*
X149936779Y-85298390D01*
X149936779Y-85298390D02*
X149984398Y-85250771D01*
X149984398Y-85250771D02*
X150079636Y-85203152D01*
X150079636Y-85203152D02*
X150270112Y-85203152D01*
X150270112Y-85203152D02*
X150365350Y-85250771D01*
X150936779Y-85869819D02*
X150841541Y-85822200D01*
X150841541Y-85822200D02*
X150793922Y-85726961D01*
X150793922Y-85726961D02*
X150793922Y-84869819D01*
X151317732Y-85869819D02*
X151317732Y-84869819D01*
X151412970Y-85488866D02*
X151698684Y-85869819D01*
X151698684Y-85203152D02*
X151317732Y-85584104D01*
X125393922Y-120703152D02*
X125774874Y-120703152D01*
X125536779Y-120369819D02*
X125536779Y-121226961D01*
X125536779Y-121226961D02*
X125584398Y-121322200D01*
X125584398Y-121322200D02*
X125679636Y-121369819D01*
X125679636Y-121369819D02*
X125774874Y-121369819D01*
X126012970Y-121369819D02*
X126536779Y-120703152D01*
X126012970Y-120703152D02*
X126536779Y-121369819D01*
X154741541Y-84869819D02*
X155360588Y-84869819D01*
X155360588Y-84869819D02*
X155027255Y-85250771D01*
X155027255Y-85250771D02*
X155170112Y-85250771D01*
X155170112Y-85250771D02*
X155265350Y-85298390D01*
X155265350Y-85298390D02*
X155312969Y-85346009D01*
X155312969Y-85346009D02*
X155360588Y-85441247D01*
X155360588Y-85441247D02*
X155360588Y-85679342D01*
X155360588Y-85679342D02*
X155312969Y-85774580D01*
X155312969Y-85774580D02*
X155265350Y-85822200D01*
X155265350Y-85822200D02*
X155170112Y-85869819D01*
X155170112Y-85869819D02*
X154884398Y-85869819D01*
X154884398Y-85869819D02*
X154789160Y-85822200D01*
X154789160Y-85822200D02*
X154741541Y-85774580D01*
X155789160Y-85774580D02*
X155836779Y-85822200D01*
X155836779Y-85822200D02*
X155789160Y-85869819D01*
X155789160Y-85869819D02*
X155741541Y-85822200D01*
X155741541Y-85822200D02*
X155789160Y-85774580D01*
X155789160Y-85774580D02*
X155789160Y-85869819D01*
X156170112Y-84869819D02*
X156789159Y-84869819D01*
X156789159Y-84869819D02*
X156455826Y-85250771D01*
X156455826Y-85250771D02*
X156598683Y-85250771D01*
X156598683Y-85250771D02*
X156693921Y-85298390D01*
X156693921Y-85298390D02*
X156741540Y-85346009D01*
X156741540Y-85346009D02*
X156789159Y-85441247D01*
X156789159Y-85441247D02*
X156789159Y-85679342D01*
X156789159Y-85679342D02*
X156741540Y-85774580D01*
X156741540Y-85774580D02*
X156693921Y-85822200D01*
X156693921Y-85822200D02*
X156598683Y-85869819D01*
X156598683Y-85869819D02*
X156312969Y-85869819D01*
X156312969Y-85869819D02*
X156217731Y-85822200D01*
X156217731Y-85822200D02*
X156170112Y-85774580D01*
X157122493Y-85203152D02*
X157360588Y-85869819D01*
X157360588Y-85869819D02*
X157598683Y-85203152D01*
X93365350Y-114803152D02*
X93365350Y-115612676D01*
X93365350Y-115612676D02*
X93317731Y-115707914D01*
X93317731Y-115707914D02*
X93270112Y-115755533D01*
X93270112Y-115755533D02*
X93174874Y-115803152D01*
X93174874Y-115803152D02*
X93032017Y-115803152D01*
X93032017Y-115803152D02*
X92936779Y-115755533D01*
X93365350Y-115422200D02*
X93270112Y-115469819D01*
X93270112Y-115469819D02*
X93079636Y-115469819D01*
X93079636Y-115469819D02*
X92984398Y-115422200D01*
X92984398Y-115422200D02*
X92936779Y-115374580D01*
X92936779Y-115374580D02*
X92889160Y-115279342D01*
X92889160Y-115279342D02*
X92889160Y-114993628D01*
X92889160Y-114993628D02*
X92936779Y-114898390D01*
X92936779Y-114898390D02*
X92984398Y-114850771D01*
X92984398Y-114850771D02*
X93079636Y-114803152D01*
X93079636Y-114803152D02*
X93270112Y-114803152D01*
X93270112Y-114803152D02*
X93365350Y-114850771D01*
X93841541Y-114803152D02*
X93841541Y-115469819D01*
X93841541Y-114898390D02*
X93889160Y-114850771D01*
X93889160Y-114850771D02*
X93984398Y-114803152D01*
X93984398Y-114803152D02*
X94127255Y-114803152D01*
X94127255Y-114803152D02*
X94222493Y-114850771D01*
X94222493Y-114850771D02*
X94270112Y-114946009D01*
X94270112Y-114946009D02*
X94270112Y-115469819D01*
X95174874Y-115469819D02*
X95174874Y-114469819D01*
X95174874Y-115422200D02*
X95079636Y-115469819D01*
X95079636Y-115469819D02*
X94889160Y-115469819D01*
X94889160Y-115469819D02*
X94793922Y-115422200D01*
X94793922Y-115422200D02*
X94746303Y-115374580D01*
X94746303Y-115374580D02*
X94698684Y-115279342D01*
X94698684Y-115279342D02*
X94698684Y-114993628D01*
X94698684Y-114993628D02*
X94746303Y-114898390D01*
X94746303Y-114898390D02*
X94793922Y-114850771D01*
X94793922Y-114850771D02*
X94889160Y-114803152D01*
X94889160Y-114803152D02*
X95079636Y-114803152D01*
X95079636Y-114803152D02*
X95174874Y-114850771D01*
D11*
X96335901Y-109440809D02*
X96478758Y-109488428D01*
X96478758Y-109488428D02*
X96526377Y-109536047D01*
X96526377Y-109536047D02*
X96573996Y-109631285D01*
X96573996Y-109631285D02*
X96573996Y-109774142D01*
X96573996Y-109774142D02*
X96526377Y-109869380D01*
X96526377Y-109869380D02*
X96478758Y-109917000D01*
X96478758Y-109917000D02*
X96383520Y-109964619D01*
X96383520Y-109964619D02*
X96002568Y-109964619D01*
X96002568Y-109964619D02*
X96002568Y-108964619D01*
X96002568Y-108964619D02*
X96335901Y-108964619D01*
X96335901Y-108964619D02*
X96431139Y-109012238D01*
X96431139Y-109012238D02*
X96478758Y-109059857D01*
X96478758Y-109059857D02*
X96526377Y-109155095D01*
X96526377Y-109155095D02*
X96526377Y-109250333D01*
X96526377Y-109250333D02*
X96478758Y-109345571D01*
X96478758Y-109345571D02*
X96431139Y-109393190D01*
X96431139Y-109393190D02*
X96335901Y-109440809D01*
X96335901Y-109440809D02*
X96002568Y-109440809D01*
X97431139Y-109964619D02*
X97431139Y-109440809D01*
X97431139Y-109440809D02*
X97383520Y-109345571D01*
X97383520Y-109345571D02*
X97288282Y-109297952D01*
X97288282Y-109297952D02*
X97097806Y-109297952D01*
X97097806Y-109297952D02*
X97002568Y-109345571D01*
X97431139Y-109917000D02*
X97335901Y-109964619D01*
X97335901Y-109964619D02*
X97097806Y-109964619D01*
X97097806Y-109964619D02*
X97002568Y-109917000D01*
X97002568Y-109917000D02*
X96954949Y-109821761D01*
X96954949Y-109821761D02*
X96954949Y-109726523D01*
X96954949Y-109726523D02*
X97002568Y-109631285D01*
X97002568Y-109631285D02*
X97097806Y-109583666D01*
X97097806Y-109583666D02*
X97335901Y-109583666D01*
X97335901Y-109583666D02*
X97431139Y-109536047D01*
X97764473Y-109297952D02*
X98145425Y-109297952D01*
X97907330Y-108964619D02*
X97907330Y-109821761D01*
X97907330Y-109821761D02*
X97954949Y-109917000D01*
X97954949Y-109917000D02*
X98050187Y-109964619D01*
X98050187Y-109964619D02*
X98145425Y-109964619D01*
X98335902Y-109297952D02*
X98716854Y-109297952D01*
X98478759Y-108964619D02*
X98478759Y-109821761D01*
X98478759Y-109821761D02*
X98526378Y-109917000D01*
X98526378Y-109917000D02*
X98621616Y-109964619D01*
X98621616Y-109964619D02*
X98716854Y-109964619D01*
X99431140Y-109917000D02*
X99335902Y-109964619D01*
X99335902Y-109964619D02*
X99145426Y-109964619D01*
X99145426Y-109964619D02*
X99050188Y-109917000D01*
X99050188Y-109917000D02*
X99002569Y-109821761D01*
X99002569Y-109821761D02*
X99002569Y-109440809D01*
X99002569Y-109440809D02*
X99050188Y-109345571D01*
X99050188Y-109345571D02*
X99145426Y-109297952D01*
X99145426Y-109297952D02*
X99335902Y-109297952D01*
X99335902Y-109297952D02*
X99431140Y-109345571D01*
X99431140Y-109345571D02*
X99478759Y-109440809D01*
X99478759Y-109440809D02*
X99478759Y-109536047D01*
X99478759Y-109536047D02*
X99002569Y-109631285D01*
X99907331Y-109964619D02*
X99907331Y-109297952D01*
X99907331Y-109488428D02*
X99954950Y-109393190D01*
X99954950Y-109393190D02*
X100002569Y-109345571D01*
X100002569Y-109345571D02*
X100097807Y-109297952D01*
X100097807Y-109297952D02*
X100193045Y-109297952D01*
X100431141Y-109297952D02*
X100669236Y-109964619D01*
X100907331Y-109297952D02*
X100669236Y-109964619D01*
X100669236Y-109964619D02*
X100573998Y-110202714D01*
X100573998Y-110202714D02*
X100526379Y-110250333D01*
X100526379Y-110250333D02*
X100431141Y-110297952D01*
D10*
X101936779Y-115088866D02*
X102698684Y-115088866D01*
X102317731Y-115469819D02*
X102317731Y-114707914D01*
X103174874Y-115469819D02*
X103174874Y-114469819D01*
X103174874Y-114850771D02*
X103270112Y-114803152D01*
X103270112Y-114803152D02*
X103460588Y-114803152D01*
X103460588Y-114803152D02*
X103555826Y-114850771D01*
X103555826Y-114850771D02*
X103603445Y-114898390D01*
X103603445Y-114898390D02*
X103651064Y-114993628D01*
X103651064Y-114993628D02*
X103651064Y-115279342D01*
X103651064Y-115279342D02*
X103603445Y-115374580D01*
X103603445Y-115374580D02*
X103555826Y-115422200D01*
X103555826Y-115422200D02*
X103460588Y-115469819D01*
X103460588Y-115469819D02*
X103270112Y-115469819D01*
X103270112Y-115469819D02*
X103174874Y-115422200D01*
X104508207Y-115469819D02*
X104508207Y-114946009D01*
X104508207Y-114946009D02*
X104460588Y-114850771D01*
X104460588Y-114850771D02*
X104365350Y-114803152D01*
X104365350Y-114803152D02*
X104174874Y-114803152D01*
X104174874Y-114803152D02*
X104079636Y-114850771D01*
X104508207Y-115422200D02*
X104412969Y-115469819D01*
X104412969Y-115469819D02*
X104174874Y-115469819D01*
X104174874Y-115469819D02*
X104079636Y-115422200D01*
X104079636Y-115422200D02*
X104032017Y-115326961D01*
X104032017Y-115326961D02*
X104032017Y-115231723D01*
X104032017Y-115231723D02*
X104079636Y-115136485D01*
X104079636Y-115136485D02*
X104174874Y-115088866D01*
X104174874Y-115088866D02*
X104412969Y-115088866D01*
X104412969Y-115088866D02*
X104508207Y-115041247D01*
X104841541Y-114803152D02*
X105222493Y-114803152D01*
X104984398Y-114469819D02*
X104984398Y-115326961D01*
X104984398Y-115326961D02*
X105032017Y-115422200D01*
X105032017Y-115422200D02*
X105127255Y-115469819D01*
X105127255Y-115469819D02*
X105222493Y-115469819D01*
X128536779Y-121369819D02*
X128536779Y-120703152D01*
X128536779Y-120893628D02*
X128584398Y-120798390D01*
X128584398Y-120798390D02*
X128632017Y-120750771D01*
X128632017Y-120750771D02*
X128727255Y-120703152D01*
X128727255Y-120703152D02*
X128822493Y-120703152D01*
X129060589Y-121369819D02*
X129584398Y-120703152D01*
X129060589Y-120703152D02*
X129584398Y-121369819D01*
X147065350Y-85103152D02*
X147065350Y-85912676D01*
X147065350Y-85912676D02*
X147017731Y-86007914D01*
X147017731Y-86007914D02*
X146970112Y-86055533D01*
X146970112Y-86055533D02*
X146874874Y-86103152D01*
X146874874Y-86103152D02*
X146732017Y-86103152D01*
X146732017Y-86103152D02*
X146636779Y-86055533D01*
X147065350Y-85722200D02*
X146970112Y-85769819D01*
X146970112Y-85769819D02*
X146779636Y-85769819D01*
X146779636Y-85769819D02*
X146684398Y-85722200D01*
X146684398Y-85722200D02*
X146636779Y-85674580D01*
X146636779Y-85674580D02*
X146589160Y-85579342D01*
X146589160Y-85579342D02*
X146589160Y-85293628D01*
X146589160Y-85293628D02*
X146636779Y-85198390D01*
X146636779Y-85198390D02*
X146684398Y-85150771D01*
X146684398Y-85150771D02*
X146779636Y-85103152D01*
X146779636Y-85103152D02*
X146970112Y-85103152D01*
X146970112Y-85103152D02*
X147065350Y-85150771D01*
X147541541Y-85103152D02*
X147541541Y-85769819D01*
X147541541Y-85198390D02*
X147589160Y-85150771D01*
X147589160Y-85150771D02*
X147684398Y-85103152D01*
X147684398Y-85103152D02*
X147827255Y-85103152D01*
X147827255Y-85103152D02*
X147922493Y-85150771D01*
X147922493Y-85150771D02*
X147970112Y-85246009D01*
X147970112Y-85246009D02*
X147970112Y-85769819D01*
X148874874Y-85769819D02*
X148874874Y-84769819D01*
X148874874Y-85722200D02*
X148779636Y-85769819D01*
X148779636Y-85769819D02*
X148589160Y-85769819D01*
X148589160Y-85769819D02*
X148493922Y-85722200D01*
X148493922Y-85722200D02*
X148446303Y-85674580D01*
X148446303Y-85674580D02*
X148398684Y-85579342D01*
X148398684Y-85579342D02*
X148398684Y-85293628D01*
X148398684Y-85293628D02*
X148446303Y-85198390D01*
X148446303Y-85198390D02*
X148493922Y-85150771D01*
X148493922Y-85150771D02*
X148589160Y-85103152D01*
X148589160Y-85103152D02*
X148779636Y-85103152D01*
X148779636Y-85103152D02*
X148874874Y-85150771D01*
X101565350Y-128303152D02*
X101565350Y-129112676D01*
X101565350Y-129112676D02*
X101517731Y-129207914D01*
X101517731Y-129207914D02*
X101470112Y-129255533D01*
X101470112Y-129255533D02*
X101374874Y-129303152D01*
X101374874Y-129303152D02*
X101232017Y-129303152D01*
X101232017Y-129303152D02*
X101136779Y-129255533D01*
X101565350Y-128922200D02*
X101470112Y-128969819D01*
X101470112Y-128969819D02*
X101279636Y-128969819D01*
X101279636Y-128969819D02*
X101184398Y-128922200D01*
X101184398Y-128922200D02*
X101136779Y-128874580D01*
X101136779Y-128874580D02*
X101089160Y-128779342D01*
X101089160Y-128779342D02*
X101089160Y-128493628D01*
X101089160Y-128493628D02*
X101136779Y-128398390D01*
X101136779Y-128398390D02*
X101184398Y-128350771D01*
X101184398Y-128350771D02*
X101279636Y-128303152D01*
X101279636Y-128303152D02*
X101470112Y-128303152D01*
X101470112Y-128303152D02*
X101565350Y-128350771D01*
X102041541Y-128303152D02*
X102041541Y-128969819D01*
X102041541Y-128398390D02*
X102089160Y-128350771D01*
X102089160Y-128350771D02*
X102184398Y-128303152D01*
X102184398Y-128303152D02*
X102327255Y-128303152D01*
X102327255Y-128303152D02*
X102422493Y-128350771D01*
X102422493Y-128350771D02*
X102470112Y-128446009D01*
X102470112Y-128446009D02*
X102470112Y-128969819D01*
X103374874Y-128969819D02*
X103374874Y-127969819D01*
X103374874Y-128922200D02*
X103279636Y-128969819D01*
X103279636Y-128969819D02*
X103089160Y-128969819D01*
X103089160Y-128969819D02*
X102993922Y-128922200D01*
X102993922Y-128922200D02*
X102946303Y-128874580D01*
X102946303Y-128874580D02*
X102898684Y-128779342D01*
X102898684Y-128779342D02*
X102898684Y-128493628D01*
X102898684Y-128493628D02*
X102946303Y-128398390D01*
X102946303Y-128398390D02*
X102993922Y-128350771D01*
X102993922Y-128350771D02*
X103089160Y-128303152D01*
X103089160Y-128303152D02*
X103279636Y-128303152D01*
X103279636Y-128303152D02*
X103374874Y-128350771D01*
X152736779Y-85869819D02*
X152736779Y-85203152D01*
X152736779Y-84869819D02*
X152689160Y-84917438D01*
X152689160Y-84917438D02*
X152736779Y-84965057D01*
X152736779Y-84965057D02*
X152784398Y-84917438D01*
X152784398Y-84917438D02*
X152736779Y-84869819D01*
X152736779Y-84869819D02*
X152736779Y-84965057D01*
X153355826Y-85869819D02*
X153260588Y-85822200D01*
X153260588Y-85822200D02*
X153212969Y-85774580D01*
X153212969Y-85774580D02*
X153165350Y-85679342D01*
X153165350Y-85679342D02*
X153165350Y-85393628D01*
X153165350Y-85393628D02*
X153212969Y-85298390D01*
X153212969Y-85298390D02*
X153260588Y-85250771D01*
X153260588Y-85250771D02*
X153355826Y-85203152D01*
X153355826Y-85203152D02*
X153498683Y-85203152D01*
X153498683Y-85203152D02*
X153593921Y-85250771D01*
X153593921Y-85250771D02*
X153641540Y-85298390D01*
X153641540Y-85298390D02*
X153689159Y-85393628D01*
X153689159Y-85393628D02*
X153689159Y-85679342D01*
X153689159Y-85679342D02*
X153641540Y-85774580D01*
X153641540Y-85774580D02*
X153593921Y-85822200D01*
X153593921Y-85822200D02*
X153498683Y-85869819D01*
X153498683Y-85869819D02*
X153355826Y-85869819D01*
D12*
X122201380Y-140263842D02*
X122382809Y-140324318D01*
X122382809Y-140324318D02*
X122685190Y-140324318D01*
X122685190Y-140324318D02*
X122806142Y-140263842D01*
X122806142Y-140263842D02*
X122866618Y-140203365D01*
X122866618Y-140203365D02*
X122927095Y-140082413D01*
X122927095Y-140082413D02*
X122927095Y-139961461D01*
X122927095Y-139961461D02*
X122866618Y-139840508D01*
X122866618Y-139840508D02*
X122806142Y-139780032D01*
X122806142Y-139780032D02*
X122685190Y-139719556D01*
X122685190Y-139719556D02*
X122443285Y-139659080D01*
X122443285Y-139659080D02*
X122322333Y-139598603D01*
X122322333Y-139598603D02*
X122261856Y-139538127D01*
X122261856Y-139538127D02*
X122201380Y-139417175D01*
X122201380Y-139417175D02*
X122201380Y-139296222D01*
X122201380Y-139296222D02*
X122261856Y-139175270D01*
X122261856Y-139175270D02*
X122322333Y-139114794D01*
X122322333Y-139114794D02*
X122443285Y-139054318D01*
X122443285Y-139054318D02*
X122745666Y-139054318D01*
X122745666Y-139054318D02*
X122927095Y-139114794D01*
X123410904Y-139175270D02*
X123471380Y-139114794D01*
X123471380Y-139114794D02*
X123592333Y-139054318D01*
X123592333Y-139054318D02*
X123894714Y-139054318D01*
X123894714Y-139054318D02*
X124015666Y-139114794D01*
X124015666Y-139114794D02*
X124076142Y-139175270D01*
X124076142Y-139175270D02*
X124136619Y-139296222D01*
X124136619Y-139296222D02*
X124136619Y-139417175D01*
X124136619Y-139417175D02*
X124076142Y-139598603D01*
X124076142Y-139598603D02*
X123350428Y-140324318D01*
X123350428Y-140324318D02*
X124136619Y-140324318D01*
D10*
X195407200Y-124095237D02*
X195454819Y-123952380D01*
X195454819Y-123952380D02*
X195454819Y-123714285D01*
X195454819Y-123714285D02*
X195407200Y-123619047D01*
X195407200Y-123619047D02*
X195359580Y-123571428D01*
X195359580Y-123571428D02*
X195264342Y-123523809D01*
X195264342Y-123523809D02*
X195169104Y-123523809D01*
X195169104Y-123523809D02*
X195073866Y-123571428D01*
X195073866Y-123571428D02*
X195026247Y-123619047D01*
X195026247Y-123619047D02*
X194978628Y-123714285D01*
X194978628Y-123714285D02*
X194931009Y-123904761D01*
X194931009Y-123904761D02*
X194883390Y-123999999D01*
X194883390Y-123999999D02*
X194835771Y-124047618D01*
X194835771Y-124047618D02*
X194740533Y-124095237D01*
X194740533Y-124095237D02*
X194645295Y-124095237D01*
X194645295Y-124095237D02*
X194550057Y-124047618D01*
X194550057Y-124047618D02*
X194502438Y-123999999D01*
X194502438Y-123999999D02*
X194454819Y-123904761D01*
X194454819Y-123904761D02*
X194454819Y-123666666D01*
X194454819Y-123666666D02*
X194502438Y-123523809D01*
X195454819Y-123095237D02*
X194454819Y-123095237D01*
X194454819Y-123095237D02*
X194454819Y-122857142D01*
X194454819Y-122857142D02*
X194502438Y-122714285D01*
X194502438Y-122714285D02*
X194597676Y-122619047D01*
X194597676Y-122619047D02*
X194692914Y-122571428D01*
X194692914Y-122571428D02*
X194883390Y-122523809D01*
X194883390Y-122523809D02*
X195026247Y-122523809D01*
X195026247Y-122523809D02*
X195216723Y-122571428D01*
X195216723Y-122571428D02*
X195311961Y-122619047D01*
X195311961Y-122619047D02*
X195407200Y-122714285D01*
X195407200Y-122714285D02*
X195454819Y-122857142D01*
X195454819Y-122857142D02*
X195454819Y-123095237D01*
X195359580Y-120761904D02*
X195407200Y-120809523D01*
X195407200Y-120809523D02*
X195454819Y-120952380D01*
X195454819Y-120952380D02*
X195454819Y-121047618D01*
X195454819Y-121047618D02*
X195407200Y-121190475D01*
X195407200Y-121190475D02*
X195311961Y-121285713D01*
X195311961Y-121285713D02*
X195216723Y-121333332D01*
X195216723Y-121333332D02*
X195026247Y-121380951D01*
X195026247Y-121380951D02*
X194883390Y-121380951D01*
X194883390Y-121380951D02*
X194692914Y-121333332D01*
X194692914Y-121333332D02*
X194597676Y-121285713D01*
X194597676Y-121285713D02*
X194502438Y-121190475D01*
X194502438Y-121190475D02*
X194454819Y-121047618D01*
X194454819Y-121047618D02*
X194454819Y-120952380D01*
X194454819Y-120952380D02*
X194502438Y-120809523D01*
X194502438Y-120809523D02*
X194550057Y-120761904D01*
X195169104Y-120380951D02*
X195169104Y-119904761D01*
X195454819Y-120476189D02*
X194454819Y-120142856D01*
X194454819Y-120142856D02*
X195454819Y-119809523D01*
X195454819Y-118904761D02*
X194978628Y-119238094D01*
X195454819Y-119476189D02*
X194454819Y-119476189D01*
X194454819Y-119476189D02*
X194454819Y-119095237D01*
X194454819Y-119095237D02*
X194502438Y-118999999D01*
X194502438Y-118999999D02*
X194550057Y-118952380D01*
X194550057Y-118952380D02*
X194645295Y-118904761D01*
X194645295Y-118904761D02*
X194788152Y-118904761D01*
X194788152Y-118904761D02*
X194883390Y-118952380D01*
X194883390Y-118952380D02*
X194931009Y-118999999D01*
X194931009Y-118999999D02*
X194978628Y-119095237D01*
X194978628Y-119095237D02*
X194978628Y-119476189D01*
X195454819Y-118476189D02*
X194454819Y-118476189D01*
X194454819Y-118476189D02*
X194454819Y-118238094D01*
X194454819Y-118238094D02*
X194502438Y-118095237D01*
X194502438Y-118095237D02*
X194597676Y-117999999D01*
X194597676Y-117999999D02*
X194692914Y-117952380D01*
X194692914Y-117952380D02*
X194883390Y-117904761D01*
X194883390Y-117904761D02*
X195026247Y-117904761D01*
X195026247Y-117904761D02*
X195216723Y-117952380D01*
X195216723Y-117952380D02*
X195311961Y-117999999D01*
X195311961Y-117999999D02*
X195407200Y-118095237D01*
X195407200Y-118095237D02*
X195454819Y-118238094D01*
X195454819Y-118238094D02*
X195454819Y-118476189D01*
X123759580Y-67742857D02*
X123807200Y-67790476D01*
X123807200Y-67790476D02*
X123854819Y-67933333D01*
X123854819Y-67933333D02*
X123854819Y-68028571D01*
X123854819Y-68028571D02*
X123807200Y-68171428D01*
X123807200Y-68171428D02*
X123711961Y-68266666D01*
X123711961Y-68266666D02*
X123616723Y-68314285D01*
X123616723Y-68314285D02*
X123426247Y-68361904D01*
X123426247Y-68361904D02*
X123283390Y-68361904D01*
X123283390Y-68361904D02*
X123092914Y-68314285D01*
X123092914Y-68314285D02*
X122997676Y-68266666D01*
X122997676Y-68266666D02*
X122902438Y-68171428D01*
X122902438Y-68171428D02*
X122854819Y-68028571D01*
X122854819Y-68028571D02*
X122854819Y-67933333D01*
X122854819Y-67933333D02*
X122902438Y-67790476D01*
X122902438Y-67790476D02*
X122950057Y-67742857D01*
X123854819Y-66790476D02*
X123854819Y-67361904D01*
X123854819Y-67076190D02*
X122854819Y-67076190D01*
X122854819Y-67076190D02*
X122997676Y-67171428D01*
X122997676Y-67171428D02*
X123092914Y-67266666D01*
X123092914Y-67266666D02*
X123140533Y-67361904D01*
X122854819Y-66457142D02*
X122854819Y-65838095D01*
X122854819Y-65838095D02*
X123235771Y-66171428D01*
X123235771Y-66171428D02*
X123235771Y-66028571D01*
X123235771Y-66028571D02*
X123283390Y-65933333D01*
X123283390Y-65933333D02*
X123331009Y-65885714D01*
X123331009Y-65885714D02*
X123426247Y-65838095D01*
X123426247Y-65838095D02*
X123664342Y-65838095D01*
X123664342Y-65838095D02*
X123759580Y-65885714D01*
X123759580Y-65885714D02*
X123807200Y-65933333D01*
X123807200Y-65933333D02*
X123854819Y-66028571D01*
X123854819Y-66028571D02*
X123854819Y-66314285D01*
X123854819Y-66314285D02*
X123807200Y-66409523D01*
X123807200Y-66409523D02*
X123759580Y-66457142D01*
X82398333Y-130659580D02*
X82350714Y-130707200D01*
X82350714Y-130707200D02*
X82207857Y-130754819D01*
X82207857Y-130754819D02*
X82112619Y-130754819D01*
X82112619Y-130754819D02*
X81969762Y-130707200D01*
X81969762Y-130707200D02*
X81874524Y-130611961D01*
X81874524Y-130611961D02*
X81826905Y-130516723D01*
X81826905Y-130516723D02*
X81779286Y-130326247D01*
X81779286Y-130326247D02*
X81779286Y-130183390D01*
X81779286Y-130183390D02*
X81826905Y-129992914D01*
X81826905Y-129992914D02*
X81874524Y-129897676D01*
X81874524Y-129897676D02*
X81969762Y-129802438D01*
X81969762Y-129802438D02*
X82112619Y-129754819D01*
X82112619Y-129754819D02*
X82207857Y-129754819D01*
X82207857Y-129754819D02*
X82350714Y-129802438D01*
X82350714Y-129802438D02*
X82398333Y-129850057D01*
X83303095Y-129754819D02*
X82826905Y-129754819D01*
X82826905Y-129754819D02*
X82779286Y-130231009D01*
X82779286Y-130231009D02*
X82826905Y-130183390D01*
X82826905Y-130183390D02*
X82922143Y-130135771D01*
X82922143Y-130135771D02*
X83160238Y-130135771D01*
X83160238Y-130135771D02*
X83255476Y-130183390D01*
X83255476Y-130183390D02*
X83303095Y-130231009D01*
X83303095Y-130231009D02*
X83350714Y-130326247D01*
X83350714Y-130326247D02*
X83350714Y-130564342D01*
X83350714Y-130564342D02*
X83303095Y-130659580D01*
X83303095Y-130659580D02*
X83255476Y-130707200D01*
X83255476Y-130707200D02*
X83160238Y-130754819D01*
X83160238Y-130754819D02*
X82922143Y-130754819D01*
X82922143Y-130754819D02*
X82826905Y-130707200D01*
X82826905Y-130707200D02*
X82779286Y-130659580D01*
X93584819Y-134165713D02*
X93584819Y-133594285D01*
X94584819Y-133879999D02*
X93584819Y-133879999D01*
X94584819Y-133260951D02*
X93584819Y-133260951D01*
X94061009Y-133260951D02*
X94061009Y-132689523D01*
X94584819Y-132689523D02*
X93584819Y-132689523D01*
X94584819Y-131689523D02*
X94584819Y-132260951D01*
X94584819Y-131975237D02*
X93584819Y-131975237D01*
X93584819Y-131975237D02*
X93727676Y-132070475D01*
X93727676Y-132070475D02*
X93822914Y-132165713D01*
X93822914Y-132165713D02*
X93870533Y-132260951D01*
X141438095Y-91654819D02*
X141438095Y-92464342D01*
X141438095Y-92464342D02*
X141485714Y-92559580D01*
X141485714Y-92559580D02*
X141533333Y-92607200D01*
X141533333Y-92607200D02*
X141628571Y-92654819D01*
X141628571Y-92654819D02*
X141819047Y-92654819D01*
X141819047Y-92654819D02*
X141914285Y-92607200D01*
X141914285Y-92607200D02*
X141961904Y-92559580D01*
X141961904Y-92559580D02*
X142009523Y-92464342D01*
X142009523Y-92464342D02*
X142009523Y-91654819D01*
X143009523Y-92654819D02*
X142438095Y-92654819D01*
X142723809Y-92654819D02*
X142723809Y-91654819D01*
X142723809Y-91654819D02*
X142628571Y-91797676D01*
X142628571Y-91797676D02*
X142533333Y-91892914D01*
X142533333Y-91892914D02*
X142438095Y-91940533D01*
X101764819Y-117353333D02*
X102479104Y-117353333D01*
X102479104Y-117353333D02*
X102621961Y-117400952D01*
X102621961Y-117400952D02*
X102717200Y-117496190D01*
X102717200Y-117496190D02*
X102764819Y-117639047D01*
X102764819Y-117639047D02*
X102764819Y-117734285D01*
X102098152Y-116448571D02*
X102764819Y-116448571D01*
X101717200Y-116686666D02*
X102431485Y-116924761D01*
X102431485Y-116924761D02*
X102431485Y-116305714D01*
D12*
X200804318Y-98702619D02*
X201832413Y-98702619D01*
X201832413Y-98702619D02*
X201953365Y-98642142D01*
X201953365Y-98642142D02*
X202013842Y-98581666D01*
X202013842Y-98581666D02*
X202074318Y-98460714D01*
X202074318Y-98460714D02*
X202074318Y-98218809D01*
X202074318Y-98218809D02*
X202013842Y-98097857D01*
X202013842Y-98097857D02*
X201953365Y-98037380D01*
X201953365Y-98037380D02*
X201832413Y-97976904D01*
X201832413Y-97976904D02*
X200804318Y-97976904D01*
X202013842Y-97432619D02*
X202074318Y-97251190D01*
X202074318Y-97251190D02*
X202074318Y-96948809D01*
X202074318Y-96948809D02*
X202013842Y-96827857D01*
X202013842Y-96827857D02*
X201953365Y-96767381D01*
X201953365Y-96767381D02*
X201832413Y-96706904D01*
X201832413Y-96706904D02*
X201711461Y-96706904D01*
X201711461Y-96706904D02*
X201590508Y-96767381D01*
X201590508Y-96767381D02*
X201530032Y-96827857D01*
X201530032Y-96827857D02*
X201469556Y-96948809D01*
X201469556Y-96948809D02*
X201409080Y-97190714D01*
X201409080Y-97190714D02*
X201348603Y-97311666D01*
X201348603Y-97311666D02*
X201288127Y-97372143D01*
X201288127Y-97372143D02*
X201167175Y-97432619D01*
X201167175Y-97432619D02*
X201046222Y-97432619D01*
X201046222Y-97432619D02*
X200925270Y-97372143D01*
X200925270Y-97372143D02*
X200864794Y-97311666D01*
X200864794Y-97311666D02*
X200804318Y-97190714D01*
X200804318Y-97190714D02*
X200804318Y-96888333D01*
X200804318Y-96888333D02*
X200864794Y-96706904D01*
X201409080Y-95739285D02*
X201469556Y-95557857D01*
X201469556Y-95557857D02*
X201530032Y-95497380D01*
X201530032Y-95497380D02*
X201650984Y-95436904D01*
X201650984Y-95436904D02*
X201832413Y-95436904D01*
X201832413Y-95436904D02*
X201953365Y-95497380D01*
X201953365Y-95497380D02*
X202013842Y-95557857D01*
X202013842Y-95557857D02*
X202074318Y-95678809D01*
X202074318Y-95678809D02*
X202074318Y-96162619D01*
X202074318Y-96162619D02*
X200804318Y-96162619D01*
X200804318Y-96162619D02*
X200804318Y-95739285D01*
X200804318Y-95739285D02*
X200864794Y-95618333D01*
X200864794Y-95618333D02*
X200925270Y-95557857D01*
X200925270Y-95557857D02*
X201046222Y-95497380D01*
X201046222Y-95497380D02*
X201167175Y-95497380D01*
X201167175Y-95497380D02*
X201288127Y-95557857D01*
X201288127Y-95557857D02*
X201348603Y-95618333D01*
X201348603Y-95618333D02*
X201409080Y-95739285D01*
X201409080Y-95739285D02*
X201409080Y-96162619D01*
D10*
X158467200Y-89557142D02*
X158514819Y-89414285D01*
X158514819Y-89414285D02*
X158514819Y-89176190D01*
X158514819Y-89176190D02*
X158467200Y-89080952D01*
X158467200Y-89080952D02*
X158419580Y-89033333D01*
X158419580Y-89033333D02*
X158324342Y-88985714D01*
X158324342Y-88985714D02*
X158229104Y-88985714D01*
X158229104Y-88985714D02*
X158133866Y-89033333D01*
X158133866Y-89033333D02*
X158086247Y-89080952D01*
X158086247Y-89080952D02*
X158038628Y-89176190D01*
X158038628Y-89176190D02*
X157991009Y-89366666D01*
X157991009Y-89366666D02*
X157943390Y-89461904D01*
X157943390Y-89461904D02*
X157895771Y-89509523D01*
X157895771Y-89509523D02*
X157800533Y-89557142D01*
X157800533Y-89557142D02*
X157705295Y-89557142D01*
X157705295Y-89557142D02*
X157610057Y-89509523D01*
X157610057Y-89509523D02*
X157562438Y-89461904D01*
X157562438Y-89461904D02*
X157514819Y-89366666D01*
X157514819Y-89366666D02*
X157514819Y-89128571D01*
X157514819Y-89128571D02*
X157562438Y-88985714D01*
X157514819Y-88652380D02*
X158514819Y-88414285D01*
X158514819Y-88414285D02*
X157800533Y-88223809D01*
X157800533Y-88223809D02*
X158514819Y-88033333D01*
X158514819Y-88033333D02*
X157514819Y-87795238D01*
X158514819Y-87414285D02*
X157514819Y-87414285D01*
X157514819Y-87414285D02*
X157514819Y-87176190D01*
X157514819Y-87176190D02*
X157562438Y-87033333D01*
X157562438Y-87033333D02*
X157657676Y-86938095D01*
X157657676Y-86938095D02*
X157752914Y-86890476D01*
X157752914Y-86890476D02*
X157943390Y-86842857D01*
X157943390Y-86842857D02*
X158086247Y-86842857D01*
X158086247Y-86842857D02*
X158276723Y-86890476D01*
X158276723Y-86890476D02*
X158371961Y-86938095D01*
X158371961Y-86938095D02*
X158467200Y-87033333D01*
X158467200Y-87033333D02*
X158514819Y-87176190D01*
X158514819Y-87176190D02*
X158514819Y-87414285D01*
X84433333Y-116559580D02*
X84385714Y-116607200D01*
X84385714Y-116607200D02*
X84242857Y-116654819D01*
X84242857Y-116654819D02*
X84147619Y-116654819D01*
X84147619Y-116654819D02*
X84004762Y-116607200D01*
X84004762Y-116607200D02*
X83909524Y-116511961D01*
X83909524Y-116511961D02*
X83861905Y-116416723D01*
X83861905Y-116416723D02*
X83814286Y-116226247D01*
X83814286Y-116226247D02*
X83814286Y-116083390D01*
X83814286Y-116083390D02*
X83861905Y-115892914D01*
X83861905Y-115892914D02*
X83909524Y-115797676D01*
X83909524Y-115797676D02*
X84004762Y-115702438D01*
X84004762Y-115702438D02*
X84147619Y-115654819D01*
X84147619Y-115654819D02*
X84242857Y-115654819D01*
X84242857Y-115654819D02*
X84385714Y-115702438D01*
X84385714Y-115702438D02*
X84433333Y-115750057D01*
X84766667Y-115654819D02*
X85385714Y-115654819D01*
X85385714Y-115654819D02*
X85052381Y-116035771D01*
X85052381Y-116035771D02*
X85195238Y-116035771D01*
X85195238Y-116035771D02*
X85290476Y-116083390D01*
X85290476Y-116083390D02*
X85338095Y-116131009D01*
X85338095Y-116131009D02*
X85385714Y-116226247D01*
X85385714Y-116226247D02*
X85385714Y-116464342D01*
X85385714Y-116464342D02*
X85338095Y-116559580D01*
X85338095Y-116559580D02*
X85290476Y-116607200D01*
X85290476Y-116607200D02*
X85195238Y-116654819D01*
X85195238Y-116654819D02*
X84909524Y-116654819D01*
X84909524Y-116654819D02*
X84814286Y-116607200D01*
X84814286Y-116607200D02*
X84766667Y-116559580D01*
X110061905Y-138854819D02*
X110061905Y-137854819D01*
X110061905Y-137854819D02*
X110300000Y-137854819D01*
X110300000Y-137854819D02*
X110442857Y-137902438D01*
X110442857Y-137902438D02*
X110538095Y-137997676D01*
X110538095Y-137997676D02*
X110585714Y-138092914D01*
X110585714Y-138092914D02*
X110633333Y-138283390D01*
X110633333Y-138283390D02*
X110633333Y-138426247D01*
X110633333Y-138426247D02*
X110585714Y-138616723D01*
X110585714Y-138616723D02*
X110538095Y-138711961D01*
X110538095Y-138711961D02*
X110442857Y-138807200D01*
X110442857Y-138807200D02*
X110300000Y-138854819D01*
X110300000Y-138854819D02*
X110061905Y-138854819D01*
X111014286Y-137950057D02*
X111061905Y-137902438D01*
X111061905Y-137902438D02*
X111157143Y-137854819D01*
X111157143Y-137854819D02*
X111395238Y-137854819D01*
X111395238Y-137854819D02*
X111490476Y-137902438D01*
X111490476Y-137902438D02*
X111538095Y-137950057D01*
X111538095Y-137950057D02*
X111585714Y-138045295D01*
X111585714Y-138045295D02*
X111585714Y-138140533D01*
X111585714Y-138140533D02*
X111538095Y-138283390D01*
X111538095Y-138283390D02*
X110966667Y-138854819D01*
X110966667Y-138854819D02*
X111585714Y-138854819D01*
X86313810Y-126004819D02*
X86313810Y-125004819D01*
X87361428Y-125909580D02*
X87313809Y-125957200D01*
X87313809Y-125957200D02*
X87170952Y-126004819D01*
X87170952Y-126004819D02*
X87075714Y-126004819D01*
X87075714Y-126004819D02*
X86932857Y-125957200D01*
X86932857Y-125957200D02*
X86837619Y-125861961D01*
X86837619Y-125861961D02*
X86790000Y-125766723D01*
X86790000Y-125766723D02*
X86742381Y-125576247D01*
X86742381Y-125576247D02*
X86742381Y-125433390D01*
X86742381Y-125433390D02*
X86790000Y-125242914D01*
X86790000Y-125242914D02*
X86837619Y-125147676D01*
X86837619Y-125147676D02*
X86932857Y-125052438D01*
X86932857Y-125052438D02*
X87075714Y-125004819D01*
X87075714Y-125004819D02*
X87170952Y-125004819D01*
X87170952Y-125004819D02*
X87313809Y-125052438D01*
X87313809Y-125052438D02*
X87361428Y-125100057D01*
X87694762Y-125004819D02*
X88313809Y-125004819D01*
X88313809Y-125004819D02*
X87980476Y-125385771D01*
X87980476Y-125385771D02*
X88123333Y-125385771D01*
X88123333Y-125385771D02*
X88218571Y-125433390D01*
X88218571Y-125433390D02*
X88266190Y-125481009D01*
X88266190Y-125481009D02*
X88313809Y-125576247D01*
X88313809Y-125576247D02*
X88313809Y-125814342D01*
X88313809Y-125814342D02*
X88266190Y-125909580D01*
X88266190Y-125909580D02*
X88218571Y-125957200D01*
X88218571Y-125957200D02*
X88123333Y-126004819D01*
X88123333Y-126004819D02*
X87837619Y-126004819D01*
X87837619Y-126004819D02*
X87742381Y-125957200D01*
X87742381Y-125957200D02*
X87694762Y-125909580D01*
X126159580Y-67466666D02*
X126207200Y-67514285D01*
X126207200Y-67514285D02*
X126254819Y-67657142D01*
X126254819Y-67657142D02*
X126254819Y-67752380D01*
X126254819Y-67752380D02*
X126207200Y-67895237D01*
X126207200Y-67895237D02*
X126111961Y-67990475D01*
X126111961Y-67990475D02*
X126016723Y-68038094D01*
X126016723Y-68038094D02*
X125826247Y-68085713D01*
X125826247Y-68085713D02*
X125683390Y-68085713D01*
X125683390Y-68085713D02*
X125492914Y-68038094D01*
X125492914Y-68038094D02*
X125397676Y-67990475D01*
X125397676Y-67990475D02*
X125302438Y-67895237D01*
X125302438Y-67895237D02*
X125254819Y-67752380D01*
X125254819Y-67752380D02*
X125254819Y-67657142D01*
X125254819Y-67657142D02*
X125302438Y-67514285D01*
X125302438Y-67514285D02*
X125350057Y-67466666D01*
X125683390Y-66895237D02*
X125635771Y-66990475D01*
X125635771Y-66990475D02*
X125588152Y-67038094D01*
X125588152Y-67038094D02*
X125492914Y-67085713D01*
X125492914Y-67085713D02*
X125445295Y-67085713D01*
X125445295Y-67085713D02*
X125350057Y-67038094D01*
X125350057Y-67038094D02*
X125302438Y-66990475D01*
X125302438Y-66990475D02*
X125254819Y-66895237D01*
X125254819Y-66895237D02*
X125254819Y-66704761D01*
X125254819Y-66704761D02*
X125302438Y-66609523D01*
X125302438Y-66609523D02*
X125350057Y-66561904D01*
X125350057Y-66561904D02*
X125445295Y-66514285D01*
X125445295Y-66514285D02*
X125492914Y-66514285D01*
X125492914Y-66514285D02*
X125588152Y-66561904D01*
X125588152Y-66561904D02*
X125635771Y-66609523D01*
X125635771Y-66609523D02*
X125683390Y-66704761D01*
X125683390Y-66704761D02*
X125683390Y-66895237D01*
X125683390Y-66895237D02*
X125731009Y-66990475D01*
X125731009Y-66990475D02*
X125778628Y-67038094D01*
X125778628Y-67038094D02*
X125873866Y-67085713D01*
X125873866Y-67085713D02*
X126064342Y-67085713D01*
X126064342Y-67085713D02*
X126159580Y-67038094D01*
X126159580Y-67038094D02*
X126207200Y-66990475D01*
X126207200Y-66990475D02*
X126254819Y-66895237D01*
X126254819Y-66895237D02*
X126254819Y-66704761D01*
X126254819Y-66704761D02*
X126207200Y-66609523D01*
X126207200Y-66609523D02*
X126159580Y-66561904D01*
X126159580Y-66561904D02*
X126064342Y-66514285D01*
X126064342Y-66514285D02*
X125873866Y-66514285D01*
X125873866Y-66514285D02*
X125778628Y-66561904D01*
X125778628Y-66561904D02*
X125731009Y-66609523D01*
X125731009Y-66609523D02*
X125683390Y-66704761D01*
X106473333Y-120104819D02*
X106140000Y-119628628D01*
X105901905Y-120104819D02*
X105901905Y-119104819D01*
X105901905Y-119104819D02*
X106282857Y-119104819D01*
X106282857Y-119104819D02*
X106378095Y-119152438D01*
X106378095Y-119152438D02*
X106425714Y-119200057D01*
X106425714Y-119200057D02*
X106473333Y-119295295D01*
X106473333Y-119295295D02*
X106473333Y-119438152D01*
X106473333Y-119438152D02*
X106425714Y-119533390D01*
X106425714Y-119533390D02*
X106378095Y-119581009D01*
X106378095Y-119581009D02*
X106282857Y-119628628D01*
X106282857Y-119628628D02*
X105901905Y-119628628D01*
X106806667Y-119104819D02*
X107473333Y-119104819D01*
X107473333Y-119104819D02*
X107044762Y-120104819D01*
X107557142Y-99104819D02*
X107223809Y-98628628D01*
X106985714Y-99104819D02*
X106985714Y-98104819D01*
X106985714Y-98104819D02*
X107366666Y-98104819D01*
X107366666Y-98104819D02*
X107461904Y-98152438D01*
X107461904Y-98152438D02*
X107509523Y-98200057D01*
X107509523Y-98200057D02*
X107557142Y-98295295D01*
X107557142Y-98295295D02*
X107557142Y-98438152D01*
X107557142Y-98438152D02*
X107509523Y-98533390D01*
X107509523Y-98533390D02*
X107461904Y-98581009D01*
X107461904Y-98581009D02*
X107366666Y-98628628D01*
X107366666Y-98628628D02*
X106985714Y-98628628D01*
X108509523Y-99104819D02*
X107938095Y-99104819D01*
X108223809Y-99104819D02*
X108223809Y-98104819D01*
X108223809Y-98104819D02*
X108128571Y-98247676D01*
X108128571Y-98247676D02*
X108033333Y-98342914D01*
X108033333Y-98342914D02*
X107938095Y-98390533D01*
X108842857Y-98104819D02*
X109461904Y-98104819D01*
X109461904Y-98104819D02*
X109128571Y-98485771D01*
X109128571Y-98485771D02*
X109271428Y-98485771D01*
X109271428Y-98485771D02*
X109366666Y-98533390D01*
X109366666Y-98533390D02*
X109414285Y-98581009D01*
X109414285Y-98581009D02*
X109461904Y-98676247D01*
X109461904Y-98676247D02*
X109461904Y-98914342D01*
X109461904Y-98914342D02*
X109414285Y-99009580D01*
X109414285Y-99009580D02*
X109366666Y-99057200D01*
X109366666Y-99057200D02*
X109271428Y-99104819D01*
X109271428Y-99104819D02*
X108985714Y-99104819D01*
X108985714Y-99104819D02*
X108890476Y-99057200D01*
X108890476Y-99057200D02*
X108842857Y-99009580D01*
X86313810Y-118954819D02*
X86313810Y-117954819D01*
X87361428Y-118859580D02*
X87313809Y-118907200D01*
X87313809Y-118907200D02*
X87170952Y-118954819D01*
X87170952Y-118954819D02*
X87075714Y-118954819D01*
X87075714Y-118954819D02*
X86932857Y-118907200D01*
X86932857Y-118907200D02*
X86837619Y-118811961D01*
X86837619Y-118811961D02*
X86790000Y-118716723D01*
X86790000Y-118716723D02*
X86742381Y-118526247D01*
X86742381Y-118526247D02*
X86742381Y-118383390D01*
X86742381Y-118383390D02*
X86790000Y-118192914D01*
X86790000Y-118192914D02*
X86837619Y-118097676D01*
X86837619Y-118097676D02*
X86932857Y-118002438D01*
X86932857Y-118002438D02*
X87075714Y-117954819D01*
X87075714Y-117954819D02*
X87170952Y-117954819D01*
X87170952Y-117954819D02*
X87313809Y-118002438D01*
X87313809Y-118002438D02*
X87361428Y-118050057D01*
X88313809Y-118954819D02*
X87742381Y-118954819D01*
X88028095Y-118954819D02*
X88028095Y-117954819D01*
X88028095Y-117954819D02*
X87932857Y-118097676D01*
X87932857Y-118097676D02*
X87837619Y-118192914D01*
X87837619Y-118192914D02*
X87742381Y-118240533D01*
X87157142Y-108104819D02*
X86823809Y-107628628D01*
X86585714Y-108104819D02*
X86585714Y-107104819D01*
X86585714Y-107104819D02*
X86966666Y-107104819D01*
X86966666Y-107104819D02*
X87061904Y-107152438D01*
X87061904Y-107152438D02*
X87109523Y-107200057D01*
X87109523Y-107200057D02*
X87157142Y-107295295D01*
X87157142Y-107295295D02*
X87157142Y-107438152D01*
X87157142Y-107438152D02*
X87109523Y-107533390D01*
X87109523Y-107533390D02*
X87061904Y-107581009D01*
X87061904Y-107581009D02*
X86966666Y-107628628D01*
X86966666Y-107628628D02*
X86585714Y-107628628D01*
X88109523Y-108104819D02*
X87538095Y-108104819D01*
X87823809Y-108104819D02*
X87823809Y-107104819D01*
X87823809Y-107104819D02*
X87728571Y-107247676D01*
X87728571Y-107247676D02*
X87633333Y-107342914D01*
X87633333Y-107342914D02*
X87538095Y-107390533D01*
X88966666Y-107438152D02*
X88966666Y-108104819D01*
X88728571Y-107057200D02*
X88490476Y-107771485D01*
X88490476Y-107771485D02*
X89109523Y-107771485D01*
X133433333Y-97359580D02*
X133385714Y-97407200D01*
X133385714Y-97407200D02*
X133242857Y-97454819D01*
X133242857Y-97454819D02*
X133147619Y-97454819D01*
X133147619Y-97454819D02*
X133004762Y-97407200D01*
X133004762Y-97407200D02*
X132909524Y-97311961D01*
X132909524Y-97311961D02*
X132861905Y-97216723D01*
X132861905Y-97216723D02*
X132814286Y-97026247D01*
X132814286Y-97026247D02*
X132814286Y-96883390D01*
X132814286Y-96883390D02*
X132861905Y-96692914D01*
X132861905Y-96692914D02*
X132909524Y-96597676D01*
X132909524Y-96597676D02*
X133004762Y-96502438D01*
X133004762Y-96502438D02*
X133147619Y-96454819D01*
X133147619Y-96454819D02*
X133242857Y-96454819D01*
X133242857Y-96454819D02*
X133385714Y-96502438D01*
X133385714Y-96502438D02*
X133433333Y-96550057D01*
X133909524Y-97454819D02*
X134100000Y-97454819D01*
X134100000Y-97454819D02*
X134195238Y-97407200D01*
X134195238Y-97407200D02*
X134242857Y-97359580D01*
X134242857Y-97359580D02*
X134338095Y-97216723D01*
X134338095Y-97216723D02*
X134385714Y-97026247D01*
X134385714Y-97026247D02*
X134385714Y-96645295D01*
X134385714Y-96645295D02*
X134338095Y-96550057D01*
X134338095Y-96550057D02*
X134290476Y-96502438D01*
X134290476Y-96502438D02*
X134195238Y-96454819D01*
X134195238Y-96454819D02*
X134004762Y-96454819D01*
X134004762Y-96454819D02*
X133909524Y-96502438D01*
X133909524Y-96502438D02*
X133861905Y-96550057D01*
X133861905Y-96550057D02*
X133814286Y-96645295D01*
X133814286Y-96645295D02*
X133814286Y-96883390D01*
X133814286Y-96883390D02*
X133861905Y-96978628D01*
X133861905Y-96978628D02*
X133909524Y-97026247D01*
X133909524Y-97026247D02*
X134004762Y-97073866D01*
X134004762Y-97073866D02*
X134195238Y-97073866D01*
X134195238Y-97073866D02*
X134290476Y-97026247D01*
X134290476Y-97026247D02*
X134338095Y-96978628D01*
X134338095Y-96978628D02*
X134385714Y-96883390D01*
X110061905Y-135854819D02*
X110061905Y-134854819D01*
X110061905Y-134854819D02*
X110300000Y-134854819D01*
X110300000Y-134854819D02*
X110442857Y-134902438D01*
X110442857Y-134902438D02*
X110538095Y-134997676D01*
X110538095Y-134997676D02*
X110585714Y-135092914D01*
X110585714Y-135092914D02*
X110633333Y-135283390D01*
X110633333Y-135283390D02*
X110633333Y-135426247D01*
X110633333Y-135426247D02*
X110585714Y-135616723D01*
X110585714Y-135616723D02*
X110538095Y-135711961D01*
X110538095Y-135711961D02*
X110442857Y-135807200D01*
X110442857Y-135807200D02*
X110300000Y-135854819D01*
X110300000Y-135854819D02*
X110061905Y-135854819D01*
X111585714Y-135854819D02*
X111014286Y-135854819D01*
X111300000Y-135854819D02*
X111300000Y-134854819D01*
X111300000Y-134854819D02*
X111204762Y-134997676D01*
X111204762Y-134997676D02*
X111109524Y-135092914D01*
X111109524Y-135092914D02*
X111014286Y-135140533D01*
X171104819Y-81342857D02*
X170628628Y-81676190D01*
X171104819Y-81914285D02*
X170104819Y-81914285D01*
X170104819Y-81914285D02*
X170104819Y-81533333D01*
X170104819Y-81533333D02*
X170152438Y-81438095D01*
X170152438Y-81438095D02*
X170200057Y-81390476D01*
X170200057Y-81390476D02*
X170295295Y-81342857D01*
X170295295Y-81342857D02*
X170438152Y-81342857D01*
X170438152Y-81342857D02*
X170533390Y-81390476D01*
X170533390Y-81390476D02*
X170581009Y-81438095D01*
X170581009Y-81438095D02*
X170628628Y-81533333D01*
X170628628Y-81533333D02*
X170628628Y-81914285D01*
X171104819Y-80390476D02*
X171104819Y-80961904D01*
X171104819Y-80676190D02*
X170104819Y-80676190D01*
X170104819Y-80676190D02*
X170247676Y-80771428D01*
X170247676Y-80771428D02*
X170342914Y-80866666D01*
X170342914Y-80866666D02*
X170390533Y-80961904D01*
X170104819Y-79771428D02*
X170104819Y-79676190D01*
X170104819Y-79676190D02*
X170152438Y-79580952D01*
X170152438Y-79580952D02*
X170200057Y-79533333D01*
X170200057Y-79533333D02*
X170295295Y-79485714D01*
X170295295Y-79485714D02*
X170485771Y-79438095D01*
X170485771Y-79438095D02*
X170723866Y-79438095D01*
X170723866Y-79438095D02*
X170914342Y-79485714D01*
X170914342Y-79485714D02*
X171009580Y-79533333D01*
X171009580Y-79533333D02*
X171057200Y-79580952D01*
X171057200Y-79580952D02*
X171104819Y-79676190D01*
X171104819Y-79676190D02*
X171104819Y-79771428D01*
X171104819Y-79771428D02*
X171057200Y-79866666D01*
X171057200Y-79866666D02*
X171009580Y-79914285D01*
X171009580Y-79914285D02*
X170914342Y-79961904D01*
X170914342Y-79961904D02*
X170723866Y-80009523D01*
X170723866Y-80009523D02*
X170485771Y-80009523D01*
X170485771Y-80009523D02*
X170295295Y-79961904D01*
X170295295Y-79961904D02*
X170200057Y-79914285D01*
X170200057Y-79914285D02*
X170152438Y-79866666D01*
X170152438Y-79866666D02*
X170104819Y-79771428D01*
X171257142Y-115904819D02*
X170923809Y-115428628D01*
X170685714Y-115904819D02*
X170685714Y-114904819D01*
X170685714Y-114904819D02*
X171066666Y-114904819D01*
X171066666Y-114904819D02*
X171161904Y-114952438D01*
X171161904Y-114952438D02*
X171209523Y-115000057D01*
X171209523Y-115000057D02*
X171257142Y-115095295D01*
X171257142Y-115095295D02*
X171257142Y-115238152D01*
X171257142Y-115238152D02*
X171209523Y-115333390D01*
X171209523Y-115333390D02*
X171161904Y-115381009D01*
X171161904Y-115381009D02*
X171066666Y-115428628D01*
X171066666Y-115428628D02*
X170685714Y-115428628D01*
X172209523Y-115904819D02*
X171638095Y-115904819D01*
X171923809Y-115904819D02*
X171923809Y-114904819D01*
X171923809Y-114904819D02*
X171828571Y-115047676D01*
X171828571Y-115047676D02*
X171733333Y-115142914D01*
X171733333Y-115142914D02*
X171638095Y-115190533D01*
X172685714Y-115904819D02*
X172876190Y-115904819D01*
X172876190Y-115904819D02*
X172971428Y-115857200D01*
X172971428Y-115857200D02*
X173019047Y-115809580D01*
X173019047Y-115809580D02*
X173114285Y-115666723D01*
X173114285Y-115666723D02*
X173161904Y-115476247D01*
X173161904Y-115476247D02*
X173161904Y-115095295D01*
X173161904Y-115095295D02*
X173114285Y-115000057D01*
X173114285Y-115000057D02*
X173066666Y-114952438D01*
X173066666Y-114952438D02*
X172971428Y-114904819D01*
X172971428Y-114904819D02*
X172780952Y-114904819D01*
X172780952Y-114904819D02*
X172685714Y-114952438D01*
X172685714Y-114952438D02*
X172638095Y-115000057D01*
X172638095Y-115000057D02*
X172590476Y-115095295D01*
X172590476Y-115095295D02*
X172590476Y-115333390D01*
X172590476Y-115333390D02*
X172638095Y-115428628D01*
X172638095Y-115428628D02*
X172685714Y-115476247D01*
X172685714Y-115476247D02*
X172780952Y-115523866D01*
X172780952Y-115523866D02*
X172971428Y-115523866D01*
X172971428Y-115523866D02*
X173066666Y-115476247D01*
X173066666Y-115476247D02*
X173114285Y-115428628D01*
X173114285Y-115428628D02*
X173161904Y-115333390D01*
X173136666Y-81609819D02*
X173136666Y-82324104D01*
X173136666Y-82324104D02*
X173089047Y-82466961D01*
X173089047Y-82466961D02*
X172993809Y-82562200D01*
X172993809Y-82562200D02*
X172850952Y-82609819D01*
X172850952Y-82609819D02*
X172755714Y-82609819D01*
X173517619Y-81609819D02*
X174184285Y-81609819D01*
X174184285Y-81609819D02*
X173755714Y-82609819D01*
X103973333Y-143504819D02*
X103640000Y-143028628D01*
X103401905Y-143504819D02*
X103401905Y-142504819D01*
X103401905Y-142504819D02*
X103782857Y-142504819D01*
X103782857Y-142504819D02*
X103878095Y-142552438D01*
X103878095Y-142552438D02*
X103925714Y-142600057D01*
X103925714Y-142600057D02*
X103973333Y-142695295D01*
X103973333Y-142695295D02*
X103973333Y-142838152D01*
X103973333Y-142838152D02*
X103925714Y-142933390D01*
X103925714Y-142933390D02*
X103878095Y-142981009D01*
X103878095Y-142981009D02*
X103782857Y-143028628D01*
X103782857Y-143028628D02*
X103401905Y-143028628D01*
X104830476Y-142504819D02*
X104640000Y-142504819D01*
X104640000Y-142504819D02*
X104544762Y-142552438D01*
X104544762Y-142552438D02*
X104497143Y-142600057D01*
X104497143Y-142600057D02*
X104401905Y-142742914D01*
X104401905Y-142742914D02*
X104354286Y-142933390D01*
X104354286Y-142933390D02*
X104354286Y-143314342D01*
X104354286Y-143314342D02*
X104401905Y-143409580D01*
X104401905Y-143409580D02*
X104449524Y-143457200D01*
X104449524Y-143457200D02*
X104544762Y-143504819D01*
X104544762Y-143504819D02*
X104735238Y-143504819D01*
X104735238Y-143504819D02*
X104830476Y-143457200D01*
X104830476Y-143457200D02*
X104878095Y-143409580D01*
X104878095Y-143409580D02*
X104925714Y-143314342D01*
X104925714Y-143314342D02*
X104925714Y-143076247D01*
X104925714Y-143076247D02*
X104878095Y-142981009D01*
X104878095Y-142981009D02*
X104830476Y-142933390D01*
X104830476Y-142933390D02*
X104735238Y-142885771D01*
X104735238Y-142885771D02*
X104544762Y-142885771D01*
X104544762Y-142885771D02*
X104449524Y-142933390D01*
X104449524Y-142933390D02*
X104401905Y-142981009D01*
X104401905Y-142981009D02*
X104354286Y-143076247D01*
X151159580Y-98942857D02*
X151207200Y-98990476D01*
X151207200Y-98990476D02*
X151254819Y-99133333D01*
X151254819Y-99133333D02*
X151254819Y-99228571D01*
X151254819Y-99228571D02*
X151207200Y-99371428D01*
X151207200Y-99371428D02*
X151111961Y-99466666D01*
X151111961Y-99466666D02*
X151016723Y-99514285D01*
X151016723Y-99514285D02*
X150826247Y-99561904D01*
X150826247Y-99561904D02*
X150683390Y-99561904D01*
X150683390Y-99561904D02*
X150492914Y-99514285D01*
X150492914Y-99514285D02*
X150397676Y-99466666D01*
X150397676Y-99466666D02*
X150302438Y-99371428D01*
X150302438Y-99371428D02*
X150254819Y-99228571D01*
X150254819Y-99228571D02*
X150254819Y-99133333D01*
X150254819Y-99133333D02*
X150302438Y-98990476D01*
X150302438Y-98990476D02*
X150350057Y-98942857D01*
X151254819Y-97990476D02*
X151254819Y-98561904D01*
X151254819Y-98276190D02*
X150254819Y-98276190D01*
X150254819Y-98276190D02*
X150397676Y-98371428D01*
X150397676Y-98371428D02*
X150492914Y-98466666D01*
X150492914Y-98466666D02*
X150540533Y-98561904D01*
X150350057Y-97609523D02*
X150302438Y-97561904D01*
X150302438Y-97561904D02*
X150254819Y-97466666D01*
X150254819Y-97466666D02*
X150254819Y-97228571D01*
X150254819Y-97228571D02*
X150302438Y-97133333D01*
X150302438Y-97133333D02*
X150350057Y-97085714D01*
X150350057Y-97085714D02*
X150445295Y-97038095D01*
X150445295Y-97038095D02*
X150540533Y-97038095D01*
X150540533Y-97038095D02*
X150683390Y-97085714D01*
X150683390Y-97085714D02*
X151254819Y-97657142D01*
X151254819Y-97657142D02*
X151254819Y-97038095D01*
X129539580Y-90842857D02*
X129587200Y-90890476D01*
X129587200Y-90890476D02*
X129634819Y-91033333D01*
X129634819Y-91033333D02*
X129634819Y-91128571D01*
X129634819Y-91128571D02*
X129587200Y-91271428D01*
X129587200Y-91271428D02*
X129491961Y-91366666D01*
X129491961Y-91366666D02*
X129396723Y-91414285D01*
X129396723Y-91414285D02*
X129206247Y-91461904D01*
X129206247Y-91461904D02*
X129063390Y-91461904D01*
X129063390Y-91461904D02*
X128872914Y-91414285D01*
X128872914Y-91414285D02*
X128777676Y-91366666D01*
X128777676Y-91366666D02*
X128682438Y-91271428D01*
X128682438Y-91271428D02*
X128634819Y-91128571D01*
X128634819Y-91128571D02*
X128634819Y-91033333D01*
X128634819Y-91033333D02*
X128682438Y-90890476D01*
X128682438Y-90890476D02*
X128730057Y-90842857D01*
X129634819Y-89890476D02*
X129634819Y-90461904D01*
X129634819Y-90176190D02*
X128634819Y-90176190D01*
X128634819Y-90176190D02*
X128777676Y-90271428D01*
X128777676Y-90271428D02*
X128872914Y-90366666D01*
X128872914Y-90366666D02*
X128920533Y-90461904D01*
X128634819Y-89557142D02*
X128634819Y-88890476D01*
X128634819Y-88890476D02*
X129634819Y-89319047D01*
X110633333Y-126279580D02*
X110585714Y-126327200D01*
X110585714Y-126327200D02*
X110442857Y-126374819D01*
X110442857Y-126374819D02*
X110347619Y-126374819D01*
X110347619Y-126374819D02*
X110204762Y-126327200D01*
X110204762Y-126327200D02*
X110109524Y-126231961D01*
X110109524Y-126231961D02*
X110061905Y-126136723D01*
X110061905Y-126136723D02*
X110014286Y-125946247D01*
X110014286Y-125946247D02*
X110014286Y-125803390D01*
X110014286Y-125803390D02*
X110061905Y-125612914D01*
X110061905Y-125612914D02*
X110109524Y-125517676D01*
X110109524Y-125517676D02*
X110204762Y-125422438D01*
X110204762Y-125422438D02*
X110347619Y-125374819D01*
X110347619Y-125374819D02*
X110442857Y-125374819D01*
X110442857Y-125374819D02*
X110585714Y-125422438D01*
X110585714Y-125422438D02*
X110633333Y-125470057D01*
X111585714Y-126374819D02*
X111014286Y-126374819D01*
X111300000Y-126374819D02*
X111300000Y-125374819D01*
X111300000Y-125374819D02*
X111204762Y-125517676D01*
X111204762Y-125517676D02*
X111109524Y-125612914D01*
X111109524Y-125612914D02*
X111014286Y-125660533D01*
X167557142Y-128104819D02*
X167223809Y-127628628D01*
X166985714Y-128104819D02*
X166985714Y-127104819D01*
X166985714Y-127104819D02*
X167366666Y-127104819D01*
X167366666Y-127104819D02*
X167461904Y-127152438D01*
X167461904Y-127152438D02*
X167509523Y-127200057D01*
X167509523Y-127200057D02*
X167557142Y-127295295D01*
X167557142Y-127295295D02*
X167557142Y-127438152D01*
X167557142Y-127438152D02*
X167509523Y-127533390D01*
X167509523Y-127533390D02*
X167461904Y-127581009D01*
X167461904Y-127581009D02*
X167366666Y-127628628D01*
X167366666Y-127628628D02*
X166985714Y-127628628D01*
X167938095Y-127200057D02*
X167985714Y-127152438D01*
X167985714Y-127152438D02*
X168080952Y-127104819D01*
X168080952Y-127104819D02*
X168319047Y-127104819D01*
X168319047Y-127104819D02*
X168414285Y-127152438D01*
X168414285Y-127152438D02*
X168461904Y-127200057D01*
X168461904Y-127200057D02*
X168509523Y-127295295D01*
X168509523Y-127295295D02*
X168509523Y-127390533D01*
X168509523Y-127390533D02*
X168461904Y-127533390D01*
X168461904Y-127533390D02*
X167890476Y-128104819D01*
X167890476Y-128104819D02*
X168509523Y-128104819D01*
X169461904Y-128104819D02*
X168890476Y-128104819D01*
X169176190Y-128104819D02*
X169176190Y-127104819D01*
X169176190Y-127104819D02*
X169080952Y-127247676D01*
X169080952Y-127247676D02*
X168985714Y-127342914D01*
X168985714Y-127342914D02*
X168890476Y-127390533D01*
X130059580Y-111442857D02*
X130107200Y-111490476D01*
X130107200Y-111490476D02*
X130154819Y-111633333D01*
X130154819Y-111633333D02*
X130154819Y-111728571D01*
X130154819Y-111728571D02*
X130107200Y-111871428D01*
X130107200Y-111871428D02*
X130011961Y-111966666D01*
X130011961Y-111966666D02*
X129916723Y-112014285D01*
X129916723Y-112014285D02*
X129726247Y-112061904D01*
X129726247Y-112061904D02*
X129583390Y-112061904D01*
X129583390Y-112061904D02*
X129392914Y-112014285D01*
X129392914Y-112014285D02*
X129297676Y-111966666D01*
X129297676Y-111966666D02*
X129202438Y-111871428D01*
X129202438Y-111871428D02*
X129154819Y-111728571D01*
X129154819Y-111728571D02*
X129154819Y-111633333D01*
X129154819Y-111633333D02*
X129202438Y-111490476D01*
X129202438Y-111490476D02*
X129250057Y-111442857D01*
X130154819Y-110490476D02*
X130154819Y-111061904D01*
X130154819Y-110776190D02*
X129154819Y-110776190D01*
X129154819Y-110776190D02*
X129297676Y-110871428D01*
X129297676Y-110871428D02*
X129392914Y-110966666D01*
X129392914Y-110966666D02*
X129440533Y-111061904D01*
X129488152Y-109633333D02*
X130154819Y-109633333D01*
X129107200Y-109871428D02*
X129821485Y-110109523D01*
X129821485Y-110109523D02*
X129821485Y-109490476D01*
X177999819Y-67453333D02*
X178714104Y-67453333D01*
X178714104Y-67453333D02*
X178856961Y-67500952D01*
X178856961Y-67500952D02*
X178952200Y-67596190D01*
X178952200Y-67596190D02*
X178999819Y-67739047D01*
X178999819Y-67739047D02*
X178999819Y-67834285D01*
X178999819Y-66929523D02*
X178999819Y-66739047D01*
X178999819Y-66739047D02*
X178952200Y-66643809D01*
X178952200Y-66643809D02*
X178904580Y-66596190D01*
X178904580Y-66596190D02*
X178761723Y-66500952D01*
X178761723Y-66500952D02*
X178571247Y-66453333D01*
X178571247Y-66453333D02*
X178190295Y-66453333D01*
X178190295Y-66453333D02*
X178095057Y-66500952D01*
X178095057Y-66500952D02*
X178047438Y-66548571D01*
X178047438Y-66548571D02*
X177999819Y-66643809D01*
X177999819Y-66643809D02*
X177999819Y-66834285D01*
X177999819Y-66834285D02*
X178047438Y-66929523D01*
X178047438Y-66929523D02*
X178095057Y-66977142D01*
X178095057Y-66977142D02*
X178190295Y-67024761D01*
X178190295Y-67024761D02*
X178428390Y-67024761D01*
X178428390Y-67024761D02*
X178523628Y-66977142D01*
X178523628Y-66977142D02*
X178571247Y-66929523D01*
X178571247Y-66929523D02*
X178618866Y-66834285D01*
X178618866Y-66834285D02*
X178618866Y-66643809D01*
X178618866Y-66643809D02*
X178571247Y-66548571D01*
X178571247Y-66548571D02*
X178523628Y-66500952D01*
X178523628Y-66500952D02*
X178428390Y-66453333D01*
X133081009Y-108233333D02*
X133081009Y-108566666D01*
X133604819Y-108566666D02*
X132604819Y-108566666D01*
X132604819Y-108566666D02*
X132604819Y-108090476D01*
X133081009Y-107376190D02*
X133128628Y-107233333D01*
X133128628Y-107233333D02*
X133176247Y-107185714D01*
X133176247Y-107185714D02*
X133271485Y-107138095D01*
X133271485Y-107138095D02*
X133414342Y-107138095D01*
X133414342Y-107138095D02*
X133509580Y-107185714D01*
X133509580Y-107185714D02*
X133557200Y-107233333D01*
X133557200Y-107233333D02*
X133604819Y-107328571D01*
X133604819Y-107328571D02*
X133604819Y-107709523D01*
X133604819Y-107709523D02*
X132604819Y-107709523D01*
X132604819Y-107709523D02*
X132604819Y-107376190D01*
X132604819Y-107376190D02*
X132652438Y-107280952D01*
X132652438Y-107280952D02*
X132700057Y-107233333D01*
X132700057Y-107233333D02*
X132795295Y-107185714D01*
X132795295Y-107185714D02*
X132890533Y-107185714D01*
X132890533Y-107185714D02*
X132985771Y-107233333D01*
X132985771Y-107233333D02*
X133033390Y-107280952D01*
X133033390Y-107280952D02*
X133081009Y-107376190D01*
X133081009Y-107376190D02*
X133081009Y-107709523D01*
X133604819Y-106185714D02*
X133604819Y-106757142D01*
X133604819Y-106471428D02*
X132604819Y-106471428D01*
X132604819Y-106471428D02*
X132747676Y-106566666D01*
X132747676Y-106566666D02*
X132842914Y-106661904D01*
X132842914Y-106661904D02*
X132890533Y-106757142D01*
X167533333Y-87604819D02*
X167200000Y-87128628D01*
X166961905Y-87604819D02*
X166961905Y-86604819D01*
X166961905Y-86604819D02*
X167342857Y-86604819D01*
X167342857Y-86604819D02*
X167438095Y-86652438D01*
X167438095Y-86652438D02*
X167485714Y-86700057D01*
X167485714Y-86700057D02*
X167533333Y-86795295D01*
X167533333Y-86795295D02*
X167533333Y-86938152D01*
X167533333Y-86938152D02*
X167485714Y-87033390D01*
X167485714Y-87033390D02*
X167438095Y-87081009D01*
X167438095Y-87081009D02*
X167342857Y-87128628D01*
X167342857Y-87128628D02*
X166961905Y-87128628D01*
X168009524Y-87604819D02*
X168200000Y-87604819D01*
X168200000Y-87604819D02*
X168295238Y-87557200D01*
X168295238Y-87557200D02*
X168342857Y-87509580D01*
X168342857Y-87509580D02*
X168438095Y-87366723D01*
X168438095Y-87366723D02*
X168485714Y-87176247D01*
X168485714Y-87176247D02*
X168485714Y-86795295D01*
X168485714Y-86795295D02*
X168438095Y-86700057D01*
X168438095Y-86700057D02*
X168390476Y-86652438D01*
X168390476Y-86652438D02*
X168295238Y-86604819D01*
X168295238Y-86604819D02*
X168104762Y-86604819D01*
X168104762Y-86604819D02*
X168009524Y-86652438D01*
X168009524Y-86652438D02*
X167961905Y-86700057D01*
X167961905Y-86700057D02*
X167914286Y-86795295D01*
X167914286Y-86795295D02*
X167914286Y-87033390D01*
X167914286Y-87033390D02*
X167961905Y-87128628D01*
X167961905Y-87128628D02*
X168009524Y-87176247D01*
X168009524Y-87176247D02*
X168104762Y-87223866D01*
X168104762Y-87223866D02*
X168295238Y-87223866D01*
X168295238Y-87223866D02*
X168390476Y-87176247D01*
X168390476Y-87176247D02*
X168438095Y-87128628D01*
X168438095Y-87128628D02*
X168485714Y-87033390D01*
X132357142Y-70504819D02*
X132023809Y-70028628D01*
X131785714Y-70504819D02*
X131785714Y-69504819D01*
X131785714Y-69504819D02*
X132166666Y-69504819D01*
X132166666Y-69504819D02*
X132261904Y-69552438D01*
X132261904Y-69552438D02*
X132309523Y-69600057D01*
X132309523Y-69600057D02*
X132357142Y-69695295D01*
X132357142Y-69695295D02*
X132357142Y-69838152D01*
X132357142Y-69838152D02*
X132309523Y-69933390D01*
X132309523Y-69933390D02*
X132261904Y-69981009D01*
X132261904Y-69981009D02*
X132166666Y-70028628D01*
X132166666Y-70028628D02*
X131785714Y-70028628D01*
X133309523Y-70504819D02*
X132738095Y-70504819D01*
X133023809Y-70504819D02*
X133023809Y-69504819D01*
X133023809Y-69504819D02*
X132928571Y-69647676D01*
X132928571Y-69647676D02*
X132833333Y-69742914D01*
X132833333Y-69742914D02*
X132738095Y-69790533D01*
X133690476Y-69600057D02*
X133738095Y-69552438D01*
X133738095Y-69552438D02*
X133833333Y-69504819D01*
X133833333Y-69504819D02*
X134071428Y-69504819D01*
X134071428Y-69504819D02*
X134166666Y-69552438D01*
X134166666Y-69552438D02*
X134214285Y-69600057D01*
X134214285Y-69600057D02*
X134261904Y-69695295D01*
X134261904Y-69695295D02*
X134261904Y-69790533D01*
X134261904Y-69790533D02*
X134214285Y-69933390D01*
X134214285Y-69933390D02*
X133642857Y-70504819D01*
X133642857Y-70504819D02*
X134261904Y-70504819D01*
X98619819Y-103558333D02*
X99334104Y-103558333D01*
X99334104Y-103558333D02*
X99476961Y-103605952D01*
X99476961Y-103605952D02*
X99572200Y-103701190D01*
X99572200Y-103701190D02*
X99619819Y-103844047D01*
X99619819Y-103844047D02*
X99619819Y-103939285D01*
X98619819Y-103177380D02*
X98619819Y-102558333D01*
X98619819Y-102558333D02*
X99000771Y-102891666D01*
X99000771Y-102891666D02*
X99000771Y-102748809D01*
X99000771Y-102748809D02*
X99048390Y-102653571D01*
X99048390Y-102653571D02*
X99096009Y-102605952D01*
X99096009Y-102605952D02*
X99191247Y-102558333D01*
X99191247Y-102558333D02*
X99429342Y-102558333D01*
X99429342Y-102558333D02*
X99524580Y-102605952D01*
X99524580Y-102605952D02*
X99572200Y-102653571D01*
X99572200Y-102653571D02*
X99619819Y-102748809D01*
X99619819Y-102748809D02*
X99619819Y-103034523D01*
X99619819Y-103034523D02*
X99572200Y-103129761D01*
X99572200Y-103129761D02*
X99524580Y-103177380D01*
X123234819Y-120095237D02*
X124044342Y-120095237D01*
X124044342Y-120095237D02*
X124139580Y-120047618D01*
X124139580Y-120047618D02*
X124187200Y-119999999D01*
X124187200Y-119999999D02*
X124234819Y-119904761D01*
X124234819Y-119904761D02*
X124234819Y-119714285D01*
X124234819Y-119714285D02*
X124187200Y-119619047D01*
X124187200Y-119619047D02*
X124139580Y-119571428D01*
X124139580Y-119571428D02*
X124044342Y-119523809D01*
X124044342Y-119523809D02*
X123234819Y-119523809D01*
X123949104Y-119095237D02*
X123949104Y-118619047D01*
X124234819Y-119190475D02*
X123234819Y-118857142D01*
X123234819Y-118857142D02*
X124234819Y-118523809D01*
X124234819Y-117619047D02*
X123758628Y-117952380D01*
X124234819Y-118190475D02*
X123234819Y-118190475D01*
X123234819Y-118190475D02*
X123234819Y-117809523D01*
X123234819Y-117809523D02*
X123282438Y-117714285D01*
X123282438Y-117714285D02*
X123330057Y-117666666D01*
X123330057Y-117666666D02*
X123425295Y-117619047D01*
X123425295Y-117619047D02*
X123568152Y-117619047D01*
X123568152Y-117619047D02*
X123663390Y-117666666D01*
X123663390Y-117666666D02*
X123711009Y-117714285D01*
X123711009Y-117714285D02*
X123758628Y-117809523D01*
X123758628Y-117809523D02*
X123758628Y-118190475D01*
X123234819Y-117333332D02*
X123234819Y-116761904D01*
X124234819Y-117047618D02*
X123234819Y-117047618D01*
D12*
X126895238Y-98669556D02*
X126895238Y-99274318D01*
X126471905Y-98004318D02*
X126895238Y-98669556D01*
X126895238Y-98669556D02*
X127318572Y-98004318D01*
X128407143Y-99274318D02*
X127681428Y-99274318D01*
X128044285Y-99274318D02*
X128044285Y-98004318D01*
X128044285Y-98004318D02*
X127923333Y-98185746D01*
X127923333Y-98185746D02*
X127802381Y-98306699D01*
X127802381Y-98306699D02*
X127681428Y-98367175D01*
D10*
X118859580Y-67642857D02*
X118907200Y-67690476D01*
X118907200Y-67690476D02*
X118954819Y-67833333D01*
X118954819Y-67833333D02*
X118954819Y-67928571D01*
X118954819Y-67928571D02*
X118907200Y-68071428D01*
X118907200Y-68071428D02*
X118811961Y-68166666D01*
X118811961Y-68166666D02*
X118716723Y-68214285D01*
X118716723Y-68214285D02*
X118526247Y-68261904D01*
X118526247Y-68261904D02*
X118383390Y-68261904D01*
X118383390Y-68261904D02*
X118192914Y-68214285D01*
X118192914Y-68214285D02*
X118097676Y-68166666D01*
X118097676Y-68166666D02*
X118002438Y-68071428D01*
X118002438Y-68071428D02*
X117954819Y-67928571D01*
X117954819Y-67928571D02*
X117954819Y-67833333D01*
X117954819Y-67833333D02*
X118002438Y-67690476D01*
X118002438Y-67690476D02*
X118050057Y-67642857D01*
X118954819Y-66690476D02*
X118954819Y-67261904D01*
X118954819Y-66976190D02*
X117954819Y-66976190D01*
X117954819Y-66976190D02*
X118097676Y-67071428D01*
X118097676Y-67071428D02*
X118192914Y-67166666D01*
X118192914Y-67166666D02*
X118240533Y-67261904D01*
X118954819Y-66214285D02*
X118954819Y-66023809D01*
X118954819Y-66023809D02*
X118907200Y-65928571D01*
X118907200Y-65928571D02*
X118859580Y-65880952D01*
X118859580Y-65880952D02*
X118716723Y-65785714D01*
X118716723Y-65785714D02*
X118526247Y-65738095D01*
X118526247Y-65738095D02*
X118145295Y-65738095D01*
X118145295Y-65738095D02*
X118050057Y-65785714D01*
X118050057Y-65785714D02*
X118002438Y-65833333D01*
X118002438Y-65833333D02*
X117954819Y-65928571D01*
X117954819Y-65928571D02*
X117954819Y-66119047D01*
X117954819Y-66119047D02*
X118002438Y-66214285D01*
X118002438Y-66214285D02*
X118050057Y-66261904D01*
X118050057Y-66261904D02*
X118145295Y-66309523D01*
X118145295Y-66309523D02*
X118383390Y-66309523D01*
X118383390Y-66309523D02*
X118478628Y-66261904D01*
X118478628Y-66261904D02*
X118526247Y-66214285D01*
X118526247Y-66214285D02*
X118573866Y-66119047D01*
X118573866Y-66119047D02*
X118573866Y-65928571D01*
X118573866Y-65928571D02*
X118526247Y-65833333D01*
X118526247Y-65833333D02*
X118478628Y-65785714D01*
X118478628Y-65785714D02*
X118383390Y-65738095D01*
X121359580Y-67842857D02*
X121407200Y-67890476D01*
X121407200Y-67890476D02*
X121454819Y-68033333D01*
X121454819Y-68033333D02*
X121454819Y-68128571D01*
X121454819Y-68128571D02*
X121407200Y-68271428D01*
X121407200Y-68271428D02*
X121311961Y-68366666D01*
X121311961Y-68366666D02*
X121216723Y-68414285D01*
X121216723Y-68414285D02*
X121026247Y-68461904D01*
X121026247Y-68461904D02*
X120883390Y-68461904D01*
X120883390Y-68461904D02*
X120692914Y-68414285D01*
X120692914Y-68414285D02*
X120597676Y-68366666D01*
X120597676Y-68366666D02*
X120502438Y-68271428D01*
X120502438Y-68271428D02*
X120454819Y-68128571D01*
X120454819Y-68128571D02*
X120454819Y-68033333D01*
X120454819Y-68033333D02*
X120502438Y-67890476D01*
X120502438Y-67890476D02*
X120550057Y-67842857D01*
X120550057Y-67461904D02*
X120502438Y-67414285D01*
X120502438Y-67414285D02*
X120454819Y-67319047D01*
X120454819Y-67319047D02*
X120454819Y-67080952D01*
X120454819Y-67080952D02*
X120502438Y-66985714D01*
X120502438Y-66985714D02*
X120550057Y-66938095D01*
X120550057Y-66938095D02*
X120645295Y-66890476D01*
X120645295Y-66890476D02*
X120740533Y-66890476D01*
X120740533Y-66890476D02*
X120883390Y-66938095D01*
X120883390Y-66938095D02*
X121454819Y-67509523D01*
X121454819Y-67509523D02*
X121454819Y-66890476D01*
X120454819Y-66271428D02*
X120454819Y-66176190D01*
X120454819Y-66176190D02*
X120502438Y-66080952D01*
X120502438Y-66080952D02*
X120550057Y-66033333D01*
X120550057Y-66033333D02*
X120645295Y-65985714D01*
X120645295Y-65985714D02*
X120835771Y-65938095D01*
X120835771Y-65938095D02*
X121073866Y-65938095D01*
X121073866Y-65938095D02*
X121264342Y-65985714D01*
X121264342Y-65985714D02*
X121359580Y-66033333D01*
X121359580Y-66033333D02*
X121407200Y-66080952D01*
X121407200Y-66080952D02*
X121454819Y-66176190D01*
X121454819Y-66176190D02*
X121454819Y-66271428D01*
X121454819Y-66271428D02*
X121407200Y-66366666D01*
X121407200Y-66366666D02*
X121359580Y-66414285D01*
X121359580Y-66414285D02*
X121264342Y-66461904D01*
X121264342Y-66461904D02*
X121073866Y-66509523D01*
X121073866Y-66509523D02*
X120835771Y-66509523D01*
X120835771Y-66509523D02*
X120645295Y-66461904D01*
X120645295Y-66461904D02*
X120550057Y-66414285D01*
X120550057Y-66414285D02*
X120502438Y-66366666D01*
X120502438Y-66366666D02*
X120454819Y-66271428D01*
X126557142Y-115959580D02*
X126509523Y-116007200D01*
X126509523Y-116007200D02*
X126366666Y-116054819D01*
X126366666Y-116054819D02*
X126271428Y-116054819D01*
X126271428Y-116054819D02*
X126128571Y-116007200D01*
X126128571Y-116007200D02*
X126033333Y-115911961D01*
X126033333Y-115911961D02*
X125985714Y-115816723D01*
X125985714Y-115816723D02*
X125938095Y-115626247D01*
X125938095Y-115626247D02*
X125938095Y-115483390D01*
X125938095Y-115483390D02*
X125985714Y-115292914D01*
X125985714Y-115292914D02*
X126033333Y-115197676D01*
X126033333Y-115197676D02*
X126128571Y-115102438D01*
X126128571Y-115102438D02*
X126271428Y-115054819D01*
X126271428Y-115054819D02*
X126366666Y-115054819D01*
X126366666Y-115054819D02*
X126509523Y-115102438D01*
X126509523Y-115102438D02*
X126557142Y-115150057D01*
X127509523Y-116054819D02*
X126938095Y-116054819D01*
X127223809Y-116054819D02*
X127223809Y-115054819D01*
X127223809Y-115054819D02*
X127128571Y-115197676D01*
X127128571Y-115197676D02*
X127033333Y-115292914D01*
X127033333Y-115292914D02*
X126938095Y-115340533D01*
X128366666Y-115054819D02*
X128176190Y-115054819D01*
X128176190Y-115054819D02*
X128080952Y-115102438D01*
X128080952Y-115102438D02*
X128033333Y-115150057D01*
X128033333Y-115150057D02*
X127938095Y-115292914D01*
X127938095Y-115292914D02*
X127890476Y-115483390D01*
X127890476Y-115483390D02*
X127890476Y-115864342D01*
X127890476Y-115864342D02*
X127938095Y-115959580D01*
X127938095Y-115959580D02*
X127985714Y-116007200D01*
X127985714Y-116007200D02*
X128080952Y-116054819D01*
X128080952Y-116054819D02*
X128271428Y-116054819D01*
X128271428Y-116054819D02*
X128366666Y-116007200D01*
X128366666Y-116007200D02*
X128414285Y-115959580D01*
X128414285Y-115959580D02*
X128461904Y-115864342D01*
X128461904Y-115864342D02*
X128461904Y-115626247D01*
X128461904Y-115626247D02*
X128414285Y-115531009D01*
X128414285Y-115531009D02*
X128366666Y-115483390D01*
X128366666Y-115483390D02*
X128271428Y-115435771D01*
X128271428Y-115435771D02*
X128080952Y-115435771D01*
X128080952Y-115435771D02*
X127985714Y-115483390D01*
X127985714Y-115483390D02*
X127938095Y-115531009D01*
X127938095Y-115531009D02*
X127890476Y-115626247D01*
X157319047Y-100031009D02*
X157461904Y-100078628D01*
X157461904Y-100078628D02*
X157509523Y-100126247D01*
X157509523Y-100126247D02*
X157557142Y-100221485D01*
X157557142Y-100221485D02*
X157557142Y-100364342D01*
X157557142Y-100364342D02*
X157509523Y-100459580D01*
X157509523Y-100459580D02*
X157461904Y-100507200D01*
X157461904Y-100507200D02*
X157366666Y-100554819D01*
X157366666Y-100554819D02*
X156985714Y-100554819D01*
X156985714Y-100554819D02*
X156985714Y-99554819D01*
X156985714Y-99554819D02*
X157319047Y-99554819D01*
X157319047Y-99554819D02*
X157414285Y-99602438D01*
X157414285Y-99602438D02*
X157461904Y-99650057D01*
X157461904Y-99650057D02*
X157509523Y-99745295D01*
X157509523Y-99745295D02*
X157509523Y-99840533D01*
X157509523Y-99840533D02*
X157461904Y-99935771D01*
X157461904Y-99935771D02*
X157414285Y-99983390D01*
X157414285Y-99983390D02*
X157319047Y-100031009D01*
X157319047Y-100031009D02*
X156985714Y-100031009D01*
X157890476Y-99554819D02*
X158557142Y-99554819D01*
X158557142Y-99554819D02*
X157890476Y-100554819D01*
X157890476Y-100554819D02*
X158557142Y-100554819D01*
X159461904Y-100554819D02*
X158890476Y-100554819D01*
X159176190Y-100554819D02*
X159176190Y-99554819D01*
X159176190Y-99554819D02*
X159080952Y-99697676D01*
X159080952Y-99697676D02*
X158985714Y-99792914D01*
X158985714Y-99792914D02*
X158890476Y-99840533D01*
X102364580Y-122866666D02*
X102412200Y-122914285D01*
X102412200Y-122914285D02*
X102459819Y-123057142D01*
X102459819Y-123057142D02*
X102459819Y-123152380D01*
X102459819Y-123152380D02*
X102412200Y-123295237D01*
X102412200Y-123295237D02*
X102316961Y-123390475D01*
X102316961Y-123390475D02*
X102221723Y-123438094D01*
X102221723Y-123438094D02*
X102031247Y-123485713D01*
X102031247Y-123485713D02*
X101888390Y-123485713D01*
X101888390Y-123485713D02*
X101697914Y-123438094D01*
X101697914Y-123438094D02*
X101602676Y-123390475D01*
X101602676Y-123390475D02*
X101507438Y-123295237D01*
X101507438Y-123295237D02*
X101459819Y-123152380D01*
X101459819Y-123152380D02*
X101459819Y-123057142D01*
X101459819Y-123057142D02*
X101507438Y-122914285D01*
X101507438Y-122914285D02*
X101555057Y-122866666D01*
X101555057Y-122485713D02*
X101507438Y-122438094D01*
X101507438Y-122438094D02*
X101459819Y-122342856D01*
X101459819Y-122342856D02*
X101459819Y-122104761D01*
X101459819Y-122104761D02*
X101507438Y-122009523D01*
X101507438Y-122009523D02*
X101555057Y-121961904D01*
X101555057Y-121961904D02*
X101650295Y-121914285D01*
X101650295Y-121914285D02*
X101745533Y-121914285D01*
X101745533Y-121914285D02*
X101888390Y-121961904D01*
X101888390Y-121961904D02*
X102459819Y-122533332D01*
X102459819Y-122533332D02*
X102459819Y-121914285D01*
X103744819Y-137666666D02*
X103268628Y-137999999D01*
X103744819Y-138238094D02*
X102744819Y-138238094D01*
X102744819Y-138238094D02*
X102744819Y-137857142D01*
X102744819Y-137857142D02*
X102792438Y-137761904D01*
X102792438Y-137761904D02*
X102840057Y-137714285D01*
X102840057Y-137714285D02*
X102935295Y-137666666D01*
X102935295Y-137666666D02*
X103078152Y-137666666D01*
X103078152Y-137666666D02*
X103173390Y-137714285D01*
X103173390Y-137714285D02*
X103221009Y-137761904D01*
X103221009Y-137761904D02*
X103268628Y-137857142D01*
X103268628Y-137857142D02*
X103268628Y-138238094D01*
X102744819Y-136761904D02*
X102744819Y-137238094D01*
X102744819Y-137238094D02*
X103221009Y-137285713D01*
X103221009Y-137285713D02*
X103173390Y-137238094D01*
X103173390Y-137238094D02*
X103125771Y-137142856D01*
X103125771Y-137142856D02*
X103125771Y-136904761D01*
X103125771Y-136904761D02*
X103173390Y-136809523D01*
X103173390Y-136809523D02*
X103221009Y-136761904D01*
X103221009Y-136761904D02*
X103316247Y-136714285D01*
X103316247Y-136714285D02*
X103554342Y-136714285D01*
X103554342Y-136714285D02*
X103649580Y-136761904D01*
X103649580Y-136761904D02*
X103697200Y-136809523D01*
X103697200Y-136809523D02*
X103744819Y-136904761D01*
X103744819Y-136904761D02*
X103744819Y-137142856D01*
X103744819Y-137142856D02*
X103697200Y-137238094D01*
X103697200Y-137238094D02*
X103649580Y-137285713D01*
X91457142Y-110504819D02*
X91123809Y-110028628D01*
X90885714Y-110504819D02*
X90885714Y-109504819D01*
X90885714Y-109504819D02*
X91266666Y-109504819D01*
X91266666Y-109504819D02*
X91361904Y-109552438D01*
X91361904Y-109552438D02*
X91409523Y-109600057D01*
X91409523Y-109600057D02*
X91457142Y-109695295D01*
X91457142Y-109695295D02*
X91457142Y-109838152D01*
X91457142Y-109838152D02*
X91409523Y-109933390D01*
X91409523Y-109933390D02*
X91361904Y-109981009D01*
X91361904Y-109981009D02*
X91266666Y-110028628D01*
X91266666Y-110028628D02*
X90885714Y-110028628D01*
X91838095Y-109600057D02*
X91885714Y-109552438D01*
X91885714Y-109552438D02*
X91980952Y-109504819D01*
X91980952Y-109504819D02*
X92219047Y-109504819D01*
X92219047Y-109504819D02*
X92314285Y-109552438D01*
X92314285Y-109552438D02*
X92361904Y-109600057D01*
X92361904Y-109600057D02*
X92409523Y-109695295D01*
X92409523Y-109695295D02*
X92409523Y-109790533D01*
X92409523Y-109790533D02*
X92361904Y-109933390D01*
X92361904Y-109933390D02*
X91790476Y-110504819D01*
X91790476Y-110504819D02*
X92409523Y-110504819D01*
X93266666Y-109838152D02*
X93266666Y-110504819D01*
X93028571Y-109457200D02*
X92790476Y-110171485D01*
X92790476Y-110171485D02*
X93409523Y-110171485D01*
X176657142Y-113354819D02*
X176323809Y-112878628D01*
X176085714Y-113354819D02*
X176085714Y-112354819D01*
X176085714Y-112354819D02*
X176466666Y-112354819D01*
X176466666Y-112354819D02*
X176561904Y-112402438D01*
X176561904Y-112402438D02*
X176609523Y-112450057D01*
X176609523Y-112450057D02*
X176657142Y-112545295D01*
X176657142Y-112545295D02*
X176657142Y-112688152D01*
X176657142Y-112688152D02*
X176609523Y-112783390D01*
X176609523Y-112783390D02*
X176561904Y-112831009D01*
X176561904Y-112831009D02*
X176466666Y-112878628D01*
X176466666Y-112878628D02*
X176085714Y-112878628D01*
X177609523Y-113354819D02*
X177038095Y-113354819D01*
X177323809Y-113354819D02*
X177323809Y-112354819D01*
X177323809Y-112354819D02*
X177228571Y-112497676D01*
X177228571Y-112497676D02*
X177133333Y-112592914D01*
X177133333Y-112592914D02*
X177038095Y-112640533D01*
X177942857Y-112354819D02*
X178609523Y-112354819D01*
X178609523Y-112354819D02*
X178180952Y-113354819D01*
D12*
X92113842Y-100967619D02*
X92174318Y-100786190D01*
X92174318Y-100786190D02*
X92174318Y-100483809D01*
X92174318Y-100483809D02*
X92113842Y-100362857D01*
X92113842Y-100362857D02*
X92053365Y-100302381D01*
X92053365Y-100302381D02*
X91932413Y-100241904D01*
X91932413Y-100241904D02*
X91811461Y-100241904D01*
X91811461Y-100241904D02*
X91690508Y-100302381D01*
X91690508Y-100302381D02*
X91630032Y-100362857D01*
X91630032Y-100362857D02*
X91569556Y-100483809D01*
X91569556Y-100483809D02*
X91509080Y-100725714D01*
X91509080Y-100725714D02*
X91448603Y-100846666D01*
X91448603Y-100846666D02*
X91388127Y-100907143D01*
X91388127Y-100907143D02*
X91267175Y-100967619D01*
X91267175Y-100967619D02*
X91146222Y-100967619D01*
X91146222Y-100967619D02*
X91025270Y-100907143D01*
X91025270Y-100907143D02*
X90964794Y-100846666D01*
X90964794Y-100846666D02*
X90904318Y-100725714D01*
X90904318Y-100725714D02*
X90904318Y-100423333D01*
X90904318Y-100423333D02*
X90964794Y-100241904D01*
X92174318Y-99032380D02*
X92174318Y-99758095D01*
X92174318Y-99395238D02*
X90904318Y-99395238D01*
X90904318Y-99395238D02*
X91085746Y-99516190D01*
X91085746Y-99516190D02*
X91206699Y-99637142D01*
X91206699Y-99637142D02*
X91267175Y-99758095D01*
D10*
X107546604Y-124745179D02*
X107546604Y-123935656D01*
X107546604Y-123935656D02*
X107498985Y-123840418D01*
X107498985Y-123840418D02*
X107451366Y-123792799D01*
X107451366Y-123792799D02*
X107356128Y-123745179D01*
X107356128Y-123745179D02*
X107165652Y-123745179D01*
X107165652Y-123745179D02*
X107070414Y-123792799D01*
X107070414Y-123792799D02*
X107022795Y-123840418D01*
X107022795Y-123840418D02*
X106975176Y-123935656D01*
X106975176Y-123935656D02*
X106975176Y-124745179D01*
X106546604Y-124649941D02*
X106498985Y-124697560D01*
X106498985Y-124697560D02*
X106403747Y-124745179D01*
X106403747Y-124745179D02*
X106165652Y-124745179D01*
X106165652Y-124745179D02*
X106070414Y-124697560D01*
X106070414Y-124697560D02*
X106022795Y-124649941D01*
X106022795Y-124649941D02*
X105975176Y-124554703D01*
X105975176Y-124554703D02*
X105975176Y-124459465D01*
X105975176Y-124459465D02*
X106022795Y-124316608D01*
X106022795Y-124316608D02*
X106594223Y-123745179D01*
X106594223Y-123745179D02*
X105975176Y-123745179D01*
X108267441Y-126487388D02*
X108267441Y-126249293D01*
X108505536Y-126344531D02*
X108267441Y-126249293D01*
X108267441Y-126249293D02*
X108029346Y-126344531D01*
X108410298Y-126058817D02*
X108267441Y-126249293D01*
X108267441Y-126249293D02*
X108124584Y-126058817D01*
X109200000Y-125954819D02*
X109200000Y-126192914D01*
X108961905Y-126097676D02*
X109200000Y-126192914D01*
X109200000Y-126192914D02*
X109438095Y-126097676D01*
X109057143Y-126383390D02*
X109200000Y-126192914D01*
X109200000Y-126192914D02*
X109342857Y-126383390D01*
X102533333Y-86704819D02*
X102200000Y-86228628D01*
X101961905Y-86704819D02*
X101961905Y-85704819D01*
X101961905Y-85704819D02*
X102342857Y-85704819D01*
X102342857Y-85704819D02*
X102438095Y-85752438D01*
X102438095Y-85752438D02*
X102485714Y-85800057D01*
X102485714Y-85800057D02*
X102533333Y-85895295D01*
X102533333Y-85895295D02*
X102533333Y-86038152D01*
X102533333Y-86038152D02*
X102485714Y-86133390D01*
X102485714Y-86133390D02*
X102438095Y-86181009D01*
X102438095Y-86181009D02*
X102342857Y-86228628D01*
X102342857Y-86228628D02*
X101961905Y-86228628D01*
X103104762Y-86133390D02*
X103009524Y-86085771D01*
X103009524Y-86085771D02*
X102961905Y-86038152D01*
X102961905Y-86038152D02*
X102914286Y-85942914D01*
X102914286Y-85942914D02*
X102914286Y-85895295D01*
X102914286Y-85895295D02*
X102961905Y-85800057D01*
X102961905Y-85800057D02*
X103009524Y-85752438D01*
X103009524Y-85752438D02*
X103104762Y-85704819D01*
X103104762Y-85704819D02*
X103295238Y-85704819D01*
X103295238Y-85704819D02*
X103390476Y-85752438D01*
X103390476Y-85752438D02*
X103438095Y-85800057D01*
X103438095Y-85800057D02*
X103485714Y-85895295D01*
X103485714Y-85895295D02*
X103485714Y-85942914D01*
X103485714Y-85942914D02*
X103438095Y-86038152D01*
X103438095Y-86038152D02*
X103390476Y-86085771D01*
X103390476Y-86085771D02*
X103295238Y-86133390D01*
X103295238Y-86133390D02*
X103104762Y-86133390D01*
X103104762Y-86133390D02*
X103009524Y-86181009D01*
X103009524Y-86181009D02*
X102961905Y-86228628D01*
X102961905Y-86228628D02*
X102914286Y-86323866D01*
X102914286Y-86323866D02*
X102914286Y-86514342D01*
X102914286Y-86514342D02*
X102961905Y-86609580D01*
X102961905Y-86609580D02*
X103009524Y-86657200D01*
X103009524Y-86657200D02*
X103104762Y-86704819D01*
X103104762Y-86704819D02*
X103295238Y-86704819D01*
X103295238Y-86704819D02*
X103390476Y-86657200D01*
X103390476Y-86657200D02*
X103438095Y-86609580D01*
X103438095Y-86609580D02*
X103485714Y-86514342D01*
X103485714Y-86514342D02*
X103485714Y-86323866D01*
X103485714Y-86323866D02*
X103438095Y-86228628D01*
X103438095Y-86228628D02*
X103390476Y-86181009D01*
X103390476Y-86181009D02*
X103295238Y-86133390D01*
X167157142Y-115904819D02*
X166823809Y-115428628D01*
X166585714Y-115904819D02*
X166585714Y-114904819D01*
X166585714Y-114904819D02*
X166966666Y-114904819D01*
X166966666Y-114904819D02*
X167061904Y-114952438D01*
X167061904Y-114952438D02*
X167109523Y-115000057D01*
X167109523Y-115000057D02*
X167157142Y-115095295D01*
X167157142Y-115095295D02*
X167157142Y-115238152D01*
X167157142Y-115238152D02*
X167109523Y-115333390D01*
X167109523Y-115333390D02*
X167061904Y-115381009D01*
X167061904Y-115381009D02*
X166966666Y-115428628D01*
X166966666Y-115428628D02*
X166585714Y-115428628D01*
X168109523Y-115904819D02*
X167538095Y-115904819D01*
X167823809Y-115904819D02*
X167823809Y-114904819D01*
X167823809Y-114904819D02*
X167728571Y-115047676D01*
X167728571Y-115047676D02*
X167633333Y-115142914D01*
X167633333Y-115142914D02*
X167538095Y-115190533D01*
X168680952Y-115333390D02*
X168585714Y-115285771D01*
X168585714Y-115285771D02*
X168538095Y-115238152D01*
X168538095Y-115238152D02*
X168490476Y-115142914D01*
X168490476Y-115142914D02*
X168490476Y-115095295D01*
X168490476Y-115095295D02*
X168538095Y-115000057D01*
X168538095Y-115000057D02*
X168585714Y-114952438D01*
X168585714Y-114952438D02*
X168680952Y-114904819D01*
X168680952Y-114904819D02*
X168871428Y-114904819D01*
X168871428Y-114904819D02*
X168966666Y-114952438D01*
X168966666Y-114952438D02*
X169014285Y-115000057D01*
X169014285Y-115000057D02*
X169061904Y-115095295D01*
X169061904Y-115095295D02*
X169061904Y-115142914D01*
X169061904Y-115142914D02*
X169014285Y-115238152D01*
X169014285Y-115238152D02*
X168966666Y-115285771D01*
X168966666Y-115285771D02*
X168871428Y-115333390D01*
X168871428Y-115333390D02*
X168680952Y-115333390D01*
X168680952Y-115333390D02*
X168585714Y-115381009D01*
X168585714Y-115381009D02*
X168538095Y-115428628D01*
X168538095Y-115428628D02*
X168490476Y-115523866D01*
X168490476Y-115523866D02*
X168490476Y-115714342D01*
X168490476Y-115714342D02*
X168538095Y-115809580D01*
X168538095Y-115809580D02*
X168585714Y-115857200D01*
X168585714Y-115857200D02*
X168680952Y-115904819D01*
X168680952Y-115904819D02*
X168871428Y-115904819D01*
X168871428Y-115904819D02*
X168966666Y-115857200D01*
X168966666Y-115857200D02*
X169014285Y-115809580D01*
X169014285Y-115809580D02*
X169061904Y-115714342D01*
X169061904Y-115714342D02*
X169061904Y-115523866D01*
X169061904Y-115523866D02*
X169014285Y-115428628D01*
X169014285Y-115428628D02*
X168966666Y-115381009D01*
X168966666Y-115381009D02*
X168871428Y-115333390D01*
D12*
X150932380Y-140263842D02*
X151113809Y-140324318D01*
X151113809Y-140324318D02*
X151416190Y-140324318D01*
X151416190Y-140324318D02*
X151537142Y-140263842D01*
X151537142Y-140263842D02*
X151597618Y-140203365D01*
X151597618Y-140203365D02*
X151658095Y-140082413D01*
X151658095Y-140082413D02*
X151658095Y-139961461D01*
X151658095Y-139961461D02*
X151597618Y-139840508D01*
X151597618Y-139840508D02*
X151537142Y-139780032D01*
X151537142Y-139780032D02*
X151416190Y-139719556D01*
X151416190Y-139719556D02*
X151174285Y-139659080D01*
X151174285Y-139659080D02*
X151053333Y-139598603D01*
X151053333Y-139598603D02*
X150992856Y-139538127D01*
X150992856Y-139538127D02*
X150932380Y-139417175D01*
X150932380Y-139417175D02*
X150932380Y-139296222D01*
X150932380Y-139296222D02*
X150992856Y-139175270D01*
X150992856Y-139175270D02*
X151053333Y-139114794D01*
X151053333Y-139114794D02*
X151174285Y-139054318D01*
X151174285Y-139054318D02*
X151476666Y-139054318D01*
X151476666Y-139054318D02*
X151658095Y-139114794D01*
X152746666Y-139477651D02*
X152746666Y-140324318D01*
X152444285Y-138993842D02*
X152141904Y-139900984D01*
X152141904Y-139900984D02*
X152928095Y-139900984D01*
D10*
X105444819Y-132566666D02*
X104968628Y-132899999D01*
X105444819Y-133138094D02*
X104444819Y-133138094D01*
X104444819Y-133138094D02*
X104444819Y-132757142D01*
X104444819Y-132757142D02*
X104492438Y-132661904D01*
X104492438Y-132661904D02*
X104540057Y-132614285D01*
X104540057Y-132614285D02*
X104635295Y-132566666D01*
X104635295Y-132566666D02*
X104778152Y-132566666D01*
X104778152Y-132566666D02*
X104873390Y-132614285D01*
X104873390Y-132614285D02*
X104921009Y-132661904D01*
X104921009Y-132661904D02*
X104968628Y-132757142D01*
X104968628Y-132757142D02*
X104968628Y-133138094D01*
X104778152Y-131709523D02*
X105444819Y-131709523D01*
X104397200Y-131947618D02*
X105111485Y-132185713D01*
X105111485Y-132185713D02*
X105111485Y-131566666D01*
X160504819Y-142166666D02*
X160028628Y-142499999D01*
X160504819Y-142738094D02*
X159504819Y-142738094D01*
X159504819Y-142738094D02*
X159504819Y-142357142D01*
X159504819Y-142357142D02*
X159552438Y-142261904D01*
X159552438Y-142261904D02*
X159600057Y-142214285D01*
X159600057Y-142214285D02*
X159695295Y-142166666D01*
X159695295Y-142166666D02*
X159838152Y-142166666D01*
X159838152Y-142166666D02*
X159933390Y-142214285D01*
X159933390Y-142214285D02*
X159981009Y-142261904D01*
X159981009Y-142261904D02*
X160028628Y-142357142D01*
X160028628Y-142357142D02*
X160028628Y-142738094D01*
X160504819Y-141214285D02*
X160504819Y-141785713D01*
X160504819Y-141499999D02*
X159504819Y-141499999D01*
X159504819Y-141499999D02*
X159647676Y-141595237D01*
X159647676Y-141595237D02*
X159742914Y-141690475D01*
X159742914Y-141690475D02*
X159790533Y-141785713D01*
X175257142Y-116004819D02*
X174923809Y-115528628D01*
X174685714Y-116004819D02*
X174685714Y-115004819D01*
X174685714Y-115004819D02*
X175066666Y-115004819D01*
X175066666Y-115004819D02*
X175161904Y-115052438D01*
X175161904Y-115052438D02*
X175209523Y-115100057D01*
X175209523Y-115100057D02*
X175257142Y-115195295D01*
X175257142Y-115195295D02*
X175257142Y-115338152D01*
X175257142Y-115338152D02*
X175209523Y-115433390D01*
X175209523Y-115433390D02*
X175161904Y-115481009D01*
X175161904Y-115481009D02*
X175066666Y-115528628D01*
X175066666Y-115528628D02*
X174685714Y-115528628D01*
X175638095Y-115100057D02*
X175685714Y-115052438D01*
X175685714Y-115052438D02*
X175780952Y-115004819D01*
X175780952Y-115004819D02*
X176019047Y-115004819D01*
X176019047Y-115004819D02*
X176114285Y-115052438D01*
X176114285Y-115052438D02*
X176161904Y-115100057D01*
X176161904Y-115100057D02*
X176209523Y-115195295D01*
X176209523Y-115195295D02*
X176209523Y-115290533D01*
X176209523Y-115290533D02*
X176161904Y-115433390D01*
X176161904Y-115433390D02*
X175590476Y-116004819D01*
X175590476Y-116004819D02*
X176209523Y-116004819D01*
X176828571Y-115004819D02*
X176923809Y-115004819D01*
X176923809Y-115004819D02*
X177019047Y-115052438D01*
X177019047Y-115052438D02*
X177066666Y-115100057D01*
X177066666Y-115100057D02*
X177114285Y-115195295D01*
X177114285Y-115195295D02*
X177161904Y-115385771D01*
X177161904Y-115385771D02*
X177161904Y-115623866D01*
X177161904Y-115623866D02*
X177114285Y-115814342D01*
X177114285Y-115814342D02*
X177066666Y-115909580D01*
X177066666Y-115909580D02*
X177019047Y-115957200D01*
X177019047Y-115957200D02*
X176923809Y-116004819D01*
X176923809Y-116004819D02*
X176828571Y-116004819D01*
X176828571Y-116004819D02*
X176733333Y-115957200D01*
X176733333Y-115957200D02*
X176685714Y-115909580D01*
X176685714Y-115909580D02*
X176638095Y-115814342D01*
X176638095Y-115814342D02*
X176590476Y-115623866D01*
X176590476Y-115623866D02*
X176590476Y-115385771D01*
X176590476Y-115385771D02*
X176638095Y-115195295D01*
X176638095Y-115195295D02*
X176685714Y-115100057D01*
X176685714Y-115100057D02*
X176733333Y-115052438D01*
X176733333Y-115052438D02*
X176828571Y-115004819D01*
X139957142Y-90759580D02*
X139909523Y-90807200D01*
X139909523Y-90807200D02*
X139766666Y-90854819D01*
X139766666Y-90854819D02*
X139671428Y-90854819D01*
X139671428Y-90854819D02*
X139528571Y-90807200D01*
X139528571Y-90807200D02*
X139433333Y-90711961D01*
X139433333Y-90711961D02*
X139385714Y-90616723D01*
X139385714Y-90616723D02*
X139338095Y-90426247D01*
X139338095Y-90426247D02*
X139338095Y-90283390D01*
X139338095Y-90283390D02*
X139385714Y-90092914D01*
X139385714Y-90092914D02*
X139433333Y-89997676D01*
X139433333Y-89997676D02*
X139528571Y-89902438D01*
X139528571Y-89902438D02*
X139671428Y-89854819D01*
X139671428Y-89854819D02*
X139766666Y-89854819D01*
X139766666Y-89854819D02*
X139909523Y-89902438D01*
X139909523Y-89902438D02*
X139957142Y-89950057D01*
X140338095Y-89950057D02*
X140385714Y-89902438D01*
X140385714Y-89902438D02*
X140480952Y-89854819D01*
X140480952Y-89854819D02*
X140719047Y-89854819D01*
X140719047Y-89854819D02*
X140814285Y-89902438D01*
X140814285Y-89902438D02*
X140861904Y-89950057D01*
X140861904Y-89950057D02*
X140909523Y-90045295D01*
X140909523Y-90045295D02*
X140909523Y-90140533D01*
X140909523Y-90140533D02*
X140861904Y-90283390D01*
X140861904Y-90283390D02*
X140290476Y-90854819D01*
X140290476Y-90854819D02*
X140909523Y-90854819D01*
X141861904Y-90854819D02*
X141290476Y-90854819D01*
X141576190Y-90854819D02*
X141576190Y-89854819D01*
X141576190Y-89854819D02*
X141480952Y-89997676D01*
X141480952Y-89997676D02*
X141385714Y-90092914D01*
X141385714Y-90092914D02*
X141290476Y-90140533D01*
X128559580Y-67766666D02*
X128607200Y-67814285D01*
X128607200Y-67814285D02*
X128654819Y-67957142D01*
X128654819Y-67957142D02*
X128654819Y-68052380D01*
X128654819Y-68052380D02*
X128607200Y-68195237D01*
X128607200Y-68195237D02*
X128511961Y-68290475D01*
X128511961Y-68290475D02*
X128416723Y-68338094D01*
X128416723Y-68338094D02*
X128226247Y-68385713D01*
X128226247Y-68385713D02*
X128083390Y-68385713D01*
X128083390Y-68385713D02*
X127892914Y-68338094D01*
X127892914Y-68338094D02*
X127797676Y-68290475D01*
X127797676Y-68290475D02*
X127702438Y-68195237D01*
X127702438Y-68195237D02*
X127654819Y-68052380D01*
X127654819Y-68052380D02*
X127654819Y-67957142D01*
X127654819Y-67957142D02*
X127702438Y-67814285D01*
X127702438Y-67814285D02*
X127750057Y-67766666D01*
X127654819Y-67433332D02*
X127654819Y-66766666D01*
X127654819Y-66766666D02*
X128654819Y-67195237D01*
X175557142Y-128104819D02*
X175223809Y-127628628D01*
X174985714Y-128104819D02*
X174985714Y-127104819D01*
X174985714Y-127104819D02*
X175366666Y-127104819D01*
X175366666Y-127104819D02*
X175461904Y-127152438D01*
X175461904Y-127152438D02*
X175509523Y-127200057D01*
X175509523Y-127200057D02*
X175557142Y-127295295D01*
X175557142Y-127295295D02*
X175557142Y-127438152D01*
X175557142Y-127438152D02*
X175509523Y-127533390D01*
X175509523Y-127533390D02*
X175461904Y-127581009D01*
X175461904Y-127581009D02*
X175366666Y-127628628D01*
X175366666Y-127628628D02*
X174985714Y-127628628D01*
X175938095Y-127200057D02*
X175985714Y-127152438D01*
X175985714Y-127152438D02*
X176080952Y-127104819D01*
X176080952Y-127104819D02*
X176319047Y-127104819D01*
X176319047Y-127104819D02*
X176414285Y-127152438D01*
X176414285Y-127152438D02*
X176461904Y-127200057D01*
X176461904Y-127200057D02*
X176509523Y-127295295D01*
X176509523Y-127295295D02*
X176509523Y-127390533D01*
X176509523Y-127390533D02*
X176461904Y-127533390D01*
X176461904Y-127533390D02*
X175890476Y-128104819D01*
X175890476Y-128104819D02*
X176509523Y-128104819D01*
X176842857Y-127104819D02*
X177461904Y-127104819D01*
X177461904Y-127104819D02*
X177128571Y-127485771D01*
X177128571Y-127485771D02*
X177271428Y-127485771D01*
X177271428Y-127485771D02*
X177366666Y-127533390D01*
X177366666Y-127533390D02*
X177414285Y-127581009D01*
X177414285Y-127581009D02*
X177461904Y-127676247D01*
X177461904Y-127676247D02*
X177461904Y-127914342D01*
X177461904Y-127914342D02*
X177414285Y-128009580D01*
X177414285Y-128009580D02*
X177366666Y-128057200D01*
X177366666Y-128057200D02*
X177271428Y-128104819D01*
X177271428Y-128104819D02*
X176985714Y-128104819D01*
X176985714Y-128104819D02*
X176890476Y-128057200D01*
X176890476Y-128057200D02*
X176842857Y-128009580D01*
X93233333Y-121620832D02*
X93185714Y-121668452D01*
X93185714Y-121668452D02*
X93042857Y-121716071D01*
X93042857Y-121716071D02*
X92947619Y-121716071D01*
X92947619Y-121716071D02*
X92804762Y-121668452D01*
X92804762Y-121668452D02*
X92709524Y-121573213D01*
X92709524Y-121573213D02*
X92661905Y-121477975D01*
X92661905Y-121477975D02*
X92614286Y-121287499D01*
X92614286Y-121287499D02*
X92614286Y-121144642D01*
X92614286Y-121144642D02*
X92661905Y-120954166D01*
X92661905Y-120954166D02*
X92709524Y-120858928D01*
X92709524Y-120858928D02*
X92804762Y-120763690D01*
X92804762Y-120763690D02*
X92947619Y-120716071D01*
X92947619Y-120716071D02*
X93042857Y-120716071D01*
X93042857Y-120716071D02*
X93185714Y-120763690D01*
X93185714Y-120763690D02*
X93233333Y-120811309D01*
X94090476Y-121049404D02*
X94090476Y-121716071D01*
X93852381Y-120668452D02*
X93614286Y-121382737D01*
X93614286Y-121382737D02*
X94233333Y-121382737D01*
X146104819Y-142166666D02*
X145628628Y-142499999D01*
X146104819Y-142738094D02*
X145104819Y-142738094D01*
X145104819Y-142738094D02*
X145104819Y-142357142D01*
X145104819Y-142357142D02*
X145152438Y-142261904D01*
X145152438Y-142261904D02*
X145200057Y-142214285D01*
X145200057Y-142214285D02*
X145295295Y-142166666D01*
X145295295Y-142166666D02*
X145438152Y-142166666D01*
X145438152Y-142166666D02*
X145533390Y-142214285D01*
X145533390Y-142214285D02*
X145581009Y-142261904D01*
X145581009Y-142261904D02*
X145628628Y-142357142D01*
X145628628Y-142357142D02*
X145628628Y-142738094D01*
X145200057Y-141785713D02*
X145152438Y-141738094D01*
X145152438Y-141738094D02*
X145104819Y-141642856D01*
X145104819Y-141642856D02*
X145104819Y-141404761D01*
X145104819Y-141404761D02*
X145152438Y-141309523D01*
X145152438Y-141309523D02*
X145200057Y-141261904D01*
X145200057Y-141261904D02*
X145295295Y-141214285D01*
X145295295Y-141214285D02*
X145390533Y-141214285D01*
X145390533Y-141214285D02*
X145533390Y-141261904D01*
X145533390Y-141261904D02*
X146104819Y-141833332D01*
X146104819Y-141833332D02*
X146104819Y-141214285D01*
X95097142Y-126804819D02*
X94763809Y-126328628D01*
X94525714Y-126804819D02*
X94525714Y-125804819D01*
X94525714Y-125804819D02*
X94906666Y-125804819D01*
X94906666Y-125804819D02*
X95001904Y-125852438D01*
X95001904Y-125852438D02*
X95049523Y-125900057D01*
X95049523Y-125900057D02*
X95097142Y-125995295D01*
X95097142Y-125995295D02*
X95097142Y-126138152D01*
X95097142Y-126138152D02*
X95049523Y-126233390D01*
X95049523Y-126233390D02*
X95001904Y-126281009D01*
X95001904Y-126281009D02*
X94906666Y-126328628D01*
X94906666Y-126328628D02*
X94525714Y-126328628D01*
X95478095Y-125900057D02*
X95525714Y-125852438D01*
X95525714Y-125852438D02*
X95620952Y-125804819D01*
X95620952Y-125804819D02*
X95859047Y-125804819D01*
X95859047Y-125804819D02*
X95954285Y-125852438D01*
X95954285Y-125852438D02*
X96001904Y-125900057D01*
X96001904Y-125900057D02*
X96049523Y-125995295D01*
X96049523Y-125995295D02*
X96049523Y-126090533D01*
X96049523Y-126090533D02*
X96001904Y-126233390D01*
X96001904Y-126233390D02*
X95430476Y-126804819D01*
X95430476Y-126804819D02*
X96049523Y-126804819D01*
X96906666Y-125804819D02*
X96716190Y-125804819D01*
X96716190Y-125804819D02*
X96620952Y-125852438D01*
X96620952Y-125852438D02*
X96573333Y-125900057D01*
X96573333Y-125900057D02*
X96478095Y-126042914D01*
X96478095Y-126042914D02*
X96430476Y-126233390D01*
X96430476Y-126233390D02*
X96430476Y-126614342D01*
X96430476Y-126614342D02*
X96478095Y-126709580D01*
X96478095Y-126709580D02*
X96525714Y-126757200D01*
X96525714Y-126757200D02*
X96620952Y-126804819D01*
X96620952Y-126804819D02*
X96811428Y-126804819D01*
X96811428Y-126804819D02*
X96906666Y-126757200D01*
X96906666Y-126757200D02*
X96954285Y-126709580D01*
X96954285Y-126709580D02*
X97001904Y-126614342D01*
X97001904Y-126614342D02*
X97001904Y-126376247D01*
X97001904Y-126376247D02*
X96954285Y-126281009D01*
X96954285Y-126281009D02*
X96906666Y-126233390D01*
X96906666Y-126233390D02*
X96811428Y-126185771D01*
X96811428Y-126185771D02*
X96620952Y-126185771D01*
X96620952Y-126185771D02*
X96525714Y-126233390D01*
X96525714Y-126233390D02*
X96478095Y-126281009D01*
X96478095Y-126281009D02*
X96430476Y-126376247D01*
X92733333Y-128459580D02*
X92685714Y-128507200D01*
X92685714Y-128507200D02*
X92542857Y-128554819D01*
X92542857Y-128554819D02*
X92447619Y-128554819D01*
X92447619Y-128554819D02*
X92304762Y-128507200D01*
X92304762Y-128507200D02*
X92209524Y-128411961D01*
X92209524Y-128411961D02*
X92161905Y-128316723D01*
X92161905Y-128316723D02*
X92114286Y-128126247D01*
X92114286Y-128126247D02*
X92114286Y-127983390D01*
X92114286Y-127983390D02*
X92161905Y-127792914D01*
X92161905Y-127792914D02*
X92209524Y-127697676D01*
X92209524Y-127697676D02*
X92304762Y-127602438D01*
X92304762Y-127602438D02*
X92447619Y-127554819D01*
X92447619Y-127554819D02*
X92542857Y-127554819D01*
X92542857Y-127554819D02*
X92685714Y-127602438D01*
X92685714Y-127602438D02*
X92733333Y-127650057D01*
X93590476Y-127554819D02*
X93400000Y-127554819D01*
X93400000Y-127554819D02*
X93304762Y-127602438D01*
X93304762Y-127602438D02*
X93257143Y-127650057D01*
X93257143Y-127650057D02*
X93161905Y-127792914D01*
X93161905Y-127792914D02*
X93114286Y-127983390D01*
X93114286Y-127983390D02*
X93114286Y-128364342D01*
X93114286Y-128364342D02*
X93161905Y-128459580D01*
X93161905Y-128459580D02*
X93209524Y-128507200D01*
X93209524Y-128507200D02*
X93304762Y-128554819D01*
X93304762Y-128554819D02*
X93495238Y-128554819D01*
X93495238Y-128554819D02*
X93590476Y-128507200D01*
X93590476Y-128507200D02*
X93638095Y-128459580D01*
X93638095Y-128459580D02*
X93685714Y-128364342D01*
X93685714Y-128364342D02*
X93685714Y-128126247D01*
X93685714Y-128126247D02*
X93638095Y-128031009D01*
X93638095Y-128031009D02*
X93590476Y-127983390D01*
X93590476Y-127983390D02*
X93495238Y-127935771D01*
X93495238Y-127935771D02*
X93304762Y-127935771D01*
X93304762Y-127935771D02*
X93209524Y-127983390D01*
X93209524Y-127983390D02*
X93161905Y-128031009D01*
X93161905Y-128031009D02*
X93114286Y-128126247D01*
D12*
X132132380Y-83713842D02*
X132313809Y-83774318D01*
X132313809Y-83774318D02*
X132616190Y-83774318D01*
X132616190Y-83774318D02*
X132737142Y-83713842D01*
X132737142Y-83713842D02*
X132797618Y-83653365D01*
X132797618Y-83653365D02*
X132858095Y-83532413D01*
X132858095Y-83532413D02*
X132858095Y-83411461D01*
X132858095Y-83411461D02*
X132797618Y-83290508D01*
X132797618Y-83290508D02*
X132737142Y-83230032D01*
X132737142Y-83230032D02*
X132616190Y-83169556D01*
X132616190Y-83169556D02*
X132374285Y-83109080D01*
X132374285Y-83109080D02*
X132253333Y-83048603D01*
X132253333Y-83048603D02*
X132192856Y-82988127D01*
X132192856Y-82988127D02*
X132132380Y-82867175D01*
X132132380Y-82867175D02*
X132132380Y-82746222D01*
X132132380Y-82746222D02*
X132192856Y-82625270D01*
X132192856Y-82625270D02*
X132253333Y-82564794D01*
X132253333Y-82564794D02*
X132374285Y-82504318D01*
X132374285Y-82504318D02*
X132676666Y-82504318D01*
X132676666Y-82504318D02*
X132858095Y-82564794D01*
X134007142Y-82504318D02*
X133402380Y-82504318D01*
X133402380Y-82504318D02*
X133341904Y-83109080D01*
X133341904Y-83109080D02*
X133402380Y-83048603D01*
X133402380Y-83048603D02*
X133523333Y-82988127D01*
X133523333Y-82988127D02*
X133825714Y-82988127D01*
X133825714Y-82988127D02*
X133946666Y-83048603D01*
X133946666Y-83048603D02*
X134007142Y-83109080D01*
X134007142Y-83109080D02*
X134067619Y-83230032D01*
X134067619Y-83230032D02*
X134067619Y-83532413D01*
X134067619Y-83532413D02*
X134007142Y-83653365D01*
X134007142Y-83653365D02*
X133946666Y-83713842D01*
X133946666Y-83713842D02*
X133825714Y-83774318D01*
X133825714Y-83774318D02*
X133523333Y-83774318D01*
X133523333Y-83774318D02*
X133402380Y-83713842D01*
X133402380Y-83713842D02*
X133341904Y-83653365D01*
D10*
X137418394Y-111359580D02*
X137370775Y-111407200D01*
X137370775Y-111407200D02*
X137227918Y-111454819D01*
X137227918Y-111454819D02*
X137132680Y-111454819D01*
X137132680Y-111454819D02*
X136989823Y-111407200D01*
X136989823Y-111407200D02*
X136894585Y-111311961D01*
X136894585Y-111311961D02*
X136846966Y-111216723D01*
X136846966Y-111216723D02*
X136799347Y-111026247D01*
X136799347Y-111026247D02*
X136799347Y-110883390D01*
X136799347Y-110883390D02*
X136846966Y-110692914D01*
X136846966Y-110692914D02*
X136894585Y-110597676D01*
X136894585Y-110597676D02*
X136989823Y-110502438D01*
X136989823Y-110502438D02*
X137132680Y-110454819D01*
X137132680Y-110454819D02*
X137227918Y-110454819D01*
X137227918Y-110454819D02*
X137370775Y-110502438D01*
X137370775Y-110502438D02*
X137418394Y-110550057D01*
X138370775Y-111454819D02*
X137799347Y-111454819D01*
X138085061Y-111454819D02*
X138085061Y-110454819D01*
X138085061Y-110454819D02*
X137989823Y-110597676D01*
X137989823Y-110597676D02*
X137894585Y-110692914D01*
X137894585Y-110692914D02*
X137799347Y-110740533D01*
X138989823Y-110454819D02*
X139085061Y-110454819D01*
X139085061Y-110454819D02*
X139180299Y-110502438D01*
X139180299Y-110502438D02*
X139227918Y-110550057D01*
X139227918Y-110550057D02*
X139275537Y-110645295D01*
X139275537Y-110645295D02*
X139323156Y-110835771D01*
X139323156Y-110835771D02*
X139323156Y-111073866D01*
X139323156Y-111073866D02*
X139275537Y-111264342D01*
X139275537Y-111264342D02*
X139227918Y-111359580D01*
X139227918Y-111359580D02*
X139180299Y-111407200D01*
X139180299Y-111407200D02*
X139085061Y-111454819D01*
X139085061Y-111454819D02*
X138989823Y-111454819D01*
X138989823Y-111454819D02*
X138894585Y-111407200D01*
X138894585Y-111407200D02*
X138846966Y-111359580D01*
X138846966Y-111359580D02*
X138799347Y-111264342D01*
X138799347Y-111264342D02*
X138751728Y-111073866D01*
X138751728Y-111073866D02*
X138751728Y-110835771D01*
X138751728Y-110835771D02*
X138799347Y-110645295D01*
X138799347Y-110645295D02*
X138846966Y-110550057D01*
X138846966Y-110550057D02*
X138894585Y-110502438D01*
X138894585Y-110502438D02*
X138989823Y-110454819D01*
X180057142Y-102254819D02*
X179723809Y-101778628D01*
X179485714Y-102254819D02*
X179485714Y-101254819D01*
X179485714Y-101254819D02*
X179866666Y-101254819D01*
X179866666Y-101254819D02*
X179961904Y-101302438D01*
X179961904Y-101302438D02*
X180009523Y-101350057D01*
X180009523Y-101350057D02*
X180057142Y-101445295D01*
X180057142Y-101445295D02*
X180057142Y-101588152D01*
X180057142Y-101588152D02*
X180009523Y-101683390D01*
X180009523Y-101683390D02*
X179961904Y-101731009D01*
X179961904Y-101731009D02*
X179866666Y-101778628D01*
X179866666Y-101778628D02*
X179485714Y-101778628D01*
X181009523Y-102254819D02*
X180438095Y-102254819D01*
X180723809Y-102254819D02*
X180723809Y-101254819D01*
X180723809Y-101254819D02*
X180628571Y-101397676D01*
X180628571Y-101397676D02*
X180533333Y-101492914D01*
X180533333Y-101492914D02*
X180438095Y-101540533D01*
X181914285Y-101254819D02*
X181438095Y-101254819D01*
X181438095Y-101254819D02*
X181390476Y-101731009D01*
X181390476Y-101731009D02*
X181438095Y-101683390D01*
X181438095Y-101683390D02*
X181533333Y-101635771D01*
X181533333Y-101635771D02*
X181771428Y-101635771D01*
X181771428Y-101635771D02*
X181866666Y-101683390D01*
X181866666Y-101683390D02*
X181914285Y-101731009D01*
X181914285Y-101731009D02*
X181961904Y-101826247D01*
X181961904Y-101826247D02*
X181961904Y-102064342D01*
X181961904Y-102064342D02*
X181914285Y-102159580D01*
X181914285Y-102159580D02*
X181866666Y-102207200D01*
X181866666Y-102207200D02*
X181771428Y-102254819D01*
X181771428Y-102254819D02*
X181533333Y-102254819D01*
X181533333Y-102254819D02*
X181438095Y-102207200D01*
X181438095Y-102207200D02*
X181390476Y-102159580D01*
X125459580Y-111542857D02*
X125507200Y-111590476D01*
X125507200Y-111590476D02*
X125554819Y-111733333D01*
X125554819Y-111733333D02*
X125554819Y-111828571D01*
X125554819Y-111828571D02*
X125507200Y-111971428D01*
X125507200Y-111971428D02*
X125411961Y-112066666D01*
X125411961Y-112066666D02*
X125316723Y-112114285D01*
X125316723Y-112114285D02*
X125126247Y-112161904D01*
X125126247Y-112161904D02*
X124983390Y-112161904D01*
X124983390Y-112161904D02*
X124792914Y-112114285D01*
X124792914Y-112114285D02*
X124697676Y-112066666D01*
X124697676Y-112066666D02*
X124602438Y-111971428D01*
X124602438Y-111971428D02*
X124554819Y-111828571D01*
X124554819Y-111828571D02*
X124554819Y-111733333D01*
X124554819Y-111733333D02*
X124602438Y-111590476D01*
X124602438Y-111590476D02*
X124650057Y-111542857D01*
X125554819Y-110590476D02*
X125554819Y-111161904D01*
X125554819Y-110876190D02*
X124554819Y-110876190D01*
X124554819Y-110876190D02*
X124697676Y-110971428D01*
X124697676Y-110971428D02*
X124792914Y-111066666D01*
X124792914Y-111066666D02*
X124840533Y-111161904D01*
X124983390Y-110019047D02*
X124935771Y-110114285D01*
X124935771Y-110114285D02*
X124888152Y-110161904D01*
X124888152Y-110161904D02*
X124792914Y-110209523D01*
X124792914Y-110209523D02*
X124745295Y-110209523D01*
X124745295Y-110209523D02*
X124650057Y-110161904D01*
X124650057Y-110161904D02*
X124602438Y-110114285D01*
X124602438Y-110114285D02*
X124554819Y-110019047D01*
X124554819Y-110019047D02*
X124554819Y-109828571D01*
X124554819Y-109828571D02*
X124602438Y-109733333D01*
X124602438Y-109733333D02*
X124650057Y-109685714D01*
X124650057Y-109685714D02*
X124745295Y-109638095D01*
X124745295Y-109638095D02*
X124792914Y-109638095D01*
X124792914Y-109638095D02*
X124888152Y-109685714D01*
X124888152Y-109685714D02*
X124935771Y-109733333D01*
X124935771Y-109733333D02*
X124983390Y-109828571D01*
X124983390Y-109828571D02*
X124983390Y-110019047D01*
X124983390Y-110019047D02*
X125031009Y-110114285D01*
X125031009Y-110114285D02*
X125078628Y-110161904D01*
X125078628Y-110161904D02*
X125173866Y-110209523D01*
X125173866Y-110209523D02*
X125364342Y-110209523D01*
X125364342Y-110209523D02*
X125459580Y-110161904D01*
X125459580Y-110161904D02*
X125507200Y-110114285D01*
X125507200Y-110114285D02*
X125554819Y-110019047D01*
X125554819Y-110019047D02*
X125554819Y-109828571D01*
X125554819Y-109828571D02*
X125507200Y-109733333D01*
X125507200Y-109733333D02*
X125459580Y-109685714D01*
X125459580Y-109685714D02*
X125364342Y-109638095D01*
X125364342Y-109638095D02*
X125173866Y-109638095D01*
X125173866Y-109638095D02*
X125078628Y-109685714D01*
X125078628Y-109685714D02*
X125031009Y-109733333D01*
X125031009Y-109733333D02*
X124983390Y-109828571D01*
X127759580Y-111442857D02*
X127807200Y-111490476D01*
X127807200Y-111490476D02*
X127854819Y-111633333D01*
X127854819Y-111633333D02*
X127854819Y-111728571D01*
X127854819Y-111728571D02*
X127807200Y-111871428D01*
X127807200Y-111871428D02*
X127711961Y-111966666D01*
X127711961Y-111966666D02*
X127616723Y-112014285D01*
X127616723Y-112014285D02*
X127426247Y-112061904D01*
X127426247Y-112061904D02*
X127283390Y-112061904D01*
X127283390Y-112061904D02*
X127092914Y-112014285D01*
X127092914Y-112014285D02*
X126997676Y-111966666D01*
X126997676Y-111966666D02*
X126902438Y-111871428D01*
X126902438Y-111871428D02*
X126854819Y-111728571D01*
X126854819Y-111728571D02*
X126854819Y-111633333D01*
X126854819Y-111633333D02*
X126902438Y-111490476D01*
X126902438Y-111490476D02*
X126950057Y-111442857D01*
X127854819Y-110490476D02*
X127854819Y-111061904D01*
X127854819Y-110776190D02*
X126854819Y-110776190D01*
X126854819Y-110776190D02*
X126997676Y-110871428D01*
X126997676Y-110871428D02*
X127092914Y-110966666D01*
X127092914Y-110966666D02*
X127140533Y-111061904D01*
X126854819Y-109585714D02*
X126854819Y-110061904D01*
X126854819Y-110061904D02*
X127331009Y-110109523D01*
X127331009Y-110109523D02*
X127283390Y-110061904D01*
X127283390Y-110061904D02*
X127235771Y-109966666D01*
X127235771Y-109966666D02*
X127235771Y-109728571D01*
X127235771Y-109728571D02*
X127283390Y-109633333D01*
X127283390Y-109633333D02*
X127331009Y-109585714D01*
X127331009Y-109585714D02*
X127426247Y-109538095D01*
X127426247Y-109538095D02*
X127664342Y-109538095D01*
X127664342Y-109538095D02*
X127759580Y-109585714D01*
X127759580Y-109585714D02*
X127807200Y-109633333D01*
X127807200Y-109633333D02*
X127854819Y-109728571D01*
X127854819Y-109728571D02*
X127854819Y-109966666D01*
X127854819Y-109966666D02*
X127807200Y-110061904D01*
X127807200Y-110061904D02*
X127759580Y-110109523D01*
X132457142Y-93404819D02*
X132123809Y-92928628D01*
X131885714Y-93404819D02*
X131885714Y-92404819D01*
X131885714Y-92404819D02*
X132266666Y-92404819D01*
X132266666Y-92404819D02*
X132361904Y-92452438D01*
X132361904Y-92452438D02*
X132409523Y-92500057D01*
X132409523Y-92500057D02*
X132457142Y-92595295D01*
X132457142Y-92595295D02*
X132457142Y-92738152D01*
X132457142Y-92738152D02*
X132409523Y-92833390D01*
X132409523Y-92833390D02*
X132361904Y-92881009D01*
X132361904Y-92881009D02*
X132266666Y-92928628D01*
X132266666Y-92928628D02*
X131885714Y-92928628D01*
X133409523Y-93404819D02*
X132838095Y-93404819D01*
X133123809Y-93404819D02*
X133123809Y-92404819D01*
X133123809Y-92404819D02*
X133028571Y-92547676D01*
X133028571Y-92547676D02*
X132933333Y-92642914D01*
X132933333Y-92642914D02*
X132838095Y-92690533D01*
X134361904Y-93404819D02*
X133790476Y-93404819D01*
X134076190Y-93404819D02*
X134076190Y-92404819D01*
X134076190Y-92404819D02*
X133980952Y-92547676D01*
X133980952Y-92547676D02*
X133885714Y-92642914D01*
X133885714Y-92642914D02*
X133790476Y-92690533D01*
X171457142Y-128104819D02*
X171123809Y-127628628D01*
X170885714Y-128104819D02*
X170885714Y-127104819D01*
X170885714Y-127104819D02*
X171266666Y-127104819D01*
X171266666Y-127104819D02*
X171361904Y-127152438D01*
X171361904Y-127152438D02*
X171409523Y-127200057D01*
X171409523Y-127200057D02*
X171457142Y-127295295D01*
X171457142Y-127295295D02*
X171457142Y-127438152D01*
X171457142Y-127438152D02*
X171409523Y-127533390D01*
X171409523Y-127533390D02*
X171361904Y-127581009D01*
X171361904Y-127581009D02*
X171266666Y-127628628D01*
X171266666Y-127628628D02*
X170885714Y-127628628D01*
X171838095Y-127200057D02*
X171885714Y-127152438D01*
X171885714Y-127152438D02*
X171980952Y-127104819D01*
X171980952Y-127104819D02*
X172219047Y-127104819D01*
X172219047Y-127104819D02*
X172314285Y-127152438D01*
X172314285Y-127152438D02*
X172361904Y-127200057D01*
X172361904Y-127200057D02*
X172409523Y-127295295D01*
X172409523Y-127295295D02*
X172409523Y-127390533D01*
X172409523Y-127390533D02*
X172361904Y-127533390D01*
X172361904Y-127533390D02*
X171790476Y-128104819D01*
X171790476Y-128104819D02*
X172409523Y-128104819D01*
X172790476Y-127200057D02*
X172838095Y-127152438D01*
X172838095Y-127152438D02*
X172933333Y-127104819D01*
X172933333Y-127104819D02*
X173171428Y-127104819D01*
X173171428Y-127104819D02*
X173266666Y-127152438D01*
X173266666Y-127152438D02*
X173314285Y-127200057D01*
X173314285Y-127200057D02*
X173361904Y-127295295D01*
X173361904Y-127295295D02*
X173361904Y-127390533D01*
X173361904Y-127390533D02*
X173314285Y-127533390D01*
X173314285Y-127533390D02*
X172742857Y-128104819D01*
X172742857Y-128104819D02*
X173361904Y-128104819D01*
X181457142Y-106154819D02*
X181123809Y-105678628D01*
X180885714Y-106154819D02*
X180885714Y-105154819D01*
X180885714Y-105154819D02*
X181266666Y-105154819D01*
X181266666Y-105154819D02*
X181361904Y-105202438D01*
X181361904Y-105202438D02*
X181409523Y-105250057D01*
X181409523Y-105250057D02*
X181457142Y-105345295D01*
X181457142Y-105345295D02*
X181457142Y-105488152D01*
X181457142Y-105488152D02*
X181409523Y-105583390D01*
X181409523Y-105583390D02*
X181361904Y-105631009D01*
X181361904Y-105631009D02*
X181266666Y-105678628D01*
X181266666Y-105678628D02*
X180885714Y-105678628D01*
X182409523Y-106154819D02*
X181838095Y-106154819D01*
X182123809Y-106154819D02*
X182123809Y-105154819D01*
X182123809Y-105154819D02*
X182028571Y-105297676D01*
X182028571Y-105297676D02*
X181933333Y-105392914D01*
X181933333Y-105392914D02*
X181838095Y-105440533D01*
X183266666Y-105154819D02*
X183076190Y-105154819D01*
X183076190Y-105154819D02*
X182980952Y-105202438D01*
X182980952Y-105202438D02*
X182933333Y-105250057D01*
X182933333Y-105250057D02*
X182838095Y-105392914D01*
X182838095Y-105392914D02*
X182790476Y-105583390D01*
X182790476Y-105583390D02*
X182790476Y-105964342D01*
X182790476Y-105964342D02*
X182838095Y-106059580D01*
X182838095Y-106059580D02*
X182885714Y-106107200D01*
X182885714Y-106107200D02*
X182980952Y-106154819D01*
X182980952Y-106154819D02*
X183171428Y-106154819D01*
X183171428Y-106154819D02*
X183266666Y-106107200D01*
X183266666Y-106107200D02*
X183314285Y-106059580D01*
X183314285Y-106059580D02*
X183361904Y-105964342D01*
X183361904Y-105964342D02*
X183361904Y-105726247D01*
X183361904Y-105726247D02*
X183314285Y-105631009D01*
X183314285Y-105631009D02*
X183266666Y-105583390D01*
X183266666Y-105583390D02*
X183171428Y-105535771D01*
X183171428Y-105535771D02*
X182980952Y-105535771D01*
X182980952Y-105535771D02*
X182885714Y-105583390D01*
X182885714Y-105583390D02*
X182838095Y-105631009D01*
X182838095Y-105631009D02*
X182790476Y-105726247D01*
D12*
X136501380Y-140263842D02*
X136682809Y-140324318D01*
X136682809Y-140324318D02*
X136985190Y-140324318D01*
X136985190Y-140324318D02*
X137106142Y-140263842D01*
X137106142Y-140263842D02*
X137166618Y-140203365D01*
X137166618Y-140203365D02*
X137227095Y-140082413D01*
X137227095Y-140082413D02*
X137227095Y-139961461D01*
X137227095Y-139961461D02*
X137166618Y-139840508D01*
X137166618Y-139840508D02*
X137106142Y-139780032D01*
X137106142Y-139780032D02*
X136985190Y-139719556D01*
X136985190Y-139719556D02*
X136743285Y-139659080D01*
X136743285Y-139659080D02*
X136622333Y-139598603D01*
X136622333Y-139598603D02*
X136561856Y-139538127D01*
X136561856Y-139538127D02*
X136501380Y-139417175D01*
X136501380Y-139417175D02*
X136501380Y-139296222D01*
X136501380Y-139296222D02*
X136561856Y-139175270D01*
X136561856Y-139175270D02*
X136622333Y-139114794D01*
X136622333Y-139114794D02*
X136743285Y-139054318D01*
X136743285Y-139054318D02*
X137045666Y-139054318D01*
X137045666Y-139054318D02*
X137227095Y-139114794D01*
X137650428Y-139054318D02*
X138436619Y-139054318D01*
X138436619Y-139054318D02*
X138013285Y-139538127D01*
X138013285Y-139538127D02*
X138194714Y-139538127D01*
X138194714Y-139538127D02*
X138315666Y-139598603D01*
X138315666Y-139598603D02*
X138376142Y-139659080D01*
X138376142Y-139659080D02*
X138436619Y-139780032D01*
X138436619Y-139780032D02*
X138436619Y-140082413D01*
X138436619Y-140082413D02*
X138376142Y-140203365D01*
X138376142Y-140203365D02*
X138315666Y-140263842D01*
X138315666Y-140263842D02*
X138194714Y-140324318D01*
X138194714Y-140324318D02*
X137831857Y-140324318D01*
X137831857Y-140324318D02*
X137710904Y-140263842D01*
X137710904Y-140263842D02*
X137650428Y-140203365D01*
D10*
X110161905Y-141454819D02*
X110161905Y-140454819D01*
X110161905Y-140454819D02*
X110400000Y-140454819D01*
X110400000Y-140454819D02*
X110542857Y-140502438D01*
X110542857Y-140502438D02*
X110638095Y-140597676D01*
X110638095Y-140597676D02*
X110685714Y-140692914D01*
X110685714Y-140692914D02*
X110733333Y-140883390D01*
X110733333Y-140883390D02*
X110733333Y-141026247D01*
X110733333Y-141026247D02*
X110685714Y-141216723D01*
X110685714Y-141216723D02*
X110638095Y-141311961D01*
X110638095Y-141311961D02*
X110542857Y-141407200D01*
X110542857Y-141407200D02*
X110400000Y-141454819D01*
X110400000Y-141454819D02*
X110161905Y-141454819D01*
X111066667Y-140454819D02*
X111685714Y-140454819D01*
X111685714Y-140454819D02*
X111352381Y-140835771D01*
X111352381Y-140835771D02*
X111495238Y-140835771D01*
X111495238Y-140835771D02*
X111590476Y-140883390D01*
X111590476Y-140883390D02*
X111638095Y-140931009D01*
X111638095Y-140931009D02*
X111685714Y-141026247D01*
X111685714Y-141026247D02*
X111685714Y-141264342D01*
X111685714Y-141264342D02*
X111638095Y-141359580D01*
X111638095Y-141359580D02*
X111590476Y-141407200D01*
X111590476Y-141407200D02*
X111495238Y-141454819D01*
X111495238Y-141454819D02*
X111209524Y-141454819D01*
X111209524Y-141454819D02*
X111114286Y-141407200D01*
X111114286Y-141407200D02*
X111066667Y-141359580D01*
X132004819Y-142166666D02*
X131528628Y-142499999D01*
X132004819Y-142738094D02*
X131004819Y-142738094D01*
X131004819Y-142738094D02*
X131004819Y-142357142D01*
X131004819Y-142357142D02*
X131052438Y-142261904D01*
X131052438Y-142261904D02*
X131100057Y-142214285D01*
X131100057Y-142214285D02*
X131195295Y-142166666D01*
X131195295Y-142166666D02*
X131338152Y-142166666D01*
X131338152Y-142166666D02*
X131433390Y-142214285D01*
X131433390Y-142214285D02*
X131481009Y-142261904D01*
X131481009Y-142261904D02*
X131528628Y-142357142D01*
X131528628Y-142357142D02*
X131528628Y-142738094D01*
X131004819Y-141833332D02*
X131004819Y-141214285D01*
X131004819Y-141214285D02*
X131385771Y-141547618D01*
X131385771Y-141547618D02*
X131385771Y-141404761D01*
X131385771Y-141404761D02*
X131433390Y-141309523D01*
X131433390Y-141309523D02*
X131481009Y-141261904D01*
X131481009Y-141261904D02*
X131576247Y-141214285D01*
X131576247Y-141214285D02*
X131814342Y-141214285D01*
X131814342Y-141214285D02*
X131909580Y-141261904D01*
X131909580Y-141261904D02*
X131957200Y-141309523D01*
X131957200Y-141309523D02*
X132004819Y-141404761D01*
X132004819Y-141404761D02*
X132004819Y-141690475D01*
X132004819Y-141690475D02*
X131957200Y-141785713D01*
X131957200Y-141785713D02*
X131909580Y-141833332D01*
X146457142Y-110059580D02*
X146409523Y-110107200D01*
X146409523Y-110107200D02*
X146266666Y-110154819D01*
X146266666Y-110154819D02*
X146171428Y-110154819D01*
X146171428Y-110154819D02*
X146028571Y-110107200D01*
X146028571Y-110107200D02*
X145933333Y-110011961D01*
X145933333Y-110011961D02*
X145885714Y-109916723D01*
X145885714Y-109916723D02*
X145838095Y-109726247D01*
X145838095Y-109726247D02*
X145838095Y-109583390D01*
X145838095Y-109583390D02*
X145885714Y-109392914D01*
X145885714Y-109392914D02*
X145933333Y-109297676D01*
X145933333Y-109297676D02*
X146028571Y-109202438D01*
X146028571Y-109202438D02*
X146171428Y-109154819D01*
X146171428Y-109154819D02*
X146266666Y-109154819D01*
X146266666Y-109154819D02*
X146409523Y-109202438D01*
X146409523Y-109202438D02*
X146457142Y-109250057D01*
X147409523Y-110154819D02*
X146838095Y-110154819D01*
X147123809Y-110154819D02*
X147123809Y-109154819D01*
X147123809Y-109154819D02*
X147028571Y-109297676D01*
X147028571Y-109297676D02*
X146933333Y-109392914D01*
X146933333Y-109392914D02*
X146838095Y-109440533D01*
X148361904Y-110154819D02*
X147790476Y-110154819D01*
X148076190Y-110154819D02*
X148076190Y-109154819D01*
X148076190Y-109154819D02*
X147980952Y-109297676D01*
X147980952Y-109297676D02*
X147885714Y-109392914D01*
X147885714Y-109392914D02*
X147790476Y-109440533D01*
X99697142Y-126804819D02*
X99363809Y-126328628D01*
X99125714Y-126804819D02*
X99125714Y-125804819D01*
X99125714Y-125804819D02*
X99506666Y-125804819D01*
X99506666Y-125804819D02*
X99601904Y-125852438D01*
X99601904Y-125852438D02*
X99649523Y-125900057D01*
X99649523Y-125900057D02*
X99697142Y-125995295D01*
X99697142Y-125995295D02*
X99697142Y-126138152D01*
X99697142Y-126138152D02*
X99649523Y-126233390D01*
X99649523Y-126233390D02*
X99601904Y-126281009D01*
X99601904Y-126281009D02*
X99506666Y-126328628D01*
X99506666Y-126328628D02*
X99125714Y-126328628D01*
X100078095Y-125900057D02*
X100125714Y-125852438D01*
X100125714Y-125852438D02*
X100220952Y-125804819D01*
X100220952Y-125804819D02*
X100459047Y-125804819D01*
X100459047Y-125804819D02*
X100554285Y-125852438D01*
X100554285Y-125852438D02*
X100601904Y-125900057D01*
X100601904Y-125900057D02*
X100649523Y-125995295D01*
X100649523Y-125995295D02*
X100649523Y-126090533D01*
X100649523Y-126090533D02*
X100601904Y-126233390D01*
X100601904Y-126233390D02*
X100030476Y-126804819D01*
X100030476Y-126804819D02*
X100649523Y-126804819D01*
X101554285Y-125804819D02*
X101078095Y-125804819D01*
X101078095Y-125804819D02*
X101030476Y-126281009D01*
X101030476Y-126281009D02*
X101078095Y-126233390D01*
X101078095Y-126233390D02*
X101173333Y-126185771D01*
X101173333Y-126185771D02*
X101411428Y-126185771D01*
X101411428Y-126185771D02*
X101506666Y-126233390D01*
X101506666Y-126233390D02*
X101554285Y-126281009D01*
X101554285Y-126281009D02*
X101601904Y-126376247D01*
X101601904Y-126376247D02*
X101601904Y-126614342D01*
X101601904Y-126614342D02*
X101554285Y-126709580D01*
X101554285Y-126709580D02*
X101506666Y-126757200D01*
X101506666Y-126757200D02*
X101411428Y-126804819D01*
X101411428Y-126804819D02*
X101173333Y-126804819D01*
X101173333Y-126804819D02*
X101078095Y-126757200D01*
X101078095Y-126757200D02*
X101030476Y-126709580D01*
D13*
X118950000Y-137350000D02*
X118950000Y-137350000D01*
X118950000Y-137550000D02*
X118950000Y-137550000D01*
D14*
X120350000Y-138750000D02*
X120350000Y-140750000D01*
X120950000Y-136650000D02*
X125950000Y-136650000D01*
X120950000Y-142850000D02*
X125950000Y-142850000D01*
X126550000Y-138750000D02*
X126550000Y-140750000D01*
D13*
X118950000Y-137350000D02*
G75*
G02*
X118950000Y-137550000I0J-100000D01*
G01*
X118950000Y-137550000D02*
G75*
G02*
X118950000Y-137350000I0J100000D01*
G01*
D15*
X181766600Y-106877600D02*
X203863861Y-106877600D01*
X181766600Y-110796960D02*
X181766600Y-106877600D01*
X181766600Y-113296960D02*
X181766600Y-112453040D01*
X181766600Y-115796960D02*
X181766600Y-114953040D01*
X181766600Y-118296960D02*
X181766600Y-117453040D01*
X181766600Y-120796960D02*
X181766600Y-119953040D01*
X181766600Y-123296960D02*
X181766600Y-122453040D01*
X181766600Y-125796960D02*
X181766600Y-124953040D01*
X181766600Y-128221959D02*
X181766600Y-127453040D01*
X181766600Y-135122400D02*
X181766600Y-133938237D01*
X182363861Y-135122400D02*
X181766600Y-135122400D01*
X203863861Y-135122400D02*
X185823341Y-135122400D01*
X207323341Y-106877600D02*
X208233400Y-106877600D01*
X208233400Y-106877600D02*
X208233400Y-135122400D01*
X208233400Y-135122400D02*
X207323341Y-135122400D01*
D12*
X180649000Y-114142000D02*
G75*
G02*
X180395000Y-114142000I-127000J0D01*
G01*
X180395000Y-114142000D02*
G75*
G02*
X180649000Y-114142000I127000J0D01*
G01*
D16*
X122665000Y-71123752D02*
X122665000Y-70601248D01*
X124135000Y-71123752D02*
X124135000Y-70601248D01*
X82565000Y-127238748D02*
X82565000Y-127761252D01*
X84035000Y-127238748D02*
X84035000Y-127761252D01*
X95570000Y-127390000D02*
X96900000Y-127390000D01*
X95570000Y-128500000D02*
X95570000Y-127390000D01*
X95570000Y-129960000D02*
X100770000Y-129960000D01*
X95570000Y-138590000D02*
X95570000Y-129960000D01*
X95570000Y-138590000D02*
X100770000Y-138590000D01*
X95690000Y-138590000D02*
X95690000Y-129960000D01*
X95808095Y-138590000D02*
X95808095Y-129960000D01*
X95926190Y-138590000D02*
X95926190Y-129960000D01*
X96044285Y-138590000D02*
X96044285Y-129960000D01*
X96162380Y-138590000D02*
X96162380Y-129960000D01*
X96280475Y-138590000D02*
X96280475Y-129960000D01*
X96398570Y-138590000D02*
X96398570Y-129960000D01*
X96516665Y-138590000D02*
X96516665Y-129960000D01*
X96540000Y-129960000D02*
X96540000Y-129610000D01*
X96634760Y-138590000D02*
X96634760Y-129960000D01*
X96752855Y-138590000D02*
X96752855Y-129960000D01*
X96870950Y-138590000D02*
X96870950Y-129960000D01*
X96989045Y-138590000D02*
X96989045Y-129960000D01*
X97107140Y-138590000D02*
X97107140Y-129960000D01*
X97225235Y-138590000D02*
X97225235Y-129960000D01*
X97260000Y-129960000D02*
X97260000Y-129610000D01*
X97343330Y-138590000D02*
X97343330Y-129960000D01*
X97461425Y-138590000D02*
X97461425Y-129960000D01*
X97579520Y-138590000D02*
X97579520Y-129960000D01*
X97697615Y-138590000D02*
X97697615Y-129960000D01*
X97815710Y-138590000D02*
X97815710Y-129960000D01*
X97933805Y-138590000D02*
X97933805Y-129960000D01*
X98051900Y-138590000D02*
X98051900Y-129960000D01*
X98170000Y-138590000D02*
X98170000Y-129960000D01*
X99080000Y-129960000D02*
X99080000Y-129550000D01*
X99800000Y-129960000D02*
X99800000Y-129550000D01*
X100770000Y-138590000D02*
X100770000Y-129960000D01*
X137090000Y-94490000D02*
X137090000Y-95440000D01*
X137090000Y-104710000D02*
X137090000Y-103760000D01*
X138040000Y-94490000D02*
X137090000Y-94490000D01*
X138040000Y-104710000D02*
X137090000Y-104710000D01*
X146360000Y-94490000D02*
X147310000Y-94490000D01*
X146360000Y-104710000D02*
X147310000Y-104710000D01*
X147310000Y-94490000D02*
X147310000Y-95440000D01*
X147310000Y-104710000D02*
X147310000Y-103760000D01*
X136475000Y-95440000D02*
X136135000Y-94970000D01*
X136815000Y-94970000D01*
X136475000Y-95440000D01*
G36*
X136475000Y-95440000D02*
G01*
X136135000Y-94970000D01*
X136815000Y-94970000D01*
X136475000Y-95440000D01*
G37*
X95670000Y-111310000D02*
X95670000Y-119940000D01*
X96640000Y-119940000D02*
X96640000Y-120350000D01*
X97360000Y-119940000D02*
X97360000Y-120350000D01*
X98270000Y-111310000D02*
X98270000Y-119940000D01*
X98388100Y-111310000D02*
X98388100Y-119940000D01*
X98506195Y-111310000D02*
X98506195Y-119940000D01*
X98624290Y-111310000D02*
X98624290Y-119940000D01*
X98742385Y-111310000D02*
X98742385Y-119940000D01*
X98860480Y-111310000D02*
X98860480Y-119940000D01*
X98978575Y-111310000D02*
X98978575Y-119940000D01*
X99096670Y-111310000D02*
X99096670Y-119940000D01*
X99180000Y-119940000D02*
X99180000Y-120290000D01*
X99214765Y-111310000D02*
X99214765Y-119940000D01*
X99332860Y-111310000D02*
X99332860Y-119940000D01*
X99450955Y-111310000D02*
X99450955Y-119940000D01*
X99569050Y-111310000D02*
X99569050Y-119940000D01*
X99687145Y-111310000D02*
X99687145Y-119940000D01*
X99805240Y-111310000D02*
X99805240Y-119940000D01*
X99900000Y-119940000D02*
X99900000Y-120290000D01*
X99923335Y-111310000D02*
X99923335Y-119940000D01*
X100041430Y-111310000D02*
X100041430Y-119940000D01*
X100159525Y-111310000D02*
X100159525Y-119940000D01*
X100277620Y-111310000D02*
X100277620Y-119940000D01*
X100395715Y-111310000D02*
X100395715Y-119940000D01*
X100513810Y-111310000D02*
X100513810Y-119940000D01*
X100631905Y-111310000D02*
X100631905Y-119940000D01*
X100750000Y-111310000D02*
X100750000Y-119940000D01*
X100870000Y-111310000D02*
X95670000Y-111310000D01*
X100870000Y-111310000D02*
X100870000Y-119940000D01*
X100870000Y-119940000D02*
X95670000Y-119940000D01*
X100870000Y-121400000D02*
X100870000Y-122510000D01*
X100870000Y-122510000D02*
X99540000Y-122510000D01*
D14*
X203300000Y-98300000D02*
X203300000Y-98300000D01*
X203400000Y-98300000D02*
X203400000Y-98300000D01*
X203400000Y-98300000D02*
X203400000Y-98300000D01*
D13*
X204285000Y-93100000D02*
X206000000Y-93100000D01*
X206000000Y-100900000D02*
X204285000Y-100900000D01*
D14*
X203300000Y-98300000D02*
G75*
G02*
X203400000Y-98300000I50000J0D01*
G01*
X203300000Y-98300000D02*
G75*
G02*
X203400000Y-98300000I50000J0D01*
G01*
X203400000Y-98300000D02*
G75*
G02*
X203300000Y-98300000I-50000J0D01*
G01*
D16*
X146680000Y-86820000D02*
X146680000Y-89580000D01*
X154410000Y-86820000D02*
X146680000Y-86820000D01*
X154410000Y-86820000D02*
X154410000Y-89580000D01*
X154410000Y-89580000D02*
X146680000Y-89580000D01*
X155680000Y-86820000D02*
X157060000Y-86820000D01*
X157060000Y-86820000D02*
X157060000Y-88200000D01*
X82465000Y-119261252D02*
X82465000Y-118738748D01*
X83935000Y-119261252D02*
X83935000Y-118738748D01*
X105980000Y-137440000D02*
X105980000Y-139360000D01*
X105980000Y-139360000D02*
X108840000Y-139360000D01*
X108840000Y-137440000D02*
X105980000Y-137440000D01*
X86410000Y-129560000D02*
X88170000Y-129560000D01*
X87370000Y-126490000D02*
X86570000Y-126490000D01*
X87370000Y-126490000D02*
X88170000Y-126490000D01*
X86070000Y-126540000D02*
X85830000Y-126210000D01*
X86310000Y-126210000D01*
X86070000Y-126540000D01*
G36*
X86070000Y-126540000D02*
G01*
X85830000Y-126210000D01*
X86310000Y-126210000D01*
X86070000Y-126540000D01*
G37*
X124965000Y-71123752D02*
X124965000Y-70601248D01*
X126435000Y-71123752D02*
X126435000Y-70601248D01*
X106412936Y-120565000D02*
X106867064Y-120565000D01*
X106412936Y-122035000D02*
X106867064Y-122035000D01*
X107972936Y-99565000D02*
X108427064Y-99565000D01*
X107972936Y-101035000D02*
X108427064Y-101035000D01*
X86410000Y-122510000D02*
X88170000Y-122510000D01*
X87370000Y-119440000D02*
X86570000Y-119440000D01*
X87370000Y-119440000D02*
X88170000Y-119440000D01*
X86070000Y-119490000D02*
X85830000Y-119160000D01*
X86310000Y-119160000D01*
X86070000Y-119490000D01*
G36*
X86070000Y-119490000D02*
G01*
X85830000Y-119160000D01*
X86310000Y-119160000D01*
X86070000Y-119490000D01*
G37*
X87572936Y-108565000D02*
X88027064Y-108565000D01*
X87572936Y-110035000D02*
X88027064Y-110035000D01*
X133238748Y-94265000D02*
X133761252Y-94265000D01*
X133238748Y-95735000D02*
X133761252Y-95735000D01*
X105980000Y-134400000D02*
X105980000Y-136320000D01*
X105980000Y-136320000D02*
X108840000Y-136320000D01*
X108840000Y-134400000D02*
X105980000Y-134400000D01*
X171565000Y-80927064D02*
X171565000Y-80472936D01*
X173035000Y-80927064D02*
X173035000Y-80472936D01*
X171672936Y-116365000D02*
X172127064Y-116365000D01*
X171672936Y-117835000D02*
X172127064Y-117835000D01*
X170870000Y-83595000D02*
X170870000Y-111655000D01*
X170870000Y-83595000D02*
X173470000Y-83595000D01*
X170870000Y-111655000D02*
X176070000Y-111655000D01*
X173470000Y-83595000D02*
X173470000Y-86195000D01*
X173470000Y-86195000D02*
X176070000Y-86195000D01*
X174740000Y-83595000D02*
X176070000Y-83595000D01*
X176070000Y-83595000D02*
X176070000Y-84925000D01*
X176070000Y-86195000D02*
X176070000Y-111655000D01*
X104367064Y-140665000D02*
X103912936Y-140665000D01*
X104367064Y-142135000D02*
X103912936Y-142135000D01*
X149565000Y-95061252D02*
X149565000Y-94538748D01*
X151035000Y-95061252D02*
X151035000Y-94538748D01*
X126765000Y-89938748D02*
X126765000Y-90461252D01*
X128235000Y-89938748D02*
X128235000Y-90461252D01*
X109641248Y-126865000D02*
X110163752Y-126865000D01*
X109641248Y-128335000D02*
X110163752Y-128335000D01*
X167972936Y-128565000D02*
X168427064Y-128565000D01*
X167972936Y-130035000D02*
X168427064Y-130035000D01*
X128765000Y-107138748D02*
X128765000Y-107661252D01*
X130235000Y-107138748D02*
X130235000Y-107661252D01*
X149045000Y-61410000D02*
X149045000Y-70040000D01*
X150015000Y-70040000D02*
X150015000Y-70450000D01*
X150735000Y-70040000D02*
X150735000Y-70450000D01*
X151645000Y-61410000D02*
X151645000Y-70040000D01*
X152555000Y-70040000D02*
X152555000Y-70450000D01*
X153275000Y-70040000D02*
X153275000Y-70450000D01*
X154185000Y-61410000D02*
X154185000Y-70040000D01*
X155095000Y-70040000D02*
X155095000Y-70450000D01*
X155815000Y-70040000D02*
X155815000Y-70450000D01*
X156725000Y-61410000D02*
X156725000Y-70040000D01*
X157635000Y-70040000D02*
X157635000Y-70450000D01*
X158355000Y-70040000D02*
X158355000Y-70450000D01*
X159265000Y-61410000D02*
X159265000Y-70040000D01*
X160175000Y-70040000D02*
X160175000Y-70450000D01*
X160895000Y-70040000D02*
X160895000Y-70450000D01*
X161805000Y-61410000D02*
X161805000Y-70040000D01*
X162715000Y-70040000D02*
X162715000Y-70450000D01*
X163435000Y-70040000D02*
X163435000Y-70450000D01*
X164345000Y-61410000D02*
X164345000Y-70040000D01*
X165255000Y-70040000D02*
X165255000Y-70450000D01*
X165975000Y-70040000D02*
X165975000Y-70450000D01*
X166885000Y-61410000D02*
X166885000Y-70040000D01*
X167795000Y-70040000D02*
X167795000Y-70450000D01*
X168515000Y-70040000D02*
X168515000Y-70450000D01*
X169425000Y-61410000D02*
X169425000Y-70040000D01*
X170335000Y-70040000D02*
X170335000Y-70450000D01*
X171055000Y-70040000D02*
X171055000Y-70450000D01*
X171965000Y-61410000D02*
X171965000Y-70040000D01*
X172875000Y-70040000D02*
X172875000Y-70450000D01*
X173595000Y-70040000D02*
X173595000Y-70450000D01*
X174505000Y-61410000D02*
X174505000Y-70040000D01*
X174623100Y-61410000D02*
X174623100Y-70040000D01*
X174741195Y-61410000D02*
X174741195Y-70040000D01*
X174859290Y-61410000D02*
X174859290Y-70040000D01*
X174977385Y-61410000D02*
X174977385Y-70040000D01*
X175095480Y-61410000D02*
X175095480Y-70040000D01*
X175213575Y-61410000D02*
X175213575Y-70040000D01*
X175331670Y-61410000D02*
X175331670Y-70040000D01*
X175415000Y-70040000D02*
X175415000Y-70390000D01*
X175449765Y-61410000D02*
X175449765Y-70040000D01*
X175567860Y-61410000D02*
X175567860Y-70040000D01*
X175685955Y-61410000D02*
X175685955Y-70040000D01*
X175804050Y-61410000D02*
X175804050Y-70040000D01*
X175922145Y-61410000D02*
X175922145Y-70040000D01*
X176040240Y-61410000D02*
X176040240Y-70040000D01*
X176135000Y-70040000D02*
X176135000Y-70390000D01*
X176158335Y-61410000D02*
X176158335Y-70040000D01*
X176276430Y-61410000D02*
X176276430Y-70040000D01*
X176394525Y-61410000D02*
X176394525Y-70040000D01*
X176512620Y-61410000D02*
X176512620Y-70040000D01*
X176630715Y-61410000D02*
X176630715Y-70040000D01*
X176748810Y-61410000D02*
X176748810Y-70040000D01*
X176866905Y-61410000D02*
X176866905Y-70040000D01*
X176985000Y-61410000D02*
X176985000Y-70040000D01*
X177105000Y-61410000D02*
X149045000Y-61410000D01*
X177105000Y-61410000D02*
X177105000Y-70040000D01*
X177105000Y-70040000D02*
X149045000Y-70040000D01*
X177105000Y-71500000D02*
X177105000Y-72610000D01*
X177105000Y-72610000D02*
X175775000Y-72610000D01*
X131040000Y-106989758D02*
X131040000Y-107810242D01*
X132160000Y-106989758D02*
X132160000Y-107810242D01*
X167927064Y-84765000D02*
X167472936Y-84765000D01*
X167927064Y-86235000D02*
X167472936Y-86235000D01*
X132772936Y-70965000D02*
X133227064Y-70965000D01*
X132772936Y-72435000D02*
X133227064Y-72435000D01*
D13*
X101150000Y-89100000D02*
X101150000Y-91100000D01*
X101150000Y-106200000D02*
X101150000Y-104200000D01*
X104450000Y-89100000D02*
X101150000Y-89100000D01*
X104450000Y-91100000D02*
X104450000Y-89100000D01*
X104450000Y-104200000D02*
X104450000Y-106200000D01*
X104450000Y-106200000D02*
X101150000Y-106200000D01*
X100150000Y-92900000D02*
G75*
G02*
X99950000Y-92900000I-100000J0D01*
G01*
X99950000Y-92900000D02*
G75*
G02*
X100150000Y-92900000I100000J0D01*
G01*
D16*
X124780000Y-119880000D02*
X124780000Y-118500000D01*
X126160000Y-119880000D02*
X124780000Y-119880000D01*
X127430000Y-117120000D02*
X130080000Y-117120000D01*
X127430000Y-119880000D02*
X127430000Y-117120000D01*
X127430000Y-119880000D02*
X130080000Y-119880000D01*
X130080000Y-119880000D02*
X130080000Y-117120000D01*
D13*
X125175000Y-93250000D02*
X129825000Y-93250000D01*
X125175000Y-104150000D02*
X125175000Y-93250000D01*
X129825000Y-93250000D02*
X129825000Y-104150000D01*
X129825000Y-104150000D02*
X125175000Y-104150000D01*
D14*
X130400000Y-96260000D02*
X130400000Y-96260000D01*
X130500000Y-96260000D02*
X130500000Y-96260000D01*
X130400000Y-96260000D02*
G75*
G02*
X130500000Y-96260000I50000J0D01*
G01*
X130500000Y-96260000D02*
G75*
G02*
X130400000Y-96260000I-50000J0D01*
G01*
D16*
X117865000Y-71123752D02*
X117865000Y-70601248D01*
X119335000Y-71123752D02*
X119335000Y-70601248D01*
X120265000Y-71161252D02*
X120265000Y-70638748D01*
X121735000Y-71161252D02*
X121735000Y-70638748D01*
X130723752Y-114965000D02*
X130201248Y-114965000D01*
X130723752Y-116435000D02*
X130201248Y-116435000D01*
X154340000Y-100940000D02*
X162060000Y-100940000D01*
X154340000Y-103440000D02*
X154340000Y-100940000D01*
X154340000Y-108660000D02*
X154340000Y-106160000D01*
X162060000Y-100940000D02*
X162060000Y-103440000D01*
X162060000Y-106160000D02*
X162060000Y-108660000D01*
X162060000Y-108660000D02*
X154340000Y-108660000D01*
X102005000Y-120398752D02*
X102005000Y-119876248D01*
X103475000Y-120398752D02*
X103475000Y-119876248D01*
X104205000Y-137727064D02*
X104205000Y-137272936D01*
X105675000Y-137727064D02*
X105675000Y-137272936D01*
X92327064Y-107665000D02*
X91872936Y-107665000D01*
X92327064Y-109135000D02*
X91872936Y-109135000D01*
X178765000Y-111272936D02*
X178765000Y-111727064D01*
X180235000Y-111272936D02*
X180235000Y-111727064D01*
D13*
X80500000Y-101700000D02*
X80500000Y-101700000D01*
X80600000Y-101700000D02*
X80600000Y-101700000D01*
X80600000Y-101700000D02*
X80600000Y-101700000D01*
D14*
X82400000Y-96450000D02*
X82400000Y-96450000D01*
X82400000Y-96450000D02*
X82400000Y-102950000D01*
X82400000Y-102950000D02*
X82400000Y-96450000D01*
X82400000Y-102950000D02*
X82400000Y-102950000D01*
X84400000Y-94800000D02*
X84400000Y-94800000D01*
X84400000Y-94800000D02*
X85400000Y-94800000D01*
X84400000Y-104600000D02*
X84400000Y-104600000D01*
X84400000Y-104600000D02*
X85400000Y-104600000D01*
X85400000Y-94800000D02*
X84400000Y-94800000D01*
X85400000Y-94800000D02*
X85400000Y-94800000D01*
X85400000Y-104600000D02*
X84400000Y-104600000D01*
X85400000Y-104600000D02*
X85400000Y-104600000D01*
X87400000Y-96700000D02*
X87400000Y-96700000D01*
X87400000Y-96700000D02*
X87400000Y-102950000D01*
X87400000Y-102950000D02*
X87400000Y-96700000D01*
X87400000Y-102950000D02*
X87400000Y-102950000D01*
D13*
X80500000Y-101700000D02*
G75*
G02*
X80600000Y-101700000I50000J0D01*
G01*
X80500000Y-101700000D02*
G75*
G02*
X80600000Y-101700000I50000J0D01*
G01*
X80600000Y-101700000D02*
G75*
G02*
X80500000Y-101700000I-50000J0D01*
G01*
D15*
X105159100Y-125825599D02*
X108410300Y-125825599D01*
X108410300Y-122574399D02*
X105159100Y-122574399D01*
D17*
G36*
X103729601Y-125390500D02*
G01*
X103475601Y-125390500D01*
X103475601Y-125009500D01*
X103729601Y-125009500D01*
X103729601Y-125390500D01*
G37*
D16*
X102472936Y-87165000D02*
X102927064Y-87165000D01*
X102472936Y-88635000D02*
X102927064Y-88635000D01*
X167572936Y-116365000D02*
X168027064Y-116365000D01*
X167572936Y-117835000D02*
X168027064Y-117835000D01*
D13*
X147681000Y-137350000D02*
X147681000Y-137350000D01*
X147681000Y-137550000D02*
X147681000Y-137550000D01*
D14*
X149081000Y-138750000D02*
X149081000Y-140750000D01*
X149681000Y-136650000D02*
X154681000Y-136650000D01*
X149681000Y-142850000D02*
X154681000Y-142850000D01*
X155281000Y-138750000D02*
X155281000Y-140750000D01*
D13*
X147681000Y-137350000D02*
G75*
G02*
X147681000Y-137550000I0J-100000D01*
G01*
X147681000Y-137550000D02*
G75*
G02*
X147681000Y-137350000I0J100000D01*
G01*
D16*
X105905000Y-132627064D02*
X105905000Y-132172936D01*
X107375000Y-132627064D02*
X107375000Y-132172936D01*
X157665000Y-141772936D02*
X157665000Y-142227064D01*
X159135000Y-141772936D02*
X159135000Y-142227064D01*
X175672936Y-116465000D02*
X176127064Y-116465000D01*
X175672936Y-117935000D02*
X176127064Y-117935000D01*
X137561252Y-90665000D02*
X137038748Y-90665000D01*
X137561252Y-92135000D02*
X137038748Y-92135000D01*
X127365000Y-71098752D02*
X127365000Y-70576248D01*
X128835000Y-71098752D02*
X128835000Y-70576248D01*
X175972936Y-128565000D02*
X176427064Y-128565000D01*
X175972936Y-130035000D02*
X176427064Y-130035000D01*
X90565000Y-121261252D02*
X90565000Y-120738748D01*
X92035000Y-121261252D02*
X92035000Y-120738748D01*
X143265000Y-141772936D02*
X143265000Y-142227064D01*
X144735000Y-141772936D02*
X144735000Y-142227064D01*
X95967064Y-123965000D02*
X95512936Y-123965000D01*
X95967064Y-125435000D02*
X95512936Y-125435000D01*
X93161252Y-129265000D02*
X92638748Y-129265000D01*
X93161252Y-130735000D02*
X92638748Y-130735000D01*
D14*
X129850000Y-80000000D02*
X129850000Y-86400000D01*
X129850000Y-86400000D02*
X130600000Y-86400000D01*
X130600000Y-80000000D02*
X129850000Y-80000000D01*
D13*
X130600000Y-87600000D02*
X130600000Y-87600000D01*
X130600000Y-87800000D02*
X130600000Y-87800000D01*
D14*
X135600000Y-80000000D02*
X136350000Y-80000000D01*
X136350000Y-80000000D02*
X136350000Y-86400000D01*
X136350000Y-86400000D02*
X135600000Y-86400000D01*
D13*
X130600000Y-87600000D02*
G75*
G02*
X130600000Y-87800000I0J-100000D01*
G01*
X130600000Y-87800000D02*
G75*
G02*
X130600000Y-87600000I0J100000D01*
G01*
D16*
X137538748Y-107465000D02*
X138061252Y-107465000D01*
X137538748Y-108935000D02*
X138061252Y-108935000D01*
X180827064Y-103065000D02*
X180372936Y-103065000D01*
X180827064Y-104535000D02*
X180372936Y-104535000D01*
X124665000Y-107661252D02*
X124665000Y-107138748D01*
X126135000Y-107661252D02*
X126135000Y-107138748D01*
X126665000Y-107138748D02*
X126665000Y-107661252D01*
X128135000Y-107138748D02*
X128135000Y-107661252D01*
X133327064Y-90565000D02*
X132872936Y-90565000D01*
X133327064Y-92035000D02*
X132872936Y-92035000D01*
X171872936Y-128565000D02*
X172327064Y-128565000D01*
X171872936Y-130035000D02*
X172327064Y-130035000D01*
X178765000Y-106972936D02*
X178765000Y-107427064D01*
X180235000Y-106972936D02*
X180235000Y-107427064D01*
D13*
X133250000Y-137350000D02*
X133250000Y-137350000D01*
X133250000Y-137550000D02*
X133250000Y-137550000D01*
D14*
X134650000Y-138750000D02*
X134650000Y-140750000D01*
X135250000Y-136650000D02*
X140250000Y-136650000D01*
X135250000Y-142850000D02*
X140250000Y-142850000D01*
X140850000Y-138750000D02*
X140850000Y-140750000D01*
D13*
X133250000Y-137350000D02*
G75*
G02*
X133250000Y-137550000I0J-100000D01*
G01*
X133250000Y-137550000D02*
G75*
G02*
X133250000Y-137350000I0J100000D01*
G01*
D16*
X105980000Y-140480000D02*
X105980000Y-142400000D01*
X105980000Y-142400000D02*
X108840000Y-142400000D01*
X108840000Y-140480000D02*
X105980000Y-140480000D01*
X129165000Y-141772936D02*
X129165000Y-142227064D01*
X130635000Y-141772936D02*
X130635000Y-142227064D01*
X146838748Y-106765000D02*
X147361252Y-106765000D01*
X146838748Y-108235000D02*
X147361252Y-108235000D01*
X100567064Y-123965000D02*
X100112936Y-123965000D01*
X100567064Y-125435000D02*
X100112936Y-125435000D01*
%LPC*%
D18*
X120200000Y-137500000D03*
X120200000Y-142000000D03*
X126700000Y-137500000D03*
X126700000Y-142000000D03*
D19*
X182293599Y-114125000D03*
X182293599Y-116625000D03*
X182293599Y-119125000D03*
X182293599Y-121625000D03*
X182293599Y-124125000D03*
X182293599Y-126625000D03*
X182293599Y-129049999D03*
X182293599Y-130750021D03*
X182293599Y-111625000D03*
D20*
X182293599Y-132050001D03*
X182293599Y-133249897D03*
D21*
X184093601Y-134650001D03*
X184093601Y-109550000D03*
X205593601Y-134649998D03*
X205593601Y-107350002D03*
D22*
X123400000Y-71900000D03*
X123400000Y-69825000D03*
D23*
X83300000Y-126462500D03*
X83300000Y-128537500D03*
D24*
X96900000Y-128500000D03*
D25*
X99440000Y-128500000D03*
D26*
X136525000Y-95850000D03*
X136525000Y-96350000D03*
X136525000Y-96850000D03*
X136525000Y-97350000D03*
X136525000Y-97850000D03*
X136525000Y-98350000D03*
X136525000Y-98850000D03*
X136525000Y-99350000D03*
X136525000Y-99850000D03*
X136525000Y-100350000D03*
X136525000Y-100850000D03*
X136525000Y-101350000D03*
X136525000Y-101850000D03*
X136525000Y-102350000D03*
X136525000Y-102850000D03*
X136525000Y-103350000D03*
D27*
X138450000Y-105275000D03*
X138950000Y-105275000D03*
X139450000Y-105275000D03*
X139950000Y-105275000D03*
X140450000Y-105275000D03*
X140950000Y-105275000D03*
X141450000Y-105275000D03*
X141950000Y-105275000D03*
X142450000Y-105275000D03*
X142950000Y-105275000D03*
X143450000Y-105275000D03*
X143950000Y-105275000D03*
X144450000Y-105275000D03*
X144950000Y-105275000D03*
X145450000Y-105275000D03*
X145950000Y-105275000D03*
D26*
X147875000Y-103350000D03*
X147875000Y-102850000D03*
X147875000Y-102350000D03*
X147875000Y-101850000D03*
X147875000Y-101350000D03*
X147875000Y-100850000D03*
X147875000Y-100350000D03*
X147875000Y-99850000D03*
X147875000Y-99350000D03*
X147875000Y-98850000D03*
X147875000Y-98350000D03*
X147875000Y-97850000D03*
X147875000Y-97350000D03*
X147875000Y-96850000D03*
X147875000Y-96350000D03*
X147875000Y-95850000D03*
D27*
X145950000Y-93925000D03*
X145450000Y-93925000D03*
X144950000Y-93925000D03*
X144450000Y-93925000D03*
X143950000Y-93925000D03*
X143450000Y-93925000D03*
X142950000Y-93925000D03*
X142450000Y-93925000D03*
X141950000Y-93925000D03*
X141450000Y-93925000D03*
X140950000Y-93925000D03*
X140450000Y-93925000D03*
X139950000Y-93925000D03*
X139450000Y-93925000D03*
X138950000Y-93925000D03*
X138450000Y-93925000D03*
D24*
X99540000Y-121400000D03*
D25*
X97000000Y-121400000D03*
D28*
X204475000Y-98300000D03*
X204475000Y-97650000D03*
X204475000Y-97000000D03*
X204475000Y-96350000D03*
X204475000Y-95700000D03*
D29*
X204560000Y-99487000D03*
X204560000Y-94513000D03*
D30*
X207135000Y-100375000D03*
D31*
X207135000Y-98150000D03*
D32*
X207135000Y-95450000D03*
D30*
X207135000Y-93625000D03*
D24*
X155680000Y-88200000D03*
D25*
X153140000Y-88200000D03*
X150600000Y-88200000D03*
X148060000Y-88200000D03*
D33*
X205000000Y-145000000D03*
D22*
X83200000Y-120037500D03*
X83200000Y-117962500D03*
D34*
X106815000Y-138400000D03*
X108865000Y-138400000D03*
D35*
X85580000Y-127050000D03*
X85580000Y-128000000D03*
X85580000Y-128950000D03*
X89000000Y-128950000D03*
X89000000Y-127050000D03*
D22*
X125700000Y-71900000D03*
X125700000Y-69825000D03*
D36*
X105640000Y-121300000D03*
X107640000Y-121300000D03*
X107200000Y-100300000D03*
X109200000Y-100300000D03*
D35*
X85580000Y-120000000D03*
X85580000Y-120950000D03*
X85580000Y-121900000D03*
X89000000Y-121900000D03*
X89000000Y-120000000D03*
D33*
X205000000Y-60000000D03*
D36*
X86800000Y-109300000D03*
X88800000Y-109300000D03*
D37*
X132462500Y-95000000D03*
X134537500Y-95000000D03*
D34*
X106815000Y-135360000D03*
X108865000Y-135360000D03*
D38*
X172300000Y-81700000D03*
X172300000Y-79700000D03*
D36*
X170900000Y-117100000D03*
X172900000Y-117100000D03*
D24*
X174740000Y-84925000D03*
D25*
X172200000Y-84925000D03*
X174740000Y-87465000D03*
X172200000Y-87465000D03*
X174740000Y-90005000D03*
X172200000Y-90005000D03*
X174740000Y-92545000D03*
X172200000Y-92545000D03*
X174740000Y-95085000D03*
X172200000Y-95085000D03*
X174740000Y-97625000D03*
X172200000Y-97625000D03*
X174740000Y-100165000D03*
X172200000Y-100165000D03*
X174740000Y-102705000D03*
X172200000Y-102705000D03*
X174740000Y-105245000D03*
X172200000Y-105245000D03*
X174740000Y-107785000D03*
X172200000Y-107785000D03*
X174740000Y-110325000D03*
X172200000Y-110325000D03*
D39*
X105140000Y-141400000D03*
X103140000Y-141400000D03*
D22*
X150300000Y-95837500D03*
X150300000Y-93762500D03*
D33*
X85000000Y-145000000D03*
D23*
X127500000Y-89162500D03*
X127500000Y-91237500D03*
D37*
X108865000Y-127600000D03*
X110940000Y-127600000D03*
D36*
X167200000Y-129300000D03*
X169200000Y-129300000D03*
D23*
X129500000Y-106362500D03*
X129500000Y-108437500D03*
D24*
X175775000Y-71500000D03*
D25*
X173235000Y-71500000D03*
X170695000Y-71500000D03*
X168155000Y-71500000D03*
X165615000Y-71500000D03*
X163075000Y-71500000D03*
X160535000Y-71500000D03*
X157995000Y-71500000D03*
X155455000Y-71500000D03*
X152915000Y-71500000D03*
X150375000Y-71500000D03*
D40*
X131600000Y-106250000D03*
X131600000Y-108550000D03*
D39*
X168700000Y-85500000D03*
X166700000Y-85500000D03*
D36*
X132000000Y-71700000D03*
X134000000Y-71700000D03*
D41*
X101400000Y-92900000D03*
X104200000Y-93400000D03*
X101400000Y-93900000D03*
X104200000Y-94400000D03*
X101400000Y-94900000D03*
X104200000Y-95400000D03*
X101400000Y-95900000D03*
X104200000Y-96400000D03*
X101400000Y-96900000D03*
X104200000Y-97400000D03*
X101400000Y-97900000D03*
X104200000Y-98400000D03*
X101400000Y-98900000D03*
X104200000Y-99400000D03*
X101400000Y-99900000D03*
X104200000Y-100400000D03*
X101400000Y-100900000D03*
X104200000Y-101400000D03*
X101400000Y-101900000D03*
X104200000Y-102400000D03*
D42*
X104200000Y-91900000D03*
X101400000Y-91900000D03*
X104200000Y-103400000D03*
X101400000Y-103400000D03*
D24*
X126160000Y-118500000D03*
D25*
X128700000Y-118500000D03*
D43*
X127500000Y-96260000D03*
D44*
X127500000Y-101140000D03*
D22*
X118600000Y-71900000D03*
X118600000Y-69825000D03*
X121000000Y-71937500D03*
X121000000Y-69862500D03*
D45*
X131500000Y-115700000D03*
X129425000Y-115700000D03*
D33*
X85000000Y-60000000D03*
D46*
X155000000Y-104800000D03*
X161400000Y-104800000D03*
D22*
X102740000Y-121175000D03*
X102740000Y-119100000D03*
D38*
X104940000Y-138500000D03*
X104940000Y-136500000D03*
D39*
X93100000Y-108400000D03*
X91100000Y-108400000D03*
D47*
X179500000Y-110500000D03*
X179500000Y-112500000D03*
D48*
X83900000Y-101700000D03*
X83900000Y-99700000D03*
X83900000Y-97700000D03*
X85900000Y-101700000D03*
X85900000Y-99700000D03*
X85900000Y-97700000D03*
D49*
X82900000Y-104450000D03*
X86900000Y-104450000D03*
X86900000Y-94950000D03*
X82900000Y-94950000D03*
D50*
X108829400Y-125200000D03*
X108829400Y-124699998D03*
X108829400Y-124199999D03*
X108829400Y-123700000D03*
X108829400Y-123199998D03*
X104740000Y-123199998D03*
X104740000Y-123700000D03*
X104740000Y-124199999D03*
X104740000Y-124699998D03*
X104740000Y-125200000D03*
D36*
X101700000Y-87900000D03*
X103700000Y-87900000D03*
X166800000Y-117100000D03*
X168800000Y-117100000D03*
D18*
X148931000Y-137500000D03*
X148931000Y-142000000D03*
X155431000Y-137500000D03*
X155431000Y-142000000D03*
D38*
X106640000Y-133400000D03*
X106640000Y-131400000D03*
D47*
X158400000Y-141000000D03*
X158400000Y-143000000D03*
D36*
X174900000Y-117200000D03*
X176900000Y-117200000D03*
D45*
X138337500Y-91400000D03*
X136262500Y-91400000D03*
D22*
X128100000Y-71875000D03*
X128100000Y-69800000D03*
D36*
X175200000Y-129300000D03*
X177200000Y-129300000D03*
D22*
X91300000Y-122037500D03*
X91300000Y-119962500D03*
D47*
X144000000Y-141000000D03*
X144000000Y-143000000D03*
D39*
X96740000Y-124700000D03*
X94740000Y-124700000D03*
D45*
X93937500Y-130000000D03*
X91862500Y-130000000D03*
D51*
X131830000Y-87750000D03*
X134370000Y-87750000D03*
X131830000Y-78650000D03*
X134370000Y-78650000D03*
D37*
X136762500Y-108200000D03*
X138837500Y-108200000D03*
D39*
X181600000Y-103800000D03*
X179600000Y-103800000D03*
D22*
X125400000Y-108437500D03*
X125400000Y-106362500D03*
D23*
X127400000Y-106362500D03*
X127400000Y-108437500D03*
D39*
X134100000Y-91300000D03*
X132100000Y-91300000D03*
D36*
X171100000Y-129300000D03*
X173100000Y-129300000D03*
D47*
X179500000Y-106200000D03*
X179500000Y-108200000D03*
D18*
X134500000Y-137500000D03*
X134500000Y-142000000D03*
X141000000Y-137500000D03*
X141000000Y-142000000D03*
D34*
X106815000Y-141440000D03*
X108865000Y-141440000D03*
D47*
X129900000Y-141000000D03*
X129900000Y-143000000D03*
D37*
X146062500Y-107500000D03*
X148137500Y-107500000D03*
D39*
X101340000Y-124700000D03*
X99340000Y-124700000D03*
%LPD*%
M02*
