G04 #@! TF.GenerationSoftware,KiCad,Pcbnew,9.0.5*
G04 #@! TF.CreationDate,2025-12-01T18:27:14+01:00*
G04 #@! TF.ProjectId,fotoaparat,666f746f-6170-4617-9261-742e6b696361,rev?*
G04 #@! TF.SameCoordinates,Original*
G04 #@! TF.FileFunction,Copper,L1,Top*
G04 #@! TF.FilePolarity,Positive*
%FSLAX46Y46*%
G04 Gerber Fmt 4.6, Leading zero omitted, Abs format (unit mm)*
G04 Created by KiCad (PCBNEW 9.0.5) date 2025-12-01 18:27:14*
%MOMM*%
%LPD*%
G01*
G04 APERTURE LIST*
G04 Aperture macros list*
%AMRoundRect*
0 Rectangle with rounded corners*
0 $1 Rounding radius*
0 $2 $3 $4 $5 $6 $7 $8 $9 X,Y pos of 4 corners*
0 Add a 4 corners polygon primitive as box body*
4,1,4,$2,$3,$4,$5,$6,$7,$8,$9,$2,$3,0*
0 Add four circle primitives for the rounded corners*
1,1,$1+$1,$2,$3*
1,1,$1+$1,$4,$5*
1,1,$1+$1,$6,$7*
1,1,$1+$1,$8,$9*
0 Add four rect primitives between the rounded corners*
20,1,$1+$1,$2,$3,$4,$5,0*
20,1,$1+$1,$4,$5,$6,$7,0*
20,1,$1+$1,$6,$7,$8,$9,0*
20,1,$1+$1,$8,$9,$2,$3,0*%
G04 Aperture macros list end*
G04 #@! TA.AperFunction,ComponentPad*
%ADD10R,1.900000X2.300000*%
G04 #@! TD*
G04 #@! TA.AperFunction,ComponentPad*
%ADD11C,1.900000*%
G04 #@! TD*
G04 #@! TA.AperFunction,SMDPad,CuDef*
%ADD12RoundRect,0.175000X-0.175000X0.825000X-0.175000X-0.825000X0.175000X-0.825000X0.175000X0.825000X0*%
G04 #@! TD*
G04 #@! TA.AperFunction,ComponentPad*
%ADD13RoundRect,0.250000X-0.550000X0.550000X-0.550000X-0.550000X0.550000X-0.550000X0.550000X0.550000X0*%
G04 #@! TD*
G04 #@! TA.AperFunction,ComponentPad*
%ADD14C,1.600000*%
G04 #@! TD*
G04 #@! TA.AperFunction,ComponentPad*
%ADD15C,2.300000*%
G04 #@! TD*
G04 #@! TA.AperFunction,ComponentPad*
%ADD16C,2.400000*%
G04 #@! TD*
G04 #@! TA.AperFunction,ComponentPad*
%ADD17R,2.400000X2.400000*%
G04 #@! TD*
G04 #@! TA.AperFunction,ComponentPad*
%ADD18O,2.400000X2.400000*%
G04 #@! TD*
G04 #@! TA.AperFunction,ComponentPad*
%ADD19RoundRect,0.250000X0.550000X-0.550000X0.550000X0.550000X-0.550000X0.550000X-0.550000X-0.550000X0*%
G04 #@! TD*
G04 #@! TA.AperFunction,ComponentPad*
%ADD20R,1.900000X1.900000*%
G04 #@! TD*
G04 #@! TA.AperFunction,SMDPad,CuDef*
%ADD21RoundRect,0.175000X0.825000X0.175000X-0.825000X0.175000X-0.825000X-0.175000X0.825000X-0.175000X0*%
G04 #@! TD*
G04 #@! TA.AperFunction,ComponentPad*
%ADD22R,2.400000X1.900000*%
G04 #@! TD*
G04 #@! TA.AperFunction,ViaPad*
%ADD23C,2.400000*%
G04 #@! TD*
G04 #@! TA.AperFunction,Conductor*
%ADD24C,0.800000*%
G04 #@! TD*
G04 #@! TA.AperFunction,Conductor*
%ADD25C,0.701200*%
G04 #@! TD*
G04 APERTURE END LIST*
D10*
X35460000Y17500000D03*
D11*
X38000000Y17500000D03*
D12*
X84500000Y25500000D03*
X82600000Y25500000D03*
X83550000Y22100000D03*
D13*
X44000000Y23500000D03*
D14*
X44000000Y21500000D03*
D15*
X83082341Y66480000D03*
X69082341Y66480000D03*
X83082341Y43480000D03*
X69082341Y43480000D03*
X79850000Y43480000D03*
X72150000Y43380000D03*
D16*
X78420000Y19112500D03*
X88580000Y19112500D03*
X63080000Y18887500D03*
X52920000Y18887500D03*
D17*
X83880000Y30668850D03*
D18*
X83860000Y33531150D03*
X83880000Y36331150D03*
D17*
X71862300Y19020000D03*
D18*
X69000000Y19000000D03*
X66200000Y19020000D03*
D16*
X87080000Y38887500D03*
X76920000Y38887500D03*
X77887500Y23420000D03*
X77887500Y33580000D03*
D17*
X71500000Y34500000D03*
D16*
X67500000Y34500000D03*
D19*
X89000000Y27000000D03*
D14*
X89000000Y29000000D03*
D17*
X38120000Y29331200D03*
D18*
X38140000Y26468900D03*
X38120000Y23668900D03*
D13*
X55500000Y28955100D03*
D14*
X55500000Y26955100D03*
D16*
X68580000Y22887500D03*
X58420000Y22887500D03*
D17*
X56500000Y34637700D03*
D18*
X56480000Y37500000D03*
X56500000Y40300000D03*
D10*
X62220000Y62150000D03*
D11*
X59680000Y62150000D03*
X57140000Y62150000D03*
X54600000Y62150000D03*
X52060000Y62150000D03*
X49520000Y62150000D03*
X46980000Y62150000D03*
X44440000Y62150000D03*
X41900000Y62150000D03*
X39360000Y62150000D03*
X36820000Y62150000D03*
X34280000Y62150000D03*
X31740000Y62150000D03*
X29200000Y62150000D03*
X26660000Y62150000D03*
X24120000Y62150000D03*
X21580000Y62150000D03*
X19040000Y62150000D03*
X16500000Y62150000D03*
X13960000Y62150000D03*
D10*
X62255000Y46920000D03*
D11*
X59715000Y46920000D03*
X57175000Y46920000D03*
X54635000Y46920000D03*
X52095000Y46920000D03*
X49555000Y46920000D03*
X47015000Y46920000D03*
X44475000Y46920000D03*
X41935000Y46920000D03*
X39395000Y46920000D03*
X36855000Y46920000D03*
X34315000Y46920000D03*
X31775000Y46920000D03*
X29235000Y46920000D03*
X26695000Y46920000D03*
X24155000Y46920000D03*
X21615000Y46920000D03*
X19075000Y46920000D03*
X16535000Y46920000D03*
X13995000Y46920000D03*
D20*
X9210000Y35210000D03*
D11*
X11750000Y35210000D03*
X9210000Y32670000D03*
X11750000Y32670000D03*
X9210000Y30130000D03*
X11750000Y30130000D03*
X9210000Y27590000D03*
X11750000Y27590000D03*
X9210000Y25050000D03*
X11750000Y25050000D03*
X9210000Y22510000D03*
X11750000Y22510000D03*
X9210000Y19970000D03*
X11750000Y19970000D03*
X9210000Y17430000D03*
X11750000Y17430000D03*
X9210000Y14890000D03*
X11750000Y14890000D03*
X9210000Y12350000D03*
X11750000Y12350000D03*
X9210000Y9810000D03*
X11750000Y9810000D03*
D21*
X74700000Y23050000D03*
X74700000Y24950000D03*
X71300000Y24000000D03*
D10*
X31275000Y2572500D03*
D11*
X28735000Y2572500D03*
D16*
X34112500Y26420000D03*
X34112500Y36580000D03*
X69225000Y46500000D03*
X69225000Y56660000D03*
X48080000Y33612500D03*
X37920000Y33612500D03*
X80500000Y56660000D03*
X80500000Y46500000D03*
X51040000Y37356400D03*
X61200000Y37356400D03*
D22*
X93500000Y59440000D03*
D11*
X93500000Y56900000D03*
X93500000Y54360000D03*
X93500000Y51820000D03*
X93500000Y49280000D03*
X93500000Y46740000D03*
X93500000Y44200000D03*
X93500000Y41660000D03*
X93500000Y39120000D03*
X93500000Y36580000D03*
X93500000Y34040000D03*
X93500000Y31500000D03*
X93500000Y28960000D03*
X93500000Y26420000D03*
X8800000Y46780000D03*
X8800000Y44280000D03*
X8800000Y41580000D03*
X8800000Y38880000D03*
D16*
X74612500Y19420000D03*
X74612500Y29580000D03*
X43000000Y2000000D03*
X49000000Y2000000D03*
X43000000Y8000000D03*
X49000000Y8000000D03*
X62080000Y34112500D03*
X51920000Y34112500D03*
D23*
X20500000Y11000000D03*
X49250300Y28695200D03*
X40090400Y59001200D03*
X62133700Y8101600D03*
X83973300Y17529300D03*
X86697200Y53172100D03*
X86885700Y31904300D03*
X57693500Y18159200D03*
X76483100Y50352500D03*
X15525400Y31241100D03*
X41335000Y34006400D03*
X19011400Y50934400D03*
X9715300Y4129900D03*
X6648100Y62384500D03*
X47169600Y36442500D03*
X27269800Y40112000D03*
X96545500Y16599700D03*
X52789800Y27401800D03*
X15729900Y59283500D03*
X44266900Y41409700D03*
X78284800Y54689500D03*
X71526400Y50745400D03*
X72736800Y66695900D03*
X17959000Y33263400D03*
X19469700Y39595100D03*
X20866500Y30791800D03*
X40367900Y10110200D03*
X28451600Y16604400D03*
X29922400Y41990500D03*
X74627800Y52408300D03*
X54605600Y16605600D03*
X72446500Y62445100D03*
D24*
X67112500Y34112500D02*
X62080000Y34112500D01*
X67500000Y34500000D02*
X67112500Y34112500D01*
X78420000Y20121500D02*
X77858200Y20683300D01*
X77142700Y21398800D02*
X73901200Y21398800D01*
X77858200Y20683300D02*
X82600000Y25425100D01*
X78420000Y19112500D02*
X78420000Y20121500D01*
X82600000Y25425100D02*
X82600000Y25500000D01*
X73901200Y21398800D02*
X71300000Y24000000D01*
X77858200Y20683300D02*
X77142700Y21398800D01*
X19150000Y12350000D02*
X20500000Y11000000D01*
X11750000Y12350000D02*
X19150000Y12350000D01*
X49250300Y28695200D02*
X44055100Y23500000D01*
X44055100Y23500000D02*
X44000000Y23500000D01*
X48388300Y30596900D02*
X53858200Y30596900D01*
X53858200Y30596900D02*
X55500000Y28955100D01*
X26957300Y37110000D02*
X28374500Y38527200D01*
X40458000Y38527200D02*
X48388300Y30596900D01*
X9210000Y35210000D02*
X9210000Y37110000D01*
X9210000Y37110000D02*
X26957300Y37110000D01*
X28374500Y38527200D02*
X40458000Y38527200D01*
X89000000Y27000000D02*
X93240000Y27000000D01*
X93240000Y27000000D02*
X93700000Y26540000D01*
X80868100Y59001200D02*
X86697200Y53172100D01*
X60095900Y6063800D02*
X62133700Y8101600D01*
X39508700Y2572500D02*
X43000000Y6063800D01*
X86885700Y20441700D02*
X86885700Y31904300D01*
X83973300Y17529300D02*
X86885700Y20441700D01*
X40090400Y59001200D02*
X80868100Y59001200D01*
X43000000Y6063800D02*
X43000000Y8000000D01*
X56920000Y22887500D02*
X58420000Y22887500D01*
X31275000Y2572500D02*
X33225000Y2572500D01*
X33225000Y2572500D02*
X39508700Y2572500D01*
X43000000Y6063800D02*
X60095900Y6063800D01*
X52920000Y18887500D02*
X56920000Y22887500D01*
X71800000Y19020000D02*
X74212500Y19020000D01*
X74212500Y19020000D02*
X74612500Y19420000D01*
X77517500Y23050000D02*
X74700000Y23050000D01*
X77887500Y23420000D02*
X77517500Y23050000D01*
X74612500Y25037500D02*
X74612500Y29580000D01*
X74549800Y25100200D02*
X74700000Y24950000D01*
X57693500Y18159200D02*
X64101100Y24566800D01*
X74700000Y24950000D02*
X74612500Y25037500D01*
X64101100Y24566800D02*
X64101100Y25100200D01*
D25*
X64101100Y25100200D02*
X74549800Y25100200D01*
D24*
X26695000Y47048700D02*
X36306300Y56660000D01*
X36306300Y56660000D02*
X69225000Y56660000D01*
X69225000Y56660000D02*
X80500000Y56660000D01*
X26695000Y46920000D02*
X26695000Y47048700D01*
X36473300Y54310100D02*
X75415800Y54310100D01*
X29235000Y47071800D02*
X36473300Y54310100D01*
X76529600Y53196300D02*
X76529600Y50399000D01*
X76529600Y50399000D02*
X76483100Y50352500D01*
X29235000Y46920000D02*
X29235000Y47071800D01*
X75415800Y54310100D02*
X76529600Y53196300D01*
X28735000Y2572500D02*
X16329500Y2572500D01*
X9210000Y9692000D02*
X9210000Y9810000D01*
X16329500Y2572500D02*
X9210000Y9692000D01*
X11750000Y27590000D02*
X11874300Y27590000D01*
X11874300Y27590000D02*
X15525400Y31241100D01*
X9000000Y55500000D02*
X28000000Y55500000D01*
X9210000Y25050000D02*
X8450000Y25050000D01*
X34280000Y61780000D02*
X34280000Y62150000D01*
X28000000Y55500000D02*
X34280000Y61780000D01*
X3500000Y30000000D02*
X3500000Y50000000D01*
X3500000Y50000000D02*
X9000000Y55500000D01*
X8450000Y25050000D02*
X3500000Y30000000D01*
X11012100Y64012100D02*
X22349400Y64012100D01*
X24120000Y62241500D02*
X24120000Y62150000D01*
X22349400Y64012100D02*
X24120000Y62241500D01*
X601000Y53601000D02*
X11012100Y64012100D01*
X9210000Y19970000D02*
X1030000Y19970000D01*
X601000Y20399000D02*
X601000Y53601000D01*
X1030000Y19970000D02*
X601000Y20399000D01*
X5982200Y48110200D02*
X10713500Y52841500D01*
X19807000Y52841500D02*
X24155000Y48493500D01*
X9210000Y30130000D02*
X9090800Y30130000D01*
X24155000Y48493500D02*
X24155000Y46920000D01*
X10713500Y52841500D02*
X19807000Y52841500D01*
X9090800Y30130000D02*
X5982200Y33238600D01*
X5982200Y33238600D02*
X5982200Y48110200D01*
X25548000Y31232900D02*
X16825100Y22510000D01*
X38561500Y31232900D02*
X25548000Y31232900D01*
X16825100Y22510000D02*
X11750000Y22510000D01*
X41335000Y34006400D02*
X38561500Y31232900D01*
X8492200Y32670000D02*
X9210000Y32670000D01*
X19011400Y50934400D02*
X10381700Y50934400D01*
X7099900Y47652600D02*
X7099900Y34062300D01*
X10381700Y50934400D02*
X7099900Y47652600D01*
X7099900Y34062300D02*
X8492200Y32670000D01*
X36506300Y65141200D02*
X9404800Y65141200D01*
X39360000Y62150000D02*
X39360000Y62287500D01*
X7335100Y6510100D02*
X7335100Y10561800D01*
X7335100Y10561800D02*
X9123300Y12350000D01*
X39360000Y62287500D02*
X36506300Y65141200D01*
X9123300Y12350000D02*
X9210000Y12350000D01*
X9404800Y65141200D02*
X6648100Y62384500D01*
X9715300Y4129900D02*
X7335100Y6510100D01*
X83550000Y21531600D02*
X83550000Y22100000D01*
X36346100Y14703900D02*
X76722300Y14703900D01*
X76722300Y14703900D02*
X83550000Y21531600D01*
X35500000Y15550000D02*
X36346100Y14703900D01*
X35500000Y17500000D02*
X35500000Y15550000D01*
X46544700Y36442500D02*
X47169600Y36442500D01*
X42898400Y40088800D02*
X46544700Y36442500D01*
X27293000Y40088800D02*
X42898400Y40088800D01*
X27269800Y40112000D02*
X27293000Y40088800D01*
X92446300Y12500500D02*
X96545500Y16599700D01*
X28570200Y12500500D02*
X92446300Y12500500D01*
X11750000Y14890000D02*
X26180700Y14890000D01*
X26180700Y14890000D02*
X28570200Y12500500D01*
X2101000Y22510000D02*
X9210000Y22510000D01*
X31740000Y62150000D02*
X31740000Y62002900D01*
X26737100Y57000000D02*
X6000000Y57000000D01*
X31740000Y62002900D02*
X26737100Y57000000D01*
X2101000Y53101000D02*
X2101000Y22510000D01*
X6000000Y57000000D02*
X2101000Y53101000D01*
X36820000Y62150000D02*
X36820000Y62034400D01*
X4876800Y31782100D02*
X9068900Y27590000D01*
X28745800Y53960200D02*
X10194900Y53960200D01*
X9068900Y27590000D02*
X9210000Y27590000D01*
X4876800Y48642100D02*
X4876800Y31782100D01*
X36820000Y62034400D02*
X28745800Y53960200D01*
X10194900Y53960200D02*
X4876800Y48642100D01*
X52789800Y27401800D02*
X42888100Y17500100D01*
X38040000Y17500100D02*
X38040000Y17500000D01*
X42888100Y17500100D02*
X38040000Y17500100D01*
X26660000Y62014000D02*
X26660000Y62150000D01*
X15729900Y59283500D02*
X23929500Y59283500D01*
X23929500Y59283500D02*
X26660000Y62014000D01*
X39395000Y47038200D02*
X39395000Y46920000D01*
X9507800Y43892200D02*
X9000000Y44400000D01*
X89665000Y46860000D02*
X88062300Y48462700D01*
X39395000Y46835800D02*
X36451400Y43892200D01*
X36451400Y43892200D02*
X9507800Y43892200D01*
X71175700Y48400200D02*
X70804200Y48771700D01*
X78135800Y48462700D02*
X78073300Y48400200D01*
X78073300Y48400200D02*
X71175700Y48400200D01*
X88062300Y48462700D02*
X78135800Y48462700D01*
X70804200Y48771700D02*
X41128500Y48771700D01*
X39395000Y46920000D02*
X39395000Y46835800D01*
X93700000Y46860000D02*
X89665000Y46860000D01*
X41128500Y48771700D02*
X39395000Y47038200D01*
X87349600Y35650400D02*
X84500000Y38500000D01*
X79462800Y36962800D02*
X70873300Y36962800D01*
X65586900Y42249200D02*
X45106400Y42249200D01*
X80000000Y37000000D02*
X79500000Y37000000D01*
X84500000Y38500000D02*
X81500000Y38500000D01*
X79500000Y37000000D02*
X79462800Y36962800D01*
X70873300Y36962800D02*
X65586900Y42249200D01*
X81500000Y38500000D02*
X80000000Y37000000D01*
X45106400Y42249200D02*
X44266900Y41409700D01*
X93700000Y34160000D02*
X87349600Y34160000D01*
X87349600Y34160000D02*
X87349600Y35650400D01*
X79836800Y64346800D02*
X46539400Y64346800D01*
X44440000Y62247400D02*
X44440000Y62150000D01*
X46539400Y64346800D02*
X44440000Y62247400D01*
X92243600Y51940000D02*
X79836800Y64346800D01*
X93700000Y51940000D02*
X92243600Y51940000D01*
X84500000Y25500000D02*
X84500000Y26657700D01*
X83520000Y29700000D02*
X83520000Y27637700D01*
X84500000Y26657700D02*
X83520000Y27637700D01*
X88891200Y49400000D02*
X93700000Y49400000D01*
X36855000Y46800900D02*
X36855000Y46920000D01*
X81703900Y51270400D02*
X87020800Y51270400D01*
X35074400Y45020300D02*
X36855000Y46800900D01*
X36855000Y47022500D02*
X36855000Y46920000D01*
X71526400Y50745400D02*
X40577900Y50745400D01*
X13273300Y45020300D02*
X35074400Y45020300D01*
X87020800Y51270400D02*
X88891200Y49400000D01*
X9000000Y46900000D02*
X11393600Y46900000D01*
X95597800Y43582700D02*
X95597800Y47624300D01*
X78284800Y54689500D02*
X81703900Y51270400D01*
X93822100Y49400000D02*
X93700000Y49400000D01*
X95597800Y47624300D02*
X93822100Y49400000D01*
X11393600Y46900000D02*
X13273300Y45020300D01*
X40577900Y50745400D02*
X36855000Y47022500D01*
X93700000Y41780000D02*
X93795100Y41780000D01*
X93795100Y41780000D02*
X95597800Y43582700D01*
X36091100Y26420000D02*
X36140000Y26468900D01*
X34112500Y26420000D02*
X36091100Y26420000D01*
X38140000Y26468900D02*
X36140000Y26468900D01*
X44475000Y46768500D02*
X44475000Y46920000D01*
X89500000Y37500000D02*
X89500000Y41000000D01*
X93700000Y36700000D02*
X90300000Y36700000D01*
X90300000Y36700000D02*
X89500000Y37500000D01*
X47388900Y43854600D02*
X44475000Y46768500D01*
X68168200Y41226000D02*
X65539600Y43854600D01*
X89500000Y41000000D02*
X82173000Y41000000D01*
X81947000Y41226000D02*
X68168200Y41226000D01*
X82173000Y41000000D02*
X81947000Y41226000D01*
X65539600Y43854600D02*
X47388900Y43854600D01*
X18874600Y39000000D02*
X19469700Y39595100D01*
X92597100Y63986100D02*
X81755600Y63986100D01*
X98489400Y58093800D02*
X92597100Y63986100D01*
X98489400Y15814700D02*
X98489400Y58093800D01*
X92784900Y10110200D02*
X98489400Y15814700D01*
X9000000Y39000000D02*
X18874600Y39000000D01*
X81755600Y63986100D02*
X79045800Y66695900D01*
X79045800Y66695900D02*
X72736800Y66695900D01*
X20866500Y30791800D02*
X18394900Y33263400D01*
X18394900Y33263400D02*
X17959000Y33263400D01*
X40367900Y10110200D02*
X92784900Y10110200D01*
X9380100Y42080100D02*
X9000000Y41700000D01*
X95607500Y23436600D02*
X95607500Y37448100D01*
X41935000Y46788200D02*
X37226900Y42080100D01*
X85773100Y13602200D02*
X95607500Y23436600D01*
X95607500Y37448100D02*
X93815600Y39240000D01*
X28451600Y16604400D02*
X31453800Y13602200D01*
X93815600Y39240000D02*
X93700000Y39240000D01*
X29922400Y42080100D02*
X9380100Y42080100D01*
X29922400Y41990500D02*
X29922400Y42080100D01*
X37226900Y42080100D02*
X29922400Y42080100D01*
X31453800Y13602200D02*
X85773100Y13602200D01*
X41935000Y46920000D02*
X41935000Y46788200D01*
X74317100Y52719000D02*
X74627800Y52408300D01*
X39991900Y52719000D02*
X74317100Y52719000D01*
X34315000Y47042100D02*
X39991900Y52719000D01*
X34315000Y46920000D02*
X34315000Y47042100D01*
X51920000Y34112500D02*
X53912500Y34112500D01*
X53912500Y34112500D02*
X54500000Y34700000D01*
X56500000Y34700000D02*
X54500000Y34700000D01*
X56480000Y37500000D02*
X61056400Y37500000D01*
X61056400Y37500000D02*
X61200000Y37356400D01*
X51010900Y18098400D02*
X52503700Y16605600D01*
X43608300Y60296600D02*
X70298000Y60296600D01*
X70298000Y60296600D02*
X72446500Y62445100D01*
X41900000Y62004900D02*
X43608300Y60296600D01*
X52503700Y16605600D02*
X54605600Y16605600D01*
X74033000Y33580000D02*
X66947600Y26494600D01*
X66947600Y26494600D02*
X57825600Y26494600D01*
X51010900Y19679900D02*
X51010900Y18098400D01*
X57825600Y26494600D02*
X51010900Y19679900D01*
X41900000Y62150000D02*
X41900000Y62004900D01*
X77887500Y33580000D02*
X74033000Y33580000D01*
G04 #@! TA.AperFunction,Conductor*
G36*
X10551445Y14456267D02*
G01*
X10590485Y14411213D01*
X10680476Y14234594D01*
X10739627Y14153181D01*
X10796172Y14075354D01*
X10796174Y14075352D01*
X10796174Y14075351D01*
X10935351Y13936174D01*
X11094594Y13820476D01*
X11269970Y13731117D01*
X11457173Y13670290D01*
X11651578Y13639500D01*
X11651583Y13639500D01*
X11848422Y13639500D01*
X12042826Y13670290D01*
X12230029Y13731117D01*
X12405405Y13820476D01*
X12564646Y13936172D01*
X12703828Y14075354D01*
X12749624Y14138386D01*
X12804953Y14181051D01*
X12849941Y14189500D01*
X25839181Y14189500D01*
X25906220Y14169815D01*
X25926862Y14153181D01*
X28123653Y11956388D01*
X28123658Y11956384D01*
X28160445Y11931804D01*
X28169612Y11925680D01*
X28197160Y11907272D01*
X28238389Y11879724D01*
X28328530Y11842387D01*
X28365873Y11826919D01*
X28379331Y11824242D01*
X28392789Y11821565D01*
X28392790Y11821565D01*
X28501203Y11800000D01*
X39929942Y11800000D01*
X39996981Y11780315D01*
X40042736Y11727511D01*
X40052680Y11658353D01*
X40023655Y11594797D01*
X39968261Y11558069D01*
X39898352Y11535354D01*
X39791908Y11500768D01*
X39791905Y11500766D01*
X39791903Y11500766D01*
X39680891Y11444202D01*
X39581467Y11393543D01*
X39390390Y11254717D01*
X39223383Y11087710D01*
X39084557Y10896633D01*
X38977333Y10686196D01*
X38904346Y10461568D01*
X38867400Y10228297D01*
X38867400Y9992102D01*
X38904346Y9758831D01*
X38977333Y9534203D01*
X39084557Y9323766D01*
X39140973Y9246117D01*
X39223383Y9132690D01*
X39223385Y9132688D01*
X39223385Y9132687D01*
X39390387Y8965685D01*
X39581466Y8826857D01*
X39791903Y8719633D01*
X40016531Y8646646D01*
X40249803Y8609700D01*
X40249808Y8609700D01*
X40485997Y8609700D01*
X40719268Y8646646D01*
X40943896Y8719633D01*
X41154333Y8826857D01*
X41345410Y8965683D01*
X41512417Y9132690D01*
X41651243Y9323767D01*
X41660532Y9341997D01*
X41670981Y9353060D01*
X41677303Y9366903D01*
X41694485Y9377945D01*
X41708508Y9392792D01*
X41724186Y9397032D01*
X41736081Y9404677D01*
X41771016Y9409700D01*
X42005850Y9409700D01*
X42072889Y9390015D01*
X42118644Y9337211D01*
X42128588Y9268053D01*
X42099563Y9204497D01*
X42078737Y9185383D01*
X42022490Y9144517D01*
X41855483Y8977510D01*
X41767327Y8856174D01*
X41716657Y8786433D01*
X41609433Y8575996D01*
X41536446Y8351368D01*
X41499500Y8118097D01*
X41499500Y7881902D01*
X41536446Y7648631D01*
X41609433Y7424003D01*
X41716657Y7213566D01*
X41781668Y7124087D01*
X41855483Y7022490D01*
X41855485Y7022488D01*
X41855485Y7022487D01*
X42022487Y6855485D01*
X42213569Y6716655D01*
X42231799Y6707366D01*
X42242861Y6696917D01*
X42256703Y6690596D01*
X42267744Y6673414D01*
X42282593Y6659390D01*
X42286833Y6643711D01*
X42294477Y6631818D01*
X42299500Y6596883D01*
X42299500Y6405319D01*
X42279815Y6338280D01*
X42263181Y6317638D01*
X39254862Y3309319D01*
X39193539Y3275834D01*
X39167181Y3273000D01*
X32649499Y3273000D01*
X32582460Y3292685D01*
X32536705Y3345489D01*
X32525499Y3397000D01*
X32525499Y3767356D01*
X32525499Y3767364D01*
X32522618Y3792209D01*
X32522586Y3792487D01*
X32522585Y3792488D01*
X32522585Y3792491D01*
X32477206Y3895265D01*
X32397765Y3974706D01*
X32294991Y4020085D01*
X32269865Y4023000D01*
X30280136Y4022999D01*
X30280122Y4022997D01*
X30280117Y4022997D01*
X30255012Y4020086D01*
X30255010Y4020085D01*
X30255009Y4020085D01*
X30152235Y3974706D01*
X30072794Y3895265D01*
X30027415Y3792493D01*
X30027415Y3792491D01*
X30024500Y3767368D01*
X30024500Y3306766D01*
X30004815Y3239727D01*
X29952011Y3193972D01*
X29882853Y3184028D01*
X29819297Y3213053D01*
X29800186Y3233875D01*
X29688828Y3387146D01*
X29549646Y3526328D01*
X29390405Y3642024D01*
X29215025Y3731384D01*
X29027826Y3792209D01*
X28990979Y3798045D01*
X28833422Y3823000D01*
X28833417Y3823000D01*
X28636583Y3823000D01*
X28636578Y3823000D01*
X28442173Y3792209D01*
X28365765Y3767382D01*
X28254975Y3731384D01*
X28254972Y3731382D01*
X28254970Y3731382D01*
X28162455Y3684243D01*
X28079595Y3642024D01*
X27920354Y3526328D01*
X27781172Y3387146D01*
X27749437Y3343466D01*
X27735377Y3324114D01*
X27680047Y3281449D01*
X27635059Y3273000D01*
X16671018Y3273000D01*
X16603979Y3292685D01*
X16583337Y3309319D01*
X14262256Y5630400D01*
X11543084Y8349571D01*
X11509601Y8410892D01*
X11514585Y8480584D01*
X11556457Y8536517D01*
X11621921Y8560934D01*
X11646718Y8559872D01*
X11646719Y8559882D01*
X11646973Y8559861D01*
X11650151Y8559726D01*
X11651579Y8559500D01*
X11651583Y8559500D01*
X11848422Y8559500D01*
X12042826Y8590290D01*
X12230029Y8651117D01*
X12405405Y8740476D01*
X12564646Y8856172D01*
X12703828Y8995354D01*
X12819524Y9154595D01*
X12863403Y9240713D01*
X12908882Y9329970D01*
X12920883Y9366903D01*
X12969709Y9517174D01*
X12977456Y9566087D01*
X13000500Y9711577D01*
X13000500Y9908422D01*
X12969709Y10102826D01*
X12928942Y10228292D01*
X12908884Y10290025D01*
X12819524Y10465405D01*
X12703828Y10624646D01*
X12564646Y10763828D01*
X12405405Y10879524D01*
X12230025Y10968884D01*
X12042826Y11029709D01*
X11848422Y11060500D01*
X11848417Y11060500D01*
X11651583Y11060500D01*
X11651578Y11060500D01*
X11457173Y11029709D01*
X11370317Y11001487D01*
X11269975Y10968884D01*
X11269972Y10968882D01*
X11269970Y10968882D01*
X11177455Y10921743D01*
X11094595Y10879524D01*
X10935354Y10763828D01*
X10796172Y10624646D01*
X10715234Y10513246D01*
X10680474Y10465403D01*
X10590485Y10288787D01*
X10542511Y10237990D01*
X10474690Y10221195D01*
X10408555Y10243732D01*
X10369515Y10288787D01*
X10279525Y10465403D01*
X10279524Y10465405D01*
X10163828Y10624646D01*
X10024646Y10763828D01*
X9865405Y10879524D01*
X9837758Y10893611D01*
X9688787Y10969515D01*
X9637990Y11017489D01*
X9621195Y11085310D01*
X9643732Y11151445D01*
X9688787Y11190485D01*
X9865403Y11280474D01*
X9913246Y11315234D01*
X10024646Y11396172D01*
X10163828Y11535354D01*
X10279524Y11694595D01*
X10354827Y11842386D01*
X10368882Y11869970D01*
X10372052Y11879724D01*
X10429709Y12057174D01*
X10443207Y12142397D01*
X10460500Y12251577D01*
X10460500Y12448422D01*
X10429709Y12642826D01*
X10368884Y12830025D01*
X10279524Y13005405D01*
X10163828Y13164646D01*
X10024646Y13303828D01*
X9865405Y13419524D01*
X9690025Y13508884D01*
X9688787Y13509515D01*
X9637990Y13557489D01*
X9621195Y13625310D01*
X9643732Y13691445D01*
X9688787Y13730485D01*
X9865403Y13820474D01*
X9913246Y13855234D01*
X10024646Y13936172D01*
X10163828Y14075354D01*
X10279524Y14234595D01*
X10355327Y14383367D01*
X10369515Y14411213D01*
X10417489Y14462009D01*
X10485310Y14478804D01*
X10551445Y14456267D01*
G37*
G04 #@! TD.AperFunction*
G04 #@! TA.AperFunction,Conductor*
G36*
X65312420Y41529015D02*
G01*
X65333062Y41512381D01*
X70426753Y36418688D01*
X70426754Y36418687D01*
X70541492Y36342022D01*
X70668967Y36289221D01*
X70668977Y36289218D01*
X70804304Y36262300D01*
X70804306Y36262300D01*
X79531796Y36262300D01*
X79667122Y36289218D01*
X79667132Y36289221D01*
X79669159Y36290061D01*
X79671309Y36290488D01*
X79672955Y36290988D01*
X79673004Y36290825D01*
X79716611Y36299500D01*
X80068996Y36299500D01*
X80204322Y36326418D01*
X80204332Y36326421D01*
X80331807Y36379222D01*
X80446545Y36455887D01*
X80446546Y36455888D01*
X81753837Y37763181D01*
X81815160Y37796666D01*
X81841518Y37799500D01*
X84158481Y37799500D01*
X84225520Y37779815D01*
X84246162Y37763181D01*
X86612781Y35396562D01*
X86646266Y35335239D01*
X86649100Y35308881D01*
X86649100Y34091004D01*
X86649099Y34091004D01*
X86676018Y33955677D01*
X86676021Y33955667D01*
X86728821Y33828195D01*
X86728828Y33828182D01*
X86805485Y33713458D01*
X86805488Y33713454D01*
X86902462Y33616481D01*
X86935947Y33555158D01*
X86930963Y33485466D01*
X86889091Y33429533D01*
X86823627Y33405116D01*
X86814781Y33404800D01*
X86767603Y33404800D01*
X86534331Y33367853D01*
X86430112Y33333989D01*
X86309708Y33294868D01*
X86309705Y33294866D01*
X86309703Y33294866D01*
X86231692Y33255117D01*
X86099267Y33187643D01*
X85908190Y33048817D01*
X85741183Y32881810D01*
X85614531Y32707489D01*
X85602357Y32690733D01*
X85495133Y32480296D01*
X85422147Y32255671D01*
X85416347Y32219052D01*
X85386416Y32155918D01*
X85327104Y32118988D01*
X85257241Y32119988D01*
X85243804Y32125012D01*
X85149991Y32166435D01*
X85124865Y32169350D01*
X84919218Y32169349D01*
X84852181Y32189033D01*
X84806426Y32241837D01*
X84796482Y32310995D01*
X84825507Y32374551D01*
X84834134Y32383118D01*
X84834065Y32383188D01*
X85004514Y32553637D01*
X85004517Y32553640D01*
X85143343Y32744717D01*
X85203043Y32861885D01*
X85250566Y32955153D01*
X85254736Y32967985D01*
X85300695Y33109433D01*
X85323553Y33179781D01*
X85360500Y33413052D01*
X85360500Y33649247D01*
X85323553Y33882518D01*
X85309096Y33927011D01*
X85250568Y34107142D01*
X85143343Y34317583D01*
X85004517Y34508660D01*
X84837510Y34675667D01*
X84646433Y34814493D01*
X84435992Y34921718D01*
X84211368Y34994703D01*
X83978097Y35031650D01*
X83978092Y35031650D01*
X83741908Y35031650D01*
X83741903Y35031650D01*
X83508631Y34994703D01*
X83460140Y34978947D01*
X83284008Y34921718D01*
X83284005Y34921716D01*
X83284003Y34921716D01*
X83233225Y34895843D01*
X83073567Y34814493D01*
X82882490Y34675667D01*
X82715483Y34508660D01*
X82623392Y34381908D01*
X82576657Y34317583D01*
X82469433Y34107146D01*
X82396446Y33882518D01*
X82359500Y33649247D01*
X82359500Y33413052D01*
X82396446Y33179781D01*
X82469433Y32955153D01*
X82576657Y32744716D01*
X82646238Y32648947D01*
X82715483Y32553640D01*
X82715485Y32553638D01*
X82715485Y32553637D01*
X82885935Y32383188D01*
X82884895Y32382148D01*
X82919504Y32329140D01*
X82920007Y32259272D01*
X82882656Y32200223D01*
X82819311Y32170741D01*
X82800781Y32169349D01*
X82635136Y32169349D01*
X82635121Y32169347D01*
X82635117Y32169347D01*
X82610012Y32166436D01*
X82610010Y32166435D01*
X82610009Y32166435D01*
X82540838Y32135893D01*
X82507235Y32121056D01*
X82427794Y32041615D01*
X82382415Y31938843D01*
X82382415Y31938841D01*
X82379500Y31913718D01*
X82379500Y29423993D01*
X82379502Y29423967D01*
X82382413Y29398862D01*
X82382415Y29398858D01*
X82427793Y29296085D01*
X82507234Y29216644D01*
X82610007Y29171265D01*
X82635131Y29168350D01*
X82635135Y29168350D01*
X82695500Y29168350D01*
X82762539Y29148665D01*
X82808294Y29095861D01*
X82819500Y29044350D01*
X82819500Y27568703D01*
X82819499Y27568703D01*
X82846418Y27433377D01*
X82846421Y27433367D01*
X82899222Y27305892D01*
X82975887Y27191154D01*
X82975888Y27191153D01*
X83763181Y26403861D01*
X83796666Y26342538D01*
X83799500Y26316180D01*
X83799500Y25431004D01*
X83799499Y25431004D01*
X83826419Y25295673D01*
X83826420Y25295670D01*
X83840062Y25262735D01*
X83849500Y25215284D01*
X83849500Y24629518D01*
X83849501Y24629509D01*
X83855587Y24572885D01*
X83903372Y24444773D01*
X83985313Y24335313D01*
X84094771Y24253373D01*
X84222889Y24205587D01*
X84279506Y24199500D01*
X84279515Y24199500D01*
X84720481Y24199500D01*
X84720490Y24199501D01*
X84777114Y24205587D01*
X84905226Y24253372D01*
X84936013Y24276419D01*
X85014687Y24335313D01*
X85084988Y24429225D01*
X85096626Y24444771D01*
X85096627Y24444773D01*
X85096628Y24444774D01*
X85144412Y24572886D01*
X85147381Y24600500D01*
X85150499Y24629498D01*
X85150499Y24629509D01*
X85150500Y24629515D01*
X85150499Y25215284D01*
X85159938Y25262736D01*
X85173578Y25295667D01*
X85173581Y25295677D01*
X85200500Y25431004D01*
X85200500Y26726695D01*
X85200499Y26726697D01*
X85196534Y26746628D01*
X85173580Y26862028D01*
X85171710Y26866542D01*
X85145008Y26931007D01*
X85120775Y26989511D01*
X85067001Y27069989D01*
X85044114Y27104243D01*
X84256819Y27891538D01*
X84223334Y27952861D01*
X84220500Y27979219D01*
X84220500Y29044350D01*
X84240185Y29111389D01*
X84292989Y29157144D01*
X84344500Y29168350D01*
X85124856Y29168350D01*
X85124882Y29168352D01*
X85149987Y29171263D01*
X85149991Y29171265D01*
X85252764Y29216643D01*
X85332205Y29296084D01*
X85332206Y29296085D01*
X85377585Y29398859D01*
X85380500Y29423985D01*
X85380499Y31041595D01*
X85400184Y31108633D01*
X85452987Y31154388D01*
X85522146Y31164332D01*
X85585702Y31135307D01*
X85604817Y31114480D01*
X85741184Y30926788D01*
X85908187Y30759785D01*
X86099269Y30620955D01*
X86117499Y30611666D01*
X86168293Y30563690D01*
X86185200Y30501183D01*
X86185200Y20783219D01*
X86165515Y20716180D01*
X86148881Y20695538D01*
X84470123Y19016780D01*
X84408800Y18983295D01*
X84344125Y18986530D01*
X84324668Y18992853D01*
X84265833Y19002171D01*
X84091397Y19029800D01*
X84091392Y19029800D01*
X83855208Y19029800D01*
X83855203Y19029800D01*
X83621931Y18992853D01*
X83530205Y18963049D01*
X83397308Y18919868D01*
X83397305Y18919866D01*
X83397303Y18919866D01*
X83322807Y18881908D01*
X83186867Y18812643D01*
X82995790Y18673817D01*
X82828783Y18506810D01*
X82739429Y18383825D01*
X82689957Y18315733D01*
X82582733Y18105296D01*
X82509746Y17880668D01*
X82472800Y17647397D01*
X82472800Y17411202D01*
X82509746Y17177931D01*
X82582733Y16953303D01*
X82689957Y16742866D01*
X82731744Y16685352D01*
X82828783Y16551790D01*
X82828785Y16551788D01*
X82828785Y16551787D01*
X82995787Y16384785D01*
X83186866Y16245957D01*
X83397303Y16138733D01*
X83621931Y16065746D01*
X83855203Y16028800D01*
X83855208Y16028800D01*
X84091397Y16028800D01*
X84324668Y16065746D01*
X84549296Y16138733D01*
X84759733Y16245957D01*
X84763002Y16248332D01*
X84950810Y16384783D01*
X85117817Y16551790D01*
X85256643Y16742867D01*
X85330832Y16888471D01*
X85363866Y16953303D01*
X85364739Y16955988D01*
X85436125Y17175692D01*
X85436853Y17177931D01*
X85473800Y17411202D01*
X85473800Y17647397D01*
X85440842Y17855483D01*
X85436853Y17880668D01*
X85430530Y17900124D01*
X85428534Y17969961D01*
X85460780Y18026123D01*
X86887603Y19452946D01*
X86948926Y19486431D01*
X87018618Y19481447D01*
X87074551Y19439575D01*
X87098968Y19374111D01*
X87097757Y19345867D01*
X87079500Y19230597D01*
X87079500Y18994402D01*
X87116446Y18761131D01*
X87189433Y18536503D01*
X87296657Y18326066D01*
X87355812Y18244647D01*
X87435483Y18134990D01*
X87435485Y18134988D01*
X87435485Y18134987D01*
X87602487Y17967985D01*
X87793566Y17829157D01*
X88004003Y17721933D01*
X88228631Y17648946D01*
X88461903Y17612000D01*
X88492881Y17612000D01*
X88559920Y17592315D01*
X88605675Y17539511D01*
X88615619Y17470353D01*
X88586594Y17406797D01*
X88580562Y17400319D01*
X85519262Y14339019D01*
X85457939Y14305534D01*
X85431581Y14302700D01*
X77611119Y14302700D01*
X77544080Y14322385D01*
X77498325Y14375189D01*
X77488381Y14444347D01*
X77517406Y14507903D01*
X77523438Y14514381D01*
X83788154Y20779097D01*
X83832498Y20807596D01*
X83955226Y20853372D01*
X83955228Y20853373D01*
X83998911Y20886074D01*
X84064687Y20935313D01*
X84146628Y21044774D01*
X84194412Y21172886D01*
X84199531Y21220500D01*
X84200499Y21229500D01*
X84200499Y21229505D01*
X84200500Y21229515D01*
X84200499Y21246881D01*
X84209938Y21294339D01*
X84213323Y21302511D01*
X84223580Y21327272D01*
X84223581Y21327277D01*
X84250500Y21462603D01*
X84250500Y22168995D01*
X84223581Y22304323D01*
X84223580Y22304323D01*
X84223580Y22304328D01*
X84209937Y22337262D01*
X84200499Y22384715D01*
X84200499Y22970481D01*
X84200498Y22970490D01*
X84198531Y22988787D01*
X84194412Y23027114D01*
X84146628Y23155226D01*
X84064687Y23264687D01*
X83955226Y23346628D01*
X83827114Y23394412D01*
X83770485Y23400500D01*
X83329516Y23400499D01*
X83290025Y23396254D01*
X83272885Y23394412D01*
X83225101Y23376588D01*
X83144774Y23346628D01*
X83035313Y23264687D01*
X83001074Y23218949D01*
X82960992Y23165405D01*
X82953372Y23155226D01*
X82920756Y23067779D01*
X82905587Y23027110D01*
X82899500Y22970501D01*
X82899500Y22384712D01*
X82890061Y22337262D01*
X82880087Y22313181D01*
X82876419Y22304325D01*
X82876418Y22304321D01*
X82849500Y22168995D01*
X82849500Y21873119D01*
X82829815Y21806080D01*
X82813181Y21785438D01*
X80132181Y19104438D01*
X80070858Y19070953D01*
X80001166Y19075937D01*
X79945233Y19117809D01*
X79920816Y19183273D01*
X79920500Y19192119D01*
X79920500Y19230597D01*
X79883553Y19463868D01*
X79852706Y19558804D01*
X79810568Y19688492D01*
X79703343Y19898933D01*
X79564517Y20090010D01*
X79397510Y20257017D01*
X79206433Y20395843D01*
X79042313Y20479465D01*
X79034063Y20486199D01*
X79027334Y20488480D01*
X79011839Y20504340D01*
X79001634Y20512671D01*
X78998398Y20516731D01*
X78964114Y20568043D01*
X78931594Y20600562D01*
X78927244Y20606022D01*
X78916581Y20632166D01*
X78903053Y20656942D01*
X78903563Y20664085D01*
X78900859Y20670718D01*
X78906022Y20698471D01*
X78908037Y20726634D01*
X78912577Y20733699D01*
X78913640Y20739409D01*
X78921859Y20748140D01*
X78936538Y20770981D01*
X82328738Y24163181D01*
X82390061Y24196666D01*
X82416419Y24199500D01*
X82820481Y24199500D01*
X82820490Y24199501D01*
X82877114Y24205587D01*
X83005226Y24253372D01*
X83036013Y24276419D01*
X83114687Y24335313D01*
X83184988Y24429225D01*
X83196626Y24444771D01*
X83196627Y24444773D01*
X83196628Y24444774D01*
X83244412Y24572886D01*
X83247381Y24600500D01*
X83250499Y24629498D01*
X83250499Y24629509D01*
X83250500Y24629515D01*
X83250499Y25140384D01*
X83259938Y25187837D01*
X83273578Y25220768D01*
X83273580Y25220772D01*
X83288478Y25295667D01*
X83300500Y25356103D01*
X83300500Y25568995D01*
X83273581Y25704323D01*
X83273580Y25704323D01*
X83273580Y25704328D01*
X83259937Y25737262D01*
X83250499Y25784715D01*
X83250499Y26370481D01*
X83250498Y26370490D01*
X83244412Y26427114D01*
X83210357Y26518417D01*
X83196628Y26555226D01*
X83114687Y26664687D01*
X83005226Y26746628D01*
X82877114Y26794412D01*
X82820485Y26800500D01*
X82379516Y26800499D01*
X82342954Y26796569D01*
X82322885Y26794412D01*
X82275101Y26776588D01*
X82194774Y26746628D01*
X82085313Y26664687D01*
X82063969Y26636174D01*
X82027152Y26586992D01*
X82003372Y26555226D01*
X81956846Y26430485D01*
X81955587Y26427110D01*
X81949500Y26370501D01*
X81949500Y25816619D01*
X81929815Y25749580D01*
X81913181Y25728938D01*
X79599681Y23415438D01*
X79538358Y23381953D01*
X79468666Y23386937D01*
X79412733Y23428809D01*
X79388316Y23494273D01*
X79388000Y23503119D01*
X79388000Y23538097D01*
X79351053Y23771368D01*
X79320628Y23865006D01*
X79278068Y23995992D01*
X79170843Y24206433D01*
X79032017Y24397510D01*
X78865010Y24564517D01*
X78673933Y24703343D01*
X78463492Y24810568D01*
X78238868Y24883553D01*
X78005597Y24920500D01*
X78005592Y24920500D01*
X77769408Y24920500D01*
X77769403Y24920500D01*
X77536131Y24883553D01*
X77454278Y24856957D01*
X77311508Y24810568D01*
X77311505Y24810566D01*
X77311503Y24810566D01*
X77206716Y24757174D01*
X77101067Y24703343D01*
X76909990Y24564517D01*
X76742983Y24397510D01*
X76614366Y24220484D01*
X76604157Y24206433D01*
X76496933Y23995996D01*
X76445006Y23836181D01*
X76405568Y23778506D01*
X76341209Y23751308D01*
X76327075Y23750500D01*
X74631005Y23750500D01*
X74495677Y23723581D01*
X74495672Y23723580D01*
X74465495Y23711080D01*
X74462738Y23709938D01*
X74415285Y23700499D01*
X73829516Y23700499D01*
X73790025Y23696254D01*
X73772885Y23694412D01*
X73762231Y23690438D01*
X73644774Y23646628D01*
X73535313Y23564687D01*
X73493085Y23508276D01*
X73459560Y23463492D01*
X73453372Y23455226D01*
X73406596Y23329815D01*
X73405587Y23327110D01*
X73399500Y23270501D01*
X73399500Y23190517D01*
X73379815Y23123478D01*
X73327011Y23077723D01*
X73257853Y23067779D01*
X73194297Y23096804D01*
X73187819Y23102836D01*
X73007338Y23283317D01*
X72633773Y23656882D01*
X72600290Y23718203D01*
X72598167Y23757816D01*
X72600500Y23779515D01*
X72600499Y24220484D01*
X72594412Y24277114D01*
X72592676Y24281769D01*
X72587693Y24351461D01*
X72621180Y24412783D01*
X72682504Y24446267D01*
X72708859Y24449100D01*
X73475624Y24449100D01*
X73542663Y24429415D01*
X73549934Y24424367D01*
X73644769Y24353374D01*
X73644773Y24353372D01*
X73644774Y24353372D01*
X73767886Y24307453D01*
X73772889Y24305587D01*
X73829498Y24299500D01*
X73829515Y24299500D01*
X74415285Y24299500D01*
X74462737Y24290061D01*
X74495666Y24276421D01*
X74495673Y24276419D01*
X74631004Y24249500D01*
X74631006Y24249500D01*
X74768996Y24249500D01*
X74904322Y24276418D01*
X74904326Y24276419D01*
X74904327Y24276419D01*
X74904329Y24276420D01*
X74937263Y24290061D01*
X74984713Y24299500D01*
X75570481Y24299500D01*
X75570490Y24299501D01*
X75627114Y24305587D01*
X75755226Y24353372D01*
X75767382Y24362472D01*
X75864687Y24435313D01*
X75946628Y24544774D01*
X75994412Y24672886D01*
X75996118Y24688763D01*
X76000499Y24729498D01*
X76000499Y24729505D01*
X76000500Y24729515D01*
X76000499Y25170484D01*
X75994412Y25227114D01*
X75946628Y25355226D01*
X75864687Y25464687D01*
X75755226Y25546628D01*
X75627114Y25594412D01*
X75570485Y25600500D01*
X75436999Y25600499D01*
X75369961Y25620183D01*
X75324206Y25672987D01*
X75313000Y25724499D01*
X75313000Y28176883D01*
X75332685Y28243922D01*
X75380701Y28287366D01*
X75398930Y28296655D01*
X75398933Y28296657D01*
X75590010Y28435483D01*
X75757017Y28602490D01*
X75895843Y28793567D01*
X75961543Y28922511D01*
X76003066Y29004003D01*
X76014743Y29039939D01*
X76056466Y29168350D01*
X76076053Y29228631D01*
X76113000Y29461902D01*
X76113000Y29698097D01*
X76076053Y29931368D01*
X76061511Y29976124D01*
X76003068Y30155992D01*
X75895843Y30366433D01*
X75757017Y30557510D01*
X75590010Y30724517D01*
X75398933Y30863343D01*
X75188492Y30970568D01*
X74963868Y31043553D01*
X74730597Y31080500D01*
X74730592Y31080500D01*
X74494408Y31080500D01*
X74494403Y31080500D01*
X74261131Y31043553D01*
X74188551Y31019970D01*
X74036508Y30970568D01*
X74036505Y30970566D01*
X74036503Y30970566D01*
X73985637Y30944648D01*
X73826067Y30863343D01*
X73634990Y30724517D01*
X73467983Y30557510D01*
X73370129Y30422826D01*
X73329157Y30366433D01*
X73221933Y30155996D01*
X73148946Y29931368D01*
X73112000Y29698097D01*
X73112000Y29461902D01*
X73148946Y29228631D01*
X73221933Y29004003D01*
X73329157Y28793566D01*
X73361621Y28748884D01*
X73467983Y28602490D01*
X73467985Y28602488D01*
X73467985Y28602487D01*
X73634987Y28435485D01*
X73826069Y28296655D01*
X73844299Y28287366D01*
X73895093Y28239390D01*
X73912000Y28176883D01*
X73912000Y25875300D01*
X73892315Y25808261D01*
X73839511Y25762506D01*
X73788000Y25751300D01*
X67494320Y25751300D01*
X67427281Y25770985D01*
X67381526Y25823789D01*
X67371582Y25892947D01*
X67400607Y25956503D01*
X67406639Y25962981D01*
X74286838Y32843181D01*
X74348161Y32876666D01*
X74374519Y32879500D01*
X76484384Y32879500D01*
X76551423Y32859815D01*
X76594868Y32811797D01*
X76604157Y32793566D01*
X76681286Y32687408D01*
X76742983Y32602490D01*
X76742985Y32602488D01*
X76742985Y32602487D01*
X76909987Y32435485D01*
X77101066Y32296657D01*
X77311503Y32189433D01*
X77536131Y32116446D01*
X77769403Y32079500D01*
X77769408Y32079500D01*
X78005597Y32079500D01*
X78238868Y32116446D01*
X78463496Y32189433D01*
X78673933Y32296657D01*
X78865010Y32435483D01*
X79032017Y32602490D01*
X79170843Y32793567D01*
X79257085Y32962826D01*
X79278066Y33004003D01*
X79286152Y33028887D01*
X79321345Y33137201D01*
X79351053Y33228631D01*
X79388000Y33461902D01*
X79388000Y33698097D01*
X79351053Y33931368D01*
X79343156Y33955672D01*
X79278068Y34155992D01*
X79170843Y34366433D01*
X79032017Y34557510D01*
X78865010Y34724517D01*
X78673933Y34863343D01*
X78463492Y34970568D01*
X78238868Y35043553D01*
X78005597Y35080500D01*
X78005592Y35080500D01*
X77769408Y35080500D01*
X77769403Y35080500D01*
X77536131Y35043553D01*
X77499498Y35031650D01*
X77311508Y34970568D01*
X77311505Y34970566D01*
X77311503Y34970566D01*
X77208096Y34917877D01*
X77101067Y34863343D01*
X76909990Y34724517D01*
X76742983Y34557510D01*
X76647808Y34426513D01*
X76604157Y34366433D01*
X76594868Y34348203D01*
X76546892Y34297408D01*
X76484384Y34280500D01*
X73964004Y34280500D01*
X73828677Y34253581D01*
X73828672Y34253580D01*
X73828667Y34253578D01*
X73701192Y34200777D01*
X73586454Y34124112D01*
X73586453Y34124111D01*
X73212180Y33749837D01*
X73150857Y33716352D01*
X73081166Y33721336D01*
X73025232Y33763207D01*
X73000815Y33828672D01*
X73000499Y33837518D01*
X73000499Y35744864D01*
X73000497Y35744882D01*
X72997586Y35769987D01*
X72997585Y35769988D01*
X72997585Y35769991D01*
X72952206Y35872765D01*
X72872765Y35952206D01*
X72769991Y35997585D01*
X72744865Y36000500D01*
X70255136Y36000499D01*
X70255122Y36000497D01*
X70255117Y36000497D01*
X70230012Y35997586D01*
X70230010Y35997585D01*
X70230009Y35997585D01*
X70158095Y35965832D01*
X70127235Y35952206D01*
X70047794Y35872765D01*
X70002415Y35769993D01*
X70002415Y35769991D01*
X69999500Y35744868D01*
X69999500Y33255143D01*
X69999502Y33255117D01*
X70002413Y33230012D01*
X70002415Y33230008D01*
X70047793Y33127235D01*
X70127234Y33047794D01*
X70230007Y33002415D01*
X70255131Y32999500D01*
X70255135Y32999500D01*
X72162481Y32999500D01*
X72229520Y32979815D01*
X72275275Y32927011D01*
X72285219Y32857853D01*
X72256194Y32794297D01*
X72250162Y32787819D01*
X66693762Y27231419D01*
X66632439Y27197934D01*
X66606081Y27195100D01*
X57756606Y27195100D01*
X57738537Y27191505D01*
X57648191Y27173534D01*
X57648189Y27173534D01*
X57621277Y27168182D01*
X57621272Y27168180D01*
X57621271Y27168180D01*
X57621269Y27168179D01*
X57493790Y27115376D01*
X57379054Y27038712D01*
X50466787Y20126445D01*
X50390122Y20011707D01*
X50337321Y19884232D01*
X50337318Y19884220D01*
X50313738Y19765675D01*
X50310400Y19748894D01*
X50310400Y18029403D01*
X50310399Y18029403D01*
X50337318Y17894077D01*
X50337321Y17894067D01*
X50390122Y17766592D01*
X50466787Y17651854D01*
X52057154Y16061487D01*
X52171892Y15984822D01*
X52299367Y15932021D01*
X52299377Y15932018D01*
X52434704Y15905100D01*
X52434706Y15905100D01*
X52434707Y15905100D01*
X53202484Y15905100D01*
X53269523Y15885415D01*
X53312968Y15837397D01*
X53322257Y15819166D01*
X53401462Y15710150D01*
X53461083Y15628090D01*
X53461085Y15628088D01*
X53461085Y15628087D01*
X53473092Y15616081D01*
X53506577Y15554758D01*
X53501593Y15485066D01*
X53459721Y15429133D01*
X53394257Y15404716D01*
X53385411Y15404400D01*
X36687619Y15404400D01*
X36620580Y15424085D01*
X36599938Y15440719D01*
X36236819Y15803838D01*
X36222115Y15830765D01*
X36205523Y15856584D01*
X36204631Y15862784D01*
X36203334Y15865161D01*
X36200500Y15891519D01*
X36200500Y15925500D01*
X36220185Y15992539D01*
X36272989Y16038294D01*
X36324499Y16049500D01*
X36454857Y16049500D01*
X36454880Y16049502D01*
X36479988Y16052414D01*
X36479991Y16052415D01*
X36582764Y16097793D01*
X36662205Y16177234D01*
X36662206Y16177235D01*
X36703380Y16270485D01*
X36707584Y16280006D01*
X36707585Y16280009D01*
X36710500Y16305135D01*
X36710499Y16765735D01*
X36730183Y16832772D01*
X36782987Y16878527D01*
X36852146Y16888471D01*
X36915702Y16859446D01*
X36934816Y16838619D01*
X37046167Y16685360D01*
X37046174Y16685351D01*
X37185351Y16546174D01*
X37344594Y16430476D01*
X37519970Y16341117D01*
X37707173Y16280290D01*
X37901578Y16249500D01*
X37901583Y16249500D01*
X38098422Y16249500D01*
X38292826Y16280290D01*
X38480029Y16341117D01*
X38655405Y16430476D01*
X38814646Y16546172D01*
X38953828Y16685354D01*
X38999696Y16748486D01*
X39055027Y16791151D01*
X39100014Y16799600D01*
X42957096Y16799600D01*
X43092422Y16826518D01*
X43092432Y16826521D01*
X43219907Y16879322D01*
X43334645Y16955987D01*
X43334646Y16955988D01*
X52292974Y25914318D01*
X52354297Y25947803D01*
X52418967Y25944570D01*
X52438429Y25938247D01*
X52671703Y25901300D01*
X52671708Y25901300D01*
X52907897Y25901300D01*
X53141168Y25938246D01*
X53365796Y26011233D01*
X53576233Y26118457D01*
X53588231Y26127174D01*
X53767310Y26257283D01*
X53934317Y26424290D01*
X54073143Y26615367D01*
X54129867Y26726695D01*
X54180366Y26825803D01*
X54192137Y26862028D01*
X54235666Y26995996D01*
X54253353Y27050431D01*
X54290300Y27283702D01*
X54290300Y27519897D01*
X54253353Y27753168D01*
X54234703Y27810566D01*
X54180368Y27977792D01*
X54073143Y28188233D01*
X53934317Y28379310D01*
X53767310Y28546317D01*
X53576233Y28685143D01*
X53365792Y28792368D01*
X53141168Y28865353D01*
X52907897Y28902300D01*
X52907892Y28902300D01*
X52671708Y28902300D01*
X52671703Y28902300D01*
X52438431Y28865353D01*
X52334212Y28831489D01*
X52213808Y28792368D01*
X52213805Y28792366D01*
X52213803Y28792366D01*
X52129704Y28749515D01*
X52003367Y28685143D01*
X51812290Y28546317D01*
X51645283Y28379310D01*
X51547995Y28245405D01*
X51506457Y28188233D01*
X51399233Y27977796D01*
X51326246Y27753168D01*
X51289300Y27519897D01*
X51289300Y27283702D01*
X51326247Y27050429D01*
X51332570Y27030967D01*
X51334562Y26961126D01*
X51302318Y26904974D01*
X42634262Y18236919D01*
X42572939Y18203434D01*
X42546581Y18200600D01*
X39099869Y18200600D01*
X39032830Y18220285D01*
X38999552Y18251714D01*
X38976689Y18283181D01*
X38953828Y18314646D01*
X38814646Y18453828D01*
X38655405Y18569524D01*
X38480025Y18658884D01*
X38292826Y18719709D01*
X38291033Y18719993D01*
X38098422Y18750500D01*
X38098417Y18750500D01*
X37901583Y18750500D01*
X37901578Y18750500D01*
X37707173Y18719709D01*
X37630765Y18694882D01*
X37519975Y18658884D01*
X37519972Y18658882D01*
X37519970Y18658882D01*
X37427455Y18611743D01*
X37344595Y18569524D01*
X37185354Y18453828D01*
X37046172Y18314646D01*
X36934815Y18161377D01*
X36879487Y18118714D01*
X36809873Y18112735D01*
X36748078Y18145341D01*
X36713721Y18206180D01*
X36710499Y18234265D01*
X36710499Y18694856D01*
X36710499Y18694864D01*
X36707618Y18719709D01*
X36707586Y18719987D01*
X36707585Y18719988D01*
X36707585Y18719991D01*
X36662206Y18822765D01*
X36582765Y18902206D01*
X36479991Y18947585D01*
X36454865Y18950500D01*
X34465136Y18950499D01*
X34465122Y18950497D01*
X34465117Y18950497D01*
X34440012Y18947586D01*
X34440010Y18947585D01*
X34440009Y18947585D01*
X34337235Y18902206D01*
X34257794Y18822765D01*
X34212415Y18719993D01*
X34212415Y18719991D01*
X34209500Y18694868D01*
X34209500Y16305143D01*
X34209502Y16305117D01*
X34212413Y16280012D01*
X34212415Y16280008D01*
X34257793Y16177235D01*
X34337234Y16097794D01*
X34440007Y16052415D01*
X34465131Y16049500D01*
X34465135Y16049500D01*
X34675500Y16049500D01*
X34742539Y16029815D01*
X34788294Y15977011D01*
X34799500Y15925500D01*
X34799500Y15481003D01*
X34799499Y15481003D01*
X34826418Y15345677D01*
X34826421Y15345667D01*
X34879222Y15218192D01*
X34955887Y15103454D01*
X34955888Y15103453D01*
X35544962Y14514381D01*
X35578447Y14453058D01*
X35573463Y14383367D01*
X35531592Y14327433D01*
X35466127Y14303016D01*
X35457281Y14302700D01*
X31795319Y14302700D01*
X31728280Y14322385D01*
X31707638Y14339019D01*
X31449483Y14597174D01*
X29939078Y16107577D01*
X29905595Y16168898D01*
X29908831Y16233576D01*
X29913624Y16248327D01*
X29915153Y16253032D01*
X29932170Y16360474D01*
X29952100Y16486302D01*
X29952100Y16722497D01*
X29915153Y16955768D01*
X29896010Y17014683D01*
X29842168Y17180392D01*
X29734943Y17390833D01*
X29596117Y17581910D01*
X29429110Y17748917D01*
X29238033Y17887743D01*
X29027592Y17994968D01*
X28802968Y18067953D01*
X28569697Y18104900D01*
X28569692Y18104900D01*
X28333508Y18104900D01*
X28333503Y18104900D01*
X28100231Y18067953D01*
X28017612Y18041108D01*
X27875608Y17994968D01*
X27875605Y17994966D01*
X27875603Y17994966D01*
X27805633Y17959314D01*
X27665167Y17887743D01*
X27474090Y17748917D01*
X27307083Y17581910D01*
X27204785Y17441109D01*
X27168257Y17390833D01*
X27061033Y17180396D01*
X26988046Y16955768D01*
X26951100Y16722497D01*
X26951100Y16486302D01*
X26988046Y16253031D01*
X27061033Y16028403D01*
X27168257Y15817966D01*
X27178522Y15803838D01*
X27307083Y15626890D01*
X27307085Y15626888D01*
X27307085Y15626887D01*
X27474087Y15459885D01*
X27665166Y15321057D01*
X27875603Y15213833D01*
X28100231Y15140846D01*
X28333503Y15103900D01*
X28333508Y15103900D01*
X28569697Y15103900D01*
X28802969Y15140847D01*
X28802972Y15140847D01*
X28822424Y15147168D01*
X28892265Y15149163D01*
X28948423Y15116918D01*
X30652662Y13412681D01*
X30686147Y13351358D01*
X30681163Y13281667D01*
X30639291Y13225733D01*
X30573827Y13201316D01*
X30564981Y13201000D01*
X28911719Y13201000D01*
X28844680Y13220685D01*
X28824038Y13237319D01*
X26627245Y15434112D01*
X26627243Y15434114D01*
X26512511Y15510775D01*
X26512508Y15510776D01*
X26512507Y15510777D01*
X26428906Y15545405D01*
X26385028Y15563580D01*
X26340740Y15572389D01*
X26249696Y15590500D01*
X26249694Y15590500D01*
X26249693Y15590500D01*
X12849941Y15590500D01*
X12782902Y15610185D01*
X12749623Y15641614D01*
X12703828Y15704646D01*
X12564646Y15843828D01*
X12405405Y15959524D01*
X12340609Y15992539D01*
X12228787Y16049515D01*
X12177990Y16097489D01*
X12161195Y16165310D01*
X12183732Y16231445D01*
X12228787Y16270485D01*
X12405403Y16360474D01*
X12453246Y16395234D01*
X12564646Y16476172D01*
X12703828Y16615354D01*
X12819524Y16774595D01*
X12872886Y16879325D01*
X12908882Y16949970D01*
X12910838Y16955988D01*
X12969709Y17137174D01*
X12975810Y17175692D01*
X13000500Y17331577D01*
X13000500Y17528422D01*
X12969709Y17722826D01*
X12908884Y17910025D01*
X12819524Y18085405D01*
X12703828Y18244646D01*
X12564646Y18383828D01*
X12405405Y18499524D01*
X12390816Y18506957D01*
X12228787Y18589515D01*
X12177990Y18637489D01*
X12161195Y18705310D01*
X12183732Y18771445D01*
X12228787Y18810485D01*
X12405403Y18900474D01*
X12470243Y18947584D01*
X12564646Y19016172D01*
X12703828Y19155354D01*
X12819524Y19314595D01*
X12884716Y19442542D01*
X12908882Y19489970D01*
X12915222Y19509480D01*
X12951871Y19622274D01*
X12969709Y19677173D01*
X13000500Y19871577D01*
X13000500Y20068422D01*
X12969709Y20262826D01*
X12963043Y20283343D01*
X12908884Y20450025D01*
X12819524Y20625405D01*
X12703828Y20784646D01*
X12564646Y20923828D01*
X12405405Y21039524D01*
X12230025Y21128884D01*
X12228787Y21129515D01*
X12177990Y21177489D01*
X12161195Y21245310D01*
X12183732Y21311445D01*
X12228787Y21350485D01*
X12405403Y21440474D01*
X12453246Y21475234D01*
X12564646Y21556172D01*
X12703828Y21695354D01*
X12749624Y21758386D01*
X12804953Y21801051D01*
X12849941Y21809500D01*
X16894096Y21809500D01*
X17029422Y21836418D01*
X17029432Y21836421D01*
X17156907Y21889222D01*
X17271645Y21965887D01*
X17271646Y21965888D01*
X25801837Y30496081D01*
X25863160Y30529566D01*
X25889518Y30532400D01*
X36495500Y30532400D01*
X36562539Y30512715D01*
X36608294Y30459911D01*
X36619500Y30408400D01*
X36619500Y28086343D01*
X36619502Y28086317D01*
X36622413Y28061212D01*
X36622415Y28061208D01*
X36667793Y27958435D01*
X36747234Y27878994D01*
X36850007Y27833615D01*
X36875131Y27830700D01*
X36875135Y27830700D01*
X37080779Y27830700D01*
X37147818Y27811015D01*
X37193573Y27758211D01*
X37203517Y27689053D01*
X37174492Y27625497D01*
X37165865Y27616931D01*
X37165935Y27616862D01*
X37162490Y27613417D01*
X36995483Y27446410D01*
X36861101Y27261450D01*
X36856657Y27255333D01*
X36847368Y27237103D01*
X36799392Y27186308D01*
X36736884Y27169400D01*
X36071004Y27169400D01*
X35979959Y27151289D01*
X35935672Y27142480D01*
X35906345Y27130332D01*
X35905395Y27129939D01*
X35857943Y27120500D01*
X35515616Y27120500D01*
X35448577Y27140185D01*
X35405132Y27188203D01*
X35400173Y27197934D01*
X35395843Y27206433D01*
X35257017Y27397510D01*
X35090010Y27564517D01*
X34898933Y27703343D01*
X34688492Y27810568D01*
X34463868Y27883553D01*
X34230597Y27920500D01*
X34230592Y27920500D01*
X33994408Y27920500D01*
X33994403Y27920500D01*
X33761131Y27883553D01*
X33704718Y27865223D01*
X33536508Y27810568D01*
X33536505Y27810566D01*
X33536503Y27810566D01*
X33425491Y27754002D01*
X33326067Y27703343D01*
X33134990Y27564517D01*
X32967983Y27397510D01*
X32830091Y27207718D01*
X32829157Y27206433D01*
X32721933Y26995996D01*
X32648946Y26771368D01*
X32612000Y26538097D01*
X32612000Y26301902D01*
X32648946Y26068631D01*
X32721933Y25844003D01*
X32829157Y25633566D01*
X32904382Y25530029D01*
X32967983Y25442490D01*
X32967985Y25442488D01*
X32967985Y25442487D01*
X33134987Y25275485D01*
X33326066Y25136657D01*
X33536503Y25029433D01*
X33761131Y24956446D01*
X33994403Y24919500D01*
X33994408Y24919500D01*
X34230597Y24919500D01*
X34463868Y24956446D01*
X34688496Y25029433D01*
X34898933Y25136657D01*
X34938014Y25165051D01*
X35090010Y25275483D01*
X35257017Y25442490D01*
X35395843Y25633567D01*
X35405132Y25651797D01*
X35453108Y25702592D01*
X35515616Y25719500D01*
X36160096Y25719500D01*
X36295421Y25746418D01*
X36295429Y25746420D01*
X36325705Y25758961D01*
X36373157Y25768400D01*
X36736884Y25768400D01*
X36803923Y25748715D01*
X36847368Y25700697D01*
X36856657Y25682466D01*
X36912685Y25605351D01*
X36995483Y25491390D01*
X36995485Y25491388D01*
X36995485Y25491387D01*
X37162487Y25324385D01*
X37353566Y25185557D01*
X37564003Y25078333D01*
X37788631Y25005346D01*
X38021903Y24968400D01*
X38021908Y24968400D01*
X38258097Y24968400D01*
X38491368Y25005346D01*
X38715996Y25078333D01*
X38926433Y25185557D01*
X38946711Y25200290D01*
X39117510Y25324383D01*
X39284517Y25491390D01*
X39423343Y25682467D01*
X39505650Y25844003D01*
X39530566Y25892903D01*
X39530581Y25892947D01*
X39570786Y26016687D01*
X39603553Y26117531D01*
X39640500Y26350802D01*
X39640500Y26586997D01*
X39603553Y26820268D01*
X39601753Y26825808D01*
X39530568Y27044892D01*
X39423343Y27255333D01*
X39284517Y27446410D01*
X39117510Y27613417D01*
X39117509Y27613417D01*
X39114065Y27616862D01*
X39115109Y27617906D01*
X39080505Y27670882D01*
X39079986Y27740750D01*
X39117322Y27799807D01*
X39180661Y27829303D01*
X39199218Y27830700D01*
X39364855Y27830700D01*
X39364882Y27830702D01*
X39389987Y27833613D01*
X39389991Y27833615D01*
X39492764Y27878993D01*
X39572205Y27958434D01*
X39572206Y27958435D01*
X39605730Y28034360D01*
X39617584Y28061206D01*
X39617585Y28061209D01*
X39620500Y28086335D01*
X39620499Y30576064D01*
X39620371Y30577171D01*
X39617586Y30601187D01*
X39617585Y30601188D01*
X39617585Y30601191D01*
X39572206Y30703965D01*
X39492765Y30783406D01*
X39389991Y30828785D01*
X39389987Y30828785D01*
X39387744Y30829776D01*
X39334368Y30874862D01*
X39313840Y30941648D01*
X39332678Y31008931D01*
X39350149Y31030892D01*
X40838175Y32518918D01*
X40899498Y32552403D01*
X40964170Y32549169D01*
X40983628Y32542847D01*
X41216903Y32505900D01*
X41216908Y32505900D01*
X41453097Y32505900D01*
X41686368Y32542846D01*
X41910996Y32615833D01*
X42121433Y32723057D01*
X42159205Y32750500D01*
X42312510Y32861883D01*
X42479517Y33028890D01*
X42618343Y33219967D01*
X42693621Y33367708D01*
X42725566Y33430403D01*
X42728334Y33438920D01*
X42775124Y33582924D01*
X42798553Y33655031D01*
X42835500Y33888302D01*
X42835500Y34124497D01*
X42798553Y34357768D01*
X42785178Y34398933D01*
X42725568Y34582392D01*
X42618343Y34792833D01*
X42479517Y34983910D01*
X42312510Y35150917D01*
X42121433Y35289743D01*
X41910992Y35396968D01*
X41686368Y35469953D01*
X41453097Y35506900D01*
X41453092Y35506900D01*
X41216908Y35506900D01*
X41216903Y35506900D01*
X40983631Y35469953D01*
X40879412Y35436089D01*
X40759008Y35396968D01*
X40759005Y35396966D01*
X40759003Y35396966D01*
X40602743Y35317347D01*
X40548567Y35289743D01*
X40357490Y35150917D01*
X40190483Y34983910D01*
X40069959Y34818023D01*
X40051657Y34792833D01*
X39944433Y34582396D01*
X39871446Y34357768D01*
X39834500Y34124497D01*
X39834500Y33888302D01*
X39871447Y33655029D01*
X39877770Y33635567D01*
X39879762Y33565726D01*
X39847518Y33509574D01*
X39612848Y33274904D01*
X39551525Y33241419D01*
X39481833Y33246403D01*
X39425900Y33288275D01*
X39401483Y33353739D01*
X39402694Y33381983D01*
X39420500Y33494402D01*
X39420500Y33730597D01*
X39383553Y33963868D01*
X39373630Y33994408D01*
X39310568Y34188492D01*
X39203343Y34398933D01*
X39064517Y34590010D01*
X38897510Y34757017D01*
X38706433Y34895843D01*
X38495992Y35003068D01*
X38271368Y35076053D01*
X38038097Y35113000D01*
X38038092Y35113000D01*
X37801908Y35113000D01*
X37801903Y35113000D01*
X37568631Y35076053D01*
X37494395Y35051932D01*
X37344008Y35003068D01*
X37344005Y35003066D01*
X37344003Y35003066D01*
X37280223Y34970568D01*
X37133567Y34895843D01*
X36942490Y34757017D01*
X36775483Y34590010D01*
X36656695Y34426513D01*
X36636657Y34398933D01*
X36529433Y34188496D01*
X36456446Y33963868D01*
X36419500Y33730597D01*
X36419500Y33494402D01*
X36456446Y33261131D01*
X36529433Y33036503D01*
X36636657Y32826066D01*
X36678542Y32768417D01*
X36775483Y32634990D01*
X36775485Y32634988D01*
X36775485Y32634987D01*
X36942487Y32467985D01*
X37133566Y32329157D01*
X37344003Y32221933D01*
X37487431Y32175331D01*
X37545106Y32135893D01*
X37572304Y32071534D01*
X37560389Y32002688D01*
X37513145Y31951212D01*
X37449112Y31933400D01*
X25479005Y31933400D01*
X25452463Y31928120D01*
X25384896Y31914680D01*
X25343671Y31906480D01*
X25290866Y31884607D01*
X25216189Y31853675D01*
X25113731Y31785214D01*
X25113730Y31785215D01*
X25113724Y31785209D01*
X25107632Y31781139D01*
X25101459Y31777015D01*
X25101457Y31777013D01*
X16571262Y23246819D01*
X16509939Y23213334D01*
X16483581Y23210500D01*
X12849941Y23210500D01*
X12782902Y23230185D01*
X12749623Y23261614D01*
X12703828Y23324646D01*
X12564646Y23463828D01*
X12405405Y23579524D01*
X12273705Y23646628D01*
X12228787Y23669515D01*
X12177990Y23717489D01*
X12161195Y23785310D01*
X12183732Y23851445D01*
X12228787Y23890485D01*
X12405403Y23980474D01*
X12453246Y24015234D01*
X12564646Y24096172D01*
X12703828Y24235354D01*
X12819524Y24394595D01*
X12876231Y24505890D01*
X12908882Y24569970D01*
X12909830Y24572885D01*
X12952218Y24703343D01*
X12969709Y24757173D01*
X13000500Y24951577D01*
X13000500Y25148422D01*
X12969709Y25342826D01*
X12937327Y25442487D01*
X12908884Y25530025D01*
X12819524Y25705405D01*
X12703828Y25864646D01*
X12564646Y26003828D01*
X12405405Y26119524D01*
X12291306Y26177660D01*
X12228787Y26209515D01*
X12177990Y26257489D01*
X12161195Y26325310D01*
X12183732Y26391445D01*
X12228787Y26430485D01*
X12405403Y26520474D01*
X12453246Y26555234D01*
X12564646Y26636172D01*
X12703828Y26775354D01*
X12819524Y26934595D01*
X12888510Y27069988D01*
X12908882Y27109970D01*
X12910639Y27115375D01*
X12969709Y27297174D01*
X12970890Y27304632D01*
X13000500Y27491577D01*
X13000500Y27674181D01*
X13020185Y27741220D01*
X13036819Y27761862D01*
X15028575Y29753618D01*
X15089898Y29787103D01*
X15154570Y29783869D01*
X15174028Y29777547D01*
X15407303Y29740600D01*
X15407308Y29740600D01*
X15643497Y29740600D01*
X15876768Y29777546D01*
X16101396Y29850533D01*
X16311833Y29957757D01*
X16355468Y29989460D01*
X16502910Y30096583D01*
X16669917Y30263590D01*
X16808743Y30454667D01*
X16893472Y30620957D01*
X16915966Y30665103D01*
X16922546Y30685352D01*
X16974287Y30844595D01*
X16988953Y30889731D01*
X17025900Y31123002D01*
X17025900Y31359197D01*
X16988953Y31592468D01*
X16931493Y31769310D01*
X16915968Y31817092D01*
X16867785Y31911654D01*
X16854890Y31980323D01*
X16881166Y32045063D01*
X16938272Y32085321D01*
X17008078Y32088313D01*
X17051157Y32068267D01*
X17172566Y31980057D01*
X17383003Y31872833D01*
X17607631Y31799846D01*
X17840903Y31762900D01*
X17840908Y31762900D01*
X18077097Y31762900D01*
X18310368Y31799846D01*
X18442477Y31842772D01*
X18534992Y31872832D01*
X18558102Y31884607D01*
X18626839Y31919630D01*
X18695509Y31932526D01*
X18760249Y31906249D01*
X18770815Y31896826D01*
X19379018Y31288623D01*
X19412503Y31227300D01*
X19409268Y31162624D01*
X19402947Y31143172D01*
X19402947Y31143169D01*
X19366000Y30909897D01*
X19366000Y30673702D01*
X19402946Y30440431D01*
X19475933Y30215803D01*
X19583157Y30005366D01*
X19638661Y29928972D01*
X19721983Y29814290D01*
X19721985Y29814288D01*
X19721985Y29814287D01*
X19888987Y29647285D01*
X20080066Y29508457D01*
X20290503Y29401233D01*
X20515131Y29328246D01*
X20748403Y29291300D01*
X20748408Y29291300D01*
X20984597Y29291300D01*
X21217868Y29328246D01*
X21442496Y29401233D01*
X21652933Y29508457D01*
X21670574Y29521274D01*
X21844010Y29647283D01*
X22011017Y29814290D01*
X22149843Y30005367D01*
X22226590Y30155992D01*
X22257066Y30215803D01*
X22261167Y30228422D01*
X22297783Y30341116D01*
X22330053Y30440431D01*
X22367000Y30673702D01*
X22367000Y30909897D01*
X22330053Y31143168D01*
X22300250Y31234892D01*
X22257068Y31367792D01*
X22149843Y31578233D01*
X22011017Y31769310D01*
X21844010Y31936317D01*
X21652933Y32075143D01*
X21442492Y32182368D01*
X21217868Y32255353D01*
X21215860Y32255671D01*
X20984597Y32292300D01*
X20984592Y32292300D01*
X20748408Y32292300D01*
X20748403Y32292300D01*
X20602610Y32269208D01*
X20515132Y32255353D01*
X20495675Y32249030D01*
X20425835Y32247034D01*
X20369677Y32279278D01*
X19495817Y33153139D01*
X19462334Y33214460D01*
X19459500Y33240818D01*
X19459500Y33381497D01*
X19422553Y33614768D01*
X19401332Y33680079D01*
X19349568Y33839392D01*
X19242343Y34049833D01*
X19103517Y34240910D01*
X18936510Y34407917D01*
X18745433Y34546743D01*
X18534992Y34653968D01*
X18310368Y34726953D01*
X18077097Y34763900D01*
X18077092Y34763900D01*
X17840908Y34763900D01*
X17840903Y34763900D01*
X17607631Y34726953D01*
X17503412Y34693089D01*
X17383008Y34653968D01*
X17383005Y34653966D01*
X17383003Y34653966D01*
X17312607Y34618097D01*
X17172567Y34546743D01*
X16981490Y34407917D01*
X16814483Y34240910D01*
X16717295Y34107142D01*
X16675657Y34049833D01*
X16568433Y33839396D01*
X16495446Y33614768D01*
X16458500Y33381497D01*
X16458500Y33145302D01*
X16495446Y32912031D01*
X16568434Y32687400D01*
X16616613Y32592844D01*
X16629509Y32524175D01*
X16603232Y32459434D01*
X16546125Y32419178D01*
X16476320Y32416186D01*
X16433247Y32436230D01*
X16311833Y32524443D01*
X16101392Y32631668D01*
X15876768Y32704653D01*
X15858862Y32707489D01*
X15643497Y32741600D01*
X15643492Y32741600D01*
X15407308Y32741600D01*
X15407303Y32741600D01*
X15174031Y32704653D01*
X15069812Y32670789D01*
X14949408Y32631668D01*
X14949405Y32631666D01*
X14949403Y32631666D01*
X14838391Y32575102D01*
X14738967Y32524443D01*
X14547890Y32385617D01*
X14380883Y32218610D01*
X14276648Y32075143D01*
X14242057Y32027533D01*
X14134833Y31817096D01*
X14061846Y31592468D01*
X14024900Y31359197D01*
X14024900Y31123002D01*
X14061847Y30889728D01*
X14061847Y30889727D01*
X14068169Y30870270D01*
X14070162Y30800429D01*
X14037918Y30744275D01*
X13209244Y29915601D01*
X13147921Y29882116D01*
X13078229Y29887100D01*
X13022296Y29928972D01*
X12997879Y29994436D01*
X12999091Y30022686D01*
X13000500Y30031578D01*
X13000500Y30228422D01*
X12969709Y30422826D01*
X12940502Y30512715D01*
X12908884Y30610025D01*
X12819524Y30785405D01*
X12703828Y30944646D01*
X12564646Y31083828D01*
X12405405Y31199524D01*
X12245157Y31281174D01*
X12228787Y31289515D01*
X12177990Y31337489D01*
X12161195Y31405310D01*
X12183732Y31471445D01*
X12228787Y31510485D01*
X12405403Y31600474D01*
X12453246Y31635234D01*
X12564646Y31716172D01*
X12703828Y31855354D01*
X12819524Y32014595D01*
X12875074Y32123618D01*
X12908882Y32189970D01*
X12912214Y32200223D01*
X12954107Y32329157D01*
X12969709Y32377173D01*
X13000500Y32571577D01*
X13000500Y32768422D01*
X12969709Y32962826D01*
X12945788Y33036447D01*
X12908884Y33150025D01*
X12819524Y33325405D01*
X12703828Y33484646D01*
X12564646Y33623828D01*
X12405405Y33739524D01*
X12230025Y33828884D01*
X12042826Y33889709D01*
X11848422Y33920500D01*
X11848417Y33920500D01*
X11651583Y33920500D01*
X11651578Y33920500D01*
X11457173Y33889709D01*
X11413443Y33875500D01*
X11269975Y33828884D01*
X11269972Y33828882D01*
X11269970Y33828882D01*
X11194665Y33790512D01*
X11094595Y33739524D01*
X10935354Y33623828D01*
X10796172Y33484646D01*
X10721226Y33381492D01*
X10680474Y33325403D01*
X10590485Y33148787D01*
X10542511Y33097990D01*
X10474690Y33081195D01*
X10408555Y33103732D01*
X10369515Y33148787D01*
X10279525Y33325403D01*
X10279524Y33325405D01*
X10163828Y33484646D01*
X10024646Y33623828D01*
X9871378Y33735184D01*
X9828714Y33790512D01*
X9822735Y33860125D01*
X9855341Y33921920D01*
X9916179Y33956277D01*
X9944265Y33959500D01*
X10204856Y33959500D01*
X10204882Y33959502D01*
X10229987Y33962413D01*
X10229991Y33962415D01*
X10332764Y34007793D01*
X10412205Y34087234D01*
X10412206Y34087235D01*
X10457585Y34190009D01*
X10460500Y34215135D01*
X10460499Y36204864D01*
X10459685Y36211885D01*
X10457586Y36229987D01*
X10457585Y36229989D01*
X10457585Y36229991D01*
X10455189Y36235415D01*
X10446119Y36304693D01*
X10475943Y36367878D01*
X10535193Y36404908D01*
X10568625Y36409500D01*
X27026296Y36409500D01*
X27161622Y36436418D01*
X27161632Y36436421D01*
X27289107Y36489222D01*
X27403845Y36565887D01*
X27403846Y36565888D01*
X28628337Y37790381D01*
X28689660Y37823866D01*
X28716018Y37826700D01*
X32937811Y37826700D01*
X33004850Y37807015D01*
X33050605Y37754211D01*
X33060549Y37685053D01*
X33031524Y37621497D01*
X33025492Y37615019D01*
X32967983Y37557510D01*
X32849655Y37394646D01*
X32829157Y37366433D01*
X32721933Y37155996D01*
X32648946Y36931368D01*
X32612000Y36698097D01*
X32612000Y36461902D01*
X32648946Y36228631D01*
X32721933Y36004003D01*
X32829157Y35793566D01*
X32864541Y35744865D01*
X32967983Y35602490D01*
X32967985Y35602488D01*
X32967985Y35602487D01*
X33134987Y35435485D01*
X33326066Y35296657D01*
X33536503Y35189433D01*
X33761131Y35116446D01*
X33994403Y35079500D01*
X33994408Y35079500D01*
X34230597Y35079500D01*
X34463868Y35116446D01*
X34688496Y35189433D01*
X34898933Y35296657D01*
X34915758Y35308881D01*
X35090010Y35435483D01*
X35257017Y35602490D01*
X35395843Y35793567D01*
X35476674Y35952206D01*
X35503066Y36004003D01*
X35505166Y36010464D01*
X35568328Y36204856D01*
X35576053Y36228631D01*
X35613000Y36461902D01*
X35613000Y36698097D01*
X35576053Y36931368D01*
X35552118Y37005032D01*
X35503068Y37155992D01*
X35395843Y37366433D01*
X35257017Y37557510D01*
X35199508Y37615019D01*
X35166023Y37676342D01*
X35171007Y37746034D01*
X35212879Y37801967D01*
X35278343Y37826384D01*
X35287189Y37826700D01*
X40116481Y37826700D01*
X40183520Y37807015D01*
X40204162Y37790381D01*
X47941753Y30052788D01*
X47941754Y30052787D01*
X48056489Y29976124D01*
X48134440Y29943836D01*
X48188843Y29899994D01*
X48210907Y29833700D01*
X48193627Y29766001D01*
X48174667Y29741594D01*
X48105783Y29672710D01*
X48015318Y29548196D01*
X47966957Y29481633D01*
X47859733Y29271196D01*
X47786746Y29046568D01*
X47749800Y28813297D01*
X47749800Y28577102D01*
X47786747Y28343828D01*
X47786747Y28343827D01*
X47793069Y28324370D01*
X47795062Y28254529D01*
X47762818Y28198375D01*
X44201262Y24636819D01*
X44139939Y24603334D01*
X44113581Y24600500D01*
X43406898Y24600500D01*
X43318436Y24589877D01*
X43177658Y24534361D01*
X43177657Y24534360D01*
X43177656Y24534360D01*
X43057077Y24442922D01*
X42965639Y24322343D01*
X42936914Y24249500D01*
X42916079Y24196666D01*
X42910122Y24181561D01*
X42908835Y24170842D01*
X42899500Y24093102D01*
X42899500Y22906898D01*
X42901391Y22891155D01*
X42910122Y22818438D01*
X42965639Y22677656D01*
X43057077Y22557077D01*
X43177656Y22465639D01*
X43318438Y22410122D01*
X43367853Y22404188D01*
X43406898Y22399500D01*
X43406903Y22399500D01*
X44593097Y22399500D01*
X44593102Y22399500D01*
X44635926Y22404642D01*
X44681561Y22410122D01*
X44822343Y22465639D01*
X44942922Y22557077D01*
X45034360Y22677656D01*
X45070540Y22769402D01*
X45089877Y22818436D01*
X45100500Y22906898D01*
X45100500Y23503381D01*
X45120185Y23570420D01*
X45136819Y23591062D01*
X48753475Y27207718D01*
X48814798Y27241203D01*
X48879470Y27237969D01*
X48898928Y27231647D01*
X49132203Y27194700D01*
X49132208Y27194700D01*
X49368397Y27194700D01*
X49601668Y27231646D01*
X49826296Y27304633D01*
X50036733Y27411857D01*
X50066339Y27433367D01*
X50227810Y27550683D01*
X50394817Y27717690D01*
X50533643Y27908767D01*
X50611318Y28061212D01*
X50640866Y28119203D01*
X50645271Y28132758D01*
X50698525Y28296657D01*
X50713853Y28343831D01*
X50750800Y28577102D01*
X50750800Y28813297D01*
X50713853Y29046568D01*
X50692791Y29111389D01*
X50640868Y29271192D01*
X50533643Y29481633D01*
X50394817Y29672710D01*
X50382808Y29684719D01*
X50349323Y29746042D01*
X50354307Y29815734D01*
X50396179Y29871667D01*
X50461643Y29896084D01*
X50470489Y29896400D01*
X53516681Y29896400D01*
X53583720Y29876715D01*
X53604362Y29860081D01*
X54363181Y29101262D01*
X54396666Y29039939D01*
X54399500Y29013581D01*
X54399500Y28361998D01*
X54401682Y28343831D01*
X54410122Y28273538D01*
X54465639Y28132756D01*
X54557077Y28012177D01*
X54677656Y27920739D01*
X54818438Y27865222D01*
X54867853Y27859288D01*
X54906898Y27854600D01*
X54906903Y27854600D01*
X56093097Y27854600D01*
X56093102Y27854600D01*
X56135926Y27859742D01*
X56181561Y27865222D01*
X56322343Y27920739D01*
X56442922Y28012177D01*
X56534360Y28132756D01*
X56534361Y28132758D01*
X56589877Y28273536D01*
X56600500Y28361998D01*
X56600500Y29548202D01*
X56589877Y29636664D01*
X56534361Y29777442D01*
X56442922Y29898022D01*
X56322342Y29989461D01*
X56181564Y30044977D01*
X56093102Y30055600D01*
X56093097Y30055600D01*
X55441519Y30055600D01*
X55374480Y30075285D01*
X55353838Y30091919D01*
X54304745Y31141012D01*
X54304743Y31141014D01*
X54190011Y31217675D01*
X54190008Y31217676D01*
X54190007Y31217677D01*
X54126269Y31244077D01*
X54062528Y31270480D01*
X54018240Y31279289D01*
X53927196Y31297400D01*
X53927194Y31297400D01*
X53927193Y31297400D01*
X48729819Y31297400D01*
X48662780Y31317085D01*
X48642138Y31333719D01*
X48075537Y31900319D01*
X48042052Y31961642D01*
X48047036Y32031333D01*
X48088907Y32087267D01*
X48154372Y32111684D01*
X48163218Y32112000D01*
X48198097Y32112000D01*
X48431368Y32148946D01*
X48655996Y32221933D01*
X48866433Y32329157D01*
X49057510Y32467983D01*
X49224517Y32634990D01*
X49363343Y32826067D01*
X49436923Y32970476D01*
X49470566Y33036503D01*
X49485088Y33081195D01*
X49529102Y33216657D01*
X49543553Y33261131D01*
X49580500Y33494402D01*
X49580500Y33730597D01*
X49543553Y33963868D01*
X49533630Y33994408D01*
X49470568Y34188492D01*
X49449114Y34230597D01*
X50419500Y34230597D01*
X50419500Y33994402D01*
X50456446Y33761131D01*
X50529433Y33536503D01*
X50636657Y33326066D01*
X50709831Y33225352D01*
X50775483Y33134990D01*
X50775485Y33134988D01*
X50775485Y33134987D01*
X50942487Y32967985D01*
X51133566Y32829157D01*
X51344003Y32721933D01*
X51568631Y32648946D01*
X51801903Y32612000D01*
X51801908Y32612000D01*
X52038097Y32612000D01*
X52271368Y32648946D01*
X52495996Y32721933D01*
X52706433Y32829157D01*
X52725735Y32843181D01*
X52897510Y32967983D01*
X53064517Y33134990D01*
X53203343Y33326067D01*
X53208688Y33336558D01*
X53212632Y33344297D01*
X53260608Y33395092D01*
X53323116Y33412000D01*
X53981496Y33412000D01*
X54116822Y33438918D01*
X54116832Y33438921D01*
X54244307Y33491722D01*
X54359045Y33568387D01*
X54359046Y33568388D01*
X54753837Y33963181D01*
X54780764Y33977884D01*
X54806583Y33994477D01*
X54812783Y33995368D01*
X54815160Y33996666D01*
X54841518Y33999500D01*
X54875501Y33999500D01*
X54942540Y33979815D01*
X54988295Y33927011D01*
X54999501Y33875500D01*
X54999501Y33392843D01*
X54999502Y33392817D01*
X55002413Y33367712D01*
X55002415Y33367708D01*
X55047793Y33264935D01*
X55127234Y33185494D01*
X55230007Y33140115D01*
X55255134Y33137200D01*
X55255135Y33137200D01*
X57744856Y33137200D01*
X57744882Y33137202D01*
X57769987Y33140113D01*
X57769991Y33140115D01*
X57872764Y33185493D01*
X57952205Y33264934D01*
X57952206Y33264935D01*
X57980902Y33329926D01*
X57997584Y33367706D01*
X57997585Y33367709D01*
X58000500Y33392835D01*
X58000499Y34230597D01*
X60579500Y34230597D01*
X60579500Y33994402D01*
X60616446Y33761131D01*
X60689433Y33536503D01*
X60796657Y33326066D01*
X60869831Y33225352D01*
X60935483Y33134990D01*
X60935485Y33134988D01*
X60935485Y33134987D01*
X61102487Y32967985D01*
X61293566Y32829157D01*
X61504003Y32721933D01*
X61728631Y32648946D01*
X61961903Y32612000D01*
X61961908Y32612000D01*
X62198097Y32612000D01*
X62431368Y32648946D01*
X62655996Y32721933D01*
X62866433Y32829157D01*
X62885735Y32843181D01*
X63057510Y32967983D01*
X63224517Y33134990D01*
X63363343Y33326067D01*
X63368688Y33336558D01*
X63372632Y33344297D01*
X63420608Y33395092D01*
X63483116Y33412000D01*
X66414611Y33412000D01*
X66481650Y33392315D01*
X66502292Y33375681D01*
X66522487Y33355485D01*
X66713566Y33216657D01*
X66924003Y33109433D01*
X67148631Y33036446D01*
X67381903Y32999500D01*
X67381908Y32999500D01*
X67618097Y32999500D01*
X67851368Y33036446D01*
X68075996Y33109433D01*
X68286433Y33216657D01*
X68298399Y33225351D01*
X68477510Y33355483D01*
X68644517Y33522490D01*
X68783343Y33713567D01*
X68888781Y33920500D01*
X68890566Y33924003D01*
X68891544Y33927011D01*
X68943604Y34087235D01*
X68963553Y34148631D01*
X69000500Y34381902D01*
X69000500Y34618097D01*
X68963553Y34851368D01*
X68940695Y34921718D01*
X68890568Y35075992D01*
X68783343Y35286433D01*
X68644517Y35477510D01*
X68477510Y35644517D01*
X68286433Y35783343D01*
X68075992Y35890568D01*
X67851368Y35963553D01*
X67836973Y35965833D01*
X67618097Y36000500D01*
X67618092Y36000500D01*
X67381908Y36000500D01*
X67381903Y36000500D01*
X67148631Y35963553D01*
X67050882Y35931792D01*
X66924008Y35890568D01*
X66924005Y35890566D01*
X66924003Y35890566D01*
X66853670Y35854729D01*
X66713567Y35783343D01*
X66522490Y35644517D01*
X66355483Y35477510D01*
X66229922Y35304690D01*
X66216657Y35286433D01*
X66128289Y35113000D01*
X66109432Y35075992D01*
X66051819Y34898680D01*
X66012384Y34841007D01*
X65948025Y34813808D01*
X65933890Y34813000D01*
X63483116Y34813000D01*
X63416077Y34832685D01*
X63372632Y34880703D01*
X63370164Y34885545D01*
X63363343Y34898933D01*
X63224517Y35090010D01*
X63057510Y35257017D01*
X62866433Y35395843D01*
X62655992Y35503068D01*
X62431368Y35576053D01*
X62198097Y35613000D01*
X62198092Y35613000D01*
X61961908Y35613000D01*
X61961903Y35613000D01*
X61728631Y35576053D01*
X61624412Y35542189D01*
X61504008Y35503068D01*
X61504005Y35503066D01*
X61504003Y35503066D01*
X61414499Y35457461D01*
X61293567Y35395843D01*
X61102490Y35257017D01*
X60935483Y35090010D01*
X60827947Y34942000D01*
X60796657Y34898933D01*
X60689433Y34688496D01*
X60616446Y34463868D01*
X60579500Y34230597D01*
X58000499Y34230597D01*
X58000499Y34653966D01*
X58000499Y35882556D01*
X58000499Y35882564D01*
X57999307Y35892846D01*
X57997586Y35907687D01*
X57997585Y35907688D01*
X57997585Y35907691D01*
X57952206Y36010465D01*
X57872765Y36089906D01*
X57769991Y36135285D01*
X57744865Y36138200D01*
X57539218Y36138199D01*
X57472181Y36157883D01*
X57426426Y36210687D01*
X57416482Y36279845D01*
X57445507Y36343401D01*
X57454134Y36351968D01*
X57454065Y36352038D01*
X57624514Y36522487D01*
X57624517Y36522490D01*
X57763343Y36713567D01*
X57772632Y36731797D01*
X57820608Y36782592D01*
X57883116Y36799500D01*
X59723717Y36799500D01*
X59790756Y36779815D01*
X59834200Y36731796D01*
X59843490Y36713566D01*
X59916657Y36569966D01*
X59975322Y36489222D01*
X60055483Y36378890D01*
X60055485Y36378888D01*
X60055485Y36378887D01*
X60222487Y36211885D01*
X60413566Y36073057D01*
X60624003Y35965833D01*
X60848631Y35892846D01*
X61081903Y35855900D01*
X61081908Y35855900D01*
X61318097Y35855900D01*
X61551368Y35892846D01*
X61775996Y35965833D01*
X61986433Y36073057D01*
X62009622Y36089905D01*
X62177510Y36211883D01*
X62344517Y36378890D01*
X62483343Y36569967D01*
X62548626Y36698092D01*
X62590566Y36780403D01*
X62591278Y36782592D01*
X62663553Y37005032D01*
X62665685Y37018492D01*
X62700500Y37238302D01*
X62700500Y37474497D01*
X62663553Y37707768D01*
X62658111Y37724517D01*
X62590568Y37932392D01*
X62483343Y38142833D01*
X62344517Y38333910D01*
X62177510Y38500917D01*
X61986433Y38639743D01*
X61775992Y38746968D01*
X61551368Y38819953D01*
X61318097Y38856900D01*
X61318092Y38856900D01*
X61081908Y38856900D01*
X61081903Y38856900D01*
X60848631Y38819953D01*
X60813897Y38808667D01*
X60624008Y38746968D01*
X60624005Y38746966D01*
X60624003Y38746966D01*
X60572395Y38720670D01*
X60413567Y38639743D01*
X60222490Y38500917D01*
X60222487Y38500914D01*
X60055485Y38333912D01*
X60055480Y38333906D01*
X59995692Y38251615D01*
X59940362Y38208949D01*
X59895374Y38200500D01*
X57883116Y38200500D01*
X57816077Y38220185D01*
X57772632Y38268203D01*
X57770164Y38273045D01*
X57763343Y38286433D01*
X57624517Y38477510D01*
X57457510Y38644517D01*
X57266433Y38783343D01*
X57055992Y38890568D01*
X56831368Y38963553D01*
X56806555Y38967483D01*
X56598097Y39000500D01*
X56598092Y39000500D01*
X56361908Y39000500D01*
X56361903Y39000500D01*
X56128631Y38963553D01*
X56024412Y38929689D01*
X55904008Y38890568D01*
X55904005Y38890566D01*
X55904003Y38890566D01*
X55792991Y38834002D01*
X55693567Y38783343D01*
X55502490Y38644517D01*
X55335483Y38477510D01*
X55210404Y38305354D01*
X55196657Y38286433D01*
X55089433Y38075996D01*
X55016446Y37851368D01*
X54979500Y37618097D01*
X54979500Y37381902D01*
X55016446Y37148631D01*
X55089433Y36924003D01*
X55196657Y36713566D01*
X55207900Y36698092D01*
X55335483Y36522490D01*
X55335485Y36522488D01*
X55335485Y36522487D01*
X55505935Y36352038D01*
X55504895Y36350998D01*
X55539504Y36297990D01*
X55540007Y36228122D01*
X55502656Y36169073D01*
X55439311Y36139591D01*
X55420781Y36138199D01*
X55255136Y36138199D01*
X55255121Y36138197D01*
X55255117Y36138197D01*
X55230012Y36135286D01*
X55230010Y36135285D01*
X55230009Y36135285D01*
X55130012Y36091132D01*
X55127235Y36089906D01*
X55047794Y36010465D01*
X55002415Y35907693D01*
X55002415Y35907691D01*
X54999500Y35882568D01*
X54999500Y35524500D01*
X54979815Y35457461D01*
X54927011Y35411706D01*
X54875500Y35400500D01*
X54431006Y35400500D01*
X54413251Y35396968D01*
X54322591Y35378934D01*
X54322589Y35378934D01*
X54295679Y35373582D01*
X54295671Y35373580D01*
X54263588Y35360291D01*
X54263589Y35360291D01*
X54168189Y35320775D01*
X54121747Y35289743D01*
X54121746Y35289743D01*
X54053461Y35244116D01*
X54053453Y35244110D01*
X53658662Y34849319D01*
X53631734Y34834615D01*
X53605916Y34818023D01*
X53599715Y34817131D01*
X53597339Y34815834D01*
X53570981Y34813000D01*
X53323116Y34813000D01*
X53256077Y34832685D01*
X53212632Y34880703D01*
X53210164Y34885545D01*
X53203343Y34898933D01*
X53064517Y35090010D01*
X52897510Y35257017D01*
X52706433Y35395843D01*
X52495992Y35503068D01*
X52271368Y35576053D01*
X52038097Y35613000D01*
X52038092Y35613000D01*
X51801908Y35613000D01*
X51801903Y35613000D01*
X51568631Y35576053D01*
X51464412Y35542189D01*
X51344008Y35503068D01*
X51344005Y35503066D01*
X51344003Y35503066D01*
X51254499Y35457461D01*
X51133567Y35395843D01*
X50942490Y35257017D01*
X50775483Y35090010D01*
X50667947Y34942000D01*
X50636657Y34898933D01*
X50529433Y34688496D01*
X50456446Y34463868D01*
X50419500Y34230597D01*
X49449114Y34230597D01*
X49363343Y34398933D01*
X49224517Y34590010D01*
X49057510Y34757017D01*
X48866433Y34895843D01*
X48655992Y35003068D01*
X48431368Y35076053D01*
X48255842Y35103853D01*
X48234757Y35107193D01*
X48171622Y35137122D01*
X48134691Y35196434D01*
X48135689Y35266296D01*
X48166474Y35317347D01*
X48314114Y35464987D01*
X48314117Y35464990D01*
X48452943Y35656067D01*
X48508626Y35765351D01*
X48560166Y35866503D01*
X48562201Y35872764D01*
X48629761Y36080692D01*
X48633153Y36091131D01*
X48670100Y36324402D01*
X48670100Y36560597D01*
X48633153Y36793868D01*
X48590869Y36924003D01*
X48560168Y37018492D01*
X48452943Y37228933D01*
X48314117Y37420010D01*
X48259630Y37474497D01*
X49539500Y37474497D01*
X49539500Y37238302D01*
X49576446Y37005031D01*
X49649433Y36780403D01*
X49756657Y36569966D01*
X49815322Y36489222D01*
X49895483Y36378890D01*
X49895485Y36378888D01*
X49895485Y36378887D01*
X50062487Y36211885D01*
X50253566Y36073057D01*
X50464003Y35965833D01*
X50688631Y35892846D01*
X50921903Y35855900D01*
X50921908Y35855900D01*
X51158097Y35855900D01*
X51391368Y35892846D01*
X51615996Y35965833D01*
X51826433Y36073057D01*
X51849622Y36089905D01*
X52017510Y36211883D01*
X52184517Y36378890D01*
X52323343Y36569967D01*
X52388626Y36698092D01*
X52430566Y36780403D01*
X52431278Y36782592D01*
X52503553Y37005032D01*
X52505685Y37018492D01*
X52540500Y37238302D01*
X52540500Y37474497D01*
X52503553Y37707768D01*
X52498111Y37724517D01*
X52430568Y37932392D01*
X52323343Y38142833D01*
X52184517Y38333910D01*
X52017510Y38500917D01*
X51826433Y38639743D01*
X51615992Y38746968D01*
X51391368Y38819953D01*
X51158097Y38856900D01*
X51158092Y38856900D01*
X50921908Y38856900D01*
X50921903Y38856900D01*
X50688631Y38819953D01*
X50653897Y38808667D01*
X50464008Y38746968D01*
X50464005Y38746966D01*
X50464003Y38746966D01*
X50412395Y38720670D01*
X50253567Y38639743D01*
X50062490Y38500917D01*
X49895483Y38333910D01*
X49801485Y38204533D01*
X49756657Y38142833D01*
X49649433Y37932396D01*
X49576446Y37707768D01*
X49539500Y37474497D01*
X48259630Y37474497D01*
X48147110Y37587017D01*
X47956033Y37725843D01*
X47745592Y37833068D01*
X47520968Y37906053D01*
X47496130Y37909987D01*
X47287697Y37943000D01*
X47287692Y37943000D01*
X47051508Y37943000D01*
X47051503Y37943000D01*
X46818231Y37906053D01*
X46714012Y37872189D01*
X46593608Y37833068D01*
X46593605Y37833066D01*
X46593603Y37833066D01*
X46489093Y37779815D01*
X46408762Y37738884D01*
X46378826Y37723631D01*
X46378052Y37725149D01*
X46317730Y37708842D01*
X46251131Y37729967D01*
X46232728Y37745127D01*
X44280337Y39697519D01*
X44246852Y39758842D01*
X44251836Y39828534D01*
X44293708Y39884467D01*
X44359172Y39908884D01*
X44368018Y39909200D01*
X44384997Y39909200D01*
X44618268Y39946146D01*
X44842896Y40019133D01*
X45053333Y40126357D01*
X45059052Y40130512D01*
X45244410Y40265183D01*
X45411417Y40432190D01*
X45550243Y40623267D01*
X45609526Y40739617D01*
X45657466Y40833703D01*
X45673087Y40881777D01*
X45709714Y40994503D01*
X45730453Y41058331D01*
X45767400Y41291602D01*
X45767400Y41424700D01*
X45787085Y41491739D01*
X45839889Y41537494D01*
X45891400Y41548700D01*
X65245381Y41548700D01*
X65312420Y41529015D01*
G37*
G04 #@! TD.AperFunction*
G04 #@! TA.AperFunction,Conductor*
G36*
X63526226Y25787861D02*
G01*
X63548315Y25786282D01*
X63559098Y25778209D01*
X63572020Y25774415D01*
X63586519Y25757681D01*
X63604248Y25744410D01*
X63608955Y25731789D01*
X63617775Y25721611D01*
X63620926Y25699693D01*
X63628665Y25678946D01*
X63625802Y25665785D01*
X63627719Y25652453D01*
X63618519Y25632309D01*
X63613813Y25610673D01*
X63600544Y25592947D01*
X63598694Y25588897D01*
X63592662Y25582419D01*
X63556988Y25546745D01*
X63556985Y25546741D01*
X63480328Y25432017D01*
X63480321Y25432004D01*
X63427521Y25304532D01*
X63427518Y25304522D01*
X63400600Y25169195D01*
X63400600Y24908319D01*
X63380915Y24841280D01*
X63364281Y24820638D01*
X58190323Y19646680D01*
X58129000Y19613195D01*
X58064325Y19616430D01*
X58044868Y19622753D01*
X57983637Y19632451D01*
X57811597Y19659700D01*
X57811592Y19659700D01*
X57575408Y19659700D01*
X57575403Y19659700D01*
X57342131Y19622753D01*
X57263368Y19597161D01*
X57117508Y19549768D01*
X57117505Y19549766D01*
X57117503Y19549766D01*
X57038438Y19509480D01*
X56907067Y19442543D01*
X56715990Y19303717D01*
X56548983Y19136710D01*
X56410157Y18945633D01*
X56302933Y18735196D01*
X56229946Y18510568D01*
X56193000Y18277297D01*
X56193000Y18041102D01*
X56229946Y17807831D01*
X56302933Y17583203D01*
X56410157Y17372766D01*
X56489362Y17263750D01*
X56548983Y17181690D01*
X56548985Y17181688D01*
X56548985Y17181687D01*
X56715987Y17014685D01*
X56907066Y16875857D01*
X57117503Y16768633D01*
X57342131Y16695646D01*
X57575403Y16658700D01*
X57575408Y16658700D01*
X57811597Y16658700D01*
X58044868Y16695646D01*
X58269496Y16768633D01*
X58479933Y16875857D01*
X58484706Y16879325D01*
X58671010Y17014683D01*
X58838017Y17181690D01*
X58976843Y17372767D01*
X59051608Y17519502D01*
X59084066Y17583203D01*
X59089010Y17598417D01*
X59146429Y17775135D01*
X59157053Y17807831D01*
X59194000Y18041102D01*
X59194000Y18277297D01*
X59157054Y18510560D01*
X59157053Y18510568D01*
X59150730Y18530024D01*
X59148734Y18599861D01*
X59180980Y18656023D01*
X64645211Y24120253D01*
X64645212Y24120254D01*
X64721877Y24234992D01*
X64777011Y24368099D01*
X64778458Y24367499D01*
X64812564Y24419537D01*
X64876377Y24447991D01*
X64892923Y24449100D01*
X67823179Y24449100D01*
X67890218Y24429415D01*
X67935973Y24376611D01*
X67945917Y24307453D01*
X67916892Y24243897D01*
X67879474Y24214615D01*
X67793567Y24170843D01*
X67602490Y24032017D01*
X67435483Y23865010D01*
X67315958Y23700498D01*
X67296657Y23673933D01*
X67189433Y23463496D01*
X67116446Y23238868D01*
X67079500Y23005597D01*
X67079500Y22769402D01*
X67116446Y22536131D01*
X67189433Y22311503D01*
X67296657Y22101066D01*
X67366014Y22005606D01*
X67435483Y21909990D01*
X67435485Y21909988D01*
X67435485Y21909987D01*
X67602487Y21742985D01*
X67793566Y21604157D01*
X68004003Y21496933D01*
X68228631Y21423946D01*
X68461903Y21387000D01*
X68461908Y21387000D01*
X68698097Y21387000D01*
X68931368Y21423946D01*
X69155996Y21496933D01*
X69366433Y21604157D01*
X69557510Y21742983D01*
X69724517Y21909990D01*
X69863343Y22101067D01*
X69914002Y22200491D01*
X69970566Y22311503D01*
X69971112Y22313181D01*
X70043553Y22536132D01*
X70080500Y22769402D01*
X70080500Y23005597D01*
X70056800Y23155228D01*
X70043553Y23238868D01*
X70029109Y23283319D01*
X70027113Y23353158D01*
X70063192Y23412992D01*
X70125892Y23443821D01*
X70195307Y23435859D01*
X70221348Y23420907D01*
X70244770Y23403374D01*
X70244772Y23403373D01*
X70244774Y23403372D01*
X70372886Y23355588D01*
X70372889Y23355587D01*
X70429498Y23349500D01*
X70429515Y23349500D01*
X70908480Y23349500D01*
X70975519Y23329815D01*
X70996161Y23313181D01*
X73357086Y20952258D01*
X73454658Y20854686D01*
X73454660Y20854684D01*
X73454662Y20854682D01*
X73569386Y20778026D01*
X73569392Y20778022D01*
X73595298Y20767292D01*
X73620846Y20746703D01*
X73647110Y20727042D01*
X73647912Y20724891D01*
X73649701Y20723450D01*
X73660063Y20692311D01*
X73671527Y20661578D01*
X73671038Y20659333D01*
X73671764Y20657155D01*
X73663649Y20625366D01*
X73656675Y20593305D01*
X73654839Y20590853D01*
X73654483Y20589456D01*
X73635524Y20565051D01*
X73476553Y20406080D01*
X73415230Y20372595D01*
X73345538Y20377579D01*
X73301191Y20406080D01*
X73276598Y20430673D01*
X73235065Y20472206D01*
X73132291Y20517585D01*
X73107165Y20520500D01*
X70617436Y20520499D01*
X70617422Y20520497D01*
X70617417Y20520497D01*
X70592312Y20517586D01*
X70592310Y20517585D01*
X70592309Y20517585D01*
X70505973Y20479464D01*
X70489535Y20472206D01*
X70410094Y20392765D01*
X70364715Y20289993D01*
X70364715Y20289991D01*
X70361800Y20264868D01*
X70361800Y20059220D01*
X70342115Y19992181D01*
X70289311Y19946426D01*
X70220153Y19936482D01*
X70156597Y19965507D01*
X70148031Y19974134D01*
X70147962Y19974065D01*
X70062807Y20059220D01*
X69977510Y20144517D01*
X69786433Y20283343D01*
X69575992Y20390568D01*
X69351368Y20463553D01*
X69118097Y20500500D01*
X69118092Y20500500D01*
X68881908Y20500500D01*
X68881903Y20500500D01*
X68648631Y20463553D01*
X68606997Y20450025D01*
X68424008Y20390568D01*
X68424005Y20390566D01*
X68424003Y20390566D01*
X68373333Y20364748D01*
X68213567Y20283343D01*
X68022490Y20144517D01*
X67855483Y19977510D01*
X67778518Y19871577D01*
X67716657Y19786433D01*
X67609433Y19575996D01*
X67536446Y19351368D01*
X67499500Y19118097D01*
X67499500Y18881902D01*
X67536446Y18648631D01*
X67609433Y18424003D01*
X67716657Y18213566D01*
X67773747Y18134990D01*
X67855483Y18022490D01*
X67855485Y18022488D01*
X67855485Y18022487D01*
X68022487Y17855485D01*
X68213566Y17716657D01*
X68424003Y17609433D01*
X68648631Y17536446D01*
X68881903Y17499500D01*
X68881908Y17499500D01*
X69118097Y17499500D01*
X69351368Y17536446D01*
X69575996Y17609433D01*
X69786433Y17716657D01*
X69794924Y17722826D01*
X69977510Y17855483D01*
X70144517Y18022490D01*
X70147962Y18025935D01*
X70149002Y18024894D01*
X70202005Y18059501D01*
X70271873Y18060007D01*
X70330923Y18022658D01*
X70360407Y17959314D01*
X70361800Y17940781D01*
X70361800Y17775144D01*
X70361802Y17775117D01*
X70364713Y17750012D01*
X70364715Y17750008D01*
X70410093Y17647235D01*
X70489534Y17567794D01*
X70592307Y17522415D01*
X70617434Y17519500D01*
X70617435Y17519500D01*
X73107156Y17519500D01*
X73107182Y17519502D01*
X73132287Y17522413D01*
X73132291Y17522415D01*
X73235064Y17567793D01*
X73314505Y17647234D01*
X73314506Y17647235D01*
X73347883Y17722826D01*
X73359884Y17750006D01*
X73359885Y17750009D01*
X73362800Y17775135D01*
X73362800Y18195500D01*
X73365350Y18204185D01*
X73364062Y18213147D01*
X73375040Y18237187D01*
X73382485Y18262539D01*
X73389325Y18268466D01*
X73393087Y18276703D01*
X73415321Y18290992D01*
X73435289Y18308294D01*
X73445803Y18310581D01*
X73451865Y18314477D01*
X73486800Y18319500D01*
X73539611Y18319500D01*
X73606650Y18299815D01*
X73627292Y18283181D01*
X73634987Y18275485D01*
X73826066Y18136657D01*
X74036503Y18029433D01*
X74261131Y17956446D01*
X74494403Y17919500D01*
X74494408Y17919500D01*
X74730597Y17919500D01*
X74963868Y17956446D01*
X75188496Y18029433D01*
X75398933Y18136657D01*
X75410885Y18145341D01*
X75590010Y18275483D01*
X75757017Y18442490D01*
X75895843Y18633567D01*
X75961543Y18762511D01*
X76003066Y18844003D01*
X76015381Y18881902D01*
X76076053Y19068632D01*
X76077210Y19075937D01*
X76113000Y19301902D01*
X76113000Y19538097D01*
X76076053Y19771368D01*
X76071158Y19786433D01*
X76003068Y19995992D01*
X75895843Y20206433D01*
X75757017Y20397510D01*
X75667908Y20486619D01*
X75634423Y20547942D01*
X75639407Y20617634D01*
X75681279Y20673567D01*
X75746743Y20697984D01*
X75755589Y20698300D01*
X76801181Y20698300D01*
X76868220Y20678615D01*
X76888862Y20661981D01*
X77280477Y20270366D01*
X77313962Y20209043D01*
X77308978Y20139351D01*
X77280477Y20095004D01*
X77275483Y20090010D01*
X77193747Y19977510D01*
X77136657Y19898933D01*
X77029433Y19688496D01*
X76956446Y19463868D01*
X76919500Y19230597D01*
X76919500Y18994402D01*
X76956446Y18761131D01*
X77029433Y18536503D01*
X77136657Y18326066D01*
X77195812Y18244647D01*
X77275483Y18134990D01*
X77275485Y18134988D01*
X77275485Y18134987D01*
X77442487Y17967985D01*
X77633566Y17829157D01*
X77844003Y17721933D01*
X78068631Y17648946D01*
X78301903Y17612000D01*
X78340381Y17612000D01*
X78407420Y17592315D01*
X78453175Y17539511D01*
X78463119Y17470353D01*
X78434094Y17406797D01*
X78428062Y17400319D01*
X76468462Y15440719D01*
X76407139Y15407234D01*
X76380781Y15404400D01*
X55825789Y15404400D01*
X55758750Y15424085D01*
X55712995Y15476889D01*
X55703051Y15546047D01*
X55732076Y15609603D01*
X55738108Y15616081D01*
X55750114Y15628087D01*
X55750117Y15628090D01*
X55888943Y15819167D01*
X55946443Y15932018D01*
X55996166Y16029603D01*
X56002632Y16049501D01*
X56058846Y16222511D01*
X56069153Y16254231D01*
X56106100Y16487502D01*
X56106100Y16723697D01*
X56069153Y16956968D01*
X56050400Y17014683D01*
X55996168Y17181592D01*
X55888943Y17392033D01*
X55750117Y17583110D01*
X55583110Y17750117D01*
X55392033Y17888943D01*
X55181592Y17996168D01*
X54956968Y18069153D01*
X54723697Y18106100D01*
X54723692Y18106100D01*
X54487508Y18106100D01*
X54487504Y18106100D01*
X54443270Y18099093D01*
X54421554Y18095654D01*
X54352263Y18104608D01*
X54298810Y18149603D01*
X54278170Y18216355D01*
X54291672Y18274422D01*
X54308930Y18308294D01*
X54310568Y18311508D01*
X54383553Y18536132D01*
X54394032Y18602292D01*
X54420500Y18769402D01*
X54420500Y19005597D01*
X54383554Y19238860D01*
X54383553Y19238868D01*
X54377230Y19258324D01*
X54375234Y19328161D01*
X54407480Y19384323D01*
X57028763Y22005606D01*
X57090086Y22039091D01*
X57159778Y22034107D01*
X57215711Y21992235D01*
X57216761Y21990812D01*
X57275482Y21909990D01*
X57442487Y21742985D01*
X57633566Y21604157D01*
X57844003Y21496933D01*
X58068631Y21423946D01*
X58301903Y21387000D01*
X58301908Y21387000D01*
X58538097Y21387000D01*
X58771368Y21423946D01*
X58995996Y21496933D01*
X59206433Y21604157D01*
X59397510Y21742983D01*
X59564517Y21909990D01*
X59703343Y22101067D01*
X59754002Y22200491D01*
X59810566Y22311503D01*
X59811112Y22313181D01*
X59883553Y22536132D01*
X59920500Y22769402D01*
X59920500Y23005597D01*
X59883553Y23238868D01*
X59869217Y23282989D01*
X59810568Y23463492D01*
X59703343Y23673933D01*
X59564517Y23865010D01*
X59397510Y24032017D01*
X59206433Y24170843D01*
X58995992Y24278068D01*
X58771368Y24351053D01*
X58768792Y24351461D01*
X58538097Y24388000D01*
X58538092Y24388000D01*
X58301908Y24388000D01*
X58301903Y24388000D01*
X58068631Y24351053D01*
X57980272Y24322343D01*
X57844008Y24278068D01*
X57844005Y24278066D01*
X57844003Y24278066D01*
X57732991Y24221502D01*
X57633567Y24170843D01*
X57442490Y24032017D01*
X57275483Y23865010D01*
X57155958Y23700498D01*
X57136657Y23673933D01*
X57127368Y23655703D01*
X57079392Y23604908D01*
X57016884Y23588000D01*
X56851006Y23588000D01*
X56832937Y23584405D01*
X56742591Y23566434D01*
X56742589Y23566434D01*
X56715677Y23561082D01*
X56715672Y23561080D01*
X56715671Y23561080D01*
X56715669Y23561079D01*
X56588190Y23508276D01*
X56473454Y23431612D01*
X56473453Y23431611D01*
X53416823Y20374980D01*
X53355500Y20341495D01*
X53290825Y20344730D01*
X53271368Y20351053D01*
X53212533Y20360371D01*
X53038097Y20388000D01*
X53038092Y20388000D01*
X53009019Y20388000D01*
X52941980Y20407685D01*
X52896225Y20460489D01*
X52886281Y20529647D01*
X52915306Y20593203D01*
X52921338Y20599681D01*
X58079438Y25757781D01*
X58140761Y25791266D01*
X58167119Y25794100D01*
X63504981Y25794100D01*
X63526226Y25787861D01*
G37*
G04 #@! TD.AperFunction*
G04 #@! TA.AperFunction,Conductor*
G36*
X92330927Y33455211D02*
G01*
X92346134Y33455863D01*
X92363770Y33445567D01*
X92383362Y33439815D01*
X92394259Y33427769D01*
X92406475Y33420639D01*
X92426809Y33391792D01*
X92430475Y33384596D01*
X92451626Y33355485D01*
X92546172Y33225354D01*
X92546174Y33225352D01*
X92546174Y33225351D01*
X92685351Y33086174D01*
X92844594Y32970476D01*
X93021213Y32880485D01*
X93072009Y32832511D01*
X93088804Y32764690D01*
X93066267Y32698555D01*
X93021213Y32659515D01*
X93000472Y32648947D01*
X92844595Y32569524D01*
X92685354Y32453828D01*
X92546172Y32314646D01*
X92444953Y32175331D01*
X92430476Y32155405D01*
X92341117Y31980029D01*
X92280290Y31792826D01*
X92249500Y31598422D01*
X92249500Y31401577D01*
X92280290Y31207173D01*
X92341117Y31019970D01*
X92430476Y30844594D01*
X92474934Y30783404D01*
X92546172Y30685354D01*
X92546174Y30685352D01*
X92546174Y30685351D01*
X92685351Y30546174D01*
X92844594Y30430476D01*
X93019970Y30341117D01*
X93207173Y30280290D01*
X93401578Y30249500D01*
X93401583Y30249500D01*
X93598422Y30249500D01*
X93792826Y30280290D01*
X93980029Y30341117D01*
X94155405Y30430476D01*
X94188701Y30454667D01*
X94314646Y30546172D01*
X94453828Y30685354D01*
X94569524Y30844595D01*
X94653257Y31008931D01*
X94658884Y31019974D01*
X94665070Y31039012D01*
X94704508Y31096687D01*
X94768867Y31123884D01*
X94837713Y31111968D01*
X94889188Y31064723D01*
X94907000Y31000692D01*
X94907000Y26919307D01*
X94887315Y26852268D01*
X94834511Y26806513D01*
X94765353Y26796569D01*
X94701797Y26825594D01*
X94665070Y26880986D01*
X94658884Y26900025D01*
X94569524Y27075405D01*
X94453828Y27234646D01*
X94314646Y27373828D01*
X94155405Y27489524D01*
X93980025Y27578884D01*
X93792826Y27639709D01*
X93598422Y27670500D01*
X93598417Y27670500D01*
X93472026Y27670500D01*
X93447834Y27672883D01*
X93308996Y27700500D01*
X93308994Y27700500D01*
X93308993Y27700500D01*
X90166804Y27700500D01*
X90099765Y27720185D01*
X90054010Y27772989D01*
X90051450Y27779010D01*
X90034362Y27822339D01*
X90034361Y27822341D01*
X90034361Y27822342D01*
X89942922Y27942922D01*
X89822342Y28034361D01*
X89681564Y28089877D01*
X89593102Y28100500D01*
X88406898Y28100500D01*
X88318436Y28089877D01*
X88177658Y28034361D01*
X88177657Y28034360D01*
X88177656Y28034360D01*
X88057077Y27942922D01*
X87965639Y27822343D01*
X87940349Y27758211D01*
X87912826Y27688417D01*
X87910122Y27681561D01*
X87908840Y27670882D01*
X87899500Y27593102D01*
X87899500Y26406898D01*
X87901356Y26391445D01*
X87910122Y26318438D01*
X87965639Y26177656D01*
X88057077Y26057077D01*
X88177656Y25965639D01*
X88318438Y25910122D01*
X88367853Y25904188D01*
X88406898Y25899500D01*
X88406903Y25899500D01*
X89593097Y25899500D01*
X89593102Y25899500D01*
X89635926Y25904642D01*
X89681561Y25910122D01*
X89692202Y25914318D01*
X89752881Y25938247D01*
X89822343Y25965639D01*
X89942922Y26057077D01*
X90034361Y26177658D01*
X90034362Y26177660D01*
X90051450Y26220990D01*
X90094356Y26276134D01*
X90160264Y26299327D01*
X90166804Y26299500D01*
X92147092Y26299500D01*
X92214131Y26279815D01*
X92259886Y26227011D01*
X92269563Y26194903D01*
X92272296Y26177656D01*
X92280292Y26127167D01*
X92341117Y25939970D01*
X92430476Y25764594D01*
X92492704Y25678946D01*
X92546172Y25605354D01*
X92546174Y25605352D01*
X92546174Y25605351D01*
X92685351Y25466174D01*
X92844594Y25350476D01*
X93019970Y25261117D01*
X93207173Y25200290D01*
X93401578Y25169500D01*
X93401583Y25169500D01*
X93598422Y25169500D01*
X93792826Y25200290D01*
X93980029Y25261117D01*
X94155405Y25350476D01*
X94163154Y25356106D01*
X94314646Y25466172D01*
X94453828Y25605354D01*
X94569524Y25764595D01*
X94634900Y25892903D01*
X94658884Y25939974D01*
X94665070Y25959012D01*
X94704508Y26016687D01*
X94768867Y26043884D01*
X94837713Y26031968D01*
X94889188Y25984723D01*
X94907000Y25920692D01*
X94907000Y23778119D01*
X94887315Y23711080D01*
X94870681Y23690438D01*
X90292181Y19111938D01*
X90230858Y19078453D01*
X90161166Y19083437D01*
X90105233Y19125309D01*
X90080816Y19190773D01*
X90080500Y19199619D01*
X90080500Y19230597D01*
X90043553Y19463868D01*
X90012706Y19558804D01*
X89970568Y19688492D01*
X89863343Y19898933D01*
X89724517Y20090010D01*
X89557510Y20257017D01*
X89366433Y20395843D01*
X89155992Y20503068D01*
X88931368Y20576053D01*
X88698097Y20613000D01*
X88698092Y20613000D01*
X88461908Y20613000D01*
X88461903Y20613000D01*
X88228631Y20576053D01*
X88124412Y20542189D01*
X88004008Y20503068D01*
X88004005Y20503066D01*
X88004003Y20503066D01*
X87816808Y20407685D01*
X87793567Y20395843D01*
X87783087Y20388229D01*
X87717285Y20364748D01*
X87649230Y20380570D01*
X87600533Y20430673D01*
X87586200Y20488545D01*
X87586200Y30501183D01*
X87605885Y30568222D01*
X87653901Y30611666D01*
X87672130Y30620955D01*
X87672133Y30620957D01*
X87863210Y30759783D01*
X88030217Y30926790D01*
X88169043Y31117867D01*
X88228939Y31235419D01*
X88276266Y31328303D01*
X88283222Y31349709D01*
X88335666Y31511116D01*
X88349253Y31552931D01*
X88386200Y31786202D01*
X88386200Y32022397D01*
X88349253Y32255668D01*
X88338651Y32288296D01*
X88276268Y32480292D01*
X88169043Y32690733D01*
X88030217Y32881810D01*
X87863210Y33048817D01*
X87672133Y33187643D01*
X87598785Y33225015D01*
X87547990Y33272990D01*
X87531195Y33340811D01*
X87553732Y33406945D01*
X87608447Y33450397D01*
X87655081Y33459500D01*
X92316323Y33459500D01*
X92330927Y33455211D01*
G37*
G04 #@! TD.AperFunction*
G04 #@! TA.AperFunction,Conductor*
G36*
X70492122Y48062555D02*
G01*
X70522109Y48056032D01*
X70527124Y48052277D01*
X70529721Y48051515D01*
X70550363Y48034881D01*
X70631586Y47953658D01*
X70664402Y47920842D01*
X70729159Y47856084D01*
X70843882Y47779428D01*
X70843895Y47779421D01*
X70916858Y47749200D01*
X70916859Y47749200D01*
X70971368Y47726621D01*
X70971375Y47726619D01*
X70989574Y47722999D01*
X70989573Y47722998D01*
X71106702Y47699700D01*
X71106707Y47699700D01*
X78142296Y47699700D01*
X78277622Y47726618D01*
X78277632Y47726621D01*
X78340739Y47752761D01*
X78388191Y47762200D01*
X79340811Y47762200D01*
X79407850Y47742515D01*
X79453605Y47689711D01*
X79463549Y47620553D01*
X79434524Y47556997D01*
X79428492Y47550519D01*
X79355483Y47477510D01*
X79249179Y47331195D01*
X79216657Y47286433D01*
X79109433Y47075996D01*
X79036446Y46851368D01*
X78999500Y46618097D01*
X78999500Y46381902D01*
X79036446Y46148631D01*
X79109433Y45924003D01*
X79216657Y45713566D01*
X79269754Y45640485D01*
X79355483Y45522490D01*
X79355485Y45522488D01*
X79355485Y45522487D01*
X79522487Y45355485D01*
X79713566Y45216657D01*
X79814979Y45164985D01*
X79865775Y45117010D01*
X79882570Y45049189D01*
X79860033Y44983054D01*
X79805317Y44939603D01*
X79758684Y44930500D01*
X79735838Y44930500D01*
X79510339Y44894784D01*
X79409592Y44862049D01*
X79293201Y44824231D01*
X79293198Y44824229D01*
X79293196Y44824229D01*
X79185884Y44769550D01*
X79089772Y44720579D01*
X78905063Y44586379D01*
X78743621Y44424937D01*
X78670967Y44324938D01*
X78609421Y44240228D01*
X78505770Y44036803D01*
X78435215Y43819660D01*
X78399500Y43594162D01*
X78399500Y43365837D01*
X78435215Y43140339D01*
X78505770Y42923196D01*
X78609421Y42719771D01*
X78743622Y42535061D01*
X78905061Y42373622D01*
X79089771Y42239421D01*
X79243712Y42160985D01*
X79294508Y42113011D01*
X79311303Y42045190D01*
X79288766Y41979055D01*
X79234051Y41935603D01*
X79187417Y41926500D01*
X72998800Y41926500D01*
X72931761Y41946185D01*
X72886006Y41998989D01*
X72876062Y42068147D01*
X72905087Y42131703D01*
X72925912Y42150816D01*
X73094937Y42273621D01*
X73256379Y42435063D01*
X73390579Y42619772D01*
X73446500Y42729524D01*
X73494229Y42823196D01*
X73494825Y42825028D01*
X73540834Y42966630D01*
X73564784Y43040339D01*
X73600500Y43265837D01*
X73600500Y43494162D01*
X73564784Y43719660D01*
X73503857Y43907173D01*
X73494231Y43936799D01*
X73390579Y44140228D01*
X73256379Y44324937D01*
X73094937Y44486379D01*
X72910228Y44620579D01*
X72706799Y44724231D01*
X72489660Y44794784D01*
X72264162Y44830500D01*
X72264157Y44830500D01*
X72035843Y44830500D01*
X72035838Y44830500D01*
X71810339Y44794784D01*
X71718721Y44765015D01*
X71593201Y44724231D01*
X71593198Y44724229D01*
X71593196Y44724229D01*
X71485884Y44669550D01*
X71389772Y44620579D01*
X71205063Y44486379D01*
X71205061Y44486377D01*
X71043622Y44324938D01*
X70909421Y44140228D01*
X70805770Y43936803D01*
X70735215Y43719660D01*
X70699500Y43494162D01*
X70699500Y43265837D01*
X70735215Y43040339D01*
X70805770Y42823196D01*
X70909421Y42619771D01*
X71043622Y42435061D01*
X71205060Y42273623D01*
X71205063Y42273621D01*
X71374086Y42150817D01*
X71416751Y42095488D01*
X71422730Y42025874D01*
X71390124Y41964079D01*
X71329285Y41929722D01*
X71301200Y41926500D01*
X68509719Y41926500D01*
X68442680Y41946185D01*
X68422038Y41962819D01*
X65986145Y44398712D01*
X65986143Y44398714D01*
X65871411Y44475375D01*
X65871408Y44475376D01*
X65871407Y44475377D01*
X65807669Y44501777D01*
X65743928Y44528180D01*
X65699640Y44536989D01*
X65608596Y44555100D01*
X65608594Y44555100D01*
X65608593Y44555100D01*
X47730419Y44555100D01*
X47663380Y44574785D01*
X47642738Y44591419D01*
X47219509Y45014648D01*
X46768281Y45465874D01*
X46734797Y45527197D01*
X46739781Y45596888D01*
X46781653Y45652822D01*
X46847117Y45677239D01*
X46875361Y45676028D01*
X46916578Y45669500D01*
X46916583Y45669500D01*
X47113422Y45669500D01*
X47307826Y45700290D01*
X47495029Y45761117D01*
X47670405Y45850476D01*
X47829646Y45966172D01*
X47968828Y46105354D01*
X48084524Y46264595D01*
X48147397Y46387992D01*
X48174515Y46441213D01*
X48222489Y46492009D01*
X48290310Y46508804D01*
X48356445Y46486267D01*
X48395485Y46441213D01*
X48485476Y46264594D01*
X48542273Y46186421D01*
X48601172Y46105354D01*
X48601174Y46105352D01*
X48601174Y46105351D01*
X48740351Y45966174D01*
X48899594Y45850476D01*
X49074970Y45761117D01*
X49262173Y45700290D01*
X49456578Y45669500D01*
X49456583Y45669500D01*
X49653422Y45669500D01*
X49847826Y45700290D01*
X50035029Y45761117D01*
X50210405Y45850476D01*
X50369646Y45966172D01*
X50508828Y46105354D01*
X50624524Y46264595D01*
X50687397Y46387992D01*
X50714515Y46441213D01*
X50762489Y46492009D01*
X50830310Y46508804D01*
X50896445Y46486267D01*
X50935485Y46441213D01*
X51025476Y46264594D01*
X51082273Y46186421D01*
X51141172Y46105354D01*
X51141174Y46105352D01*
X51141174Y46105351D01*
X51280351Y45966174D01*
X51439594Y45850476D01*
X51614970Y45761117D01*
X51802173Y45700290D01*
X51996578Y45669500D01*
X51996583Y45669500D01*
X52193422Y45669500D01*
X52387826Y45700290D01*
X52575029Y45761117D01*
X52750405Y45850476D01*
X52909646Y45966172D01*
X53048828Y46105354D01*
X53164524Y46264595D01*
X53227397Y46387992D01*
X53254515Y46441213D01*
X53302489Y46492009D01*
X53370310Y46508804D01*
X53436445Y46486267D01*
X53475485Y46441213D01*
X53565476Y46264594D01*
X53622273Y46186421D01*
X53681172Y46105354D01*
X53681174Y46105352D01*
X53681174Y46105351D01*
X53820351Y45966174D01*
X53979594Y45850476D01*
X54154970Y45761117D01*
X54342173Y45700290D01*
X54536578Y45669500D01*
X54536583Y45669500D01*
X54733422Y45669500D01*
X54927826Y45700290D01*
X55115029Y45761117D01*
X55290405Y45850476D01*
X55449646Y45966172D01*
X55588828Y46105354D01*
X55704524Y46264595D01*
X55767397Y46387992D01*
X55794515Y46441213D01*
X55842489Y46492009D01*
X55910310Y46508804D01*
X55976445Y46486267D01*
X56015485Y46441213D01*
X56105476Y46264594D01*
X56162273Y46186421D01*
X56221172Y46105354D01*
X56221174Y46105352D01*
X56221174Y46105351D01*
X56360351Y45966174D01*
X56519594Y45850476D01*
X56694970Y45761117D01*
X56882173Y45700290D01*
X57076578Y45669500D01*
X57076583Y45669500D01*
X57273422Y45669500D01*
X57467826Y45700290D01*
X57655029Y45761117D01*
X57830405Y45850476D01*
X57989646Y45966172D01*
X58128828Y46105354D01*
X58244524Y46264595D01*
X58304298Y46381908D01*
X58333882Y46439970D01*
X58345448Y46475564D01*
X58394709Y46627174D01*
X58413435Y46745405D01*
X58425500Y46821577D01*
X58425500Y47018422D01*
X58394709Y47212826D01*
X58350791Y47347990D01*
X58333884Y47400025D01*
X58244524Y47575405D01*
X58128828Y47734646D01*
X58003955Y47859519D01*
X57970470Y47920842D01*
X57975454Y47990534D01*
X58017326Y48046467D01*
X58082790Y48070884D01*
X58091636Y48071200D01*
X70462682Y48071200D01*
X70492122Y48062555D01*
G37*
G04 #@! TD.AperFunction*
G04 #@! TA.AperFunction,Conductor*
G36*
X13120803Y63291915D02*
G01*
X13166558Y63239111D01*
X13176502Y63169953D01*
X13147477Y63106397D01*
X13141445Y63099919D01*
X13006172Y62964646D01*
X12906596Y62827592D01*
X12890476Y62805405D01*
X12801117Y62630029D01*
X12740290Y62442826D01*
X12709500Y62248422D01*
X12709500Y62051577D01*
X12740290Y61857173D01*
X12801117Y61669970D01*
X12890476Y61494594D01*
X12927367Y61443819D01*
X13006172Y61335354D01*
X13006174Y61335352D01*
X13006174Y61335351D01*
X13145351Y61196174D01*
X13304594Y61080476D01*
X13479970Y60991117D01*
X13667173Y60930290D01*
X13861578Y60899500D01*
X13861583Y60899500D01*
X14058422Y60899500D01*
X14252826Y60930290D01*
X14440029Y60991117D01*
X14615405Y61080476D01*
X14774646Y61196172D01*
X14913828Y61335354D01*
X15029524Y61494595D01*
X15091839Y61616896D01*
X15118882Y61669970D01*
X15130448Y61705564D01*
X15163895Y61808503D01*
X15179709Y61857173D01*
X15210500Y62051577D01*
X15210500Y62248422D01*
X15179709Y62442826D01*
X15140599Y62563192D01*
X15118884Y62630025D01*
X15029524Y62805405D01*
X14913828Y62964646D01*
X14778555Y63099919D01*
X14745070Y63161242D01*
X14750054Y63230934D01*
X14791926Y63286867D01*
X14857390Y63311284D01*
X14866236Y63311600D01*
X18133764Y63311600D01*
X18200803Y63291915D01*
X18246558Y63239111D01*
X18256502Y63169953D01*
X18227477Y63106397D01*
X18221445Y63099919D01*
X18086172Y62964646D01*
X17986596Y62827592D01*
X17970476Y62805405D01*
X17881117Y62630029D01*
X17820290Y62442826D01*
X17789500Y62248422D01*
X17789500Y62051577D01*
X17820290Y61857173D01*
X17881117Y61669970D01*
X17970476Y61494594D01*
X18007367Y61443819D01*
X18086172Y61335354D01*
X18086174Y61335352D01*
X18086174Y61335351D01*
X18225351Y61196174D01*
X18384594Y61080476D01*
X18559970Y60991117D01*
X18747173Y60930290D01*
X18941578Y60899500D01*
X18941583Y60899500D01*
X19138422Y60899500D01*
X19332826Y60930290D01*
X19520029Y60991117D01*
X19695405Y61080476D01*
X19854646Y61196172D01*
X19993828Y61335354D01*
X20109524Y61494595D01*
X20193122Y61658667D01*
X20199515Y61671213D01*
X20247489Y61722009D01*
X20315310Y61738804D01*
X20381445Y61716267D01*
X20420485Y61671213D01*
X20510476Y61494594D01*
X20547367Y61443819D01*
X20626172Y61335354D01*
X20626174Y61335352D01*
X20626174Y61335351D01*
X20765351Y61196174D01*
X20924594Y61080476D01*
X21099970Y60991117D01*
X21287173Y60930290D01*
X21481578Y60899500D01*
X21481583Y60899500D01*
X21678422Y60899500D01*
X21872826Y60930290D01*
X22060029Y60991117D01*
X22235405Y61080476D01*
X22394646Y61196172D01*
X22533828Y61335354D01*
X22649524Y61494595D01*
X22733122Y61658667D01*
X22739515Y61671213D01*
X22787489Y61722009D01*
X22855310Y61738804D01*
X22921445Y61716267D01*
X22960485Y61671213D01*
X23050476Y61494594D01*
X23087367Y61443819D01*
X23166172Y61335354D01*
X23166174Y61335352D01*
X23166174Y61335351D01*
X23305351Y61196174D01*
X23464594Y61080476D01*
X23639970Y60991117D01*
X23827173Y60930290D01*
X24021578Y60899500D01*
X24021583Y60899500D01*
X24218421Y60899500D01*
X24241224Y60903111D01*
X24310517Y60894154D01*
X24363967Y60849156D01*
X24384605Y60782404D01*
X24365878Y60715091D01*
X24348299Y60692956D01*
X23675662Y60020319D01*
X23614339Y59986834D01*
X23587981Y59984000D01*
X17133016Y59984000D01*
X17065977Y60003685D01*
X17022532Y60051703D01*
X17020064Y60056545D01*
X17013243Y60069933D01*
X16874417Y60261010D01*
X16707410Y60428017D01*
X16516333Y60566843D01*
X16305892Y60674068D01*
X16081268Y60747053D01*
X15847997Y60784000D01*
X15847992Y60784000D01*
X15611808Y60784000D01*
X15611803Y60784000D01*
X15378531Y60747053D01*
X15286596Y60717181D01*
X15153908Y60674068D01*
X15153905Y60674066D01*
X15153903Y60674066D01*
X15091375Y60642206D01*
X14943467Y60566843D01*
X14752390Y60428017D01*
X14585383Y60261010D01*
X14446557Y60069933D01*
X14339333Y59859496D01*
X14266346Y59634868D01*
X14229400Y59401597D01*
X14229400Y59165402D01*
X14266346Y58932131D01*
X14339333Y58707503D01*
X14446557Y58497066D01*
X14484301Y58445117D01*
X14585383Y58305990D01*
X14585385Y58305988D01*
X14585385Y58305987D01*
X14752387Y58138985D01*
X14943466Y58000157D01*
X15071374Y57934985D01*
X15122170Y57887010D01*
X15138965Y57819189D01*
X15116428Y57753054D01*
X15061712Y57709603D01*
X15015079Y57700500D01*
X5990519Y57700500D01*
X5923480Y57720185D01*
X5877725Y57772989D01*
X5867781Y57842147D01*
X5896806Y57905703D01*
X5902838Y57912181D01*
X11265938Y63275281D01*
X11327261Y63308766D01*
X11353619Y63311600D01*
X13053764Y63311600D01*
X13120803Y63291915D01*
G37*
G04 #@! TD.AperFunction*
M02*
