%TF.GenerationSoftware,KiCad,Pcbnew,9.0.4*%
%TF.CreationDate,2025-10-10T21:12:29+02:00*%
%TF.ProjectId,fotoaparat,666f746f-6170-4617-9261-742e6b696361,rev?*%
%TF.SameCoordinates,Original*%
%TF.FileFunction,Soldermask,Top*%
%TF.FilePolarity,Negative*%
%FSLAX46Y46*%
G04 Gerber Fmt 4.6, Leading zero omitted, Abs format (unit mm)*
G04 Created by KiCad (PCBNEW 9.0.4) date 2025-10-10 21:12:29*
%MOMM*%
%LPD*%
G01*
G04 APERTURE LIST*
G04 Aperture macros list*
%AMRoundRect*
0 Rectangle with rounded corners*
0 $1 Rounding radius*
0 $2 $3 $4 $5 $6 $7 $8 $9 X,Y pos of 4 corners*
0 Add a 4 corners polygon primitive as box body*
4,1,4,$2,$3,$4,$5,$6,$7,$8,$9,$2,$3,0*
0 Add four circle primitives for the rounded corners*
1,1,$1+$1,$2,$3*
1,1,$1+$1,$4,$5*
1,1,$1+$1,$6,$7*
1,1,$1+$1,$8,$9*
0 Add four rect primitives between the rounded corners*
20,1,$1+$1,$2,$3,$4,$5,0*
20,1,$1+$1,$4,$5,$6,$7,0*
20,1,$1+$1,$6,$7,$8,$9,0*
20,1,$1+$1,$8,$9,$2,$3,0*%
G04 Aperture macros list end*
%ADD10R,1.700000X1.700000*%
%ADD11C,1.700000*%
%ADD12RoundRect,0.250000X-0.475000X0.337500X-0.475000X-0.337500X0.475000X-0.337500X0.475000X0.337500X0*%
%ADD13RoundRect,0.250000X-0.550000X-0.850000X0.550000X-0.850000X0.550000X0.850000X-0.550000X0.850000X0*%
%ADD14RoundRect,0.250000X-0.350000X-0.450000X0.350000X-0.450000X0.350000X0.450000X-0.350000X0.450000X0*%
%ADD15C,1.575000*%
%ADD16RoundRect,0.250000X0.350000X0.450000X-0.350000X0.450000X-0.350000X-0.450000X0.350000X-0.450000X0*%
%ADD17C,3.200000*%
%ADD18RoundRect,0.162500X0.837500X0.162500X-0.837500X0.162500X-0.837500X-0.162500X0.837500X-0.162500X0*%
%ADD19R,1.380000X0.450000*%
%ADD20R,1.550000X1.425000*%
%ADD21R,1.300000X1.650000*%
%ADD22R,1.900000X1.800000*%
%ADD23R,1.900000X1.000000*%
%ADD24RoundRect,0.250000X-0.450000X0.350000X-0.450000X-0.350000X0.450000X-0.350000X0.450000X0.350000X0*%
%ADD25RoundRect,0.250000X-0.350000X0.275000X-0.350000X-0.275000X0.350000X-0.275000X0.350000X0.275000X0*%
%ADD26RoundRect,0.250000X-0.337500X-0.475000X0.337500X-0.475000X0.337500X0.475000X-0.337500X0.475000X0*%
%ADD27RoundRect,0.250000X0.475000X-0.337500X0.475000X0.337500X-0.475000X0.337500X-0.475000X-0.337500X0*%
%ADD28RoundRect,0.250000X0.450000X-0.325000X0.450000X0.325000X-0.450000X0.325000X-0.450000X-0.325000X0*%
%ADD29RoundRect,0.075000X-0.700000X-0.075000X0.700000X-0.075000X0.700000X0.075000X-0.700000X0.075000X0*%
%ADD30RoundRect,0.075000X-0.075000X-0.700000X0.075000X-0.700000X0.075000X0.700000X-0.075000X0.700000X0*%
%ADD31RoundRect,0.250000X0.450000X-0.350000X0.450000X0.350000X-0.450000X0.350000X-0.450000X-0.350000X0*%
%ADD32RoundRect,0.250000X0.337500X0.475000X-0.337500X0.475000X-0.337500X-0.475000X0.337500X-0.475000X0*%
%ADD33C,1.500000*%
%ADD34C,2.250000*%
%ADD35R,1.000000X2.500000*%
%ADD36R,1.192000X1.192000*%
%ADD37C,1.192000*%
%ADD38R,1.498600X0.990600*%
%ADD39R,1.498600X0.711200*%
%ADD40R,2.794000X1.498600*%
%ADD41RoundRect,0.102000X-0.750000X0.300000X-0.750000X-0.300000X0.750000X-0.300000X0.750000X0.300000X0*%
%ADD42RoundRect,0.102000X-0.750000X0.400000X-0.750000X-0.400000X0.750000X-0.400000X0.750000X0.400000X0*%
%ADD43R,0.330200X1.512799*%
G04 APERTURE END LIST*
D10*
%TO.C,Free Pins*%
X192025002Y-68806399D03*
D11*
X189485002Y-68806399D03*
X186945002Y-68806399D03*
X184405002Y-68806399D03*
X181865002Y-68806399D03*
X179325002Y-68806399D03*
X176785002Y-68806399D03*
X174245002Y-68806399D03*
X171705002Y-68806399D03*
X169165002Y-68806399D03*
X166625002Y-68806399D03*
%TD*%
D12*
%TO.C,C13*%
X149000000Y-70446949D03*
X149000000Y-72521949D03*
%TD*%
%TO.C,C8*%
X147000000Y-70446949D03*
X147000000Y-72521949D03*
%TD*%
%TO.C,C20*%
X145000000Y-70446949D03*
X145000000Y-72521949D03*
%TD*%
%TO.C,C19*%
X143000000Y-70446949D03*
X143000000Y-72521949D03*
%TD*%
%TO.C,C7*%
X141000000Y-70446949D03*
X141000000Y-72521949D03*
%TD*%
D13*
%TO.C,BZ1*%
X164800000Y-90000000D03*
X171200000Y-90000000D03*
%TD*%
D14*
%TO.C,R2*%
X144000000Y-126969000D03*
X146000000Y-126969000D03*
%TD*%
%TO.C,R1*%
X135000000Y-126969000D03*
X137000000Y-126969000D03*
%TD*%
D11*
%TO.C,TH1*%
X188750002Y-109646399D03*
D10*
X188750002Y-107106399D03*
%TD*%
D15*
%TO.C,S2*%
X160850000Y-131000000D03*
X156350000Y-131000000D03*
X160850000Y-137500000D03*
X156350000Y-137500000D03*
%TD*%
%TO.C,S4*%
X142250000Y-131000000D03*
X137750000Y-131000000D03*
X142250000Y-137500000D03*
X137750000Y-137500000D03*
%TD*%
%TO.C,S3*%
X151550000Y-131000000D03*
X147050000Y-131000000D03*
X151550000Y-137500000D03*
X147050000Y-137500000D03*
%TD*%
D14*
%TO.C,R3*%
X153000000Y-126969000D03*
X155000000Y-126969000D03*
%TD*%
D16*
%TO.C,R24*%
X175350002Y-110406399D03*
X177350002Y-110406399D03*
%TD*%
D17*
%TO.C,H2*%
X86350002Y-139406399D03*
%TD*%
D12*
%TO.C,C6*%
X168350002Y-121368899D03*
X168350002Y-123443899D03*
%TD*%
D18*
%TO.C,IC1*%
X172710000Y-116356399D03*
X172710000Y-115406399D03*
X172710000Y-114456399D03*
X169290000Y-114456399D03*
X169290000Y-116356399D03*
%TD*%
D12*
%TO.C,C1*%
X190350002Y-98368899D03*
X190350002Y-100443899D03*
%TD*%
D16*
%TO.C,R19*%
X120000000Y-123000000D03*
X118000000Y-123000000D03*
%TD*%
D19*
%TO.C,USB*%
X197340000Y-83356399D03*
X197340000Y-82706399D03*
X197340000Y-82056399D03*
X197340000Y-81406399D03*
X197340000Y-80756399D03*
D20*
X197425000Y-84543399D03*
X197425000Y-79569399D03*
D21*
X200000000Y-85431399D03*
D22*
X200000000Y-83206399D03*
D23*
X200000000Y-80506399D03*
D21*
X200000000Y-78681399D03*
%TD*%
D24*
%TO.C,R26*%
X192350002Y-119000000D03*
X192350002Y-121000000D03*
%TD*%
D25*
%TO.C,FB1*%
X146350002Y-92611399D03*
X146350002Y-94911399D03*
%TD*%
D16*
%TO.C,R17*%
X116000000Y-127000000D03*
X114000000Y-127000000D03*
%TD*%
D26*
%TO.C,C21*%
X155275002Y-92761399D03*
X157350002Y-92761399D03*
%TD*%
D16*
%TO.C,R18*%
X124000000Y-123000000D03*
X122000000Y-123000000D03*
%TD*%
D27*
%TO.C,C5*%
X181350002Y-123443899D03*
X181350002Y-121368899D03*
%TD*%
D17*
%TO.C,H3*%
X86350002Y-64406399D03*
%TD*%
D28*
%TO.C,D1*%
X188350002Y-90431399D03*
X188350002Y-88381399D03*
%TD*%
D27*
%TO.C,C18*%
X133800000Y-89437500D03*
X133800000Y-87362500D03*
%TD*%
D24*
%TO.C,R5*%
X186350002Y-92406399D03*
X186350002Y-94406399D03*
%TD*%
D16*
%TO.C,R21*%
X124000000Y-110000000D03*
X122000000Y-110000000D03*
%TD*%
D29*
%TO.C,U1*%
X146675002Y-80511399D03*
X146675002Y-81011399D03*
X146675002Y-81511399D03*
X146675002Y-82011399D03*
X146675002Y-82511399D03*
X146675002Y-83011399D03*
X146675002Y-83511399D03*
X146675002Y-84011399D03*
X146675002Y-84511399D03*
X146675002Y-85011399D03*
X146675002Y-85511399D03*
X146675002Y-86011399D03*
X146675002Y-86511399D03*
X146675002Y-87011399D03*
X146675002Y-87511399D03*
X146675002Y-88011399D03*
D30*
X148600002Y-89936399D03*
X149100002Y-89936399D03*
X149600002Y-89936399D03*
X150100002Y-89936399D03*
X150600002Y-89936399D03*
X151100002Y-89936399D03*
X151600002Y-89936399D03*
X152100002Y-89936399D03*
X152600002Y-89936399D03*
X153100002Y-89936399D03*
X153600002Y-89936399D03*
X154100002Y-89936399D03*
X154600002Y-89936399D03*
X155100002Y-89936399D03*
X155600002Y-89936399D03*
X156100002Y-89936399D03*
D29*
X158025002Y-88011399D03*
X158025002Y-87511399D03*
X158025002Y-87011399D03*
X158025002Y-86511399D03*
X158025002Y-86011399D03*
X158025002Y-85511399D03*
X158025002Y-85011399D03*
X158025002Y-84511399D03*
X158025002Y-84011399D03*
X158025002Y-83511399D03*
X158025002Y-83011399D03*
X158025002Y-82511399D03*
X158025002Y-82011399D03*
X158025002Y-81511399D03*
X158025002Y-81011399D03*
X158025002Y-80511399D03*
D30*
X156100002Y-78586399D03*
X155600002Y-78586399D03*
X155100002Y-78586399D03*
X154600002Y-78586399D03*
X154100002Y-78586399D03*
X153600002Y-78586399D03*
X153100002Y-78586399D03*
X152600002Y-78586399D03*
X152100002Y-78586399D03*
X151600002Y-78586399D03*
X151100002Y-78586399D03*
X150600002Y-78586399D03*
X150100002Y-78586399D03*
X149600002Y-78586399D03*
X149100002Y-78586399D03*
X148600002Y-78586399D03*
%TD*%
D31*
%TO.C,R14*%
X179350002Y-121406399D03*
X179350002Y-119406399D03*
%TD*%
D14*
%TO.C,R10*%
X120500000Y-74400000D03*
X122500000Y-74400000D03*
%TD*%
D10*
%TO.C,+BATT*%
X188750002Y-114106399D03*
D11*
X188750002Y-116646399D03*
%TD*%
D12*
%TO.C,C16*%
X146350002Y-97723899D03*
X146350002Y-99798899D03*
%TD*%
D32*
%TO.C,C17*%
X140387502Y-74761399D03*
X138312502Y-74761399D03*
%TD*%
D14*
%TO.C,R6*%
X184350002Y-104406399D03*
X186350002Y-104406399D03*
%TD*%
D24*
%TO.C,R4*%
X188350002Y-92406399D03*
X188350002Y-94406399D03*
%TD*%
D33*
%TO.C,S1*%
X177000000Y-139637500D03*
X179000000Y-139637500D03*
X181000000Y-139637500D03*
X177000000Y-141637500D03*
X179000000Y-141637500D03*
X181000000Y-141637500D03*
D34*
X174250000Y-138637500D03*
X174250000Y-142637500D03*
X183750000Y-142637500D03*
X183750000Y-138637500D03*
%TD*%
D28*
%TO.C,D2*%
X186350002Y-90456399D03*
X186350002Y-88406399D03*
%TD*%
D12*
%TO.C,C14*%
X142350002Y-97723899D03*
X142350002Y-99798899D03*
%TD*%
D35*
%TO.C,S5*%
X128080002Y-83956399D03*
X130620002Y-83956399D03*
X128080002Y-74856399D03*
X130620002Y-74856399D03*
%TD*%
D14*
%TO.C,R12*%
X128350002Y-71406399D03*
X130350002Y-71406399D03*
%TD*%
D36*
%TO.C,Y1*%
X138350002Y-80321399D03*
D37*
X138350002Y-85201399D03*
%TD*%
D17*
%TO.C,H4*%
X196350002Y-64406399D03*
%TD*%
D18*
%TO.C,IC3*%
X175060002Y-122356399D03*
X175060002Y-121406399D03*
X175060002Y-120456399D03*
X171640002Y-120456399D03*
X171640002Y-122356399D03*
%TD*%
D10*
%TO.C,UART TX*%
X142960000Y-107200000D03*
D11*
X145500000Y-107200000D03*
%TD*%
D26*
%TO.C,C9*%
X148350002Y-93406399D03*
X150425002Y-93406399D03*
%TD*%
D27*
%TO.C,C2*%
X192350002Y-102443899D03*
X192350002Y-100368899D03*
%TD*%
%TO.C,C10*%
X143350002Y-82798899D03*
X143350002Y-80723899D03*
%TD*%
D24*
%TO.C,R13*%
X96000000Y-87600000D03*
X96000000Y-89600000D03*
%TD*%
D38*
%TO.C,SD CARD*%
X108706401Y-126875000D03*
X108706401Y-124375000D03*
X108706401Y-121875000D03*
X108706401Y-119375000D03*
X108706401Y-116875000D03*
X108706401Y-114375000D03*
X108706401Y-111950001D03*
X108706401Y-110249979D03*
X108706401Y-129375000D03*
D39*
X108706401Y-108949999D03*
X108706401Y-107750103D03*
D40*
X106906399Y-106349999D03*
X106906399Y-131450000D03*
X85406399Y-106350002D03*
X85406399Y-133649998D03*
%TD*%
D27*
%TO.C,C4*%
X166350002Y-118443899D03*
X166350002Y-116368899D03*
%TD*%
D16*
%TO.C,R22*%
X120000000Y-110000000D03*
X118000000Y-110000000D03*
%TD*%
D27*
%TO.C,C3*%
X176500000Y-117443899D03*
X176500000Y-115368899D03*
%TD*%
D16*
%TO.C,R20*%
X116000000Y-123000000D03*
X114000000Y-123000000D03*
%TD*%
D24*
%TO.C,R25*%
X192350002Y-115000000D03*
X192350002Y-117000000D03*
%TD*%
D16*
%TO.C,R23*%
X116000000Y-110000000D03*
X114000000Y-110000000D03*
%TD*%
D27*
%TO.C,C12*%
X161350002Y-80443899D03*
X161350002Y-78368899D03*
%TD*%
D16*
%TO.C,R16*%
X120000000Y-127000000D03*
X118000000Y-127000000D03*
%TD*%
D41*
%TO.C,LCD*%
X106000000Y-91600000D03*
X103200000Y-91100000D03*
X106000000Y-90600000D03*
X103200000Y-90100000D03*
X106000000Y-89600000D03*
X103200000Y-89100000D03*
X106000000Y-88600000D03*
X103200000Y-88100000D03*
X106000000Y-87600000D03*
X103200000Y-87100000D03*
X106000000Y-86600000D03*
X103200000Y-86100000D03*
X106000000Y-85600000D03*
X103200000Y-85100000D03*
X106000000Y-84600000D03*
X103200000Y-84100000D03*
X106000000Y-83600000D03*
X103200000Y-83100000D03*
X106000000Y-82600000D03*
X103200000Y-82100000D03*
D42*
X103200000Y-92600000D03*
X106000000Y-92600000D03*
X103200000Y-81100000D03*
X106000000Y-81100000D03*
%TD*%
D31*
%TO.C,R7*%
X184350002Y-100406399D03*
X184350002Y-98406399D03*
%TD*%
D28*
%TO.C,D3*%
X184350002Y-90431399D03*
X184350002Y-88381399D03*
%TD*%
D10*
%TO.C,SWD*%
X162430002Y-64000000D03*
D11*
X159890002Y-64000000D03*
X157350002Y-64000000D03*
X154810002Y-64000000D03*
%TD*%
D16*
%TO.C,R11*%
X130350002Y-87406399D03*
X128350002Y-87406399D03*
%TD*%
%TO.C,R8*%
X105000000Y-97600000D03*
X103000000Y-97600000D03*
%TD*%
D24*
%TO.C,R9*%
X114000000Y-78720000D03*
X114000000Y-80720000D03*
%TD*%
D17*
%TO.C,H1*%
X196350002Y-139406399D03*
%TD*%
D12*
%TO.C,C15*%
X144350002Y-97723899D03*
X144350002Y-99798899D03*
%TD*%
D16*
%TO.C,R15*%
X124000000Y-127000000D03*
X122000000Y-127000000D03*
%TD*%
D43*
%TO.C,U2*%
X188350003Y-97361699D03*
X187850001Y-97361699D03*
X187350002Y-97361699D03*
X186850003Y-97361699D03*
X186350001Y-97361699D03*
X186350001Y-101451099D03*
X186850003Y-101451099D03*
X187350002Y-101451099D03*
X187850001Y-101451099D03*
X188350003Y-101451099D03*
%TD*%
D32*
%TO.C,C11*%
X149387502Y-75761399D03*
X147312502Y-75761399D03*
%TD*%
D10*
%TO.C,CAMERA*%
X117460000Y-79020000D03*
D11*
X120000000Y-79020000D03*
X117460000Y-81560000D03*
X120000000Y-81560000D03*
X117460000Y-84100000D03*
X120000000Y-84100000D03*
X117460000Y-86640000D03*
X120000000Y-86640000D03*
X117460000Y-89180000D03*
X120000000Y-89180000D03*
X117460000Y-91720000D03*
X120000000Y-91720000D03*
X117460000Y-94260000D03*
X120000000Y-94260000D03*
X117460000Y-96800000D03*
X120000000Y-96800000D03*
X117460000Y-99340000D03*
X120000000Y-99340000D03*
X117460000Y-101880000D03*
X120000000Y-101880000D03*
X117460000Y-104420000D03*
X120000000Y-104420000D03*
%TD*%
M02*
