%TF.GenerationSoftware,KiCad,Pcbnew,9.0.4*%
%TF.CreationDate,2025-10-10T21:12:29+02:00*%
%TF.ProjectId,fotoaparat,666f746f-6170-4617-9261-742e6b696361,rev?*%
%TF.SameCoordinates,Original*%
%TF.FileFunction,Copper,L1,Top*%
%TF.FilePolarity,Positive*%
%FSLAX46Y46*%
G04 Gerber Fmt 4.6, Leading zero omitted, Abs format (unit mm)*
G04 Created by KiCad (PCBNEW 9.0.4) date 2025-10-10 21:12:29*
%MOMM*%
%LPD*%
G01*
G04 APERTURE LIST*
G04 Aperture macros list*
%AMRoundRect*
0 Rectangle with rounded corners*
0 $1 Rounding radius*
0 $2 $3 $4 $5 $6 $7 $8 $9 X,Y pos of 4 corners*
0 Add a 4 corners polygon primitive as box body*
4,1,4,$2,$3,$4,$5,$6,$7,$8,$9,$2,$3,0*
0 Add four circle primitives for the rounded corners*
1,1,$1+$1,$2,$3*
1,1,$1+$1,$4,$5*
1,1,$1+$1,$6,$7*
1,1,$1+$1,$8,$9*
0 Add four rect primitives between the rounded corners*
20,1,$1+$1,$2,$3,$4,$5,0*
20,1,$1+$1,$4,$5,$6,$7,0*
20,1,$1+$1,$6,$7,$8,$9,0*
20,1,$1+$1,$8,$9,$2,$3,0*%
G04 Aperture macros list end*
%TA.AperFunction,ComponentPad*%
%ADD10R,1.700000X1.700000*%
%TD*%
%TA.AperFunction,ComponentPad*%
%ADD11C,1.700000*%
%TD*%
%TA.AperFunction,SMDPad,CuDef*%
%ADD12RoundRect,0.250000X-0.475000X0.337500X-0.475000X-0.337500X0.475000X-0.337500X0.475000X0.337500X0*%
%TD*%
%TA.AperFunction,SMDPad,CuDef*%
%ADD13RoundRect,0.250000X-0.550000X-0.850000X0.550000X-0.850000X0.550000X0.850000X-0.550000X0.850000X0*%
%TD*%
%TA.AperFunction,SMDPad,CuDef*%
%ADD14RoundRect,0.250000X-0.350000X-0.450000X0.350000X-0.450000X0.350000X0.450000X-0.350000X0.450000X0*%
%TD*%
%TA.AperFunction,ComponentPad*%
%ADD15C,1.575000*%
%TD*%
%TA.AperFunction,SMDPad,CuDef*%
%ADD16RoundRect,0.250000X0.350000X0.450000X-0.350000X0.450000X-0.350000X-0.450000X0.350000X-0.450000X0*%
%TD*%
%TA.AperFunction,SMDPad,CuDef*%
%ADD17RoundRect,0.162500X0.837500X0.162500X-0.837500X0.162500X-0.837500X-0.162500X0.837500X-0.162500X0*%
%TD*%
%TA.AperFunction,SMDPad,CuDef*%
%ADD18R,1.380000X0.450000*%
%TD*%
%TA.AperFunction,SMDPad,CuDef*%
%ADD19R,1.550000X1.425000*%
%TD*%
%TA.AperFunction,SMDPad,CuDef*%
%ADD20R,1.300000X1.650000*%
%TD*%
%TA.AperFunction,SMDPad,CuDef*%
%ADD21R,1.900000X1.800000*%
%TD*%
%TA.AperFunction,SMDPad,CuDef*%
%ADD22R,1.900000X1.000000*%
%TD*%
%TA.AperFunction,SMDPad,CuDef*%
%ADD23RoundRect,0.250000X-0.450000X0.350000X-0.450000X-0.350000X0.450000X-0.350000X0.450000X0.350000X0*%
%TD*%
%TA.AperFunction,SMDPad,CuDef*%
%ADD24RoundRect,0.250000X-0.350000X0.275000X-0.350000X-0.275000X0.350000X-0.275000X0.350000X0.275000X0*%
%TD*%
%TA.AperFunction,SMDPad,CuDef*%
%ADD25RoundRect,0.250000X-0.337500X-0.475000X0.337500X-0.475000X0.337500X0.475000X-0.337500X0.475000X0*%
%TD*%
%TA.AperFunction,SMDPad,CuDef*%
%ADD26RoundRect,0.250000X0.475000X-0.337500X0.475000X0.337500X-0.475000X0.337500X-0.475000X-0.337500X0*%
%TD*%
%TA.AperFunction,SMDPad,CuDef*%
%ADD27RoundRect,0.250000X0.450000X-0.325000X0.450000X0.325000X-0.450000X0.325000X-0.450000X-0.325000X0*%
%TD*%
%TA.AperFunction,SMDPad,CuDef*%
%ADD28RoundRect,0.075000X-0.700000X-0.075000X0.700000X-0.075000X0.700000X0.075000X-0.700000X0.075000X0*%
%TD*%
%TA.AperFunction,SMDPad,CuDef*%
%ADD29RoundRect,0.075000X-0.075000X-0.700000X0.075000X-0.700000X0.075000X0.700000X-0.075000X0.700000X0*%
%TD*%
%TA.AperFunction,SMDPad,CuDef*%
%ADD30RoundRect,0.250000X0.450000X-0.350000X0.450000X0.350000X-0.450000X0.350000X-0.450000X-0.350000X0*%
%TD*%
%TA.AperFunction,SMDPad,CuDef*%
%ADD31RoundRect,0.250000X0.337500X0.475000X-0.337500X0.475000X-0.337500X-0.475000X0.337500X-0.475000X0*%
%TD*%
%TA.AperFunction,ComponentPad*%
%ADD32C,1.500000*%
%TD*%
%TA.AperFunction,ComponentPad*%
%ADD33C,2.250000*%
%TD*%
%TA.AperFunction,SMDPad,CuDef*%
%ADD34R,1.000000X2.500000*%
%TD*%
%TA.AperFunction,ComponentPad*%
%ADD35R,1.192000X1.192000*%
%TD*%
%TA.AperFunction,ComponentPad*%
%ADD36C,1.192000*%
%TD*%
%TA.AperFunction,SMDPad,CuDef*%
%ADD37R,1.498600X0.990600*%
%TD*%
%TA.AperFunction,SMDPad,CuDef*%
%ADD38R,1.498600X0.711200*%
%TD*%
%TA.AperFunction,SMDPad,CuDef*%
%ADD39R,2.794000X1.498600*%
%TD*%
%TA.AperFunction,SMDPad,CuDef*%
%ADD40R,1.500000X0.600000*%
%TD*%
%TA.AperFunction,SMDPad,CuDef*%
%ADD41R,1.500000X0.800000*%
%TD*%
%TA.AperFunction,SMDPad,CuDef*%
%ADD42R,0.330200X1.512799*%
%TD*%
%TA.AperFunction,ViaPad*%
%ADD43C,0.700000*%
%TD*%
%TA.AperFunction,Conductor*%
%ADD44C,0.300000*%
%TD*%
%TA.AperFunction,Conductor*%
%ADD45C,0.500000*%
%TD*%
%TA.AperFunction,Conductor*%
%ADD46C,0.200000*%
%TD*%
G04 APERTURE END LIST*
D10*
%TO.P,Free Pins,1,Pin_1*%
%TO.N,/pb1*%
X192025002Y-68806399D03*
D11*
%TO.P,Free Pins,2,Pin_2*%
%TO.N,/pb0*%
X189485002Y-68806399D03*
%TO.P,Free Pins,3,Pin_3*%
%TO.N,/pa15*%
X186945002Y-68806399D03*
%TO.P,Free Pins,4,Pin_4*%
%TO.N,/pa2*%
X184405002Y-68806399D03*
%TO.P,Free Pins,5,Pin_5*%
%TO.N,/pa8*%
X181865002Y-68806399D03*
%TO.P,Free Pins,6,Pin_6*%
%TO.N,/pa9*%
X179325002Y-68806399D03*
%TO.P,Free Pins,7,Pin_7*%
%TO.N,/pa10*%
X176785002Y-68806399D03*
%TO.P,Free Pins,8,Pin_8*%
%TO.N,/pc10*%
X174245002Y-68806399D03*
%TO.P,Free Pins,9,Pin_9*%
%TO.N,/pd2*%
X171705002Y-68806399D03*
%TO.P,Free Pins,10,Pin_10*%
%TO.N,/pb12*%
X169165002Y-68806399D03*
%TO.P,Free Pins,11,Pin_11*%
%TO.N,/pb14*%
X166625002Y-68806399D03*
%TD*%
D12*
%TO.P,C13,1*%
%TO.N,GND*%
X149000000Y-70446949D03*
%TO.P,C13,2*%
%TO.N,+3.3V*%
X149000000Y-72521949D03*
%TD*%
%TO.P,C8,1*%
%TO.N,GND*%
X147000000Y-70446949D03*
%TO.P,C8,2*%
%TO.N,+3.3V*%
X147000000Y-72521949D03*
%TD*%
%TO.P,C20,1*%
%TO.N,GND*%
X145000000Y-70446949D03*
%TO.P,C20,2*%
%TO.N,+3.3V*%
X145000000Y-72521949D03*
%TD*%
%TO.P,C19,1*%
%TO.N,GND*%
X143000000Y-70446949D03*
%TO.P,C19,2*%
%TO.N,+3.3V*%
X143000000Y-72521949D03*
%TD*%
%TO.P,C7,1*%
%TO.N,GND*%
X141000000Y-70446949D03*
%TO.P,C7,2*%
%TO.N,+3.3V*%
X141000000Y-72521949D03*
%TD*%
D13*
%TO.P,BZ1,1,+*%
%TO.N,/buzzer*%
X164800000Y-90000000D03*
%TO.P,BZ1,2,-*%
%TO.N,GND*%
X171200000Y-90000000D03*
%TD*%
D14*
%TO.P,R2,1*%
%TO.N,+3.3V*%
X144000000Y-126969000D03*
%TO.P,R2,2*%
%TO.N,/sw2*%
X146000000Y-126969000D03*
%TD*%
%TO.P,R1,1*%
%TO.N,+3.3V*%
X135000000Y-126969000D03*
%TO.P,R1,2*%
%TO.N,/sw3*%
X137000000Y-126969000D03*
%TD*%
D11*
%TO.P,TH1,2*%
%TO.N,GND*%
X188750002Y-109646399D03*
D10*
%TO.P,TH1,1*%
%TO.N,Net-(U2-THERM)*%
X188750002Y-107106399D03*
%TD*%
D15*
%TO.P,S2,1,1*%
%TO.N,unconnected-(S2-Pad1)*%
X160850000Y-131000000D03*
%TO.P,S2,2,2*%
%TO.N,unconnected-(S2-Pad2)*%
X156350000Y-131000000D03*
%TO.P,S2,3,3*%
%TO.N,GND*%
X160850000Y-137500000D03*
%TO.P,S2,4,4*%
%TO.N,/sw1*%
X156350000Y-137500000D03*
%TD*%
%TO.P,S4,1,1*%
%TO.N,unconnected-(S4-Pad1)*%
X142250000Y-131000000D03*
%TO.P,S4,2,2*%
%TO.N,unconnected-(S4-Pad2)*%
X137750000Y-131000000D03*
%TO.P,S4,3,3*%
%TO.N,GND*%
X142250000Y-137500000D03*
%TO.P,S4,4,4*%
%TO.N,/sw3*%
X137750000Y-137500000D03*
%TD*%
%TO.P,S3,1,1*%
%TO.N,unconnected-(S3-Pad1)*%
X151550000Y-131000000D03*
%TO.P,S3,2,2*%
%TO.N,unconnected-(S3-Pad2)*%
X147050000Y-131000000D03*
%TO.P,S3,3,3*%
%TO.N,GND*%
X151550000Y-137500000D03*
%TO.P,S3,4,4*%
%TO.N,/sw2*%
X147050000Y-137500000D03*
%TD*%
D14*
%TO.P,R3,1*%
%TO.N,+3.3V*%
X153000000Y-126969000D03*
%TO.P,R3,2*%
%TO.N,/sw1*%
X155000000Y-126969000D03*
%TD*%
D16*
%TO.P,R24,2*%
%TO.N,Net-(IC1-EN)*%
X175350002Y-110406399D03*
%TO.P,R24,1*%
%TO.N,GND*%
X177350002Y-110406399D03*
%TD*%
D12*
%TO.P,C6,1*%
%TO.N,GND*%
X168350002Y-121368899D03*
%TO.P,C6,2*%
%TO.N,+3.3V LCD*%
X168350002Y-123443899D03*
%TD*%
D17*
%TO.P,IC1,1,IN*%
%TO.N,+BATT*%
X172710000Y-116356399D03*
%TO.P,IC1,2,GND*%
%TO.N,GND*%
X172710000Y-115406399D03*
%TO.P,IC1,3,EN*%
%TO.N,Net-(IC1-EN)*%
X172710000Y-114456399D03*
%TO.P,IC1,4,NC/ADJ*%
%TO.N,unconnected-(IC1-NC{slash}ADJ-Pad4)*%
X169290000Y-114456399D03*
%TO.P,IC1,5,OUT*%
%TO.N,+3.3V*%
X169290000Y-116356399D03*
%TD*%
D12*
%TO.P,C1,1*%
%TO.N,VBUS*%
X190350002Y-98368899D03*
%TO.P,C1,2*%
%TO.N,GND*%
X190350002Y-100443899D03*
%TD*%
D16*
%TO.P,R19,1*%
%TO.N,Net-(R18-Pad2)*%
X120000000Y-123000000D03*
%TO.P,R19,2*%
%TO.N,Net-(R19-Pad2)*%
X118000000Y-123000000D03*
%TD*%
D18*
%TO.P,USB,1,VBUS*%
%TO.N,VBUS*%
X197340000Y-83356399D03*
%TO.P,USB,2,D-*%
%TO.N,/USB_D-*%
X197340000Y-82706399D03*
%TO.P,USB,3,D+*%
%TO.N,/USB_D+*%
X197340000Y-82056399D03*
%TO.P,USB,4,ID*%
%TO.N,unconnected-(J1-ID-Pad4)*%
X197340000Y-81406399D03*
%TO.P,USB,5,GND*%
%TO.N,GND*%
X197340000Y-80756399D03*
D19*
%TO.P,USB,6,MP_1*%
%TO.N,unconnected-(J1-MP_1-Pad6)*%
X197425000Y-84543399D03*
%TO.P,USB,7,MP_2*%
%TO.N,unconnected-(J1-MP_2-Pad7)*%
X197425000Y-79569399D03*
D20*
%TO.P,USB,8,MP_3*%
%TO.N,unconnected-(J1-MP_3-Pad8)*%
X200000000Y-85431399D03*
D21*
%TO.P,USB,9,MP_4*%
%TO.N,unconnected-(J1-MP_4-Pad9)*%
X200000000Y-83206399D03*
D22*
%TO.P,USB,10,MP_5*%
%TO.N,unconnected-(J1-MP_5-Pad10)*%
X200000000Y-80506399D03*
D20*
%TO.P,USB,11,MP_6*%
%TO.N,unconnected-(J1-MP_6-Pad11)*%
X200000000Y-78681399D03*
%TD*%
D23*
%TO.P,R26,1*%
%TO.N,/Baterka Nap\u011Bt\u00ED*%
X192350002Y-119000000D03*
%TO.P,R26,2*%
%TO.N,GND*%
X192350002Y-121000000D03*
%TD*%
D24*
%TO.P,FB1,1*%
%TO.N,+3.3VA*%
X146350002Y-92611399D03*
%TO.P,FB1,2*%
%TO.N,+3.3V*%
X146350002Y-94911399D03*
%TD*%
D16*
%TO.P,R17,1*%
%TO.N,Net-(R16-Pad2)*%
X116000000Y-127000000D03*
%TO.P,R17,2*%
%TO.N,/sd cs*%
X114000000Y-127000000D03*
%TD*%
D25*
%TO.P,C21,1*%
%TO.N,GND*%
X155275002Y-92761399D03*
%TO.P,C21,2*%
%TO.N,+3.3V*%
X157350002Y-92761399D03*
%TD*%
D16*
%TO.P,R18,1*%
%TO.N,+3.3V*%
X124000000Y-123000000D03*
%TO.P,R18,2*%
%TO.N,Net-(R18-Pad2)*%
X122000000Y-123000000D03*
%TD*%
D26*
%TO.P,C5,1*%
%TO.N,+BATT*%
X181350002Y-123443899D03*
%TO.P,C5,2*%
%TO.N,GND*%
X181350002Y-121368899D03*
%TD*%
D27*
%TO.P,D1,1,K*%
%TO.N,Net-(D1-K)*%
X188350002Y-90431399D03*
%TO.P,D1,2,A*%
%TO.N,VBUS*%
X188350002Y-88381399D03*
%TD*%
D26*
%TO.P,C18,1*%
%TO.N,GND*%
X133800000Y-89437500D03*
%TO.P,C18,2*%
%TO.N,/osc out*%
X133800000Y-87362500D03*
%TD*%
D23*
%TO.P,R5,1*%
%TO.N,Net-(D2-K)*%
X186350002Y-92406399D03*
%TO.P,R5,2*%
%TO.N,Net-(U2-STAT2)*%
X186350002Y-94406399D03*
%TD*%
D16*
%TO.P,R21,1*%
%TO.N,+3.3V*%
X124000000Y-110000000D03*
%TO.P,R21,2*%
%TO.N,Net-(R21-Pad2)*%
X122000000Y-110000000D03*
%TD*%
D28*
%TO.P,U1,1,VBAT*%
%TO.N,+3.3V*%
X146675002Y-80511399D03*
%TO.P,U1,2,PC13*%
%TO.N,/rrst*%
X146675002Y-81011399D03*
%TO.P,U1,3,PC14*%
%TO.N,/wrst*%
X146675002Y-81511399D03*
%TO.P,U1,4,PC15*%
%TO.N,/Backlight Regul\u00E1tor*%
X146675002Y-82011399D03*
%TO.P,U1,5,PH0*%
%TO.N,/osc in*%
X146675002Y-82511399D03*
%TO.P,U1,6,PH1*%
%TO.N,/osc out*%
X146675002Y-83011399D03*
%TO.P,U1,7,NRST*%
%TO.N,/Reset*%
X146675002Y-83511399D03*
%TO.P,U1,8,PC0*%
%TO.N,/Baterka Nap\u011Bt\u00ED*%
X146675002Y-84011399D03*
%TO.P,U1,9,PC1*%
%TO.N,/sda*%
X146675002Y-84511399D03*
%TO.P,U1,10,PC2*%
%TO.N,/sdo*%
X146675002Y-85011399D03*
%TO.P,U1,11,PC3*%
%TO.N,/sw1*%
X146675002Y-85511399D03*
%TO.P,U1,12,VSSA*%
%TO.N,GND*%
X146675002Y-86011399D03*
%TO.P,U1,13,VDDA*%
%TO.N,+3.3VA*%
X146675002Y-86511399D03*
%TO.P,U1,14,PA0*%
%TO.N,/uart tx*%
X146675002Y-87011399D03*
%TO.P,U1,15,PA1*%
%TO.N,/uart rx*%
X146675002Y-87511399D03*
%TO.P,U1,16,PA2*%
%TO.N,/pa2*%
X146675002Y-88011399D03*
D29*
%TO.P,U1,17,PA3*%
%TO.N,/sd cs*%
X148600002Y-89936399D03*
%TO.P,U1,18,VSS*%
%TO.N,GND*%
X149100002Y-89936399D03*
%TO.P,U1,19,VDD*%
%TO.N,+3.3V*%
X149600002Y-89936399D03*
%TO.P,U1,20,PA4*%
%TO.N,/href*%
X150100002Y-89936399D03*
%TO.P,U1,21,PA5*%
%TO.N,/sd clk*%
X150600002Y-89936399D03*
%TO.P,U1,22,PA6*%
%TO.N,/wr*%
X151100002Y-89936399D03*
%TO.P,U1,23,PA7*%
%TO.N,/sd mosi*%
X151600002Y-89936399D03*
%TO.P,U1,24,PC4*%
%TO.N,/sw2*%
X152100002Y-89936399D03*
%TO.P,U1,25,PC5*%
%TO.N,/sw3*%
X152600002Y-89936399D03*
%TO.P,U1,26,PB0*%
%TO.N,/pb0*%
X153100002Y-89936399D03*
%TO.P,U1,27,PB1*%
%TO.N,/pb1*%
X153600002Y-89936399D03*
%TO.P,U1,28,PB2*%
%TO.N,/rst*%
X154100002Y-89936399D03*
%TO.P,U1,29,PB10*%
%TO.N,/I2C_SCL*%
X154600002Y-89936399D03*
%TO.P,U1,30,PB11*%
%TO.N,/I2C_SDA*%
X155100002Y-89936399D03*
%TO.P,U1,31,VSS*%
%TO.N,GND*%
X155600002Y-89936399D03*
%TO.P,U1,32,VDD*%
%TO.N,+3.3V*%
X156100002Y-89936399D03*
D28*
%TO.P,U1,33,PB12*%
%TO.N,/pb12*%
X158025002Y-88011399D03*
%TO.P,U1,34,PB13*%
%TO.N,/scl*%
X158025002Y-87511399D03*
%TO.P,U1,35,PB14*%
%TO.N,/pb14*%
X158025002Y-87011399D03*
%TO.P,U1,36,PB15*%
%TO.N,/buzzer*%
X158025002Y-86511399D03*
%TO.P,U1,37,PC6*%
%TO.N,/d0*%
X158025002Y-86011399D03*
%TO.P,U1,38,PC7*%
%TO.N,/d1*%
X158025002Y-85511399D03*
%TO.P,U1,39,PC8*%
%TO.N,/d2*%
X158025002Y-85011399D03*
%TO.P,U1,40,PC9*%
%TO.N,/d3*%
X158025002Y-84511399D03*
%TO.P,U1,41,PA8*%
%TO.N,/pa8*%
X158025002Y-84011399D03*
%TO.P,U1,42,PA9*%
%TO.N,/pa9*%
X158025002Y-83511399D03*
%TO.P,U1,43,PA10*%
%TO.N,/pa10*%
X158025002Y-83011399D03*
%TO.P,U1,44,PA11*%
%TO.N,/USB_D-*%
X158025002Y-82511399D03*
%TO.P,U1,45,PA12*%
%TO.N,/USB_D+*%
X158025002Y-82011399D03*
%TO.P,U1,46,PA13*%
%TO.N,/swdio*%
X158025002Y-81511399D03*
%TO.P,U1,47,VSS*%
%TO.N,GND*%
X158025002Y-81011399D03*
%TO.P,U1,48,VDDUSB*%
%TO.N,+3.3V*%
X158025002Y-80511399D03*
D29*
%TO.P,U1,49,PA14*%
%TO.N,/swclk*%
X156100002Y-78586399D03*
%TO.P,U1,50,PA15*%
%TO.N,/pa15*%
X155600002Y-78586399D03*
%TO.P,U1,51,PC10*%
%TO.N,/pc10*%
X155100002Y-78586399D03*
%TO.P,U1,52,PC11*%
%TO.N,/d4*%
X154600002Y-78586399D03*
%TO.P,U1,53,PC12*%
%TO.N,/rck*%
X154100002Y-78586399D03*
%TO.P,U1,54,PD2*%
%TO.N,/pd2*%
X153600002Y-78586399D03*
%TO.P,U1,55,PB3*%
%TO.N,/csx*%
X153100002Y-78586399D03*
%TO.P,U1,56,PB4*%
%TO.N,/sd miso*%
X152600002Y-78586399D03*
%TO.P,U1,57,PB5*%
%TO.N,/wrx d{slash}cx*%
X152100002Y-78586399D03*
%TO.P,U1,58,PB6*%
%TO.N,/d5*%
X151600002Y-78586399D03*
%TO.P,U1,59,PB7*%
%TO.N,/vsync*%
X151100002Y-78586399D03*
%TO.P,U1,60,PH3*%
%TO.N,/boot0*%
X150600002Y-78586399D03*
%TO.P,U1,61,PB8*%
%TO.N,/d6*%
X150100002Y-78586399D03*
%TO.P,U1,62,PB9*%
%TO.N,/d7*%
X149600002Y-78586399D03*
%TO.P,U1,63,VSS*%
%TO.N,GND*%
X149100002Y-78586399D03*
%TO.P,U1,64,VDD*%
%TO.N,+3.3V*%
X148600002Y-78586399D03*
%TD*%
D30*
%TO.P,R14,1*%
%TO.N,GND*%
X179350002Y-121406399D03*
%TO.P,R14,2*%
%TO.N,Net-(IC3-EN)*%
X179350002Y-119406399D03*
%TD*%
D14*
%TO.P,R10,1*%
%TO.N,+3.3V*%
X120500000Y-74400000D03*
%TO.P,R10,2*%
%TO.N,/I2C_SDA*%
X122500000Y-74400000D03*
%TD*%
D10*
%TO.P,+BATT,1,Pin_1*%
%TO.N,+BATT*%
X188750002Y-114106399D03*
D11*
%TO.P,+BATT,2,Pin_2*%
%TO.N,GND*%
X188750002Y-116646399D03*
%TD*%
D12*
%TO.P,C16,1*%
%TO.N,+3.3V*%
X146350002Y-97723899D03*
%TO.P,C16,2*%
%TO.N,GND*%
X146350002Y-99798899D03*
%TD*%
D31*
%TO.P,C17,1*%
%TO.N,GND*%
X140387502Y-74761399D03*
%TO.P,C17,2*%
%TO.N,/osc in*%
X138312502Y-74761399D03*
%TD*%
D14*
%TO.P,R6,1*%
%TO.N,/Indik\u00E1tor Nab\u00EDjen\u00ED*%
X184350002Y-104406399D03*
%TO.P,R6,2*%
%TO.N,Net-(U2-\u002APG)*%
X186350002Y-104406399D03*
%TD*%
D23*
%TO.P,R4,1*%
%TO.N,Net-(D1-K)*%
X188350002Y-92406399D03*
%TO.P,R4,2*%
%TO.N,Net-(U2-STAT1)*%
X188350002Y-94406399D03*
%TD*%
D32*
%TO.P,S1,1,NC_1*%
%TO.N,unconnected-(S1-NC_1-Pad1)*%
X177000000Y-139637500D03*
%TO.P,S1,2,COM_1*%
%TO.N,+BATT*%
X179000000Y-139637500D03*
%TO.P,S1,3,NO_1*%
%TO.N,Net-(IC1-EN)*%
X181000000Y-139637500D03*
%TO.P,S1,4,NC_2*%
%TO.N,unconnected-(S1-NC_2-Pad4)*%
X177000000Y-141637500D03*
%TO.P,S1,5,COM_2*%
%TO.N,/Backlight Regul\u00E1tor*%
X179000000Y-141637500D03*
%TO.P,S1,6,NO_2*%
%TO.N,Net-(IC3-EN)*%
X181000000Y-141637500D03*
D33*
%TO.P,S1,MH1,MH1*%
%TO.N,unconnected-(S1-PadMH1)*%
X174250000Y-138637500D03*
%TO.P,S1,MH2,MH2*%
%TO.N,unconnected-(S1-PadMH2)*%
X174250000Y-142637500D03*
%TO.P,S1,MH3,MH3*%
%TO.N,unconnected-(S1-PadMH3)*%
X183750000Y-142637500D03*
%TO.P,S1,MH4,MH4*%
%TO.N,unconnected-(S1-PadMH4)*%
X183750000Y-138637500D03*
%TD*%
D27*
%TO.P,D2,1,K*%
%TO.N,Net-(D2-K)*%
X186350002Y-90456399D03*
%TO.P,D2,2,A*%
%TO.N,VBUS*%
X186350002Y-88406399D03*
%TD*%
D12*
%TO.P,C14,1*%
%TO.N,+3.3VA*%
X142350002Y-97723899D03*
%TO.P,C14,2*%
%TO.N,GND*%
X142350002Y-99798899D03*
%TD*%
D34*
%TO.P,S5,A1,COM_1*%
%TO.N,/Reset*%
X128080002Y-83956399D03*
%TO.P,S5,A2,COM_2*%
%TO.N,+3.3V*%
X130620002Y-83956399D03*
%TO.P,S5,B1,NO_1*%
%TO.N,GND*%
X128080002Y-74856399D03*
%TO.P,S5,B2,NO_2*%
%TO.N,/boot0*%
X130620002Y-74856399D03*
%TD*%
D14*
%TO.P,R12,1*%
%TO.N,GND*%
X128350002Y-71406399D03*
%TO.P,R12,2*%
%TO.N,/boot0*%
X130350002Y-71406399D03*
%TD*%
D35*
%TO.P,Y1,1,1*%
%TO.N,/osc in*%
X138350002Y-80321399D03*
D36*
%TO.P,Y1,2,2*%
%TO.N,/osc out*%
X138350002Y-85201399D03*
%TD*%
D17*
%TO.P,IC3,1,IN*%
%TO.N,+BATT*%
X175060002Y-122356399D03*
%TO.P,IC3,2,GND*%
%TO.N,GND*%
X175060002Y-121406399D03*
%TO.P,IC3,3,EN*%
%TO.N,Net-(IC3-EN)*%
X175060002Y-120456399D03*
%TO.P,IC3,4,NC/ADJ*%
%TO.N,unconnected-(IC3-NC{slash}ADJ-Pad4)*%
X171640002Y-120456399D03*
%TO.P,IC3,5,OUT*%
%TO.N,+3.3V LCD*%
X171640002Y-122356399D03*
%TD*%
D10*
%TO.P,UART TX,1,Pin_1*%
%TO.N,/uart tx*%
X142960000Y-107200000D03*
D11*
%TO.P,UART TX,2,Pin_2*%
%TO.N,/uart rx*%
X145500000Y-107200000D03*
%TD*%
D25*
%TO.P,C9,1*%
%TO.N,GND*%
X148350002Y-93406399D03*
%TO.P,C9,2*%
%TO.N,+3.3V*%
X150425002Y-93406399D03*
%TD*%
D26*
%TO.P,C2,1*%
%TO.N,+BATT*%
X192350002Y-102443899D03*
%TO.P,C2,2*%
%TO.N,GND*%
X192350002Y-100368899D03*
%TD*%
%TO.P,C10,1*%
%TO.N,GND*%
X143350002Y-82798899D03*
%TO.P,C10,2*%
%TO.N,+3.3V*%
X143350002Y-80723899D03*
%TD*%
D23*
%TO.P,R13,1*%
%TO.N,/im3*%
X96000000Y-87600000D03*
%TO.P,R13,2*%
%TO.N,+3.3V LCD*%
X96000000Y-89600000D03*
%TD*%
D37*
%TO.P,SD CARD,1,CD/DAT3*%
%TO.N,/sd cs*%
X108706401Y-126875000D03*
%TO.P,SD CARD,2,CMD*%
%TO.N,/sd mosi*%
X108706401Y-124375000D03*
%TO.P,SD CARD,3,VSS1*%
%TO.N,GND*%
X108706401Y-121875000D03*
%TO.P,SD CARD,4,VDD1*%
%TO.N,+3.3V*%
X108706401Y-119375000D03*
%TO.P,SD CARD,5,CLK*%
%TO.N,/sd clk*%
X108706401Y-116875000D03*
%TO.P,SD CARD,6,VSS2*%
%TO.N,GND*%
X108706401Y-114375000D03*
%TO.P,SD CARD,7,DAT0*%
%TO.N,/sd miso*%
X108706401Y-111950001D03*
%TO.P,SD CARD,8,DAT1*%
%TO.N,unconnected-(J5-DAT1-Pad8)*%
X108706401Y-110249979D03*
%TO.P,SD CARD,9,DAT2*%
%TO.N,unconnected-(J5-DAT2-Pad9)*%
X108706401Y-129375000D03*
D38*
%TO.P,SD CARD,10,CDI*%
%TO.N,unconnected-(J5-CDI-Pad10)*%
X108706401Y-108949999D03*
%TO.P,SD CARD,11,WP*%
%TO.N,unconnected-(J5-WP-Pad11)*%
X108706401Y-107750103D03*
D39*
%TO.P,SD CARD,12,GND*%
%TO.N,unconnected-(J5-GND-Pad12)*%
X106906399Y-106349999D03*
%TO.P,SD CARD,13,GND*%
%TO.N,unconnected-(J5-GND-Pad13)*%
X106906399Y-131450000D03*
%TO.P,SD CARD,14,GND*%
%TO.N,unconnected-(J5-GND-Pad14)*%
X85406399Y-106350002D03*
%TO.P,SD CARD,15,GND*%
%TO.N,unconnected-(J5-GND-Pad15)*%
X85406399Y-133649998D03*
%TD*%
D26*
%TO.P,C4,1*%
%TO.N,GND*%
X166350002Y-118443899D03*
%TO.P,C4,2*%
%TO.N,+3.3V*%
X166350002Y-116368899D03*
%TD*%
D16*
%TO.P,R22,1*%
%TO.N,Net-(R21-Pad2)*%
X120000000Y-110000000D03*
%TO.P,R22,2*%
%TO.N,Net-(R22-Pad2)*%
X118000000Y-110000000D03*
%TD*%
D26*
%TO.P,C3,1*%
%TO.N,+BATT*%
X176500000Y-117443899D03*
%TO.P,C3,2*%
%TO.N,GND*%
X176500000Y-115368899D03*
%TD*%
D16*
%TO.P,R20,1*%
%TO.N,Net-(R19-Pad2)*%
X116000000Y-123000000D03*
%TO.P,R20,2*%
%TO.N,/sd mosi*%
X114000000Y-123000000D03*
%TD*%
D23*
%TO.P,R25,1*%
%TO.N,+BATT*%
X192350002Y-115000000D03*
%TO.P,R25,2*%
%TO.N,/Baterka Nap\u011Bt\u00ED*%
X192350002Y-117000000D03*
%TD*%
D16*
%TO.P,R23,1*%
%TO.N,Net-(R22-Pad2)*%
X116000000Y-110000000D03*
%TO.P,R23,2*%
%TO.N,/sd miso*%
X114000000Y-110000000D03*
%TD*%
D26*
%TO.P,C12,1*%
%TO.N,GND*%
X161350002Y-80443899D03*
%TO.P,C12,2*%
%TO.N,+3.3V*%
X161350002Y-78368899D03*
%TD*%
D16*
%TO.P,R16,1*%
%TO.N,Net-(R15-Pad2)*%
X120000000Y-127000000D03*
%TO.P,R16,2*%
%TO.N,Net-(R16-Pad2)*%
X118000000Y-127000000D03*
%TD*%
D40*
%TO.P,LCD,1,1*%
%TO.N,GND*%
X106000000Y-91600000D03*
%TO.P,LCD,2,2*%
%TO.N,/Vled+*%
X103200000Y-91100000D03*
%TO.P,LCD,3,3*%
%TO.N,GND*%
X106000000Y-90600000D03*
%TO.P,LCD,4,4*%
X103200000Y-90100000D03*
%TO.P,LCD,5,5*%
%TO.N,+3.3V LCD*%
X106000000Y-89600000D03*
%TO.P,LCD,6,6*%
%TO.N,/rst*%
X103200000Y-89100000D03*
%TO.P,LCD,7,7*%
%TO.N,/sda*%
X106000000Y-88600000D03*
%TO.P,LCD,8,8*%
%TO.N,/scl*%
X103200000Y-88100000D03*
%TO.P,LCD,9,9*%
%TO.N,/csx*%
X106000000Y-87600000D03*
%TO.P,LCD,10,10*%
%TO.N,/wrx d{slash}cx*%
X103200000Y-87100000D03*
%TO.P,LCD,11,11*%
%TO.N,GND*%
X106000000Y-86600000D03*
%TO.P,LCD,12,12*%
%TO.N,/sdo*%
X103200000Y-86100000D03*
%TO.P,LCD,13,13*%
%TO.N,unconnected-(J3-Pad13)*%
X106000000Y-85600000D03*
%TO.P,LCD,14,14*%
%TO.N,/im3*%
X103200000Y-85100000D03*
%TO.P,LCD,15,15*%
%TO.N,GND*%
X106000000Y-84600000D03*
%TO.P,LCD,16,16*%
%TO.N,unconnected-(J3-Pad16)*%
X103200000Y-84100000D03*
%TO.P,LCD,17,17*%
%TO.N,unconnected-(J3-Pad17)*%
X106000000Y-83600000D03*
%TO.P,LCD,18,18*%
%TO.N,unconnected-(J3-Pad18)*%
X103200000Y-83100000D03*
%TO.P,LCD,19,19*%
%TO.N,unconnected-(J3-Pad19)*%
X106000000Y-82600000D03*
%TO.P,LCD,20,20*%
%TO.N,GND*%
X103200000Y-82100000D03*
D41*
%TO.P,LCD,S1,SHIELD*%
%TO.N,unconnected-(J3-SHIELD-PadS1)_2*%
X103200000Y-92600000D03*
%TO.P,LCD,S2,SHIELD*%
%TO.N,unconnected-(J3-SHIELD-PadS1)_1*%
X106000000Y-92600000D03*
%TO.P,LCD,S3,SHIELD*%
%TO.N,unconnected-(J3-SHIELD-PadS1)_3*%
X103200000Y-81100000D03*
%TO.P,LCD,S4,SHIELD*%
%TO.N,unconnected-(J3-SHIELD-PadS1)*%
X106000000Y-81100000D03*
%TD*%
D30*
%TO.P,R7,1*%
%TO.N,Net-(U2-PROG)*%
X184350002Y-100406399D03*
%TO.P,R7,2*%
%TO.N,GND*%
X184350002Y-98406399D03*
%TD*%
D27*
%TO.P,D3,1,K*%
%TO.N,/Indik\u00E1tor Nab\u00EDjen\u00ED*%
X184350002Y-90431399D03*
%TO.P,D3,2,A*%
%TO.N,VBUS*%
X184350002Y-88381399D03*
%TD*%
D10*
%TO.P,SWD,1,Pin_1*%
%TO.N,+3.3V*%
X162430002Y-64000000D03*
D11*
%TO.P,SWD,2,Pin_2*%
%TO.N,/swdio*%
X159890002Y-64000000D03*
%TO.P,SWD,3,Pin_3*%
%TO.N,/swclk*%
X157350002Y-64000000D03*
%TO.P,SWD,4,Pin_4*%
%TO.N,GND*%
X154810002Y-64000000D03*
%TD*%
D16*
%TO.P,R11,1*%
%TO.N,+3.3V*%
X130350002Y-87406399D03*
%TO.P,R11,2*%
%TO.N,/Reset*%
X128350002Y-87406399D03*
%TD*%
%TO.P,R8,1*%
%TO.N,+3.3V LCD*%
X105000000Y-97600000D03*
%TO.P,R8,2*%
%TO.N,/Vled+*%
X103000000Y-97600000D03*
%TD*%
D23*
%TO.P,R9,1*%
%TO.N,+3.3V*%
X114000000Y-78720000D03*
%TO.P,R9,2*%
%TO.N,/I2C_SCL*%
X114000000Y-80720000D03*
%TD*%
D12*
%TO.P,C15,1*%
%TO.N,+3.3VA*%
X144350002Y-97723899D03*
%TO.P,C15,2*%
%TO.N,GND*%
X144350002Y-99798899D03*
%TD*%
D16*
%TO.P,R15,1*%
%TO.N,+3.3V*%
X124000000Y-127000000D03*
%TO.P,R15,2*%
%TO.N,Net-(R15-Pad2)*%
X122000000Y-127000000D03*
%TD*%
D42*
%TO.P,U2,1,VDD*%
%TO.N,VBUS*%
X188350003Y-97361699D03*
%TO.P,U2,2,VDD*%
X187850001Y-97361699D03*
%TO.P,U2,3,STAT1*%
%TO.N,Net-(U2-STAT1)*%
X187350002Y-97361699D03*
%TO.P,U2,4,STAT2*%
%TO.N,Net-(U2-STAT2)*%
X186850003Y-97361699D03*
%TO.P,U2,5,VSS*%
%TO.N,GND*%
X186350001Y-97361699D03*
%TO.P,U2,6,PROG*%
%TO.N,Net-(U2-PROG)*%
X186350001Y-101451099D03*
%TO.P,U2,7,\u002APG*%
%TO.N,Net-(U2-\u002APG)*%
X186850003Y-101451099D03*
%TO.P,U2,8,THERM*%
%TO.N,Net-(U2-THERM)*%
X187350002Y-101451099D03*
%TO.P,U2,9,VBAT*%
%TO.N,+BATT*%
X187850001Y-101451099D03*
%TO.P,U2,10,VBAT*%
X188350003Y-101451099D03*
%TD*%
D31*
%TO.P,C11,1*%
%TO.N,GND*%
X149387502Y-75761399D03*
%TO.P,C11,2*%
%TO.N,+3.3V*%
X147312502Y-75761399D03*
%TD*%
D10*
%TO.P,CAMERA,1,Pin_1*%
%TO.N,+3.3V*%
X117460000Y-79020000D03*
D11*
%TO.P,CAMERA,2,Pin_2*%
%TO.N,GND*%
X120000000Y-79020000D03*
%TO.P,CAMERA,3,Pin_3*%
%TO.N,/I2C_SCL*%
X117460000Y-81560000D03*
%TO.P,CAMERA,4,Pin_4*%
%TO.N,/I2C_SDA*%
X120000000Y-81560000D03*
%TO.P,CAMERA,5,Pin_5*%
%TO.N,/vsync*%
X117460000Y-84100000D03*
%TO.P,CAMERA,6,Pin_6*%
%TO.N,/href*%
X120000000Y-84100000D03*
%TO.P,CAMERA,7,Pin_7*%
%TO.N,/d7*%
X117460000Y-86640000D03*
%TO.P,CAMERA,8,Pin_8*%
%TO.N,/d6*%
X120000000Y-86640000D03*
%TO.P,CAMERA,9,Pin_9*%
%TO.N,/d5*%
X117460000Y-89180000D03*
%TO.P,CAMERA,10,Pin_10*%
%TO.N,/d4*%
X120000000Y-89180000D03*
%TO.P,CAMERA,11,Pin_11*%
%TO.N,/d3*%
X117460000Y-91720000D03*
%TO.P,CAMERA,12,Pin_12*%
%TO.N,/d2*%
X120000000Y-91720000D03*
%TO.P,CAMERA,13,Pin_13*%
%TO.N,/d1*%
X117460000Y-94260000D03*
%TO.P,CAMERA,14,Pin_14*%
%TO.N,/d0*%
X120000000Y-94260000D03*
%TO.P,CAMERA,15,Pin_15*%
%TO.N,+3.3V*%
X117460000Y-96800000D03*
%TO.P,CAMERA,16,Pin_16*%
%TO.N,unconnected-(J7-Pin_16-Pad16)*%
X120000000Y-96800000D03*
%TO.P,CAMERA,17,Pin_17*%
%TO.N,unconnected-(J7-Pin_17-Pad17)*%
X117460000Y-99340000D03*
%TO.P,CAMERA,18,Pin_18*%
%TO.N,/rck*%
X120000000Y-99340000D03*
%TO.P,CAMERA,19,Pin_19*%
%TO.N,/wr*%
X117460000Y-101880000D03*
%TO.P,CAMERA,20,Pin_20*%
%TO.N,GND*%
X120000000Y-101880000D03*
%TO.P,CAMERA,21,Pin_21*%
%TO.N,/wrst*%
X117460000Y-104420000D03*
%TO.P,CAMERA,22,Pin_22*%
%TO.N,/rrst*%
X120000000Y-104420000D03*
%TD*%
D43*
%TO.N,GND*%
X149200000Y-96000000D03*
X145281421Y-89146526D03*
%TO.N,+3.3V*%
X161500000Y-76400000D03*
X161200000Y-68600000D03*
X176100000Y-78400000D03*
X150100000Y-98700000D03*
X155300000Y-98600000D03*
X166200000Y-92300000D03*
X169800000Y-92000000D03*
X175900000Y-92000000D03*
X173700000Y-92000000D03*
%TO.N,/I2C_SDA*%
X126900000Y-74500000D03*
X126900000Y-79700000D03*
%TO.N,GND*%
X120700000Y-70900000D03*
X121900000Y-78900000D03*
%TO.N,+3.3V*%
X129600000Y-90600000D03*
X126000000Y-76400000D03*
X140800000Y-80100000D03*
X136000000Y-82700000D03*
X117100000Y-74600000D03*
X114600000Y-77200000D03*
X115000000Y-92700000D03*
X113700000Y-82900000D03*
X125200000Y-119000000D03*
X125500000Y-120700000D03*
X135400000Y-128700000D03*
X137900000Y-128700000D03*
X145100000Y-124900000D03*
X147000000Y-124900000D03*
X161000000Y-116400000D03*
X162800000Y-116400000D03*
%TO.N,GND*%
X159100000Y-101700000D03*
X148161549Y-101348500D03*
X155800000Y-101200000D03*
X166400000Y-80443899D03*
%TO.N,/Reset*%
X148900000Y-83000000D03*
X142700000Y-84500000D03*
%TO.N,GND*%
X139700000Y-82600000D03*
X104600000Y-82100000D03*
X107500000Y-91600000D03*
X125700000Y-114200000D03*
X123500000Y-101900000D03*
X110200000Y-114100000D03*
X125800000Y-109000000D03*
X121200000Y-101900000D03*
X112900000Y-114000000D03*
%TO.N,+3.3V LCD*%
X100900000Y-110500000D03*
X101000000Y-113300000D03*
X168400000Y-129000000D03*
X168400000Y-132300000D03*
%TO.N,GND*%
X194600000Y-80700000D03*
%TO.N,VBUS*%
X192800000Y-88400000D03*
X193000003Y-83400000D03*
%TO.N,GND*%
X194200000Y-99700000D03*
X184300000Y-96900000D03*
%TO.N,/pb12*%
X162000000Y-101700000D03*
X166100000Y-101800000D03*
X174700000Y-85300000D03*
X161900000Y-90700000D03*
X170000000Y-101900000D03*
%TO.N,/scl*%
X111700000Y-115200000D03*
X111700000Y-112700000D03*
X96900000Y-91100000D03*
X148900000Y-115000000D03*
X163500000Y-105400000D03*
X137000000Y-115200000D03*
X163100000Y-90500000D03*
X162800000Y-108800000D03*
X139600000Y-115100000D03*
X149000000Y-109300000D03*
%TO.N,/pb14*%
X166800000Y-70400000D03*
X161400000Y-87300000D03*
%TO.N,/d0*%
X122500000Y-98800000D03*
X162500000Y-85800000D03*
X127900000Y-99000000D03*
X162900000Y-113700000D03*
X121800000Y-94000000D03*
X127900000Y-111900000D03*
X169100000Y-88200000D03*
X139400000Y-113800000D03*
X137500000Y-113700000D03*
%TO.N,/d1*%
X115200000Y-94100000D03*
X135800000Y-73200000D03*
X158000000Y-67700000D03*
X112300000Y-76400000D03*
X136000000Y-65700000D03*
X155100000Y-82300000D03*
%TO.N,/d2*%
X122800000Y-92000000D03*
X168300000Y-86700000D03*
X139300000Y-112100000D03*
X137500000Y-112100000D03*
X162800000Y-112200000D03*
X163900000Y-85400000D03*
X122800000Y-96500000D03*
X126500000Y-97000000D03*
X126900000Y-109000000D03*
X126900000Y-103900000D03*
X126900000Y-107000000D03*
%TO.N,/d3*%
X139200000Y-110700000D03*
X165100000Y-85400000D03*
X162700000Y-110400000D03*
X113400000Y-107700000D03*
X137500000Y-110600000D03*
X167300000Y-85600000D03*
%TO.N,/pa8*%
X160200000Y-83300000D03*
X181800000Y-73700000D03*
X181900000Y-76400000D03*
X165200000Y-76400000D03*
%TO.N,/pa9*%
X156400000Y-84000000D03*
X162700000Y-73700000D03*
%TO.N,/pa10*%
X160000000Y-71900000D03*
X172000000Y-72100000D03*
X156000000Y-83000000D03*
X174800000Y-72000000D03*
%TO.N,/pa15*%
X186800000Y-74800000D03*
X183600000Y-74900000D03*
X156000000Y-74600000D03*
X157900000Y-74600000D03*
%TO.N,/d4*%
X155200000Y-71500000D03*
X123100000Y-81100000D03*
X122800000Y-67500000D03*
X155000000Y-67000000D03*
X123000000Y-89300000D03*
X121500000Y-89200000D03*
X134700000Y-66400000D03*
X132200000Y-66400000D03*
%TO.N,/rck*%
X123700000Y-99700000D03*
X124100000Y-82400000D03*
X121400000Y-99600000D03*
X124000000Y-67700000D03*
%TO.N,/I2C_SDA*%
X122000000Y-81500000D03*
X124700000Y-84900000D03*
%TO.N,/rck*%
X154300002Y-71200000D03*
X134900000Y-67500000D03*
X153300000Y-67700000D03*
X132800000Y-67400000D03*
%TO.N,/csx*%
X107600000Y-68800000D03*
X134700000Y-68600000D03*
X153200000Y-69200000D03*
X153100000Y-80600000D03*
X107600000Y-87700000D03*
X132800000Y-68600000D03*
%TO.N,/sd miso*%
X150300000Y-71600000D03*
%TO.N,GND*%
X138800000Y-70478050D03*
%TO.N,/sd miso*%
X152600000Y-76900000D03*
X91400000Y-65600000D03*
X91400000Y-111400000D03*
%TO.N,/wrx d{slash}cx*%
X99700000Y-87200000D03*
X146944975Y-64055025D03*
X99700000Y-65000000D03*
X152100000Y-82000000D03*
%TO.N,/d5*%
X111500000Y-64300000D03*
X111500000Y-89200000D03*
X151400000Y-80800000D03*
X145400000Y-63500000D03*
%TO.N,/vsync*%
X110500000Y-62800000D03*
X152500000Y-73900000D03*
X110500000Y-84600000D03*
X147100000Y-61200000D03*
%TO.N,/boot0*%
X150500000Y-80200000D03*
X130400000Y-69400000D03*
%TO.N,/d6*%
X145600000Y-60800000D03*
X108300000Y-61600000D03*
X108900000Y-87400000D03*
X151800000Y-74700000D03*
%TO.N,/d7*%
X109500000Y-61700000D03*
X109600000Y-86500000D03*
X145600000Y-61700000D03*
X151000000Y-75400000D03*
%TO.N,/swclk*%
X156900000Y-65600000D03*
X157200000Y-73700000D03*
%TO.N,/swdio*%
X163700000Y-81386399D03*
X160000000Y-66000000D03*
%TO.N,/rrst*%
X124600000Y-104700000D03*
X148300000Y-80600000D03*
X119900000Y-105800000D03*
X132100000Y-93000000D03*
%TO.N,/wrst*%
X150100000Y-81100000D03*
X125700000Y-105000000D03*
X133000000Y-94000000D03*
X115000000Y-106600000D03*
%TO.N,/Backlight Regul\u00E1tor*%
X153100000Y-84400000D03*
X162000000Y-104600000D03*
%TO.N,/Baterka Nap\u011Bt\u00ED*%
X152800000Y-85500000D03*
X194900000Y-108700000D03*
%TO.N,/pb0*%
X158800000Y-90400000D03*
%TO.N,/sda*%
X133918579Y-94953474D03*
X109400000Y-88500000D03*
X148600000Y-84900000D03*
X126855025Y-95944975D03*
%TO.N,+3.3V LCD*%
X108400000Y-97700000D03*
X108400000Y-89600000D03*
%TO.N,/sdo*%
X98600000Y-99400000D03*
X98600000Y-86400000D03*
%TO.N,/Vled+*%
X101400000Y-97700000D03*
X101300000Y-91200000D03*
%TO.N,/sdo*%
X144700000Y-85300000D03*
X127800000Y-97100000D03*
X134700000Y-95400000D03*
X100600000Y-99841000D03*
%TO.N,/sw1*%
X150800000Y-115100000D03*
X156600000Y-126900000D03*
%TO.N,/uart rx*%
X144500000Y-88700000D03*
X135500000Y-96200000D03*
%TO.N,/uart tx*%
X138200000Y-95000000D03*
X136300000Y-97100000D03*
X139694975Y-96894975D03*
X145500000Y-91500000D03*
%TO.N,/pa2*%
X154000000Y-82000000D03*
X151000000Y-84800000D03*
%TO.N,/sd cs*%
X138100000Y-96100000D03*
X144605025Y-90005025D03*
%TO.N,/I2C_SDA*%
X154899677Y-91486557D03*
X131600000Y-99700000D03*
X124700000Y-90700000D03*
X140500000Y-104000000D03*
%TO.N,/I2C_SCL*%
X139400000Y-105100000D03*
X154600000Y-87800000D03*
X132700000Y-99500000D03*
X115200000Y-81900000D03*
%TO.N,/sw2*%
X154300000Y-94700000D03*
X154300000Y-116900000D03*
%TO.N,/pb0*%
X165700000Y-84400000D03*
X189500000Y-84400000D03*
%TO.N,/rst*%
X137400000Y-98200000D03*
X136100000Y-99500000D03*
X99700000Y-89400000D03*
X153900000Y-91400000D03*
%TO.N,/pb1*%
X192100000Y-79400000D03*
X192100000Y-83400000D03*
X161300000Y-83500000D03*
X153800000Y-83300000D03*
%TO.N,/pb0*%
X153100000Y-86600000D03*
X189500000Y-75800000D03*
%TO.N,/sw3*%
X140200000Y-123300000D03*
X147400000Y-123200000D03*
%TO.N,/sw2*%
X146100000Y-121100000D03*
X152100000Y-88200000D03*
%TO.N,/sd cs*%
X138500000Y-117600000D03*
X138500000Y-115300000D03*
X114000000Y-125100000D03*
X138400000Y-104000000D03*
%TO.N,/wr*%
X115000000Y-102000000D03*
X151100000Y-87300000D03*
%TO.N,/sd clk*%
X152000000Y-116500000D03*
X110600000Y-116700000D03*
%TO.N,/href*%
X139700000Y-102000000D03*
X122300000Y-84300000D03*
%TO.N,GND*%
X153100000Y-64000000D03*
X141900000Y-74800000D03*
%TO.N,+BATT*%
X179000000Y-130000000D03*
X179000000Y-127000000D03*
%TO.N,GND*%
X149100000Y-88400000D03*
X164600000Y-118500000D03*
X155500000Y-88300000D03*
X183100000Y-121400000D03*
X188700000Y-118600000D03*
X173093601Y-90050002D03*
X190700000Y-121000000D03*
X148200000Y-86000000D03*
X191200000Y-109700000D03*
X166700000Y-121400000D03*
X176900000Y-121400000D03*
X176500000Y-113200000D03*
X149200000Y-80200000D03*
X132500000Y-90800000D03*
%TD*%
D44*
%TO.N,GND*%
X148350002Y-95150002D02*
X149200000Y-96000000D01*
X148350002Y-93406399D02*
X148350002Y-95150002D01*
X145281421Y-89118579D02*
X145281421Y-89146526D01*
X145400000Y-89000000D02*
X145281421Y-89118579D01*
D45*
%TO.N,/Baterka Nap\u011Bt\u00ED*%
X192350002Y-119000000D02*
X192350002Y-117000000D01*
%TO.N,Net-(R18-Pad2)*%
X120000000Y-123000000D02*
X122000000Y-123000000D01*
%TO.N,Net-(R19-Pad2)*%
X116000000Y-123000000D02*
X118000000Y-123000000D01*
%TO.N,Net-(R15-Pad2)*%
X120000000Y-127000000D02*
X122000000Y-127000000D01*
%TO.N,Net-(R16-Pad2)*%
X116000000Y-127000000D02*
X118000000Y-127000000D01*
%TO.N,VBUS*%
X190350002Y-98368899D02*
X190350002Y-95949998D01*
X190350002Y-95949998D02*
X192800000Y-93500000D01*
X192800000Y-93500000D02*
X192800000Y-88400000D01*
D44*
%TO.N,+3.3V*%
X161350002Y-78368899D02*
X161350002Y-76549998D01*
X161350002Y-76549998D02*
X161500000Y-76400000D01*
X161200000Y-68600000D02*
X162430002Y-67369998D01*
X162430002Y-67369998D02*
X162430002Y-64000000D01*
X176068899Y-78368899D02*
X176100000Y-78400000D01*
X161350002Y-78368899D02*
X176068899Y-78368899D01*
D45*
X159700000Y-98100000D02*
X159200000Y-98600000D01*
X159700000Y-92761399D02*
X159700000Y-98100000D01*
X165738601Y-92761399D02*
X159700000Y-92761399D01*
X159200000Y-98600000D02*
X155300000Y-98600000D01*
X150100000Y-98700000D02*
X150100000Y-97900000D01*
X150100000Y-97900000D02*
X150276101Y-97723899D01*
X159700000Y-92761399D02*
X157350002Y-92761399D01*
X166350002Y-116368899D02*
X166350002Y-111099940D01*
X175900000Y-101549942D02*
X175900000Y-92000000D01*
X166200000Y-92300000D02*
X165738601Y-92761399D01*
X166350002Y-111099940D02*
X175900000Y-101549942D01*
X173700000Y-92000000D02*
X169800000Y-92000000D01*
X146236951Y-76836951D02*
X147312502Y-75761399D01*
X145000000Y-75600000D02*
X145000000Y-72521949D01*
X146236951Y-76836951D02*
X145000000Y-75600000D01*
X142300000Y-80100000D02*
X142726103Y-80100000D01*
X142300000Y-80100000D02*
X142973901Y-80100000D01*
X142973901Y-80100000D02*
X146236951Y-76836951D01*
D44*
%TO.N,/I2C_SDA*%
X126400000Y-74500000D02*
X126300000Y-74400000D01*
X126900000Y-74500000D02*
X126400000Y-74500000D01*
X126300000Y-74400000D02*
X122500000Y-74400000D01*
X122700000Y-79700000D02*
X122800000Y-79700000D01*
X122100000Y-80300000D02*
X122700000Y-79700000D01*
X122800000Y-79700000D02*
X126900000Y-79700000D01*
X122000000Y-81500000D02*
X122100000Y-81400000D01*
X122100000Y-81400000D02*
X122100000Y-80300000D01*
D45*
%TO.N,GND*%
X121206399Y-71406399D02*
X120700000Y-70900000D01*
X128350002Y-71406399D02*
X121206399Y-71406399D01*
X121780000Y-79020000D02*
X121900000Y-78900000D01*
X120000000Y-79020000D02*
X121780000Y-79020000D01*
%TO.N,+3.3V*%
X120500000Y-74400000D02*
X120500000Y-74550058D01*
X120500000Y-74550058D02*
X122349942Y-76400000D01*
X122349942Y-76400000D02*
X126000000Y-76400000D01*
X129600000Y-90600000D02*
X129600000Y-88156401D01*
X129600000Y-88156401D02*
X130350002Y-87406399D01*
X130620002Y-83956399D02*
X134743601Y-83956399D01*
X134743601Y-83956399D02*
X136000000Y-82700000D01*
X142726103Y-80100000D02*
X143350002Y-80723899D01*
X140800000Y-80100000D02*
X142300000Y-80100000D01*
X130620002Y-83956399D02*
X130620002Y-87136399D01*
X130620002Y-87136399D02*
X130350002Y-87406399D01*
%TO.N,GND*%
X128080002Y-74856399D02*
X128080002Y-71676399D01*
X128080002Y-71676399D02*
X128350002Y-71406399D01*
%TO.N,+3.3V*%
X117100000Y-74600000D02*
X120300000Y-74600000D01*
X120300000Y-74600000D02*
X120500000Y-74400000D01*
X114000000Y-78720000D02*
X114000000Y-77800000D01*
X114000000Y-77800000D02*
X114600000Y-77200000D01*
X113700000Y-82900000D02*
X113400000Y-82900000D01*
X111980000Y-78720000D02*
X114000000Y-78720000D01*
X113400000Y-82900000D02*
X110600000Y-80100000D01*
X114001000Y-93699000D02*
X115000000Y-92700000D01*
X114001000Y-97201000D02*
X114001000Y-93699000D01*
X110600000Y-80100000D02*
X111980000Y-78720000D01*
X124000000Y-110000000D02*
X121600000Y-107600000D01*
X121600000Y-107600000D02*
X114400000Y-107600000D01*
X114100000Y-106900000D02*
X114001000Y-106801000D01*
X114400000Y-107600000D02*
X114400000Y-107500000D01*
X114400000Y-107500000D02*
X114100000Y-107200000D01*
X114100000Y-107200000D02*
X114100000Y-106900000D01*
X114001000Y-97201000D02*
X114000000Y-97200000D01*
X114001000Y-106801000D02*
X114001000Y-97201000D01*
X114400000Y-96800000D02*
X117460000Y-96800000D01*
X114000000Y-97200000D02*
X114400000Y-96800000D01*
%TO.N,Net-(R21-Pad2)*%
X120000000Y-110000000D02*
X122000000Y-110000000D01*
%TO.N,Net-(R22-Pad2)*%
X116000000Y-110000000D02*
X118000000Y-110000000D01*
%TO.N,+3.3V*%
X125200000Y-119000000D02*
X126501000Y-117699000D01*
X126501000Y-117699000D02*
X126501000Y-112501000D01*
X126501000Y-112501000D02*
X124000000Y-110000000D01*
X125500000Y-122900000D02*
X125500000Y-120700000D01*
X125200000Y-119000000D02*
X124825000Y-119375000D01*
X124825000Y-119375000D02*
X108706401Y-119375000D01*
X125600000Y-123000000D02*
X125500000Y-122900000D01*
X125400000Y-123000000D02*
X124000000Y-123000000D01*
X125600000Y-127000000D02*
X125600000Y-123000000D01*
X125500000Y-122900000D02*
X125400000Y-123000000D01*
X135400000Y-128700000D02*
X127300000Y-128700000D01*
X127300000Y-128700000D02*
X125600000Y-127000000D01*
X125600000Y-127000000D02*
X124000000Y-127000000D01*
X145100000Y-124900000D02*
X141700000Y-124900000D01*
X141700000Y-124900000D02*
X137900000Y-128700000D01*
X135400000Y-128700000D02*
X135400000Y-127369000D01*
X135400000Y-127369000D02*
X135000000Y-126969000D01*
X153000000Y-124900000D02*
X147000000Y-124900000D01*
X145100000Y-125869000D02*
X144000000Y-126969000D01*
X145100000Y-124900000D02*
X145100000Y-125869000D01*
X166350002Y-116368899D02*
X162831101Y-116368899D01*
X161000000Y-116900000D02*
X153000000Y-124900000D01*
X162831101Y-116368899D02*
X162800000Y-116400000D01*
X161000000Y-116400000D02*
X161000000Y-116900000D01*
X153000000Y-124900000D02*
X153000000Y-126969000D01*
%TO.N,GND*%
X158600000Y-101200000D02*
X159100000Y-101700000D01*
X146611948Y-99798899D02*
X148161549Y-101348500D01*
X146350002Y-99798899D02*
X146611948Y-99798899D01*
X155800000Y-101200000D02*
X158600000Y-101200000D01*
D44*
X145600000Y-88800000D02*
X145400000Y-89000000D01*
X148700000Y-88800000D02*
X145600000Y-88800000D01*
X149100000Y-88400000D02*
X148700000Y-88800000D01*
D45*
X184350002Y-98406399D02*
X185189203Y-98406399D01*
X185189203Y-98406399D02*
X186233903Y-97361699D01*
D44*
X166400000Y-80443899D02*
X161350002Y-80443899D01*
%TO.N,/Reset*%
X128080002Y-83956399D02*
X128080002Y-87136399D01*
X128080002Y-87136399D02*
X128350002Y-87406399D01*
X137300000Y-81800000D02*
X128100000Y-81800000D01*
X128100000Y-81800000D02*
X128080002Y-81819998D01*
X128080002Y-81819998D02*
X128080002Y-83956399D01*
X142700000Y-84500000D02*
X140000000Y-84500000D01*
X148388601Y-83511399D02*
X148900000Y-83000000D01*
X140000000Y-84500000D02*
X137300000Y-81800000D01*
X146675002Y-83511399D02*
X148388601Y-83511399D01*
D45*
%TO.N,GND*%
X139898899Y-82798899D02*
X139700000Y-82600000D01*
X143350002Y-82798899D02*
X139898899Y-82798899D01*
%TO.N,+3.3V*%
X114000000Y-78720000D02*
X117160000Y-78720000D01*
X117160000Y-78720000D02*
X117460000Y-79020000D01*
%TO.N,+3.3V LCD*%
X94900000Y-91700000D02*
X94900000Y-90100000D01*
X98700000Y-106400000D02*
X96100000Y-103800000D01*
X95500000Y-90100000D02*
X96000000Y-89600000D01*
X100900000Y-106400000D02*
X98700000Y-106400000D01*
X94900000Y-90100000D02*
X95500000Y-90100000D01*
X96100000Y-103800000D02*
X96100000Y-92900000D01*
X96100000Y-92900000D02*
X94900000Y-91700000D01*
D44*
%TO.N,/im3*%
X103200000Y-85100000D02*
X96200000Y-85100000D01*
X96000000Y-85600000D02*
X96000000Y-87600000D01*
X96200000Y-85100000D02*
X96200000Y-85400000D01*
X96200000Y-85400000D02*
X96000000Y-85600000D01*
D45*
%TO.N,GND*%
X106000000Y-86600000D02*
X105048000Y-86600000D01*
X105048000Y-86600000D02*
X104750000Y-86302000D01*
X104750000Y-86302000D02*
X104750000Y-84600000D01*
X106000000Y-84600000D02*
X104750000Y-84600000D01*
X104750000Y-84600000D02*
X104600000Y-84450000D01*
X104600000Y-84450000D02*
X104600000Y-82100000D01*
X103200000Y-82100000D02*
X104600000Y-82100000D01*
X103200000Y-90100000D02*
X104000000Y-90100000D01*
X104000000Y-90100000D02*
X105500000Y-91600000D01*
X105500000Y-91600000D02*
X106000000Y-91600000D01*
X106000000Y-90600000D02*
X107500000Y-90600000D01*
X107500000Y-90600000D02*
X107500000Y-91600000D01*
X106000000Y-91600000D02*
X107500000Y-91600000D01*
X108706401Y-114375000D02*
X106425000Y-114375000D01*
X106425000Y-114375000D02*
X106100000Y-114700000D01*
X106100000Y-114700000D02*
X106100000Y-122100000D01*
X106100000Y-122100000D02*
X106500000Y-122100000D01*
X106500000Y-122100000D02*
X106725000Y-121875000D01*
X106725000Y-121875000D02*
X108706401Y-121875000D01*
X113100000Y-114200000D02*
X112900000Y-114000000D01*
X123500000Y-106700000D02*
X125800000Y-109000000D01*
X121180000Y-101880000D02*
X121200000Y-101900000D01*
X125700000Y-114200000D02*
X113100000Y-114200000D01*
X110200000Y-114100000D02*
X108981401Y-114100000D01*
X123500000Y-101900000D02*
X123500000Y-106700000D01*
X120000000Y-101880000D02*
X121180000Y-101880000D01*
X108981401Y-114100000D02*
X108706401Y-114375000D01*
%TO.N,+3.3V LCD*%
X100900000Y-106400000D02*
X105000000Y-102300000D01*
X100900000Y-113400000D02*
X101000000Y-113300000D01*
X168400000Y-141300000D02*
X168300000Y-141400000D01*
X168400000Y-132300000D02*
X168400000Y-141300000D01*
X167700000Y-140800000D02*
X100900000Y-140800000D01*
X100900000Y-140800000D02*
X100900000Y-113400000D01*
X168300000Y-141400000D02*
X167700000Y-140800000D01*
X168350002Y-123443899D02*
X168350002Y-128950002D01*
X168350002Y-128950002D02*
X168400000Y-129000000D01*
X100900000Y-110500000D02*
X100900000Y-106400000D01*
X105000000Y-102300000D02*
X105000000Y-97600000D01*
D44*
%TO.N,GND*%
X194656399Y-80756399D02*
X194600000Y-80700000D01*
X197340000Y-80756399D02*
X194656399Y-80756399D01*
%TO.N,VBUS*%
X197340000Y-83356399D02*
X193043604Y-83356399D01*
X193043604Y-83356399D02*
X193000003Y-83400000D01*
X192800000Y-88400000D02*
X192781399Y-88381399D01*
X192781399Y-88381399D02*
X188350002Y-88381399D01*
D45*
X186350002Y-88406399D02*
X188325002Y-88406399D01*
X188325002Y-88406399D02*
X188350002Y-88381399D01*
X184350002Y-88381399D02*
X186325002Y-88381399D01*
X186325002Y-88381399D02*
X186350002Y-88406399D01*
%TO.N,Net-(D1-K)*%
X188350002Y-92406399D02*
X188350002Y-90431399D01*
%TO.N,Net-(D2-K)*%
X186350002Y-92406399D02*
X186350002Y-90456399D01*
%TO.N,/Indik\u00E1tor Nab\u00EDjen\u00ED*%
X183100000Y-96300000D02*
X184400000Y-95000000D01*
X182800000Y-96300000D02*
X183100000Y-96300000D01*
X184350002Y-103050002D02*
X182700000Y-101400000D01*
X184350002Y-94950002D02*
X184350002Y-90431399D01*
X184350002Y-104406399D02*
X184350002Y-103050002D01*
X182700000Y-101400000D02*
X182800000Y-101300000D01*
X182800000Y-101300000D02*
X182800000Y-96300000D01*
X184400000Y-95000000D02*
X184350002Y-94950002D01*
%TO.N,GND*%
X193531101Y-100368899D02*
X194200000Y-99700000D01*
X192350002Y-100368899D02*
X193531101Y-100368899D01*
X190350002Y-100443899D02*
X192275002Y-100443899D01*
X192275002Y-100443899D02*
X192350002Y-100368899D01*
X184350002Y-96950002D02*
X184300000Y-96900000D01*
X184350002Y-98406399D02*
X184350002Y-96950002D01*
%TO.N,+BATT*%
X192350002Y-102443899D02*
X188958902Y-102443899D01*
X188958902Y-102443899D02*
X187966102Y-101451099D01*
%TO.N,VBUS*%
X190350002Y-98368899D02*
X188973302Y-98368899D01*
X188973302Y-98368899D02*
X187966102Y-97361699D01*
D46*
%TO.N,Net-(U2-STAT2)*%
X186850003Y-96450003D02*
X186200000Y-95800000D01*
X186850003Y-97361699D02*
X186850003Y-96450003D01*
X186200000Y-95800000D02*
X186350002Y-95649998D01*
X186350002Y-95649998D02*
X186350002Y-94406399D01*
%TO.N,Net-(U2-STAT1)*%
X187588201Y-96100000D02*
X188200000Y-96100000D01*
X187350002Y-96338199D02*
X187588201Y-96100000D01*
X188200000Y-96100000D02*
X188350002Y-95949998D01*
X187350002Y-97361699D02*
X187350002Y-96338199D01*
X188350002Y-95949998D02*
X188350002Y-94406399D01*
%TO.N,Net-(U2-THERM)*%
X187350002Y-101451099D02*
X187350002Y-102450002D01*
X187350002Y-102450002D02*
X188800000Y-103900000D01*
X188800000Y-103900000D02*
X188750002Y-103949998D01*
X188750002Y-103949998D02*
X188750002Y-107106399D01*
%TO.N,Net-(U2-PROG)*%
X186350001Y-101451099D02*
X185394702Y-101451099D01*
X185394702Y-101451099D02*
X184350002Y-100406399D01*
%TO.N,Net-(U2-\u002APG)*%
X186850003Y-101451099D02*
X186850003Y-103906398D01*
X186850003Y-103906398D02*
X186350002Y-104406399D01*
D44*
%TO.N,/pb12*%
X170000000Y-98400000D02*
X172600000Y-95800000D01*
X162000000Y-101700000D02*
X166000000Y-101700000D01*
X172600000Y-95800000D02*
X174700000Y-93700000D01*
X166000000Y-101700000D02*
X166100000Y-101800000D01*
X158025002Y-88011399D02*
X159211399Y-88011399D01*
X174700000Y-93700000D02*
X174700000Y-85300000D01*
X159211399Y-88011399D02*
X161900000Y-90700000D01*
X170000000Y-101900000D02*
X170000000Y-98400000D01*
%TO.N,/scl*%
X111700000Y-115200000D02*
X111700000Y-112700000D01*
X96900000Y-91100000D02*
X99900000Y-88100000D01*
X99900000Y-88100000D02*
X103200000Y-88100000D01*
X158025002Y-87511399D02*
X160111399Y-87511399D01*
X163500000Y-105400000D02*
X163500000Y-108100000D01*
X160111399Y-87511399D02*
X163100000Y-90500000D01*
X163500000Y-108100000D02*
X162800000Y-108800000D01*
X149000000Y-109300000D02*
X149000000Y-114900000D01*
X139099000Y-114599000D02*
X137601000Y-114599000D01*
X149000000Y-114900000D02*
X148900000Y-115000000D01*
X139600000Y-115100000D02*
X139099000Y-114599000D01*
X137601000Y-114599000D02*
X137000000Y-115200000D01*
%TO.N,/pb14*%
X161111399Y-87011399D02*
X161400000Y-87300000D01*
X158025002Y-87011399D02*
X161111399Y-87011399D01*
X166800000Y-70400000D02*
X166800000Y-68981397D01*
X166800000Y-68981397D02*
X166625002Y-68806399D01*
%TO.N,/d0*%
X137600000Y-113800000D02*
X137500000Y-113700000D01*
X158025002Y-86011399D02*
X162288601Y-86011399D01*
X169100000Y-107500000D02*
X162900000Y-113700000D01*
X162288601Y-86011399D02*
X162500000Y-85800000D01*
X169100000Y-88200000D02*
X169100000Y-107500000D01*
X121800000Y-98100000D02*
X121800000Y-94000000D01*
X122500000Y-98800000D02*
X121800000Y-98100000D01*
X127900000Y-111900000D02*
X127900000Y-99000000D01*
X139400000Y-113800000D02*
X137600000Y-113800000D01*
%TO.N,/d1*%
X115200000Y-94100000D02*
X117300000Y-94100000D01*
X117300000Y-94100000D02*
X117460000Y-94260000D01*
X158000000Y-67700000D02*
X156000000Y-65700000D01*
X131800000Y-77200000D02*
X123600000Y-77200000D01*
X123600000Y-77200000D02*
X122300000Y-77200000D01*
X154900000Y-84500000D02*
X154900000Y-82500000D01*
X122300000Y-77200000D02*
X121700000Y-76600000D01*
X155911399Y-85511399D02*
X154900000Y-84500000D01*
X154900000Y-82500000D02*
X155100000Y-82300000D01*
X135800000Y-73200000D02*
X131800000Y-77200000D01*
X156000000Y-65700000D02*
X136000000Y-65700000D01*
X158025002Y-85511399D02*
X155911399Y-85511399D01*
X121700000Y-76600000D02*
X121500000Y-76400000D01*
X121500000Y-76400000D02*
X112300000Y-76400000D01*
%TO.N,/d2*%
X168300000Y-86700000D02*
X168300000Y-106700000D01*
X126900000Y-97400000D02*
X126500000Y-97000000D01*
X126900000Y-103900000D02*
X126900000Y-97400000D01*
X122800000Y-96500000D02*
X122800000Y-92000000D01*
X139300000Y-112100000D02*
X137500000Y-112100000D01*
X163511399Y-85011399D02*
X163900000Y-85400000D01*
X126900000Y-109000000D02*
X126900000Y-107000000D01*
X158025002Y-85011399D02*
X163511399Y-85011399D01*
X168300000Y-106700000D02*
X162800000Y-112200000D01*
%TO.N,/d3*%
X113980000Y-91720000D02*
X117460000Y-91720000D01*
X167300000Y-105800000D02*
X162700000Y-110400000D01*
X167300000Y-85600000D02*
X167300000Y-105800000D01*
X137600000Y-110700000D02*
X137500000Y-110600000D01*
X158025002Y-84511399D02*
X164211399Y-84511399D01*
X139200000Y-110700000D02*
X137600000Y-110700000D01*
X164211399Y-84511399D02*
X165100000Y-85400000D01*
X113400000Y-107700000D02*
X113400000Y-92300000D01*
X113400000Y-92300000D02*
X113980000Y-91720000D01*
%TO.N,/pa8*%
X165200000Y-76400000D02*
X181900000Y-76400000D01*
X159488601Y-84011399D02*
X160200000Y-83300000D01*
X158025002Y-84011399D02*
X159488601Y-84011399D01*
X181865002Y-73634998D02*
X181865002Y-68806399D01*
X181800000Y-73700000D02*
X181865002Y-73634998D01*
%TO.N,/pa9*%
X156888601Y-83511399D02*
X156400000Y-84000000D01*
X158025002Y-83511399D02*
X156888601Y-83511399D01*
X178900000Y-73700000D02*
X179325002Y-73274998D01*
X162700000Y-73700000D02*
X178900000Y-73700000D01*
X179325002Y-73274998D02*
X179325002Y-68806399D01*
%TO.N,/pa10*%
X174800000Y-72000000D02*
X176800000Y-70000000D01*
X176800000Y-70000000D02*
X176800000Y-68821397D01*
X176800000Y-68821397D02*
X176785002Y-68806399D01*
X156011399Y-83011399D02*
X156000000Y-83000000D01*
X160000000Y-71900000D02*
X171800000Y-71900000D01*
X158025002Y-83011399D02*
X156011399Y-83011399D01*
X171800000Y-71900000D02*
X172000000Y-72100000D01*
%TO.N,/pa15*%
X155600002Y-78586399D02*
X155600002Y-74999998D01*
X186945002Y-74654998D02*
X186945002Y-68806399D01*
X155600002Y-74999998D02*
X156000000Y-74600000D01*
X157900000Y-74600000D02*
X183300000Y-74600000D01*
X183300000Y-74600000D02*
X183600000Y-74900000D01*
X186800000Y-74800000D02*
X186945002Y-74654998D01*
%TO.N,/swclk*%
X156100002Y-76400002D02*
X156100002Y-78586399D01*
X157200000Y-74600000D02*
X157000000Y-74800000D01*
X157200000Y-73700000D02*
X157200000Y-74600000D01*
X157000000Y-74800000D02*
X157000000Y-75500004D01*
X157000000Y-75500004D02*
X156100002Y-76400002D01*
%TO.N,/pc10*%
X155100002Y-78586399D02*
X155100002Y-72999998D01*
X155100002Y-72999998D02*
X155300000Y-72800000D01*
X155300000Y-72800000D02*
X172600000Y-72800000D01*
X172600000Y-72800000D02*
X174245002Y-71154998D01*
X174245002Y-71154998D02*
X174245002Y-68806399D01*
%TO.N,/d4*%
X155000000Y-67000000D02*
X154400000Y-66400000D01*
X123100000Y-81100000D02*
X123100000Y-89200000D01*
X154600002Y-72099998D02*
X155200000Y-71500000D01*
X123100000Y-89200000D02*
X123000000Y-89300000D01*
X154600002Y-78586399D02*
X154600002Y-72099998D01*
X132200000Y-66400000D02*
X123900000Y-66400000D01*
X154400000Y-66400000D02*
X134700000Y-66400000D01*
X123900000Y-66400000D02*
X122800000Y-67500000D01*
X121500000Y-89200000D02*
X120020000Y-89200000D01*
X120020000Y-89200000D02*
X120000000Y-89180000D01*
%TO.N,/rck*%
X124000000Y-67600000D02*
X124000000Y-67700000D01*
X124200000Y-67400000D02*
X124000000Y-67600000D01*
X124100000Y-82400000D02*
X123700000Y-82800000D01*
X121400000Y-99600000D02*
X120260000Y-99600000D01*
X123700000Y-82800000D02*
X123700000Y-99700000D01*
X120260000Y-99600000D02*
X120000000Y-99340000D01*
%TO.N,/I2C_SDA*%
X122000000Y-81500000D02*
X121262081Y-81500000D01*
X124700000Y-85057919D02*
X124700000Y-84900000D01*
X121262081Y-81500000D02*
X121202081Y-81560000D01*
%TO.N,/rck*%
X153300000Y-67700000D02*
X135100000Y-67700000D01*
X135100000Y-67700000D02*
X134900000Y-67500000D01*
X132800000Y-67400000D02*
X124200000Y-67400000D01*
X154100002Y-71400000D02*
X154300002Y-71200000D01*
X154100002Y-78586399D02*
X154100002Y-71400000D01*
%TO.N,/pd2*%
X153600002Y-78586399D02*
X153600002Y-70099998D01*
X153600002Y-70099998D02*
X154100000Y-69600000D01*
X154100000Y-69600000D02*
X163500000Y-69600000D01*
X163500000Y-69600000D02*
X165000000Y-71100000D01*
X165000000Y-71100000D02*
X171500000Y-71100000D01*
X171500000Y-71100000D02*
X171705002Y-70894998D01*
X171705002Y-70894998D02*
X171705002Y-68806399D01*
%TO.N,/csx*%
X153100002Y-80599998D02*
X153100000Y-80600000D01*
X106100000Y-87700000D02*
X106000000Y-87600000D01*
X153200000Y-69200000D02*
X152600000Y-68600000D01*
X132800000Y-68600000D02*
X107800000Y-68600000D01*
X107600000Y-87700000D02*
X106100000Y-87700000D01*
X153100002Y-78586399D02*
X153100002Y-80599998D01*
X152600000Y-68600000D02*
X134700000Y-68600000D01*
X107800000Y-68600000D02*
X107600000Y-68800000D01*
%TO.N,/sd miso*%
X150300000Y-71600000D02*
X150200000Y-71500000D01*
X150200000Y-71500000D02*
X133700000Y-71500000D01*
X133700000Y-71500000D02*
X133700000Y-65900000D01*
X133700000Y-65900000D02*
X133500000Y-65700000D01*
X133500000Y-65700000D02*
X91500000Y-65700000D01*
X91500000Y-65700000D02*
X91400000Y-65600000D01*
D45*
%TO.N,+3.3V*%
X147000000Y-72521949D02*
X149000000Y-72521949D01*
X143000000Y-72521949D02*
X145000000Y-72521949D01*
X147000000Y-72521949D02*
X147000000Y-72878050D01*
%TO.N,GND*%
X147000000Y-70446949D02*
X149000000Y-70446949D01*
%TO.N,+3.3V*%
X145000000Y-72521949D02*
X147000000Y-72521949D01*
%TO.N,GND*%
X143000000Y-70446949D02*
X145000000Y-70446949D01*
X141000000Y-70446949D02*
X143000000Y-70446949D01*
X145000000Y-70446949D02*
X147000000Y-70446949D01*
%TO.N,+3.3V*%
X141000000Y-72521949D02*
X143000000Y-72521949D01*
%TO.N,GND*%
X141000000Y-70446949D02*
X138831101Y-70446949D01*
X138831101Y-70446949D02*
X138800000Y-70478050D01*
D44*
%TO.N,/sd miso*%
X108706401Y-111950001D02*
X112049999Y-111950001D01*
X112049999Y-111950001D02*
X114000000Y-110000000D01*
X152600002Y-78586399D02*
X152600002Y-76900002D01*
X152600002Y-76900002D02*
X152600000Y-76900000D01*
X91400000Y-111400000D02*
X91950001Y-111950001D01*
X91950001Y-111950001D02*
X108706401Y-111950001D01*
%TO.N,/wrx d{slash}cx*%
X146000000Y-65000000D02*
X99700000Y-65000000D01*
X146944975Y-64055025D02*
X146000000Y-65000000D01*
X100300000Y-87100000D02*
X103200000Y-87100000D01*
X100200000Y-87200000D02*
X100300000Y-87100000D01*
X152100002Y-78586399D02*
X152100002Y-81999998D01*
X152100002Y-81999998D02*
X152100000Y-82000000D01*
X99700000Y-87200000D02*
X100200000Y-87200000D01*
%TO.N,/d5*%
X151600002Y-80599998D02*
X151400000Y-80800000D01*
X112300000Y-63500000D02*
X111500000Y-64300000D01*
X111500000Y-89200000D02*
X111520000Y-89180000D01*
X145400000Y-63500000D02*
X112300000Y-63500000D01*
X151600002Y-78586399D02*
X151600002Y-80599998D01*
X111520000Y-89180000D02*
X117460000Y-89180000D01*
%TO.N,/vsync*%
X146600000Y-62400000D02*
X146300000Y-62400000D01*
X145900000Y-62800000D02*
X110500000Y-62800000D01*
X152400000Y-75700000D02*
X152400000Y-75300000D01*
X147100000Y-61200000D02*
X146600000Y-61700000D01*
X152800000Y-74900000D02*
X152800000Y-74200000D01*
X152800000Y-74200000D02*
X152500000Y-73900000D01*
X152400000Y-76008520D02*
X152400000Y-75700000D01*
X152154260Y-76254260D02*
X152400000Y-76008520D01*
X146600000Y-61700000D02*
X146600000Y-62400000D01*
X151100002Y-77308518D02*
X152154260Y-76254260D01*
X146300000Y-62400000D02*
X145900000Y-62800000D01*
X152400000Y-75300000D02*
X152800000Y-74900000D01*
X151100002Y-78586399D02*
X151100002Y-77308518D01*
X110500000Y-84600000D02*
X111000000Y-84100000D01*
X111000000Y-84100000D02*
X117460000Y-84100000D01*
%TO.N,/boot0*%
X130350002Y-71406399D02*
X130350002Y-71650002D01*
X130350002Y-71650002D02*
X130620002Y-71920002D01*
X130620002Y-71920002D02*
X130620002Y-74856399D01*
X150600002Y-80099998D02*
X150500000Y-80200000D01*
X150600002Y-78586399D02*
X150600002Y-80099998D01*
X130400000Y-71356401D02*
X130350002Y-71406399D01*
X130400000Y-69400000D02*
X130400000Y-71356401D01*
%TO.N,/d6*%
X150100002Y-78586399D02*
X150100002Y-77599998D01*
X108900000Y-87400000D02*
X116521529Y-87400000D01*
X150100002Y-77599998D02*
X151900000Y-75800000D01*
X145600000Y-60800000D02*
X109100000Y-60800000D01*
X109100000Y-60800000D02*
X108300000Y-61600000D01*
X116962529Y-87841000D02*
X118799000Y-87841000D01*
X116521529Y-87400000D02*
X116962529Y-87841000D01*
X151900000Y-75800000D02*
X151900000Y-74800000D01*
X151900000Y-74800000D02*
X151800000Y-74700000D01*
X118799000Y-87841000D02*
X120000000Y-86640000D01*
%TO.N,/d7*%
X151000000Y-75900000D02*
X151000000Y-75400000D01*
X150700000Y-76200000D02*
X151000000Y-75900000D01*
X109600000Y-86500000D02*
X110000000Y-86500000D01*
X109600000Y-61600000D02*
X109500000Y-61700000D01*
X145500000Y-61600000D02*
X109600000Y-61600000D01*
X149600002Y-78586399D02*
X149600002Y-77299998D01*
X110140000Y-86640000D02*
X117460000Y-86640000D01*
X149600002Y-77299998D02*
X150700000Y-76200000D01*
X145600000Y-61700000D02*
X145500000Y-61600000D01*
X110000000Y-86500000D02*
X110140000Y-86640000D01*
%TO.N,/swclk*%
X156900000Y-65600000D02*
X156900000Y-64450002D01*
X156900000Y-64450002D02*
X157350002Y-64000000D01*
%TO.N,/swdio*%
X163575000Y-81511399D02*
X163700000Y-81386399D01*
X158025002Y-81511399D02*
X163575000Y-81511399D01*
X160000000Y-66000000D02*
X160000000Y-64109998D01*
X160000000Y-64109998D02*
X159890002Y-64000000D01*
%TO.N,/rrst*%
X124400000Y-95600000D02*
X124400000Y-104500000D01*
X124400000Y-104500000D02*
X124600000Y-104700000D01*
X119900000Y-104520000D02*
X120000000Y-104420000D01*
X127000000Y-93000000D02*
X124400000Y-95600000D01*
X147888601Y-81011399D02*
X148300000Y-80600000D01*
X132100000Y-93000000D02*
X127000000Y-93000000D01*
X146675002Y-81011399D02*
X147888601Y-81011399D01*
X119900000Y-105800000D02*
X119900000Y-104520000D01*
%TO.N,/wrst*%
X133000000Y-94000000D02*
X127500000Y-94000000D01*
X115300000Y-104500000D02*
X115380000Y-104420000D01*
X127500000Y-94000000D02*
X125700000Y-95800000D01*
X115000000Y-106600000D02*
X115000000Y-104500000D01*
X149688601Y-81511399D02*
X150100000Y-81100000D01*
X146675002Y-81511399D02*
X149688601Y-81511399D01*
X125700000Y-95800000D02*
X125700000Y-105000000D01*
X115000000Y-104500000D02*
X115300000Y-104500000D01*
X115380000Y-104420000D02*
X117460000Y-104420000D01*
%TO.N,/Backlight Regul\u00E1tor*%
X162000000Y-104600000D02*
X162000000Y-127525120D01*
X162000000Y-127525120D02*
X162374880Y-127900000D01*
X175899000Y-142093550D02*
X176737500Y-142932050D01*
X150711399Y-82011399D02*
X153100000Y-84400000D01*
X177705450Y-142932050D02*
X179000000Y-141637500D01*
X146675002Y-82011399D02*
X150711399Y-82011399D01*
X162374880Y-127900000D02*
X165700000Y-127900000D01*
X165700000Y-127900000D02*
X175899000Y-138099000D01*
X175899000Y-138099000D02*
X175899000Y-142093550D01*
X176737500Y-142932050D02*
X177705450Y-142932050D01*
%TO.N,/Baterka Nap\u011Bt\u00ED*%
X194900000Y-108700000D02*
X194900000Y-114450002D01*
X146675002Y-84011399D02*
X151311399Y-84011399D01*
X151311399Y-84011399D02*
X152800000Y-85500000D01*
X194900000Y-114450002D02*
X192350002Y-117000000D01*
%TO.N,/pb1*%
X153600002Y-87399998D02*
X153600002Y-89936399D01*
X153800000Y-83300000D02*
X153800000Y-87200000D01*
X153800000Y-87200000D02*
X153600002Y-87399998D01*
%TO.N,/pb0*%
X166100000Y-84800000D02*
X165700000Y-84400000D01*
X159851000Y-91451000D02*
X165605870Y-91451000D01*
X158800000Y-90400000D02*
X159851000Y-91451000D01*
X165605870Y-91451000D02*
X166100000Y-90956870D01*
X166100000Y-90956870D02*
X166100000Y-84800000D01*
%TO.N,/sda*%
X148211399Y-84511399D02*
X148600000Y-84900000D01*
X133918579Y-94953474D02*
X133546526Y-94953474D01*
X132244975Y-95944975D02*
X126855025Y-95944975D01*
X108900000Y-88500000D02*
X108800000Y-88600000D01*
X109400000Y-88500000D02*
X108900000Y-88500000D01*
X108800000Y-88600000D02*
X106000000Y-88600000D01*
X132400000Y-96100000D02*
X132244975Y-95944975D01*
X133546526Y-94953474D02*
X132400000Y-96100000D01*
X146675002Y-84511399D02*
X148211399Y-84511399D01*
D45*
%TO.N,+3.3V LCD*%
X106000000Y-89600000D02*
X108400000Y-89600000D01*
X108400000Y-97700000D02*
X105100000Y-97700000D01*
X105100000Y-97700000D02*
X105000000Y-97600000D01*
D44*
%TO.N,/sdo*%
X98600000Y-99900000D02*
X98600000Y-99400000D01*
D45*
%TO.N,/Vled+*%
X103200000Y-91100000D02*
X101400000Y-91100000D01*
X101400000Y-91100000D02*
X101300000Y-91200000D01*
X101400000Y-97700000D02*
X102900000Y-97700000D01*
X102900000Y-97700000D02*
X103000000Y-97600000D01*
D44*
%TO.N,/sdo*%
X133300000Y-97100000D02*
X127800000Y-97100000D01*
X133300000Y-96800000D02*
X133300000Y-97100000D01*
X146675002Y-85011399D02*
X144988601Y-85011399D01*
X100600000Y-99841000D02*
X100541000Y-99900000D01*
X98600000Y-86400000D02*
X98900000Y-86100000D01*
X134700000Y-95400000D02*
X133300000Y-96800000D01*
X144988601Y-85011399D02*
X144700000Y-85300000D01*
X98900000Y-86100000D02*
X103200000Y-86100000D01*
X100541000Y-99900000D02*
X98600000Y-99900000D01*
%TO.N,/sw1*%
X141274002Y-97130529D02*
X138901000Y-99503531D01*
X151500000Y-102900000D02*
X151500000Y-114400000D01*
X151400000Y-103000000D02*
X151500000Y-102900000D01*
X151500000Y-114400000D02*
X150800000Y-115100000D01*
X138901000Y-99503531D02*
X138901000Y-103000000D01*
X146675002Y-85511399D02*
X145788601Y-85511399D01*
X144600000Y-86010399D02*
X143781081Y-86010399D01*
X142599000Y-87192479D02*
X142599000Y-87700000D01*
X156600000Y-126900000D02*
X155069000Y-126900000D01*
X138901000Y-103000000D02*
X151400000Y-103000000D01*
X143781081Y-86010399D02*
X142599000Y-87192479D01*
X142599000Y-87700000D02*
X142599000Y-95805531D01*
X145289601Y-86010399D02*
X144600000Y-86010399D01*
X142599000Y-95805531D02*
X141274002Y-97130529D01*
X145788601Y-85511399D02*
X145289601Y-86010399D01*
X155069000Y-126900000D02*
X155000000Y-126969000D01*
%TO.N,/uart rx*%
X145688601Y-87511399D02*
X144500000Y-88700000D01*
X145500000Y-109300000D02*
X145500000Y-107200000D01*
X146675002Y-87511399D02*
X145688601Y-87511399D01*
X135500000Y-96200000D02*
X133900000Y-97800000D01*
X145600000Y-109400000D02*
X145500000Y-109300000D01*
X133900000Y-97800000D02*
X128800000Y-97800000D01*
X128800000Y-97800000D02*
X128800000Y-101000000D01*
X128800000Y-101000000D02*
X137200000Y-109400000D01*
X137200000Y-109400000D02*
X145600000Y-109400000D01*
%TO.N,/uart tx*%
X129600000Y-100400000D02*
X137300000Y-108100000D01*
X129600000Y-98500000D02*
X129600000Y-100400000D01*
X136300000Y-97100000D02*
X134900000Y-98500000D01*
X134900000Y-98500000D02*
X129600000Y-98500000D01*
X137300000Y-108100000D02*
X138200000Y-107200000D01*
X138200000Y-107200000D02*
X142960000Y-107200000D01*
X143601000Y-87699000D02*
X143601000Y-91092480D01*
X143900000Y-87400000D02*
X143601000Y-87699000D01*
X139694975Y-96494975D02*
X138200000Y-95000000D01*
X146675002Y-87011399D02*
X144288601Y-87011399D01*
X144288601Y-87011399D02*
X143900000Y-87400000D01*
X144008520Y-91500000D02*
X145500000Y-91500000D01*
X143601000Y-91092480D02*
X144008520Y-91500000D01*
X139694975Y-96894975D02*
X139694975Y-96494975D01*
%TO.N,/pa2*%
X147788601Y-88011399D02*
X148600000Y-87200000D01*
X154065935Y-82000000D02*
X160465935Y-75600000D01*
X146675002Y-88011399D02*
X147788601Y-88011399D01*
X148600000Y-87200000D02*
X151000000Y-84800000D01*
X154000000Y-82000000D02*
X154065935Y-82000000D01*
X184400000Y-75600000D02*
X184405002Y-75594998D01*
X160465935Y-75600000D02*
X184400000Y-75600000D01*
X184405002Y-75594998D02*
X184405002Y-68806399D01*
D46*
%TO.N,/USB_D-*%
X196221956Y-82486399D02*
X196241957Y-82506400D01*
X196241957Y-82506400D02*
X196349000Y-82506400D01*
X197216000Y-82582399D02*
X197340000Y-82706399D01*
%TO.N,/USB_D+*%
X196428324Y-82056399D02*
X197340000Y-82056399D01*
%TO.N,/USB_D-*%
X196349000Y-82506400D02*
X196349000Y-82582399D01*
X196349000Y-82582399D02*
X197216000Y-82582399D01*
%TO.N,/USB_D+*%
X159212503Y-82036399D02*
X196394162Y-82036399D01*
X158025002Y-82011399D02*
X159187503Y-82011399D01*
X196394182Y-82036419D02*
X196408344Y-82036419D01*
X159187503Y-82011399D02*
X159212503Y-82036399D01*
X196394162Y-82036399D02*
X196394182Y-82036419D01*
X196408344Y-82036419D02*
X196428324Y-82056399D01*
%TO.N,/USB_D-*%
X158025002Y-82511399D02*
X159187503Y-82511399D01*
X159187503Y-82511399D02*
X159212503Y-82486399D01*
X159212503Y-82486399D02*
X196221956Y-82486399D01*
D44*
%TO.N,+3.3VA*%
X143988601Y-86511399D02*
X143100000Y-87400000D01*
X146675002Y-86511399D02*
X143988601Y-86511399D01*
X143100000Y-87400000D02*
X143100000Y-91300000D01*
X143100000Y-91300000D02*
X144400000Y-92600000D01*
%TO.N,/sd cs*%
X138100000Y-96100000D02*
X138100000Y-97450058D01*
X146213659Y-89936399D02*
X144673651Y-89936399D01*
X144673651Y-89936399D02*
X144605025Y-90005025D01*
X138100000Y-97450058D02*
X138400000Y-97750058D01*
%TO.N,/I2C_SDA*%
X124700000Y-90700000D02*
X124700000Y-85057919D01*
X155100002Y-89936399D02*
X155100002Y-91286232D01*
X137701000Y-105801000D02*
X131600000Y-99700000D01*
X121202081Y-81560000D02*
X120000000Y-81560000D01*
X139690364Y-105801000D02*
X137701000Y-105801000D01*
X140500000Y-104991364D02*
X139690364Y-105801000D01*
X155100002Y-91286232D02*
X154899677Y-91486557D01*
X140500000Y-104000000D02*
X140500000Y-104991364D01*
%TO.N,/I2C_SCL*%
X115200000Y-81900000D02*
X115180000Y-81900000D01*
X115180000Y-81900000D02*
X114000000Y-80720000D01*
X139400000Y-105100000D02*
X138300000Y-105100000D01*
X154600002Y-89936399D02*
X154600002Y-87800002D01*
X154600002Y-87800002D02*
X154600000Y-87800000D01*
X138300000Y-105100000D02*
X132700000Y-99500000D01*
X115200000Y-81900000D02*
X117120000Y-81900000D01*
X117120000Y-81900000D02*
X117460000Y-81560000D01*
%TO.N,/sw2*%
X154300000Y-94700000D02*
X154300000Y-116900000D01*
%TO.N,/sd mosi*%
X149420654Y-120000000D02*
X149300000Y-120000000D01*
X151600002Y-89936399D02*
X151600002Y-90899998D01*
X149600000Y-120300000D02*
X149300000Y-120000000D01*
X151600002Y-90899998D02*
X152800000Y-92099996D01*
X153099000Y-99399000D02*
X153099000Y-118801000D01*
X152800000Y-92099996D02*
X152800000Y-99100000D01*
X152800000Y-99100000D02*
X153099000Y-99399000D01*
X153099000Y-118801000D02*
X151600000Y-120300000D01*
X151600000Y-120300000D02*
X149600000Y-120300000D01*
%TO.N,/sw3*%
X152600002Y-89936399D02*
X152600002Y-91191478D01*
X152600002Y-91191478D02*
X153600000Y-92191476D01*
X153600000Y-92191476D02*
X153600000Y-119200000D01*
X153600000Y-119200000D02*
X149600000Y-123200000D01*
X149600000Y-123200000D02*
X147400000Y-123200000D01*
%TO.N,/pb0*%
X165700000Y-84400000D02*
X189500000Y-84400000D01*
%TO.N,/rst*%
X100300000Y-89400000D02*
X100600000Y-89100000D01*
X137400000Y-98200000D02*
X136100000Y-99500000D01*
X154100002Y-91199998D02*
X153900000Y-91400000D01*
X154100002Y-89936399D02*
X154100002Y-91199998D01*
X100600000Y-89100000D02*
X103200000Y-89100000D01*
X99700000Y-89400000D02*
X100300000Y-89400000D01*
%TO.N,/pb1*%
X192000000Y-83500000D02*
X192100000Y-83400000D01*
X161300000Y-83500000D02*
X192000000Y-83500000D01*
X192100000Y-79400000D02*
X192100000Y-78900000D01*
X192100000Y-78900000D02*
X192025002Y-78825002D01*
X192025002Y-78825002D02*
X192025002Y-68806399D01*
%TO.N,/pb0*%
X153100002Y-89936399D02*
X153100002Y-86600002D01*
X153100002Y-86600002D02*
X153100000Y-86600000D01*
X189500000Y-75800000D02*
X189485002Y-75785002D01*
X189485002Y-75785002D02*
X189485002Y-68806399D01*
%TO.N,/sw3*%
X140200000Y-123300000D02*
X140200000Y-123769000D01*
X140200000Y-123769000D02*
X137000000Y-126969000D01*
%TO.N,/sw2*%
X152100002Y-89936399D02*
X152100002Y-88200002D01*
X152100002Y-88200002D02*
X152100000Y-88200000D01*
X146000000Y-121200000D02*
X146000000Y-126969000D01*
X146100000Y-121100000D02*
X146000000Y-121200000D01*
%TO.N,/sd mosi*%
X108706401Y-124375000D02*
X112625000Y-124375000D01*
X112625000Y-124375000D02*
X114000000Y-123000000D01*
%TO.N,/sd cs*%
X114000000Y-127000000D02*
X108831401Y-127000000D01*
X108831401Y-127000000D02*
X108706401Y-126875000D01*
X138400000Y-97750058D02*
X138400000Y-104000000D01*
X138500000Y-115300000D02*
X138500000Y-117600000D01*
X148600002Y-89936399D02*
X146213659Y-89936399D01*
X114000000Y-125100000D02*
X114000000Y-127000000D01*
%TO.N,/wr*%
X151100002Y-87700002D02*
X151100000Y-87700000D01*
X151100002Y-89936399D02*
X151100002Y-87700002D01*
X151100000Y-87700000D02*
X151100000Y-87300000D01*
X115000000Y-102000000D02*
X117340000Y-102000000D01*
X117340000Y-102000000D02*
X117460000Y-101880000D01*
%TO.N,/sd clk*%
X150600002Y-91100002D02*
X151800000Y-92300000D01*
X150600002Y-89936399D02*
X150600002Y-91100002D01*
X151800000Y-92300000D02*
X152000000Y-92500000D01*
X152000000Y-92500000D02*
X152000000Y-116500000D01*
X110600000Y-116700000D02*
X108881401Y-116700000D01*
X108881401Y-116700000D02*
X108706401Y-116875000D01*
%TO.N,/href*%
X148500000Y-102000000D02*
X148399000Y-102101000D01*
X150100002Y-89936399D02*
X150100002Y-91400002D01*
X120200000Y-84300000D02*
X120000000Y-84100000D01*
X148399000Y-102101000D02*
X139801000Y-102101000D01*
X150100002Y-91400002D02*
X151400000Y-92700000D01*
X151400000Y-99100000D02*
X148500000Y-102000000D01*
X139801000Y-102101000D02*
X139700000Y-102000000D01*
X151400000Y-92700000D02*
X151400000Y-99100000D01*
X122300000Y-84300000D02*
X120200000Y-84300000D01*
%TO.N,/osc out*%
X133800000Y-87362500D02*
X136188901Y-87362500D01*
X136188901Y-87362500D02*
X138350002Y-85201399D01*
D45*
%TO.N,+3.3V*%
X146350002Y-97723899D02*
X150276101Y-97723899D01*
X150276101Y-97723899D02*
X150425002Y-97574998D01*
X150425002Y-97574998D02*
X150425002Y-93406399D01*
X146350002Y-97723899D02*
X146350002Y-94911399D01*
%TO.N,+3.3VA*%
X144400000Y-97673901D02*
X144400000Y-92600000D01*
X144350002Y-97723899D02*
X144400000Y-97673901D01*
X144400000Y-92600000D02*
X144800000Y-92600000D01*
X144800000Y-92600000D02*
X144811399Y-92611399D01*
X144811399Y-92611399D02*
X146350002Y-92611399D01*
X142350002Y-97723899D02*
X144350002Y-97723899D01*
%TO.N,GND*%
X154810002Y-64000000D02*
X153100000Y-64000000D01*
X141861399Y-74761399D02*
X141900000Y-74800000D01*
X140387502Y-74761399D02*
X141861399Y-74761399D01*
D44*
%TO.N,/osc in*%
X138350002Y-80321399D02*
X138350002Y-74798899D01*
X138350002Y-74798899D02*
X138312502Y-74761399D01*
%TO.N,/osc out*%
X146675002Y-83011399D02*
X145788601Y-83011399D01*
X145788601Y-83011399D02*
X143598601Y-85201399D01*
X143598601Y-85201399D02*
X138350002Y-85201399D01*
%TO.N,/osc in*%
X146675002Y-82511399D02*
X145611399Y-82511399D01*
X145611399Y-82511399D02*
X144762399Y-81662399D01*
X144762399Y-81662399D02*
X139691002Y-81662399D01*
X139691002Y-81662399D02*
X138350002Y-80321399D01*
%TO.N,/buzzer*%
X164900000Y-86500000D02*
X164900000Y-88400000D01*
X158025002Y-86511399D02*
X164888601Y-86511399D01*
X164888601Y-86511399D02*
X164900000Y-86500000D01*
X164900000Y-88400000D02*
X164800000Y-88500000D01*
X164800000Y-88500000D02*
X164800000Y-90000000D01*
%TO.N,/sw3*%
X137000000Y-129825397D02*
X136206399Y-130618998D01*
X136206399Y-130618998D02*
X136206399Y-135956399D01*
X136206399Y-135956399D02*
X137750000Y-137500000D01*
X137000000Y-126969000D02*
X137000000Y-129825397D01*
%TO.N,/sw2*%
X145911500Y-136361500D02*
X147050000Y-137500000D01*
X146000000Y-126969000D02*
X145911500Y-127057500D01*
X145911500Y-127057500D02*
X145911500Y-136361500D01*
%TO.N,/sw1*%
X155000000Y-136150000D02*
X156350000Y-137500000D01*
X155000000Y-126969000D02*
X155000000Y-136150000D01*
D45*
%TO.N,+BATT*%
X179000000Y-123443899D02*
X179000000Y-127000000D01*
X179000000Y-130000000D02*
X179000000Y-139637500D01*
D44*
%TO.N,Net-(IC3-EN)*%
X173501000Y-120000000D02*
X175000000Y-120000000D01*
X182000000Y-128000000D02*
X174000000Y-128000000D01*
X181000000Y-141637500D02*
X182101000Y-140536500D01*
X174000000Y-128000000D02*
X173501000Y-127501000D01*
X173501000Y-127501000D02*
X173501000Y-120000000D01*
X182101000Y-140536500D02*
X182101000Y-128101000D01*
X182101000Y-128101000D02*
X182000000Y-128000000D01*
X175000000Y-120000000D02*
X175000000Y-120396397D01*
X175000000Y-120396397D02*
X175060002Y-120456399D01*
%TO.N,Net-(IC1-EN)*%
X171000000Y-119000000D02*
X171000000Y-114000000D01*
X173000000Y-129000000D02*
X173000000Y-119000000D01*
X181000000Y-139637500D02*
X181000000Y-129000000D01*
X181000000Y-129000000D02*
X173000000Y-129000000D01*
X173000000Y-119000000D02*
X171000000Y-119000000D01*
X171000000Y-114000000D02*
X172253601Y-114000000D01*
X172253601Y-114000000D02*
X172710000Y-114456399D01*
X172710000Y-111290000D02*
X172710000Y-114456399D01*
D45*
%TO.N,+BATT*%
X181350002Y-123443899D02*
X179000000Y-123443899D01*
%TO.N,+3.3V*%
X169290000Y-116356399D02*
X166362502Y-116356399D01*
X166362502Y-116356399D02*
X166350002Y-116368899D01*
%TO.N,+3.3V LCD*%
X170000000Y-123996401D02*
X170000000Y-124000000D01*
X171640002Y-122356399D02*
X170000000Y-123996401D01*
X170000000Y-124000000D02*
X169443899Y-123443899D01*
X169443899Y-123443899D02*
X168350002Y-123443899D01*
D44*
%TO.N,Net-(IC1-EN)*%
X175350002Y-110406399D02*
X173593601Y-110406399D01*
X173593601Y-110406399D02*
X172710000Y-111290000D01*
%TO.N,Net-(IC3-EN)*%
X179350002Y-119406399D02*
X176110002Y-119406399D01*
X176110002Y-119406399D02*
X175060002Y-120456399D01*
D45*
%TO.N,+BATT*%
X190000000Y-117350002D02*
X190000000Y-119000000D01*
X192350002Y-115000000D02*
X190000000Y-117350002D01*
X190000000Y-119000000D02*
X185556101Y-123443899D01*
X185556101Y-123443899D02*
X181350002Y-123443899D01*
X176500000Y-117443899D02*
X173797500Y-117443899D01*
X173797500Y-117443899D02*
X172710000Y-116356399D01*
X188750002Y-114106399D02*
X184893601Y-114106399D01*
X184893601Y-114106399D02*
X181556101Y-117443899D01*
X181556101Y-117443899D02*
X176500000Y-117443899D01*
X179000000Y-123443899D02*
X176147502Y-123443899D01*
X176147502Y-123443899D02*
X175060002Y-122356399D01*
X192350002Y-115000000D02*
X192350002Y-102443899D01*
X191000000Y-115000000D02*
X190000000Y-114000000D01*
X192350002Y-115000000D02*
X191000000Y-115000000D01*
X190000000Y-114000000D02*
X188856401Y-114000000D01*
X188856401Y-114000000D02*
X188750002Y-114106399D01*
%TO.N,GND*%
X188750002Y-116646399D02*
X188750002Y-118549998D01*
D44*
X160782502Y-81011399D02*
X161350002Y-80443899D01*
X155600002Y-92436399D02*
X155275002Y-92761399D01*
D45*
X176500000Y-113200000D02*
X176500000Y-111256401D01*
D44*
X149100002Y-89936399D02*
X149100002Y-92149998D01*
X155600002Y-89936399D02*
X155600002Y-88400002D01*
D45*
X188750002Y-118549998D02*
X188700000Y-118600000D01*
X176500000Y-115368899D02*
X176500000Y-113200000D01*
X176462500Y-115406399D02*
X176500000Y-115368899D01*
X175060002Y-121406399D02*
X176893601Y-121406399D01*
D44*
X155600002Y-88400002D02*
X155500000Y-88300000D01*
D45*
X166731101Y-121368899D02*
X166700000Y-121400000D01*
X144350002Y-99798899D02*
X146350002Y-99798899D01*
X192350002Y-121000000D02*
X190700000Y-121000000D01*
X183068899Y-121368899D02*
X183100000Y-121400000D01*
X173043599Y-90000000D02*
X173093601Y-90050002D01*
X188750002Y-109646399D02*
X191146399Y-109646399D01*
D44*
X149100002Y-92149998D02*
X148350002Y-92899998D01*
D45*
X176500000Y-111256401D02*
X177350002Y-110406399D01*
X179350002Y-121406399D02*
X181312502Y-121406399D01*
X166350002Y-118443899D02*
X164656101Y-118443899D01*
D44*
X148350002Y-92899998D02*
X148350002Y-93406399D01*
X155600002Y-89936399D02*
X155600002Y-92436399D01*
X149100002Y-78586399D02*
X149100002Y-80100002D01*
D45*
X142350002Y-99798899D02*
X144350002Y-99798899D01*
X181312502Y-121406399D02*
X181350002Y-121368899D01*
X176893601Y-121406399D02*
X176900000Y-121400000D01*
X168350002Y-121368899D02*
X166731101Y-121368899D01*
D44*
X149100002Y-88400002D02*
X149100000Y-88400000D01*
X146675002Y-86011399D02*
X148188601Y-86011399D01*
D45*
X164656101Y-118443899D02*
X164600000Y-118500000D01*
D44*
X149100002Y-80100002D02*
X149200000Y-80200000D01*
D45*
X171200000Y-90000000D02*
X173043599Y-90000000D01*
X191146399Y-109646399D02*
X191200000Y-109700000D01*
D44*
X149100002Y-76048899D02*
X149387502Y-75761399D01*
X149100002Y-89936399D02*
X149100002Y-88400002D01*
D45*
X172710000Y-115406399D02*
X176462500Y-115406399D01*
D44*
X149100002Y-78586399D02*
X149100002Y-76048899D01*
D45*
X181350002Y-121368899D02*
X183068899Y-121368899D01*
D44*
X158025002Y-81011399D02*
X160782502Y-81011399D01*
X148188601Y-86011399D02*
X148200000Y-86000000D01*
%TO.N,+3.3V*%
X143562502Y-80511399D02*
X143350002Y-80723899D01*
X157500000Y-92611401D02*
X157350002Y-92761399D01*
X158025002Y-80511399D02*
X159207502Y-80511399D01*
X159207502Y-80511399D02*
X161350002Y-78368899D01*
X147500000Y-77486397D02*
X147500000Y-75948897D01*
X148600002Y-78586399D02*
X147500000Y-77486397D01*
X150425002Y-92925002D02*
X150425002Y-93406399D01*
X147500000Y-75948897D02*
X147312502Y-75761399D01*
X146675002Y-80511399D02*
X143562502Y-80511399D01*
X156100002Y-89936399D02*
X157500000Y-91336397D01*
X149600002Y-92100002D02*
X150425002Y-92925002D01*
X157500000Y-91336397D02*
X157500000Y-92611401D01*
X149600002Y-89936399D02*
X149600002Y-92100002D01*
%TO.N,/sd mosi*%
X149300000Y-120000000D02*
X113900000Y-120000000D01*
X113900000Y-120000000D02*
X113900000Y-120400000D01*
X113900000Y-120400000D02*
X114000000Y-120500000D01*
X114000000Y-120500000D02*
X114000000Y-123000000D01*
D45*
%TO.N,GND*%
X133800000Y-89437500D02*
X133800000Y-89500000D01*
X133800000Y-89500000D02*
X132500000Y-90800000D01*
%TD*%
M02*
